<?xml version="1.0" standalone="no"?>
<!DOCTYPE svg PUBLIC "-//W3C//DTD SVG 20010904//EN"
 "http://www.w3.org/TR/2001/REC-SVG-20010904/DTD/svg10.dtd">
<svg version="1.0" xmlns="http://www.w3.org/2000/svg"
 width="1312.000000pt" height="2018.000000pt" viewBox="0 0 1312.000000 2018.000000"
 preserveAspectRatio="xMidYMid meet">
<metadata>
Created by potrace 1.13, written by Peter Selinger 2001-2015
</metadata>
<g transform="translate(0.000000,2018.000000) scale(0.100000,-0.100000)"
fill="#000000" stroke="none">
<path d="M0 10090 l0 -10090 6560 0 6560 0 0 10090 0 10090 -6560 0 -6560 0 0
-10090z m5798 8343 c17 -17 91 -11 103 9 9 14 943 12 947 -2 5 -13 72 -13 72
0 0 6 88 10 245 10 157 0 245 -4 245 -10 0 -5 7 -10 15 -10 8 0 25 -11 38 -24
17 -17 41 -26 80 -31 43 -6 58 -12 62 -26 4 -11 11 -19 16 -19 5 0 9 -7 9 -15
0 -8 -4 -15 -9 -15 -13 0 -23 -34 -15 -54 4 -11 18 -16 44 -16 31 0 40 4 46
22 10 33 50 68 79 68 14 0 25 -4 25 -10 0 -5 9 -10 20 -10 11 0 20 5 20 10 0
14 76 12 103 -2 12 -7 29 -21 39 -31 11 -13 37 -20 87 -24 39 -3 71 -10 71
-14 0 -5 13 -9 30 -9 29 0 90 -47 90 -70 0 -5 10 -10 23 -10 26 0 77 -21 77
-32 0 -5 18 -8 41 -8 47 0 73 -21 64 -50 -5 -16 -2 -20 19 -20 13 0 31 -7 40
-15 8 -8 21 -15 30 -15 8 0 18 -9 21 -20 7 -22 10 -22 135 -21 41 1 81 -3 88
-7 18 -12 29 -122 13 -122 -7 0 -9 -5 -5 -11 4 -7 -7 -24 -24 -39 -17 -15 -29
-30 -26 -33 9 -9 -22 -37 -39 -37 -9 0 -17 -6 -19 -12 -3 -9 -40 -14 -122 -16
l-118 -4 -74 -73 c-71 -70 -74 -76 -74 -120 l0 -47 124 4 c114 3 126 5 144 26
11 12 24 22 30 22 6 0 12 5 14 12 3 8 42 11 135 9 106 -1 134 1 146 14 20 20
74 19 94 -1 12 -12 27 -14 62 -9 38 5 51 3 69 -13 12 -11 22 -26 22 -33 1 -21
62 -77 67 -61 3 6 16 12 29 12 13 0 24 5 24 10 0 6 4 10 10 10 17 0 90 34 90
42 0 5 11 8 25 8 14 0 25 -4 25 -10 0 -5 13 -10 29 -10 17 0 33 -4 36 -10 3
-5 15 -10 25 -10 10 0 25 -7 34 -15 8 -8 22 -15 30 -15 9 0 16 -7 16 -15 0 -8
5 -15 10 -15 6 0 10 -30 10 -70 0 -40 -4 -70 -10 -70 -5 0 -10 -5 -10 -10 0
-23 -50 -60 -80 -60 -16 0 -30 -4 -30 -9 0 -5 -13 -12 -28 -16 -15 -3 -34 -15
-42 -25 -10 -14 -26 -20 -54 -20 -30 0 -45 -7 -68 -30 -21 -22 -37 -30 -64
-30 -55 0 -90 -51 -44 -65 17 -5 20 -15 20 -64 0 -89 15 -101 128 -101 104 0
122 -5 122 -31 0 -10 5 -19 10 -19 6 0 10 -13 10 -30 0 -16 -4 -30 -10 -30 -5
0 -10 -7 -10 -16 0 -8 -17 -33 -38 -53 -32 -32 -48 -39 -95 -45 -63 -8 -72
-20 -65 -85 3 -32 4 -33 63 -36 33 -2 61 -8 63 -14 2 -6 14 -11 27 -11 13 0
25 -5 27 -10 2 -6 26 -13 54 -16 39 -5 54 -3 66 10 9 9 19 16 23 16 3 0 18 11
33 25 31 29 102 36 102 10 0 -8 5 -15 11 -15 6 0 9 -10 7 -23 -7 -36 14 -48
37 -20 17 19 30 23 78 23 31 0 57 5 57 10 0 6 23 10 50 10 28 0 50 -4 50 -10
0 -5 20 -10 45 -10 36 0 50 -6 75 -30 16 -16 30 -36 30 -45 0 -11 12 -15 50
-15 43 0 54 -4 77 -31 26 -29 32 -31 78 -26 27 2 51 10 53 16 2 6 8 11 14 11
5 0 16 7 24 15 9 8 33 15 54 15 21 0 42 5 45 10 8 12 65 13 65 1 0 -5 18 -11
40 -15 22 -3 40 -11 40 -16 0 -6 7 -10 15 -10 16 0 95 -74 95 -90 0 -5 -13
-10 -30 -10 -21 0 -28 -4 -24 -14 3 -9 -3 -20 -15 -28 -12 -7 -21 -19 -21 -26
0 -7 -18 -30 -40 -51 -22 -21 -40 -44 -40 -52 0 -8 -10 -21 -21 -29 -12 -8
-27 -21 -35 -27 -7 -7 -22 -13 -33 -13 -12 0 -21 -4 -21 -9 0 -5 -11 -12 -25
-15 -14 -4 -25 -11 -25 -16 0 -6 -7 -10 -15 -10 -8 0 -15 -4 -15 -9 0 -5 -20
-12 -45 -15 -25 -4 -45 -11 -45 -17 0 -5 -7 -9 -15 -9 -8 0 -15 -9 -15 -20 0
-11 -4 -20 -9 -20 -5 0 -12 -12 -15 -26 -8 -30 -80 -104 -101 -104 -8 0 -15
-4 -15 -10 0 -18 -35 -11 -50 10 -22 30 -67 26 -100 -10 -15 -16 -33 -30 -38
-30 -16 0 -82 -68 -82 -85 0 -8 -5 -15 -11 -15 -8 0 -8 -5 1 -15 7 -8 19 -15
26 -15 8 0 14 -4 14 -10 0 -6 27 -10 60 -10 33 0 60 -4 60 -10 0 -5 9 -10 19
-10 40 0 51 -11 51 -52 0 -38 17 -68 39 -68 6 0 35 -25 65 -55 38 -39 62 -55
80 -55 14 0 26 -4 26 -10 0 -5 18 -10 40 -10 45 0 80 27 80 60 0 11 5 20 11
20 6 0 8 8 4 19 -5 15 2 19 41 25 25 3 77 3 115 0 55 -6 69 -4 69 7 1 24 35
56 68 64 18 3 32 11 32 16 0 5 18 9 40 9 22 0 40 -4 40 -9 0 -5 11 -12 25 -15
16 -4 25 -13 25 -26 0 -11 5 -20 10 -20 6 0 10 -15 10 -33 0 -34 27 -67 55
-67 16 0 28 -36 23 -71 -2 -16 -11 -25 -25 -27 -13 -2 -23 -8 -23 -13 0 -5
-15 -9 -34 -9 -27 0 -36 -5 -42 -22 -4 -13 -2 -24 5 -26 16 -5 14 -91 -3 -108
-8 -8 -33 -14 -56 -14 -37 0 -48 6 -86 46 -57 59 -71 49 -66 -48 3 -43 0 -68
-6 -68 -6 0 -17 -6 -24 -12 -7 -7 -26 -20 -43 -28 -16 -8 -38 -22 -47 -30 -20
-16 -25 -60 -7 -60 6 0 9 -9 6 -20 -3 -11 -1 -20 4 -20 5 0 9 -7 9 -15 0 -8
-4 -15 -9 -15 -5 0 -12 -9 -16 -19 -4 -13 -19 -22 -48 -26 -46 -8 -57 -18 -57
-52 0 -13 -4 -23 -10 -23 -5 0 -10 -9 -10 -19 0 -22 -19 -31 -66 -31 -24 0
-34 5 -34 15 0 8 -4 15 -10 15 -5 0 -10 9 -10 20 0 11 -5 20 -11 20 -6 0 -9 6
-7 12 7 19 -17 38 -45 38 -28 0 -45 -29 -25 -41 7 -4 9 -11 6 -15 -4 -3 9 -22
29 -41 l35 -35 -6 -79 c-6 -68 -5 -79 8 -79 9 0 16 -4 16 -10 0 -5 11 -10 25
-10 14 0 25 -4 25 -9 0 -5 9 -13 20 -16 15 -5 20 -15 20 -41 0 -19 -4 -34 -10
-34 -5 0 -10 -9 -10 -20 0 -13 -9 -22 -25 -26 -14 -3 -25 -10 -25 -15 0 -5 -9
-9 -20 -9 -11 0 -20 -4 -20 -10 0 -5 -18 -13 -40 -16 -22 -4 -40 -10 -40 -15
0 -5 -9 -9 -20 -9 -11 0 -20 -4 -20 -10 0 -5 -7 -10 -15 -10 -8 0 -15 5 -15
10 0 6 -7 10 -15 10 -8 0 -15 4 -15 9 0 12 -48 23 -71 16 -10 -4 -19 -13 -19
-22 0 -25 -42 -52 -81 -53 -42 0 -49 12 -49 98 0 45 -3 52 -20 52 -17 0 -20
-7 -20 -50 0 -27 -4 -50 -10 -50 -5 0 -10 -7 -10 -15 0 -11 -13 -15 -54 -15
-30 0 -58 -4 -61 -10 -3 -5 -26 -10 -50 -10 -24 0 -47 5 -50 10 -3 6 -22 10
-41 10 -19 0 -34 -4 -34 -10 0 -5 -18 -10 -40 -10 -22 0 -40 5 -40 10 0 6 -6
10 -14 10 -19 0 -86 66 -86 85 0 8 -4 15 -10 15 -5 0 -10 11 -10 24 0 38 -26
51 -103 52 -45 0 -72 5 -75 12 -2 7 -10 12 -18 12 -32 0 -54 38 -54 95 0 30
-4 55 -10 55 -5 0 -10 20 -10 45 0 39 3 45 25 51 16 4 25 13 25 25 0 10 5 19
10 19 6 0 10 7 10 15 0 8 -4 15 -10 15 -5 0 -10 11 -10 25 0 33 41 35 55 3 7
-17 20 -24 48 -26 34 -3 37 -1 37 22 0 14 -4 26 -10 26 -5 0 -10 14 -10 30 0
17 -4 30 -10 30 -5 0 -10 7 -10 15 0 8 -4 15 -10 15 -5 0 -10 -4 -10 -10 0
-15 -49 -12 -66 4 -19 20 -18 72 2 80 8 3 33 3 54 0 26 -4 49 -1 71 10 36 18
179 23 179 6 0 -5 18 -10 39 -10 22 0 46 -7 55 -15 8 -8 22 -15 30 -15 9 0 16
-4 16 -10 0 -5 16 -10 35 -10 l35 0 0 66 c0 89 -12 100 -102 96 l-68 -2 0 46
c0 40 5 51 35 80 19 18 35 36 35 39 0 10 -28 35 -39 35 -6 0 -11 5 -11 10 0 6
-9 10 -20 10 -11 0 -20 -4 -20 -10 0 -6 -78 -10 -214 -10 -212 0 -215 0 -222
-22 -12 -40 -29 -48 -103 -48 -39 0 -71 3 -71 8 0 4 -11 12 -25 19 -24 11 -25
10 -25 -23 0 -19 -4 -34 -10 -34 -5 0 -10 -9 -10 -19 0 -11 -9 -22 -19 -26
-16 -5 -19 -12 -14 -40 4 -23 2 -35 -6 -35 -6 0 -11 -11 -11 -25 0 -14 -4 -25
-10 -25 -5 0 -10 -7 -10 -16 0 -25 -42 -53 -79 -54 -25 0 -43 -9 -73 -40 -22
-22 -49 -40 -61 -40 -19 0 -57 -34 -57 -52 0 -4 38 -8 85 -8 50 0 85 4 85 10
0 6 20 10 44 10 26 0 46 5 48 12 3 9 42 13 131 13 117 2 128 4 146 23 24 29
71 30 71 2 0 -11 5 -20 10 -20 6 0 10 -7 10 -15 0 -8 5 -15 10 -15 6 0 10 -16
10 -35 0 -31 -3 -35 -27 -35 -31 0 -63 -26 -63 -50 0 -10 11 -26 25 -36 30
-23 31 -35 6 -54 -11 -7 -18 -17 -15 -22 3 -4 0 -8 -5 -8 -6 0 -11 -5 -11 -11
0 -23 -30 -39 -74 -39 -25 0 -46 5 -46 10 0 6 -7 10 -15 10 -8 0 -15 4 -15 10
0 5 -27 12 -60 16 -33 4 -60 11 -60 15 0 5 -11 9 -24 9 -13 0 -26 5 -28 11 -3
8 -42 14 -106 17 -56 2 -99 9 -96 13 3 5 -2 9 -10 9 -9 0 -16 -4 -16 -9 0 -4
-21 -11 -47 -14 -50 -6 -103 -27 -103 -39 0 -5 -7 -8 -15 -8 -8 0 -25 -11 -39
-25 -14 -14 -30 -25 -36 -25 -5 0 -10 -4 -10 -9 0 -5 -8 -12 -18 -15 -14 -5
-16 -15 -14 -49 3 -40 2 -44 -30 -57 -18 -8 -35 -24 -37 -35 -2 -11 -8 -23
-15 -27 -8 -6 -7 -8 2 -8 8 0 12 -17 12 -50 0 -27 -4 -50 -10 -50 -5 0 -10 -9
-10 -20 0 -14 -7 -20 -21 -20 -11 0 -17 -4 -14 -10 3 -5 1 -10 -4 -10 -6 0
-11 -7 -11 -15 0 -8 -4 -15 -10 -15 -5 0 -10 -18 -10 -39 0 -22 -4 -42 -9 -45
-4 -3 -6 -17 -3 -31 3 -18 -2 -31 -17 -44 -11 -10 -21 -28 -21 -40 0 -11 -5
-21 -10 -21 -6 0 -8 -11 -4 -25 4 -15 2 -25 -5 -25 -6 0 -11 -9 -11 -20 0 -11
-4 -20 -10 -20 -12 0 -60 -48 -60 -61 0 -17 -27 -39 -49 -39 -12 0 -21 -4 -21
-9 0 -5 -26 -11 -57 -13 -31 -3 -59 -10 -61 -16 -2 -7 -10 -12 -17 -12 -7 0
-15 -5 -17 -10 -2 -6 -29 -14 -61 -17 -31 -3 -57 -10 -57 -14 0 -5 -11 -9 -25
-9 -14 0 -25 -4 -25 -9 0 -5 -9 -12 -19 -16 -12 -3 -21 -19 -25 -40 -4 -19
-11 -35 -16 -35 -6 0 -10 -25 -10 -56 0 -51 -3 -59 -35 -90 -22 -21 -35 -43
-35 -60 0 -26 -67 -104 -90 -104 -5 0 -10 -4 -10 -9 0 -5 -8 -12 -19 -16 -13
-4 -17 -12 -13 -30 2 -15 0 -25 -7 -25 -6 0 -11 -7 -11 -16 0 -8 -16 -30 -35
-48 -19 -19 -35 -36 -35 -40 0 -4 -22 -29 -50 -57 -27 -27 -50 -54 -50 -59 0
-5 -9 -12 -20 -15 -11 -3 -20 -15 -20 -25 0 -11 -10 -20 -27 -25 -31 -7 -94
-65 -86 -78 9 -15 -40 -47 -74 -47 -18 0 -33 -4 -33 -10 0 -5 -11 -10 -25 -10
-20 0 -25 -5 -25 -25 0 -14 -5 -25 -11 -25 -5 0 -7 -5 -4 -11 4 -5 -3 -18 -14
-28 -12 -10 -21 -25 -21 -34 0 -8 -4 -17 -10 -19 -5 -2 -12 -36 -16 -75 -4
-40 -11 -73 -15 -73 -5 0 -9 -45 -9 -100 0 -55 4 -100 9 -100 5 0 13 -26 17
-57 7 -55 21 -83 43 -83 6 0 11 -4 11 -10 0 -19 53 -10 71 12 11 11 19 25 19
30 0 5 12 21 27 36 23 22 37 27 95 30 68 4 68 4 68 -22 0 -14 -4 -26 -10 -26
-5 0 -10 -16 -10 -35 0 -28 4 -35 20 -35 11 0 20 5 20 10 0 6 5 10 12 10 6 0
31 20 55 45 25 26 56 48 73 52 22 4 30 11 30 27 0 28 18 46 46 46 12 0 24 5
26 11 2 6 25 13 51 16 26 3 47 10 47 14 0 5 11 9 25 9 18 0 25 5 25 20 0 11
-4 20 -10 20 -34 0 13 79 48 80 6 0 12 4 12 9 0 5 12 12 28 16 15 4 21 10 15
12 -10 3 -13 46 -13 164 l0 159 35 0 c19 0 35 5 35 10 0 6 10 10 23 10 29 0
57 19 40 27 -7 2 -13 16 -13 29 0 13 -5 24 -11 24 -7 0 -10 14 -7 35 2 19 0
35 -4 35 -4 0 -8 11 -8 25 0 14 4 25 9 25 5 0 7 9 4 20 -5 20 28 60 50 60 5 0
22 14 37 30 33 35 50 38 50 10 0 -11 5 -20 11 -20 6 0 9 -10 7 -23 -6 -32 18
-54 28 -25 8 26 28 48 43 48 6 0 11 5 11 10 0 6 14 10 31 10 16 0 28 4 25 9
-4 5 13 12 36 16 40 7 68 24 68 42 0 4 11 20 25 35 14 15 28 41 31 58 4 16 10
30 15 30 5 0 9 11 9 24 0 16 7 27 19 31 11 3 23 15 26 26 7 20 55 28 55 9 0
-5 9 -10 20 -10 15 0 20 7 20 25 0 14 4 25 9 25 5 0 7 9 4 20 -3 11 0 20 6 20
6 0 11 5 11 10 0 6 20 30 45 54 25 25 45 49 45 55 0 6 11 11 25 11 14 0 25 5
25 10 0 6 7 10 15 10 8 0 15 4 15 9 0 5 9 13 20 16 11 4 20 12 19 18 -3 27 14
57 32 57 11 0 19 5 19 10 0 6 32 10 75 10 43 0 75 -4 75 -10 0 -5 6 -10 14
-10 8 0 16 -6 19 -12 2 -9 25 -13 64 -13 51 0 65 4 81 23 11 12 24 22 31 22 6
0 11 5 11 10 0 6 32 10 75 10 41 0 75 -4 75 -9 0 -5 9 -11 20 -14 11 -3 23
-12 26 -21 8 -20 -26 -65 -49 -66 -10 0 -20 -7 -23 -15 -4 -8 -17 -15 -30 -15
-13 0 -24 -4 -24 -9 0 -5 -15 -12 -33 -15 -18 -3 -39 -15 -47 -26 -8 -11 -20
-20 -26 -20 -7 0 -14 -6 -16 -12 -3 -9 -43 -13 -143 -13 -99 -1 -140 -4 -143
-13 -2 -7 -13 -12 -23 -12 -11 0 -17 -4 -14 -10 8 -13 -36 -57 -61 -62 -10 -2
-20 -11 -22 -22 -2 -10 -35 -49 -73 -86 -69 -68 -69 -69 -69 -124 0 -40 -4
-56 -13 -56 -16 0 -51 -30 -53 -45 -3 -23 -17 -55 -25 -55 -5 0 -9 -9 -9 -20
0 -26 -30 -60 -52 -60 -10 0 -18 -4 -18 -10 0 -5 -7 -10 -15 -10 -8 0 -15 -4
-15 -10 0 -5 -9 -10 -19 -10 -11 0 -21 -5 -23 -11 -2 -6 -25 -13 -51 -16 -36
-4 -48 -10 -53 -27 -4 -11 -15 -28 -25 -37 -28 -25 -23 -47 21 -91 22 -22 40
-36 40 -30 0 6 13 13 28 17 15 3 34 15 42 25 13 18 27 20 157 20 89 0 143 4
143 10 0 6 25 10 55 10 30 0 55 -4 55 -10 0 -5 18 -10 40 -10 22 0 40 5 40 10
0 6 33 10 80 10 47 0 80 -4 80 -10 0 -5 16 -10 35 -10 19 0 35 4 35 9 0 5 10
11 23 13 19 3 22 10 25 49 3 43 5 47 34 53 17 3 54 6 84 6 29 0 56 5 59 10 3
6 17 10 31 10 13 0 24 5 24 10 0 6 14 10 30 10 25 0 30 -4 30 -25 0 -14 -4
-25 -10 -25 -5 0 -10 -23 -10 -51 l0 -52 -40 6 c-37 5 -40 3 -40 -19 0 -13 5
-24 11 -24 6 0 9 -6 7 -12 -3 -7 0 -18 6 -23 12 -12 80 -45 91 -45 11 0 35
-28 35 -40 0 -15 62 -9 68 8 2 6 -3 12 -12 12 -9 0 -16 5 -16 10 0 6 -11 10
-25 10 -22 0 -25 4 -25 40 0 28 4 40 14 40 8 0 16 5 18 12 2 6 24 14 49 18
l44 7 -37 2 c-43 1 -88 41 -88 78 0 13 -4 23 -10 23 -5 0 -10 7 -10 15 0 8 5
15 10 15 6 0 10 9 10 20 0 13 9 22 25 26 14 3 25 10 25 15 0 5 16 9 35 9 19 0
35 4 35 9 0 5 13 12 30 16 16 4 36 15 42 24 7 10 27 21 44 25 16 4 37 16 45
28 8 11 20 26 27 34 15 15 16 34 2 34 -16 0 -12 89 4 106 9 8 34 14 60 14 34
0 46 4 46 15 0 8 5 15 10 15 6 0 10 11 10 25 0 14 5 25 12 25 7 0 31 20 55 45
40 43 45 45 98 45 30 0 55 -4 55 -9 0 -5 11 -12 25 -15 16 -4 25 -13 25 -26 0
-11 5 -20 10 -20 6 0 10 -22 10 -50 0 -34 4 -50 13 -50 7 0 21 -11 31 -25 10
-14 27 -25 37 -25 15 0 19 -8 19 -35 0 -19 -4 -35 -10 -35 -5 0 -10 -7 -10
-15 0 -8 -5 -15 -11 -15 -6 0 -8 -8 -4 -19 4 -14 -3 -22 -29 -35 -19 -9 -37
-16 -41 -16 -4 0 -22 -16 -41 -35 -35 -36 -74 -47 -74 -20 0 8 -4 15 -10 15
-5 0 -10 8 -10 18 0 10 -9 25 -20 35 -22 18 -50 23 -50 8 0 -5 -11 -12 -25
-15 -16 -4 -25 -13 -25 -26 0 -12 -7 -20 -17 -20 -20 0 -63 -46 -63 -67 0 -7
-4 -13 -10 -13 -5 0 -10 -9 -10 -20 0 -13 -9 -22 -25 -26 -14 -3 -25 -10 -25
-15 0 -5 -9 -9 -20 -9 -11 0 -20 -4 -20 -9 0 -5 -18 -11 -40 -15 -22 -3 -40
-11 -40 -16 0 -6 -9 -10 -20 -10 -11 0 -20 -4 -20 -10 0 -5 -8 -11 -17 -11
-17 -1 -17 -2 0 -6 9 -2 17 -9 17 -14 0 -5 14 -9 30 -9 17 0 30 5 30 10 0 6
11 10 25 10 14 0 25 5 25 11 0 15 22 35 48 43 12 4 22 12 22 17 0 5 11 9 25 9
14 0 25 5 25 10 0 6 6 10 14 10 18 0 77 55 69 64 -3 3 9 6 28 6 27 0 38 -7 54
-30 11 -16 23 -30 28 -30 4 0 7 -7 7 -15 0 -8 5 -15 10 -15 6 0 10 -11 10 -25
0 -13 7 -30 15 -37 9 -7 21 -19 28 -26 49 -53 59 -62 72 -62 7 0 15 -6 17 -12
3 -9 9 -8 22 5 10 9 20 17 24 17 4 0 16 14 27 30 15 23 27 30 53 30 20 0 31
-4 27 -10 -4 -6 7 -10 24 -10 17 0 31 -4 31 -10 0 -6 28 -10 65 -10 37 0 65
-4 65 -10 0 -6 39 -10 98 -10 115 0 142 -6 142 -30 0 -10 9 -21 19 -25 13 -4
22 -19 26 -48 5 -28 17 -50 36 -65 15 -13 25 -30 23 -37 -3 -7 3 -16 15 -20
11 -3 23 -15 26 -26 4 -10 11 -19 16 -19 5 0 9 -18 9 -40 0 -22 -4 -40 -9 -40
-5 0 -7 -9 -4 -19 3 -13 -2 -21 -16 -26 -12 -3 -21 -13 -21 -21 0 -21 -32 -54
-52 -54 -10 0 -18 -4 -18 -10 0 -5 -5 -10 -11 -10 -17 0 -39 -27 -39 -48 0
-26 21 -33 73 -26 32 5 47 2 59 -10 9 -9 20 -16 25 -16 5 0 15 -9 22 -19 9
-13 32 -22 63 -26 26 -4 48 -11 48 -16 0 -5 34 -9 75 -9 43 0 75 -4 75 -10 0
-5 9 -10 20 -10 11 0 20 -6 20 -14 0 -8 6 -16 12 -18 17 -6 25 -168 8 -168 -6
0 -8 -5 -5 -10 8 -13 -19 -40 -39 -40 -9 0 -16 -4 -16 -10 0 -5 -10 -10 -21
-10 -12 0 -36 -16 -55 -35 -25 -27 -41 -35 -67 -35 -49 0 -78 -30 -84 -85 -3
-25 -10 -45 -14 -45 -5 0 -9 -11 -9 -25 0 -24 -2 -25 -70 -25 -74 0 -101 -10
-137 -49 -20 -22 -26 -24 -89 -18 -37 4 -71 12 -75 19 -6 9 -12 8 -25 -3 -13
-11 -49 -14 -148 -14 l-132 0 -37 37 c-20 21 -37 42 -37 48 0 5 -4 10 -10 10
-16 0 -11 40 7 58 22 22 140 23 154 1 6 -10 9 -10 9 -1 0 6 10 12 22 12 12 0
30 7 40 17 19 17 25 63 7 63 -5 0 -7 5 -4 10 7 11 -14 13 -80 10 -22 -1 -42
-5 -45 -10 -3 -4 -58 -10 -124 -14 -107 -5 -120 -8 -138 -28 -18 -22 -27 -23
-133 -22 -108 1 -114 2 -139 27 -14 14 -26 31 -26 37 0 5 -5 10 -11 10 -7 0
-10 18 -7 50 1 28 0 50 -4 50 -5 0 -8 11 -8 25 0 14 -4 25 -9 25 -5 0 -12 8
-16 19 -3 11 -19 21 -37 25 -17 3 -28 9 -25 12 3 4 -7 19 -23 34 -19 17 -30
38 -30 54 0 21 -5 26 -25 26 -14 0 -25 5 -25 10 0 6 -9 10 -20 10 -12 0 -31
11 -44 25 -13 14 -31 25 -40 25 -9 0 -16 5 -16 10 0 6 -13 10 -28 10 -15 0
-32 4 -37 9 -6 5 -51 11 -102 13 -82 4 -94 7 -111 28 -18 22 -30 25 -103 29
-70 3 -86 7 -106 27 -12 13 -23 28 -23 34 0 5 -4 10 -10 10 -6 0 -10 52 -10
135 0 83 4 135 10 135 6 0 10 7 10 16 0 22 25 44 50 44 11 0 32 -11 45 -25 26
-25 32 -45 15 -45 -6 0 -10 -27 -10 -60 0 -33 4 -60 9 -60 5 0 11 -10 13 -22
2 -19 10 -24 41 -26 20 -2 37 -7 37 -13 0 -5 9 -9 20 -9 11 0 20 -4 20 -10 0
-5 11 -10 25 -10 22 0 25 4 25 35 0 41 -39 85 -75 85 -21 0 -25 5 -25 31 0 30
19 59 39 59 6 0 11 -4 11 -10 0 -5 9 -10 20 -10 11 0 20 5 20 10 0 6 18 10 40
10 29 0 40 4 40 15 0 8 -4 15 -10 15 -5 0 -10 8 -10 18 0 10 -9 25 -20 35 -18
15 -46 17 -227 17 l-206 0 -34 -35 -34 -35 -114 0 c-63 0 -115 -4 -115 -9 0
-5 -18 -11 -40 -15 -31 -5 -40 -11 -40 -25 0 -11 -9 -23 -20 -26 -11 -3 -20
-11 -20 -16 0 -5 -7 -9 -15 -9 -8 0 -15 -4 -15 -10 0 -5 -11 -12 -25 -16 -14
-3 -25 -10 -25 -15 0 -5 -9 -9 -20 -9 -11 0 -20 -4 -20 -10 0 -5 -25 -10 -55
-10 -59 0 -95 -20 -95 -52 0 -10 -4 -18 -10 -18 -5 0 -10 -16 -10 -36 0 -35
-18 -64 -39 -64 -6 0 -11 -4 -11 -10 0 -6 -30 -10 -70 -10 -54 0 -72 -4 -76
-15 -4 -8 -14 -15 -24 -15 -10 0 -20 -7 -24 -15 -3 -8 -14 -15 -24 -15 -22 0
-72 -22 -72 -32 0 -5 -7 -8 -15 -8 -8 0 -15 -4 -15 -9 0 -5 -9 -12 -19 -16
-11 -3 -23 -15 -26 -26 -4 -10 -14 -19 -24 -19 -10 0 -24 -7 -31 -15 -7 -8
-16 -15 -21 -15 -15 0 -49 -34 -49 -48 0 -20 -90 -102 -112 -102 -20 0 -58
-34 -58 -52 0 -17 -81 -88 -100 -88 -11 0 -20 -4 -20 -10 0 -5 -9 -10 -19 -10
-33 0 -51 -11 -51 -31 0 -10 -4 -19 -10 -19 -5 0 -10 -11 -10 -25 0 -14 -5
-25 -11 -25 -5 0 -8 -4 -4 -9 3 -5 -3 -12 -14 -16 -24 -7 -28 -40 -31 -270 -1
-99 -6 -181 -11 -183 -12 -5 -12 -62 1 -62 6 0 10 -55 10 -145 0 -90 -4 -145
-10 -145 -11 0 -13 -30 -4 -54 6 -17 64 -23 64 -7 0 5 11 12 25 15 14 4 25 11
25 16 0 6 9 10 21 10 11 0 18 4 15 9 -3 5 8 11 24 15 34 6 142 107 122 114
-13 4 -17 62 -3 62 4 0 11 25 15 56 6 50 12 60 59 107 28 29 57 62 63 72 13
24 44 32 54 14 6 -9 18 -2 44 24 20 20 42 37 50 37 14 0 26 21 26 47 0 32 27
43 109 43 47 0 81 -4 81 -10 0 -5 7 -10 15 -10 8 0 15 -4 15 -10 0 -17 32 -11
49 9 10 11 37 21 74 25 31 4 57 11 57 16 0 5 7 16 16 24 21 22 114 22 114 1 0
-8 5 -15 10 -15 6 0 10 -11 10 -25 0 -14 -4 -25 -10 -25 -5 0 -10 -9 -10 -19
0 -11 -8 -22 -19 -26 -13 -4 -17 -12 -13 -30 l4 -25 -200 1 c-198 0 -218 -2
-257 -36 -7 -5 -10 -17 -7 -27 5 -20 -19 -48 -43 -48 -8 0 -18 -7 -21 -15 -4
-8 -14 -15 -24 -15 -10 0 -21 -8 -24 -17 -13 -33 -31 -63 -38 -63 -5 0 -8 -13
-8 -30 0 -16 -4 -30 -8 -30 -5 0 -7 -13 -4 -30 3 -18 0 -30 -7 -30 -6 0 -11
-8 -11 -18 0 -9 -9 -23 -20 -30 -12 -7 -19 -16 -16 -21 3 -4 -4 -17 -14 -29
-11 -12 -20 -33 -20 -47 0 -14 -4 -25 -10 -25 -5 0 -10 -11 -10 -25 0 -34 -49
-81 -93 -89 -21 -4 -43 -16 -50 -26 -6 -11 -20 -20 -30 -20 -10 0 -20 -7 -23
-15 -4 -8 -15 -15 -25 -15 -10 0 -19 -4 -19 -10 0 -5 -22 -10 -49 -10 -58 0
-61 -5 -61 -101 0 -39 -4 -69 -10 -69 -5 0 -10 -7 -10 -15 0 -8 -4 -15 -10
-15 -5 0 -10 -9 -10 -20 0 -11 -6 -20 -12 -21 -10 0 -10 -2 0 -6 13 -5 17 -45
6 -56 -4 -4 -6 -43 -5 -87 2 -51 -2 -80 -8 -80 -8 0 -11 -294 -11 -980 0 -647
-3 -980 -10 -980 -5 0 -10 -16 -10 -35 0 -19 5 -35 10 -35 7 0 10 -177 10
-510 0 -333 -3 -510 -10 -510 -6 0 -10 -67 -10 -180 0 -113 4 -180 10 -180 7
0 10 -763 10 -2270 l0 -2270 -114 0 c-128 0 -146 4 -146 31 0 15 -7 19 -32 19
-30 -1 -31 -2 -15 -14 38 -29 19 -36 -97 -36 -63 0 -121 3 -130 6 -14 5 -16
46 -16 355 0 226 4 349 10 349 6 0 10 103 10 290 0 187 4 290 10 290 6 0 10
100 10 280 0 180 4 280 10 280 6 0 10 50 10 130 0 97 3 130 13 130 7 0 8 3 2
8 -15 11 -7 2492 8 2492 7 0 5 5 -3 10 -10 6 -11 10 -2 10 14 0 18 246 3 252
-15 5 -18 330 -3 335 19 7 16 103 -3 103 -10 0 -15 11 -15 35 0 24 5 35 15 35
12 0 15 17 15 95 0 78 -3 95 -15 95 -13 0 -15 22 -15 135 0 83 -4 135 -10 135
-14 0 -13 97 2 102 6 2 13 37 16 86 2 45 8 82 13 82 19 0 8 50 -16 74 -19 19
-25 35 -25 71 0 25 5 45 11 45 13 0 39 25 39 38 0 6 -5 12 -12 14 -8 3 -12 49
-12 153 -1 109 -4 149 -13 153 -7 2 -13 10 -13 18 0 8 -4 14 -10 14 -5 0 -10
16 -10 35 0 19 5 35 10 35 6 0 10 23 10 50 0 28 -4 50 -10 50 -5 0 -10 20 -10
45 0 25 5 45 10 45 6 0 10 11 10 24 0 13 6 27 13 30 10 5 10 7 0 12 -15 6 -18
54 -4 54 5 0 12 11 15 25 4 14 11 25 16 25 6 0 10 11 10 25 0 16 -6 25 -15 25
-8 0 -15 4 -15 9 0 5 -9 13 -20 16 -17 5 -20 15 -20 66 0 35 -4 59 -11 59 -7
0 -9 32 -7 95 2 52 0 95 -4 95 -5 0 -8 5 -8 11 0 16 -26 39 -45 39 -23 0 -75
54 -75 79 0 12 -4 21 -10 21 -5 0 -10 8 -10 19 0 26 -26 31 -172 31 -79 0
-128 4 -128 10 0 6 -9 10 -21 10 -25 0 -49 22 -49 45 0 29 26 44 89 51 33 3
61 11 61 15 0 5 61 9 135 9 77 0 135 -4 135 -9 0 -5 43 -11 95 -13 92 -3 95
-2 95 19 0 12 5 25 10 28 6 3 10 22 10 41 0 19 -4 34 -10 34 -5 0 -10 11 -10
25 0 14 -4 25 -10 25 -6 0 -10 26 -10 58 0 31 -3 94 -7 139 -5 68 -9 84 -24
88 -11 4 -19 15 -19 26 0 10 -5 19 -11 19 -7 0 -10 15 -7 40 2 22 0 40 -4 40
-5 0 -8 20 -8 45 0 25 -4 45 -10 45 -5 0 -10 6 -10 13 0 7 -18 29 -40 50 -22
20 -40 41 -40 46 0 5 -9 13 -20 16 -11 3 -20 15 -20 26 0 10 -5 19 -11 19 -7
0 -9 10 -7 25 3 14 1 25 -3 25 -5 0 -9 9 -9 21 0 24 -51 79 -74 79 -9 0 -16 7
-16 15 0 8 5 15 10 15 6 0 10 14 10 30 0 29 -5 38 -37 75 -7 7 -13 23 -13 34
0 12 -4 21 -10 21 -5 0 -10 7 -10 15 0 8 -7 15 -15 15 -8 0 -15 5 -15 10 0 6
-31 10 -73 10 -63 0 -76 3 -99 25 -15 14 -36 25 -48 25 -11 0 -20 4 -20 9 0 5
-18 11 -40 15 -22 3 -40 11 -40 16 0 6 -7 10 -16 10 -23 0 -43 24 -50 59 -4
17 -10 31 -15 31 -5 0 -9 7 -9 15 0 8 5 15 10 15 19 0 10 22 -21 51 -18 16
-29 32 -26 36 3 3 -9 21 -28 39 -19 19 -35 40 -35 48 0 8 -9 18 -20 21 -11 3
-20 10 -20 15 0 12 -49 60 -61 60 -6 0 -25 16 -43 35 -28 29 -40 35 -75 35
-22 0 -41 4 -41 9 0 5 -18 11 -40 15 -22 3 -40 11 -40 16 0 6 -8 10 -18 10 -9
0 -23 9 -29 19 -7 11 -26 22 -43 26 -16 4 -30 11 -30 16 0 5 -6 9 -13 9 -7 0
-24 11 -39 25 -15 14 -32 25 -38 25 -5 0 -10 4 -10 9 0 5 -9 13 -20 16 -11 3
-20 14 -20 24 0 18 -52 71 -70 71 -5 0 -10 4 -10 9 0 5 -9 13 -20 16 -11 3
-20 15 -20 26 0 10 -5 19 -11 19 -6 0 -9 7 -5 15 3 8 1 15 -4 15 -6 0 -10 9
-10 20 0 11 -4 20 -10 20 -5 0 -10 10 -10 22 0 12 -10 32 -22 43 -36 32 -48
61 -48 114 0 28 -4 52 -8 55 -12 7 -13 74 -2 81 14 8 13 78 -1 92 -7 7 -10 35
-7 72 l4 61 -33 0 c-18 0 -33 4 -33 9 0 5 -11 12 -25 15 -16 4 -25 13 -25 26
0 11 -4 20 -10 20 -5 0 -10 5 -10 11 0 18 -33 46 -38 31 -4 -14 -42 -16 -42
-2 0 6 -9 10 -20 10 -11 0 -20 7 -20 15 0 8 -4 15 -10 15 -5 0 -10 16 -10 35
0 19 -5 35 -10 35 -16 0 -70 59 -70 76 0 18 23 44 39 44 6 0 11 5 11 10 0 6
20 10 44 10 l43 0 -8 43 c-11 58 -11 127 1 127 5 0 7 7 4 15 -4 8 -1 15 5 15
6 0 11 9 11 20 0 11 5 20 10 20 6 0 10 7 10 15 0 8 3 15 8 15 4 0 7 11 7 25 0
14 -3 25 -7 25 -5 0 -8 7 -8 15 0 19 -36 55 -55 55 -8 0 -15 5 -15 10 0 6 -13
10 -29 10 -56 0 -91 12 -91 30 0 32 -12 50 -31 50 -10 0 -19 5 -19 10 0 6 -11
10 -24 10 -13 0 -26 4 -28 9 -1 6 -37 12 -78 16 l-74 5 -57 -60 c-32 -33 -62
-60 -68 -60 -6 0 -11 -7 -11 -15 0 -8 5 -15 10 -15 21 0 8 -23 -40 -70 -54
-53 -72 -59 -97 -34 -20 19 -31 104 -14 104 7 0 9 5 6 10 -4 6 6 10 22 10 15
0 35 5 43 10 13 8 11 11 -7 16 -13 4 -23 10 -23 14 0 4 -21 10 -47 13 -26 3
-49 10 -51 16 -2 6 -12 11 -23 11 -10 0 -19 5 -19 10 0 6 -27 10 -60 10 -33 0
-60 4 -60 10 0 6 -25 10 -55 10 -45 0 -53 -3 -49 -15 4 -9 -3 -24 -17 -36 -21
-19 -34 -21 -117 -17 -62 3 -96 8 -101 17 -11 17 -51 -16 -51 -42 0 -10 -11
-29 -25 -42 -20 -21 -34 -25 -80 -25 -47 0 -60 4 -76 23 -10 12 -18 27 -19 32
0 6 -9 17 -20 25 -11 8 -20 20 -20 27 0 7 -5 13 -11 13 -7 0 -9 10 -7 25 3 14
1 25 -3 25 -5 0 -9 20 -9 45 0 25 -4 45 -10 45 -5 0 -10 7 -10 15 0 8 -11 25
-25 39 -33 33 -33 64 0 72 14 3 25 10 25 15 0 5 11 9 25 9 14 0 25 5 25 10 0
6 16 10 36 10 35 0 64 -18 64 -39 0 -6 4 -11 9 -11 5 0 11 -10 13 -22 3 -20 9
-23 43 -22 21 1 41 7 43 13 2 6 10 11 18 11 8 0 14 5 14 11 0 14 25 39 39 39
6 0 11 4 11 9 0 5 9 13 20 16 15 5 20 15 20 41 0 19 -4 34 -10 34 -13 0 -13
67 1 72 5 2 13 22 16 46 3 23 10 42 14 42 5 0 9 14 9 30 0 17 5 30 10 30 6 0
10 9 10 20 0 17 7 20 39 20 24 0 41 -5 44 -14 6 -15 47 -11 47 5 0 19 62 9 81
-13 16 -20 20 -21 29 -8 5 8 10 23 10 33 0 9 5 17 10 17 6 0 10 5 10 11 0 16
26 39 44 39 9 0 16 -4 16 -10 0 -5 8 -10 18 -10 21 0 52 -66 52 -110 0 -23 -5
-31 -25 -36 -14 -3 -25 -10 -25 -15 0 -5 -11 -9 -25 -9 -19 0 -25 -5 -25 -21
0 -37 52 -68 62 -37 3 8 31 13 84 13 78 0 80 1 76 23 -2 12 1 22 7 22 6 0 11
11 11 25 0 14 5 25 10 25 6 0 10 7 10 15 0 8 5 15 10 15 6 0 10 8 8 17 -4 23
28 29 47 9 8 -8 15 -17 15 -21 0 -4 7 -13 15 -21 12 -13 17 -12 35 3 11 10 20
30 20 45 0 18 6 29 20 33 11 3 20 11 20 16 0 5 7 9 15 9 8 0 15 5 15 10 0 6
16 10 36 10 21 0 33 -4 29 -10 -3 -5 3 -10 14 -10 10 0 22 -6 25 -12 5 -10 7
-10 12 0 3 6 17 12 30 12 13 0 24 4 24 9 0 12 74 24 100 16 11 -3 20 -14 20
-23 0 -28 37 -52 79 -52 31 0 41 -5 46 -19 3 -11 15 -23 26 -26 10 -4 19 -11
19 -16 0 -5 6 -9 14 -9 8 0 16 -6 19 -12 2 -9 32 -13 98 -14 132 0 139 -2 139
-21 0 -14 3 -13 20 5 25 27 100 32 100 7 0 -8 5 -15 10 -15 6 0 10 -20 10 -45
0 -25 -4 -45 -10 -45 -5 0 -10 -11 -10 -24 0 -19 -7 -25 -35 -30 -31 -6 -50
-26 -25 -26 6 0 10 -24 10 -54 0 -79 5 -86 59 -86 25 0 76 -3 114 -7 l67 -6 0
-31 c0 -23 -10 -39 -35 -61 -37 -31 -45 -62 -20 -71 8 -4 15 -13 15 -21 0 -9
10 -24 22 -35 17 -14 23 -33 26 -78 2 -33 8 -60 13 -60 5 0 9 -16 9 -35 0 -19
5 -35 10 -35 6 0 10 -7 10 -15 0 -8 11 -25 25 -39 21 -21 25 -34 25 -86 0 -33
4 -60 10 -60 6 0 10 -20 10 -45 0 -25 -4 -45 -10 -45 -5 0 -10 -7 -10 -15 0
-8 -9 -15 -20 -15 -11 0 -20 -4 -20 -10 0 -5 -9 -10 -20 -10 -11 0 -20 4 -20
9 0 5 -9 13 -20 16 -16 5 -20 15 -20 51 0 24 5 44 10 44 6 0 10 7 10 15 0 8 4
15 9 15 5 0 8 15 7 33 -1 31 -34 77 -56 77 -5 0 -10 7 -10 15 0 8 -4 15 -10
15 -5 0 -10 21 -10 46 0 29 -6 51 -17 62 -12 12 -18 13 -21 4 -2 -6 -10 -12
-18 -12 -8 0 -14 -4 -14 -10 0 -5 -18 -10 -40 -10 -33 0 -40 4 -40 19 0 24
-29 36 -36 16 -6 -16 -84 -22 -84 -7 0 12 -78 42 -95 36 -21 -9 -28 -45 -21
-108 7 -51 6 -55 -16 -62 -50 -15 -58 -38 -58 -162 l0 -116 35 -32 c19 -17 38
-45 41 -62 6 -28 9 -30 72 -35 36 -4 69 -12 74 -19 6 -11 10 -11 16 0 5 7 39
15 75 19 60 5 67 8 62 24 -4 11 -2 19 4 19 6 0 11 10 11 21 0 27 36 59 67 59
12 0 23 5 23 10 0 14 20 13 53 -2 22 -11 27 -20 27 -50 0 -21 -4 -38 -9 -38
-5 0 -12 -16 -15 -35 -4 -19 -11 -35 -16 -35 -6 0 -10 -11 -10 -25 0 -14 -4
-25 -10 -25 -5 0 -10 -7 -10 -15 0 -34 -38 -55 -100 -55 -99 0 -100 -3 -100
-202 l0 -167 34 -34 c18 -19 37 -44 41 -56 3 -11 11 -21 16 -21 5 0 9 -5 9
-11 0 -15 22 -35 48 -43 12 -4 22 -11 22 -16 0 -12 49 -60 61 -60 6 0 7 -4 4
-10 -3 -5 3 -10 14 -10 12 0 21 -4 21 -10 0 -5 9 -10 21 -10 15 0 19 -5 15
-15 -3 -9 0 -15 10 -15 8 0 25 -11 38 -25 13 -14 33 -25 45 -25 11 0 21 -4 21
-10 0 -5 7 -10 15 -10 9 0 33 -18 54 -40 21 -22 43 -40 49 -40 6 0 26 -16 45
-35 19 -19 39 -35 46 -35 6 0 11 -4 11 -10 0 -5 16 -10 35 -10 19 0 35 -4 35
-9 0 -5 10 -13 22 -17 12 -3 32 -17 45 -30 13 -13 29 -24 35 -24 6 0 8 -8 5
-19 -2 -11 3 -24 14 -32 11 -7 19 -18 19 -25 0 -10 54 -64 65 -64 3 0 11 -5
18 -10 7 -6 23 -19 35 -30 13 -10 22 -27 20 -37 -4 -23 35 -63 61 -63 20 0 51
-24 51 -40 0 -4 19 -11 43 -14 32 -5 47 -14 62 -36 18 -27 26 -30 97 -36 43
-4 78 -11 78 -15 0 -5 5 -9 11 -9 23 0 39 -30 39 -73 0 -38 5 -48 35 -74 28
-24 35 -37 35 -66 0 -25 8 -44 25 -61 14 -14 28 -39 31 -56 4 -16 10 -30 15
-30 5 0 9 -5 9 -11 0 -6 13 -24 29 -40 24 -23 30 -26 35 -13 10 27 7 234 -4
234 -6 0 -10 43 -10 110 0 67 4 110 10 110 6 0 10 75 10 205 0 130 -4 205 -10
205 -5 0 -10 8 -10 17 0 10 -12 27 -26 39 -25 22 -26 27 -31 173 -3 83 -10
151 -15 151 -4 0 -8 5 -8 10 0 6 -11 23 -25 38 -14 15 -25 31 -25 37 0 12 -41
30 -87 40 -18 4 -33 11 -33 16 0 5 -7 9 -15 9 -8 0 -15 5 -15 10 0 6 -20 10
-44 10 -26 0 -48 6 -56 15 -7 8 -19 15 -26 15 -8 0 -14 5 -14 10 0 6 -11 10
-25 10 -14 0 -25 5 -25 10 0 6 -6 10 -14 10 -16 0 -76 53 -76 67 0 14 -35 53
-47 53 -18 0 -53 37 -53 55 0 10 8 25 18 34 35 33 26 41 -48 41 -40 0 -70 4
-70 10 0 6 -27 10 -60 10 l-60 0 0 60 c0 33 -4 60 -10 60 -5 0 -10 15 -10 33
0 34 -27 67 -55 67 -11 0 -15 20 -17 98 -3 92 -4 97 -25 100 -21 3 -23 9 -23
58 0 30 5 54 10 54 6 0 10 5 10 11 0 20 29 39 60 39 29 0 60 -18 60 -35 0 -4
-13 -19 -28 -33 -25 -23 -27 -31 -20 -58 5 -22 16 -34 33 -38 16 -4 25 -13 25
-26 0 -11 5 -20 10 -20 6 0 10 -10 10 -21 0 -12 11 -32 25 -45 14 -13 25 -30
25 -38 0 -8 9 -18 20 -21 11 -3 20 -13 20 -22 0 -9 14 -29 30 -45 17 -15 30
-33 30 -38 0 -6 18 -10 39 -10 46 0 73 -9 65 -21 -3 -5 0 -9 5 -9 6 0 11 -5
11 -10 0 -18 48 -60 69 -60 40 0 51 -11 51 -52 0 -33 7 -46 40 -79 21 -21 43
-39 48 -39 5 0 15 -7 22 -15 10 -12 38 -15 130 -15 142 0 160 9 160 84 0 25
-4 46 -10 46 -5 0 -10 9 -10 20 0 11 -4 20 -10 20 -5 0 -10 18 -10 40 0 22 -5
40 -10 40 -7 0 -10 33 -8 93 l3 92 -32 31 c-18 17 -33 41 -33 53 0 11 -4 21
-10 21 -5 0 -10 11 -10 25 0 14 -4 25 -10 25 -5 0 -10 7 -10 17 0 9 -27 42
-60 75 -33 32 -60 62 -60 68 0 5 -16 25 -35 45 l-36 35 3 230 c2 127 0 230 -4
230 -5 0 -8 11 -8 24 0 22 -3 23 -44 19 -40 -5 -44 -3 -50 21 -3 14 -11 26
-16 26 -6 0 -10 7 -10 15 0 8 -6 15 -14 15 -8 0 -16 5 -18 12 -3 7 -39 11
-108 12 -73 1 -105 5 -108 14 -2 6 -9 12 -17 12 -21 0 -115 98 -115 120 0 11
5 20 10 20 6 0 10 7 10 15 0 21 107 21 146 0 32 -17 74 -20 74 -6 0 30 -14 41
-52 41 -29 0 -45 6 -62 25 -13 14 -31 25 -40 25 -9 0 -16 5 -16 10 0 6 -17 10
-38 10 -45 0 -82 27 -82 59 0 11 5 21 10 21 6 0 10 23 10 50 0 28 -4 50 -10
50 -6 0 -10 45 -10 115 0 70 4 115 10 115 14 0 12 74 -2 88 -15 15 -58 16 -58
2 0 -5 -11 -10 -25 -10 -25 0 -42 9 -68 38 -22 24 -56 57 -71 70 -18 14 -126
16 -126 2 0 -5 -7 -10 -15 -10 -8 0 -15 5 -15 10 0 6 -13 10 -30 10 -19 0 -40
10 -60 30 -27 27 -30 35 -30 94 0 71 4 76 72 76 48 0 65 16 74 69 4 27 13 42
25 46 11 4 19 15 19 26 0 10 4 19 8 19 14 0 8 44 -7 60 -11 11 -15 12 -19 2
-5 -15 -219 -17 -224 -2 -2 6 -33 12 -69 13 -56 3 -70 7 -93 30 -15 15 -32 27
-37 27 -7 0 -9 26 -7 70 2 39 0 70 -4 70 -5 0 -8 31 -8 70 0 66 -1 70 -25 76
-14 3 -25 10 -25 15 0 5 -11 9 -25 9 -14 0 -25 5 -25 10 0 6 -13 10 -30 10
-16 0 -30 -4 -30 -10 0 -5 -22 -10 -50 -10 -27 0 -50 -4 -50 -9 0 -5 -10 -11
-22 -13 -15 -2 -24 -11 -26 -25 -2 -13 -8 -23 -13 -23 -5 0 -9 -11 -9 -25 0
-14 5 -25 10 -25 6 0 10 -11 10 -25 0 -14 -4 -25 -10 -25 -5 0 -10 -11 -10
-25 0 -14 -4 -25 -9 -25 -4 0 -6 -11 -3 -25 2 -15 0 -25 -7 -25 -6 0 -11 -9
-11 -19 0 -19 -18 -31 -47 -31 -18 0 -53 -37 -53 -57 0 -7 -4 -13 -10 -13 -5
0 -10 -16 -10 -35 0 -19 5 -35 10 -35 6 0 10 -18 10 -40 0 -22 -4 -40 -10 -40
-5 0 -10 -25 -10 -55 0 -30 5 -55 10 -55 6 0 10 -7 10 -15 0 -8 11 -25 24 -38
13 -13 27 -33 30 -45 4 -12 11 -22 16 -22 11 0 60 -52 60 -63 0 -12 27 -37 39
-37 6 0 11 -4 11 -9 0 -5 14 -11 31 -15 16 -3 45 -22 63 -41 24 -26 42 -35 65
-35 17 0 31 -4 31 -10 0 -5 9 -10 21 -10 15 0 19 -5 15 -15 -3 -8 -1 -15 4
-15 5 0 10 -21 12 -46 l3 -46 55 -3 c30 -1 56 -8 58 -14 2 -6 13 -11 24 -11
14 0 18 -5 14 -15 -3 -8 -1 -15 4 -15 6 0 10 -27 10 -59 l0 -60 -107 6 c-60 3
-109 10 -111 14 -2 5 -17 9 -33 9 -16 0 -29 5 -29 10 0 6 -24 10 -53 10 -52 0
-77 12 -77 37 0 7 9 13 20 13 11 0 20 5 20 10 0 6 11 10 25 10 16 0 25 6 25
15 0 8 -7 15 -15 15 -8 0 -15 4 -15 9 0 5 -9 12 -19 16 -11 3 -23 15 -26 25
-3 10 -15 22 -27 26 -27 8 -84 65 -92 92 -6 16 -18 22 -63 28 -59 7 -94 31
-107 72 -6 17 -15 22 -42 22 -19 0 -34 4 -34 9 0 5 -9 13 -21 16 -17 6 -20 13
-17 39 4 36 -11 56 -42 56 -11 0 -20 5 -20 10 0 6 -9 10 -20 10 -11 0 -20 6
-20 13 0 24 -58 67 -90 67 -16 0 -30 -4 -30 -10 0 -15 -70 -12 -86 4 -8 8 -14
21 -14 29 0 9 -3 23 -6 31 -5 14 -9 14 -25 -5 -11 -13 -34 -23 -61 -26 -44 -5
-85 -20 -103 -38 -16 -16 -12 -79 8 -96 10 -10 17 -31 17 -53 0 -29 -4 -36
-20 -36 -11 0 -20 -4 -20 -10 0 -5 -7 -10 -15 -10 -8 0 -15 -4 -15 -10 0 -6
-35 -10 -85 -10 -50 0 -85 4 -85 10 0 6 -11 10 -24 10 -13 0 -26 5 -28 11 -2
6 -26 12 -54 12 -41 2 -54 -2 -74 -23 -22 -22 -25 -32 -22 -87 2 -39 -1 -63
-8 -63 -5 0 -10 -7 -10 -16 0 -8 -6 -22 -14 -30 -16 -16 -56 -19 -56 -5 0 15
-31 42 -41 36 -5 -4 -9 -22 -9 -41 0 -19 -3 -34 -8 -34 -4 0 -12 -10 -17 -22
-7 -16 -20 -24 -42 -26 -19 -2 -33 1 -33 7 0 6 -14 11 -30 11 -31 0 -90 -46
-90 -70 0 -7 -10 -21 -22 -31 -28 -25 -188 -28 -212 -4 -8 8 -24 15 -35 15
-17 0 -21 6 -21 33 0 26 -9 41 -40 70 -32 29 -40 43 -40 72 0 19 -4 35 -9 35
-5 0 -12 10 -16 23 -6 19 -8 19 -12 5 -2 -10 -9 -18 -14 -18 -5 0 -9 -11 -9
-25 0 -14 -4 -25 -9 -25 -5 0 -7 -9 -4 -20 6 -23 -18 -50 -44 -50 -10 0 -26
11 -37 24 -17 23 -22 24 -85 19 -70 -6 -77 -3 -110 45 -9 12 -30 23 -56 27
-51 7 -56 21 -47 134 4 62 2 76 -12 86 -19 14 -32 98 -22 139 5 22 13 26 56
32 28 4 50 10 50 15 0 5 27 9 60 9 33 0 60 -4 60 -10 0 -5 16 -12 35 -16 20
-3 37 -13 40 -24 4 -14 22 -19 90 -24 93 -8 105 -5 105 25 0 10 5 19 10 19 6
0 10 7 10 15 0 11 -12 15 -50 15 -27 0 -50 5 -50 10 0 6 -11 10 -25 10 -14 0
-25 5 -25 10 0 6 -8 10 -19 10 -10 0 -25 7 -32 16 -11 14 -10 18 6 30 10 8 23
14 28 14 4 0 23 16 41 35 19 19 38 35 45 35 6 0 11 5 11 10 0 6 23 10 50 10
28 0 50 -4 50 -10 0 -5 9 -10 20 -10 13 0 20 7 20 20 0 11 4 20 9 20 4 0 6 11
4 24 -4 18 0 26 16 31 12 3 21 11 21 16 0 18 41 9 63 -14 12 -12 34 -28 49
-36 23 -12 29 -12 42 2 9 9 16 20 16 26 0 6 5 11 10 11 6 0 10 10 10 23 1 35
34 67 69 67 17 0 31 -4 31 -10 0 -6 30 -10 70 -10 66 0 70 1 76 25 3 14 10 25
15 25 5 0 9 7 9 15 0 42 90 76 104 40 7 -19 31 -10 68 25 22 21 28 36 28 69 0
22 5 41 10 41 6 0 10 7 10 15 0 8 5 15 10 15 6 0 10 9 10 19 0 11 9 22 19 26
23 7 73 -4 84 -19 6 -8 10 -7 14 2 2 6 16 12 29 12 15 0 24 6 24 15 0 8 4 15
9 15 5 0 12 9 16 19 3 11 15 23 26 26 14 5 18 12 14 25 -4 13 0 20 15 25 11 3
20 11 20 16 0 5 18 9 40 9 22 0 40 -4 40 -10 0 -6 26 -10 58 -10 64 0 93 -16
107 -59 4 -13 10 -19 14 -14 3 6 16 13 29 17 12 4 22 11 22 16 0 19 34 40 65
40 44 0 65 -9 65 -28 0 -8 8 -23 17 -32 16 -14 19 -14 35 -1 10 9 18 23 18 33
0 12 8 18 21 18 21 0 49 -22 49 -38 0 -14 56 -72 69 -72 6 0 23 -14 38 -30 21
-24 34 -30 58 -28 24 2 31 8 33 31 2 15 8 27 13 27 5 0 9 14 9 30 0 24 4 30
23 31 46 3 102 -3 105 -12 2 -5 19 -9 38 -9 19 0 34 -4 34 -10 0 -5 16 -10 35
-10 19 0 35 5 35 10 0 6 11 10 25 10 14 0 25 4 25 9 0 5 10 11 22 13 52 7 18
78 -37 78 -15 0 -24 -4 -20 -10 4 -6 -12 -10 -40 -10 -28 0 -44 4 -40 10 3 6
-3 10 -14 10 -12 0 -21 3 -21 8 0 4 -10 12 -22 17 -15 6 -24 21 -26 39 -2 16
-10 35 -18 43 -12 12 -16 12 -30 -1 -27 -27 -83 -20 -116 14 -15 17 -33 30
-38 30 -6 0 -10 19 -10 41 0 30 6 47 22 60 21 19 21 19 -26 19 -29 0 -45 4
-41 10 3 6 -3 10 -14 10 -12 0 -21 5 -21 10 0 6 -19 10 -41 10 -31 0 -47 -6
-61 -22 -15 -18 -30 -23 -66 -23 -27 0 -47 5 -49 13 -3 7 -21 12 -44 12 -26 0
-46 7 -59 20 -37 37 -19 64 48 73 24 3 46 8 49 11 13 13 -27 33 -80 39 -56 7
-57 7 -57 -18 0 -22 -38 -75 -54 -75 -13 0 -46 -36 -46 -50 0 -9 9 -23 20 -33
11 -9 20 -12 20 -7 0 15 50 12 66 -4 20 -20 19 -92 -2 -100 -9 -3 -40 -6 -70
-6 -30 0 -54 -4 -54 -10 0 -5 -13 -10 -30 -10 -16 0 -30 5 -30 10 0 6 -13 10
-30 10 -16 0 -30 -4 -30 -10 0 -5 -7 -10 -15 -10 -8 0 -15 -4 -15 -10 0 -5 -9
-10 -19 -10 -11 0 -28 -11 -39 -25 -17 -21 -28 -25 -75 -25 -47 0 -57 3 -62
20 -3 11 -11 20 -16 20 -10 0 -12 53 -2 64 17 17 9 48 -15 57 -28 11 -54 -4
-45 -27 12 -31 -17 -44 -98 -44 -46 0 -79 -4 -79 -10 0 -5 -11 -10 -25 -10
-14 0 -25 -4 -25 -10 0 -5 -9 -10 -20 -10 -11 0 -20 5 -20 10 0 6 -7 10 -16
10 -9 0 -22 7 -28 16 -9 12 -21 14 -49 9 -20 -4 -37 -11 -37 -16 0 -5 -5 -9
-10 -9 -6 0 -23 -11 -38 -25 -28 -26 -76 -33 -86 -12 -5 10 -7 10 -12 0 -3 -7
-14 -13 -25 -13 -11 0 -32 -11 -47 -25 -30 -28 -82 -34 -82 -10 0 8 -4 15 -10
15 -6 0 -10 26 -10 58 0 67 -18 96 -66 108 -16 4 -32 12 -36 18 -6 8 -10 7
-16 -2 -5 -8 -36 -13 -83 -15 -61 -1 -79 2 -93 15 -9 10 -14 22 -11 28 3 5 1
10 -4 10 -7 0 -11 24 -11 60 0 35 4 60 10 60 6 0 10 6 8 13 -1 6 12 27 29 45
32 32 53 41 53 22 0 -5 9 -10 20 -10 20 0 100 -71 100 -90 0 -5 11 -10 25 -10
14 0 25 4 25 9 0 5 16 12 35 15 35 7 35 7 35 62 0 54 14 84 39 84 6 0 11 5 11
10 0 6 61 10 163 10 150 0 164 1 180 20 9 11 17 24 17 28 1 18 39 50 68 57 18
3 32 11 32 16 0 5 23 9 50 9 28 0 50 5 50 10 0 6 16 10 35 10 19 0 35 -4 35
-10 0 -5 7 -10 15 -10 8 0 15 -4 15 -10 0 -5 27 -12 60 -16 33 -4 60 -10 60
-14 0 -4 9 -10 19 -13 15 -4 21 2 26 31 9 51 29 65 88 66 l52 1 3 73 c2 45 -1
72 -8 72 -6 0 -10 28 -10 69 l0 69 35 6 c19 4 35 11 35 16 0 6 7 10 15 10 8 0
15 -4 15 -10 0 -5 15 -10 34 -10 19 0 38 5 41 10 3 6 42 10 86 10 46 0 79 -4
79 -10 0 -5 14 -10 30 -10 17 0 30 5 30 10 0 6 7 10 15 10 8 0 15 5 15 10 0 6
18 10 40 10 22 0 40 -4 40 -10 0 -5 11 -10 24 -10 13 0 26 -5 28 -12 7 -21 58
38 58 68 0 26 1 26 50 22 36 -4 50 -2 50 8 0 7 6 15 13 18 10 5 10 7 0 12 -7
3 -13 21 -13 40 0 19 -4 34 -10 34 -5 0 -10 6 -10 14 0 34 -31 48 -91 42 -45
-5 -60 -3 -73 9 -9 9 -16 21 -16 26 0 5 -11 9 -24 9 -14 0 -28 5 -31 10 -3 6
-24 10 -46 10 -29 0 -45 6 -61 25 -12 14 -32 25 -44 25 -36 0 -54 11 -54 31 0
10 -4 19 -10 19 -6 0 -10 42 -10 106 0 98 2 108 23 126 18 17 32 19 82 15 33
-3 61 -10 63 -16 2 -6 10 -11 18 -11 8 0 14 -4 14 -10 0 -5 25 -10 55 -10 30
0 55 5 55 10 0 6 7 10 15 10 8 0 15 4 15 9 0 5 9 12 19 16 11 3 23 16 27 27 7
25 48 68 64 68 5 0 10 5 10 10 0 6 16 10 35 10 19 0 35 -4 35 -10 0 -25 20 -6
26 25 3 19 10 35 15 35 4 0 20 12 34 26 19 19 23 30 16 37 -6 6 -11 24 -11 39
0 25 3 28 35 28 19 0 35 5 35 10 0 6 9 10 19 10 11 0 21 6 23 13 4 9 73 13
292 14 276 2 289 3 306 23 10 12 30 20 49 20 21 0 31 5 31 15 0 8 3 15 8 15 4
0 5 22 4 50 -3 32 0 50 7 50 6 0 11 8 11 18 0 9 9 23 20 30 11 7 17 18 14 27
-4 8 -1 15 5 15 6 0 11 16 11 35 0 19 5 35 10 35 6 0 10 7 10 15 0 8 -4 15
-10 15 -16 0 -12 89 4 106 9 9 35 14 70 14 31 0 56 5 56 10 0 6 25 10 55 10
30 0 55 -4 55 -10 0 -15 49 -12 66 4 16 17 19 36 4 36 -16 0 -12 109 4 126 20
19 34 18 41 -6 3 -11 11 -20 16 -20 5 0 9 -22 9 -50 0 -27 -4 -50 -10 -50 -5
0 -10 -7 -10 -15 0 -11 12 -15 44 -15 26 0 51 6 60 15 8 8 26 15 41 15 41 0
50 16 47 81 -4 59 4 78 38 92 25 10 122 -4 138 -20z m-670 -4244 c2 -5 10 -9
18 -9 23 0 18 -76 -6 -100 -17 -17 -33 -20 -110 -20 -53 0 -90 -4 -90 -10 0
-5 -11 -10 -25 -10 -14 0 -25 5 -25 10 0 6 -5 10 -11 10 -14 0 -39 25 -39 39
0 6 -4 11 -10 11 -22 0 -8 44 22 72 l33 30 120 -7 c66 -4 122 -11 123 -16z
m-2660 -578 c18 -15 22 -29 22 -85 0 -37 -4 -66 -10 -66 -5 0 -10 -11 -10 -25
0 -22 -4 -25 -36 -25 -27 0 -41 7 -56 25 -11 14 -28 25 -39 25 -11 0 -27 6
-35 14 -17 18 -19 92 -1 111 6 8 18 21 25 30 19 23 113 20 140 -4z m6832 -361
c0 -5 7 -10 15 -10 8 0 15 -7 15 -15 0 -8 5 -15 10 -15 6 0 10 -11 10 -25 0
-14 -4 -25 -10 -25 -6 0 -10 -27 -10 -60 0 -57 -1 -60 -25 -60 -14 0 -25 -4
-25 -10 0 -5 -13 -10 -30 -10 -16 0 -30 5 -30 10 0 6 -11 10 -25 10 -14 0 -25
5 -25 12 0 6 -12 -3 -26 -20 -15 -18 -33 -32 -41 -32 -19 0 -43 24 -43 43 0 8
-11 23 -25 33 -34 25 -34 76 -1 109 13 13 26 29 28 35 2 6 27 13 56 17 28 3
52 10 52 14 0 5 29 9 65 9 37 0 65 -4 65 -10z m-5561 -110 c34 -35 57 -50 75
-50 21 0 26 -5 26 -25 0 -18 -5 -25 -20 -25 -11 0 -20 -4 -20 -10 0 -5 -25
-10 -55 -10 -30 0 -55 5 -55 10 0 6 -9 10 -20 10 -11 0 -20 4 -20 10 0 5 -16
12 -35 16 -34 6 -35 8 -35 51 0 56 15 72 68 73 38 0 47 -5 91 -50z m287 -64
c19 -19 18 -93 -1 -112 -10 -10 -37 -16 -79 -16 -74 -2 -96 13 -96 61 0 24 4
31 20 31 11 0 20 5 20 10 0 6 11 10 25 10 13 0 30 7 37 15 17 18 55 19 74 1z
m954 -2536 c16 -16 30 -34 30 -40 0 -5 4 -10 9 -10 5 0 12 -41 16 -92 8 -101
17 -118 64 -118 17 0 31 -4 31 -9 0 -5 23 -11 50 -15 28 -4 50 -11 50 -16 0
-6 5 -10 11 -10 6 0 17 -7 25 -15 9 -8 24 -15 35 -15 11 0 17 -4 14 -10 -3 -5
-1 -10 4 -10 6 0 11 -11 11 -25 0 -16 -6 -25 -15 -25 -8 0 -15 -4 -15 -10 0
-6 -88 -10 -245 -10 -157 0 -245 4 -245 10 0 6 -11 10 -25 10 -22 0 -25 4 -25
35 0 19 5 35 11 35 13 0 82 31 89 41 3 3 15 9 28 13 20 7 22 13 22 87 0 46 -4
79 -10 79 -6 0 -10 32 -10 75 l0 75 30 0 c19 0 40 -10 60 -30z"/>
<path d="M6673 17505 c-7 -8 -13 -21 -13 -29 0 -8 -6 -16 -12 -18 -9 -3 -13
-25 -13 -63 0 -38 4 -60 13 -62 6 -3 12 -13 12 -24 0 -10 5 -19 10 -19 6 0 10
-7 10 -15 0 -8 7 -15 15 -15 8 0 15 -4 15 -10 0 -5 7 -10 15 -10 8 0 25 -11
39 -25 16 -15 36 -25 55 -25 16 0 31 -4 33 -8 2 -5 17 -12 34 -15 31 -6 31 -5
20 18 -6 14 -14 25 -18 25 -5 0 -8 6 -8 13 0 24 -36 57 -71 64 -19 3 -40 12
-46 19 -14 14 -18 54 -5 54 4 0 7 20 7 45 0 25 -3 45 -7 45 -5 0 -8 5 -8 11 0
14 -25 39 -39 39 -6 0 -11 5 -11 10 0 14 -13 12 -27 -5z"/>
<path d="M6113 17327 c1 -7 10 -19 20 -28 29 -28 14 -89 -22 -89 -6 0 -11 -6
-11 -14 0 -8 -6 -17 -12 -19 -10 -4 -10 -6 0 -6 6 -1 12 -7 12 -14 0 -19 33
-47 53 -47 9 0 17 -4 17 -10 0 -5 16 -10 36 -10 36 0 50 -9 70 -45 6 -11 21
-21 33 -23 32 -5 61 -37 61 -68 0 -35 18 -50 70 -59 47 -8 70 -24 70 -49 0 -9
5 -16 10 -16 6 0 10 -7 10 -15 0 -8 -4 -15 -10 -15 -5 0 -10 -7 -10 -16 0 -13
7 -15 31 -10 51 10 69 39 69 114 l0 65 -29 -6 c-27 -6 -71 17 -71 37 0 4 -6
14 -12 21 -28 31 -38 44 -38 50 0 10 -28 35 -39 35 -6 0 -11 4 -11 9 0 5 -9
13 -20 16 -11 4 -18 11 -15 16 4 5 1 9 -4 9 -6 0 -11 6 -11 13 0 15 -46 37
-77 37 -13 0 -23 5 -23 10 0 6 -9 10 -20 10 -11 0 -20 7 -20 15 0 8 -4 15 -10
15 -5 0 -10 9 -10 19 0 12 -9 21 -24 25 -14 3 -27 15 -31 25 -6 21 -36 38 -32
18z"/>
<path d="M5816 17313 c-4 -13 -12 -23 -17 -23 -5 0 -9 -11 -9 -24 0 -16 -7
-27 -20 -31 -27 -9 -103 4 -113 19 -6 8 -10 8 -14 -1 -2 -7 -17 -13 -33 -13
-16 0 -35 -3 -44 -6 -17 -7 -22 -44 -6 -44 6 0 10 -7 10 -15 0 -8 5 -15 10
-15 6 0 10 -9 10 -20 0 -11 5 -20 11 -20 7 0 10 -18 7 -50 -1 -28 0 -50 5 -50
13 0 8 -148 -5 -154 -10 -5 -10 -7 0 -12 6 -3 12 -15 12 -26 0 -23 18 -43 48
-52 19 -6 22 -4 22 18 0 14 5 26 10 26 6 0 10 15 10 34 0 27 5 36 22 42 29 9
48 29 48 49 0 18 52 75 69 75 6 0 11 5 11 10 0 6 9 10 20 10 16 0 20 7 20 34
0 21 6 36 15 40 8 3 15 15 15 26 0 12 11 32 25 46 25 24 32 58 17 80 -4 6 -26
15 -49 19 -24 4 -43 11 -43 16 0 5 -11 9 -24 9 -13 0 -26 6 -29 13 -2 7 -7 2
-11 -10z"/>
<path d="M5353 17046 c-19 -9 -23 -19 -23 -53 0 -24 5 -43 10 -43 6 0 10 -7
10 -15 0 -8 5 -15 10 -15 6 0 10 -7 10 -15 0 -8 -4 -15 -10 -15 -5 0 -10 -7
-10 -16 0 -8 -7 -22 -15 -30 -8 -9 -15 -26 -15 -40 0 -13 -6 -24 -12 -24 -9 0
-8 -4 2 -10 8 -5 11 -10 7 -10 -20 0 25 -31 52 -36 30 -6 31 -8 31 -65 0 -33
-4 -59 -9 -59 -5 0 -11 -13 -13 -30 -3 -23 1 -34 19 -47 17 -13 23 -28 23 -55
0 -21 -4 -38 -10 -38 -5 0 -10 -11 -10 -25 0 -14 -4 -25 -9 -25 -5 0 -11 -13
-14 -29 -4 -18 -14 -32 -27 -36 -17 -5 -20 -15 -20 -61 0 -30 5 -54 10 -54 6
0 10 -13 10 -30 0 -16 -4 -30 -10 -30 -5 0 -10 -20 -10 -45 0 -25 5 -45 10
-45 6 0 10 -10 10 -21 0 -12 11 -32 25 -45 14 -13 25 -30 25 -39 0 -8 4 -15 9
-15 6 0 11 -17 13 -37 3 -35 6 -38 37 -41 36 -4 74 -35 85 -70 6 -16 16 -22
39 -22 18 -1 75 -3 127 -5 119 -6 135 2 92 44 -17 17 -37 31 -45 31 -9 0 -18
13 -23 32 -3 18 -15 40 -25 49 -11 9 -19 21 -19 28 0 6 -5 11 -11 11 -6 0 -9
7 -5 15 3 8 1 15 -4 15 -6 0 -10 11 -10 25 0 14 -4 25 -10 25 -5 0 -10 16 -10
35 0 19 -5 35 -11 35 -6 0 -9 10 -7 23 2 14 -8 33 -29 54 -18 18 -33 38 -33
44 0 18 -33 46 -38 31 -5 -16 -40 -15 -58 2 -8 8 -14 24 -14 36 0 22 41 70 60
70 5 0 10 7 10 15 0 8 5 15 10 15 6 0 10 11 10 25 0 14 5 25 10 25 6 0 10 42
10 105 0 63 -4 105 -10 105 -5 0 -10 7 -10 15 0 8 -5 15 -10 15 -14 0 -60 46
-60 60 0 5 -4 10 -10 10 -5 0 -10 11 -10 25 0 14 5 25 10 25 6 0 10 16 10 35
0 19 5 35 10 35 6 0 10 7 10 15 0 8 -4 15 -10 15 -5 0 -10 9 -10 20 0 11 -7
23 -15 26 -8 4 -15 15 -15 25 0 10 -4 19 -10 19 -5 0 -10 10 -10 23 0 25 -17
48 -34 46 -6 -1 -21 -6 -33 -13z"/>
<path d="M7223 16965 c-46 -47 -53 -59 -53 -94 0 -23 5 -41 10 -41 6 0 10 -18
10 -40 0 -22 -4 -40 -10 -40 -5 0 -10 -7 -10 -15 0 -8 -5 -15 -11 -15 -6 0 -9
-7 -6 -15 4 -8 2 -17 -3 -20 -20 -12 -9 -23 30 -29 33 -5 40 -10 40 -29 0 -35
-19 -47 -72 -47 -42 0 -48 -3 -48 -21 0 -12 14 -34 30 -49 29 -27 42 -80 20
-80 -5 0 -10 -4 -10 -10 0 -5 9 -10 21 -10 11 0 17 5 14 10 -3 6 3 10 14 10
12 0 21 5 21 11 0 6 7 17 15 25 8 9 15 26 15 40 0 13 5 24 10 24 6 0 10 5 10
11 0 6 6 17 13 24 6 8 17 21 24 29 7 8 17 16 24 18 7 2 15 27 19 56 6 52 6 52
-22 52 -24 0 -28 -4 -28 -29 0 -29 -14 -41 -51 -41 -14 0 -19 7 -19 28 0 34
16 52 47 52 13 0 23 5 23 10 0 6 -5 10 -11 10 -7 0 -10 18 -7 50 2 42 0 50
-14 50 -11 0 -18 8 -18 20 0 11 -4 20 -10 20 -5 0 -10 7 -10 15 0 9 9 15 21
15 22 0 49 -22 49 -39 0 -6 9 -11 21 -11 35 0 49 -24 49 -84 0 -49 3 -56 19
-56 11 0 23 9 26 20 3 11 11 20 16 20 5 0 9 7 9 15 0 8 4 15 9 15 4 0 6 11 3
25 -3 19 0 25 13 25 10 0 25 8 34 19 9 10 26 21 39 25 19 6 22 14 22 57 0 27
-4 49 -9 49 -5 0 -35 -25 -66 -55 -40 -39 -64 -55 -83 -55 -24 0 -71 19 -48
20 5 0 -1 8 -12 19 -15 12 -22 30 -22 55 0 52 -24 46 -87 -19z"/>
<path d="M6833 16965 c-19 -20 -23 -35 -23 -95 0 -40 4 -70 10 -70 6 0 10 -5
10 -11 0 -14 25 -39 39 -39 6 0 11 -4 11 -9 0 -5 11 -12 25 -15 24 -6 25 -9
25 -85 0 -61 3 -80 15 -85 35 -13 45 4 45 75 0 39 -4 69 -10 69 -5 0 -10 7
-10 15 0 8 4 15 9 15 4 0 11 21 14 47 3 26 10 49 16 51 14 5 15 42 1 42 -5 0
-10 11 -10 25 0 16 -6 25 -15 25 -8 0 -15 4 -15 9 0 5 -15 13 -32 17 -18 3
-39 15 -46 25 -17 25 -32 23 -59 -6z"/>
<path d="M5134 16716 c-3 -9 -16 -16 -28 -16 -12 0 -28 -9 -36 -20 -8 -11 -22
-20 -31 -20 -9 0 -25 -11 -35 -25 -16 -22 -26 -25 -81 -25 -40 0 -63 4 -65 12
-3 9 -9 8 -21 -4 -18 -18 -23 -58 -7 -58 6 0 10 -15 10 -34 0 -19 5 -36 12
-38 6 -2 13 -31 16 -64 3 -49 1 -63 -14 -74 -13 -12 -18 -12 -21 -2 -3 6 -12
12 -20 12 -22 0 -93 32 -93 42 0 4 -5 8 -11 8 -7 0 -22 11 -35 25 -13 14 -32
25 -44 25 -11 0 -33 -11 -48 -25 -15 -14 -32 -25 -39 -25 -7 0 -13 -4 -13 -9
0 -5 -11 -12 -25 -15 -14 -4 -25 -11 -25 -16 0 -6 -21 -10 -46 -10 -60 0 -77
17 -72 75 2 25 1 45 -3 45 -3 0 -15 -10 -27 -22 -34 -38 -50 -48 -72 -48 -13
0 -20 -7 -20 -20 0 -11 5 -20 10 -20 6 0 10 -7 10 -15 0 -8 5 -15 10 -15 6 0
10 -16 10 -35 0 -19 5 -35 11 -35 6 0 9 -10 7 -23 -9 -44 50 -66 74 -27 7 11
21 20 31 20 20 0 47 -22 47 -39 0 -21 49 -11 75 14 14 14 25 30 25 35 0 15 48
12 53 -2 4 -10 7 -10 14 -1 11 16 93 28 127 19 26 -6 26 -8 26 -101 0 -57 -4
-95 -10 -95 -5 0 -10 -9 -10 -20 0 -11 5 -20 10 -20 6 0 10 -11 10 -24 0 -16
7 -27 21 -31 14 -5 19 -13 16 -26 -3 -11 1 -20 12 -24 9 -3 25 -18 36 -35 11
-17 28 -33 37 -36 9 -3 20 -14 23 -25 7 -21 20 -25 30 -9 3 6 35 10 71 10 35
0 64 4 64 9 0 6 21 13 47 17 26 4 53 13 60 20 15 14 18 104 4 104 -5 0 -13 9
-16 20 -3 11 -15 20 -26 20 -17 0 -19 8 -19 90 0 55 -4 90 -10 90 -15 0 -83
70 -76 77 6 7 -32 43 -46 43 -4 0 -8 11 -8 25 0 14 5 25 10 25 6 0 10 13 10
29 0 46 51 57 85 18 11 -13 28 -26 38 -30 9 -4 20 -15 24 -24 4 -10 15 -27 25
-37 16 -18 18 -18 18 -3 0 9 5 17 11 17 6 0 8 9 4 21 -8 25 9 63 44 98 22 23
23 30 18 95 -4 39 -11 72 -17 74 -5 2 -10 15 -10 28 0 13 -4 24 -9 24 -5 0
-11 10 -13 23 -2 18 -10 23 -46 25 -31 2 -44 -1 -48 -12z"/>
<path d="M6071 16681 c-9 -12 -31 -21 -60 -24 -25 -3 -47 -10 -49 -16 -2 -6
-15 -11 -28 -11 -13 0 -24 -4 -24 -10 0 -5 -13 -10 -30 -10 -16 0 -30 5 -30
10 0 6 -9 10 -19 10 -12 0 -21 9 -25 25 -7 28 -30 33 -52 11 -22 -23 -17 -44
21 -80 19 -19 35 -39 35 -45 0 -6 5 -11 10 -11 6 0 10 -32 10 -75 0 -43 -4
-75 -10 -75 -5 0 -10 -16 -10 -35 0 -19 4 -35 9 -35 5 0 10 -52 13 -115 4
-102 7 -116 26 -133 12 -11 22 -26 22 -35 0 -23 11 -47 21 -47 5 0 9 53 9 118
l0 117 35 30 c19 16 35 38 35 47 0 10 5 18 10 18 6 0 10 18 10 40 0 23 5 40
11 40 6 0 9 7 5 15 -3 9 3 20 14 27 11 7 20 21 20 30 0 10 4 18 9 18 6 0 11
19 13 43 2 32 8 44 26 52 12 5 22 15 22 22 0 7 3 13 8 13 4 0 7 15 7 33 0 53
-37 76 -64 38z"/>
<path d="M6680 16690 c0 -5 -8 -10 -18 -10 -9 0 -22 -10 -27 -22 -6 -14 -21
-24 -37 -26 -16 -2 -28 -7 -28 -12 0 -5 -12 -10 -27 -12 -20 -2 -29 -9 -31
-25 -2 -13 -8 -23 -13 -23 -5 0 -9 -7 -9 -15 0 -12 17 -15 95 -15 89 0 98 -2
121 -25 34 -34 60 -33 57 2 -2 39 -14 73 -24 73 -5 0 -9 11 -9 25 0 14 3 25 8
25 4 0 12 11 18 23 8 17 7 26 -2 35 -16 15 -74 16 -74 2z"/>
<path d="M4023 16653 c-12 -2 -25 -13 -28 -23 -3 -10 -15 -22 -25 -25 -10 -3
-22 -15 -25 -26 -4 -10 -15 -19 -25 -19 -14 0 -21 -10 -26 -35 -4 -21 -13 -37
-25 -40 -22 -7 -25 -40 -5 -61 8 -8 28 -14 45 -14 17 0 31 -4 31 -10 0 -14 27
-13 36 2 4 6 -2 19 -14 29 -22 17 -31 59 -13 59 5 0 13 9 16 20 5 15 15 20 41
20 19 0 34 -4 34 -10 0 -5 11 -10 25 -10 15 0 25 6 25 15 0 8 9 20 20 27 24
15 27 63 6 84 -17 16 -60 24 -93 17z"/>
<path d="M7630 16640 c0 -5 -7 -10 -15 -10 -8 0 -15 -4 -15 -9 0 -5 -10 -11
-22 -13 -15 -2 -24 -11 -26 -25 -2 -13 -8 -23 -13 -23 -5 0 -9 -18 -9 -40 0
-22 -4 -40 -10 -40 -16 0 -11 -37 6 -44 9 -3 36 -6 60 -6 43 0 44 0 44 -34 0
-19 -6 -36 -12 -39 -9 -3 -5 -11 11 -26 13 -11 27 -21 31 -21 11 0 40 35 40
48 0 7 6 12 13 12 18 0 77 68 77 89 0 12 9 21 24 25 28 7 40 33 30 70 -6 26
-44 38 -44 15 0 -23 -30 -39 -74 -39 l-46 0 0 44 c0 24 -3 51 -6 60 -7 17 -44
22 -44 6z"/>
<path d="M7958 16482 c-21 -2 -38 -7 -38 -13 0 -5 -9 -9 -21 -9 -11 0 -17 -4
-14 -10 3 -5 1 -10 -4 -10 -6 0 -11 -18 -11 -40 0 -22 5 -40 10 -40 6 0 10
-11 10 -24 l0 -23 114 5 113 5 31 -32 30 -32 98 3 99 3 3 38 c3 40 -1 45 -24
22 -21 -21 -67 -19 -93 4 -18 16 -22 28 -19 63 5 71 -16 84 -143 89 -57 3
-121 3 -141 1z"/>
<path d="M6288 16441 c-10 -10 -18 -23 -18 -29 0 -6 -20 -30 -44 -54 -24 -24
-46 -54 -50 -66 -4 -12 -12 -22 -17 -22 -5 0 -9 -6 -9 -13 0 -7 -8 -19 -18
-26 -12 -9 -17 -21 -14 -37 2 -14 0 -24 -7 -24 -6 0 -11 -11 -11 -25 0 -14 -4
-25 -10 -25 -5 0 -10 -22 -10 -50 0 -27 5 -50 10 -50 19 0 11 -62 -11 -81 -26
-23 -26 -25 11 -59 25 -23 30 -36 30 -74 l0 -46 46 0 c39 0 52 -5 74 -29 16
-16 31 -38 35 -50 3 -11 11 -21 16 -21 5 0 9 -7 9 -15 0 -8 5 -15 10 -15 6 0
10 -38 10 -95 0 -57 4 -95 10 -95 6 0 10 -9 10 -20 0 -11 7 -20 15 -20 12 0
15 -13 15 -55 0 -30 5 -55 10 -55 6 0 10 -9 10 -20 0 -37 18 -21 25 23 4 23
12 45 17 48 16 11 -2 49 -23 49 -14 0 -19 7 -19 25 0 23 4 25 44 25 39 0 44 2
39 20 -5 20 28 60 49 60 4 0 8 6 8 14 0 20 84 106 104 106 9 0 16 5 16 10 0 6
7 10 15 10 8 0 15 5 15 11 0 6 16 27 35 47 19 20 35 41 35 45 0 5 7 15 15 23
8 9 15 26 15 40 0 13 5 24 10 24 6 0 10 11 10 25 0 14 4 25 10 25 5 0 7 7 4
15 -4 8 -1 15 5 15 6 0 11 9 11 20 0 11 5 20 10 20 6 0 10 7 10 15 0 8 -4 15
-10 15 -19 0 -11 65 10 80 28 20 27 77 -2 101 -17 16 -38 19 -110 19 -52 0
-88 4 -88 10 0 6 -9 10 -19 10 -10 0 -22 7 -25 15 -3 9 -20 21 -36 27 -17 6
-29 13 -26 15 9 10 -20 30 -52 38 -22 4 -32 12 -32 26 0 10 -4 19 -10 19 -5 0
-10 7 -10 15 0 8 -5 15 -11 15 -6 0 -9 10 -7 23 2 13 -1 28 -8 35 -20 19 -106
14 -126 -7z"/>
<path d="M3900 16210 c0 -14 75 -90 89 -90 6 0 11 -4 11 -10 0 -5 7 -10 15
-10 8 0 15 5 15 10 0 6 7 10 15 10 8 0 15 4 15 10 0 5 16 12 35 16 33 6 35 9
34 43 0 20 -3 30 -6 24 -6 -16 -183 -18 -183 -3 0 6 -9 10 -20 10 -11 0 -20
-5 -20 -10z"/>
<path d="M4400 16100 c0 -27 -4 -50 -10 -50 -5 0 -10 -11 -10 -25 0 -21 -5
-25 -29 -25 -17 0 -32 4 -35 9 -8 12 -88 23 -109 15 -9 -3 -17 -15 -17 -26 0
-25 102 -128 108 -110 4 14 62 16 62 2 0 -5 11 -10 24 -10 13 0 27 -6 29 -12
4 -10 6 -10 6 0 1 6 8 12 16 12 8 0 15 5 15 10 0 15 49 12 66 -4 8 -8 14 -22
14 -30 0 -9 8 -25 17 -35 14 -16 25 -19 60 -14 l43 6 0 -42 c0 -22 -4 -41 -9
-41 -5 0 -7 -9 -4 -20 3 -11 0 -20 -6 -20 -6 0 -11 -17 -11 -40 0 -29 7 -46
25 -65 14 -14 30 -25 35 -25 6 0 10 -44 10 -101 l0 -101 45 -44 c24 -24 49
-44 55 -44 5 0 10 -4 10 -10 0 -15 29 -12 46 4 16 17 19 36 4 36 -5 0 -10 9
-10 20 0 11 -5 20 -11 20 -6 0 -9 6 -7 12 6 16 -15 38 -35 38 -12 0 -15 24
-19 122 -3 82 -8 123 -16 126 -7 2 -12 12 -12 23 0 10 -4 19 -10 19 -5 0 -10
11 -10 25 0 14 -4 25 -10 25 -5 0 -10 18 -10 40 0 22 5 40 10 40 13 0 13 47
-1 55 -5 4 -8 12 -6 18 5 15 -13 32 -41 41 -12 4 -22 16 -22 26 0 19 -19 30
-50 30 -10 0 -21 6 -24 13 -5 10 -7 10 -12 0 -3 -7 -21 -13 -39 -13 -32 0 -65
-21 -65 -41 0 -14 -40 -11 -56 5 -8 8 -14 22 -14 31 0 19 23 45 39 45 7 0 11
25 11 65 0 51 -3 65 -15 65 -11 0 -15 -12 -15 -50z"/>
<path d="M7820 16111 c0 -5 -9 -12 -19 -16 -12 -3 -21 -19 -25 -40 -4 -19 -11
-35 -16 -35 -6 0 -10 -9 -10 -20 0 -11 -4 -20 -10 -20 -5 0 -10 -11 -10 -25 0
-14 5 -25 10 -25 6 0 10 -7 10 -15 0 -12 13 -15 61 -15 70 0 89 -13 89 -62 0
-47 -15 -58 -77 -58 -29 0 -53 -4 -53 -9 0 -5 -9 -13 -20 -16 -11 -3 -20 -15
-20 -26 0 -17 -8 -19 -85 -19 -47 0 -85 -4 -85 -10 0 -5 -16 -12 -35 -16 -29
-5 -34 -10 -30 -25 5 -14 0 -20 -22 -24 -15 -4 -36 -10 -45 -16 -10 -5 -27 -9
-39 -9 -12 0 -37 -16 -56 -35 -19 -19 -40 -35 -48 -35 -8 0 -15 -4 -15 -10 0
-5 -16 -12 -35 -16 -21 -4 -37 -13 -40 -24 -3 -10 -16 -20 -28 -22 -15 -2 -23
-11 -25 -28 -2 -14 -8 -29 -13 -34 -5 -6 -9 -20 -9 -33 0 -13 -4 -23 -10 -23
-15 0 -12 -70 4 -86 17 -16 46 -19 46 -4 0 6 32 10 75 10 43 0 75 -4 75 -10 0
-5 24 -10 53 -10 42 0 58 -5 79 -25 24 -22 36 -25 108 -25 47 0 80 4 80 10 0
6 16 10 35 10 53 0 85 -36 85 -95 l0 -45 50 0 c28 0 50 -4 50 -9 0 -5 11 -12
25 -15 16 -4 25 -13 25 -26 0 -11 5 -20 10 -20 6 0 10 -13 10 -30 0 -16 -4
-30 -10 -30 -5 0 -10 -13 -10 -30 0 -23 -5 -31 -25 -36 -14 -3 -25 -10 -25
-15 0 -5 -11 -9 -25 -9 -14 0 -25 -4 -25 -9 0 -5 -10 -11 -22 -13 -15 -2 -24
-11 -26 -27 -4 -24 -43 -71 -61 -71 -5 0 -11 -6 -14 -12 -3 -10 -50 -13 -183
-15 -98 0 -185 -2 -191 -2 -15 -1 -18 -41 -3 -41 6 0 10 -7 10 -15 0 -8 5 -15
11 -15 6 0 9 -7 6 -15 -4 -8 -2 -17 3 -20 13 -8 13 -85 1 -85 -5 0 -13 -10
-17 -22 -4 -13 -12 -26 -18 -30 -6 -4 -2 -14 13 -27 12 -11 20 -24 17 -29 -3
-4 4 -15 15 -22 14 -11 19 -26 19 -62 0 -36 4 -48 15 -48 8 0 15 -4 15 -10 0
-6 58 -10 155 -10 97 0 155 4 155 10 0 6 11 10 25 10 14 0 25 -4 25 -9 0 -4
20 -11 45 -14 29 -3 52 -12 64 -26 24 -28 81 -29 81 -2 0 11 4 21 9 23 6 2 13
81 17 176 4 94 11 172 15 172 5 0 9 9 9 20 0 11 5 20 10 20 6 0 10 32 10 75 0
41 4 75 9 75 5 0 7 9 4 20 -3 11 0 20 6 20 7 0 11 20 11 49 0 41 -4 53 -25 69
-14 11 -25 27 -25 36 0 9 -4 16 -10 16 -6 0 -10 43 -10 110 0 61 4 110 8 110
18 0 48 36 44 53 -2 9 1 17 7 17 6 0 11 11 11 25 0 14 5 25 10 25 6 0 10 16
10 36 0 19 6 42 13 49 6 8 17 20 23 27 6 7 21 19 32 27 12 8 19 18 16 22 -2 4
5 10 16 14 11 3 20 11 20 16 0 5 10 9 21 9 12 0 40 19 65 45 23 25 56 48 71
51 21 4 28 11 28 30 0 13 -3 24 -7 24 -5 0 -8 7 -8 15 0 8 -8 24 -17 35 -12
14 -20 17 -30 9 -7 -6 -10 -15 -7 -21 6 -9 -32 -48 -47 -48 -21 0 -39 14 -39
31 0 10 -5 19 -11 19 -6 0 -9 10 -7 23 3 21 -24 57 -44 57 -6 0 -29 19 -52 43
-56 56 -77 67 -128 67 -65 0 -70 7 -67 91 2 68 1 75 -19 84 -12 5 -22 13 -22
17 0 5 -9 8 -20 8 -11 0 -20 -4 -20 -9z"/>
<path d="M8773 15973 c-12 -2 -25 -13 -28 -24 -4 -12 -15 -19 -31 -19 -28 0
-164 -128 -164 -155 0 -9 -10 -27 -22 -40 -13 -13 -28 -30 -35 -37 -7 -7 -19
-19 -28 -26 -35 -30 -2 -102 48 -102 38 0 57 -10 57 -30 0 -16 -18 -30 -40
-30 -5 0 -15 7 -24 15 -14 14 -17 14 -36 -2 -11 -10 -20 -25 -20 -35 0 -9 -9
-19 -19 -23 -11 -3 -23 -15 -26 -26 -4 -13 -15 -19 -36 -19 -33 0 -59 -20 -59
-45 0 -9 -11 -26 -25 -39 -14 -13 -25 -33 -25 -44 0 -11 -5 -22 -10 -24 -16
-5 -25 -134 -11 -143 22 -13 60 4 67 30 3 14 10 25 15 25 5 0 9 19 9 41 0 57
29 83 85 76 22 -3 41 -11 43 -16 2 -6 24 -11 48 -11 24 0 44 -4 44 -10 0 -5 5
-10 11 -10 11 0 39 -25 39 -35 0 -11 25 -32 46 -39 19 -6 66 22 65 38 -1 3
-17 23 -36 43 -19 20 -35 43 -35 50 0 7 -4 13 -10 13 -5 0 -10 6 -10 14 0 8
-4 16 -10 18 -5 2 -12 28 -16 58 -8 77 9 95 98 103 59 5 103 20 118 38 3 4 15
9 28 13 22 7 31 26 12 26 -6 0 -10 27 -10 60 0 33 -4 60 -10 60 -5 0 -10 7
-10 16 0 19 -50 74 -67 74 -8 0 -13 15 -13 40 0 39 1 40 35 40 19 0 35 5 35
10 0 6 16 10 35 10 29 0 36 4 41 25 11 42 -1 55 -48 54 -24 -1 -53 -4 -65 -6z"/>
<path d="M7430 15940 c0 -5 -8 -10 -19 -10 -10 0 -33 -17 -50 -37 -28 -33 -37
-37 -89 -41 -45 -3 -62 0 -74 12 -9 9 -26 16 -37 16 -12 0 -21 6 -22 13 0 6
-5 2 -11 -10 -6 -13 -20 -25 -31 -29 -39 -12 -63 -46 -56 -79 4 -16 7 -24 8
-16 0 7 11 22 23 33 27 23 60 17 95 -18 24 -24 29 -25 96 -19 39 4 80 13 91
19 30 17 46 33 39 40 -7 7 35 46 50 46 5 0 6 8 3 17 -4 9 -2 20 5 23 6 5 8 17
4 29 -6 21 -25 29 -25 11z"/>
<path d="M4910 15685 c0 -14 5 -25 11 -25 8 0 10 -20 7 -59 -3 -49 -1 -62 14
-72 10 -8 18 -19 18 -26 0 -7 5 -13 11 -13 7 0 10 -21 7 -60 -1 -33 0 -60 5
-60 4 0 7 -7 7 -15 0 -10 11 -15 35 -15 19 0 35 -4 35 -10 0 -5 25 -10 55 -10
30 0 55 5 55 10 0 6 36 10 88 10 81 0 89 -2 106 -25 10 -14 27 -25 37 -25 9 0
20 -6 23 -12 5 -10 7 -10 12 0 14 30 84 4 84 -32 0 -9 5 -16 10 -16 6 0 10
-11 10 -25 0 -14 5 -25 11 -25 6 0 9 -6 6 -13 -3 -8 3 -20 14 -28 10 -7 19
-19 19 -26 0 -7 5 -13 11 -13 7 0 9 -10 7 -25 -3 -14 -1 -25 3 -25 5 0 9 -11
9 -25 0 -14 5 -25 10 -25 6 0 10 -16 10 -35 0 -19 5 -35 10 -35 6 0 10 -22 10
-50 0 -27 -4 -50 -10 -50 -5 0 -10 -9 -10 -20 0 -11 -4 -20 -10 -20 -5 0 -10
-6 -10 -14 0 -8 -6 -17 -12 -20 -10 -5 -10 -7 0 -12 13 -6 17 -54 5 -54 -5 0
-6 -27 -5 -60 3 -39 0 -60 -7 -60 -6 0 -11 -7 -11 -15 0 -8 -4 -15 -10 -15 -6
0 -10 -27 -10 -60 0 -37 -4 -60 -11 -60 -6 0 -8 -7 -5 -16 4 -10 -3 -18 -24
-26 -19 -6 -32 -19 -36 -34 -3 -13 -10 -24 -15 -24 -5 0 -9 -12 -9 -27 0 -33
62 -93 96 -93 14 0 25 -8 29 -20 3 -11 11 -20 16 -20 5 0 9 -4 9 -10 0 -15 42
-60 56 -60 7 0 20 -7 29 -17 13 -13 19 -13 25 -4 4 7 28 16 54 18 34 4 46 10
46 22 0 23 -44 39 -121 43 -55 3 -70 8 -92 30 -15 15 -27 31 -27 36 0 5 -7 15
-15 22 -10 8 -15 30 -15 64 0 70 9 96 31 96 11 0 19 5 19 10 0 6 7 10 15 10 8
0 15 -4 15 -10 0 -5 6 -10 14 -10 8 0 16 -4 18 -10 2 -5 22 -12 46 -16 l42 -7
0 62 c0 34 4 61 10 61 6 0 10 35 10 85 0 47 4 85 9 85 4 0 6 11 3 25 -2 15 0
25 7 25 6 0 11 14 11 30 0 25 4 30 25 30 21 0 25 -5 25 -30 0 -16 5 -30 10
-30 6 0 10 -9 10 -20 0 -11 5 -20 11 -20 7 0 9 -10 7 -25 -3 -14 -1 -25 3 -25
5 0 9 -11 9 -25 0 -22 4 -25 35 -25 19 0 35 5 35 10 0 6 9 10 20 10 11 0 23 7
26 15 4 8 15 15 25 15 10 0 19 5 19 10 0 6 7 10 15 10 9 0 15 9 15 21 0 27 36
59 66 59 17 0 25 7 30 25 3 14 10 25 15 25 5 0 9 12 9 28 0 19 -11 36 -35 57
-41 36 -44 63 -10 89 28 21 33 57 10 80 -8 8 -15 19 -15 25 0 6 -4 11 -10 11
-5 0 -10 9 -10 20 0 11 5 20 10 20 6 0 10 11 10 25 0 14 4 25 9 25 13 0 23 34
15 54 -7 17 -44 23 -44 6 0 -5 -25 -10 -56 -10 -72 0 -88 15 -81 76 2 24 1 44
-4 44 -5 0 -9 7 -9 15 0 8 -4 15 -9 15 -5 0 -13 9 -16 20 -3 11 -14 20 -24 20
-24 0 -37 17 -45 59 -6 34 -38 71 -63 71 -7 0 -13 6 -13 13 0 6 -5 4 -11 -5
-17 -30 -109 -22 -109 9 0 28 -28 43 -79 43 -31 0 -55 6 -65 15 -8 8 -24 15
-35 15 -12 0 -21 4 -21 9 0 5 -15 12 -33 15 -18 3 -41 17 -51 31 -18 24 -24
25 -112 25 -56 0 -94 4 -94 10 0 6 -9 10 -20 10 -11 0 -20 -4 -20 -10 0 -6
-43 -10 -110 -10 -67 0 -110 4 -110 10 0 6 -11 10 -25 10 -20 0 -25 -5 -25
-25z"/>
<path d="M6850 15475 c0 -8 -4 -15 -10 -15 -5 0 -10 -16 -10 -36 0 -33 -2 -36
-24 -30 -30 7 -63 -21 -58 -51 2 -13 -1 -23 -7 -23 -6 0 -11 -7 -11 -15 0 -8
-5 -15 -12 -15 -16 0 -88 -76 -88 -94 0 -8 -9 -18 -20 -21 -11 -3 -20 -13 -20
-21 0 -8 -11 -25 -25 -38 -20 -18 -25 -33 -25 -70 0 -25 5 -46 10 -46 6 0 10
7 10 15 0 8 5 15 10 15 6 0 10 6 10 13 0 8 23 37 50 65 28 28 50 56 50 62 0 5
5 10 10 10 6 0 10 7 10 15 0 14 53 75 65 75 10 0 35 28 35 39 0 6 5 11 11 11
5 0 7 5 4 10 -10 16 21 40 49 40 14 0 26 4 26 9 0 5 14 12 30 16 20 4 30 13
30 25 0 10 5 20 12 22 8 3 4 12 -10 26 -27 27 -102 32 -102 7z"/>
<path d="M10058 15292 c-16 -2 -28 -8 -28 -13 0 -5 -16 -9 -35 -9 -19 0 -35
-4 -35 -10 0 -5 -9 -10 -21 -10 -11 0 -27 -7 -35 -15 -9 -8 -11 -15 -5 -15 6
0 11 -7 11 -15 0 -9 11 -26 25 -39 24 -22 35 -66 16 -66 -5 0 -7 -9 -4 -20 3
-11 0 -20 -6 -20 -6 0 -11 -7 -11 -15 0 -8 5 -15 10 -15 6 0 10 -7 10 -16 0
-23 24 -11 28 14 2 11 12 24 23 27 11 4 22 19 26 36 3 15 14 31 24 34 13 5 20
20 25 56 4 27 10 49 15 49 11 0 12 57 2 62 -5 2 -20 2 -35 0z"/>
<path d="M3070 15191 c0 -5 -9 -13 -20 -16 -23 -7 -35 -43 -25 -74 9 -30 55
-28 79 4 14 18 28 25 52 25 19 0 34 5 34 10 0 6 9 10 19 10 17 0 31 18 31 41
0 5 -38 9 -85 9 -47 0 -85 -4 -85 -9z"/>
<path d="M5160 15151 c0 -17 5 -31 10 -31 6 0 10 -8 10 -18 0 -40 31 -52 124
-50 67 1 90 -2 97 -13 6 -10 9 -10 9 -1 0 6 7 12 15 12 12 0 9 7 -10 25 -14
14 -25 30 -25 35 0 5 -11 12 -25 16 -14 3 -25 10 -25 15 0 5 -9 9 -19 9 -11 0
-21 5 -23 12 -3 7 -32 14 -71 16 l-67 4 0 -31z"/>
<path d="M2730 15140 c0 -5 -8 -10 -17 -10 -15 0 -18 -9 -18 -57 0 -63 6 -73
47 -73 22 0 25 4 21 21 -7 25 11 39 50 39 30 0 49 13 59 42 5 13 0 18 -23 23
-16 4 -29 11 -29 16 0 5 -20 9 -45 9 -25 0 -45 -4 -45 -10z"/>
<path d="M6950 14755 c0 -19 5 -35 10 -35 6 0 10 -20 10 -44 0 -70 5 -76 62
-76 39 0 55 5 69 22 11 11 19 26 19 33 0 16 -35 55 -49 55 -6 0 -28 18 -48 40
-48 51 -73 53 -73 5z"/>
<path d="M2248 14748 c-31 -33 -35 -52 -15 -68 6 -6 23 -19 36 -30 23 -19 23
-22 10 -48 -8 -15 -17 -29 -21 -32 -3 -3 -8 -25 -9 -50 -3 -41 -2 -45 20 -48
40 -6 51 -26 51 -89 0 -32 5 -65 10 -73 6 -9 10 -10 10 -3 0 6 10 13 22 15 13
2 24 11 27 23 2 11 8 23 15 27 8 6 7 8 -1 8 -7 0 -13 11 -13 25 0 14 -4 25 -9
25 -5 0 -12 16 -15 35 -4 19 -11 35 -16 35 -6 0 -10 11 -10 25 0 14 -4 25 -10
25 -5 0 -10 9 -10 20 0 11 -4 20 -10 20 -5 0 -10 18 -10 40 0 22 5 40 10 40 6
0 10 11 10 24 0 13 6 27 13 30 10 5 10 7 0 12 -7 3 -13 14 -13 25 0 30 -41 23
-72 -13z"/>
<path d="M9350 14680 c0 -18 65 -90 80 -90 15 0 12 -40 -4 -56 -8 -8 -22 -14
-30 -14 -11 0 -16 -10 -16 -34 0 -43 22 -53 46 -20 11 13 32 27 49 30 28 5 30
8 30 50 0 33 -4 46 -17 50 -10 3 -18 10 -18 15 0 5 -5 9 -11 9 -6 0 -25 16
-43 35 -32 34 -66 46 -66 25z"/>
<path d="M5923 14335 c-16 -17 -17 -35 -3 -35 6 0 10 -7 10 -16 0 -29 65 -84
99 -84 17 0 31 -4 31 -10 0 -5 9 -10 20 -10 11 0 20 -4 20 -10 0 -5 9 -10 20
-10 11 0 20 5 20 10 0 6 5 10 10 10 6 0 17 5 24 12 10 10 3 21 -35 60 -26 26
-57 48 -69 48 -11 0 -20 4 -20 10 0 5 -16 12 -35 16 -19 3 -35 10 -35 15 0 14
-44 10 -57 -6z"/>
<path d="M6850 14170 c0 -5 -8 -10 -18 -10 -28 0 -43 -20 -27 -36 7 -8 19 -14
25 -14 17 0 42 -28 35 -40 -3 -5 -1 -10 4 -10 6 0 11 -16 11 -35 0 -19 -4 -35
-10 -35 -5 0 -7 -7 -4 -15 4 -10 0 -15 -15 -15 -12 0 -21 -4 -21 -10 0 -5 -9
-10 -21 -10 -11 0 -17 -4 -14 -10 4 -6 -17 -10 -54 -10 -34 0 -61 4 -61 10 0
6 -5 10 -11 10 -6 0 -17 7 -26 15 -8 8 -19 13 -24 10 -5 -4 -9 -67 -9 -141 0
-83 -4 -134 -10 -134 -5 0 -10 -7 -10 -16 0 -9 -11 -27 -25 -40 -22 -20 -25
-32 -25 -89 0 -36 -4 -65 -9 -65 -5 0 -7 -9 -4 -20 4 -13 -2 -27 -16 -39 -11
-10 -21 -23 -21 -29 0 -6 -6 -12 -12 -15 -16 -5 -15 -300 0 -305 27 -9 54 -43
49 -62 -3 -11 -1 -20 4 -20 5 0 9 -11 9 -25 0 -20 5 -25 26 -25 18 0 42 16 80
55 30 30 54 58 54 62 0 12 49 63 61 63 6 0 26 16 45 35 30 31 40 35 84 35 27
0 50 5 50 10 0 6 9 10 21 10 11 0 35 14 52 32 l32 31 3 125 c4 122 4 126 31
151 15 14 26 32 24 39 -3 6 0 12 6 12 6 0 11 9 11 20 0 12 12 33 26 47 26 26
28 26 201 30 170 4 175 5 199 28 14 14 31 25 39 25 8 0 15 5 15 10 0 6 11 10
25 10 14 0 25 5 25 10 0 6 11 10 23 10 28 0 66 30 60 47 -2 6 1 14 6 18 6 3
11 16 11 29 0 16 10 27 33 37 28 12 32 18 32 54 0 34 -4 42 -30 54 -45 22 -58
38 -53 71 4 26 1 30 -18 30 -13 0 -26 5 -29 10 -4 6 -82 10 -201 10 -123 0
-194 -4 -194 -10 0 -12 -53 -13 -65 -1 -6 5 -68 11 -139 13 -89 3 -131 8 -134
16 -5 15 -102 17 -102 2z"/>
<path d="M6056 14094 c-3 -9 -6 -24 -6 -35 0 -10 -4 -19 -10 -19 -5 0 -10 -11
-10 -25 0 -14 5 -25 10 -25 6 0 10 -7 10 -15 0 -8 11 -25 25 -39 19 -19 25
-35 25 -71 0 -26 5 -45 11 -45 6 0 9 -7 5 -15 -3 -8 -1 -15 4 -15 6 0 10 -9
10 -19 0 -10 7 -22 16 -25 22 -9 24 -8 24 9 0 8 4 15 9 15 14 0 23 56 16 100
-4 26 -13 41 -26 45 -14 5 -19 16 -19 41 0 19 -5 34 -11 34 -7 0 -10 17 -7 45
2 36 0 46 -14 51 -10 3 -18 10 -18 15 0 15 -37 10 -44 -7z"/>
<path d="M2995 13657 c-14 -16 -13 -79 2 -94 6 -8 36 -13 67 -13 31 0 56 -4
56 -10 0 -5 11 -10 25 -10 23 0 25 4 25 44 0 66 -7 76 -50 76 -21 0 -41 -6
-44 -12 -5 -10 -7 -10 -12 0 -3 6 -16 12 -29 12 -13 0 -25 4 -27 9 -1 5 -7 4
-13 -2z"/>
<path d="M9633 12383 l-63 -4 0 -59 c0 -33 -4 -60 -9 -60 -15 0 -22 -32 -10
-46 16 -19 126 -19 145 0 8 8 14 31 14 51 0 28 6 42 26 57 16 13 24 28 22 42
-3 23 -17 25 -125 19z"/>
<path d="M6850 11960 c0 -5 -11 -10 -25 -10 -16 0 -25 -6 -25 -15 0 -8 -4 -15
-10 -15 -5 0 -10 -8 -10 -18 0 -9 -11 -26 -25 -36 -25 -19 -32 -55 -19 -90 9
-24 33 -19 40 9 3 14 10 25 15 25 5 0 9 7 9 15 0 17 35 55 50 55 10 0 90 76
90 85 0 3 -20 5 -45 5 -25 0 -45 -4 -45 -10z"/>
<path d="M6439 11332 c-23 -26 -32 -53 -30 -84 2 -16 -2 -28 -8 -28 -7 0 -11
-44 -11 -129 0 -105 3 -130 15 -135 13 -4 15 8 15 79 0 50 4 85 10 85 6 0 10
11 10 25 0 14 5 25 10 25 6 0 10 11 10 25 0 14 4 25 10 25 5 0 7 7 4 15 -4 8
-1 15 5 15 8 0 11 16 9 47 -3 53 -22 66 -49 35z"/>
</g>
</svg>
