<?xml version="1.0" standalone="no"?>
<!DOCTYPE svg PUBLIC "-//W3C//DTD SVG 20010904//EN"
 "http://www.w3.org/TR/2001/REC-SVG-20010904/DTD/svg10.dtd">
<svg version="1.0" xmlns="http://www.w3.org/2000/svg"
 width="385.000000pt" height="410.000000pt" viewBox="0 0 385.000000 410.000000"
 preserveAspectRatio="xMidYMid meet">
<metadata>
Created by potrace 1.13, written by Peter Selinger 2001-2015
</metadata>
<g transform="translate(0.000000,410.000000) scale(0.100000,-0.100000)"
fill="#000000" stroke="none">
<path d="M0 2050 l0 -2050 1925 0 1925 0 0 2050 0 2050 -1925 0 -1925 0 0
-2050z m1977 1697 c59 -31 90 -94 45 -93 -9 0 -37 -1 -62 -3 -39 -1 -43 -3
-28 -15 10 -7 44 -14 77 -15 l60 -2 6 38 c4 21 7 45 8 53 1 8 11 15 22 15 17
0 20 -6 17 -38 -2 -21 -8 -50 -14 -65 -16 -39 -16 -122 -1 -122 7 0 38 25 69
56 39 38 60 52 67 45 11 -11 -20 -51 -87 -111 -105 -94 -105 -94 -120 -215 -3
-16 -9 -50 -14 -75 -32 -144 -34 -162 -25 -171 12 -12 104 5 152 29 35 16 36
20 42 82 3 36 11 81 18 100 23 63 42 100 51 100 18 0 21 -21 6 -52 -18 -38
-50 -177 -43 -184 11 -11 137 67 189 118 28 27 30 34 34 126 2 53 8 108 13
122 5 14 12 37 15 53 6 26 29 37 40 18 4 -5 -3 -38 -14 -73 -24 -78 -27 -178
-5 -178 8 0 15 3 15 8 0 19 84 117 99 115 15 -2 51 59 51 86 0 4 9 16 20 26
19 17 20 17 26 0 4 -10 2 -26 -4 -36 -7 -10 -12 -24 -12 -29 0 -6 -16 -36 -35
-66 -46 -71 -45 -89 3 -65 9 5 35 17 57 27 22 11 42 22 43 27 6 13 32 7 32 -7
0 -21 -28 -46 -51 -46 -10 0 -19 -4 -19 -9 0 -12 -74 -41 -103 -41 -21 0 -49
-28 -82 -81 -37 -61 -37 -59 -20 -66 9 -3 32 -1 51 5 29 9 36 8 41 -5 7 -18
-13 -33 -44 -33 -12 0 -25 -4 -28 -10 -3 -5 -21 -10 -39 -10 -28 0 -40 -8 -70
-44 -20 -24 -36 -47 -36 -50 0 -12 130 -6 172 8 24 8 59 16 78 19 19 3 50 9
68 13 24 5 32 3 32 -8 0 -22 -54 -48 -102 -48 -23 0 -59 -5 -78 -10 -20 -5
-68 -11 -108 -13 -59 -3 -77 -9 -107 -31 -35 -27 -44 -49 -25 -61 6 -4 17 -2
24 4 7 6 34 14 60 17 25 4 46 11 46 15 0 5 11 9 25 9 29 0 35 -28 8 -36 -10
-3 -26 -10 -35 -15 -10 -5 -26 -9 -37 -9 -27 0 -51 -10 -51 -22 0 -11 30 -41
68 -65 12 -9 22 -22 22 -29 0 -25 -33 -15 -82 27 -26 22 -53 37 -59 33 -7 -4
-9 -24 -6 -50 3 -29 0 -47 -8 -54 -19 -16 -22 -4 -24 74 -1 38 -3 71 -5 73 -4
5 -131 -123 -168 -170 -32 -40 -43 -95 -33 -172 7 -63 17 -67 72 -34 39 24
114 54 199 79 33 10 70 24 82 31 11 7 41 58 67 113 25 56 50 109 56 118 5 10
9 23 9 30 0 6 10 22 22 35 38 40 66 22 33 -21 -30 -39 -8 -49 35 -16 23 18 60
27 60 14 0 -15 -22 -44 -35 -44 -8 0 -26 -11 -41 -25 -15 -14 -32 -25 -39 -25
-7 0 -19 -8 -27 -17 -21 -23 -62 -122 -55 -129 3 -3 41 5 84 19 43 14 104 33
135 43 105 31 204 165 218 291 4 39 13 70 23 80 24 24 30 11 19 -41 -5 -25 -8
-47 -5 -49 2 -3 23 13 46 34 22 22 46 39 52 39 28 0 21 -16 -23 -59 -64 -62
-122 -146 -122 -176 0 -3 45 -5 99 -5 l100 0 65 45 c62 42 106 57 106 36 0
-15 -26 -37 -60 -51 -31 -13 -35 -28 -9 -40 60 -29 87 -39 104 -42 11 -2 21
-12 23 -22 4 -16 -1 -18 -35 -12 -46 8 -113 36 -113 48 0 4 -69 8 -154 8
l-154 0 -32 -32 -32 -31 24 -13 c72 -37 242 -59 316 -41 26 7 33 5 38 -8 10
-24 -13 -35 -73 -35 -28 0 -55 -5 -59 -11 -9 -16 53 -76 87 -83 31 -6 38 -23
14 -32 -28 -11 -63 6 -102 47 -21 23 -46 50 -55 61 -10 10 -31 18 -47 18 -16
0 -52 11 -79 25 -63 31 -93 31 -170 0 -34 -14 -72 -25 -84 -25 -13 -1 -39 -9
-58 -18 -37 -19 -42 -42 -14 -73 8 -8 14 -25 14 -37 0 -35 13 -26 60 38 25 35
51 60 61 60 16 0 17 -4 9 -26 -6 -14 -10 -27 -10 -30 0 -11 24 -2 58 21 36 25
60 21 49 -8 -6 -15 -124 -77 -148 -77 -13 0 -109 -85 -109 -96 0 -7 83 -4 125
6 124 27 184 46 215 70 19 14 60 39 92 55 48 25 58 27 72 16 15 -13 15 -15 0
-32 -10 -11 -27 -19 -40 -19 -27 0 -84 -31 -84 -46 0 -7 47 -13 131 -18 l132
-6 54 42 c59 45 109 102 140 158 11 19 26 35 34 35 20 0 13 -41 -11 -72 -25
-32 -25 -42 -2 -38 73 15 92 14 92 -5 0 -23 -73 -39 -95 -20 -11 9 -17 9 -28
-2 -8 -7 -37 -31 -65 -53 -74 -58 -73 -65 2 -65 65 0 142 29 153 58 7 17 43
15 43 -3 0 -8 -11 -22 -25 -31 -14 -9 -25 -19 -25 -23 0 -11 89 -34 106 -27
24 9 35 -3 24 -25 -13 -23 -53 -25 -103 -4 -22 9 -67 15 -113 15 -86 0 -79 10
-54 -88 11 -45 7 -62 -14 -62 -13 0 -31 44 -42 103 -4 27 -12 38 -28 42 -46 9
-116 16 -218 21 -102 5 -108 5 -108 -14 0 -11 19 -36 42 -55 32 -27 40 -39 31
-48 -7 -7 -17 -8 -26 -3 -22 13 -83 69 -99 93 -13 19 -19 20 -78 10 -35 -5
-72 -14 -82 -20 -10 -6 -71 -14 -135 -20 -108 -8 -119 -11 -177 -46 -33 -21
-119 -94 -190 -164 -108 -105 -128 -130 -123 -149 3 -12 2 -33 -3 -46 -5 -13
-6 -35 0 -51 4 -15 11 -41 15 -56 l6 -28 48 43 c27 24 66 52 87 63 22 10 46
24 54 31 8 7 36 19 62 28 25 8 61 24 80 36 18 11 47 20 64 20 20 0 43 10 65
30 19 16 40 30 47 30 6 0 12 4 12 10 0 5 18 19 40 30 22 11 40 24 40 29 0 14
100 111 115 111 30 0 24 -21 -17 -59 -46 -42 -46 -62 -1 -42 16 7 48 17 73 21
25 5 56 12 68 16 21 6 23 4 20 -16 -4 -29 -56 -49 -155 -60 -59 -6 -85 -15
-143 -49 -38 -23 -70 -46 -70 -50 0 -5 16 -11 36 -14 38 -6 84 14 84 38 0 12
21 25 41 25 16 0 10 -26 -12 -55 -30 -37 -13 -47 73 -42 48 3 74 10 93 25 15
12 43 24 64 27 20 4 52 12 71 20 19 8 51 16 71 19 20 4 52 21 74 41 36 31 39
38 40 91 0 34 5 59 12 61 17 6 46 -55 39 -81 -8 -31 7 -50 34 -41 12 4 34 9
49 10 14 2 36 6 49 10 17 6 22 3 22 -12 0 -25 -50 -43 -123 -43 -55 0 -126
-30 -127 -55 0 -11 137 -64 188 -72 54 -9 40 -33 -19 -33 l-51 0 37 -41 c41
-46 36 -73 -8 -44 -26 17 -77 77 -77 92 0 4 -20 17 -43 28 -52 24 -151 25
-204 0 -84 -38 -143 -69 -143 -75 0 -16 26 -28 50 -23 21 4 28 1 32 -15 3 -12
16 -22 29 -24 13 -1 24 -10 24 -18 0 -11 -9 -14 -35 -12 -19 1 -39 7 -44 12
-13 13 -61 13 -84 1 -9 -5 -25 -12 -35 -15 -14 -4 -16 -10 -8 -23 12 -22 109
-45 133 -32 9 5 29 9 44 9 26 0 27 -1 9 -20 -19 -21 -15 -25 28 -32 10 -2 19
-7 20 -13 3 -14 -49 -18 -81 -7 -28 9 -64 -1 -96 -27 -15 -13 -15 -16 11 -43
42 -45 89 -61 138 -49 22 5 65 13 95 16 45 5 60 12 88 41 24 24 38 32 45 25 7
-7 5 -18 -7 -36 -15 -23 -15 -26 -1 -31 9 -4 28 -4 43 -1 30 6 58 -5 49 -20
-3 -5 -54 -10 -114 -11 -59 -2 -112 -7 -117 -12 -6 -6 -25 -10 -43 -10 -37 0
-39 -5 -19 -46 22 -43 30 -84 17 -84 -14 0 -28 17 -55 70 -16 30 -33 47 -55
55 -17 5 -50 29 -75 53 -24 23 -46 42 -50 42 -3 0 -6 -11 -6 -24 0 -38 -19
-41 -32 -6 -7 22 -15 30 -27 27 -81 -26 -121 -44 -121 -56 0 -18 59 -92 124
-154 39 -38 46 -51 35 -58 -8 -5 -17 -9 -20 -9 -8 0 -100 95 -131 135 -12 17
-26 32 -30 33 -5 2 -8 10 -8 18 0 32 -41 43 -149 38 -112 -4 -158 -20 -216
-72 -67 -61 -68 -64 -61 -281 3 -108 10 -248 15 -311 6 -63 13 -161 17 -218 4
-56 11 -105 15 -108 5 -3 9 -14 9 -25 0 -28 -38 -39 -132 -38 l-80 1 4 64 c3
56 2 64 -14 64 -15 0 -18 9 -18 60 0 48 3 58 15 54 23 -9 34 78 13 103 -8 10
-8 20 1 36 13 24 10 220 -5 319 l-7 47 -31 -16 c-17 -9 -44 -27 -61 -41 -32
-26 -115 -66 -122 -58 -3 3 -15 1 -27 -4 -12 -4 -29 -4 -39 1 -12 7 -20 3 -33
-16 -9 -14 -22 -25 -30 -25 -7 0 -16 -4 -19 -10 -4 -6 5 -6 22 1 51 20 93 27
99 17 13 -20 -103 -72 -123 -56 -9 7 -13 6 -13 -3 0 -8 -13 -21 -29 -30 -37
-21 -65 -8 -57 27 5 17 2 24 -8 24 -8 0 -16 7 -20 15 -11 29 -46 17 -62 -21
-8 -20 -23 -45 -33 -56 -17 -17 -23 -18 -61 -8 -39 10 -43 10 -65 -14 -13 -14
-31 -26 -40 -26 -8 0 -15 -4 -15 -10 0 -5 -7 -10 -16 -10 -10 0 -14 6 -11 14
3 8 1 17 -6 20 -14 6 16 28 53 38 19 5 16 6 -14 5 -30 -1 -41 2 -46 17 -4 13
-9 16 -14 8 -3 -6 -13 -9 -21 -5 -9 3 -23 -4 -33 -16 -18 -22 -91 -44 -79 -24
4 6 0 13 -8 17 -8 3 -15 2 -15 -3 0 -12 -63 -23 -84 -15 -9 3 -13 10 -10 15 7
13 -10 11 -23 -2 -8 -8 -26 -3 -66 16 -43 20 -64 25 -92 19 -22 -4 -35 -2 -35
4 0 6 -2 16 -5 24 -3 8 6 18 22 25 28 12 91 48 99 55 2 3 -10 3 -26 0 -34 -5
-93 16 -84 29 3 5 9 7 14 4 4 -3 10 2 13 10 4 10 1 12 -11 8 -15 -5 -16 -4 -1
11 8 9 39 19 70 23 29 3 48 8 41 11 -6 2 -10 8 -6 13 3 5 -1 9 -8 10 -7 0 -23
2 -35 3 -12 1 -20 -1 -18 -5 3 -4 -2 -10 -11 -13 -22 -8 -54 11 -48 29 4 10 0
15 -15 15 -28 0 -27 14 4 30 25 14 25 33 0 23 -17 -6 -19 10 -5 38 14 25 -2
25 -25 -1 -18 -20 -51 -28 -40 -10 3 6 -4 10 -16 10 -33 0 -11 17 28 23 18 3
40 12 49 21 18 19 36 20 51 5 8 -8 17 -8 32 0 12 7 21 8 21 4 0 -4 11 -13 25
-20 20 -9 25 -8 25 3 0 16 21 19 35 5 6 -5 33 -14 62 -19 59 -10 95 1 101 32
3 15 1 16 -18 6 -28 -15 -34 -9 -19 23 8 17 21 27 43 30 17 2 33 1 36 -3 3 -4
16 -11 29 -15 18 -5 22 -4 16 6 -6 8 -4 11 6 7 8 -3 22 5 32 18 13 18 15 24 4
24 -7 0 -18 -5 -24 -11 -7 -7 -18 -8 -29 -2 -11 5 -26 8 -34 8 -23 -2 -87 -31
-94 -44 -10 -16 -87 -54 -94 -46 -4 4 1 11 11 16 33 19 18 34 -38 37 -32 1
-55 -2 -55 -8 0 -5 -15 -17 -32 -26 l-33 -17 21 24 c21 24 31 79 15 79 -16 0
-33 -28 -21 -35 16 -10 3 -22 -25 -22 -28 0 -32 9 -10 27 8 7 14 20 13 29 -2
11 3 15 18 13 11 -1 31 8 45 22 14 13 38 26 54 28 19 2 30 9 30 18 0 11 -8 14
-28 12 -18 -2 -26 1 -22 7 3 6 13 11 21 11 14 0 14 2 0 15 -8 8 -20 15 -26 15
-6 0 -9 4 -5 9 3 5 1 12 -5 16 -5 3 -10 -2 -10 -12 0 -11 -3 -14 -8 -7 -12 20
-72 22 -72 3 0 -6 7 -8 16 -5 9 3 26 -5 42 -20 15 -14 21 -24 12 -22 -8 2 -14
-3 -12 -9 1 -7 -5 -13 -13 -13 -8 0 -15 -6 -15 -13 0 -17 -72 -42 -95 -33 -9
3 -13 2 -10 -4 8 -14 -35 -54 -46 -43 -14 14 -21 63 -9 63 6 0 15 11 20 24 5
15 20 27 39 31 40 9 49 33 10 27 -21 -3 -29 0 -29 11 0 27 51 51 105 49 27 -1
57 3 65 9 11 7 3 8 -25 3 l-40 -7 19 22 c11 11 26 21 35 22 12 0 11 3 -4 9
-15 7 -16 9 -4 9 21 1 71 40 64 51 -3 4 4 10 15 13 25 6 27 37 3 37 -10 0 -34
-14 -53 -30 -33 -27 -33 -29 -12 -30 31 0 19 -17 -18 -25 -17 -4 -28 -11 -24
-16 3 -5 3 -9 0 -9 -2 0 -13 -3 -23 -7 -16 -6 -16 -5 -4 10 12 16 10 16 -33 3
-31 -10 -58 -11 -83 -5 -21 4 -48 6 -60 2 -14 -3 -23 -1 -23 6 0 8 -6 7 -20
-1 -17 -11 -22 -10 -29 1 -6 10 -13 10 -28 3 -21 -12 -49 0 -39 16 4 6 -2 8
-14 5 -15 -4 -20 0 -20 17 l0 21 -29 -20 c-24 -17 -29 -18 -27 -6 3 19 61 57
72 47 4 -4 4 -2 0 5 -7 13 -55 8 -87 -8 -12 -6 -18 -3 -22 10 -6 23 3 36 23
36 8 0 22 15 30 32 8 18 22 33 30 33 13 0 13 2 1 9 -11 7 -21 3 -36 -15 -14
-16 -27 -23 -38 -18 -19 7 -23 24 -5 24 6 0 9 2 6 5 -3 3 -18 1 -33 -5 -34
-13 -45 -5 -19 15 10 8 29 13 41 10 16 -4 23 -1 23 10 0 8 9 15 19 15 11 0 23
6 27 13 4 6 4 9 -1 5 -4 -4 -14 -3 -21 3 -9 7 -19 7 -36 -2 -22 -12 -22 -11
-8 6 14 17 13 18 -2 12 -10 -3 -25 -4 -33 -1 -24 10 1 47 26 39 17 -6 19 -3
13 20 -3 14 -2 25 2 24 23 -4 36 2 31 16 -4 8 -2 17 3 20 6 4 10 1 10 -5 0 -6
4 -8 10 -5 6 3 10 1 10 -4 0 -6 9 -11 20 -11 11 0 20 -4 20 -9 0 -12 52 -3 65
11 7 7 1 9 -20 5 -26 -4 -27 -4 -12 8 16 11 16 13 2 19 -21 8 -10 26 15 26 10
0 22 4 25 10 3 5 0 7 -9 4 -8 -3 -28 4 -45 17 -25 18 -33 20 -46 9 -10 -8 -15
-9 -15 -1 0 6 1 12 2 14 6 9 -25 46 -35 42 -7 -4 -1 3 12 15 19 16 26 18 32 8
7 -10 9 -10 9 -1 0 7 7 10 15 7 8 -4 15 -1 15 6 0 6 -4 9 -9 5 -5 -3 -12 -1
-15 4 -4 5 -2 12 4 16 17 10 11 23 -12 27 -12 2 -23 9 -26 16 -2 7 0 12 5 11
30 -5 52 2 47 16 -5 11 1 15 24 15 17 0 34 -4 37 -10 11 -17 45 -12 38 6 -4
10 1 17 16 21 24 6 29 23 7 23 -8 0 -17 6 -19 13 -4 7 -6 6 -6 -4 -1 -19 -61
-33 -61 -15 0 6 -11 24 -25 40 -29 34 -31 40 -9 32 8 -3 22 1 30 9 9 8 13 15
9 15 -10 0 29 37 44 42 14 4 23 88 9 88 -5 0 -8 5 -8 11 0 5 5 7 10 4 6 -3 10
1 10 10 0 9 -15 22 -33 30 -17 8 -26 14 -19 15 20 0 3 20 -17 20 -10 0 -26 9
-36 20 -10 11 -15 20 -10 20 4 0 2 6 -4 13 -6 8 -8 17 -4 20 3 4 1 7 -5 7 -7
0 -12 7 -12 16 0 11 8 15 28 12 15 -1 30 -7 34 -13 5 -6 8 -5 8 3 0 7 15 12
40 12 33 0 40 3 40 20 0 11 -6 20 -14 20 -8 0 -21 8 -28 18 -7 10 -22 17 -33
17 -26 0 -48 22 -41 41 3 8 10 13 15 10 5 -3 7 3 4 15 -5 19 -3 21 28 15 l34
-6 -32 15 c-32 15 -52 35 -35 35 5 0 12 9 15 20 3 11 10 20 17 20 6 0 8 -6 4
-12 -5 -10 -4 -10 6 -1 8 7 22 8 41 3 23 -7 29 -5 29 6 0 9 5 12 12 8 7 -4 8
-3 4 4 -4 7 -14 12 -23 12 -17 0 -76 31 -81 43 -2 4 -10 7 -18 7 -8 0 -14 5
-14 10 0 6 6 10 14 10 8 0 22 7 31 16 26 26 91 1 114 -44 11 -21 21 -31 25
-24 5 9 12 8 27 -1 16 -10 21 -9 28 2 6 8 17 11 32 6 17 -4 20 -3 10 3 -11 8
-10 11 5 14 19 5 19 5 0 13 -13 6 -29 3 -47 -8 -27 -15 -30 -14 -61 7 -22 15
-32 29 -30 42 2 10 1 16 -3 12 -8 -7 -55 39 -55 53 0 5 11 9 25 9 14 0 25 -5
25 -12 0 -6 3 -8 6 -5 4 4 1 14 -7 24 -13 15 -12 16 6 9 36 -15 65 -18 65 -8
0 6 -4 13 -10 17 -16 10 1 37 21 32 13 -3 18 0 17 12 -3 40 2 53 18 47 14 -5
15 -4 5 8 -9 11 -9 15 1 18 11 4 11 8 0 20 -19 24 29 30 59 7 15 -11 29 -14
39 -9 9 5 22 5 30 0 8 -5 18 -6 22 -4 4 3 8 0 8 -7 0 -6 8 -9 20 -6 11 3 18 1
14 -4 -3 -5 4 -9 15 -9 10 0 27 -3 35 -6 12 -5 15 -2 10 10 -4 11 1 19 17 25
l24 9 -29 11 c-16 6 -42 21 -59 33 l-31 22 26 7 c13 3 49 4 78 1 40 -4 54 -9
57 -24 4 -14 13 -17 39 -15 21 3 35 -1 38 -9 3 -8 20 -14 41 -14 23 0 34 4 30
11 -4 6 -13 8 -20 5 -7 -2 -28 7 -47 21 -27 21 -29 24 -11 20 13 -3 26 -1 29
4 3 5 -2 9 -11 9 -9 0 -23 6 -30 14 -12 12 -10 15 18 19 38 7 121 2 139 -9 10
-5 10 -4 1 6 -14 15 5 40 31 40 8 0 21 6 28 14 24 23 55 28 72 10 9 -9 23 -14
31 -11 7 3 19 0 25 -8 13 -16 50 -8 50 11 0 13 34 37 55 39 16 2 68 16 90 25
11 4 33 13 49 19 21 9 36 9 61 0 34 -13 90 -5 80 11 -9 14 33 32 63 27 15 -2
21 -2 13 1 -11 3 -11 6 -1 12 18 11 61 5 97 -13z"/>
<path d="M2068 2989 c-19 -11 -25 -64 -8 -74 16 -10 12 -33 -11 -64 -17 -23
-19 -36 -14 -73 l7 -46 27 14 c24 12 61 48 134 132 23 25 17 47 -22 90 -29 34
-77 42 -113 21z"/>
<path d="M2460 2510 c-46 -25 -47 -26 -102 -46 -27 -9 -48 -21 -48 -25 0 -5
-7 -9 -15 -9 -16 0 -82 -29 -105 -45 -8 -7 -31 -18 -50 -25 -66 -25 -70 -33
-70 -139 0 -109 6 -141 26 -141 8 0 55 39 104 87 121 117 162 142 265 160 17
2 43 15 59 28 26 20 30 30 28 65 -2 23 -7 49 -12 58 -5 10 -11 25 -14 35 -7
22 -22 21 -66 -3z"/>
<path d="M1625 2080 c-11 -5 -37 -11 -58 -15 -21 -3 -43 -14 -50 -25 -6 -11
-22 -20 -34 -20 -13 0 -24 -3 -24 -7 -8 -45 -5 -55 18 -64 31 -12 66 -12 59 0
-3 5 3 11 14 14 24 6 25 20 5 41 -13 13 -11 16 18 25 17 5 55 12 82 16 28 4
61 13 75 20 25 14 24 14 -17 15 -23 0 -47 2 -55 4 -7 3 -22 1 -33 -4z"/>
<path d="M2490 1845 c-14 -7 -45 -19 -69 -26 -24 -7 -49 -18 -55 -25 -7 -6
-22 -15 -34 -19 -25 -7 -121 -85 -176 -141 -34 -35 -36 -41 -36 -101 0 -34 2
-63 4 -63 2 0 35 20 73 45 54 36 77 45 112 45 52 0 128 36 175 82 18 18 51 50
74 71 26 23 42 46 42 60 0 12 7 33 16 45 8 12 12 27 9 32 -9 14 -105 11 -135
-5z"/>
<path d="M2654 1703 c-12 -2 -32 -15 -45 -29 -12 -13 -28 -24 -34 -24 -15 0
-85 -73 -85 -89 0 -19 109 -6 195 23 61 21 70 27 73 51 2 14 -4 37 -13 51 -15
24 -37 28 -91 17z"/>
</g>
</svg>
