<?xml version="1.0" standalone="no"?>
<!DOCTYPE svg PUBLIC "-//W3C//DTD SVG 20010904//EN"
 "http://www.w3.org/TR/2001/REC-SVG-20010904/DTD/svg10.dtd">
<svg version="1.0" xmlns="http://www.w3.org/2000/svg"
 width="915.000000pt" height="939.000000pt" viewBox="0 0 915.000000 939.000000"
 preserveAspectRatio="xMidYMid meet">
<metadata>
Created by potrace 1.13, written by Peter Selinger 2001-2015
</metadata>
<g transform="translate(0.000000,939.000000) scale(0.100000,-0.100000)"
fill="#000000" stroke="none">
<path d="M0 4695 l0 -4695 4575 0 4575 0 0 4695 0 4695 -4575 0 -4575 0 0
-4695z m4944 4030 c16 -17 66 -21 66 -5 0 6 9 10 19 10 11 0 23 -4 26 -10 3
-5 21 -10 40 -10 18 0 36 -6 39 -12 5 -10 7 -10 12 0 7 14 54 17 54 3 0 -5 9
-13 20 -16 17 -5 20 -15 20 -71 l0 -64 -30 0 c-16 0 -30 -4 -30 -10 0 -5 25
-10 56 -10 63 0 94 22 94 67 0 21 4 23 55 23 30 0 55 -4 55 -9 0 -5 50 -12
110 -16 61 -4 110 -11 110 -15 0 -4 9 -10 21 -13 15 -4 20 -12 17 -29 -2 -19
-10 -23 -47 -26 -39 -3 -71 -19 -71 -37 0 -11 28 -35 41 -35 6 0 19 -8 28 -17
9 -10 25 -23 36 -29 11 -6 22 -21 23 -34 2 -13 10 -29 17 -37 16 -16 91 -18
101 -2 3 6 17 9 30 6 21 -4 24 0 24 24 0 16 3 29 8 29 4 0 16 14 27 30 19 28
24 30 88 30 59 0 71 3 93 25 14 14 31 25 39 25 8 0 15 5 15 10 0 15 67 12 74
-2 5 -10 7 -10 12 0 8 17 62 15 80 -3 9 -8 24 -15 35 -15 10 0 19 -4 19 -9 0
-5 13 -23 29 -40 22 -24 38 -31 65 -31 20 0 36 5 36 10 0 6 25 10 56 10 l56 0
-4 -52 c-3 -43 0 -56 16 -70 10 -10 23 -18 28 -18 4 0 8 -9 8 -20 0 -11 5 -20
10 -20 6 0 10 -13 10 -29 0 -40 9 -61 27 -61 16 0 63 -44 63 -60 0 -15 16 -12
34 5 35 36 117 4 154 -60 6 -11 12 -14 12 -7 0 14 50 17 50 2 0 -6 45 -10 116
-10 115 0 144 -8 144 -39 0 -6 5 -11 10 -11 6 0 10 -13 10 -30 0 -16 5 -30 11
-30 6 0 16 -6 23 -12 8 -7 23 -20 35 -28 43 -29 15 -70 -48 -70 -23 0 -41 -4
-41 -10 0 -5 -9 -10 -20 -10 -11 0 -20 -7 -20 -15 0 -8 9 -15 20 -15 11 0 20
5 20 10 0 6 25 10 55 10 46 0 60 -4 80 -25 14 -13 25 -31 25 -40 0 -8 5 -15
10 -15 6 0 10 -11 10 -25 0 -14 5 -25 10 -25 6 0 10 -13 10 -30 0 -25 -4 -30
-25 -30 -14 0 -25 5 -25 10 0 6 -8 10 -18 10 -10 0 -24 9 -32 20 -8 11 -20 20
-28 20 -19 0 -45 -28 -37 -40 4 -6 -7 -16 -24 -23 -17 -6 -31 -15 -31 -19 0
-4 -11 -8 -25 -8 -14 0 -25 5 -25 10 0 18 -35 11 -50 -10 -11 -15 -26 -20 -57
-20 -24 0 -43 5 -43 10 0 6 -13 10 -30 10 -16 0 -30 -4 -30 -10 0 -5 -13 -10
-29 -10 -17 0 -33 5 -36 10 -3 6 -20 10 -36 10 -32 0 -79 -38 -79 -63 0 -20
-22 -27 -84 -27 -54 0 -76 -12 -76 -42 0 -10 -4 -18 -10 -18 -5 0 -10 -5 -10
-10 0 -16 -47 -60 -64 -60 -9 0 -12 -7 -9 -20 3 -11 12 -20 19 -20 8 0 14 -4
14 -9 0 -5 9 -13 20 -16 11 -3 20 -15 20 -26 0 -17 8 -19 63 -20 80 -2 101 1
105 12 2 5 13 9 24 9 10 0 26 7 34 15 9 8 24 15 35 15 10 0 19 5 19 10 0 18
129 12 148 -6 17 -18 94 -14 100 5 6 17 81 13 99 -5 12 -11 26 -14 54 -9 21 4
46 2 56 -4 10 -6 14 -11 10 -11 -12 0 72 -80 84 -80 5 0 9 -9 9 -20 0 -11 5
-20 10 -20 6 0 10 -9 10 -20 0 -11 5 -20 10 -20 6 0 10 -22 10 -50 0 -55 -15
-70 -69 -70 -17 0 -31 -4 -31 -10 0 -5 -18 -10 -39 -10 -22 0 -43 5 -46 10
-10 15 -25 12 -25 -6 0 -23 25 -44 55 -44 22 0 75 -38 75 -54 0 -15 96 -106
112 -106 10 0 18 -4 18 -10 0 -15 58 -12 63 3 3 8 26 11 82 9 63 -2 81 -6 95
-22 10 -11 25 -20 34 -20 9 0 16 -4 16 -10 0 -6 37 -10 90 -10 l90 0 0 -45 c0
-45 0 -45 35 -45 19 0 35 -4 35 -10 0 -5 7 -10 15 -10 22 0 55 -32 55 -52 0
-10 -5 -18 -10 -18 -19 0 -55 -44 -56 -67 0 -13 3 -23 8 -23 4 0 8 -13 8 -29
0 -33 -14 -41 -71 -41 -43 0 -49 -8 -19 -30 11 -8 20 -22 20 -32 0 -9 9 -20
20 -23 11 -3 20 -15 20 -26 0 -10 5 -19 11 -19 6 0 8 -7 5 -17 -4 -9 -1 -20 5
-24 7 -4 9 -14 4 -25 -13 -30 -14 -44 -4 -44 5 0 9 -24 9 -53 0 -41 -4 -56
-19 -67 -11 -7 -18 -17 -15 -22 3 -5 -8 -11 -25 -14 -17 -4 -31 -10 -31 -15 0
-12 -77 -11 -85 1 -3 6 -17 10 -31 10 -19 0 -24 5 -24 25 0 14 5 25 10 25 6 0
10 14 10 30 0 17 3 30 8 30 4 0 7 11 7 25 0 22 -4 25 -37 25 -21 0 -38 5 -38
10 0 6 -7 10 -15 10 -8 0 -15 5 -15 10 0 6 -15 10 -32 9 -18 0 -27 -3 -20 -6
6 -2 12 -11 12 -18 0 -8 11 -25 25 -39 29 -29 30 -33 11 -52 -17 -17 -66 -19
-66 -2 0 6 -8 1 -19 -10 -10 -12 -26 -22 -35 -22 -9 0 -16 -4 -16 -10 0 -5 -5
-10 -11 -10 -6 0 -17 -7 -26 -15 -10 -11 -31 -15 -66 -14 -32 2 -52 -2 -55 -9
-4 -14 -52 -16 -52 -2 0 6 -9 10 -20 10 -11 0 -20 -4 -20 -10 0 -5 -7 -10 -15
-10 -8 0 -15 5 -15 10 0 6 -18 10 -40 10 -22 0 -40 -4 -40 -8 0 -5 -16 -14
-35 -22 -19 -8 -35 -20 -35 -28 0 -21 -39 -52 -64 -52 -12 1 -31 9 -43 19 -38
32 -26 81 23 94 16 4 16 5 -3 6 -13 0 -23 6 -23 11 0 6 -16 10 -35 10 -19 0
-35 5 -35 10 0 6 -9 10 -20 10 -11 0 -20 -4 -20 -10 0 -15 -60 -12 -76 4 -8 8
-14 33 -14 55 0 23 -3 41 -6 41 -13 0 -35 -31 -40 -59 -6 -30 -8 -31 -60 -31
-30 0 -54 5 -54 10 0 6 -22 10 -50 10 -27 0 -50 -4 -50 -10 0 -5 -13 -10 -30
-10 -16 0 -30 5 -30 10 0 6 -11 10 -25 10 -14 0 -25 -4 -25 -10 0 -5 -11 -10
-25 -10 -14 0 -25 -4 -25 -10 0 -5 -9 -10 -20 -10 -11 0 -20 -4 -20 -10 0 -5
-6 -10 -13 -10 -20 0 -57 -35 -57 -54 0 -9 -4 -16 -10 -16 -5 0 -10 -11 -10
-25 0 -14 5 -25 10 -25 6 0 10 -9 10 -20 0 -11 5 -20 10 -20 19 0 10 -39 -10
-45 -11 -3 -20 -11 -20 -16 0 -5 -7 -9 -15 -9 -8 0 -15 4 -15 9 0 5 -9 13 -20
16 -11 4 -18 11 -15 16 4 5 -20 9 -54 9 -34 0 -61 -4 -61 -10 0 -5 -7 -10 -15
-10 -8 0 -15 5 -15 10 0 6 -13 10 -30 10 -16 0 -30 -4 -30 -10 0 -5 5 -10 10
-10 15 0 12 -60 -4 -76 -17 -16 -56 -19 -56 -4 0 6 -11 10 -25 10 -14 0 -25 5
-25 10 0 6 -7 10 -15 10 -20 0 -20 -56 -1 -76 17 -16 46 -19 46 -4 0 6 37 10
90 10 53 0 90 -4 90 -10 0 -5 5 -10 11 -10 7 0 20 -10 30 -21 16 -19 28 -21
99 -20 49 1 80 -2 80 -9 0 -6 24 -10 55 -10 30 0 55 5 55 10 0 6 13 10 29 10
24 0 28 3 24 20 -3 11 0 20 6 20 6 0 11 7 11 15 0 10 10 15 34 15 19 0 38 5
41 10 8 12 82 13 89 1 3 -4 26 -11 52 -15 29 -3 54 -14 64 -27 18 -20 18 -20
25 0 3 10 13 22 22 25 21 8 113 -4 113 -15 0 -5 7 -9 15 -9 8 0 15 -4 15 -10
0 -5 24 -10 54 -10 30 0 56 -5 58 -11 2 -5 17 -11 34 -11 32 -1 72 -23 61 -34
-3 -3 16 -28 44 -56 36 -36 49 -56 49 -78 0 -21 -5 -30 -16 -30 -8 0 -12 -4
-9 -10 3 -5 2 -10 -4 -10 -10 0 15 -58 35 -77 7 -8 37 -13 69 -13 64 0 85 -14
85 -56 0 -32 -33 -64 -67 -64 -12 0 -23 -4 -23 -10 0 -5 -9 -10 -20 -10 -11 0
-20 -4 -20 -10 0 -5 5 -10 10 -10 6 0 10 -13 10 -29 0 -31 -14 -41 -57 -41
-26 0 -53 -20 -53 -40 0 -18 27 -40 49 -40 12 0 21 -4 21 -9 0 -4 32 -11 72
-13 40 -3 74 -11 76 -17 2 -6 13 -11 24 -11 23 0 48 -23 48 -44 0 -9 5 -16 10
-16 6 0 10 -11 10 -25 0 -14 -4 -25 -10 -25 -5 0 -10 -9 -10 -20 0 -11 -4 -20
-9 -20 -11 0 -24 -39 -21 -67 1 -17 -4 -23 -19 -23 -12 0 -21 -6 -21 -14 0 -9
-12 -16 -27 -18 -20 -2 -27 -8 -25 -20 3 -16 -9 -18 -128 -18 -80 0 -130 4
-130 10 0 16 -30 12 -48 -7 -12 -12 -13 -18 -4 -21 6 -2 12 -15 12 -28 0 -23
-3 -24 -59 -24 -71 0 -123 9 -115 21 3 5 -4 9 -15 9 -19 0 -21 6 -21 53 0 52
1 54 35 67 19 8 35 15 35 18 0 11 -31 32 -49 32 -11 0 -26 7 -35 15 -17 18
-26 19 -26 5 0 -23 -50 -60 -80 -60 -16 0 -30 5 -30 10 0 6 -6 10 -13 10 -7 0
-25 11 -40 25 -15 14 -27 21 -27 15 0 -5 -13 -10 -30 -10 -16 0 -30 5 -30 10
0 6 -6 10 -13 10 -19 0 -15 -42 6 -61 9 -9 17 -30 17 -48 0 -29 -2 -31 -35
-31 -19 0 -35 4 -35 9 0 5 -9 13 -21 16 -13 4 -19 13 -16 24 4 17 -14 41 -33
41 -5 0 -10 -4 -10 -10 0 -5 -11 -10 -25 -10 -18 0 -25 -5 -25 -20 0 -11 -4
-20 -10 -20 -5 0 -10 -11 -10 -25 0 -22 -4 -25 -33 -25 -35 0 -87 20 -87 33 0
14 -28 37 -44 37 -10 0 -16 -9 -16 -25 0 -18 5 -25 20 -25 11 0 20 -4 20 -10
0 -5 5 -10 10 -10 11 0 60 -45 60 -55 0 -3 -11 -17 -25 -30 -25 -26 -95 -36
-95 -14 0 6 -10 9 -22 7 -20 -3 -22 -8 -20 -45 2 -26 -1 -43 -7 -43 -6 0 -11
-15 -11 -34 0 -19 -6 -36 -12 -39 -7 -2 23 -7 67 -11 44 -4 83 -13 87 -19 6
-9 8 -9 8 1 0 7 14 12 35 12 28 0 35 -4 35 -20 0 -12 7 -20 16 -20 18 0 46 25
37 34 -4 3 15 6 40 6 26 0 47 -4 47 -10 0 -5 9 -10 20 -10 11 0 20 -4 20 -10
0 -5 5 -10 11 -10 7 0 20 -10 31 -22 14 -16 21 -19 30 -10 20 20 58 15 58 -7
0 -33 11 -51 31 -51 23 0 25 18 4 26 -16 7 -21 44 -6 44 5 0 13 9 16 20 5 15
15 20 41 20 19 0 34 -4 34 -10 0 -6 35 -10 85 -10 50 0 85 -4 85 -10 0 -5 20
-10 45 -10 25 0 45 -3 45 -8 0 -8 42 -27 83 -36 18 -4 27 -13 27 -26 0 -11 5
-20 10 -20 6 0 10 -28 10 -62 0 -73 5 -82 43 -92 17 -4 27 -13 27 -24 0 -25
19 -42 47 -42 13 0 23 -4 23 -9 0 -5 9 -13 20 -16 16 -5 20 -15 20 -46 0 -21
5 -39 10 -39 19 0 10 -22 -20 -50 -16 -15 -30 -37 -30 -49 0 -12 -4 -21 -10
-21 -5 0 -10 -9 -10 -20 0 -11 5 -20 10 -20 6 0 10 -16 10 -35 0 -19 -4 -35
-10 -35 -5 0 -10 -9 -10 -20 0 -11 -7 -20 -15 -20 -8 0 -15 -4 -15 -10 0 -19
-39 -10 -45 10 -3 11 -11 20 -16 20 -16 0 -9 40 11 62 11 12 19 27 17 33 -7
19 -38 17 -56 -4 -21 -25 -75 -28 -97 -7 -8 8 -14 28 -14 45 0 17 -4 31 -10
31 -5 0 -10 13 -10 29 0 29 -14 41 -51 41 -10 0 -19 5 -19 10 0 6 -8 10 -18
10 -9 0 -23 9 -30 20 -7 11 -19 20 -27 20 -8 0 -15 5 -15 10 0 6 -18 10 -40
10 -22 0 -40 -4 -40 -10 0 -5 -9 -10 -20 -10 -11 0 -20 -4 -20 -10 0 -5 -16
-10 -35 -10 -19 0 -35 -4 -35 -10 0 -5 -11 -10 -25 -10 -14 0 -25 5 -25 10 0
20 -52 9 -78 -17 l-26 -26 97 6 c61 3 97 2 97 -5 0 -16 28 -38 49 -38 25 0 29
-34 7 -56 -19 -18 -46 -18 -82 1 -18 9 -56 15 -99 15 -77 0 -114 -13 -74 -25
56 -18 69 -81 22 -102 -35 -17 -110 -17 -115 -1 -6 17 -38 -14 -38 -36 0 -9
-4 -16 -10 -16 -5 0 -10 -18 -10 -41 0 -22 -6 -47 -14 -55 -16 -16 -56 -19
-56 -4 0 5 -16 25 -35 44 -19 20 -35 40 -35 46 0 5 -4 10 -10 10 -5 0 -10 8
-10 19 0 10 -16 32 -35 48 -38 33 -49 83 -19 83 8 0 21 6 28 12 10 10 8 18
-11 36 -13 12 -23 18 -23 12 0 -5 -9 -10 -20 -10 -19 0 -29 -6 -65 -38 -7 -6
-39 -12 -69 -12 -45 0 -58 -4 -68 -20 -13 -20 -58 -28 -58 -10 0 6 -7 10 -15
10 -8 0 -15 -4 -15 -10 0 -5 -11 -10 -25 -10 -14 0 -25 -4 -25 -10 0 -5 -16
-10 -35 -10 -34 0 -35 -1 -35 -41 0 -53 -17 -69 -77 -69 -79 0 -123 -11 -123
-29 0 -9 -9 -23 -20 -31 -11 -8 -20 -22 -20 -32 0 -10 -4 -18 -10 -18 -5 0
-10 -7 -10 -15 0 -8 -4 -15 -8 -15 -5 0 -7 -25 -4 -55 3 -37 1 -55 -7 -55 -6
0 -11 -13 -11 -30 0 -29 2 -30 46 -30 51 0 84 -14 84 -35 0 -11 -12 -15 -40
-15 -22 0 -40 -4 -40 -10 0 -5 -8 -10 -18 -10 -15 0 -19 -8 -18 -42 1 -45 14
-68 39 -68 9 0 17 -5 19 -12 3 -8 44 -13 123 -16 107 -4 121 -7 142 -28 13
-13 23 -30 23 -39 0 -8 6 -15 13 -15 6 -1 22 -9 35 -19 17 -15 22 -30 22 -66
0 -48 16 -75 44 -75 9 0 16 -4 16 -10 0 -5 9 -10 21 -10 26 0 49 -23 49 -49 0
-14 -6 -21 -20 -21 -11 0 -20 -4 -20 -10 0 -5 -7 -10 -15 -10 -8 0 -15 -4 -15
-10 0 -5 -20 -10 -45 -10 -32 0 -45 -4 -45 -14 0 -7 -7 -19 -15 -26 -8 -7 -15
-18 -14 -24 0 -7 2 -6 6 2 6 16 21 15 39 -2 16 -17 19 -46 4 -46 -5 0 -7 -7
-4 -15 5 -11 -1 -15 -25 -15 -17 0 -31 -4 -31 -10 0 -5 -16 -10 -35 -10 -19 0
-35 4 -35 9 0 5 -9 13 -20 16 -11 4 -18 11 -15 16 4 5 -12 9 -34 9 -23 0 -41
5 -41 10 0 6 -7 10 -15 10 -8 0 -15 6 -16 13 0 9 -2 9 -6 0 -2 -7 -13 -13 -24
-13 -10 0 -19 -4 -19 -10 0 -5 -9 -10 -20 -10 -24 0 -72 -39 -64 -52 3 -5 -2
-16 -12 -23 -22 -16 -114 -20 -114 -5 0 6 -18 10 -39 10 -31 0 -41 -4 -46 -21
-8 -25 2 -69 15 -69 6 0 10 -9 10 -20 0 -11 -4 -20 -10 -20 -5 0 -7 -6 -4 -14
3 -9 -6 -19 -25 -27 -17 -8 -31 -17 -31 -21 0 -5 -14 -8 -31 -8 -30 0 -59 19
-59 39 0 6 -4 11 -10 11 -5 0 -10 8 -10 18 0 27 -34 62 -59 62 -25 0 -51 -22
-51 -42 0 -8 -8 -20 -19 -27 -11 -8 -16 -21 -13 -33 3 -11 -4 -26 -17 -37 -11
-10 -21 -25 -21 -34 0 -9 -9 -19 -20 -22 -11 -3 -20 -15 -20 -26 0 -10 -4 -19
-9 -19 -5 0 -8 -11 -7 -25 1 -19 7 -25 23 -25 12 0 24 -6 27 -12 5 -10 7 -10
12 0 3 6 23 12 44 12 21 0 45 7 54 15 8 8 32 15 55 15 l41 0 0 -65 c0 -36 -4
-65 -10 -65 -21 0 -60 -52 -60 -81 0 -17 -7 -37 -16 -46 -13 -14 -19 -14 -42
-2 -41 21 -52 35 -52 65 0 27 -32 64 -57 64 -7 0 -13 5 -13 10 0 16 -27 12
-34 -5 -3 -8 -15 -15 -26 -15 -13 0 -20 -7 -20 -20 0 -11 -4 -20 -10 -20 -5 0
-10 -16 -10 -35 0 -19 -3 -35 -7 -35 -5 0 -7 -65 -5 -145 2 -99 0 -145 -7
-145 -6 0 -11 -9 -11 -20 0 -11 -4 -20 -10 -20 -6 0 -10 -32 -10 -75 0 -43 4
-75 10 -75 14 0 12 -47 -2 -54 -10 -5 -10 -7 0 -12 8 -4 12 -29 12 -73 0 -37
5 -72 11 -78 6 -6 10 -32 8 -57 -3 -25 -1 -46 3 -46 5 0 8 -9 8 -20 0 -11 5
-20 10 -20 6 0 10 -7 10 -16 0 -18 36 -54 54 -54 7 0 18 -9 26 -20 15 -21 70
-28 70 -10 0 6 20 10 45 10 25 0 45 -4 45 -10 0 -5 9 -10 20 -10 14 0 20 -7
20 -24 0 -34 -15 -35 -447 -35 l-373 1 0 27 c0 15 8 33 19 41 11 7 18 17 15
22 -3 4 -1 8 4 8 24 0 72 59 72 87 0 16 3 33 7 36 4 4 5 33 4 64 -2 38 2 59
11 65 10 7 10 11 1 15 -16 6 -18 113 -3 113 6 0 10 11 10 25 0 14 -4 25 -10
25 -6 0 -10 55 -10 145 0 90 4 145 10 145 6 0 10 14 10 30 0 17 5 30 10 30 6
0 10 33 10 80 0 47 -4 80 -10 80 -5 0 -10 20 -10 45 0 25 -5 45 -11 45 -6 0
-9 12 -7 28 4 32 -25 66 -66 76 -52 13 -97 76 -63 89 6 3 -6 6 -28 6 -46 1
-71 -11 -60 -29 10 -17 -13 -58 -62 -107 -39 -40 -83 -57 -83 -33 0 6 -9 10
-20 10 -13 0 -20 7 -20 20 0 11 5 20 10 20 6 0 10 4 10 9 0 10 -74 19 -107 13
-13 -2 -23 -11 -23 -19 0 -17 -24 -43 -39 -43 -6 0 -11 -4 -11 -10 0 -5 -13
-10 -30 -10 -16 0 -30 -4 -30 -9 0 -5 -11 -12 -25 -15 -14 -4 -25 -13 -25 -22
0 -20 -45 -64 -65 -64 -9 0 -18 -7 -21 -15 -4 -8 -15 -15 -25 -15 -10 0 -19
-4 -19 -10 0 -21 -62 -10 -81 14 -16 20 -27 23 -88 24 -56 0 -69 -3 -64 -14 3
-8 0 -14 -6 -14 -6 0 -11 -7 -11 -16 0 -20 -24 -44 -44 -44 -21 0 -30 -19 -12
-26 24 -9 20 -44 -4 -44 -11 0 -20 -4 -20 -10 0 -5 -22 -10 -50 -10 -49 0 -50
1 -50 30 0 24 4 30 23 31 l22 2 -22 4 c-13 2 -23 9 -23 14 0 5 -12 9 -26 9
-14 0 -32 6 -40 14 -16 17 -19 46 -4 46 6 0 10 16 10 35 0 19 5 35 10 35 6 0
10 9 10 20 0 11 4 20 9 20 5 0 16 6 23 13 23 21 57 37 78 37 16 0 20 7 20 33
0 20 7 38 19 46 11 8 16 21 14 32 -4 14 0 19 16 19 11 0 21 6 21 13 0 10 -29
13 -129 13 -105 0 -132 3 -145 16 -9 9 -16 24 -16 32 0 9 -4 16 -10 16 -5 0
-10 9 -10 20 0 11 -4 20 -10 20 -5 0 -10 16 -10 35 l0 35 130 0 c80 0 130 4
130 10 0 6 9 10 19 10 26 0 34 15 27 46 -4 15 -14 24 -26 24 -11 0 -20 5 -20
10 0 6 -7 10 -16 10 -18 0 -44 23 -44 39 0 16 -29 13 -46 -4 -9 -8 -33 -15
-54 -15 -21 0 -45 7 -54 15 -8 8 -22 15 -30 15 -9 0 -16 5 -16 10 0 6 -7 10
-15 10 -8 0 -15 5 -15 10 0 6 -12 10 -26 10 -23 0 -54 20 -54 35 0 12 50 55
65 55 8 0 15 5 15 10 0 19 43 10 63 -12 13 -16 21 -19 24 -10 3 6 13 12 23 12
13 0 17 5 13 19 -4 15 3 19 45 25 27 3 82 3 121 0 69 -7 71 -8 71 -34 0 -15 7
-33 15 -40 22 -18 43 8 38 47 l-5 31 118 -5 c66 -3 121 -10 122 -14 2 -5 15
-9 28 -9 13 0 24 -4 24 -10 0 -5 18 -10 40 -10 22 0 40 5 40 10 0 6 7 10 16
10 8 0 22 7 30 15 9 8 26 15 40 15 13 0 24 5 24 10 0 6 -9 10 -20 10 -11 0
-20 5 -20 10 0 6 -7 10 -15 10 -8 0 -15 5 -15 10 0 6 -8 10 -18 10 -9 0 -26
11 -36 25 -10 14 -25 25 -32 25 -8 0 -14 9 -14 20 0 13 7 20 20 20 11 0 20 5
20 10 0 6 14 10 30 10 17 0 30 5 30 10 0 6 16 10 35 10 28 0 43 8 68 35 18 20
41 35 54 35 13 0 23 5 23 10 0 6 7 10 15 10 14 0 55 34 55 45 0 3 -11 5 -25 5
-14 0 -25 5 -25 10 0 6 -18 10 -40 10 -22 0 -40 -4 -40 -10 0 -5 -9 -10 -20
-10 -11 0 -20 -4 -20 -9 0 -12 -93 -25 -119 -16 -12 3 -21 15 -21 26 0 10 -4
19 -10 19 -5 0 -10 -4 -10 -10 0 -5 -20 -10 -45 -10 -37 0 -45 3 -45 19 0 29
-28 47 -51 33 -10 -7 -28 -12 -39 -12 -11 0 -20 -4 -20 -10 0 -5 -5 -10 -11
-10 -11 0 -39 25 -39 35 0 12 24 31 58 46 17 7 32 17 32 21 0 5 9 8 19 8 14 0
18 5 14 19 -5 21 39 71 62 71 8 0 15 5 15 10 0 6 24 10 54 10 35 0 56 5 59 13
2 8 25 12 70 11 70 0 83 9 52 40 -8 8 -15 26 -15 41 0 16 -13 39 -35 61 -19
19 -35 40 -35 46 0 6 -8 1 -19 -10 -10 -12 -23 -22 -30 -22 -6 0 -11 -4 -11
-10 0 -5 -24 -10 -53 -10 -41 0 -56 4 -67 20 -8 11 -23 20 -33 20 -26 0 -47
24 -47 55 0 37 22 55 69 55 23 0 41 4 41 9 0 5 16 12 35 15 19 4 35 11 35 16
0 6 9 10 20 10 16 0 20 7 20 30 0 17 -4 30 -10 30 -5 0 -10 20 -10 44 0 41 -2
45 -26 48 -15 2 -32 12 -38 23 -6 11 -19 27 -28 36 -10 9 -18 28 -18 43 0 14
-4 26 -9 26 -5 0 -12 11 -15 25 -4 16 -13 25 -26 25 -11 0 -20 5 -20 10 0 6
-8 10 -19 10 -10 0 -32 7 -47 15 -16 8 -36 15 -44 15 -9 0 -22 9 -30 20 -8 11
-25 20 -37 20 -16 0 -23 6 -23 20 0 11 -4 20 -10 20 -5 0 -10 5 -10 11 0 11
-25 39 -35 39 -12 0 -35 29 -35 44 0 9 -8 16 -20 16 -13 0 -20 -7 -20 -20 0
-11 -4 -20 -10 -20 -5 0 -10 -9 -10 -19 0 -15 -8 -21 -32 -23 -25 -2 -34 -8
-36 -25 -2 -13 -8 -23 -13 -23 -5 0 -9 -16 -9 -35 0 -19 5 -35 11 -35 5 0 7
-4 4 -10 -3 -6 3 -10 14 -10 14 0 21 -6 21 -20 0 -16 7 -20 30 -20 17 0 30 5
30 10 0 6 9 10 20 10 11 0 20 5 20 10 0 6 11 10 25 10 21 0 25 -5 25 -30 0
-16 -3 -30 -7 -30 -5 0 -14 -4 -22 -9 -12 -8 -12 -12 2 -25 8 -9 23 -16 31
-16 9 0 16 -8 16 -20 0 -17 -7 -20 -41 -20 -47 0 -69 18 -69 54 0 30 -23 35
-48 9 -12 -12 -13 -18 -4 -21 6 -2 12 -19 12 -38 0 -26 -4 -34 -18 -34 -22 0
-72 -22 -72 -32 0 -5 -7 -8 -15 -8 -8 0 -15 5 -15 10 0 6 -9 10 -20 10 -11 0
-20 5 -20 10 0 6 -11 10 -24 10 -14 0 -31 7 -40 15 -23 24 -32 21 -81 -23 -7
-6 -20 -12 -29 -12 -8 0 -18 -9 -21 -20 -3 -11 -11 -20 -16 -20 -5 0 -9 -7 -9
-15 0 -9 -9 -15 -22 -16 l-23 0 23 -11 c17 -9 22 -20 22 -49 0 -37 -1 -38 -45
-45 -25 -3 -45 -10 -45 -15 0 -5 -8 -9 -18 -9 -10 0 -24 -9 -32 -20 -12 -16
-26 -20 -72 -20 -58 0 -58 0 -58 30 0 30 -1 30 -55 30 -42 0 -55 3 -55 15 0 8
-4 15 -10 15 -14 0 -12 38 2 42 9 3 8 9 -4 21 -18 19 -48 23 -48 7 0 -15 -19
-12 -36 4 -20 20 -19 22 31 72 40 39 45 49 45 90 0 40 -16 74 -35 74 -3 0 -17
11 -31 25 -30 30 -44 25 -44 -16 0 -22 -5 -29 -19 -29 -10 0 -24 -7 -31 -15
-14 -17 -40 -20 -40 -6 0 5 -9 13 -21 16 -14 5 -19 13 -16 26 4 14 0 19 -17
19 -19 0 -21 -4 -18 -40 4 -42 -13 -70 -42 -70 -9 0 -16 -4 -16 -10 0 -5 -20
-10 -45 -10 -37 0 -45 3 -45 18 0 25 -19 42 -47 42 -18 0 -23 6 -23 25 0 17 5
25 18 25 10 0 24 9 32 20 8 11 18 20 23 20 19 0 87 68 87 86 0 17 23 44 37 44
5 0 15 -9 23 -20 27 -38 55 -15 51 43 l-3 27 101 0 c61 0 101 4 101 10 0 6 12
10 26 10 29 0 53 19 46 38 -2 6 1 12 7 12 6 0 11 9 11 20 0 15 7 20 26 20 34
0 63 28 43 41 -8 5 -20 9 -27 9 -22 0 -42 27 -42 54 0 19 5 26 19 26 11 0 22
-6 25 -12 5 -10 7 -10 12 0 3 7 24 12 50 12 32 0 44 4 44 15 0 8 5 15 10 15 6
0 10 5 10 10 0 6 -23 10 -51 10 -30 0 -56 6 -65 14 -21 21 -18 69 6 86 21 15
28 50 10 50 -5 0 -10 5 -10 11 0 14 -25 39 -39 39 -6 0 -11 5 -11 10 0 6 -5
10 -11 10 -13 0 -49 -38 -49 -52 0 -15 -100 -108 -116 -108 -8 0 -14 -4 -14
-10 0 -15 -26 -12 -40 5 -7 8 -28 15 -46 15 -19 0 -34 5 -34 10 0 6 -18 10
-40 10 -22 0 -40 -4 -40 -10 0 -5 -9 -10 -20 -10 -11 0 -20 -7 -20 -15 0 -9
-9 -15 -25 -15 -16 0 -25 6 -25 15 0 20 -53 20 -70 0 -7 -8 -19 -15 -26 -15
-8 0 -14 -7 -14 -16 0 -23 -60 -74 -87 -74 -13 0 -23 5 -23 10 0 6 -9 10 -21
10 -14 0 -19 5 -16 13 3 8 -3 20 -14 28 -27 19 -24 65 6 94 26 27 55 33 56 13
0 -10 2 -10 6 0 3 7 23 12 49 12 24 0 44 5 44 10 0 6 19 10 43 10 31 0 46 -5
57 -20 20 -28 30 -25 30 10 0 17 5 30 10 30 6 0 10 7 10 15 0 8 4 15 8 15 12
0 7 53 -6 58 -7 2 -12 -1 -12 -7 0 -6 -5 -11 -11 -11 -16 0 -39 -26 -39 -44 0
-19 5 -18 -170 -21 -87 -2 -136 -7 -138 -14 -2 -6 -12 -11 -23 -11 -26 0 -57
-19 -93 -55 -27 -28 -32 -30 -101 -28 -77 3 -115 -14 -115 -51 0 -9 -4 -16
-10 -16 -5 0 -7 -7 -4 -15 4 -8 1 -15 -5 -15 -6 0 -11 -9 -11 -20 0 -17 -7
-20 -45 -20 -38 0 -45 3 -45 19 0 11 -9 23 -20 26 -11 3 -20 11 -20 16 0 5 -9
9 -21 9 -19 0 -20 5 -17 100 l3 100 -33 0 c-31 0 -33 2 -30 33 2 26 8 33 28
35 14 2 29 8 34 13 6 5 20 9 33 9 13 0 23 5 23 10 0 6 9 10 21 10 15 0 19 4
15 16 -4 11 1 18 14 21 11 3 20 9 20 13 0 4 13 10 30 14 27 5 30 9 30 45 0 25
5 41 15 45 8 3 15 15 15 26 0 18 -6 20 -55 20 -48 0 -55 2 -55 20 0 13 7 20
20 20 11 0 20 4 20 9 0 5 9 13 20 16 14 4 20 15 20 36 0 16 4 29 10 29 5 0 7
7 4 15 -4 10 0 15 15 15 12 0 21 5 21 10 0 6 14 10 30 10 17 0 30 5 30 10 0 6
6 10 13 10 7 0 19 9 27 20 11 15 26 20 57 20 24 0 43 5 43 10 0 6 17 10 39 10
29 0 43 6 57 25 10 14 27 25 36 25 10 0 18 5 18 10 0 6 10 10 22 10 12 0 18 3
14 8 -4 4 14 12 41 19 l48 11 -42 1 c-23 1 -48 8 -57 16 -8 8 -32 15 -55 15
-23 0 -41 5 -41 10 0 6 -9 10 -20 10 -28 0 -26 35 5 66 14 14 25 29 25 34 0 6
9 10 20 10 11 0 20 5 20 10 0 6 33 10 80 10 47 0 80 -4 80 -10 0 -6 28 -10 65
-10 37 0 65 4 65 10 0 6 9 10 20 10 11 0 20 5 20 10 0 6 7 10 15 10 8 0 15 -4
15 -10 0 -5 9 -10 20 -10 11 0 20 -4 20 -10 0 -5 7 -10 15 -10 8 0 15 -4 15
-10 0 -5 12 -10 26 -10 16 0 34 -10 46 -25 11 -14 28 -25 39 -25 10 0 19 -4
19 -10 0 -5 11 -10 25 -10 14 0 25 -4 25 -10 0 -6 41 -10 104 -10 101 0 105
-1 108 -22 2 -14 11 -24 23 -25 11 -2 14 0 8 3 -17 8 -16 32 1 50 17 16 66 19
66 4 0 -5 18 -10 40 -10 22 0 40 -4 40 -10 0 -5 8 -10 18 -10 16 1 16 1 0 14
-26 19 -22 63 7 91 13 14 27 25 31 25 4 0 15 9 25 21 12 14 32 21 63 23 24 2
52 10 60 19 20 19 21 64 2 83 -20 20 -96 19 -96 -1 0 -8 -9 -15 -20 -15 -11 0
-20 -4 -20 -10 0 -5 -11 -10 -25 -10 -14 0 -25 5 -25 10 0 6 -9 10 -20 10 -11
0 -20 -4 -20 -10 0 -5 -20 -10 -45 -10 -25 0 -45 -4 -45 -10 0 -15 -39 -12
-56 4 -9 10 -14 36 -14 75 0 55 -12 81 -22 49 -3 -8 -12 -8 -36 3 -25 11 -32
20 -32 42 0 16 -6 35 -14 43 -17 16 -66 19 -66 4 0 -5 -20 -10 -45 -10 -41 0
-45 2 -45 25 0 14 5 25 10 25 6 0 10 13 10 29 0 31 -27 62 -38 45 -4 -6 -22
-17 -39 -25 -18 -8 -33 -17 -33 -21 0 -5 -16 -8 -35 -8 -33 0 -35 2 -35 35 0
19 -4 35 -10 35 -5 0 -10 18 -10 40 0 29 -5 43 -20 52 -24 15 -27 58 -4 58 8
0 23 7 31 16 23 23 2 34 -64 34 -41 0 -53 -4 -53 -15 0 -12 -13 -15 -70 -14
-66 1 -102 -8 -72 -18 7 -3 12 -23 12 -49 0 -40 -2 -44 -24 -44 -13 0 -26 -6
-29 -12 -3 -10 -9 -10 -26 0 -11 6 -30 12 -41 12 -15 0 -20 7 -20 25 0 14 5
25 10 25 6 0 10 9 10 19 0 11 6 22 13 25 10 5 10 7 0 12 -7 3 -13 13 -13 21 0
21 -68 8 -91 -18 -21 -25 -39 -24 -39 1 0 11 -4 20 -10 20 -5 0 -10 7 -10 15
0 8 -4 15 -10 15 -5 0 -10 20 -10 45 0 25 5 45 10 45 6 0 10 9 10 20 0 11 5
20 10 20 6 0 10 9 10 19 0 11 9 23 20 26 11 3 23 18 27 33 7 30 26 52 43 52
14 0 40 25 40 39 0 6 4 11 8 11 5 0 7 25 4 55 -3 37 -1 55 7 55 6 0 11 14 11
30 0 17 4 30 10 30 5 0 20 11 34 25 22 22 34 25 95 25 60 0 70 3 76 19 5 16
17 21 58 23 l52 3 3 43 c2 28 8 42 18 42 8 0 14 -4 14 -10 0 -5 5 -10 11 -10
14 0 40 26 33 33 -3 3 4 8 15 12 12 3 21 15 21 26 0 26 16 24 46 -6 14 -14 29
-25 33 -25 19 0 51 40 51 64 0 14 5 26 10 26 6 0 10 7 10 15 0 11 12 15 45 15
25 0 45 5 45 10 0 6 16 10 35 10 19 0 35 -4 35 -9 0 -10 214 -20 290 -14 l55
5 0 44 c0 35 -4 44 -17 44 -10 0 -18 5 -18 10 0 6 -23 10 -51 10 -52 0 -79 15
-79 44 0 9 5 16 10 16 6 0 10 11 10 25 0 16 -6 25 -15 25 -8 0 -15 5 -15 10 0
6 -9 10 -20 10 -17 0 -20 7 -20 45 0 46 -14 61 -23 25 -4 -16 -14 -20 -51 -20
-32 0 -48 -5 -52 -15 -4 -9 -19 -15 -36 -15 -23 0 -29 4 -24 15 3 8 1 15 -4
15 -6 0 -10 18 -10 40 0 38 -2 40 -30 40 -16 0 -30 -4 -30 -10 0 -5 -16 -10
-35 -10 -19 0 -35 -4 -35 -10 0 -5 -11 -10 -25 -10 -14 0 -25 5 -25 10 0 6 -9
10 -20 10 -17 0 -20 7 -20 45 0 25 5 45 10 45 6 0 10 6 10 14 0 19 76 96 95
96 8 0 15 5 15 10 0 6 5 10 11 10 11 0 39 25 39 35 0 3 20 26 45 50 29 30 53
45 70 45 14 0 25 -4 25 -10 0 -5 12 -10 26 -10 29 0 54 -21 54 -44 0 -13 13
-16 66 -16 45 0 70 -5 80 -15 9 -8 24 -15 35 -15 10 0 19 -4 19 -10 0 -5 7
-10 15 -10 8 0 15 -4 15 -10 0 -6 35 -10 85 -10 50 0 85 4 85 10 0 6 25 10 55
10 30 0 55 5 55 10 0 6 8 10 18 10 11 0 27 9 36 19 17 19 17 21 -1 45 -24 34
-42 32 -50 -4 -3 -16 -9 -30 -14 -30 -5 0 -9 -7 -9 -15 0 -12 -13 -15 -55 -15
l-55 0 0 45 c0 25 5 45 10 45 6 0 10 5 10 11 0 6 12 23 28 37 31 31 35 60 10
83 -28 25 -25 126 3 150 l22 19 -24 9 c-20 7 -29 3 -51 -20 -16 -16 -28 -35
-28 -43 0 -16 -44 -26 -109 -25 -40 1 -110 15 -88 18 15 2 -21 31 -37 31 -9 0
-16 8 -16 20 0 11 -4 20 -10 20 -5 0 -10 7 -10 15 0 8 5 15 10 15 6 0 10 9 10
20 0 15 7 20 25 20 14 0 25 5 25 10 0 6 9 10 20 10 11 0 20 5 20 11 0 14 18
31 53 49 25 12 30 12 38 0 8 -12 12 -12 16 -2 2 6 13 12 23 12 10 0 22 10 26
22 10 33 29 48 61 48 31 0 73 38 73 65 0 11 12 15 45 15 25 0 45 -4 45 -10 0
-5 7 -10 16 -10 18 0 44 23 44 39 0 6 7 11 15 11 8 0 15 5 15 10 0 6 12 10 26
10 15 0 34 8 43 19 9 10 26 21 39 25 12 4 22 12 22 17 0 5 9 9 20 9 11 0 20 5
20 10 0 24 82 4 102 -25 5 -6 12 -5 20 3 6 6 22 12 35 12 13 0 23 5 23 10 0 6
75 10 205 10 130 0 205 -4 205 -10 0 -5 7 -10 16 -10 8 0 21 -6 28 -12 8 -7
23 -20 35 -28 14 -10 21 -25 21 -47 0 -17 4 -34 10 -38 5 -3 7 -12 3 -20 -3
-8 0 -15 6 -15 6 0 11 -13 11 -28 0 -24 -6 -30 -37 -39 -34 -10 -36 -11 -15
-18 16 -5 22 -15 22 -35 0 -44 9 -62 25 -47 7 7 11 15 8 19 -2 4 7 19 21 33
20 20 35 25 76 25 37 0 50 4 50 14 0 8 -4 18 -10 21 -5 3 -10 22 -10 41 0 19
-4 34 -10 34 -5 0 -10 11 -10 25 0 16 6 25 15 25 16 0 65 43 65 56 0 22 46 54
77 54 18 0 33 5 33 10 0 6 20 10 45 10 25 0 45 5 45 10 0 6 9 10 21 10 11 0
18 4 15 9 -7 11 17 21 50 21 13 0 24 5 24 10 0 6 7 10 15 10 8 0 15 9 15 20 0
18 -7 20 -55 20 l-55 0 0 33 c0 21 7 38 20 47 11 8 20 22 20 32 0 10 10 20 24
24 13 3 33 17 45 30 16 19 31 24 65 24 26 0 51 -6 60 -15z m-228 -29 c19 -20
18 -24 -14 -54 -17 -18 -26 -35 -24 -49 2 -13 -1 -23 -7 -23 -6 0 -11 -9 -11
-20 0 -13 -7 -20 -20 -20 -11 0 -20 -4 -20 -10 0 -5 -16 -10 -35 -10 l-35 0 0
83 0 83 33 16 c42 20 114 22 133 4z"/>
<path d="M3400 6993 c0 -6 -14 -16 -30 -22 -17 -5 -33 -17 -36 -26 -3 -8 -13
-15 -21 -15 -31 0 -43 -27 -43 -99 0 -41 4 -71 10 -71 6 0 10 -17 11 -37 0
-21 3 -32 6 -25 2 6 9 12 15 12 15 0 38 27 38 44 0 9 -4 16 -10 16 -5 0 -10
20 -10 45 0 25 4 45 10 45 8 0 36 26 68 64 6 8 12 23 12 33 0 20 -20 55 -20
36z"/>
<path d="M5908 6790 c-2 -6 -27 -13 -56 -17 -28 -3 -52 -9 -52 -12 0 -3 -15
-13 -32 -20 -37 -16 -88 -66 -88 -86 0 -7 -5 -15 -11 -17 -5 -2 -7 -11 -4 -21
5 -12 18 -17 46 -17 21 0 39 -3 39 -8 0 -18 67 -33 170 -36 111 -4 112 -4 137
-35 18 -22 35 -31 56 -31 19 0 38 -9 53 -25 21 -23 31 -25 104 -25 47 0 80 -4
80 -10 0 -5 7 -10 15 -10 8 0 15 -5 15 -11 0 -6 13 3 29 20 29 31 51 40 51 21
0 -5 18 -10 41 -10 24 0 38 4 34 10 -3 6 3 10 14 10 27 0 32 11 15 35 -8 10
-14 13 -14 7 0 -7 -15 -12 -35 -12 l-35 0 0 55 c0 30 -4 55 -10 55 -5 0 -10
14 -10 30 0 36 57 100 90 100 11 0 20 5 20 10 0 6 9 10 20 10 22 0 28 19 8 21
-36 4 -114 -4 -122 -12 -6 -5 -25 -9 -43 -9 -18 0 -33 -4 -33 -10 0 -5 -11
-10 -25 -10 -14 0 -25 4 -25 9 0 7 -28 19 -49 21 -3 0 -5 -11 -6 -25 0 -14 3
-25 7 -25 4 0 8 -9 8 -20 0 -16 -7 -20 -35 -20 -19 0 -35 5 -35 10 0 6 -7 10
-15 10 -8 0 -15 5 -15 10 0 6 -13 10 -30 10 -26 0 -30 3 -30 29 l0 29 -97 4
c-63 3 -98 8 -101 16 -5 15 -39 16 -44 2z"/>
<path d="M5271 6303 c-1 -7 -8 -13 -16 -13 -8 0 -15 -6 -15 -14 0 -8 -6 -17
-12 -19 -10 -4 -10 -6 0 -6 19 -1 14 -25 -8 -39 -11 -7 -20 -18 -19 -25 0 -9
2 -9 6 1 6 16 41 15 59 -2 16 -16 19 -96 4 -96 -5 0 -10 -4 -10 -10 0 -5 20
-10 45 -10 31 0 47 -5 51 -15 4 -8 15 -15 25 -15 10 0 19 -4 19 -10 0 -5 13
-10 29 -10 21 0 32 -6 36 -20 3 -11 15 -20 25 -20 10 0 21 -6 24 -12 5 -10 7
-10 12 0 3 6 19 12 35 12 16 0 29 5 29 10 0 6 14 10 31 10 30 0 59 -19 59 -39
0 -6 7 -11 15 -11 8 0 15 -4 15 -10 0 -5 8 -10 19 -10 13 0 21 -10 26 -32 4
-18 9 -27 12 -20 2 6 14 12 25 12 15 0 18 5 13 20 -5 16 -2 20 19 20 14 0 27
4 30 9 4 5 -28 13 -71 16 -61 6 -81 12 -100 31 -13 13 -23 30 -23 39 0 8 -4
15 -10 15 -5 0 -10 11 -10 25 0 14 5 25 10 25 6 0 10 14 10 30 0 22 10 41 35
66 42 42 47 74 10 74 -21 0 -25 -5 -25 -30 0 -16 -4 -30 -10 -30 -5 0 -10 -9
-10 -19 0 -10 -7 -22 -16 -25 -29 -11 -93 -6 -108 9 -8 8 -24 15 -35 15 -12 0
-21 5 -21 10 0 6 -13 10 -30 10 -16 0 -30 -4 -30 -10 0 -5 -14 -10 -31 -10
-17 0 -28 -4 -24 -10 4 -6 -7 -10 -25 -10 -17 0 -29 4 -26 9 3 5 -1 11 -9 15
-20 7 -19 50 1 81 15 24 15 25 -4 25 -11 0 -23 6 -25 13 -4 10 -6 10 -6 0z"/>
<path d="M2542 6150 c-12 -5 -25 -16 -28 -25 -4 -8 -13 -15 -21 -15 -25 0 -58
-43 -58 -77 0 -31 2 -33 37 -33 21 0 38 -4 38 -10 0 -5 14 -10 30 -10 26 0 31
5 37 30 3 17 9 30 14 30 5 0 9 7 9 15 0 8 5 15 10 15 18 0 11 35 -10 50 -11 8
-20 20 -20 27 0 15 -6 15 -38 3z"/>
<path d="M3462 5855 c-8 -10 -32 -15 -68 -15 -64 0 -84 -14 -84 -59 l0 -30 73
6 c39 3 74 9 77 13 3 4 20 13 38 21 27 12 32 19 32 46 0 29 -3 33 -27 33 -16
-1 -34 -7 -41 -15z"/>
<path d="M4170 4960 c-8 -11 -20 -20 -27 -20 -7 0 -13 -11 -13 -25 0 -14 -4
-25 -10 -25 -5 0 -10 -23 -10 -51 0 -41 5 -55 29 -81 32 -34 61 -33 61 2 0 11
5 20 10 20 6 0 10 14 10 30 0 17 5 30 10 30 6 0 10 7 10 15 0 8 -4 15 -10 15
-5 0 -10 25 -10 55 0 46 -3 55 -18 55 -10 0 -24 -9 -32 -20z"/>
<path d="M4413 4855 c-7 -8 -13 -37 -13 -65 0 -27 -4 -50 -10 -50 -5 0 -10
-11 -10 -25 0 -14 -3 -25 -7 -25 -9 0 -7 -125 3 -157 3 -13 10 -23 15 -23 5 0
9 -7 9 -16 0 -18 23 -44 40 -44 32 0 40 29 40 141 0 100 2 114 20 129 18 16
18 18 4 24 -12 5 -15 17 -12 56 3 49 2 50 -24 50 -16 0 -28 5 -28 10 0 14 -13
12 -27 -5z"/>
<path d="M3850 4790 c0 -5 -7 -10 -15 -10 -8 0 -15 -9 -15 -20 0 -11 -4 -20
-10 -20 -5 0 -10 -10 -10 -23 0 -12 -9 -29 -19 -36 -11 -8 -17 -20 -14 -28 3
-7 0 -13 -6 -13 -6 0 -11 -9 -11 -20 0 -11 -4 -20 -10 -20 -17 0 -12 -126 5
-140 26 -21 109 -25 127 -6 9 9 21 16 27 16 6 0 11 5 11 10 0 6 14 10 31 10
30 0 31 -2 27 -35 -3 -28 -1 -35 13 -35 10 0 20 -6 22 -12 4 -10 6 -10 6 0 1
18 108 16 127 -2 16 -17 19 -66 4 -66 -5 0 -10 -7 -10 -15 0 -8 -4 -15 -10
-15 -5 0 -10 -7 -10 -16 0 -9 -8 -23 -17 -30 -17 -13 -17 -13 0 -14 9 0 17 -4
17 -10 0 -5 9 -10 20 -10 13 0 20 7 20 20 0 11 5 20 10 20 6 0 10 7 10 16 0 8
17 31 38 51 23 22 32 38 25 40 -7 3 -13 13 -13 24 0 10 -4 19 -10 19 -5 0 -10
11 -10 24 0 14 -7 31 -15 40 -8 8 -15 31 -15 51 0 27 -8 44 -35 71 -48 47 -84
54 -118 20 -31 -31 -47 -33 -47 -7 0 21 -19 31 -57 31 -13 0 -31 6 -39 14 -16
17 -19 46 -3 46 5 0 7 4 4 10 -3 5 6 20 21 33 16 14 24 29 20 35 -9 15 -66 16
-66 2z"/>
<path d="M3374 4747 c-6 -7 -9 -18 -6 -25 2 -6 -1 -12 -7 -12 -6 0 -11 -14
-11 -31 0 -39 -20 -59 -59 -59 l-31 0 0 60 c0 56 -2 60 -22 59 -13 0 -17 -3
-10 -6 16 -6 16 -83 0 -83 -9 0 -9 -3 0 -12 7 -7 12 -22 12 -35 0 -13 5 -23
11 -23 6 0 9 -6 6 -14 -7 -17 37 -56 63 -56 11 0 20 -4 20 -10 0 -6 30 -10 70
-10 40 0 70 4 70 10 0 6 7 10 15 10 8 0 15 5 15 10 0 6 9 10 20 10 17 0 20 7
20 45 0 25 5 45 10 45 6 0 10 20 10 45 0 25 -4 45 -10 45 -5 0 -10 7 -10 15 0
11 -12 15 -45 15 -25 0 -45 5 -45 10 0 14 -73 12 -86 -3z"/>
<path d="M4660 4725 c0 -8 -4 -15 -10 -15 -5 0 -10 -20 -10 -45 0 -25 -4 -45
-10 -45 -6 0 -10 -32 -10 -75 0 -43 4 -75 10 -75 15 0 12 -87 -2 -94 -10 -5
-10 -7 0 -12 6 -3 12 -12 12 -20 0 -8 5 -14 11 -14 5 0 7 -4 4 -10 -4 -6 5
-10 19 -10 14 0 26 5 26 10 0 6 7 10 15 10 24 0 20 66 -6 83 -17 12 -20 24
-18 61 2 25 0 48 -4 52 -10 10 -9 54 2 54 4 0 6 11 4 24 -3 13 0 27 6 30 6 4
11 27 11 51 0 25 5 45 13 48 6 3 -5 6 -25 6 -28 1 -38 -3 -38 -14z"/>
<path d="M2850 4534 c-13 -13 -30 -24 -37 -24 -7 0 -13 -4 -13 -10 0 -5 -9
-10 -20 -10 -11 0 -20 -4 -20 -10 0 -5 18 -10 41 -10 36 0 69 -17 69 -35 0 -4
6 -13 14 -21 17 -16 116 -20 116 -4 0 14 27 12 33 -2 4 -10 6 -10 6 0 1 7 14
12 31 12 17 0 30 4 30 10 0 5 16 12 35 16 19 3 35 11 35 16 0 5 10 7 23 3 19
-5 20 -4 5 5 -10 6 -18 18 -18 25 0 8 -6 15 -14 15 -8 0 -16 5 -18 12 -5 14
-121 12 -126 -2 -5 -14 -61 -12 -77 3 -51 45 -59 46 -95 11z"/>
<path d="M5253 4495 c-7 -8 -13 -23 -13 -35 0 -11 -4 -20 -10 -20 -5 0 -10 -7
-10 -16 0 -16 -23 -44 -36 -44 -3 0 -14 8 -23 18 -21 22 -57 42 -76 42 -32 0
-85 -40 -85 -64 0 -9 -4 -16 -10 -16 -5 0 -7 -7 -4 -15 4 -8 1 -15 -5 -15 -6
0 -11 -9 -11 -20 0 -11 -4 -20 -10 -20 -5 0 -10 -15 -10 -34 0 -19 -6 -37 -12
-40 -10 -5 -10 -7 0 -12 6 -3 12 -19 12 -35 0 -22 5 -29 20 -29 11 0 20 5 20
10 0 6 5 10 10 10 21 0 60 49 60 76 0 16 11 36 30 54 16 15 27 30 24 33 -3 3
12 8 34 12 21 3 45 15 52 26 15 20 40 26 40 9 0 -5 6 -10 14 -10 7 0 19 -7 26
-15 7 -8 21 -15 31 -15 11 0 19 -4 19 -10 0 -5 20 -10 44 -10 26 0 46 -5 49
-12 4 -10 6 -10 6 0 1 6 6 12 12 12 25 0 39 30 39 84 0 31 -4 56 -10 56 -5 0
-10 14 -10 30 0 17 -4 30 -10 30 -5 0 -10 -4 -10 -10 0 -6 -30 -10 -70 -10
-40 0 -70 4 -70 10 0 15 -33 11 -47 -5z"/>
<path d="M6040 4320 c0 -5 -20 -10 -45 -10 -25 0 -45 -4 -45 -10 0 -5 -9 -10
-20 -10 -27 0 -26 -31 1 -50 40 -28 69 -64 69 -87 0 -10 -16 -35 -35 -55 -19
-20 -35 -43 -35 -52 0 -8 -10 -16 -21 -18 -12 -2 -26 -13 -30 -25 -8 -21 -6
-23 31 -23 33 0 40 -3 40 -20 0 -11 5 -20 10 -20 6 0 10 -11 10 -25 0 -14 -4
-25 -10 -25 -5 0 -10 -7 -10 -16 0 -9 -10 -25 -22 -36 l-23 -20 75 8 c41 4 77
11 78 15 2 5 17 9 33 9 22 0 30 6 35 24 3 14 1 33 -5 43 -6 10 -11 12 -11 6 0
-15 -50 -18 -50 -3 0 6 -9 10 -20 10 -15 0 -20 7 -20 25 0 14 5 25 10 25 6 0
10 9 10 21 0 32 25 49 69 49 34 0 41 3 41 20 0 16 -7 20 -35 20 -19 0 -35 5
-35 10 0 6 -9 10 -20 10 -16 0 -20 7 -20 35 0 28 4 35 20 35 11 0 20 5 20 10
0 6 14 10 31 10 17 0 37 6 45 14 7 8 19 16 26 19 9 3 6 11 -9 24 -13 11 -23
28 -23 37 0 9 -6 16 -14 16 -8 0 -17 6 -19 13 -4 10 -6 10 -6 0 -1 -15 -31
-18 -31 -3 0 6 -9 10 -20 10 -11 0 -20 -4 -20 -10z"/>
<path d="M3967 4075 c5 -32 3 -36 -26 -46 -19 -7 -31 -18 -31 -29 0 -10 -6
-21 -12 -23 -9 -4 -10 -8 -3 -14 6 -4 16 -19 22 -33 6 -14 12 -19 12 -12 1 6
10 12 21 12 29 0 58 36 52 65 -3 20 0 25 17 25 18 0 21 6 21 45 l0 45 -39 0
-40 0 6 -35z"/>
<path d="M4238 3732 c-10 -2 -18 -8 -18 -13 0 -5 -9 -9 -20 -9 -11 0 -20 -4
-20 -10 0 -5 -16 -10 -35 -10 -19 0 -35 -4 -35 -10 0 -5 6 -10 14 -10 8 0 17
-6 19 -12 4 -10 6 -10 6 0 1 8 19 12 56 12 l55 0 0 -64 c0 -56 -3 -66 -20 -71
-28 -9 -25 -25 5 -25 14 0 25 -4 25 -10 0 -5 14 -10 30 -10 17 0 30 -4 30 -10
0 -5 18 -10 40 -10 22 0 40 5 40 10 0 6 9 10 21 10 11 0 27 6 35 14 8 8 14 24
14 35 0 12 3 21 8 21 4 0 7 24 7 52 0 41 -5 58 -22 76 -12 12 -29 22 -38 22
-8 0 -15 5 -15 10 0 6 -7 10 -16 10 -16 0 -34 -16 -64 -59 -8 -12 -25 -21 -37
-21 -20 0 -23 5 -23 39 0 40 -11 51 -42 43z"/>
<path d="M5077 3614 c-8 -8 18 -34 33 -34 16 0 37 -23 42 -46 2 -11 13 -20 26
-22 12 -2 22 -8 22 -13 0 -5 15 -9 33 -9 21 0 38 -7 47 -20 10 -14 26 -20 52
-20 21 0 38 5 38 10 0 6 7 10 15 10 8 0 15 -9 15 -20 0 -12 7 -20 16 -20 20 0
44 24 44 44 0 9 5 16 10 16 6 0 10 25 10 55 0 54 0 55 -30 55 -16 0 -30 -4
-30 -10 0 -5 -16 -10 -35 -10 -19 0 -35 -4 -35 -10 0 -18 -45 -10 -60 10 -8
11 -22 20 -32 20 -10 0 -18 5 -18 10 0 11 -152 14 -163 4z"/>
<path d="M5070 3204 c-9 -9 -13 -37 -11 -75 2 -37 -2 -59 -8 -59 -6 0 -11 -9
-11 -20 0 -11 -4 -20 -10 -20 -5 0 -10 -16 -10 -35 0 -19 5 -35 10 -35 24 0 6
-44 -35 -86 -25 -24 -45 -49 -45 -53 0 -29 15 -41 49 -41 28 0 38 5 46 23 6
12 20 23 33 25 12 2 22 8 22 13 0 5 16 9 35 9 19 0 35 5 35 10 0 6 -7 10 -16
10 -32 0 -45 27 -42 87 l3 58 42 10 c23 6 51 20 63 32 20 23 28 83 10 83 -5 0
-10 9 -10 20 0 16 -7 20 -33 20 -21 0 -38 7 -47 20 -17 24 -52 26 -70 4z"/>
<path d="M4878 3178 c-13 -16 -18 -40 -18 -85 0 -35 -4 -63 -10 -63 -5 0 -10
-20 -10 -45 0 -25 -4 -45 -10 -45 -15 0 -12 -19 5 -36 12 -13 17 -12 39 7 13
12 22 28 19 35 -3 8 0 14 6 14 6 0 11 9 11 19 0 11 6 22 13 25 10 5 10 7 0 12
-15 7 -17 34 -3 34 6 0 10 14 10 30 0 17 5 30 10 30 6 0 10 20 10 45 0 42 -2
45 -27 45 -17 0 -35 -9 -45 -22z"/>
<path d="M4470 3170 c0 -5 -5 -10 -10 -10 -6 0 -21 -10 -34 -22 -13 -13 -32
-29 -42 -36 -25 -17 -26 -90 -1 -113 11 -11 17 -31 17 -58 0 -34 3 -41 20 -41
11 0 20 -4 20 -10 0 -5 7 -10 15 -10 8 0 15 -4 15 -10 0 -5 6 -10 13 -10 21 0
16 141 -5 161 -24 22 -23 26 12 59 16 15 26 30 23 34 -3 3 -1 6 5 6 17 0 15
39 -2 56 -17 16 -46 19 -46 4z"/>
<path d="M4845 2560 c-11 -33 -7 -124 6 -128 5 -2 9 -8 9 -14 0 -5 7 -16 15
-24 12 -13 17 -12 35 3 11 10 20 24 20 31 0 8 14 27 30 42 17 15 30 33 30 39
0 6 5 11 11 11 10 0 49 37 49 46 0 6 -85 -10 -88 -17 -5 -13 -62 -11 -62 1 0
6 -9 10 -19 10 -11 0 -21 6 -24 13 -2 6 -8 1 -12 -13z"/>
</g>
</svg>
