<?xml version="1.0" standalone="no"?>
<!DOCTYPE svg PUBLIC "-//W3C//DTD SVG 20010904//EN"
 "http://www.w3.org/TR/2001/REC-SVG-20010904/DTD/svg10.dtd">
<svg version="1.0" xmlns="http://www.w3.org/2000/svg"
 width="1000.000000pt" height="981.000000pt" viewBox="0 0 1000.000000 981.000000"
 preserveAspectRatio="xMidYMid meet">
<metadata>
Created by potrace 1.13, written by Peter Selinger 2001-2015
</metadata>
<g transform="translate(0.000000,981.000000) scale(0.100000,-0.100000)"
fill="#000000" stroke="none">
<path d="M0 4905 l0 -4905 5000 0 5000 0 0 4905 0 4905 -5000 0 -5000 0 0
-4905z m4684 4230 c5 -20 13 -25 36 -25 32 0 36 -9 19 -41 -17 -33 -5 -50 25
-36 13 6 22 15 20 18 -4 8 20 19 42 19 19 0 18 -39 -1 -46 -22 -9 -18 -24 5
-24 11 0 28 9 37 20 21 24 43 26 43 5 0 -24 14 -17 32 15 23 40 45 39 43 -2
-1 -22 5 -39 21 -55 28 -28 40 -29 54 -3 14 26 26 25 35 -2 21 -62 23 -64 24
-27 1 38 24 93 34 83 3 -3 3 3 0 15 -6 25 3 27 24 5 14 -13 14 -21 5 -48 -7
-18 -12 -52 -12 -75 0 -38 2 -42 20 -36 24 8 26 -2 3 -27 -15 -17 -15 -18 5
-18 13 0 22 -6 22 -16 0 -23 -55 -74 -79 -74 -13 0 -21 -6 -21 -16 0 -9 -6
-28 -14 -42 -8 -15 -17 -43 -21 -63 -3 -21 -12 -43 -20 -49 -9 -8 -13 -21 -9
-32 4 -15 1 -19 -12 -16 -11 2 -20 -4 -22 -16 -2 -10 -13 -28 -24 -40 -11 -12
-24 -29 -29 -38 -7 -14 -6 -16 6 -12 8 4 15 12 15 20 0 8 5 14 11 14 14 0 2
-61 -15 -75 -9 -7 -11 -50 -9 -154 1 -79 5 -146 7 -148 3 -3 50 87 56 107 12
45 16 80 9 80 -17 0 -9 20 9 21 16 1 16 2 0 6 -24 6 -23 19 2 26 26 7 29 66 4
63 -9 0 -19 5 -22 13 -3 10 0 11 9 5 12 -6 12 -5 1 8 -10 13 -10 26 -1 65 11
43 33 90 50 103 3 3 16 38 28 78 16 55 26 72 37 68 8 -3 14 1 14 9 0 8 7 15
15 15 19 0 19 -13 1 -48 -20 -40 -28 -82 -16 -82 5 0 10 9 10 19 0 11 5 23 10
26 6 3 10 15 10 26 0 19 21 49 34 49 3 0 6 -7 6 -15 0 -8 5 -15 11 -15 5 0 7
5 4 10 -3 6 -1 10 4 10 16 0 5 -68 -14 -86 -8 -8 -15 -25 -15 -37 0 -20 0 -20
15 -1 8 10 15 25 15 33 0 7 6 11 14 8 10 -4 13 -1 10 7 -3 7 2 20 10 29 9 9
16 20 16 26 0 6 5 11 10 11 13 0 13 -13 -2 -45 -10 -22 -9 -28 8 -41 13 -11
15 -17 7 -20 -7 -3 -13 -16 -13 -30 0 -30 -19 -113 -32 -138 -6 -11 -6 -16 0
-12 6 3 12 -1 16 -9 6 -17 -2 -45 -14 -45 -4 0 -14 -20 -21 -45 -10 -34 -22
-51 -47 -65 -43 -26 -56 -59 -32 -83 17 -18 19 -18 71 10 136 74 145 85 141
174 -1 40 4 71 18 105 l21 47 -23 24 c-14 16 -19 27 -12 31 6 4 14 19 18 35 5
20 3 27 -9 27 -8 0 -15 5 -15 10 0 6 7 10 16 10 9 0 22 6 28 14 14 18 56 31
56 17 0 -6 -5 -11 -11 -11 -5 0 -7 -4 -4 -10 3 -5 1 -19 -5 -30 -7 -14 -7 -20
0 -20 6 0 14 10 19 23 5 13 16 29 25 36 9 7 16 21 16 30 0 19 48 66 58 56 4
-3 1 -10 -6 -14 -7 -4 -10 -15 -6 -24 4 -13 2 -16 -9 -12 -17 7 -29 -28 -21
-61 3 -12 -1 -27 -8 -35 -7 -8 -19 -26 -27 -41 -8 -16 -18 -28 -22 -28 -4 0
-11 -21 -14 -47 -4 -27 -9 -55 -12 -63 -4 -8 -5 -21 -4 -27 1 -7 -3 -22 -9
-33 -15 -28 4 -26 34 5 16 16 23 31 19 41 -8 21 16 15 30 -8 10 -15 7 -21 -55
-88 -16 -16 -28 -34 -28 -39 0 -6 -6 -14 -12 -18 -7 -4 -13 -12 -13 -18 -1
-27 -28 -154 -41 -188 -19 -52 -17 -81 3 -39 9 17 20 32 25 32 4 0 5 18 2 40
-5 33 -4 40 10 40 20 0 32 -48 17 -71 -6 -10 -11 -28 -11 -38 0 -11 -6 -24
-14 -28 -8 -4 -21 -25 -29 -46 l-16 -37 34 25 c18 15 40 36 48 48 12 19 12 24
0 36 -8 7 -12 18 -10 24 5 17 39 22 36 5 -1 -7 1 -21 6 -31 5 -13 11 -15 21
-7 14 13 8 41 -13 53 -17 11 -17 33 1 40 10 4 13 18 10 50 -3 31 0 48 10 56 8
7 13 18 10 26 -3 7 0 16 6 20 8 5 6 11 -6 19 -13 10 -15 21 -10 50 4 22 12 36
19 33 11 -3 13 -19 16 -104 1 -17 5 -21 19 -16 23 9 42 29 35 37 -4 3 1 6 10
6 28 0 27 -63 -2 -95 -24 -25 -38 -97 -18 -89 7 2 19 20 26 39 7 19 17 35 22
35 5 0 17 16 26 35 9 19 20 35 25 35 4 0 5 7 2 15 -4 8 -12 15 -19 15 -24 0
-26 17 -6 62 14 33 16 47 7 61 -8 14 -8 20 4 27 8 5 21 7 29 5 10 -4 11 -2 3
8 -8 9 -8 23 2 50 16 48 41 75 71 75 32 0 32 -20 0 -80 -14 -26 -25 -52 -25
-58 0 -6 -7 -18 -15 -26 -8 -9 -15 -21 -15 -27 0 -8 3 -8 9 1 4 7 12 12 17 11
21 -4 34 2 34 16 0 8 7 15 15 15 8 0 15 -7 15 -15 0 -8 -6 -15 -14 -15 -8 0
-22 -21 -32 -47 -10 -27 -21 -52 -24 -58 -4 -5 -10 -22 -14 -37 -5 -23 -3 -28
13 -28 15 0 18 5 13 22 -4 17 -2 20 11 15 11 -4 14 -2 11 8 -4 9 3 16 19 20
16 4 28 16 32 32 3 13 11 23 18 20 8 -2 17 20 27 61 19 84 40 95 37 18 -3 -50
-2 -53 11 -34 21 29 52 115 45 122 -4 3 0 6 7 6 9 0 11 -10 7 -34 -3 -21 -1
-36 5 -38 11 -4 -27 -68 -44 -76 -3 -2 -18 -14 -33 -28 -14 -13 -30 -22 -34
-20 -4 3 -14 -6 -22 -21 -20 -37 -100 -123 -115 -123 -11 0 -29 -29 -22 -36 2
-1 21 6 43 16 22 10 39 20 37 22 -7 7 11 38 23 38 20 0 48 37 48 64 0 24 28
47 35 27 2 -5 12 -2 22 7 56 52 69 62 78 62 6 0 12 6 15 13 3 8 8 9 15 2 14
-13 4 -57 -11 -52 -6 2 -22 -9 -35 -25 -13 -15 -27 -26 -30 -24 -9 5 -32 -20
-25 -27 7 -7 36 4 45 17 5 8 8 7 8 -1 0 -7 -10 -21 -22 -33 -16 -15 -24 -17
-30 -8 -5 10 -12 7 -23 -9 -9 -13 -26 -23 -39 -23 -29 0 -64 -35 -43 -43 7 -3
19 4 25 14 7 10 22 19 33 19 18 0 20 -4 15 -27 -4 -16 -11 -66 -16 -113 -14
-131 -18 -153 -29 -183 -15 -38 -14 -47 4 -41 8 4 15 10 15 15 0 5 10 20 23
35 28 32 39 62 27 69 -13 8 -13 45 0 45 6 0 10 13 10 29 0 32 19 91 28 91 4 0
8 21 10 48 4 82 22 130 51 135 27 5 45 -3 24 -10 -7 -3 -13 -11 -13 -19 0 -8
-6 -14 -12 -14 -9 0 -8 -4 2 -10 11 -7 12 -12 3 -17 -11 -8 -16 -27 -14 -51 1
-18 31 11 31 31 0 21 37 60 45 47 3 -5 2 -10 -4 -10 -6 0 -8 -7 -5 -15 4 -8 2
-15 -4 -15 -16 0 -56 -140 -53 -188 1 -28 -2 -42 -8 -37 -6 3 -11 1 -11 -4 0
-6 5 -11 11 -11 7 0 9 -10 7 -25 -3 -14 -1 -25 3 -25 5 0 9 5 9 10 0 6 9 10
19 10 11 0 23 5 26 10 4 6 16 8 28 5 19 -5 20 -5 5 5 -22 14 -24 42 -3 34 8
-4 15 -1 15 5 0 6 4 11 10 11 6 0 7 -18 3 -45 -6 -44 -5 -45 21 -45 16 0 26
-5 26 -15 0 -22 27 -18 33 5 3 11 10 20 17 20 6 0 8 -4 5 -10 -3 -6 1 -7 10
-4 12 5 13 9 4 21 -10 11 -8 18 11 36 l23 22 -6 -24 c-6 -22 -5 -23 10 -8 12
11 16 31 14 61 -1 29 3 49 14 60 9 8 15 18 15 21 -2 11 7 30 12 25 3 -3 8 -22
11 -43 5 -34 4 -38 -11 -32 -14 5 -15 4 -4 -6 19 -20 14 -57 -8 -69 -11 -6
-20 -19 -20 -30 0 -11 -11 -30 -25 -42 -17 -16 -28 -41 -35 -83 -6 -33 -17
-77 -25 -97 -13 -33 -13 -36 0 -32 8 4 15 1 15 -5 0 -6 -4 -11 -9 -11 -5 0
-14 -12 -19 -27 -5 -16 -13 -35 -17 -44 -5 -13 -1 -15 20 -12 21 5 47 32 50
53 2 17 28 50 38 50 7 0 18 9 25 20 7 12 8 20 2 20 -5 0 -10 7 -10 15 0 8 4
15 9 15 4 0 8 13 7 30 -1 18 -6 30 -15 30 -8 0 -11 6 -7 16 3 9 6 20 6 25 0 5
6 9 13 9 26 0 41 -20 43 -56 2 -21 9 -41 15 -45 8 -4 10 -20 6 -43 -9 -54 11
-55 59 -4 40 42 94 70 94 49 0 -19 -13 -41 -24 -41 -6 0 -18 -13 -28 -29 -9
-16 -29 -38 -44 -48 -16 -10 -51 -39 -78 -66 -27 -26 -60 -53 -75 -60 -14 -6
-24 -15 -23 -19 1 -5 -7 -17 -18 -28 -11 -11 -20 -27 -20 -36 0 -10 -6 -14
-14 -11 -8 3 -17 -1 -20 -8 -13 -36 46 -23 77 17 10 13 32 44 48 71 35 54 53
61 47 18 -2 -17 -1 -28 4 -25 4 3 8 -2 8 -10 0 -10 -6 -13 -17 -10 -15 5 -16
4 -3 -5 8 -6 23 -11 32 -11 25 0 18 -44 -10 -70 -26 -24 -24 -32 10 -34 17 -1
23 -7 22 -24 0 -12 5 -22 13 -22 7 0 13 5 13 10 0 6 7 10 15 10 23 0 18 -28
-7 -36 -13 -4 -26 -11 -29 -16 -12 -19 3 -46 27 -51 29 -5 56 22 58 60 0 17
12 37 29 52 19 16 24 26 17 31 -16 10 -1 63 16 56 8 -3 15 1 15 9 3 28 4 32
29 68 14 20 30 35 37 33 6 -3 14 1 17 9 3 10 0 12 -11 8 -13 -5 -15 -2 -10 11
4 10 7 25 7 34 1 14 4 13 19 -5 13 -15 21 -19 24 -10 7 18 -4 77 -14 77 -5 0
-9 5 -9 12 0 7 -12 25 -27 40 -21 22 -24 31 -15 40 7 7 12 21 12 31 0 14 5 18
20 14 24 -6 29 8 32 95 1 37 5 65 9 63 3 -3 12 16 19 40 15 52 32 61 25 13
l-5 -33 10 32 c16 51 34 54 27 3 l-5 -43 25 37 c26 36 61 51 49 21 -3 -8 -1
-15 4 -15 20 0 3 -42 -32 -81 -21 -23 -38 -47 -38 -53 0 -6 -11 -20 -25 -30
-14 -10 -25 -24 -25 -30 0 -6 4 -4 10 4 5 8 12 11 17 7 4 -4 2 -17 -5 -27 -7
-11 -12 -31 -12 -45 0 -14 -4 -25 -10 -25 -5 0 -10 4 -10 10 0 5 -8 6 -17 3
-13 -5 -15 -2 -10 13 7 19 7 19 -8 0 -20 -27 -19 -34 11 -73 l26 -34 24 22
c13 12 24 31 24 41 0 10 9 26 19 35 11 9 17 21 14 26 -6 10 28 87 40 87 4 0 7
-7 7 -15 0 -22 27 -18 33 5 6 22 37 28 37 8 0 -7 -16 -28 -35 -47 -19 -19 -35
-39 -35 -46 0 -7 -9 -24 -21 -39 -11 -15 -18 -33 -15 -42 8 -20 -20 -84 -36
-84 -7 0 -21 -14 -30 -30 -18 -31 -10 -41 12 -15 7 8 21 15 31 15 11 0 19 7
19 15 0 8 4 15 10 15 5 0 27 16 47 35 38 36 53 43 53 24 0 -12 -88 -99 -101
-99 -5 0 -9 -4 -9 -8 0 -5 -13 -23 -29 -41 -17 -19 -27 -39 -24 -48 4 -9 -2
-16 -15 -20 -18 -4 -35 -29 -37 -55 0 -3 -3 -10 -7 -14 -11 -11 -10 -24 2 -24
6 0 16 11 22 25 14 31 53 35 45 5 -7 -27 9 -25 47 4 27 20 35 22 49 11 21 -15
23 -29 3 -22 -8 3 -17 -1 -20 -9 -3 -8 -12 -14 -21 -14 -17 0 -20 -16 -5 -25
14 -9 12 -27 -2 -22 -8 2 -17 -11 -23 -32 -6 -20 -13 -34 -16 -31 -3 3 -17 -3
-33 -13 -15 -10 -34 -16 -41 -13 -16 6 -20 -17 -20 -113 0 -73 0 -74 26 -75
18 -1 25 3 22 11 -3 7 -2 21 2 31 8 16 10 26 13 65 2 19 32 24 32 5 0 -7 11
-13 25 -13 14 0 25 6 25 13 0 7 4 11 8 8 5 -3 6 8 4 25 -3 21 1 35 17 48 11
10 18 21 14 25 -3 3 -1 6 5 6 15 0 16 -65 1 -93 -9 -16 -9 -22 0 -25 22 -7 10
-19 -16 -16 -17 2 -20 1 -8 -2 28 -8 43 -24 22 -24 -10 0 -20 -13 -26 -35 -5
-19 -19 -47 -30 -61 -12 -15 -21 -31 -21 -36 0 -5 -14 -23 -31 -41 -33 -35
-64 -87 -51 -87 4 0 30 20 57 45 27 24 62 47 77 50 15 4 31 12 35 18 5 7 21
19 37 27 16 8 32 24 36 35 23 60 32 108 27 144 -3 23 -2 41 2 41 4 0 15 14 25
32 24 39 48 68 58 68 15 0 8 -26 -13 -49 -18 -19 -19 -25 -8 -33 11 -7 11 -11
2 -15 -7 -2 -13 -13 -13 -24 0 -17 3 -18 23 -7 12 7 24 16 27 19 11 11 71 31
77 25 4 -3 -13 -24 -37 -46 -31 -28 -37 -37 -21 -33 12 3 21 1 21 -6 0 -7 4
-10 9 -6 5 3 9 -8 9 -25 -1 -16 -4 -30 -8 -30 -3 0 -22 -13 -40 -30 -18 -16
-30 -30 -26 -30 5 0 3 -7 -4 -15 -9 -10 -9 -15 -1 -15 6 0 11 -7 11 -16 0 -11
8 -7 29 15 28 30 41 31 41 4 0 -18 -50 -73 -67 -73 -17 0 -17 -26 1 -33 8 -3
18 5 25 19 14 32 41 32 41 -1 0 -14 5 -25 10 -25 6 0 10 -5 10 -11 0 -6 -7 -8
-17 -5 -10 4 -14 4 -10 0 4 -4 2 -13 -4 -21 -9 -10 -8 -13 5 -13 10 0 16 -9
16 -24 0 -25 -44 -56 -81 -56 -18 0 -85 -64 -83 -80 1 -6 2 -24 3 -42 1 -25 4
-29 13 -20 17 17 48 15 48 -2 0 -8 -12 -24 -27 -36 l-28 -21 35 18 c19 10 38
22 41 26 3 5 8 7 10 6 10 -9 119 79 124 99 3 12 10 22 16 22 11 0 2 -68 -13
-87 -15 -19 7 -23 38 -6 16 8 42 17 58 19 17 2 33 9 37 15 3 6 18 12 33 12 14
1 26 5 26 10 0 4 6 7 14 7 8 0 16 7 20 15 6 17 36 21 36 4 0 -6 -9 -24 -21
-41 -31 -43 -17 -45 23 -4 39 40 58 46 58 16 0 -11 -7 -20 -15 -20 -8 0 -15
-9 -15 -20 0 -12 -7 -20 -17 -20 -10 0 -25 -6 -33 -13 -22 -17 -63 -77 -57
-83 5 -6 62 41 115 94 18 18 36 31 40 28 5 -3 16 4 25 15 9 10 12 19 7 19 -6
0 -10 7 -10 16 0 10 6 14 15 10 13 -5 20 10 16 37 0 4 8 7 19 7 23 0 24 -4 10
-30 -7 -13 -6 -19 5 -24 17 -6 21 -36 5 -36 -17 0 -129 -84 -135 -102 -4 -10
-11 -18 -17 -18 -5 0 -27 -13 -48 -30 -41 -32 -54 -69 -33 -88 20 -19 16 -32
-12 -32 -22 0 -24 -3 -19 -30 8 -35 -19 -53 -39 -26 -10 14 -12 11 -12 -19 0
-21 5 -35 13 -35 6 0 12 -4 12 -10 0 -5 -7 -10 -15 -10 -8 0 -15 4 -15 9 0 5
-14 17 -32 25 -38 19 -48 21 -24 3 19 -14 13 -47 -10 -47 -8 0 -30 -16 -48
-35 -19 -19 -39 -35 -46 -35 -6 0 -25 -13 -41 -28 -28 -26 -29 -29 -10 -27 12
1 30 11 42 23 15 17 29 21 55 19 29 -4 32 -2 22 10 -9 11 -6 19 16 40 32 29
40 26 27 -10 -8 -21 -7 -25 4 -20 24 9 17 -21 -7 -37 -13 -8 -26 -13 -30 -12
-5 1 -8 -5 -8 -14 0 -10 -6 -14 -14 -11 -8 3 -20 -1 -27 -9 -7 -9 -21 -13 -31
-11 -22 6 -33 -7 -15 -20 10 -7 31 -9 47 -4 3 1 24 4 48 6 24 2 53 10 66 18
20 13 24 13 34 -1 10 -16 11 -16 11 1 1 9 8 17 16 17 9 0 15 9 15 25 0 14 -4
25 -10 25 -5 0 -10 9 -10 20 0 11 5 20 10 20 6 0 10 -7 10 -16 0 -8 5 -12 10
-9 6 3 10 -3 10 -13 0 -13 9 -21 28 -25 15 -3 29 -1 30 4 7 17 23 9 18 -8 -3
-10 -1 -25 4 -33 8 -13 12 -12 25 8 18 25 40 30 31 7 -3 -8 -1 -15 4 -15 6 0
10 -8 10 -17 0 -15 2 -15 9 -4 5 8 7 20 4 28 -3 7 0 13 6 13 6 0 11 -19 11
-45 0 -33 -4 -45 -15 -45 -8 0 -15 6 -15 13 0 9 -2 9 -8 0 -5 -9 -19 -9 -47
-3 -31 7 -45 5 -63 -6 -12 -8 -20 -19 -17 -24 6 -10 45 -1 45 11 0 14 20 11
36 -5 20 -20 17 -29 -6 -23 -20 5 -60 -25 -60 -46 0 -4 -10 -7 -22 -6 -13 1
-32 -2 -43 -7 -18 -7 -16 -9 13 -15 18 -4 61 -3 95 1 46 5 65 3 75 -7 15 -15
26 -18 18 -4 -10 15 5 41 23 41 10 0 27 10 40 21 17 16 25 19 34 9 9 -9 6 -16
-12 -31 -13 -11 -25 -29 -26 -42 -1 -12 -3 -25 -4 -29 0 -5 -9 -8 -20 -8 -10
0 -30 -9 -44 -20 -14 -11 -30 -20 -36 -20 -6 0 -11 -4 -11 -10 0 -5 -10 -10
-23 -10 -12 0 -28 -9 -35 -21 -12 -18 -11 -19 7 -10 11 6 29 11 40 11 13 0 21
6 21 16 0 12 6 15 24 10 16 -4 26 -1 30 9 6 16 46 21 46 5 0 -5 -11 -12 -25
-16 -14 -3 -25 -10 -25 -15 0 -5 -6 -9 -13 -9 -8 0 -19 -12 -25 -26 -7 -14
-17 -22 -22 -19 -6 3 -10 0 -10 -7 0 -7 -6 -25 -14 -40 -12 -23 -12 -26 0 -21
8 3 14 9 14 14 0 6 9 19 19 30 16 17 23 19 40 10 14 -8 21 -8 21 -1 0 5 17 17
38 27 20 9 40 19 45 21 4 2 7 -8 7 -22 0 -18 -5 -26 -18 -26 -21 0 -47 -38
-43 -64 4 -25 -18 -37 -40 -23 -14 9 -22 8 -36 -5 -25 -21 -81 -45 -125 -53
-21 -3 -38 -8 -38 -10 0 -2 -3 -10 -6 -18 -4 -11 8 -19 41 -30 44 -15 46 -15
65 6 11 11 33 21 48 22 21 0 26 5 24 19 -2 11 1 16 10 14 7 -3 13 -14 12 -26
0 -13 4 -18 13 -15 16 6 16 2 3 -31 -8 -23 -7 -26 13 -26 12 0 35 7 51 15 43
23 48 19 44 -29 -4 -56 9 -61 83 -36 29 10 57 16 61 14 13 -8 9 -24 -6 -24 -8
0 -16 -4 -18 -9 -4 -12 -142 -31 -146 -21 -1 4 -14 5 -27 2 -14 -2 -22 -8 -19
-13 3 -5 1 -9 -4 -9 -11 0 -72 -55 -72 -64 0 -14 44 -5 56 12 10 13 13 14 14
3 0 -11 4 -9 14 5 16 21 20 19 31 -14 5 -17 3 -23 -7 -21 -19 4 -58 -11 -58
-22 0 -5 -11 -14 -25 -19 -14 -5 -25 -17 -25 -25 0 -13 8 -15 40 -10 29 4 40
3 38 -6 -7 -30 118 -62 129 -33 3 8 12 14 20 14 11 0 13 -5 8 -17 -20 -49 -20
-49 52 -50 55 -1 76 4 111 23 23 14 49 36 58 49 9 14 22 21 30 18 24 -9 16
-29 -28 -71 -10 -9 -18 -22 -18 -28 0 -6 -9 -23 -21 -38 -11 -14 -17 -26 -13
-26 5 0 3 -5 -4 -12 -7 -7 -12 -15 -12 -19 0 -8 40 -24 53 -21 4 1 10 -5 13
-13 8 -21 84 -21 84 0 0 8 6 15 13 15 23 0 39 -17 37 -41 -3 -38 -1 -42 15
-29 9 7 18 10 21 7 3 -3 21 1 39 9 45 18 47 18 43 -8 -3 -20 -9 -23 -45 -23
-22 0 -39 -3 -36 -7 2 -5 -17 -8 -44 -8 -26 -1 -73 -10 -103 -21 -30 -11 -71
-24 -91 -28 -19 -4 -42 -12 -50 -16 -20 -13 30 -25 54 -13 14 7 17 4 17 -15 0
-41 -84 -51 -128 -16 l-27 21 -3 -24 c-2 -12 -10 -27 -18 -31 -17 -10 -19 -47
-1 -48 6 0 39 -3 72 -5 33 -3 76 -6 95 -7 19 -1 41 -8 48 -15 8 -7 18 -10 23
-7 5 4 9 -1 9 -10 0 -11 -6 -15 -18 -11 -10 4 -68 8 -129 10 -93 3 -116 7
-137 23 -14 11 -22 23 -19 27 4 3 -8 -1 -25 -10 -18 -8 -32 -19 -32 -24 0 -16
27 -29 50 -23 19 5 22 3 17 -11 -4 -10 -7 -23 -7 -31 0 -7 -10 -16 -22 -20
-22 -6 -22 -7 6 -17 24 -9 30 -8 38 6 5 9 14 16 19 16 13 0 1 -42 -15 -52 -6
-4 3 -7 19 -7 17 0 24 3 18 6 -7 2 -13 12 -13 20 0 11 5 13 18 8 22 -9 27 -9
90 -1 43 7 52 5 52 -7 0 -25 -27 -37 -97 -40 -18 -1 -33 -7 -33 -13 0 -10 -34
-25 -65 -29 -5 -1 -28 -7 -50 -13 -22 -7 -59 -12 -82 -12 -33 0 -42 4 -45 19
-3 18 -5 18 -23 5 -20 -15 -20 -16 -1 -29 10 -8 23 -12 28 -9 12 8 87 -26 110
-48 10 -10 29 -18 43 -18 13 0 41 -9 62 -19 21 -11 51 -25 66 -31 16 -5 27
-16 24 -23 -5 -15 -65 -11 -84 5 -10 8 -17 8 -25 0 -9 -9 -9 -12 0 -12 18 0
14 -18 -5 -23 -11 -3 -7 -5 10 -6 42 -2 34 -29 -10 -36 -21 -4 -46 -9 -55 -12
-20 -5 -25 16 -8 33 6 6 3 10 -10 10 -14 0 -18 -5 -14 -21 3 -14 -4 -26 -26
-40 -16 -11 -30 -23 -30 -27 0 -3 35 -5 78 -4 42 2 82 -1 89 -6 8 -6 16 -3 25
11 10 16 23 21 54 21 28 0 47 6 59 20 20 22 35 18 35 -11 0 -12 -7 -19 -19
-19 -10 0 -24 -7 -31 -15 -7 -8 -30 -18 -51 -21 -21 -4 -47 -13 -56 -21 -10
-8 -12 -12 -5 -8 7 4 19 1 27 -5 11 -9 21 -8 46 4 40 20 37 20 41 -6 2 -19 8
-22 36 -20 18 2 39 -1 46 -7 11 -9 15 -6 20 14 8 33 26 32 26 -1 0 -18 5 -25
18 -23 32 3 42 -1 42 -17 0 -13 -8 -15 -37 -12 -25 3 -61 -3 -104 -18 -77 -28
-102 -30 -123 -9 -8 8 -25 15 -38 15 -20 -1 -21 -2 -5 -11 9 -5 17 -17 17 -24
0 -8 6 -15 13 -15 8 0 22 -9 33 -21 14 -15 16 -24 7 -37 -5 -9 -14 -17 -19
-17 -5 -1 -19 -6 -32 -13 -12 -7 -27 -10 -32 -7 -6 3 -10 2 -10 -3 0 -6 -17
-8 -40 -5 -26 4 -40 2 -40 -6 0 -6 13 -11 30 -11 17 0 33 -7 39 -17 8 -15 13
-16 30 -5 18 11 21 10 21 -7 0 -10 8 -25 18 -32 9 -7 14 -9 10 -5 -9 11 23 37
35 29 5 -3 3 -9 -4 -14 -11 -7 -9 -12 9 -24 12 -9 22 -23 22 -31 0 -18 -40
-18 -66 1 -10 8 -34 15 -51 15 -27 0 -33 4 -34 23 -1 16 -2 18 -6 4 -5 -21
-10 -21 -29 -2 -9 8 -24 15 -34 15 -11 0 -24 8 -30 18 -9 15 -10 14 -5 -6 5
-15 1 -24 -10 -29 -20 -7 -37 15 -31 41 3 12 -2 20 -15 23 -10 3 -16 9 -14 14
3 4 -13 13 -35 19 -22 6 -40 15 -40 21 0 6 -9 8 -20 4 -15 -5 -20 -2 -20 13 0
23 -46 36 -87 25 -19 -4 -24 -3 -18 7 6 9 3 10 -14 0 -33 -17 -54 -5 -97 55
-28 40 -50 59 -79 69 -76 28 -92 28 -117 2 -13 -13 -41 -35 -63 -49 -22 -14
-51 -35 -64 -45 l-24 -19 26 -17 c15 -9 39 -24 55 -33 58 -36 97 -53 100 -43
2 5 8 10 14 10 6 0 7 -8 4 -17 -6 -17 -5 -17 8 0 19 24 64 22 87 -5 10 -13 18
-17 19 -10 0 6 -4 12 -10 12 -5 0 -10 5 -10 10 0 6 12 10 26 10 22 0 24 -3 18
-22 -3 -12 -13 -28 -20 -36 -20 -20 -10 -29 41 -36 42 -7 64 -26 30 -26 -8 0
-15 -7 -15 -16 0 -10 -8 -15 -22 -13 -28 3 -88 -27 -107 -54 -11 -16 -22 -18
-57 -14 -34 3 -53 14 -91 51 -26 25 -56 46 -66 46 -10 0 -29 8 -44 17 -29 19
-41 23 -98 30 -22 3 -44 9 -49 14 -6 5 -19 9 -30 9 -12 0 -32 9 -46 20 -33 25
-57 25 -65 -1 -5 -13 -12 -18 -22 -14 -13 4 -14 3 -4 -9 7 -8 38 -17 69 -21
31 -3 65 -10 74 -15 10 -6 26 -10 35 -10 31 0 46 -16 38 -39 -8 -25 -23 -27
-39 -5 -16 22 -123 35 -141 17 -20 -19 -28 -16 -54 22 -23 34 -41 45 -41 25 0
-5 -9 -10 -20 -10 -27 0 -100 30 -100 41 0 14 -46 10 -59 -5 -10 -11 -8 -16 6
-20 10 -3 38 -24 62 -46 25 -22 48 -40 53 -40 12 0 38 -26 38 -38 0 -5 10 -13
23 -16 28 -8 90 -64 82 -76 -3 -5 -1 -11 4 -15 6 -3 17 7 25 23 16 31 100 112
116 112 17 0 11 -11 -15 -32 -14 -11 -23 -23 -20 -28 3 -5 -4 -15 -14 -22 -11
-8 -25 -27 -31 -42 l-10 -28 52 7 c29 4 59 12 65 17 7 6 20 7 29 4 17 -7 85
32 113 63 10 12 14 13 18 4 3 -7 17 -13 31 -13 16 0 32 -8 40 -20 7 -11 18
-20 26 -20 8 0 16 -7 20 -15 3 -8 12 -12 20 -9 8 3 17 1 21 -5 7 -13 68 -13
105 -1 l25 8 -27 1 c-32 1 -34 6 -13 28 14 14 14 17 -5 30 -11 8 -20 18 -20
24 0 14 36 11 50 -6 7 -8 16 -12 21 -9 5 3 16 1 25 -4 9 -5 35 -5 62 0 30 5
48 4 52 -2 9 -14 41 -8 73 13 34 22 47 21 47 -3 0 -14 7 -20 21 -20 12 0 19
-5 16 -12 -2 -7 -15 -13 -29 -13 -14 0 -32 -9 -42 -22 -16 -22 -16 -23 3 -23
11 0 23 5 26 11 4 6 13 8 21 5 8 -3 14 -1 14 4 0 6 5 10 10 10 6 0 10 -8 10
-17 0 -15 8 -18 50 -16 27 1 50 -2 50 -6 0 -10 -50 -57 -56 -53 -10 8 -64 -10
-58 -19 3 -5 10 -7 15 -4 16 10 49 -5 49 -23 0 -14 2 -15 9 -3 5 8 18 15 28
17 10 1 26 5 36 9 12 5 17 3 17 -9 0 -20 -36 -39 -58 -31 -11 4 -13 3 -7 -3 6
-6 19 -12 30 -14 33 -6 25 -33 -10 -31 -16 1 -40 3 -52 4 -13 1 -23 4 -23 8 0
3 -16 7 -35 8 -20 2 -35 -2 -35 -8 0 -7 -15 -10 -40 -7 -22 2 -42 -1 -45 -7
-3 -6 -7 -6 -11 2 -3 8 -15 8 -40 2 -19 -6 -39 -7 -44 -4 -14 9 -70 -4 -70
-16 0 -5 11 -14 24 -19 13 -5 27 -14 31 -19 3 -6 13 -11 21 -11 9 0 22 -7 30
-15 8 -8 21 -12 29 -9 8 4 15 1 15 -6 0 -6 4 -9 10 -5 5 3 7 11 4 18 -2 7 6
13 22 14 15 0 29 5 33 10 7 11 69 43 83 43 30 0 -18 -57 -73 -85 -36 -19 -36
-28 -4 -45 26 -14 38 -6 125 80 8 9 26 17 38 17 13 1 30 10 38 20 13 17 13 17
14 -5 0 -15 -9 -26 -27 -34 -16 -7 -30 -13 -32 -14 -2 -2 7 -13 20 -26 17 -17
33 -22 57 -20 17 2 32 7 32 13 0 5 5 9 11 9 6 0 9 -6 6 -13 -5 -14 71 -11 87
4 15 14 29 11 22 -6 -3 -8 -2 -15 3 -15 5 0 11 -10 14 -22 5 -19 8 -20 23 -7
12 9 18 10 21 3 2 -6 15 -9 28 -6 15 2 25 0 25 -7 0 -6 -6 -11 -12 -12 -10 0
-10 -2 0 -6 6 -2 10 -9 7 -14 -4 -5 1 -6 10 -2 13 4 16 1 13 -13 -3 -14 -11
-18 -33 -16 -109 9 -159 4 -143 -15 6 -7 8 -21 5 -32 -4 -19 10 -30 57 -45 10
-4 63 -7 117 -7 55 0 99 -4 99 -8 0 -34 -140 -52 -210 -27 -51 18 -110 21
-110 6 0 -5 -8 -10 -19 -10 -10 0 -24 -7 -31 -15 -9 -10 -32 -15 -76 -15 -52
0 -65 -3 -74 -19 -13 -26 -13 -31 5 -31 8 0 15 7 15 15 0 8 5 15 11 15 5 0 9
-10 7 -22 -3 -19 2 -22 39 -24 48 -2 63 -9 63 -30 0 -9 -10 -14 -28 -14 -17 0
-32 -8 -41 -21 -12 -20 -11 -21 10 -16 28 7 69 -1 69 -14 0 -15 -54 -32 -58
-20 -2 6 -8 9 -13 5 -5 -3 -9 0 -9 5 0 6 -11 11 -24 11 -32 0 -39 23 -15 49
l20 21 -27 0 c-14 0 -38 8 -52 18 -15 10 -49 26 -76 34 -42 14 -53 14 -81 2
-24 -10 -42 -11 -66 -4 -19 6 -34 10 -35 10 -1 0 -4 -9 -7 -20 -3 -11 -10 -20
-17 -20 -7 0 -9 8 -5 20 5 15 0 21 -19 26 -14 3 -33 4 -41 1 -8 -4 -17 -2 -20
3 -9 15 -65 12 -60 -3 8 -20 -50 -39 -131 -42 -51 -3 -80 -8 -87 -18 -7 -9
-38 -17 -76 -20 -63 -5 -97 -21 -75 -35 6 -4 13 -15 17 -24 4 -11 15 -17 29
-15 14 1 23 -4 25 -14 3 -12 -10 -19 -54 -28 -81 -18 -83 -19 -83 -32 0 -8 18
-9 60 -4 40 5 65 3 74 -4 22 -19 124 -23 133 -6 5 8 30 16 58 18 28 3 57 7 65
10 8 3 34 8 58 11 37 6 42 4 42 -14 0 -17 -7 -20 -47 -20 -45 -1 -122 -29 -80
-30 9 0 26 -5 36 -12 11 -7 26 -8 37 -3 11 5 24 9 29 10 6 1 42 7 80 14 45 8
86 9 115 4 29 -6 73 -5 125 4 50 8 81 9 83 3 2 -6 15 -10 28 -10 35 0 31 -29
-6 -37 -17 -3 -33 -9 -36 -14 -3 -5 2 -6 10 -3 11 4 16 0 16 -11 0 -13 -5 -16
-22 -10 -61 18 -88 22 -88 14 0 -6 -6 -9 -12 -7 -19 4 -108 -23 -108 -33 0 -5
-16 -7 -35 -4 -21 2 -51 -3 -73 -13 -33 -15 -37 -20 -25 -30 7 -7 18 -10 23
-7 6 3 10 -1 10 -9 0 -23 12 -20 70 19 29 19 58 35 66 35 19 0 18 -26 -2 -34
-17 -6 -11 -45 10 -58 6 -4 7 -10 4 -14 -11 -11 -40 25 -32 38 6 9 3 9 -9 -1
-12 -9 -17 -10 -17 -2 0 12 -8 7 -51 -32 -10 -9 -23 -17 -29 -17 -5 0 -25 -9
-43 -19 -27 -15 -43 -17 -78 -11 -57 11 -71 1 -29 -19 36 -17 57 -50 25 -37
-10 3 -24 1 -31 -5 -10 -8 -17 -7 -29 5 -9 9 -22 16 -30 16 -7 0 -16 6 -18 13
-3 6 -6 2 -6 -10 -1 -14 5 -23 14 -23 18 0 20 -21 3 -39 -11 -11 -7 -12 20 -6
20 4 32 3 32 -4 0 -6 -7 -11 -15 -11 -8 0 -15 -5 -15 -11 0 -17 -31 -43 -68
-56 -41 -14 -56 -8 -49 19 4 15 1 18 -13 13 -10 -3 -25 1 -33 9 -17 17 -118
19 -129 2 -4 -5 -25 -10 -47 -10 -29 -1 -41 -6 -44 -18 -3 -9 1 -19 9 -22 21
-8 17 -26 -6 -26 -11 0 -20 -4 -20 -10 0 -5 9 -14 20 -20 11 -6 20 -15 20 -20
0 -16 -43 -11 -85 10 -24 12 -43 16 -48 11 -5 -5 -17 -7 -26 -3 -22 8 -64 52
-58 59 4 3 13 -2 22 -11 9 -9 26 -16 38 -16 22 0 21 1 -3 20 -14 11 -29 20
-34 20 -4 0 -6 7 -2 15 3 9 0 15 -9 15 -8 0 -15 -9 -15 -20 0 -11 -7 -23 -15
-27 -14 -5 -14 -8 1 -24 9 -11 23 -19 31 -19 7 0 13 -9 13 -20 0 -13 7 -20 20
-20 12 0 20 -7 20 -16 0 -11 -5 -14 -16 -10 -9 3 -27 6 -41 6 -18 0 -24 4 -19
15 6 16 -5 18 -44 5 -25 -8 -25 -8 8 -15 18 -4 35 -12 38 -16 3 -5 15 -9 27
-9 12 0 31 -7 41 -15 11 -8 28 -15 38 -15 18 0 18 1 -2 22 -24 26 -26 42 -4
34 9 -3 21 -6 28 -6 6 0 20 -14 31 -32 10 -18 31 -44 46 -59 25 -25 36 -28 99
-28 39 0 75 -3 80 -6 6 -3 10 -1 10 4 0 6 7 11 16 11 24 0 12 -35 -14 -38 -12
-2 -22 -6 -22 -10 0 -8 -127 -5 -149 3 -7 3 -20 0 -27 -6 -11 -9 -18 -8 -29 1
-10 9 -15 9 -15 1 0 -6 -4 -11 -10 -11 -5 0 -9 10 -7 21 1 12 -5 24 -13 26
-13 4 -13 3 0 -6 25 -17 -1 -32 -38 -22 -27 8 -34 6 -47 -12 l-15 -21 -16 22
c-13 19 -18 20 -37 11 -16 -9 -22 -9 -25 0 -3 9 -10 7 -23 -5 -18 -16 -19 -16
-19 2 0 14 -2 16 -9 6 -5 -8 -22 -13 -42 -11 -19 2 -39 0 -45 -3 -10 -7 -81 6
-91 16 -4 3 -13 1 -20 -6 -11 -9 -16 -9 -22 0 -4 8 -42 11 -111 11 -67 -1
-106 3 -108 10 -2 6 -19 18 -38 27 -44 21 -134 103 -134 123 -1 33 -25 48 -88
55 -34 4 -67 4 -73 1 -15 -10 9 -35 27 -28 8 3 14 0 14 -6 0 -6 -6 -11 -12
-11 -9 0 -8 -3 2 -10 8 -5 12 -11 9 -14 -8 -8 -58 8 -61 19 -2 6 -11 9 -20 8
-22 -3 -24 13 -3 21 22 8 18 26 -5 26 -12 0 -20 -7 -20 -16 0 -10 -7 -14 -22
-12 -15 2 -22 9 -22 21 1 9 -4 17 -12 17 -8 0 -14 8 -15 18 0 9 -3 12 -5 5 -6
-14 -65 3 -77 24 -4 7 -17 13 -27 13 -11 0 -20 4 -20 8 0 4 -8 8 -17 9 -10 1
-31 5 -48 8 -19 4 -37 1 -49 -8 -18 -13 -18 -16 -2 -62 9 -27 16 -57 16 -67 0
-10 5 -18 10 -18 6 0 10 -9 10 -20 0 -11 -3 -20 -8 -20 -14 0 -58 57 -59 76
-2 53 -9 104 -13 104 -33 -1 -50 -15 -50 -41 0 -17 6 -32 15 -35 8 -4 15 -12
15 -20 0 -8 5 -14 10 -14 6 0 10 -5 10 -11 0 -6 -7 -8 -16 -5 -12 5 -15 2 -9
-11 4 -10 10 -26 12 -35 3 -10 22 -23 43 -29 34 -10 41 -9 66 10 32 25 48 27
40 4 -4 -9 -1 -20 6 -25 10 -6 9 -11 -4 -19 -31 -17 -21 -30 18 -23 28 5 39 2
55 -14 10 -12 16 -27 13 -35 -3 -8 0 -18 6 -22 17 -10 80 -13 80 -4 0 5 5 9
10 9 17 0 11 -25 -12 -44 -29 -25 -107 -25 -125 0 -10 14 -16 15 -25 6 -7 -7
-16 -8 -23 -2 -6 5 -16 5 -25 -1 -13 -9 -13 -10 0 -8 26 2 61 -13 57 -25 -2
-6 -17 -13 -33 -16 l-29 -6 28 -18 c15 -10 27 -27 27 -38 0 -16 -6 -19 -32
-18 -61 4 -78 0 -78 -15 0 -8 -6 -15 -14 -15 -24 0 -24 -59 -1 -190 12 -65 32
-129 48 -153 10 -15 15 -32 12 -37 -3 -6 -2 -10 3 -10 10 0 56 -88 67 -129 5
-15 2 -26 -6 -31 -14 -10 -59 8 -60 24 0 6 -4 1 -9 -11 -6 -15 -18 -23 -34
-23 -13 0 -31 -3 -39 -6 -8 -3 -21 2 -29 10 -11 11 -18 12 -27 3 -6 -6 -11 -7
-11 -1 0 5 -4 3 -9 -5 -8 -12 -20 -13 -71 -3 -40 7 -79 8 -113 2 -83 -14 -196
-19 -228 -10 -18 6 -29 5 -29 -1 0 -13 -219 -9 -227 4 -8 13 6 57 18 57 16 0
99 89 99 106 0 8 5 14 10 14 6 0 10 6 10 14 0 7 6 19 14 25 18 15 43 119 62
255 l7 49 -47 -5 c-27 -3 -46 -2 -46 4 0 13 -62 1 -71 -13 -3 -6 -30 -13 -58
-15 -28 -2 -62 -10 -74 -19 -12 -8 -28 -15 -37 -15 -8 0 -21 -9 -28 -20 -10
-17 -23 -20 -81 -20 -48 0 -72 4 -81 15 -16 19 -5 47 17 44 34 -3 41 1 36 20
-5 20 -30 31 -72 31 -23 0 -23 -1 -7 -13 24 -18 11 -43 -26 -51 -22 -4 -37 -1
-49 10 -13 11 -22 13 -36 5 -56 -31 -88 -41 -91 -31 -3 7 -13 3 -27 -10 -24
-22 -65 -21 -65 2 0 6 -9 3 -20 -7 -21 -19 -50 -14 -50 9 0 19 -86 11 -107
-10 -8 -8 -30 -14 -49 -14 l-35 0 2 45 c3 45 3 45 40 45 21 0 41 4 44 10 3 5
0 10 -7 10 -7 0 -25 6 -40 14 -17 9 -29 11 -36 4 -6 -6 -21 -16 -34 -22 -12
-7 -22 -19 -20 -26 13 -54 -43 -95 -80 -60 -17 16 -36 20 -90 20 -56 0 -68 3
-68 16 0 13 -7 16 -38 12 -36 -5 -62 8 -62 30 0 16 -47 23 -100 16 -56 -7 -72
-34 -20 -34 23 0 30 -4 30 -20 0 -20 -8 -23 -75 -23 -74 -1 -96 4 -102 20 -18
46 -103 95 -103 59 0 -21 -28 -27 -57 -12 -19 9 -38 11 -72 4 -117 -24 -413
-7 -466 26 -11 7 -39 16 -62 20 -35 5 -43 3 -43 -9 0 -22 -26 -19 -43 5 -8 11
-23 20 -33 19 -45 -5 -54 1 -54 32 0 29 2 30 29 24 17 -3 32 -2 36 4 3 6 17
11 29 11 13 0 29 6 35 14 10 12 16 12 37 1 32 -16 102 -10 125 11 16 14 30 15
86 9 38 -4 76 -7 86 -6 9 0 26 1 37 1 11 0 29 0 40 0 45 0 60 5 66 22 3 10 11
18 19 18 7 0 15 5 17 12 3 7 13 5 31 -7 15 -9 27 -13 27 -7 0 9 21 13 78 14
21 0 22 1 5 13 -11 9 -22 10 -29 4 -15 -12 -44 -1 -44 17 0 8 -10 14 -25 14
-22 0 -24 3 -19 29 5 23 2 29 -17 34 -15 4 -27 0 -35 -11 -10 -14 -15 -14 -25
-5 -10 10 -16 10 -30 -3 -16 -14 -18 -14 -29 5 -12 23 -35 28 -44 9 -5 -10 -7
-10 -12 -1 -3 8 -12 5 -26 -9 -15 -15 -28 -19 -54 -15 -21 4 -39 1 -46 -7 -7
-7 -21 -15 -31 -19 -13 -5 -16 -13 -12 -27 5 -16 2 -20 -14 -20 -12 0 -21 4
-21 9 0 4 -16 6 -36 4 -22 -2 -46 2 -60 12 -13 8 -37 15 -55 15 -30 0 -89 27
-89 41 0 4 13 10 29 14 l29 6 -23 25 c-12 13 -33 24 -45 24 -24 0 -60 26 -60
42 0 5 27 7 60 5 34 -2 63 0 67 6 3 5 17 7 30 4 23 -4 25 -2 19 24 -6 31 10
39 32 17 14 -14 18 -11 27 24 7 27 6 28 -24 22 -21 -5 -31 -3 -31 6 0 6 -9 25
-21 41 -23 32 -57 38 -99 16 -14 -7 -43 -13 -65 -12 -39 0 -41 -1 -37 -27 2
-16 2 -28 -1 -28 -17 0 -37 14 -37 26 0 10 -6 8 -20 -6 -21 -21 -45 -26 -54
-12 -3 5 -19 7 -36 4 -16 -2 -37 1 -45 8 -13 11 -18 10 -29 -5 -12 -17 -13
-17 -18 3 -5 16 -16 22 -54 26 -27 4 -62 11 -78 16 -16 5 -33 7 -39 3 -5 -3
-12 -2 -16 3 -3 5 -18 15 -34 21 -28 13 -36 37 -14 46 7 3 32 2 55 -3 31 -5
47 -3 59 7 17 14 17 14 0 9 -27 -9 -47 4 -47 30 0 19 -9 28 -38 40 -20 9 -46
21 -57 27 -11 6 -33 13 -50 17 -42 8 -46 37 -5 38 16 0 30 -4 30 -9 0 -5 34
-9 75 -9 57 0 82 -5 107 -20 46 -28 113 -25 102 5 -3 7 -1 16 5 20 13 7 -10
35 -29 35 -7 0 -10 7 -7 14 4 10 1 13 -8 10 -14 -6 -37 27 -33 48 4 17 -40 22
-59 7 -8 -7 -19 -23 -24 -36 -12 -32 -29 -29 -42 7 -9 23 -19 31 -47 36 -74
11 -81 14 -78 32 2 13 16 18 56 20 58 3 66 14 25 34 -39 19 -51 44 -32 64 15
14 19 14 50 -5 19 -12 41 -21 50 -21 9 0 31 -8 50 -17 19 -10 62 -18 99 -20
102 -3 126 -7 144 -22 14 -12 18 -11 31 5 13 17 14 18 15 2 0 -10 6 -18 14
-18 8 0 16 -5 18 -11 4 -13 58 -20 58 -7 0 6 8 7 18 3 9 -4 24 -7 32 -8 8 0
21 -4 28 -10 8 -7 12 -5 12 6 0 8 6 18 13 21 6 3 1 4 -13 1 -34 -6 -46 4 -46
37 1 37 6 39 72 38 81 -1 116 -6 124 -21 9 -14 30 -3 30 17 0 19 29 18 37 -3
5 -14 8 -13 14 5 11 29 30 28 59 -3 14 -15 35 -25 51 -25 15 0 31 -5 34 -10 3
-6 16 -10 28 -10 18 1 16 5 -15 23 -21 12 -38 28 -38 35 0 7 -5 10 -11 6 -6
-3 -15 -1 -19 7 -5 8 -23 12 -45 11 -21 -2 -43 2 -51 9 -10 8 -18 8 -26 1 -7
-5 -28 -13 -45 -17 -29 -6 -33 -4 -33 14 0 23 -10 24 -117 21 -44 -1 -55 2
-73 23 -19 22 -26 24 -52 15 -32 -11 -48 -4 -30 14 25 25 10 30 -78 24 -77 -5
-90 -4 -90 9 0 13 -4 14 -22 4 -17 -9 -24 -9 -32 3 -6 8 -19 17 -28 21 -41 15
-4 47 54 47 19 0 40 6 47 12 11 11 14 11 18 1 7 -20 51 -15 63 7 7 14 21 20
44 20 26 0 35 5 39 21 5 17 11 20 31 15 30 -7 35 10 6 19 -20 6 -29 45 -10 45
6 0 10 -4 10 -10 0 -5 7 -7 15 -4 9 4 15 0 15 -9 0 -9 13 -18 32 -22 18 -4 50
-19 71 -32 22 -14 36 -19 31 -12 -5 8 -3 11 7 7 8 -3 23 -2 35 2 19 7 21 15
18 74 -4 69 -2 72 41 56 24 -9 26 -8 20 10 -4 14 -2 20 8 20 9 0 17 -5 19 -11
4 -12 57 8 70 26 4 5 10 6 14 2 4 -4 13 -2 19 3 9 7 16 6 25 -5 18 -21 40 -19
40 5 0 16 7 20 33 21 l32 1 -35 8 c-70 17 -105 15 -137 -8 -24 -17 -44 -22
-89 -21 -44 1 -60 -2 -70 -15 -9 -12 -21 -16 -43 -13 -23 4 -32 1 -36 -13 -8
-26 -78 -40 -163 -33 l-73 6 -12 -32 c-18 -49 -87 -57 -87 -11 0 14 6 21 17
19 31 -3 53 1 53 9 0 4 -18 6 -41 4 -34 -4 -41 -1 -46 16 -4 18 -10 20 -37 15
-17 -3 -28 -2 -24 2 4 5 2 15 -4 23 -10 11 -8 17 7 28 10 8 25 14 33 14 9 0
11 7 7 20 -5 17 -2 20 27 21 31 0 32 1 9 10 -13 5 -38 7 -56 3 -27 -5 -34 -2
-38 13 -3 10 -5 4 -6 -14 -1 -28 -5 -33 -26 -33 -14 0 -25 4 -25 9 0 4 -12 6
-26 3 -18 -3 -30 0 -36 12 -5 9 -19 16 -32 16 -13 0 -29 7 -36 15 -7 8 -18 15
-26 15 -12 0 -34 29 -34 45 0 3 9 3 20 0 11 -4 20 -2 20 4 0 5 16 13 37 17 32
6 34 8 20 19 -26 19 -21 45 7 45 14 0 27 -4 30 -9 3 -4 25 -11 48 -15 24 -4
53 -9 64 -12 18 -5 21 -2 19 20 -4 29 -1 30 23 17 26 -13 111 -21 117 -11 3 5
15 6 28 1 13 -5 30 -5 39 0 21 12 59 7 77 -9 12 -11 15 -11 22 0 5 8 3 17 -6
24 -9 6 -13 18 -10 26 7 16 -18 28 -68 33 -34 3 -41 9 -33 30 4 11 12 14 26
10 12 -4 27 -1 35 5 9 7 20 8 32 2 10 -5 34 -12 53 -15 34 -7 35 -6 14 11 -12
9 -29 22 -39 27 -9 6 -17 19 -18 30 -2 15 3 19 21 18 15 -2 21 1 16 8 -13 21
19 28 35 8 9 -10 30 -21 46 -23 17 -2 43 -8 58 -15 36 -14 44 -14 49 0 3 9 9
9 25 0 12 -6 34 -11 50 -11 l28 0 -33 20 c-18 11 -41 20 -51 20 -34 0 -51 12
-51 36 0 21 3 23 30 18 17 -4 30 -3 30 2 0 15 -38 34 -54 28 -8 -3 -19 3 -25
14 -7 14 -17 18 -36 15 -19 -4 -25 -1 -25 11 0 10 4 15 9 11 14 -8 24 13 25
55 2 33 -1 37 -23 34 -14 -1 -36 6 -50 17 -24 19 -25 19 -34 2 -6 -10 -11 -19
-13 -21 -1 -2 -13 2 -26 9 -12 7 -26 12 -30 11 -5 -1 -8 3 -8 8 0 6 -9 10 -19
10 -11 0 -36 20 -58 45 -24 29 -43 43 -54 40 -9 -3 -45 -9 -80 -14 -35 -5 -82
-14 -104 -20 -41 -11 -75 -7 -75 9 0 5 8 16 17 26 17 17 16 17 -10 10 -16 -4
-27 -2 -27 4 0 5 -13 10 -30 10 -36 0 -38 15 -7 43 l22 20 -30 -7 c-76 -18
-95 -19 -95 -2 0 9 5 16 10 16 6 0 10 5 10 10 0 6 -9 10 -20 10 -11 0 -20 -4
-20 -10 0 -5 -9 -10 -20 -10 -13 0 -20 7 -20 19 0 15 -10 21 -40 26 -28 5 -40
12 -40 23 1 28 26 53 45 46 12 -5 23 -1 31 11 13 17 15 17 32 2 30 -27 80 -41
97 -27 10 8 33 10 72 5 124 -14 183 -5 183 26 0 21 29 26 58 10 9 -5 26 -5 37
0 18 7 18 8 -5 8 -39 2 -70 12 -64 22 3 5 -4 9 -16 9 -11 0 -31 11 -43 25 -13
16 -36 28 -56 30 -19 3 -37 8 -40 13 -3 5 -27 17 -53 27 -33 12 -48 24 -50 39
-3 18 -11 21 -50 24 -42 3 -48 6 -48 26 0 28 10 39 24 27 6 -5 30 -11 54 -13
40 -3 42 -2 42 24 0 35 24 37 45 4 9 -13 31 -31 50 -40 37 -18 71 -22 43 -5
-22 12 -23 38 -2 46 9 3 26 -5 42 -20 18 -17 40 -27 62 -28 19 -1 50 -8 68
-16 43 -19 84 -21 89 -6 3 7 -6 17 -20 22 -13 5 -27 16 -30 24 -3 9 -14 13
-29 10 -18 -3 -24 0 -25 16 -1 17 4 21 28 21 19 0 28 -4 23 -11 -4 -8 -1 -8
13 -1 24 13 128 -26 128 -48 0 -8 8 -22 18 -30 10 -8 31 -25 46 -37 17 -13 38
-20 54 -19 28 3 50 16 28 16 -7 0 -9 5 -6 10 3 6 2 10 -3 10 -13 0 -62 47 -62
60 0 5 7 10 15 10 8 0 15 2 15 4 0 2 3 11 6 20 4 10 1 16 -9 16 -8 0 -17 6
-20 14 -3 8 -26 18 -51 21 -42 7 -46 10 -46 36 0 29 14 39 23 17 3 -8 6 -6 6
5 1 9 8 17 17 17 8 0 13 -4 10 -9 -3 -4 3 -16 13 -25 13 -11 21 -14 26 -7 4 8
12 8 25 1 31 -17 130 -16 141 0 7 12 11 13 18 2 11 -19 61 -23 61 -6 0 8 7 14
15 14 8 0 15 -4 15 -10 0 -5 14 -10 30 -10 20 0 30 5 30 15 0 8 -8 15 -18 15
-10 0 -27 7 -39 15 -14 10 -32 13 -48 9 -19 -5 -25 -2 -25 10 0 20 -2 20 -44
-5 -38 -22 -43 -20 -25 12 9 17 7 21 -10 26 -12 3 -21 10 -21 15 0 6 -11 7
-26 4 -36 -9 -64 2 -64 25 0 16 5 18 25 13 18 -4 25 -2 25 8 0 8 9 19 20 24
13 6 -40 9 -147 8 -214 -2 -243 2 -243 28 0 16 -5 19 -25 16 -35 -7 -35 29 1
42 34 13 34 14 34 -17 l0 -26 23 20 c24 21 57 20 57 -3 0 -8 7 -14 15 -14 17
0 20 16 5 25 -15 10 -12 35 5 35 8 0 15 -3 15 -7 0 -5 13 -9 29 -10 22 -2 32
3 36 17 5 15 15 20 46 20 21 0 39 -4 39 -8 0 -5 6 -9 14 -9 8 0 12 6 9 13 -3
9 5 12 26 12 21 -1 33 -7 37 -20 9 -28 16 -15 9 15 -6 23 -11 25 -41 20 -27
-4 -34 -2 -34 11 0 21 -48 21 -78 0 -21 -15 -25 -15 -43 1 -15 15 -30 17 -82
12 -71 -7 -78 -4 -92 38 -7 19 -18 31 -33 33 -16 3 -22 10 -22 28 0 23 2 24
23 13 27 -15 67 -18 67 -6 0 5 7 7 15 3 8 -3 15 -1 15 4 0 6 -5 10 -11 10 -6
0 -25 11 -43 25 -18 14 -42 25 -54 25 -11 0 -27 9 -35 21 -9 13 -17 16 -22 10
-18 -29 -75 5 -75 46 0 27 7 28 46 8 16 -8 39 -15 52 -15 12 0 33 -7 46 -15
12 -8 44 -19 70 -24 45 -8 46 -8 30 10 -9 10 -26 21 -38 25 -33 10 -86 66 -86
91 0 22 14 32 22 16 2 -5 18 -18 36 -31 37 -26 79 -26 74 0 -5 31 69 49 110
27 10 -6 19 -5 23 1 9 14 42 12 48 -2 3 -8 6 -5 6 5 1 13 7 17 22 15 14 -2 27
6 37 21 16 24 16 24 -11 17 -19 -4 -27 -3 -27 7 0 7 -11 13 -28 12 -21 0 -27
4 -25 20 1 13 -11 29 -35 46 -35 25 -38 26 -60 11 -19 -12 -28 -13 -43 -4 -14
9 -20 9 -26 -1 -13 -20 -51 -38 -55 -26 -2 6 -17 12 -33 15 -82 10 -95 16 -95
44 0 10 7 20 15 24 8 3 15 15 15 26 l0 21 28 -20 c36 -25 78 -36 86 -22 4 7
-1 11 -13 11 -14 0 -21 6 -21 19 0 13 -9 20 -30 25 -38 7 -38 22 0 44 30 17
42 36 17 26 -30 -11 -97 30 -97 59 0 8 -9 22 -20 32 -11 10 -20 27 -20 39 0
15 3 17 12 8 7 -7 25 -12 40 -12 22 0 28 5 28 20 0 18 4 20 35 14 39 -7 48 8
15 28 -11 7 -20 18 -20 24 0 15 28 26 43 18 7 -3 0 6 -15 20 -16 14 -28 30
-28 36 0 15 26 12 40 -5 17 -20 110 -21 110 -1 0 18 -87 46 -150 47 -32 1 -57
8 -70 19 -24 20 -26 50 -5 50 25 0 17 17 -10 22 -17 4 -25 1 -25 -9 0 -10 -9
-13 -27 -11 -19 2 -29 10 -33 28 -4 16 -12 24 -23 22 -13 -2 -17 5 -17 28 0
19 5 30 14 30 8 0 21 3 30 6 11 4 16 1 16 -10 0 -13 11 -16 54 -16 35 0 60 -5
70 -15 13 -13 15 -13 21 5 4 11 12 20 18 19 35 -4 77 2 77 12 0 7 -9 9 -23 6
-34 -9 -49 6 -45 43 3 29 7 33 35 36 18 2 35 -1 38 -7 5 -7 11 -6 21 2 8 7 29
9 49 6 26 -4 37 -2 45 11 7 13 12 14 18 4 6 -9 14 -5 31 14 21 24 21 25 3 20
-25 -8 -132 53 -132 75 0 18 20 29 51 29 25 0 24 17 -1 25 -11 3 -20 11 -20
16 0 5 -11 9 -24 9 -14 0 -31 7 -39 15 -8 7 -26 17 -39 20 -32 8 -98 72 -98
95 0 22 18 30 45 19 11 -4 16 -8 11 -8 -5 -1 4 -11 18 -22 25 -20 29 -20 43
-6 15 14 19 13 50 -10 18 -14 36 -23 40 -19 6 6 71 -38 85 -58 5 -7 8 -4 8 7
0 18 45 41 61 31 5 -3 9 7 9 23 0 21 -9 34 -36 52 -69 48 -71 101 -3 101 26 0
46 7 60 21 11 11 27 18 36 15 10 -4 17 1 20 15 4 15 12 20 32 17 14 -1 31 1
37 5 6 3 27 5 48 4 20 -2 36 -1 36 3 0 12 -82 27 -113 21 -36 -7 -97 -6 -142
2 -69 13 -131 49 -118 70 4 6 0 6 -12 0 -22 -13 -55 -5 -55 12 0 8 -9 16 -19
20 -25 8 -36 51 -17 70 18 18 26 19 27 3 0 -19 56 -59 84 -63 14 -1 34 -10 44
-19 23 -21 30 -20 24 4 -3 11 0 20 6 20 19 0 12 16 -13 28 -32 14 -43 50 -21
66 15 11 16 15 4 34 -18 29 -5 38 26 18 26 -17 27 -17 32 3 3 14 13 21 29 21
13 0 23 -3 21 -8 -1 -4 8 -18 19 -30 16 -17 24 -20 29 -12 4 7 2 16 -5 20 -14
9 -10 52 7 57 6 2 14 -5 17 -15 10 -31 43 -34 73 -6 28 26 39 29 46 14 3 -6 4
-5 3 2 -1 7 -22 15 -47 18 -24 3 -54 11 -66 18 -12 7 -33 12 -47 12 -14 0 -26
3 -26 8 0 4 -12 20 -27 36 -29 32 -42 92 -17 82 7 -3 16 -1 20 5 3 5 15 7 27
4 56 -16 54 -17 49 15 -5 34 16 42 39 14 14 -17 69 -48 75 -42 2 3 -5 14 -16
26 -11 12 -20 32 -20 46 0 16 -7 27 -21 31 -15 5 -19 14 -17 33 3 28 11 30 56
16 17 -5 22 -3 20 7 -2 8 5 14 17 14 11 1 26 4 33 9 9 5 19 1 28 -13 21 -29
48 -28 38 2 -7 23 -98 117 -114 117 -5 0 -8 13 -8 30 1 32 26 49 43 28 15 -19
75 -51 75 -39 0 15 103 8 120 -8 12 -12 15 -10 22 17 9 33 41 58 59 46 6 -3 9
-14 6 -24 -3 -11 1 -21 9 -24 9 -3 14 2 14 14 0 26 31 26 48 0 14 -22 60 -27
94 -9 15 8 22 8 28 0 4 -8 14 -9 31 -2 l24 10 -22 7 c-13 3 -23 10 -23 15 0 5
-8 9 -18 9 -19 0 -42 18 -42 32 0 14 50 9 56 -5 3 -8 18 -14 34 -15 l29 -1
-26 42 c-14 23 -32 48 -40 55 -19 20 -11 38 15 34 25 -4 29 10 7 28 -35 29 3
43 42 15 19 -13 21 -13 26 5 6 24 0 30 -30 30 -14 0 -23 6 -23 16 0 12 7 14
33 9 41 -9 47 -13 47 -31 0 -8 5 -14 10 -14 6 0 10 -6 10 -14 0 -11 5 -12 25
-3 29 14 32 25 9 34 -8 3 -13 12 -10 19 3 7 1 16 -4 19 -17 11 -11 65 7 72 9
4 19 1 21 -5 2 -8 8 -8 21 0 24 15 15 55 -21 89 -27 27 -36 49 -20 49 4 0 17
3 30 6 18 5 22 2 22 -15 0 -11 -6 -21 -12 -21 -7 0 1 -8 19 -16 21 -11 34 -26
38 -45 7 -33 11 -35 31 -15 10 11 11 15 1 19 -6 2 -9 7 -6 11 8 9 60 -15 54
-25 -3 -4 10 -12 28 -18 19 -6 48 -25 65 -42 18 -17 32 -26 32 -20 0 6 -9 20
-20 31 -11 11 -20 27 -20 35 0 9 -6 12 -15 9 -12 -5 -14 1 -11 27 2 19 0 42
-6 52 -6 13 -6 23 3 33 8 10 9 25 1 56 -13 50 0 75 23 45 8 -12 15 -14 20 -8
10 18 32 12 38 -9 3 -11 10 -20 15 -20 18 0 41 30 35 45 -4 11 4 17 26 21 28
6 44 24 21 24 -5 0 -10 7 -10 15 0 8 -6 15 -14 15 -22 0 -31 21 -13 31 12 7
14 19 10 44 -7 44 11 47 45 8 15 -19 25 -24 28 -15 7 15 46 16 61 1 16 -16 26
39 18 96 -8 50 8 62 34 26 18 -25 47 -16 61 20 11 25 14 27 24 14 8 -10 16
-12 26 -5 12 7 12 12 2 22 -16 16 -16 48 1 48 7 0 23 -18 37 -40 28 -45 35
-48 52 -21 9 15 15 17 25 9 18 -15 22 -8 12 20 -6 16 -16 22 -41 22 -18 0 -40
5 -48 10 -13 8 -12 11 5 25 14 12 16 18 8 21 -7 3 -13 12 -13 19 0 16 41 16
52 1 10 -15 26 35 30 90 l3 48 43 4 c33 3 42 0 42 -12 0 -9 8 -16 18 -16 25 0
55 -34 68 -79 l10 -36 8 33 c9 38 20 40 42 7 23 -34 31 -31 44 15 8 30 8 44
-2 60 -7 11 -16 20 -19 20 -4 0 -10 15 -13 33 -4 23 -15 38 -31 45 -14 6 -25
18 -25 27 0 8 -4 15 -10 15 -17 0 -11 27 7 34 15 6 32 -8 33 -26 0 -5 6 -8 13
-8 9 0 11 12 9 40 -3 25 0 40 7 40 6 0 11 -4 11 -10 0 -19 66 -70 91 -70 6 0
9 9 6 20 -4 16 0 20 19 20 28 0 30 7 8 38 -18 26 -12 41 9 23 11 -9 17 -8 27
4 16 19 34 19 26 0 -3 -8 -1 -15 4 -15 6 0 10 -11 10 -25 0 -14 5 -25 11 -25
18 0 39 -28 33 -44 -4 -11 -1 -16 10 -16 10 0 16 -9 16 -24 0 -14 5 -28 10
-31 7 -4 8 7 4 34 -10 64 -2 75 40 50 34 -20 34 -20 29 0 -3 13 2 23 17 31 12
6 24 9 27 6 4 -3 13 -1 20 6 11 9 16 9 23 -1 10 -17 31 -5 24 14 -8 19 21 13
48 -9 20 -18 21 -17 43 10 13 16 20 36 17 47 -4 17 -1 18 28 12 l33 -7 -7 37
c-6 32 -5 37 8 32 9 -4 16 -2 16 3 0 5 13 7 29 4 24 -5 29 -2 35 20 8 34 42
35 50 1z m2864 -6245 c7 -12 8 -20 2 -20 -5 0 -10 5 -10 11 0 5 -5 7 -11 3 -8
-4 -4 -13 12 -25 13 -10 19 -19 12 -19 -7 0 -10 -6 -7 -14 3 -8 -3 -19 -15
-25 -28 -16 -33 -14 -26 9 6 18 2 20 -42 18 -43 -1 -44 -2 -10 -5 41 -5 48
-17 18 -33 -14 -7 -35 -7 -69 1 -41 10 -57 9 -97 -5 -62 -21 -65 -20 -65 7 0
24 47 47 107 52 18 1 39 8 47 14 8 7 20 10 26 6 6 -4 17 -1 25 5 8 6 23 9 34
5 14 -4 21 0 26 15 8 26 27 26 43 0z"/>
<path d="M5355 8210 c-10 -11 -27 -22 -39 -26 -11 -4 -35 -18 -52 -32 -28 -23
-31 -29 -27 -66 5 -34 3 -39 -8 -28 -22 21 -29 14 -29 -33 0 -25 5 -45 10 -45
10 0 14 13 11 43 -1 9 3 17 8 17 6 0 11 -7 11 -15 0 -8 9 -15 20 -15 13 0 20
7 20 20 0 11 6 20 14 20 19 0 33 -23 18 -28 -7 -2 -12 -10 -12 -17 0 -7 -7
-15 -15 -19 -8 -3 -20 -16 -26 -30 -6 -13 -20 -27 -30 -29 -11 -3 -19 -11 -19
-17 0 -9 3 -10 13 -1 8 6 17 7 23 1 5 -5 14 -6 21 -2 18 11 63 119 57 136 -3
9 -2 16 3 16 12 0 44 75 48 110 1 14 6 33 10 43 10 23 -8 22 -30 -3z"/>
<path d="M5841 8126 c-14 -15 -21 -31 -17 -41 8 -22 -14 -43 -45 -41 -31 2
-59 -50 -59 -110 0 -23 -4 -44 -8 -46 -5 -1 -12 -19 -15 -38 -5 -24 -4 -30 2
-20 6 8 13 11 17 7 5 -4 -5 -31 -21 -60 -23 -43 -27 -60 -21 -91 5 -28 11 -36
24 -34 13 3 16 12 14 42 -3 25 1 42 10 47 21 14 28 11 28 -11 0 -11 5 -20 10
-20 6 0 10 11 10 25 0 26 15 34 23 13 3 -7 6 -4 6 8 1 11 4 24 7 27 4 4 8 23
10 44 2 21 8 39 14 41 5 2 10 10 10 18 0 8 4 14 9 14 4 0 7 14 5 30 -2 17 1
30 6 30 5 0 7 7 3 15 -3 9 3 25 12 35 10 11 13 20 7 20 -11 0 -10 56 0 100 5
23 -18 21 -41 -4z"/>
<path d="M5563 7880 c-9 -36 -8 -42 9 -54 16 -12 17 -17 7 -33 -8 -14 -10 -45
-4 -106 6 -83 18 -108 32 -69 4 9 10 19 15 22 4 3 10 33 12 65 3 33 7 77 10
98 3 25 0 37 -8 37 -14 0 -36 41 -36 65 0 32 -26 13 -37 -25z"/>
<path d="M6224 7855 c-3 -8 -20 -17 -38 -21 -32 -6 -45 -31 -23 -45 5 -4 7
-15 3 -25 -5 -14 -9 -15 -15 -5 -6 9 -10 6 -14 -11 -4 -14 -18 -37 -33 -53
-23 -25 -24 -29 -10 -37 9 -5 16 -15 16 -23 0 -7 6 -15 13 -18 7 -2 8 -8 3
-13 -5 -5 -11 -4 -13 4 -10 27 -31 12 -30 -22 1 -33 2 -33 24 -19 12 8 26 12
31 9 16 -10 30 16 37 69 9 66 35 159 42 151 7 -7 33 40 33 60 0 19 -19 18 -26
-1z"/>
<path d="M5498 7829 c-10 -6 -18 -16 -18 -22 0 -7 -9 -20 -20 -30 -11 -9 -20
-23 -20 -31 0 -8 -16 -33 -35 -56 -19 -23 -35 -47 -35 -53 0 -18 54 -74 66
-70 6 2 14 -5 17 -16 5 -20 6 -20 51 5 46 26 55 37 36 49 -5 3 -10 41 -11 83
0 42 -3 94 -7 114 -6 31 -10 35 -24 27z"/>
<path d="M5342 7616 c4 -4 -7 -20 -23 -33 -16 -14 -38 -42 -49 -62 -10 -21
-26 -43 -34 -50 -17 -14 -23 -101 -7 -101 19 0 63 51 57 67 -4 8 -2 21 3 27
10 12 11 16 11 41 0 8 5 15 11 15 6 0 9 -7 6 -14 -4 -10 -1 -13 9 -9 8 3 14
-1 14 -11 0 -9 3 -16 7 -16 15 0 73 46 73 58 0 16 -24 42 -39 42 -6 0 -11 6
-11 14 0 7 -8 20 -17 27 -10 7 -15 10 -11 5z"/>
<path d="M5415 7419 c-8 -26 14 -51 46 -53 30 -1 35 -22 10 -35 -20 -11 -19
-12 5 -36 14 -14 29 -25 34 -25 6 0 10 -4 10 -10 0 -17 -30 -11 -61 11 -23 16
-29 17 -29 6 0 -8 14 -20 30 -26 29 -10 49 -36 37 -48 -11 -10 -66 18 -104 53
-20 19 -43 34 -50 34 -7 0 -13 8 -13 17 0 14 -2 15 -12 4 -11 -10 -10 -15 5
-25 21 -16 22 -26 2 -26 -15 0 -16 -6 -17 -104 0 -39 9 -75 29 -105 1 -2 10 5
20 14 23 23 23 56 0 75 -16 13 -17 19 -6 43 10 21 10 30 1 39 -15 15 -15 28
-1 28 23 0 35 -28 36 -83 1 -32 4 -61 8 -65 4 -4 16 5 27 21 11 15 25 27 33
27 7 0 32 18 56 40 24 22 38 40 31 40 -7 0 -12 8 -11 18 1 9 -1 25 -6 35 -4 9
-5 29 -2 43 4 20 -1 28 -22 36 -14 6 -21 12 -15 15 19 7 3 44 -23 54 -35 13
-41 12 -48 -12z"/>
<path d="M6644 7255 c-4 -8 -10 -12 -15 -9 -5 3 -9 -2 -9 -11 0 -11 -5 -15
-15 -12 -17 7 -30 -9 -15 -18 22 -13 9 -32 -20 -30 -17 1 -33 -2 -36 -7 -3 -4
-14 -4 -24 2 -34 18 -34 -38 0 -140 22 -65 25 -160 6 -160 -7 0 -14 14 -15 33
-2 54 -6 72 -14 78 -4 3 -9 20 -12 37 -5 46 -26 106 -39 115 -8 5 -7 10 3 16
20 13 -6 26 -53 26 -46 0 -91 -32 -74 -52 6 -7 14 -10 19 -7 5 3 17 0 28 -6
13 -7 22 -7 26 0 8 13 35 13 35 0 0 -11 -51 -60 -62 -60 -5 0 -8 10 -8 23 0
17 -6 22 -24 22 -15 0 -22 -5 -18 -13 2 -8 -1 -13 -9 -12 -27 4 -37 0 -42 -20
-4 -16 -2 -18 13 -10 10 6 23 10 29 10 15 0 14 -57 -1 -63 -10 -4 -9 -8 2 -16
23 -16 6 -22 -29 -10 -25 9 -31 16 -28 30 3 11 2 17 -3 14 -11 -7 -18 -65 -8
-71 15 -10 8 -48 -14 -71 -19 -20 -20 -25 -8 -33 11 -7 23 -1 42 17 32 30 48
25 25 -8 -9 -11 -13 -28 -10 -35 4 -10 12 -7 32 14 15 15 37 34 49 42 12 8 22
19 22 25 0 10 60 55 73 55 4 0 6 -25 4 -55 -4 -61 4 -66 60 -44 15 7 36 13 46
14 24 2 38 24 31 51 -3 12 1 28 10 37 9 8 16 20 16 25 0 6 7 13 16 16 15 6 15
-4 -3 -51 -9 -23 11 -14 49 22 20 19 39 35 42 35 13 0 4 -23 -19 -48 -14 -15
-25 -30 -25 -34 0 -9 -28 -44 -52 -67 -10 -8 -18 -22 -18 -29 0 -9 -7 -12 -20
-9 -22 6 -25 0 -11 -22 7 -11 14 -9 34 11 14 14 23 29 20 32 -4 3 1 6 10 6 21
0 22 -14 1 -35 -24 -23 -4 -39 24 -19 16 11 20 22 17 37 -6 23 39 117 55 117
15 0 18 39 3 52 -8 6 -26 35 -40 62 -14 28 -30 54 -36 57 -5 4 -6 12 -2 19 13
21 11 78 -2 73 -19 -7 -16 37 4 59 10 11 12 18 4 18 -6 0 -14 -7 -17 -15z"/>
<path d="M5797 7243 c3 -7 0 -13 -5 -13 -11 0 -28 -47 -38 -103 -3 -16 -14
-48 -24 -71 -12 -28 -15 -48 -9 -57 8 -12 10 -12 18 1 6 8 14 11 18 6 4 -5 2
-11 -4 -13 -7 -3 -13 -11 -13 -19 0 -8 -4 -14 -9 -14 -5 0 -13 -9 -16 -21 -6
-17 -9 -18 -23 -8 -16 12 -16 12 -1 -5 16 -17 19 -17 53 -1 20 9 33 21 30 27
-8 13 4 58 16 58 6 0 10 -10 10 -21 0 -29 23 -10 41 34 7 18 18 35 23 39 7 5
7 8 -1 8 -7 0 -13 5 -13 11 0 7 9 9 22 6 16 -5 33 6 71 43 28 28 54 50 59 50
16 0 8 21 -18 45 -29 27 -59 32 -67 13 -4 -10 -8 -10 -14 -2 -12 17 -112 23
-106 7z"/>
<path d="M5217 7179 c-9 -19 -17 -41 -17 -48 0 -13 -30 -71 -41 -81 -17 -15
-17 -39 2 -45 10 -4 19 -11 19 -16 0 -6 10 -3 22 5 33 23 39 20 32 -18 -4 -30
-3 -34 15 -29 21 5 22 34 1 87 -12 32 -8 41 15 32 8 -3 18 -19 22 -36 4 -21 9
-28 16 -21 7 7 6 15 -2 25 -7 8 -10 24 -6 35 4 13 -1 24 -16 34 -16 12 -20 23
-18 49 3 21 -1 39 -11 48 -14 14 -17 12 -33 -21z"/>
<path d="M6896 6830 c-13 -13 -29 -18 -50 -16 -26 3 -28 2 -13 -9 24 -17 21
-26 -7 -21 -18 3 -32 -4 -55 -29 -16 -18 -37 -38 -46 -43 -19 -10 -27 -123 -9
-129 13 -4 74 47 74 62 0 5 -4 3 -10 -5 -12 -20 -20 -9 -13 19 4 18 11 21 29
17 17 -5 24 -2 24 8 0 8 17 31 37 51 29 29 34 38 22 45 -12 8 -11 12 4 27 16
16 17 16 17 0 0 -9 5 -17 10 -17 6 0 10 9 10 20 0 10 8 24 18 29 16 10 15 10
-3 10 -11 0 -28 -9 -39 -19z"/>
<path d="M5280 6722 c-8 -3 -19 -10 -23 -16 -6 -8 -10 -7 -14 2 -3 8 -9 10
-16 4 -7 -5 -25 -12 -40 -16 -15 -4 -25 -11 -22 -16 3 -6 2 -10 -4 -10 -5 0
-11 4 -13 9 -1 5 -12 11 -23 13 -23 4 -44 -46 -43 -102 0 -19 2 -27 5 -17 6
22 29 17 27 -6 -2 -19 22 -12 30 9 3 9 1 12 -5 9 -11 -7 -39 12 -39 26 0 12
38 49 50 49 6 0 10 -7 10 -15 0 -8 4 -15 10 -15 17 0 4 -69 -17 -92 -11 -13
-24 -34 -28 -48 -5 -21 1 -18 39 21 24 26 52 49 60 52 9 4 16 11 16 17 0 5 7
10 16 10 8 0 13 4 10 8 -3 5 7 24 23 43 23 28 53 94 34 75 -4 -3 -11 -2 -17 3
-6 4 -18 6 -26 3z"/>
<path d="M5395 6677 c-6 -7 -9 -22 -7 -34 2 -16 -3 -22 -20 -25 -15 -2 -23
-10 -23 -23 0 -14 -7 -20 -22 -21 -13 -1 -28 -6 -36 -12 -15 -13 -21 -62 -7
-62 6 0 10 -4 10 -9 0 -5 -11 -8 -25 -8 -16 0 -25 5 -25 14 0 13 -3 13 -15 3
-11 -9 -13 -16 -5 -24 5 -5 10 -14 10 -18 0 -13 -28 -9 -32 4 -3 8 -12 1 -23
-15 -17 -27 -17 -28 4 -46 26 -23 27 -31 1 -31 -13 0 -20 7 -20 20 0 24 -17
26 -40 5 -21 -19 -15 -92 8 -98 17 -3 89 45 105 70 4 6 14 19 23 28 8 8 13 15
10 15 -2 0 20 24 50 54 30 30 54 59 54 65 0 6 5 11 11 11 15 0 69 52 69 67 0
7 -6 16 -14 20 -7 4 -17 20 -22 35 -6 19 -12 23 -19 15z"/>
<path d="M6098 6669 c-10 -5 -18 -16 -18 -24 0 -19 -65 -30 -96 -16 -31 14
-57 14 -49 1 3 -5 1 -10 -4 -10 -6 0 -11 5 -11 10 0 17 -80 12 -86 -5 -8 -20
-34 -19 -34 1 0 9 5 12 12 8 7 -4 8 -3 4 4 -9 14 -56 16 -56 2 0 -5 -27 -12
-60 -16 -33 -4 -60 -9 -60 -13 0 -19 113 -85 136 -80 18 4 64 -21 64 -36 0 -8
5 -15 10 -15 6 0 10 5 10 10 0 6 5 10 10 10 6 0 8 -11 4 -26 -6 -24 -5 -26 17
-19 13 4 31 15 41 26 9 10 19 19 22 19 13 0 5 -51 -8 -56 -8 -3 -12 -12 -9
-20 3 -8 -1 -14 -11 -14 -10 0 -16 -8 -16 -21 0 -13 -5 -19 -13 -16 -7 3 -27
-9 -44 -27 l-31 -31 27 -3 c32 -4 52 -4 119 4 49 6 52 7 52 35 0 19 5 29 15
29 8 0 14 -3 14 -7 -4 -25 3 -44 14 -40 6 2 11 10 9 17 -2 8 6 10 27 5 23 -5
40 2 90 36 33 23 61 46 61 52 0 9 -19 -3 -47 -30 -15 -14 -53 -6 -53 11 0 7
10 22 23 34 41 39 47 51 47 102 0 28 5 60 10 70 13 24 0 32 -51 32 -21 0 -41
3 -44 9 -8 11 -15 11 -37 -2z"/>
<path d="M6604 6586 c-3 -14 -14 -32 -25 -42 -10 -9 -19 -26 -19 -37 0 -18
-109 -132 -157 -164 -13 -9 -23 -22 -23 -29 0 -8 -6 -14 -14 -14 -21 0 -27
-27 -8 -35 10 -4 21 1 29 12 7 10 18 23 24 28 7 6 40 38 75 72 35 34 79 72 96
84 49 34 89 77 78 84 -6 3 -10 13 -10 21 0 15 -23 44 -34 44 -3 0 -8 -11 -12
-24z"/>
<path d="M7279 6569 c-20 -7 -26 -15 -22 -29 4 -14 0 -20 -11 -20 -10 0 -14 5
-11 10 3 6 2 10 -4 10 -5 0 -13 -4 -16 -10 -3 -5 -1 -10 4 -10 6 0 11 -7 11
-15 0 -18 -16 -20 -23 -2 -4 7 -6 6 -6 -4 -1 -16 -76 -44 -108 -42 -7 0 -13
-3 -13 -7 0 -5 -16 -14 -35 -20 -19 -6 -62 -37 -95 -69 -58 -56 -77 -90 -44
-77 9 3 18 6 20 6 2 0 4 7 4 15 0 8 7 15 15 15 8 0 15 5 15 10 0 6 5 10 10 10
6 0 10 -7 10 -15 0 -19 62 -21 82 -2 35 31 55 45 77 52 20 6 23 4 18 -9 -10
-27 11 -18 35 14 12 17 30 30 40 30 12 0 15 5 11 17 -5 12 -2 15 10 10 10 -4
14 -2 11 6 -2 7 5 18 16 25 15 9 20 9 20 0 0 -9 3 -9 11 -1 6 6 18 9 25 6 10
-4 12 0 8 11 -3 9 -2 16 4 16 6 0 12 -6 15 -12 2 -7 9 4 16 25 7 20 17 37 22
37 20 0 7 18 -16 22 -14 3 -25 1 -25 -3 0 -5 -7 -9 -15 -9 -8 0 -15 -4 -15
-10 0 -5 -7 -10 -15 -10 -8 0 -15 -4 -15 -10 0 -5 -7 -10 -15 -10 -22 0 -18
25 8 43 25 18 23 19 -14 6z"/>
<path d="M5537 6543 c-24 -23 13 -105 53 -118 11 -4 18 -11 15 -16 -4 -5 -1
-9 4 -9 6 0 11 -7 11 -15 0 -8 -4 -15 -9 -15 -18 0 -41 12 -41 22 0 6 -10 20
-23 32 -12 11 -30 32 -40 46 -9 13 -17 19 -17 12 0 -6 -7 -12 -15 -12 -8 0
-15 -6 -15 -13 0 -8 -16 -27 -35 -43 -19 -16 -35 -35 -35 -41 0 -7 -4 -13 -9
-13 -5 0 -12 -7 -15 -16 -4 -12 -2 -15 9 -10 9 3 15 0 15 -9 0 -17 4 -18 82
-16 35 1 68 -4 87 -13 37 -20 105 -22 98 -3 -2 7 -18 11 -36 9 -18 -1 -31 1
-29 5 25 51 34 63 50 63 10 0 18 5 18 10 0 6 16 25 36 44 24 22 31 35 22 38
-7 3 -19 -2 -27 -9 -17 -17 -48 1 -100 59 -35 39 -43 43 -54 31z"/>
<path d="M5551 6159 c-22 -18 -34 -19 -118 -14 l-93 6 0 -48 c0 -27 -5 -54
-11 -60 -15 -15 -7 -69 9 -65 8 1 16 -7 19 -18 3 -11 9 -20 14 -20 5 0 6 7 3
15 -4 8 -1 15 5 15 6 0 11 -5 11 -10 0 -6 16 4 36 22 20 18 50 40 67 48 19 10
31 23 32 37 1 13 8 31 16 40 14 16 42 74 36 73 -1 -1 -13 -10 -26 -21z"/>
<path d="M6171 6166 c-7 -8 -27 -18 -44 -21 -52 -11 -117 -44 -117 -60 0 -32
31 -65 61 -65 22 0 29 -5 29 -19 0 -43 -59 -51 -61 -7 0 11 -9 -6 -19 -39 -10
-33 -25 -81 -34 -107 -8 -27 -13 -48 -10 -48 3 0 25 15 49 33 23 17 51 38 61
45 14 9 15 14 7 18 -19 8 -16 27 3 20 19 -7 41 3 26 13 -5 3 -13 17 -17 30 -6
20 -4 23 9 18 10 -4 26 4 42 19 14 15 27 24 29 22 9 -9 -8 -47 -24 -51 -12 -4
-10 -5 5 -6 11 0 32 11 46 27 15 15 38 37 53 50 15 12 22 22 16 22 -5 0 -13
-4 -16 -10 -3 -5 -15 -10 -26 -10 -16 0 -19 5 -14 20 7 23 -10 27 -19 4 -4
-10 -13 -13 -27 -9 -15 5 -25 1 -35 -14 -19 -27 -34 -27 -34 0 0 12 8 23 18
26 10 2 19 14 19 25 3 33 21 45 36 24 8 -10 20 -16 28 -13 10 4 9 6 -3 6 -12
1 -18 9 -18 26 0 14 5 25 10 25 6 0 10 5 10 10 0 15 -26 12 -39 -4z"/>
<path d="M1848 6132 c-4 -15 4 -21 39 -32 25 -7 47 -18 49 -25 3 -7 18 -15 35
-19 16 -3 29 -12 29 -19 0 -19 43 -57 63 -57 9 0 17 7 17 15 0 8 -7 15 -15 15
-8 0 -15 7 -15 15 0 8 -4 15 -10 15 -5 0 -10 4 -10 10 0 5 15 8 33 6 17 -2 38
-4 45 -5 7 0 10 -5 7 -11 -3 -6 1 -7 9 -4 9 3 16 10 16 16 0 5 9 7 19 3 11 -3
22 -1 26 4 3 6 -15 13 -45 17 -40 5 -50 10 -50 25 0 21 -29 26 -47 8 -9 -9
-20 -9 -43 1 -16 7 -44 10 -60 6 -25 -5 -30 -2 -30 14 0 27 -55 29 -62 2z"/>
<path d="M5923 6037 c-13 -7 -23 -17 -23 -24 0 -6 -9 -15 -20 -18 -11 -4 -18
-11 -15 -16 10 -15 -7 -10 -27 8 -12 10 -18 12 -18 4 0 -7 -8 -11 -17 -10 -22
4 -93 -30 -93 -43 0 -6 -6 -8 -14 -5 -20 8 -43 -50 -29 -72 9 -14 30 -15 27
-1 -13 53 -13 60 -2 60 30 -1 37 -15 28 -55 -5 -22 -5 -44 -1 -48 9 -9 26 47
23 74 -4 27 34 51 87 54 52 2 64 -6 34 -24 -17 -10 -17 -10 0 -11 9 0 17 -3
17 -7 0 -19 -27 -80 -41 -93 -18 -17 -49 -84 -49 -106 0 -8 7 -14 15 -14 8 0
15 4 15 9 0 5 17 16 38 24 43 18 66 43 70 76 1 13 9 37 16 55 25 54 38 110 34
151 -3 43 -17 51 -55 32z"/>
<path d="M6382 5923 c-17 -22 -25 -25 -31 -15 -7 11 -9 11 -14 -1 -7 -19 2
-31 41 -51 36 -19 36 -29 -1 -31 -21 -2 -65 20 -78 38 -8 11 -55 -13 -86 -42
-24 -22 -43 -27 -43 -11 0 6 -5 10 -11 10 -19 0 -80 -41 -74 -50 8 -12 45 0
45 15 0 7 7 16 16 19 13 5 15 1 12 -19 -4 -20 -1 -26 18 -31 27 -7 44 1 44 22
0 17 16 19 23 2 4 -10 6 -10 6 0 1 17 21 15 21 -3 0 -17 16 -20 25 -5 3 6 15
10 26 10 10 0 19 5 19 10 0 6 7 10 16 10 10 0 14 -6 10 -15 -3 -8 -1 -15 4
-15 6 0 11 -10 11 -22 1 -17 2 -19 6 -5 6 24 33 22 33 -3 0 -19 -8 -23 -40
-21 -8 0 0 -7 19 -15 33 -15 35 -14 57 9 22 24 22 26 5 41 -10 9 -27 16 -39
16 -17 0 -22 6 -22 24 0 32 16 41 36 22 8 -9 21 -16 29 -16 7 0 15 -9 18 -20
9 -34 35 -24 43 17 8 41 40 101 64 120 13 11 12 12 -7 13 -14 0 -23 -6 -23
-15 0 -21 -21 -19 -92 10 -34 14 -62 25 -63 25 -1 0 -11 -12 -23 -27z"/>
<path d="M6646 5893 c-11 -11 -6 -23 9 -23 8 0 15 -4 15 -10 0 -5 -8 -10 -18
-10 -30 0 -54 -34 -46 -64 8 -35 43 -52 131 -63 80 -10 109 -3 74 18 -11 8
-21 19 -21 26 0 7 -4 13 -10 13 -5 0 -10 9 -10 20 0 23 -53 52 -77 43 -9 -3
-13 3 -13 20 0 24 -21 42 -34 30z"/>
<path d="M6800 5810 c0 -5 5 -10 12 -10 6 0 24 -14 39 -32 33 -36 112 -56 139
-34 16 14 50 10 50 -5 0 -5 -12 -15 -27 -21 -22 -9 -24 -12 -11 -15 10 -3 31
10 52 31 19 20 40 36 47 36 9 0 10 3 3 10 -6 6 -39 15 -75 20 -35 5 -86 14
-114 19 -66 13 -115 13 -115 1z"/>
<path d="M5526 5785 c-10 -13 -22 -22 -27 -19 -5 3 -9 1 -9 -3 0 -5 -10 -13
-22 -18 -16 -7 -23 -19 -24 -40 -1 -36 -12 -65 -26 -65 -6 0 -8 14 -5 35 l6
34 -29 -29 c-16 -17 -33 -30 -39 -30 -16 0 -21 -29 -10 -58 l11 -27 21 25 c12
14 45 34 72 44 28 11 54 24 58 30 6 8 10 7 14 -1 3 -9 10 -10 22 -4 14 8 18
25 19 80 1 39 -1 71 -6 71 -4 0 -16 -11 -26 -25z"/>
<path d="M6745 5672 c-11 -1 -29 -7 -40 -11 -11 -5 -31 -13 -44 -18 -15 -6
-25 -18 -27 -34 -2 -24 1 -26 69 -36 40 -6 81 -14 93 -17 16 -6 24 0 39 28 11
21 27 36 37 36 10 0 18 7 18 16 0 12 7 15 26 11 15 -3 31 2 41 12 15 15 15 16
0 19 -9 2 -25 -2 -37 -8 -11 -6 -25 -8 -30 -5 -11 7 -116 12 -145 7z"/>
<path d="M6004 5628 c-4 -6 -28 -8 -55 -6 -43 5 -50 2 -65 -19 -17 -26 -12
-34 39 -64 9 -5 17 -14 17 -19 0 -6 20 -30 45 -54 25 -25 45 -49 45 -54 0 -6
7 -12 15 -16 8 -3 15 -12 15 -20 0 -8 4 -18 10 -21 6 -3 7 1 4 9 -3 9 -2 16 3
16 10 0 33 43 33 62 0 7 -6 4 -13 -6 -15 -20 -58 -19 -65 3 -3 9 1 11 15 7 13
-4 25 0 33 9 7 9 21 13 31 10 23 -8 47 40 29 58 -10 9 -4 66 9 82 13 16 13 17
1 9 -8 -6 -25 -10 -37 -9 -13 1 -23 -2 -23 -7 0 -4 -5 -8 -10 -8 -6 0 -10 8
-8 17 2 12 -6 19 -30 24 -18 4 -35 2 -38 -3z"/>
<path d="M5703 5600 c-36 -4 -68 -14 -78 -24 -25 -25 -29 -68 -7 -91 10 -11
21 -28 25 -37 8 -22 27 -24 27 -3 0 8 6 15 14 15 16 0 126 105 126 120 0 8
-34 32 -42 29 -2 -1 -31 -5 -65 -9z"/>
<path d="M6189 5609 c0 -2 -3 -25 -5 -51 -5 -43 -3 -49 18 -57 53 -20 66 -21
79 -9 8 7 34 14 58 16 36 2 51 9 73 34 15 17 25 35 22 39 -7 11 -31 12 -36 1
-1 -5 -22 -12 -44 -15 -36 -6 -42 -4 -47 13 -4 16 -14 20 -45 20 -22 0 -47 3
-56 6 -9 3 -16 5 -17 3z"/>
<path d="M7042 5550 c7 -11 16 -20 21 -20 10 0 67 -61 67 -72 0 -14 -19 -8
-32 10 -20 27 -44 43 -72 48 -18 3 -24 1 -20 -9 5 -13 -44 -63 -53 -53 -3 2 4
15 16 27 12 13 21 27 21 32 0 10 -61 -1 -74 -14 -6 -5 -22 -9 -36 -9 -19 0
-26 -5 -26 -20 0 -11 4 -20 8 -20 4 0 8 -7 8 -16 0 -11 -6 -15 -19 -11 -28 7
-16 -18 15 -32 32 -14 34 -14 34 4 0 8 -4 15 -10 15 -5 0 -10 5 -10 11 0 7 12
9 33 5 44 -9 147 -7 166 3 18 10 41 4 41 -10 0 -6 -6 -9 -12 -8 -24 3 -38 -1
-38 -11 0 -5 11 -10 24 -10 13 0 27 -6 29 -12 4 -10 8 -10 15 1 6 8 16 12 24
9 9 -4 14 1 15 14 1 14 -4 18 -20 16 -14 -2 -23 3 -25 14 -2 12 8 20 40 29 24
6 50 14 58 17 8 3 19 4 24 3 9 -2 56 46 56 57 0 4 -23 8 -51 9 -28 0 -56 6
-62 12 -6 6 -46 11 -89 11 -76 0 -78 -1 -66 -20z"/>
<path d="M5823 5510 c-3 -11 -9 -20 -14 -20 -5 0 -14 -10 -19 -22 -5 -13 -22
-38 -36 -56 l-27 -32 61 -60 c54 -53 64 -59 85 -51 16 6 28 6 35 -1 12 -12 55
-1 47 13 -4 5 -1 9 4 9 6 0 11 -5 11 -12 0 -6 9 -3 20 7 13 12 17 21 10 25 -6
4 -8 15 -4 25 6 16 3 17 -24 12 -24 -5 -32 -3 -32 8 0 8 -4 15 -10 15 -5 0
-10 9 -10 21 0 14 5 19 15 16 25 -10 26 10 2 30 -13 10 -26 26 -30 36 -4 11
-16 21 -26 24 -11 3 -22 11 -25 19 -8 21 -27 17 -33 -6z"/>
<path d="M6715 5373 c-78 -9 -94 -16 -141 -58 -27 -25 -55 -45 -62 -45 -8 0
-25 -9 -39 -20 -16 -12 -41 -20 -64 -20 -21 0 -40 -4 -43 -9 -5 -7 -58 -23
-91 -26 -18 -2 -76 -36 -97 -57 -18 -18 -19 -23 -7 -44 16 -32 40 -27 52 10
10 31 45 76 59 76 15 0 8 -20 -12 -37 -11 -10 -25 -32 -31 -50 -6 -18 -14 -33
-19 -33 -4 0 -11 -11 -14 -25 -4 -14 -11 -25 -16 -25 -6 0 -10 -7 -10 -15 0
-8 -4 -15 -10 -15 -12 0 -13 12 -1 43 8 20 6 30 -8 46 -26 29 -48 26 -66 -9
-9 -16 -13 -30 -10 -30 3 0 -3 -17 -14 -37 -13 -27 -16 -45 -10 -60 13 -36 32
-29 66 26 11 18 23 29 27 23 8 -13 -3 -42 -16 -42 -5 0 -6 -5 -3 -10 8 -12 55
29 55 48 0 7 12 12 29 12 29 0 72 43 77 78 2 9 9 21 17 27 7 5 27 30 43 55 38
59 36 56 62 64 18 6 22 4 22 -13 0 -12 -4 -21 -9 -21 -8 0 -81 -95 -105 -137
-5 -10 5 -13 38 -13 30 0 46 4 46 13 1 13 64 57 83 57 7 0 23 7 36 17 13 9 39
17 58 19 51 5 73 14 73 30 0 10 12 14 43 14 23 1 53 7 67 15 14 8 37 14 52 15
15 0 30 5 33 10 3 6 26 15 51 21 24 6 44 16 44 21 0 6 7 8 15 4 20 -7 19 0 -5
24 -11 11 -31 20 -45 20 -14 0 -34 6 -45 13 -17 10 -22 9 -30 -3 -8 -13 -13
-11 -35 12 -14 15 -25 32 -25 38 0 10 -7 10 -65 3z"/>
<path d="M5500 5286 c0 -8 -12 -17 -26 -20 -15 -4 -32 -12 -40 -19 -43 -38
-48 -41 -52 -29 -6 18 -72 16 -72 -3 0 -8 6 -15 13 -15 7 0 18 -9 24 -20 12
-18 15 -18 47 -5 20 8 51 15 71 15 19 0 35 5 35 10 0 6 9 10 19 10 11 0 34 12
52 27 l32 27 -39 17 c-49 22 -64 23 -64 5z"/>
<path d="M5635 5221 c-15 -15 -104 -61 -119 -61 -6 0 -18 -6 -24 -12 -7 -7
-32 -18 -55 -24 l-42 -11 42 -12 c23 -6 45 -16 48 -21 3 -6 14 -10 24 -10 9 0
27 -9 39 -20 25 -23 64 -26 81 -6 7 8 27 17 46 20 54 10 125 45 125 62 0 8 4
13 9 10 5 -3 11 3 14 14 7 26 -22 50 -60 50 -17 0 -33 5 -35 11 -5 14 -81 23
-93 10z"/>
<path d="M6970 5215 c-14 -8 -38 -14 -53 -15 -19 0 -26 -4 -21 -12 5 -8 1 -9
-12 -4 -15 6 -17 5 -6 -5 16 -17 15 -29 -3 -29 -8 0 -15 -4 -15 -10 0 -5 -5
-10 -11 -10 -6 0 -9 7 -5 15 3 9 0 15 -9 15 -10 0 -15 -11 -15 -35 0 -27 -4
-35 -18 -35 -11 0 -27 -9 -37 -20 -10 -11 -24 -20 -30 -20 -7 0 -15 -6 -18
-14 -4 -10 4 -11 40 -5 25 5 51 13 57 18 6 5 32 12 58 15 25 4 51 13 57 20 6
7 22 11 35 9 25 -5 32 10 42 82 2 16 8 31 14 33 5 2 10 8 10 13 0 13 -31 10
-60 -6z"/>
<path d="M7072 5064 c2 -14 -3 -19 -19 -18 -13 0 -23 -5 -23 -13 0 -8 -7 -16
-15 -19 -10 -4 -13 -13 -10 -24 4 -12 0 -20 -12 -23 -14 -4 -15 -5 -2 -6 9 0
38 -13 65 -27 27 -14 61 -28 76 -29 15 -2 40 -10 55 -18 15 -8 34 -12 41 -10
18 7 15 -5 -10 -31 -18 -19 -30 -23 -56 -19 -27 4 -33 9 -29 24 3 11 1 17 -4
13 -5 -3 -9 -12 -9 -20 0 -14 -21 -13 -69 2 -11 3 -9 -1 4 -16 22 -24 12 -39
-12 -18 -11 9 -28 12 -45 9 -26 -6 -26 -6 -8 -28 21 -26 40 -30 40 -8 0 18 12
19 28 3 16 -16 15 -28 -3 -28 -8 0 -15 -6 -15 -14 0 -10 16 -13 65 -11 65 2
91 10 64 19 -57 21 -69 27 -69 36 0 14 11 13 65 -6 49 -16 86 -16 92 1 2 6 -6
11 -18 12 -27 2 -33 8 -26 28 4 8 19 15 34 16 15 0 22 3 16 6 -13 5 -19 33 -7
33 3 0 13 -8 22 -17 16 -16 17 -16 20 0 5 22 22 22 22 0 1 -17 1 -17 14 -1 7
10 16 15 19 11 4 -3 7 1 7 9 0 9 7 21 15 28 12 10 15 10 15 -4 0 -17 26 -23
32 -6 2 5 13 11 26 13 40 6 48 24 21 46 -28 24 -25 23 -151 22 -57 0 -98 4
-98 9 0 6 -6 10 -14 10 -7 0 -25 11 -40 25 -15 14 -31 25 -37 25 -5 0 -21 8
-35 17 -24 16 -26 16 -22 -3z"/>
<path d="M7924 5060 c-6 -6 -41 -12 -80 -14 -80 -5 -147 -23 -138 -37 4 -6 11
-6 20 2 7 6 21 9 29 5 19 -7 20 -36 1 -36 -7 0 -20 -7 -27 -16 -11 -14 -10
-18 6 -30 15 -11 21 -11 28 -1 7 9 10 9 14 0 17 -42 138 41 126 86 -4 14 -1
21 10 21 8 0 17 7 21 15 6 18 4 19 -10 5z"/>
<path d="M6345 4923 c-11 -3 -24 -9 -29 -14 -6 -5 -23 -9 -39 -9 -38 0 -67
-17 -67 -39 0 -19 -32 -57 -66 -78 -16 -11 -13 -12 26 -9 25 2 62 11 83 20 21
9 44 15 51 14 7 -2 28 5 47 14 19 9 42 19 53 23 17 5 17 7 4 23 -9 9 -19 27
-22 40 -4 12 -10 21 -14 21 -4 -1 -16 -3 -27 -6z"/>
<path d="M7590 4906 c0 -11 -8 -13 -32 -10 -36 6 -134 -32 -157 -60 -7 -9 -20
-16 -27 -16 -8 0 -14 -5 -14 -10 0 -13 126 -2 155 13 11 6 36 12 55 14 19 2
39 8 45 14 5 5 19 9 32 9 13 0 23 4 23 9 0 5 10 12 23 16 18 6 12 9 -28 14
-27 3 -56 10 -62 14 -8 5 -13 3 -13 -7z"/>
<path d="M5546 4864 c-4 -12 -2 -15 9 -10 9 3 15 0 15 -10 0 -11 -8 -14 -27
-12 -20 2 -28 8 -27 21 2 20 -21 22 -62 7 l-27 -11 22 -22 c24 -27 28 -52 6
-44 -16 7 -31 -8 -17 -17 5 -3 24 6 42 19 45 33 97 34 56 1 -8 -6 -17 -22 -20
-36 l-7 -25 17 23 c10 13 27 22 44 22 15 0 37 9 50 20 13 11 26 20 30 20 4 0
17 9 29 20 l23 19 -28 7 c-16 3 -45 10 -64 15 -48 12 -57 11 -64 -7z"/>
<path d="M6435 4779 c-11 -16 -25 -27 -32 -25 -6 3 -17 -2 -25 -11 -12 -15 -9
-16 25 -10 20 3 37 3 37 0 0 -15 -58 -53 -81 -53 -14 0 -43 -9 -65 -19 l-39
-19 28 -11 c33 -13 47 -14 47 -3 0 15 60 34 74 23 9 -8 18 -5 35 10 18 17 27
19 44 11 12 -6 31 -13 41 -16 16 -5 17 -4 7 8 -7 8 -19 12 -27 9 -8 -3 -14 1
-14 11 0 9 -4 16 -10 16 -5 0 -10 7 -10 16 0 12 6 15 23 9 12 -3 29 -7 37 -7
8 0 20 -5 26 -10 6 -4 19 -6 28 -2 9 3 16 1 16 -5 0 -6 7 -11 16 -11 10 0 14
-6 11 -14 -3 -8 -1 -17 6 -19 7 -2 9 -7 6 -11 -3 -3 -15 3 -27 14 -12 11 -25
20 -31 20 -14 0 -22 -28 -9 -32 21 -7 -1 -38 -26 -38 -13 0 -27 -6 -30 -12 -4
-9 -8 -10 -11 -2 -4 8 -18 9 -45 3 -23 -5 -49 -5 -64 1 -18 7 -34 4 -62 -9
l-37 -18 65 -32 c36 -17 71 -31 80 -31 8 0 32 -13 53 -30 41 -33 72 -38 81
-15 7 17 54 21 54 5 0 -5 -7 -10 -15 -10 -8 0 -15 -5 -15 -11 0 -7 10 -9 27
-4 33 8 49 29 27 33 -8 2 -13 9 -11 15 5 17 38 21 47 7 8 -13 50 33 50 56 0 8
4 14 9 14 5 0 7 9 4 21 -4 15 0 22 15 26 13 3 23 16 27 34 9 38 29 38 23 -1
-5 -32 -3 -33 62 -31 35 2 68 11 127 37 17 8 36 14 41 14 6 0 14 5 18 12 4 6
3 8 -2 5 -6 -3 -36 -8 -68 -11 -31 -3 -61 -8 -66 -11 -5 -3 -11 -1 -15 5 -3 5
-25 10 -49 10 -23 0 -46 4 -52 10 -15 15 -107 30 -118 19 -13 -12 -56 -12 -56
1 0 6 7 10 15 10 23 0 18 14 -11 27 -22 10 -24 10 -13 -3 9 -11 9 -18 1 -26
-8 -8 -24 3 -58 41 -30 33 -51 48 -58 42 -14 -10 -49 -11 -56 0 -3 4 -14 -5
-25 -22z"/>
<path d="M7250 4511 c-8 -5 -40 -12 -70 -16 -30 -4 -63 -11 -74 -14 -16 -6
-14 -10 17 -24 19 -9 42 -17 51 -17 10 0 16 -7 14 -17 -2 -12 15 -22 75 -41
47 -15 77 -30 77 -39 0 -11 12 -13 51 -9 52 5 79 0 79 -14 0 -4 -12 -7 -26 -7
-51 0 -45 -19 11 -35 59 -17 63 -14 39 20 -24 35 -20 36 81 29 28 -2 58 0 68
5 10 5 24 5 35 0 9 -5 39 -6 66 -3 43 5 47 8 33 19 -10 9 -30 12 -53 9 -35 -5
-80 13 -124 49 -8 6 -26 15 -40 19 -14 4 -31 16 -37 25 -7 10 -29 21 -49 24
-30 6 -39 3 -56 -16 -19 -22 -20 -22 -30 -4 -7 13 -13 15 -18 7 -10 -18 -110
-3 -110 16 0 11 7 13 29 8 35 -7 50 10 22 24 -23 13 -41 13 -61 2z"/>
<path d="M5741 4478 c-7 -7 -36 -13 -64 -13 -44 0 -53 -3 -62 -22 -10 -24 -31
-33 -22 -9 5 14 -10 36 -25 36 -4 0 -8 -8 -8 -18 0 -16 -9 -19 -67 -20 -89 -2
-151 -27 -110 -46 9 -5 9 -7 0 -12 -19 -9 -3 -34 21 -33 11 0 15 3 9 6 -15 6
-18 53 -3 53 6 0 10 -7 10 -15 0 -8 5 -15 10 -15 6 0 10 -6 10 -14 0 -18 25
-27 38 -14 7 7 16 6 30 -1 33 -18 90 -14 88 5 0 9 5 19 13 22 10 3 11 -1 6
-18 -6 -20 -5 -21 14 -11 12 7 21 16 21 21 0 4 14 11 30 15 17 4 30 10 30 15
0 4 21 15 47 24 56 19 53 19 53 3 0 -8 -20 -28 -45 -46 -25 -18 -43 -36 -40
-41 3 -5 17 1 31 13 14 12 35 23 46 23 11 1 25 9 30 18 5 9 15 16 22 16 25 0
25 27 0 39 -13 6 -24 15 -24 20 0 5 -14 14 -31 20 -40 14 -42 14 -58 -1z"/>
<path d="M6862 4412 c-10 -3 -10 -7 -1 -18 7 -8 9 -17 6 -21 -9 -8 -38 17 -31
28 3 5 0 9 -5 9 -6 0 -11 -4 -11 -10 0 -5 -24 -10 -54 -10 -86 0 -98 -35 -23
-68 27 -11 33 -37 10 -37 -10 0 -64 38 -89 63 -7 6 -17 12 -22 12 -14 0 -25
-34 -13 -38 6 -2 11 -10 11 -18 0 -12 19 -19 43 -15 4 1 15 -5 23 -14 9 -8 28
-15 43 -15 15 0 33 -8 41 -19 13 -19 14 -19 52 0 21 11 38 24 38 30 0 6 5 7
11 4 5 -4 18 3 28 14 16 18 17 26 7 46 -13 30 -36 33 -36 5 0 -11 -7 -20 -16
-20 -8 0 -13 -4 -9 -9 3 -5 -6 -22 -20 -37 -21 -22 -30 -26 -42 -18 -22 14
-28 34 -10 34 11 0 52 41 87 89 3 4 15 14 27 22 l23 16 -28 0 c-15 0 -33 -2
-40 -5z"/>
<path d="M6160 4342 c0 -5 -11 -14 -25 -20 -26 -12 -34 -47 -12 -55 6 -2 9 -8
5 -12 -4 -4 -14 0 -23 9 -21 21 -34 20 -42 -1 -4 -10 -15 -25 -24 -34 -23 -20
-7 -39 31 -39 14 0 33 -9 43 -20 30 -36 116 -24 138 18 8 15 19 32 25 37 7 6
15 20 18 32 6 18 -1 25 -49 48 -30 15 -55 31 -55 36 0 5 -7 9 -15 9 -8 0 -15
-4 -15 -8z"/>
<path d="M5148 4198 c-21 -17 -29 -76 -11 -82 21 -8 16 -46 -6 -46 -26 0 -22
-51 5 -61 29 -12 33 -10 27 11 -5 17 0 20 31 20 32 0 36 -3 36 -25 0 -18 -5
-25 -20 -25 -31 0 -13 -26 30 -43 l40 -15 -15 28 c-8 16 -15 42 -15 57 l1 28
30 -35 c16 -19 35 -41 41 -49 8 -10 13 -11 16 -3 2 7 10 12 18 12 8 0 11 6 7
16 -5 13 -2 15 14 10 12 -4 25 -1 32 8 9 11 7 15 -14 20 -14 4 -25 13 -25 21
0 18 16 20 23 3 3 -8 6 -8 6 -2 2 20 -72 79 -96 76 -17 -3 -22 2 -25 25 -2 20
-9 29 -25 31 -13 2 -23 10 -23 18 0 18 -60 19 -82 2z"/>
<path d="M7280 4120 c0 -5 5 -10 11 -10 5 0 8 -4 5 -9 -4 -5 8 -21 25 -35 36
-30 81 -45 87 -28 5 17 22 15 22 -2 0 -11 9 -13 35 -9 26 4 36 2 40 -10 8 -19
31 -13 70 18 27 22 28 26 14 40 -19 19 -114 27 -144 12 -13 -7 -20 -6 -23 1
-2 6 -10 8 -17 6 -8 -3 -28 4 -44 15 -30 22 -81 29 -81 11z"/>
<path d="M6674 4069 c-10 -12 -32 -30 -47 -39 l-29 -18 31 -7 c17 -3 33 -11
36 -16 4 -5 13 -9 21 -9 8 0 12 5 9 10 -3 6 -1 10 5 10 6 0 10 -6 9 -12 -3
-22 1 -42 10 -56 10 -17 61 -5 61 14 0 7 12 17 28 20 31 8 74 43 66 55 -3 5
-13 9 -23 9 -10 0 -24 7 -31 15 -7 8 -28 15 -46 15 -24 0 -34 5 -34 15 0 23
-44 18 -66 -6z"/>
<path d="M7597 4010 l-38 -29 43 -11 c24 -6 51 -15 60 -20 10 -5 25 -7 34 -3
12 4 15 3 10 -6 -5 -7 6 -6 32 4 21 9 43 15 48 14 5 -1 22 -1 39 0 l30 1 -26
26 c-14 14 -37 27 -50 29 -13 3 -35 6 -49 9 -96 16 -94 16 -133 -14z"/>
<path d="M6460 3964 c-25 -7 -88 -13 -140 -13 -131 1 -140 0 -140 -10 0 -5 10
-13 23 -17 12 -4 25 -11 28 -16 8 -12 140 -13 148 -1 9 13 58 10 73 -4 17 -18
38 -16 38 2 0 19 17 19 37 -1 9 -8 22 -13 30 -10 8 3 21 6 29 6 8 0 14 7 14
15 0 8 5 15 10 15 6 0 10 7 10 15 0 9 -9 15 -25 15 -14 0 -25 5 -25 10 0 13
-55 10 -110 -6z"/>
<path d="M6859 3945 c-19 -19 -41 -35 -49 -36 -8 0 8 -6 35 -13 76 -19 120
-41 184 -91 48 -36 67 -45 99 -45 49 0 76 25 49 45 -9 7 -17 17 -17 22 0 5
-18 16 -40 23 -22 7 -40 17 -40 22 0 4 -9 8 -20 8 -24 0 -28 -35 -5 -44 8 -3
15 -10 15 -16 0 -5 -7 -10 -15 -10 -8 0 -15 7 -15 15 0 8 -5 15 -11 15 -7 0
-9 11 -5 30 5 26 2 32 -17 39 -13 5 -29 16 -36 25 -7 9 -20 16 -28 16 -7 0
-16 7 -19 15 -9 24 -28 18 -65 -20z"/>
<path d="M5636 3935 c-15 -8 -32 -13 -36 -10 -5 3 -11 1 -15 -5 -3 -5 -17 -10
-31 -10 -14 0 -27 -6 -30 -14 -3 -8 -14 -16 -25 -19 -13 -4 -17 -10 -12 -23 5
-14 2 -16 -15 -12 -20 6 -72 -8 -99 -25 -7 -4 -23 -5 -37 -1 -17 4 -34 -1 -53
-14 -16 -11 -42 -22 -58 -25 l-30 -4 33 -2 c17 0 32 -4 32 -7 0 -13 -30 -34
-49 -34 -12 0 -21 -5 -21 -12 0 -6 3 -9 6 -5 4 3 14 -3 24 -15 15 -18 18 -19
30 -6 8 8 22 13 31 11 10 -3 27 5 38 16 12 12 27 21 34 21 21 0 37 22 37 52 0
30 17 38 27 13 5 -14 7 -14 22 -1 9 8 37 18 61 22 25 4 51 13 58 21 7 7 21 14
30 14 9 1 24 3 32 4 8 1 30 3 47 4 26 1 34 6 39 26 7 27 18 32 30 14 3 -6 0
-16 -7 -21 -10 -6 -6 -7 11 -3 14 4 36 19 50 33 14 14 18 20 9 14 -13 -10 -19
-9 -29 3 -16 20 -96 20 -134 0z"/>
<path d="M6018 3868 c-10 -10 -22 -18 -28 -18 -5 0 -10 -5 -10 -11 0 -6 -6 -9
-14 -6 -7 3 -18 1 -24 -5 -6 -6 -23 -12 -39 -14 -54 -6 -113 -27 -113 -40 0
-8 -6 -14 -13 -14 -7 0 -21 -6 -30 -13 -16 -11 -16 -14 -1 -36 15 -21 18 -21
26 -7 5 9 16 16 23 16 8 0 15 5 15 10 0 6 4 10 9 10 5 0 9 -11 9 -24 0 -18 -7
-26 -22 -28 -29 -4 -26 -22 4 -26 14 -2 30 -8 37 -14 11 -9 49 4 63 21 3 3 26
17 52 30 26 14 46 27 46 30 0 3 1 11 2 16 1 6 1 25 0 43 -1 26 2 32 19 32 14
0 21 -6 21 -19 0 -15 8 -21 32 -23 24 -2 34 -9 36 -23 2 -11 0 -16 -5 -10 -4
6 -23 11 -40 11 -28 2 -33 -1 -33 -21 0 -21 4 -23 43 -19 23 3 54 5 69 5 15 0
30 4 33 8 3 5 -4 7 -15 4 -23 -6 -28 18 -7 34 17 13 70 15 62 3 -3 -6 0 -10 9
-10 8 0 16 6 19 13 4 10 7 10 18 0 7 -7 30 -13 50 -13 43 0 69 -8 69 -21 0 -5
-10 -9 -23 -9 -18 0 -67 -38 -55 -43 2 -1 12 -7 23 -13 21 -12 52 -1 68 24 4
6 12 12 17 12 15 0 12 -21 -6 -41 -15 -16 -13 -18 30 -24 26 -4 49 -11 52 -16
3 -5 16 -9 30 -9 14 0 41 -7 62 -15 23 -9 31 -10 21 -2 -9 6 -19 23 -22 37 -6
23 -45 50 -73 50 -7 0 -19 8 -26 19 -7 10 -22 21 -34 25 -11 3 -30 19 -41 34
-12 16 -39 34 -64 42 -24 7 -51 19 -59 26 -8 6 -37 14 -65 17 -27 2 -63 10
-80 18 -45 19 -106 18 -127 -3z"/>
<path d="M5440 3576 c0 -19 -9 -20 -46 -6 -36 14 -43 5 -16 -20 12 -12 22 -30
22 -40 0 -25 -16 -26 -23 -1 -6 24 -65 54 -80 40 -7 -5 -38 -28 -70 -50 -31
-22 -55 -44 -52 -49 3 -5 25 -14 48 -20 23 -6 56 -16 72 -23 17 -8 52 -21 78
-29 49 -16 49 -16 91 12 23 16 54 32 69 35 15 4 27 11 27 15 0 4 14 13 30 20
17 7 30 16 30 21 0 17 -66 69 -105 82 -22 8 -48 18 -57 22 -13 5 -18 3 -18 -9z"/>
<path d="M6120 3457 c0 -9 -13 -18 -32 -22 -18 -4 -37 -10 -41 -12 -12 -7 23
-43 41 -43 9 0 31 -5 49 -12 26 -9 46 -9 94 1 51 10 64 10 82 -2 24 -15 87 -5
87 14 0 6 -9 8 -20 4 -11 -3 -20 -2 -20 3 0 12 -41 28 -135 52 -38 9 -78 21
-87 25 -13 5 -18 3 -18 -8z"/>
<path d="M7070 3457 c-65 -11 -92 -15 -118 -16 -12 -1 -30 -10 -39 -21 -10
-11 -27 -20 -39 -20 -12 0 -45 -10 -73 -23 l-52 -23 38 -13 c21 -8 51 -24 66
-37 16 -13 35 -24 43 -24 8 0 22 -4 32 -10 33 -18 224 -80 248 -80 12 0 26 -5
29 -10 4 -6 12 -7 18 -3 7 4 25 8 40 9 20 1 42 15 73 48 24 26 44 50 44 54 0
4 -24 18 -53 32 -28 14 -54 27 -57 30 -3 3 -35 25 -73 49 -37 24 -71 49 -75
55 -5 8 -21 9 -52 3z"/>
<path d="M5800 3434 c-15 -8 -55 -14 -102 -14 -42 0 -80 -4 -83 -10 -3 -5 -13
-10 -22 -10 -24 0 -103 -42 -97 -52 3 -4 0 -8 -7 -8 -9 0 -10 -3 -3 -10 7 -7
30 -3 70 11 62 21 201 29 213 11 3 -5 16 -14 29 -21 19 -10 22 -9 22 8 0 33
18 34 50 1 29 -30 63 -39 75 -20 3 5 20 7 37 3 l31 -6 -7 47 c-11 71 -32 86
-113 85 -38 -1 -79 -7 -93 -15z"/>
<path d="M5166 3382 c-7 -11 15 -72 26 -72 4 0 8 -11 8 -25 0 -22 2 -24 24
-13 26 11 56 5 56 -12 0 -5 -8 -10 -17 -10 -10 0 -25 -5 -33 -10 -11 -7 -2 -9
30 -5 25 3 56 13 70 23 14 9 37 24 53 31 15 8 27 17 27 21 0 3 -21 11 -46 18
-25 7 -65 21 -88 31 -53 24 -103 35 -110 23z"/>
<path d="M5587 3255 c-44 -24 -67 -55 -67 -92 0 -15 -6 -23 -17 -23 -27 0 -7
-11 29 -16 63 -9 81 -15 125 -45 23 -17 43 -26 43 -21 0 5 26 13 58 17 31 4
62 10 67 13 9 6 50 17 140 37 101 22 118 31 96 44 -7 5 -11 13 -7 19 14 23 -6
42 -45 42 -21 0 -39 -4 -39 -10 0 -5 5 -10 10 -10 6 0 10 -6 10 -14 0 -8 5
-16 12 -18 7 -3 9 -12 5 -22 -7 -17 -10 -16 -32 8 -14 15 -25 36 -25 47 0 17
-23 25 -61 21 -10 -1 -122 17 -169 28 -79 18 -90 18 -133 -5z"/>
<path d="M5280 3142 c-19 -2 -39 -8 -44 -13 -6 -5 -18 -9 -29 -9 -10 0 -15 -5
-12 -10 4 -6 11 -7 17 -4 10 7 98 -35 98 -46 0 -3 -4 -12 -10 -20 -8 -12 -11
-12 -28 3 -21 19 -42 22 -42 7 0 -5 4 -10 9 -10 5 0 13 -9 16 -20 4 -12 27
-41 51 -66 24 -25 44 -53 45 -62 0 -11 2 -12 6 -4 7 17 33 15 33 -3 0 -8 -7
-15 -17 -15 -13 0 -11 -5 8 -23 20 -19 27 -21 39 -11 9 7 35 16 59 20 33 5 45
13 54 33 6 14 31 48 54 76 24 27 43 57 43 66 0 21 -40 37 -110 43 -45 3 -58 9
-77 33 -13 15 -23 31 -23 34 0 6 -80 6 -140 1z"/>
<path d="M6075 3059 c-4 -6 -14 -8 -22 -5 -8 3 -12 2 -8 -3 3 -5 21 -8 40 -7
23 2 35 -1 35 -9 0 -10 -34 -13 -138 -13 -85 -1 -149 -5 -167 -13 -17 -7 -32
-13 -35 -14 -28 -10 -80 -39 -100 -56 l-25 -21 70 6 c40 3 87 14 110 26 49 25
57 25 72 1 10 -16 28 -21 90 -25 118 -8 157 -7 168 7 6 7 23 17 39 22 29 10
48 35 26 35 -27 0 -98 41 -103 60 -5 21 -41 28 -52 9z"/>
<path d="M6665 3028 c-27 -5 -54 -14 -60 -20 -7 -8 -6 -9 3 -4 7 4 12 1 12 -8
0 -9 7 -16 15 -16 8 0 15 -4 15 -9 0 -14 -21 -25 -29 -15 -18 25 -54 47 -100
59 -41 11 -52 11 -61 0 -6 -7 -7 -15 -3 -18 10 -6 74 -19 86 -17 4 1 20 -9 36
-22 16 -14 39 -23 57 -22 16 0 46 2 67 2 21 1 36 6 32 11 -12 20 17 22 31 2
14 -20 15 -20 44 10 33 35 28 47 -29 67 -38 14 -46 14 -116 0z"/>
<path d="M5148 2996 c-14 -10 -18 -31 -19 -117 -2 -116 5 -152 28 -147 19 4
26 17 47 90 9 32 23 64 31 71 18 18 15 33 -15 79 -26 40 -44 46 -72 24z"/>
<path d="M5849 2839 c-8 -5 -25 -9 -39 -9 -15 0 -30 -4 -35 -9 -11 -9 -221
-61 -252 -61 -10 0 -27 -7 -37 -15 -11 -8 -26 -15 -33 -15 -15 0 -53 -31 -53
-42 0 -8 41 -57 74 -89 25 -24 59 -35 64 -20 2 6 12 11 22 11 9 0 23 7 31 16
16 19 50 12 93 -20 19 -15 43 -23 63 -22 18 0 33 2 33 4 0 1 -9 11 -20 22 -11
11 -20 27 -20 36 0 17 11 12 49 -24 11 -10 16 -10 27 5 10 14 17 16 30 7 22
-13 26 -25 14 -44 -7 -12 -12 -12 -22 -2 -6 6 -16 12 -22 12 -6 0 -5 -5 2 -12
21 -21 13 -27 -25 -21 -36 5 -37 4 -17 -10 16 -12 29 -14 60 -7 55 13 74 12
74 -4 0 -21 -21 -31 -32 -15 -7 11 -8 9 -6 -6 3 -15 13 -21 46 -26 23 -3 42
-2 42 3 0 14 28 9 44 -8 15 -14 16 -14 16 4 0 22 30 36 70 33 64 -5 144 0 154
8 7 6 48 11 91 13 69 3 80 6 83 22 3 14 0 17 -12 13 -10 -4 -16 -1 -16 8 0 9
-9 12 -30 10 -21 -3 -30 0 -30 10 0 8 -7 15 -15 15 -9 0 -18 6 -21 14 -7 19
-24 25 -92 31 -63 6 -132 33 -132 52 0 7 -12 15 -27 19 -16 3 -45 19 -65 35
-20 16 -41 29 -47 29 -6 0 -18 11 -26 24 -19 29 -37 37 -56 25z"/>
<path d="M6053 2822 c-52 -20 -54 -34 -9 -50 18 -7 47 -26 64 -42 18 -17 46
-31 69 -35 80 -13 132 -27 150 -40 23 -19 53 -19 53 -1 0 8 7 16 15 20 9 3 15
18 14 38 0 27 -2 29 -8 13 -5 -11 -6 -26 -3 -34 3 -9 -1 -12 -14 -9 -13 2 -19
12 -19 28 0 37 -40 65 -87 61 -21 -1 -38 1 -38 6 0 4 -17 9 -38 10 -25 2 -44
11 -59 28 -25 28 -31 29 -90 7z"/>
<path d="M5326 2634 c-11 -8 -30 -14 -43 -14 -13 0 -23 -5 -23 -11 0 -6 -11
-20 -25 -31 -17 -13 -23 -24 -17 -32 12 -16 13 -64 2 -71 -13 -8 -13 -55 0
-55 5 0 7 7 4 15 -5 11 1 15 24 15 17 0 32 -5 34 -11 2 -7 19 -6 53 4 28 8 88
20 135 27 121 16 141 21 135 29 -2 5 -29 11 -59 14 -62 6 -89 21 -154 88 -43
44 -49 46 -66 33z"/>
<path d="M6465 2610 c-17 -7 -16 -9 10 -10 17 -2 36 -2 43 -1 19 3 14 -27 -8
-49 -11 -11 -20 -26 -20 -34 0 -18 27 -29 33 -13 2 8 13 8 44 -1 22 -7 56 -12
75 -12 19 0 53 -9 76 -20 22 -11 46 -20 52 -20 5 0 10 -6 10 -13 0 -19 43 -57
64 -57 15 0 16 3 6 15 -7 8 -19 15 -26 15 -8 0 -14 9 -14 20 0 13 -9 22 -25
26 -14 3 -25 12 -25 20 0 24 35 15 65 -16 19 -19 39 -30 57 -30 30 0 35 -9 16
-29 -7 -7 2 -4 19 6 33 18 46 37 19 27 -14 -5 -39 16 -82 72 -26 34 -54 43
-141 49 -41 3 -53 0 -53 -11 0 -8 -5 -14 -11 -14 -6 0 -9 8 -7 18 4 12 0 18
-11 18 -50 1 -71 5 -71 17 0 7 -15 18 -33 25 -38 14 -35 14 -62 2z"/>
<path d="M2664 2434 c3 -7 -8 -17 -25 -25 -26 -10 -38 -10 -73 3 -34 12 -46
13 -71 2 -32 -14 -32 -14 0 -20 11 -2 36 -7 55 -10 19 -4 40 -14 46 -23 7 -9
26 -15 48 -14 28 1 36 -3 36 -16 0 -32 21 -41 43 -20 22 20 52 25 61 10 3 -5
20 -11 37 -13 l30 -5 -25 24 c-14 13 -26 30 -26 38 0 18 16 20 23 3 4 -10 8
-9 16 2 9 12 13 12 33 -6 53 -48 123 -94 142 -94 23 0 27 38 5 45 -27 9 -24
36 4 33 12 -2 27 -6 32 -8 14 -7 45 -5 78 4 28 8 37 26 13 26 -7 0 -16 9 -19
21 -5 19 -10 20 -59 13 -29 -4 -66 -7 -82 -6 -15 1 -42 -6 -59 -14 -29 -15
-30 -15 -24 5 5 20 -2 25 -30 22 -6 -1 -14 3 -18 9 -5 8 -11 7 -22 -2 -12 -10
-17 -9 -27 2 -12 16 -64 15 -80 -1 -15 -14 -37 -11 -53 9 -8 9 -12 12 -9 6z"/>
<path d="M5510 2429 c-101 -11 -134 -49 -60 -68 26 -7 56 -21 66 -32 19 -22
50 -25 56 -7 3 9 9 8 21 -4 21 -21 164 -21 159 0 -1 7 7 22 18 34 30 33 25 48
-17 50 -79 3 -144 13 -152 24 -7 11 -21 12 -91 3z"/>
<path d="M5895 2381 c-6 -5 -26 -11 -45 -13 -22 -2 -34 -8 -32 -16 1 -7 -7
-22 -18 -34 -10 -11 -17 -24 -15 -28 5 -8 50 -18 108 -24 21 -2 44 -9 50 -15
15 -15 63 -14 79 2 14 14 52 16 64 4 11 -11 74 -8 74 3 0 6 -10 15 -22 20 -13
5 -36 18 -53 29 -16 12 -42 21 -57 21 -16 0 -42 13 -61 30 -36 31 -56 37 -72
21z"/>
<path d="M6120 2358 c0 -4 5 -8 11 -8 6 0 31 -14 56 -31 38 -27 52 -31 89 -26
54 6 81 -16 49 -39 -18 -13 -17 -14 7 -14 15 0 29 -4 32 -8 3 -4 21 -6 40 -4
52 6 47 28 -16 77 -7 6 -40 16 -73 23 -33 6 -90 18 -127 25 -38 8 -68 10 -68
5z"/>
<path d="M5804 2216 c6 -20 15 -36 21 -36 6 0 16 -9 23 -20 7 -11 18 -20 26
-20 7 0 26 -11 42 -25 16 -14 38 -26 49 -26 11 -1 62 -3 113 -5 61 -2 100 -9
114 -18 19 -13 23 -13 32 -1 14 19 59 8 52 -11 -3 -8 -1 -14 5 -14 7 0 9 10 5
25 -7 28 0 31 28 10 10 -8 23 -12 29 -8 5 3 14 -1 19 -8 7 -10 8 -8 3 8 -8 29
13 40 31 17 9 -11 13 -13 9 -6 -8 16 3 15 20 -2 12 -11 39 -14 88 -7 5 1 5 6
2 11 -12 19 18 10 36 -12 16 -18 19 -19 19 -4 0 31 -37 52 -137 80 -24 7 -48
17 -55 24 -7 7 -19 12 -29 12 -9 0 -28 9 -42 20 -27 22 -106 27 -150 11 -15
-6 -42 -5 -72 1 -36 8 -53 7 -72 -3 -19 -10 -31 -10 -56 -1 -18 6 -55 16 -82
21 -28 5 -57 12 -66 16 -14 5 -15 2 -5 -29z"/>
</g>
</svg>
