<?xml version="1.0" standalone="no"?>
<!DOCTYPE svg PUBLIC "-//W3C//DTD SVG 20010904//EN"
 "http://www.w3.org/TR/2001/REC-SVG-20010904/DTD/svg10.dtd">
<svg version="1.0" xmlns="http://www.w3.org/2000/svg"
 width="1228.000000pt" height="1956.000000pt" viewBox="0 0 1228.000000 1956.000000"
 preserveAspectRatio="xMidYMid meet">
<metadata>
Created by potrace 1.13, written by Peter Selinger 2001-2015
</metadata>
<g transform="translate(0.000000,1956.000000) scale(0.100000,-0.100000)"
fill="#000000" stroke="none">
<path d="M0 9780 l0 -9780 6140 0 6140 0 0 9780 0 9780 -6140 0 -6140 0 0
-9780z m6220 7640 l0 -150 -30 -6 c-37 -8 -38 -17 -3 -44 26 -20 28 -20 40 -4
7 10 10 26 7 36 -5 18 1 19 84 17 50 -1 95 -5 102 -9 7 -4 10 -29 8 -66 l-3
-59 -35 -5 c-29 -4 -36 -10 -38 -32 -3 -22 -10 -29 -37 -34 -27 -5 -35 -12
-40 -35 -5 -23 -12 -29 -33 -30 -27 -1 -26 -1 3 -8 21 -4 31 -13 33 -29 3 -18
10 -22 41 -22 35 0 39 3 44 29 5 23 12 30 34 33 27 3 28 5 29 61 1 32 4 61 8
64 3 3 42 6 87 7 115 1 119 -2 119 -121 0 -72 -3 -94 -12 -90 -26 9 -58 -12
-58 -38 0 -22 -4 -25 -35 -25 l-35 0 0 -65 0 -65 -34 0 c-41 0 -53 -14 -36
-44 8 -15 9 -34 3 -57 -8 -30 -14 -34 -44 -37 l-35 -3 0 -97 1 -97 -30 -3
c-60 -7 -50 -59 12 -64 32 -3 38 -7 45 -35 6 -22 15 -33 27 -33 15 0 18 8 17
59 0 33 3 63 7 68 5 4 63 9 130 10 67 1 128 2 135 3 6 0 12 11 12 24 0 31 15
36 115 36 93 0 95 -2 95 -75 0 -26 -6 -47 -15 -55 -22 -18 -164 -8 -180 13 -9
12 -10 -3 -7 -68 2 -46 1 -113 -3 -149 l-7 -66 -39 -6 c-21 -4 -40 -12 -41
-18 0 -6 -1 -18 -2 -26 -1 -11 -16 -16 -63 -18 -62 -3 -62 -3 -65 -35 l-3 -32
-69 -5 -69 -5 -1 -155 -1 -155 -25 -3 c-29 -4 -52 -22 -29 -22 8 0 26 -14 38
-31 16 -22 29 -29 43 -26 16 5 19 2 14 -16 -10 -41 8 -52 92 -55 67 -3 80 -1
86 13 3 9 2 24 -3 33 -11 21 -3 68 13 81 7 6 55 12 107 13 l94 3 3 33 3 32 65
0 65 0 -6 53 c-10 75 -4 78 151 75 l129 -3 -1 -63 -1 -63 111 3 111 3 5 30 c4
24 11 31 35 35 24 4 31 11 33 33 3 26 5 27 62 27 75 0 84 -13 78 -118 -5 -79
-13 -92 -59 -92 -25 0 -26 -2 -25 -62 l1 -63 -35 -5 c-31 -4 -35 -9 -38 -37
-3 -30 -6 -33 -38 -33 -28 0 -36 -5 -44 -25 -6 -16 -18 -26 -32 -26 -22 -2
-22 -2 -2 -6 14 -3 25 -15 30 -35 5 -17 15 -33 23 -36 11 -4 12 5 7 43 -7 42
-6 46 11 41 23 -7 40 4 44 29 4 19 12 20 144 20 162 0 153 7 145 -123 -5 -77
-5 -77 -35 -80 -41 -5 -56 -20 -49 -48 6 -22 4 -23 -68 -26 -71 -3 -73 -4 -76
-29 -3 -29 -23 -39 -79 -39 -30 0 -33 -3 -33 -30 0 -25 -5 -31 -32 -38 -23 -6
-34 -15 -38 -33 -3 -15 -19 -31 -43 -42 -45 -23 -49 -47 -7 -47 38 0 50 -23
50 -97 0 -101 -2 -103 -82 -103 -49 0 -68 4 -67 13 5 39 -1 47 -36 47 -32 0
-35 -2 -35 -30 0 -24 4 -30 23 -30 43 0 49 -13 49 -103 0 -47 -3 -90 -6 -96
-4 -6 -36 -11 -72 -11 l-64 0 0 -52 c0 -29 -4 -58 -8 -65 -4 -7 -34 -13 -70
-14 -52 -2 -62 -5 -62 -20 0 -42 -10 -49 -76 -49 -68 0 -87 -13 -76 -53 5 -20
2 -20 -134 -15 -76 3 -116 2 -89 -2 67 -9 84 -18 91 -46 7 -28 1 -101 -11
-128 -6 -14 -5 -18 6 -14 8 3 16 18 19 34 l5 29 163 3 162 2 0 -24 c0 -43 8
-53 41 -48 28 4 31 2 24 -17 -12 -38 10 -51 86 -51 66 0 69 1 84 30 15 29 32
37 123 55 37 8 43 31 10 38 -17 3 -15 5 8 6 28 1 32 -3 38 -30 5 -29 8 -30 48
-27 39 3 43 6 48 33 4 24 11 31 33 33 22 3 29 10 34 33 4 24 11 29 33 29 31 0
41 15 29 45 -10 25 -11 103 -3 173 l7 52 53 0 c43 0 55 -4 64 -20 6 -10 9 -24
8 -31 -2 -6 2 -13 8 -16 7 -2 10 20 10 64 l-1 68 73 3 72 3 0 35 c0 34 1 35
33 32 30 -3 32 -1 35 29 3 28 7 32 35 35 27 2 33 8 37 33 l5 30 94 3 c69 2 97
-1 103 -10 13 -21 10 -172 -4 -186 -7 -7 -24 -12 -40 -12 -26 0 -27 -2 -30
-62 -3 -63 -3 -63 -35 -66 l-33 -3 0 -170 0 -170 -97 3 -98 3 -5 30 c-4 25
-10 30 -35 33 l-30 3 28 -18 c27 -18 28 -20 25 -98 l-3 -80 -65 -3 -66 -3 1
28 c0 25 -4 28 -38 31 -34 3 -38 1 -43 -27 -5 -25 -12 -30 -38 -33 -28 -3 -31
-6 -31 -35 0 -31 -2 -33 -37 -33 -34 0 -37 -2 -40 -32 -2 -28 -8 -34 -32 -38
-17 -3 -29 -8 -28 -12 1 -5 2 -46 2 -93 l0 -85 50 0 c39 0 52 4 60 20 6 11 7
20 3 20 -4 0 1 7 11 15 11 8 37 15 58 15 36 0 38 2 38 30 l0 30 65 0 c64 0 64
0 73 33 l8 32 82 6 c46 4 86 9 90 13 3 4 7 17 7 29 0 19 7 23 45 27 40 4 45 8
48 32 2 20 10 28 33 33 l29 7 0 88 c0 89 10 114 42 109 7 -1 50 -1 96 0 l82 1
0 30 c0 26 3 30 29 30 29 0 41 14 41 51 0 16 7 19 54 19 90 0 86 7 86 -150 0
-160 -7 -187 -47 -192 -23 -2 -29 -8 -31 -35 -3 -29 -7 -32 -40 -35 -32 -3
-37 -7 -40 -30 -3 -28 -10 -32 -44 -29 -10 1 -18 -2 -18 -8 0 -5 15 -11 33
-13 l32 -3 0 -90 0 -90 -102 -3 -103 -3 -8 -32 c-7 -25 -13 -32 -33 -32 -15 1
-29 -8 -37 -23 -7 -13 -23 -27 -35 -32 -16 -6 -6 -9 41 -9 59 -1 63 -3 73 -28
21 -57 -15 -125 -57 -109 -10 4 -14 -3 -14 -28 0 -40 -11 -46 -85 -46 -50 0
-53 -1 -58 -30 -6 -28 -10 -30 -49 -30 -74 0 -90 -9 -86 -42 l5 -29 -108 3
c-100 3 -106 2 -97 -15 5 -10 20 -22 34 -27 21 -8 25 -16 22 -42 -2 -27 -8
-34 -28 -36 -35 -5 -50 -22 -19 -22 41 0 50 -13 47 -66 l-3 -48 -45 -3 c-25
-2 -64 -5 -87 -7 -41 -3 -43 -3 -43 25 0 22 -6 30 -24 35 -39 9 -51 -5 -26
-31 15 -16 20 -33 18 -56 -3 -30 -7 -34 -35 -37 -30 -3 -33 -6 -33 -38 l0 -34
-94 0 c-99 0 -113 -7 -107 -52 2 -16 -8 -18 -83 -18 -46 0 -96 4 -111 10 -17
7 -24 7 -20 0 3 -6 11 -10 17 -10 6 0 20 -7 30 -17 15 -13 18 -31 18 -100 l0
-83 -35 0 -35 0 0 -60 c0 -56 -2 -61 -26 -70 -14 -6 -48 -10 -75 -10 -48 0
-49 -1 -49 -29 0 -26 -4 -30 -32 -33 -29 -3 -33 -7 -36 -35 -3 -29 -7 -33 -32
-33 -25 0 -31 -5 -38 -32 -8 -32 -10 -33 -63 -33 -50 0 -54 2 -57 25 -8 54
-19 38 -19 -24 l1 -65 70 -3 71 -3 3 -68 c2 -57 6 -68 18 -63 9 3 24 6 35 6
17 0 19 8 19 100 l0 100 35 0 c31 0 35 3 41 34 5 31 10 35 43 38 33 3 36 6 36
33 0 27 3 30 33 32 41 2 64 20 57 44 -4 13 0 18 17 21 16 2 24 11 27 28 4 33
17 40 79 40 51 0 52 0 52 30 0 24 -4 30 -22 30 -42 0 -51 15 -49 71 1 29 7 57
14 61 6 5 32 7 57 6 41 -3 45 -6 48 -30 4 -32 16 -36 102 -34 l65 1 3 32 3 32
102 3 102 3 -3 96 -4 96 43 6 c24 3 55 3 69 1 22 -5 27 -1 35 28 8 25 16 34
37 36 25 3 26 6 26 58 0 31 5 61 11 67 8 8 47 12 107 12 l94 0 0 97 0 97 95 3
c90 3 95 2 95 -17 0 -29 19 -45 51 -45 24 0 28 -5 31 -32 3 -30 6 -33 41 -36
22 -2 35 -7 31 -13 -3 -6 -3 -20 0 -32 5 -21 9 -22 73 -17 l68 5 7 49 c11 79
7 76 112 76 76 0 95 -3 100 -16 8 -20 8 -123 0 -163 -6 -27 -10 -31 -40 -31
l-34 0 0 -69 0 -68 -35 4 c-35 4 -37 2 -39 -42 -1 -17 -9 -20 -63 -23 l-62 -3
-3 33 c-2 18 -6 32 -10 31 -5 -2 -37 -3 -73 -3 l-65 0 0 -30 c0 -28 -3 -30
-35 -30 -32 0 -35 -2 -35 -30 0 -29 0 -29 68 -32 l67 -3 3 -67 3 -68 -70 0
c-59 0 -72 -3 -81 -19 -5 -11 -7 -27 -4 -35 5 -12 -1 -16 -25 -16 -25 0 -31
-4 -31 -22 0 -34 -12 -46 -45 -50 -24 -2 -31 -9 -35 -33 -4 -25 -10 -30 -38
-33 -28 -3 -32 -7 -32 -33 0 -28 -7 -33 -41 -30 -15 2 -16 -10 -11 -107 6
-142 2 -158 -44 -166 -20 -4 -49 -4 -65 -1 -24 5 -29 12 -29 36 0 23 -4 29
-21 29 -46 0 -59 17 -59 80 l0 60 -34 0 c-34 0 -53 -20 -40 -42 12 -20 -22
-28 -119 -28 l-98 0 3 -27 c3 -27 5 -28 70 -31 64 -3 68 -4 75 -30 4 -15 8
-58 8 -97 l0 -70 -98 -3 -97 -3 -6 31 c-4 16 -10 30 -15 30 -11 0 -22 -38 -14
-50 4 -6 -6 -10 -23 -10 -31 0 -42 -14 -42 -54 0 -19 -4 -22 -29 -18 -26 4
-32 0 -45 -32 -12 -28 -21 -36 -41 -36 -19 0 -31 -9 -46 -35 l-21 -35 -79 0
-78 0 0 -54 c1 -68 -4 -76 -46 -76 -31 0 -34 -3 -37 -32 -3 -29 -7 -33 -34
-36 -21 -2 -35 -11 -42 -27 -7 -14 -23 -25 -41 -29 -17 -3 -44 -9 -61 -12 -16
-3 -31 -10 -31 -15 -1 -5 -3 -13 -4 -19 -1 -5 -3 -14 -4 -20 0 -5 -29 -10 -63
-12 -63 -3 -63 -3 -66 -35 -3 -28 -7 -32 -35 -35 -31 -3 -32 -4 -29 -45 3 -40
1 -44 -32 -64 -20 -11 -36 -22 -36 -22 0 -1 31 -1 69 1 l70 4 3 31 c3 28 7 32
37 35 31 3 33 5 28 35 -3 26 2 37 33 67 21 19 43 45 49 57 14 27 67 43 143 43
59 0 73 9 73 45 0 14 8 21 25 24 31 4 42 19 35 49 -5 20 -2 22 35 22 38 0 40
2 40 30 0 27 3 30 30 30 33 0 74 34 67 55 -4 8 5 15 23 19 19 3 35 16 45 36
l16 31 112 -3 112 -3 3 -67 3 -68 -35 0 -34 0 -4 -57 c-2 -32 -3 -61 -1 -65 3
-5 51 -8 109 -8 l104 0 0 35 c0 31 4 36 29 41 27 6 30 11 38 63 l8 56 70 5 70
5 3 33 3 32 100 0 99 0 0 59 c0 61 7 71 51 71 16 0 19 7 19 54 0 75 6 86 46
86 31 0 34 3 34 30 l0 30 98 0 c86 0 99 2 109 20 7 10 10 26 7 35 -5 12 2 15
30 15 l35 0 -6 64 -6 64 55 7 c30 4 63 5 73 3 16 -2 21 4 23 30 l3 32 65 0
c35 0 64 3 65 8 0 4 2 29 4 55 1 27 8 54 14 60 7 7 47 12 99 12 l87 0 0 -80
c0 -64 -3 -80 -15 -81 -30 -2 -32 -4 -20 -19 18 -21 9 -27 -47 -29 l-48 -1 3
-53 c4 -62 -8 -82 -50 -82 l-30 0 7 -50 c8 -59 -4 -80 -46 -80 -27 0 -28 -1
-31 -62 l-3 -63 -73 -3 c-65 -3 -73 -5 -67 -20 14 -36 17 -80 6 -101 -10 -18
-21 -21 -72 -21 -55 0 -64 -3 -89 -30 l-28 -30 58 0 c65 0 70 -5 70 -70 0 -66
-4 -70 -80 -70 -72 0 -87 -11 -75 -51 6 -17 0 -19 -65 -19 l-71 0 6 -44 c10
-65 1 -84 -43 -88 -34 -3 -37 -6 -40 -35 -3 -28 -7 -32 -35 -35 -28 -3 -32 -7
-32 -33 l-1 -30 -91 -3 -92 -3 -3 33 c-3 38 -32 47 -34 11 -1 -13 -2 -27 -3
-33 0 -5 -22 -10 -47 -10 -45 0 -46 0 -25 -17 17 -15 21 -31 23 -93 l3 -75 67
-3 c61 -3 67 -5 72 -27 4 -14 3 -43 0 -65 l-7 -41 44 3 c41 3 44 5 44 31 -1
23 3 27 27 27 28 0 28 1 28 65 l0 65 34 0 c34 0 46 13 46 50 0 14 9 20 33 22
28 3 32 7 35 36 3 29 6 32 37 32 l33 0 -1 63 -2 62 64 3 c69 3 93 19 83 54 -4
15 2 18 32 18 34 0 36 1 36 35 0 33 2 35 34 35 32 0 35 3 38 33 3 28 7 32 36
35 28 3 32 7 32 32 0 25 4 29 33 32 32 3 32 4 29 50 -4 58 10 86 45 90 22 2
29 9 33 33 4 25 10 30 38 33 17 2 33 9 34 15 0 7 1 19 2 27 1 11 14 15 56 15
l55 0 6 -35 c4 -20 7 -26 8 -13 0 12 11 29 23 37 l22 16 -22 0 c-22 0 -23 3
-20 68 l3 67 58 3 c35 2 64 -2 73 -9 21 -17 19 -108 -3 -125 -17 -13 -17 -13
0 -14 16 0 18 -8 15 -62 l-3 -63 -65 0 c-64 0 -65 0 -71 30 -4 17 -7 -11 -8
-67 l-1 -98 -35 0 -35 0 2 -57 c3 -58 3 -58 -32 -70 l-35 -12 32 0 c40 -1 45
-16 41 -121 l-3 -75 -40 -5 c-26 -3 -40 -10 -41 -20 -3 -48 -4 -50 -34 -50
-25 0 -30 -4 -30 -24 0 -28 -16 -43 -50 -48 -19 -2 -26 -10 -28 -30 -3 -27 -5
-28 -63 -28 -33 0 -59 -4 -59 -10 0 -5 7 -10 15 -10 8 0 24 -9 35 -20 17 -17
20 -32 19 -79 -2 -58 -2 -58 -38 -68 l-36 -10 32 -2 c30 -1 32 -4 38 -45 11
-74 7 -81 -55 -83 -93 -5 -122 -13 -151 -44 -21 -22 -38 -30 -73 -33 -49 -3
-62 5 -68 44 -2 18 -10 26 -28 28 l-25 4 22 -21 c27 -25 38 -61 29 -96 -5 -21
-12 -25 -41 -25 -34 0 -35 -1 -35 -41 l0 -42 -69 7 c-69 7 -70 7 -83 -21 -11
-24 -20 -29 -68 -34 l-55 -6 62 -1 c59 -2 62 -3 65 -29 3 -25 7 -28 38 -28 31
0 35 3 40 30 5 29 7 30 75 35 l70 5 -4 59 c-4 65 4 76 55 76 22 0 36 8 52 30
18 23 30 30 58 30 42 0 54 -23 54 -110 0 -79 -5 -90 -46 -90 l-34 0 0 -104 0
-105 -37 -3 c-35 -3 -38 -6 -38 -33 -1 -26 -4 -30 -30 -30 l-30 -1 -3 -68 c-1
-51 1 -67 10 -63 33 10 49 -62 23 -97 -8 -11 -15 -23 -15 -28 0 -10 50 -11 51
0 1 4 3 29 5 55 4 55 19 80 44 72 14 -4 19 2 24 33 5 36 8 39 38 38 30 -1 33
2 36 32 l3 32 100 0 99 0 0 -34 c0 -32 3 -35 32 -38 39 -4 54 -36 44 -90 -6
-31 -11 -37 -41 -42 -34 -7 -53 -34 -40 -56 3 -5 -3 -10 -14 -10 -32 0 -35 -1
-48 -12 -7 -6 -13 -21 -13 -34 0 -20 -5 -24 -29 -24 l-28 0 5 -91 c5 -99 1
-109 -49 -109 -20 0 -30 -7 -39 -29 -8 -20 -21 -31 -38 -34 -26 -4 -25 -4 3
-6 17 0 36 -6 43 -13 12 -12 17 -143 6 -172 -5 -14 -34 -16 -215 -16 l-209 0
0 -64 c0 -76 5 -74 -169 -73 l-116 0 0 -29 c0 -29 1 -29 65 -32 35 -2 71 -8
78 -15 17 -13 11 -92 -7 -110 -7 -7 -40 -14 -74 -17 -58 -5 -62 -7 -65 -32 -2
-20 -10 -28 -33 -33 -37 -8 -33 -27 9 -40 l32 -9 0 -108 0 -109 -102 3 -103 3
-5 30 c-4 24 -11 31 -35 35 -29 5 -30 7 -36 70 -5 57 -10 60 -13 10 -1 -13
-28 -15 -169 -18 -138 -2 -169 -5 -174 -17 -6 -18 15 -47 29 -39 5 3 30 3 56
-1 43 -6 48 -9 47 -32 0 -21 6 -28 33 -35 17 -5 33 -15 33 -23 1 -8 2 -20 3
-27 0 -6 7 -13 14 -16 8 -2 12 7 12 26 0 32 14 42 60 42 46 0 60 -10 60 -41 0
-26 3 -29 35 -29 49 0 68 -46 49 -118 -6 -21 -11 -23 -63 -20 -47 3 -58 7 -66
26 -10 22 -25 30 -25 13 0 -27 -34 -41 -95 -41 -62 0 -64 1 -67 27 -4 32 -26
41 -114 42 -49 1 -63 -2 -68 -15 -12 -30 3 -53 37 -56 l32 -3 0 -60 0 -60 42
-3 c29 -2 41 1 40 10 -2 52 2 58 41 58 27 0 53 10 83 30 53 36 100 39 129 8
17 -18 20 -35 20 -100 l0 -79 38 3 c34 3 37 6 40 35 l3 32 66 3 67 3 -3 62 -2
62 38 3 c21 2 39 9 39 16 1 6 2 21 3 33 1 19 6 20 135 17 74 -2 132 0 129 5
-2 4 -10 7 -18 7 -32 0 -45 30 -45 106 0 71 1 75 26 84 29 11 91 13 158 4 40
-6 46 -10 46 -31 0 -13 7 -26 15 -29 8 -3 17 -21 21 -40 3 -19 10 -34 14 -34
13 0 19 26 9 41 -5 8 -9 33 -9 57 0 41 1 42 26 36 34 -9 44 7 44 73 l0 52 73
3 72 3 3 32 c3 32 3 32 65 35 62 3 62 3 65 36 3 29 6 32 36 32 40 0 57 18 49
48 -5 20 -1 22 31 22 33 0 36 2 36 29 0 26 4 30 32 33 28 3 34 8 38 33 4 25
10 31 37 33 28 3 32 7 35 35 3 32 3 32 68 37 60 5 65 7 69 30 4 29 17 40 48
40 16 0 22 7 25 27 2 22 9 29 33 33 24 4 31 11 35 35 4 24 11 31 33 33 23 3
28 8 25 25 -2 17 -9 22 -33 21 -27 -1 -30 1 -31 32 0 19 3 35 8 35 12 2 22 5
38 12 8 4 35 11 60 15 39 7 45 11 45 32 0 24 4 25 65 30 63 5 65 6 70 35 4 25
10 30 38 33 l33 3 -5 52 c-3 29 0 57 6 64 6 8 33 13 65 13 47 0 54 -2 49 -16
-9 -23 12 -44 43 -44 42 0 51 -17 51 -100 0 -63 -3 -78 -20 -93 -11 -9 -26
-14 -35 -11 -12 5 -15 -5 -15 -59 0 -36 -4 -68 -9 -71 -4 -3 -22 -7 -40 -8
-29 -2 -31 -5 -31 -38 0 -35 -1 -36 -35 -32 l-36 4 3 -52 c3 -53 3 -53 -32
-64 l-35 -10 32 -4 c40 -4 45 -19 41 -127 l-3 -80 -107 -3 c-76 -2 -108 -6
-109 -15 -1 -7 -2 -21 -3 -32 -1 -15 -9 -21 -33 -23 -29 -3 -33 -7 -33 -33 0
-26 3 -29 34 -29 42 0 46 -10 46 -109 0 -84 -8 -101 -51 -101 -28 0 -42 -20
-33 -45 5 -12 -2 -15 -30 -15 -34 0 -36 -2 -36 -34 0 -28 -4 -33 -22 -33 -45
-1 -48 -3 -48 -37 l0 -34 -67 5 c-71 5 -83 -2 -83 -44 0 -22 -3 -23 -97 -24
-54 -1 -89 -4 -79 -6 39 -10 56 -44 53 -107 l-2 -59 -40 -13 c-39 -12 -39 -12
-10 -13 17 -1 36 -6 43 -13 16 -16 16 -100 0 -116 -7 -7 -38 -12 -69 -12 -59
0 -69 7 -69 51 0 15 -7 19 -35 19 -31 0 -35 -3 -41 -35 -6 -34 -7 -35 -55 -35
l-48 0 24 -25 c21 -20 25 -34 25 -88 0 -36 -5 -68 -12 -75 -7 -7 -48 -12 -108
-13 -124 -2 -155 -9 -155 -34 0 -27 -13 -35 -56 -35 -40 0 -63 -19 -53 -44 5
-12 0 -16 -19 -16 -32 0 -40 -11 -31 -45 5 -20 12 -25 35 -25 36 0 52 -33 43
-91 l-7 -39 77 0 c53 0 76 4 77 13 1 6 2 17 4 22 1 6 3 16 3 23 1 6 13 12 27
12 23 0 24 4 27 63 l3 62 35 5 c29 4 36 10 38 32 3 24 9 28 49 34 25 4 85 4
134 2 l88 -5 -32 21 c-29 20 -32 27 -35 81 -6 107 -7 106 106 103 l97 -3 3
-32 c3 -32 4 -33 52 -33 57 0 71 14 41 41 -38 36 -15 108 30 94 14 -5 20 0 25
22 3 15 7 33 9 39 2 6 17 9 34 6 30 -4 31 -3 31 34 l0 39 86 -3 c91 -4 104 1
108 39 6 44 19 84 30 91 6 4 37 8 69 8 54 0 57 1 57 25 0 26 32 47 57 38 7 -3
13 8 15 29 2 27 8 34 28 36 29 4 52 21 45 32 -3 5 -2 15 1 24 5 12 21 16 71
16 l66 0 -7 48 c-9 67 4 81 79 86 l60 4 0 64 c0 61 1 63 24 60 29 -4 41 12 41
58 1 76 5 80 81 80 l68 0 9 32 c6 25 14 34 34 36 19 2 27 10 32 33 5 24 10 29
35 29 26 0 30 4 33 33 3 32 3 32 62 35 63 3 76 -4 76 -45 0 -14 6 -23 15 -23
12 0 15 -15 15 -71 0 -61 -2 -70 -16 -65 -13 5 -15 -4 -12 -69 l3 -74 -35 -3
c-34 -3 -35 -4 -38 -53 -4 -59 -15 -75 -53 -75 -24 0 -29 -4 -29 -25 0 -21 -6
-27 -31 -32 -28 -5 -29 -7 -13 -16 11 -6 25 -18 32 -28 7 -10 28 -19 50 -21
l37 -3 0 -65 0 -65 -72 -3 -72 -3 -3 -32 -3 -32 -67 -3 -68 -3 0 -34 c0 -33
-2 -35 -35 -35 -32 0 -35 -2 -35 -30 0 -28 2 -30 40 -30 31 0 40 -4 41 -17 3
-40 -3 -178 -8 -185 -2 -5 -19 -8 -38 -8 -31 0 -34 -3 -37 -32 -3 -29 -7 -33
-35 -36 -26 -3 -32 -8 -35 -30 -3 -25 -8 -28 -65 -36 -60 -9 -61 -10 -67 -45
-4 -20 -7 -46 -7 -58 -1 -19 -8 -22 -75 -28 -40 -4 -86 -5 -101 -1 l-28 6 26
-15 c15 -8 29 -21 33 -30 4 -12 24 -15 93 -15 145 0 134 15 131 -179 l-3 -166
-36 -3 -36 -3 1 -53 c1 -73 -10 -83 -83 -78 l-60 4 -3 -33 c-3 -30 -7 -34 -35
-37 -28 -3 -32 -7 -35 -35 -3 -32 -4 -32 -60 -35 l-58 -3 0 30 c0 16 -5 33
-11 36 -18 12 -23 -4 -9 -29 8 -15 10 -38 6 -60 -7 -34 -6 -35 31 -38 l38 -3
0 -75 c0 -74 0 -75 -27 -78 -24 -3 -28 -9 -35 -55 -8 -50 -10 -52 -46 -61 -52
-13 -91 2 -95 36 -2 21 -9 28 -30 30 -21 2 -28 9 -32 33 -6 36 -24 36 -28 0
-2 -18 -11 -27 -34 -33 -22 -6 -32 -14 -33 -30 -1 -12 -5 -25 -9 -29 -4 -5
-82 -8 -173 -8 l-165 0 6 -48 c4 -27 2 -55 -4 -67 -11 -20 -18 -20 -320 -18
-326 3 -329 3 -315 -41 4 -14 29 -16 222 -13 120 2 246 0 281 -3 l62 -7 0 -63
c0 -62 1 -64 28 -67 20 -2 28 -9 30 -28 2 -14 8 -29 13 -35 6 -6 7 12 3 49 -8
69 5 86 65 86 45 0 58 -8 66 -43 4 -15 13 -27 21 -27 31 0 54 -39 54 -90 l0
-50 34 0 c35 0 46 13 46 51 0 18 7 20 102 17 l103 -3 3 -82 c5 -120 3 -123
-119 -123 l-100 0 2 -47 c3 -81 3 -83 -35 -83 -35 0 -51 -19 -44 -51 2 -11
-17 -14 -92 -14 l-95 0 -5 30 c-5 27 -9 30 -40 30 -31 0 -35 -3 -40 -30 -5
-29 -6 -30 -73 -33 -62 -3 -67 -5 -67 -25 0 -29 -18 -47 -47 -47 -19 0 -23 -5
-23 -29 0 -33 -14 -41 -73 -41 -51 0 -62 7 -62 40 0 24 -2 25 -79 28 -72 3
-78 1 -71 -15 15 -34 17 -83 5 -98 -8 -10 -33 -15 -74 -16 -92 -2 -121 -11
-119 -36 2 -18 -4 -22 -38 -25 -65 -6 -108 2 -102 18 8 22 -16 44 -48 44 -26
0 -29 4 -29 30 l0 30 -78 0 -78 0 0 -27 1 -28 -100 0 -100 0 -5 30 c-3 17 -9
29 -13 28 -4 -2 -18 -3 -32 -3 -20 0 -27 -6 -31 -30 l-6 -30 -173 0 c-192 0
-185 -2 -185 68 1 20 7 48 15 62 8 14 14 35 15 48 0 20 5 22 49 22 45 0 50 -2
59 -30 11 -29 47 -48 74 -37 7 3 3 6 -8 6 -55 2 -63 93 -11 119 17 9 0 11 -78
9 l-100 -2 -5 -30 c-5 -29 -7 -30 -75 -35 -58 -4 -79 -11 -119 -38 -50 -33
-105 -42 -136 -22 -16 10 -27 131 -16 174 6 23 11 25 79 28 69 3 72 4 72 28
l0 25 -195 5 -195 5 -3 33 c-3 25 -8 32 -24 32 -17 0 -19 -4 -13 -27 14 -53
16 -118 6 -145 -8 -20 -18 -27 -43 -30 l-33 -3 -1 -62 -1 -62 71 -3 71 -3 3
-67 3 -68 69 0 70 0 0 29 c0 39 15 48 84 48 51 1 61 4 71 24 17 31 37 37 123
38 l73 1 -3 -67 -3 -68 -35 -5 c-29 -4 -36 -10 -38 -32 -3 -28 -7 -29 -112
-40 -19 -2 -26 -10 -28 -31 -4 -31 6 -29 -163 -27 -116 1 -126 -4 -113 -56 5
-21 3 -24 -19 -24 -34 0 -38 -8 -43 -98 -6 -97 -7 -101 -37 -95 -33 7 -41 -10
-15 -33 15 -14 22 -16 25 -6 15 40 20 -15 25 -235 3 -137 3 -279 -1 -318 l-6
-70 -32 -3 -33 -3 0 -542 c0 -298 -3 -552 -6 -564 -6 -24 -3 -26 49 -37 27 -6
27 -7 27 -86 0 -78 0 -79 -27 -82 -35 -4 -43 -28 -9 -28 34 0 48 -30 44 -92
-3 -44 0 -51 16 -54 27 -4 38 -18 41 -56 3 -46 -2 -56 -36 -63 -20 -5 -29 -13
-29 -26 0 -18 -11 -19 -285 -19 -247 0 -285 2 -285 15 0 12 -15 15 -77 14 -43
0 -72 -3 -65 -6 36 -14 0 -23 -98 -23 l-111 0 3 118 3 117 38 3 38 3 -7 70 -7
69 31 0 c17 0 34 5 38 11 6 10 11 69 13 157 1 18 7 22 31 22 l30 0 2 503 3
502 33 3 32 3 0 142 c1 78 5 162 9 186 12 58 6 71 -34 71 -38 0 -45 12 -45 73
0 54 8 65 50 69 23 2 34 8 32 17 -6 30 9 51 38 51 28 0 28 0 28 66 l1 66 -34
-4 c-33 -4 -34 -2 -37 32 -3 31 -6 35 -35 38 -29 3 -33 7 -33 33 0 27 -3 29
-35 29 -27 0 -34 4 -33 18 4 55 16 52 -216 52 -228 0 -246 -4 -231 -50 6 -18
2 -20 -42 -20 l-49 0 -18 90 c-12 56 -16 107 -12 136 3 28 2 43 -4 39 -6 -3
-10 -17 -10 -31 0 -19 -5 -24 -25 -24 -31 0 -33 -17 -3 -22 27 -4 36 -35 45
-156 l6 -92 -111 0 -112 0 0 78 c0 81 4 88 60 114 8 4 -33 7 -92 7 l-107 1 6
-100 6 -101 -144 3 -144 3 -3 29 c-5 43 5 72 30 84 18 8 4 11 -74 11 l-98 1 0
35 0 35 -70 0 -70 0 0 43 c0 23 7 53 16 66 14 20 23 22 69 19 49 -3 52 -2 49
20 -2 22 5 56 21 94 5 13 2 18 -9 18 -9 0 -17 -6 -18 -12 0 -7 -2 -17 -2 -23
-3 -21 -18 -35 -37 -35 -11 0 -24 -11 -31 -25 -10 -22 -41 -38 -92 -47 -15 -2
-19 -13 -21 -58 -1 -30 -6 -71 -11 -90 l-10 -35 -172 -3 -172 -2 0 65 c0 77 2
78 129 73 l81 -3 0 33 0 32 -205 0 -205 0 0 30 c0 30 0 30 -57 30 -67 0 -86 9
-88 42 -2 23 -2 23 -171 28 l-169 5 -5 30 c-5 29 -7 30 -75 35 l-70 5 -3 100
-3 100 -63 -3 -64 -4 1 34 c2 32 0 33 -38 36 -22 2 -43 8 -46 13 -3 6 -4 37
-2 70 l5 59 -36 0 -36 0 0 234 0 235 46 7 c54 8 332 0 357 -11 14 -6 17 -20
17 -71 0 -35 4 -64 8 -64 5 0 8 -10 8 -22 -1 -20 6 -23 54 -30 30 -5 122 -7
204 -6 l150 3 -3 97 -3 96 56 7 c31 4 62 5 71 1 15 -5 16 -1 19 47 1 10 7 21
14 26 18 11 4 40 -22 46 -11 3 -46 6 -76 7 l-55 3 -3 63 -3 62 -243 0 -244 0
-4 28 c-2 15 -1 59 3 97 6 76 -1 96 -29 78 -11 -7 -16 -22 -15 -39 2 -27 0
-29 -37 -29 -41 -1 -47 4 -30 21 15 15 2 41 -23 48 -12 3 -50 6 -84 6 -60 0
-62 1 -68 31 -4 16 -4 61 -1 100 l7 69 -36 0 -35 0 0 99 c0 94 1 99 23 105 30
8 288 6 307 -2 8 -4 15 -18 15 -32 0 -25 1 -25 102 -28 l102 -3 7 -34 6 -35
72 0 c88 0 116 -7 116 -30 0 -21 20 -39 57 -50 l28 -8 -27 -1 c-29 -1 -38 -18
-15 -27 7 -2 49 -8 92 -12 79 -7 80 -7 85 -37 l5 -30 240 -3 c252 -3 255 -3
255 -49 0 -22 3 -23 109 -23 99 0 109 2 106 17 -2 10 -4 22 -4 27 -1 5 -11 0
-24 -12 -30 -28 -99 -29 -147 -3 l-35 19 0 73 0 74 -67 0 c-62 0 -67 2 -63 20
7 28 -16 53 -50 57 -29 3 -30 4 -33 66 l-3 62 35 0 c30 0 35 4 41 30 6 25 11
30 38 31 27 0 29 2 12 8 -11 5 -23 7 -27 4 -5 -2 -8 3 -8 12 0 21 -24 45 -43
45 -45 0 -47 6 -47 141 l0 129 34 0 c28 0 35 4 40 25 9 35 1 45 -35 45 -25 0
-29 4 -29 29 0 17 -4 32 -9 36 -12 7 -32 -28 -29 -47 2 -9 -12 -13 -52 -13
l-55 0 -3 98 -3 98 -72 -3 -72 -3 -3 -33 -3 -33 -62 3 -62 3 -5 65 c-4 45 -7
56 -10 35 l-5 -30 -100 0 -100 0 3 75 c3 59 8 80 25 98 11 12 27 22 35 22 9 0
13 2 10 5 -3 3 -19 2 -36 -1 -25 -5 -34 -13 -40 -38 -7 -26 -13 -30 -34 -28
-22 3 -26 -2 -32 -32 -7 -35 -8 -36 -54 -37 -89 -2 -95 3 -86 77 6 51 6 51
-24 57 -24 5 -31 12 -34 34 l-3 28 -142 3 c-138 2 -143 3 -148 25 -4 18 -2
102 4 130 0 4 16 16 34 27 l32 20 -62 0 -63 0 0 30 0 30 -98 0 c-135 0 -137 2
-129 119 l6 91 -35 0 c-22 0 -33 4 -29 11 4 5 4 20 1 32 -4 19 -12 22 -58 21
-66 -1 -88 10 -88 41 0 24 -3 25 -55 25 l-55 0 0 139 c0 130 1 139 20 144 15
4 20 14 20 36 l0 31 83 -1 c97 -1 112 -6 112 -39 0 -23 5 -25 52 -30 45 -5 87
-20 55 -20 -7 0 -12 -8 -12 -19 0 -27 50 -31 349 -31 l257 0 9 33 c8 25 17 33
40 37 24 4 30 10 30 30 0 20 -5 25 -25 25 -21 0 -27 7 -34 38 l-10 37 -137 0
c-153 0 -149 -3 -149 82 0 40 7 48 54 58 43 8 43 41 0 52 -24 6 -33 15 -37 38
-5 24 -12 30 -31 30 -26 0 -49 28 -44 52 2 7 -11 15 -32 18 l-35 5 -3 61 c-3
62 -3 62 -37 68 l-35 7 0 98 c0 111 0 111 87 111 41 0 42 -1 45 -37 3 -34 6
-37 33 -38 26 0 30 -4 33 -32 l3 -32 142 -3 142 -3 0 -65 0 -65 32 3 c30 3 32
1 35 -35 3 -36 5 -38 35 -37 28 0 32 -4 38 -33 l6 -33 99 0 99 0 3 -32 3 -33
67 -3 c64 -3 67 -4 70 -30 3 -26 6 -27 68 -32 65 -5 65 -5 68 -37 2 -21 9 -33
18 -33 17 0 18 10 1 43 -8 15 -12 40 -9 57 l4 30 102 0 102 0 -1 -27 c0 -27 1
-28 69 -33 67 -5 70 -6 78 -35 5 -16 6 -47 2 -67 l-6 -38 143 0 142 0 -6 57
c-3 32 -3 77 0 100 l6 43 208 0 208 0 3 -32 c2 -18 9 -34 16 -34 6 -1 17 -2
22 -3 6 0 10 -12 10 -25 0 -30 16 -36 102 -36 l71 0 -6 34 c-5 33 -4 35 26 38
27 2 33 8 35 31 3 22 8 27 32 27 24 0 31 5 36 28 10 49 13 53 44 63 38 14 39
37 3 41 -22 2 -29 9 -33 33 -5 30 -6 30 -73 32 l-67 2 0 -64 c0 -70 -5 -75
-82 -75 -63 0 -68 5 -68 75 l0 63 -67 -2 -68 -2 -1 -51 c-1 -27 -4 -55 -8 -62
-4 -6 -29 -11 -57 -11 -46 0 -49 2 -49 25 0 18 -6 26 -22 29 -85 17 -78 9 -78
85 0 85 5 100 42 115 25 11 17 12 -57 8 -93 -5 -115 3 -115 44 0 21 -5 24 -34
24 -32 0 -35 3 -38 33 -3 31 -4 32 -55 35 -49 3 -52 4 -50 29 2 29 -19 40 -80
42 -26 1 -33 -3 -33 -18 0 -44 -10 -51 -70 -51 l-59 0 -3 33 c-3 30 -6 32 -39
32 -36 0 -37 1 -32 31 5 30 3 31 -36 38 l-41 6 -1 58 c-1 40 -3 49 -8 32 -6
-23 -12 -25 -69 -28 l-62 -3 0 54 c0 51 2 55 31 69 28 14 20 15 -100 11 -125
-4 -131 -3 -131 16 0 44 -10 51 -69 51 -31 0 -62 4 -69 9 -10 6 -13 38 -11
132 l2 124 -134 3 c-73 1 -137 6 -141 10 -5 5 -9 54 -10 110 -2 106 5 126 47
142 14 6 1 9 -42 9 -58 1 -63 3 -63 24 0 33 -11 43 -44 43 -24 0 -31 5 -39 30
-11 38 -1 213 14 230 8 10 37 14 103 14 l91 0 0 -32 c0 -32 1 -33 45 -36 74
-4 88 -9 86 -34 -1 -18 7 -24 39 -33 l40 -12 3 -62 3 -63 69 4 69 4 -2 -36 -2
-35 88 -3 c86 -3 91 -5 86 -38 -2 -16 32 -24 104 -24 l77 0 -2 -32 -3 -33 58
-3 c57 -3 59 -4 53 -28 -5 -20 -2 -26 19 -34 15 -6 37 -10 50 -10 19 0 24 -6
27 -32 3 -29 7 -34 38 -38 29 -4 35 -9 35 -30 0 -24 3 -25 67 -28 66 -3 68 -4
75 -33 l8 -30 90 -2 c102 -3 115 -8 115 -43 0 -16 6 -24 18 -24 25 0 42 -19
42 -48 0 -31 24 -24 29 9 4 34 17 39 96 38 87 0 155 -12 166 -30 5 -8 7 -35 3
-61 l-6 -47 53 -3 c45 -3 55 -7 68 -31 l16 -27 178 -3 c149 -2 177 0 175 12
-3 14 -19 25 -50 35 -15 4 -18 17 -18 71 0 62 1 66 28 76 15 6 47 8 72 5 37
-5 42 -4 25 6 -11 6 -26 20 -33 30 -11 15 -27 18 -88 18 -70 0 -74 -1 -74 -22
0 -29 11 -43 30 -43 11 0 16 -13 18 -44 6 -89 11 -86 -148 -86 -137 0 -142 1
-161 24 -15 19 -19 39 -19 110 0 88 14 131 44 131 19 0 62 37 54 45 -4 4 -21
-4 -38 -19 -28 -23 -40 -26 -111 -26 l-79 0 0 30 c0 31 -3 34 -52 44 -27 6
-28 9 -28 66 l0 60 -34 0 c-51 0 -64 8 -58 35 3 21 -1 25 -32 30 -20 4 -45 5
-55 2 -15 -4 -18 1 -17 32 l1 36 -55 3 c-99 4 -100 5 -100 66 0 31 5 58 13 64
6 6 39 9 72 7 49 -3 54 -3 26 5 -19 4 -42 18 -51 30 -11 14 -32 23 -65 28 -45
7 -50 10 -55 37 l-5 30 -110 5 -110 5 -3 33 c-3 32 -5 34 -36 28 l-32 -6 3 62
c4 62 13 78 44 78 10 0 33 16 52 35 l35 35 -98 0 -99 0 -3 27 c-2 22 -9 29
-33 33 -25 4 -29 10 -30 35 0 26 -4 30 -32 33 -26 3 -32 8 -35 30 -2 21 -10
28 -40 35 l-37 9 -3 131 -3 132 -27 -3 c-16 -2 -28 0 -29 5 -4 52 -21 77 -46
68 -22 -8 -35 24 -31 77 3 52 3 53 -27 56 -41 5 -46 12 -49 73 -3 53 -4 54
-34 57 -29 3 -32 6 -32 38 0 33 -10 41 -44 35 -16 -3 -26 23 -26 72 0 48 5 55
47 61 14 2 18 12 19 47 0 24 1 70 2 102 l2 57 93 0 c50 0 98 -4 105 -8 9 -6
13 -46 15 -138 l2 -129 24 0 c28 0 44 -36 42 -92 l-2 -33 100 0 c123 0 127 -4
118 -122 l-6 -78 34 0 c32 0 34 -2 37 -37 3 -33 7 -39 36 -47 32 -9 34 -11 32
-55 -2 -25 -2 -50 -1 -56 0 -5 29 -10 63 -10 62 0 63 0 72 -32 8 -25 17 -33
42 -38 39 -7 48 -27 38 -90 l-6 -45 31 0 c27 0 31 -4 31 -25 0 -16 7 -28 18
-31 30 -9 47 -21 48 -33 1 -6 2 -18 3 -27 1 -19 26 -13 27 7 4 50 2 49 57 49
29 0 58 -5 65 -12 7 -7 12 -36 12 -65 0 -49 -2 -53 -27 -59 -44 -9 -50 -12
-25 -13 14 -1 26 -10 32 -26 9 -25 10 -25 138 -25 135 0 152 -5 152 -47 0 -20
5 -22 68 -25 50 -2 66 -6 64 -17 -7 -32 9 -51 44 -51 31 0 34 -2 34 -30 0 -17
6 -33 13 -36 7 -2 58 -3 112 -2 l100 3 -44 32 c-30 22 -51 30 -72 28 -27 -4
-29 -2 -26 28 2 30 0 32 -35 35 -33 3 -37 6 -40 35 -2 27 -8 33 -31 35 -33 4
-50 38 -45 92 3 33 1 35 -32 40 l-35 5 -3 68 -3 68 173 -3 174 -3 -32 32 c-29
28 -40 32 -96 35 -63 3 -63 3 -66 35 -3 29 -7 32 -40 35 -36 3 -37 4 -40 47
-3 34 2 49 19 67 12 13 30 24 40 24 10 0 21 9 24 21 4 11 21 27 38 34 22 10
26 14 12 14 -33 -1 -66 -13 -67 -24 0 -5 -11 -20 -25 -32 -23 -22 -32 -23
-193 -23 -92 0 -175 3 -184 6 -9 4 -16 18 -16 34 0 25 -4 29 -32 32 -32 3 -33
5 -41 58 -9 65 -20 79 -47 62 -19 -12 -20 -9 -20 46 0 86 12 97 103 95 74 -1
147 -23 147 -42 0 -6 9 -11 21 -11 29 0 19 21 -20 44 -26 15 -56 19 -167 21
-74 1 -138 5 -141 9 -11 10 -18 98 -13 146 5 44 6 45 45 50 50 7 65 16 65 41
0 19 9 20 88 19 4 0 9 30 12 67 l5 68 78 3 c77 3 78 2 72 -19 -5 -14 -2 -25 6
-30 18 -11 71 -11 101 0 15 5 46 3 89 -8 l66 -16 9 -55 c9 -54 10 -55 54 -70
33 -11 45 -20 45 -34 0 -29 45 -38 160 -31 55 4 101 8 103 9 1 2 -2 16 -8 31
-8 22 -15 26 -35 21 -21 -5 -24 -2 -27 26 l-3 33 -100 5 c-79 4 -100 8 -101
20 -2 36 -5 40 -32 40 -34 0 -52 16 -52 47 0 22 -4 22 -102 25 l-103 3 -3 33
c-3 28 -7 32 -35 33 -18 1 -34 1 -37 1 -3 0 -5 14 -5 31 l0 32 -68 3 c-76 3
-97 -7 -97 -44 0 -22 -4 -24 -53 -24 l-52 0 0 33 c0 29 -3 32 -35 37 -28 4
-35 10 -36 28 -1 12 -3 24 -5 27 -3 2 -35 5 -72 6 l-67 2 0 33 0 33 -72 3 -73
3 3 33 c3 31 2 32 -32 32 -29 0 -36 4 -36 19 0 45 -9 51 -75 51 l-64 0 -3 31
-3 31 -95 0 c-52 0 -100 4 -107 10 -9 7 -13 41 -13 104 l0 94 -30 0 c-25 0
-30 4 -30 24 0 28 -8 35 -44 38 -19 2 -26 8 -26 24 0 41 -9 51 -41 46 -27 -4
-30 -2 -25 15 3 10 -1 28 -9 39 -8 10 -15 29 -15 41 0 24 -8 27 -90 41 l-45 8
4 124 c2 69 5 128 8 133 2 4 15 7 29 7 14 0 34 5 45 10 20 11 27 40 9 40 -5 0
-10 4 -10 8 0 5 25 9 55 9 60 0 60 0 45 -27 -12 -23 0 -32 55 -40 l40 -5 3
-62 3 -62 62 -3 c60 -3 62 -4 67 -33 5 -27 9 -30 47 -33 37 -3 42 -6 45 -30 2
-21 9 -28 31 -30 24 -3 27 -8 27 -38 l0 -34 53 0 c61 0 74 -7 78 -40 4 -24 7
-25 103 -30 l100 -5 8 -32 9 -33 99 0 99 0 9 -32 c8 -33 9 -33 82 -38 72 -5
75 -6 75 -30 0 -24 2 -25 85 -28 91 -3 110 -11 110 -48 0 -21 5 -24 40 -24 37
0 40 2 40 29 0 33 17 41 93 41 46 0 47 1 47 30 0 27 -3 30 -30 30 -27 0 -30 3
-30 30 0 20 -5 30 -15 30 -10 0 -15 -10 -15 -30 l0 -30 -65 0 -65 0 0 64 c0
68 6 76 56 76 22 0 25 4 22 28 -3 26 -5 27 -70 30 l-67 3 -3 32 c-3 28 -7 32
-36 35 -26 3 -32 7 -27 21 7 23 -11 38 -50 43 -30 3 -30 4 -33 70 -2 54 -6 66
-18 61 -20 -8 -44 15 -44 43 0 20 -5 24 -29 24 -44 0 -52 18 -49 112 l3 83 35
4 35 4 -35 6 -35 6 -3 128 -3 127 38 1 38 2 -35 6 -35 6 -3 63 -3 62 48 1 c41
0 45 2 24 10 -14 5 -34 8 -45 7 -19 -3 -21 3 -24 53 -3 54 -2 57 23 63 14 4
30 4 34 1 10 -6 21 18 21 45 0 14 9 20 32 22 28 3 34 8 38 33 4 26 10 31 45
36 22 3 32 7 23 8 -9 0 -29 12 -45 25 -16 13 -42 26 -58 28 -26 2 -30 8 -33
35 -3 32 -3 32 -65 35 -56 3 -62 5 -62 25 0 29 -9 36 -58 42 -37 5 -42 9 -45
34 -3 23 -8 27 -33 27 -26 0 -29 3 -29 34 0 32 -3 35 -32 38 -29 3 -32 7 -33
33 0 26 -4 31 -34 35 -30 4 -36 10 -44 40 -10 40 -3 148 11 162 5 5 49 8 98 6
l89 -3 5 -30 c4 -25 10 -31 37 -33 28 -3 32 -7 35 -35 l3 -32 68 -3 c67 -3 67
-3 67 -32 0 -33 19 -42 78 -40 58 3 60 2 64 -27 3 -28 4 -28 80 -31 l77 -3 3
-32 c2 -25 8 -33 27 -35 28 -4 43 15 36 46 -5 22 -5 22 115 22 l120 0 -6 -25
c-5 -21 -1 -26 22 -36 16 -6 39 -9 51 -6 30 6 52 -8 36 -24 -8 -8 -9 -18 -2
-31 8 -15 22 -18 74 -18 64 0 65 0 73 -31 l8 -32 104 -2 c69 -2 87 0 53 4 -69
9 -94 32 -91 84 3 39 2 41 -27 41 -26 1 -30 5 -33 33 -3 28 -7 32 -35 35 -18
2 -33 9 -33 16 -1 6 -2 21 -3 32 -1 19 -8 20 -101 20 -92 0 -100 2 -100 19 0
43 -10 51 -65 51 -52 0 -54 1 -52 28 2 24 -2 27 -33 30 -65 5 -82 11 -76 30 8
24 -5 39 -34 43 -19 3 -26 11 -28 32 -2 16 -10 31 -18 34 -8 3 -14 14 -14 25
0 11 -8 22 -20 25 -11 3 -20 9 -20 14 0 5 -9 9 -20 9 -14 0 -20 7 -20 23 0 13
-9 26 -22 32 -14 6 -25 22 -28 40 -5 26 -10 30 -35 29 l-30 -1 3 96 c2 75 7
99 19 109 11 7 49 12 101 12 79 0 83 -1 77 -20 -9 -28 11 -50 46 -50 23 0 28
-5 31 -27 2 -22 10 -30 41 -38 21 -6 35 -14 32 -17 -4 -4 -4 -16 0 -27 5 -18
15 -21 58 -21 61 0 74 -7 78 -40 3 -20 11 -26 39 -30 31 -4 35 -9 38 -37 3
-30 6 -33 37 -33 31 0 34 -3 32 -27 l-2 -28 78 -3 77 -3 0 29 c0 16 2 31 5 33
2 3 26 3 52 -1 37 -4 50 -10 59 -28 7 -13 25 -32 42 -42 17 -10 33 -28 37 -39
3 -12 10 -21 15 -21 5 0 16 -13 25 -29 15 -30 25 -35 85 -45 32 -5 33 -5 9 4
-14 6 -31 21 -37 35 -6 13 -21 25 -34 27 -14 2 -29 15 -38 35 -8 18 -23 33
-32 33 -9 0 -26 15 -37 34 -12 19 -32 37 -46 40 -15 4 -28 18 -36 40 -7 19
-16 33 -20 30 -33 -20 -64 58 -32 81 25 19 8 33 -47 37 -44 3 -45 2 -48 -30
l-3 -33 -62 3 c-59 3 -62 4 -65 31 -3 25 -7 27 -50 28 -26 1 -58 4 -72 8 -23
7 -25 12 -25 67 l0 59 -33 3 c-28 3 -32 6 -27 23 12 36 -12 49 -86 49 l-69 0
0 109 0 110 30 -1 c36 -1 48 8 32 24 -21 21 -14 25 46 27 31 1 65 4 75 7 14 4
17 -1 17 -30 l0 -36 75 0 75 0 0 -35 0 -35 109 0 109 0 0 64 0 65 -37 3 -36 3
-3 53 c-4 70 7 82 73 82 55 0 65 -8 65 -51 0 -17 8 -19 59 -19 58 0 60 -1 66
-31 5 -21 15 -34 34 -40 14 -5 31 -19 36 -32 7 -16 20 -23 48 -25 35 -3 37 -5
37 -38 l0 -34 65 0 c59 0 65 2 71 23 3 13 4 41 2 63 l-3 39 -122 5 c-146 6
-152 10 -153 108 0 58 2 63 20 57 21 -7 60 10 60 25 0 6 -13 10 -28 10 -15 0
-33 5 -40 12 -16 16 -16 170 0 186 7 7 39 12 74 12 42 0 63 4 67 13 8 21 -9
40 -39 43 -15 2 -31 9 -36 16 -7 10 -2 177 5 185 1 1 29 3 62 4 l60 3 5 -35
c4 -30 9 -34 37 -37 26 -3 32 -8 35 -30 2 -18 10 -28 28 -32 18 -4 25 -13 25
-30 0 -16 7 -26 18 -28 16 -3 18 0 11 20 -4 12 -6 40 -5 60 2 35 0 37 -34 44
-29 5 -36 10 -32 25 6 22 -9 35 -42 37 -35 2 -41 17 -41 115 l0 87 99 0 99 0
6 -30 c3 -16 11 -30 17 -30 7 0 9 9 3 28 -10 34 -13 108 -7 144 4 22 12 28 37
30 27 3 31 7 34 36 3 28 7 32 33 32 19 0 29 5 29 15 0 12 15 15 75 15 l75 0 0
-150z m1044 -3256 c10 -27 7 -134 -5 -157 -18 -33 -28 -37 -101 -37 -96 0 -98
1 -98 76 l0 64 39 0 c40 0 51 11 51 51 0 16 7 19 54 19 40 0 55 -4 60 -16z
m1706 -614 c0 -6 11 -19 24 -31 16 -14 22 -27 18 -45 -4 -25 3 -27 69 -28 14
0 16 -9 14 -63 -2 -34 -6 -67 -10 -73 -3 -5 -33 -10 -66 -10 l-59 0 -1 -45
c-2 -68 -2 -69 -29 -82 -29 -15 -100 -10 -111 8 -5 8 -9 -2 -11 -26 -2 -32 -8
-40 -28 -46 -39 -11 -129 -10 -151 1 -17 10 -19 7 -19 -29 0 -45 -9 -51 -78
-51 -67 0 -74 7 -70 76 l3 59 68 3 c69 3 74 7 68 51 -2 7 2 10 8 6 6 -3 11 -2
11 4 0 6 35 9 90 8 71 -2 90 -5 92 -17 1 -8 4 21 7 65 l6 80 52 3 c44 3 53 0
67 -20 14 -19 16 -20 16 -5 0 10 -15 33 -34 51 -30 28 -34 38 -35 81 0 40 5
54 22 67 24 19 67 24 67 8z m117 -7034 c12 -12 12 -120 0 -128 -27 -17 -88 -8
-112 17 -30 29 -35 98 -9 113 18 10 111 8 121 -2z m540 -202 c13 -4 20 -10 17
-15 -3 -5 -2 -9 3 -9 9 0 9 -67 0 -76 -3 -3 -4 -11 -1 -18 8 -20 -107 -12
-122 9 -11 15 -13 11 -16 -26 -3 -41 -5 -44 -38 -52 -22 -5 -47 -4 -64 2 -25
10 -27 15 -24 58 l3 48 63 0 c58 -1 62 1 62 22 0 48 53 74 117 57z"/>
<path d="M7125 15168 c-2 -7 -5 -22 -7 -33 -2 -12 -12 -21 -28 -23 -14 -2 -38
-16 -55 -30 l-30 -27 95 0 c52 0 98 5 102 10 4 6 8 20 8 32 0 16 5 21 20 18
26 -5 25 -3 -7 34 -20 23 -36 31 -61 31 -18 0 -34 -6 -37 -12z"/>
<path d="M5306 14911 c-2 -3 -6 -18 -10 -33 -6 -28 -7 -28 -94 -30 l-87 -1 79
-6 c67 -5 81 -9 94 -28 8 -13 23 -23 32 -23 35 0 50 -12 50 -40 0 -28 1 -28
68 -32 l68 -3 -34 33 c-22 20 -45 32 -63 32 -24 0 -29 5 -33 33 -3 17 -5 47
-3 66 2 31 0 33 -31 36 -18 1 -34 0 -36 -4z"/>
<path d="M4518 14751 c13 -24 25 -30 65 -35 50 -7 97 -40 97 -69 0 -17 -39
-54 -65 -60 -11 -3 24 -5 78 -6 76 -1 97 2 97 13 0 7 -11 21 -24 30 -21 13
-24 21 -19 51 l6 35 -54 0 c-72 0 -121 15 -149 45 -34 36 -54 33 -32 -4z"/>
<path d="M6544 14759 c23 -18 27 -28 24 -63 -3 -38 -6 -41 -33 -44 -20 -2 -37
-13 -50 -32 -11 -16 -29 -33 -40 -38 -21 -10 -15 -10 118 3 32 4 57 11 58 18
1 7 2 19 3 27 1 10 15 16 44 18 l44 3 -7 38 c-6 34 -3 41 25 65 l32 26 -123 0
-122 0 27 -21z"/>
<path d="M4895 14165 c63 -37 67 -44 63 -116 l-3 -69 32 0 c28 0 32 -3 35 -32
2 -27 8 -33 36 -40 25 -7 32 -14 32 -33 0 -19 5 -25 23 -25 28 0 51 -15 43
-28 -3 -6 -3 -17 0 -26 5 -13 25 -16 114 -16 102 0 109 1 115 21 8 26 -8 39
-48 39 -16 0 -26 4 -22 10 3 6 3 19 0 30 -5 15 -15 20 -39 20 -66 0 -94 11
-105 40 -7 21 -17 29 -38 32 -22 2 -29 9 -33 33 -4 25 -11 31 -40 35 -22 3
-35 11 -36 20 -2 35 -5 40 -22 40 -24 0 -42 19 -42 46 0 18 -7 23 -41 26 -32
3 -38 1 -24 -7z"/>
<path d="M6417 13963 c-4 -3 -7 -16 -7 -28 0 -17 -8 -24 -30 -28 -25 -6 -30
-11 -30 -36 0 -26 -4 -30 -32 -33 -29 -3 -33 -7 -36 -35 -3 -28 -7 -32 -35
-35 -27 -2 -32 -7 -32 -28 l0 -25 110 0 c91 0 110 3 111 15 3 46 5 49 37 52
27 2 33 8 35 31 3 22 10 29 33 34 24 5 29 10 29 35 0 27 -3 30 -25 24 -39 -10
-107 4 -101 20 10 27 -10 54 -27 37z"/>
<path d="M7788 10883 c-23 -4 -28 -9 -28 -33 0 -28 -15 -40 -50 -40 -10 0 -28
-14 -40 -30 -22 -30 -23 -31 -103 -28 -81 3 -82 3 -85 31 -3 23 -8 27 -35 27
-18 0 -50 2 -72 5 -35 4 -37 4 -10 -4 43 -13 113 -49 117 -61 2 -6 1 -36 -2
-68 l-5 -57 -52 -3 c-51 -3 -53 -2 -53 22 0 14 -4 27 -9 30 -14 9 -34 -22 -28
-43 4 -18 -1 -19 -122 -17 l-126 2 -5 30 c-4 21 -12 30 -28 32 -31 5 -55 -17
-49 -43 3 -21 1 -22 -75 -19 -77 3 -97 -5 -59 -26 50 -26 65 -65 35 -94 -11
-12 -35 -16 -89 -16 l-74 0 2 27 c2 23 -3 29 -22 31 -22 3 -23 1 -18 -27 6
-30 6 -31 -33 -31 -28 0 -40 -4 -41 -15 -1 -8 -2 -21 -3 -27 -1 -9 23 -15 74
-18 l75 -5 3 -44 c6 -85 1 -91 -78 -91 -59 0 -70 -3 -75 -19 -3 -10 -4 -25 -3
-32 2 -10 -13 -15 -59 -17 -63 -3 -79 -15 -67 -47 5 -11 23 -15 75 -15 65 0
69 1 69 23 0 40 18 47 125 47 112 0 129 6 120 41 l-6 24 128 0 128 0 3 33 3
32 66 0 65 0 -7 49 c-10 74 1 87 77 90 62 2 82 13 73 39 -5 13 12 23 48 27 12
1 25 3 29 4 4 0 8 13 10 29 2 19 9 28 26 30 15 2 22 10 22 26 0 29 18 46 51
46 20 0 30 7 39 30 13 31 27 37 90 42 31 3 35 6 33 30 -1 24 2 27 35 30 34 3
37 6 40 36 2 22 -1 32 -10 31 -7 -1 -25 -4 -40 -6z"/>
<path d="M7817 10072 c-107 -3 -108 -3 -118 -30 -14 -37 -25 -41 -83 -35 l-50
6 42 -37 c35 -32 44 -36 61 -26 12 6 24 22 27 35 7 27 9 28 131 26 71 -1 73 0
89 30 8 17 14 32 12 32 -2 1 -52 1 -111 -1z"/>
<path d="M7397 9933 c-4 -3 -7 -16 -7 -29 0 -27 -17 -34 -80 -34 -27 0 -55 -3
-64 -6 -22 -8 -20 -44 2 -45 9 -1 -14 -6 -53 -13 -60 -9 -70 -14 -70 -31 0
-17 8 -20 60 -23 86 -4 108 3 101 33 l-6 25 101 0 102 0 -6 51 c-4 28 -12 57
-18 65 -12 15 -51 19 -62 7z"/>
<path d="M4320 9546 l0 -64 158 -3 159 -4 37 -32 c52 -46 106 -45 84 2 -8 19
-20 23 -78 28 -71 6 -127 27 -137 53 -3 8 -19 14 -38 14 -31 0 -34 3 -37 33
l-3 32 -72 3 -73 3 0 -65z"/>
<path d="M3058 9260 c-1 -44 -2 -88 -2 -97 -1 -14 7 -18 39 -18 33 0 40 4 41
20 1 11 2 25 3 32 1 6 16 13 34 15 27 2 32 7 32 28 0 21 -5 26 -32 28 -18 2
-34 9 -34 15 -1 7 -2 17 -4 22 -1 6 -3 16 -3 23 -1 7 -16 12 -37 12 l-35 0 -2
-80z"/>
<path d="M4392 7563 l3 -28 143 -3 c132 -2 142 -1 142 16 0 37 -19 42 -158 42
l-133 0 3 -27z"/>
<path d="M7298 7323 c-34 -4 -38 -7 -38 -32 0 -27 -3 -29 -60 -35 -53 -6 -61
-10 -66 -32 -7 -29 0 -137 11 -153 3 -6 33 -11 65 -11 l59 0 7 36 c6 33 9 36
35 32 l29 -5 0 104 c0 57 -1 102 -2 101 -2 -1 -20 -3 -40 -5z"/>
<path d="M5638 5878 c-2 -25 -9 -34 -27 -38 -21 -5 -25 -12 -25 -49 -1 -39 -5
-45 -36 -63 l-35 -19 100 3 100 2 3 -32 c2 -23 8 -32 22 -32 33 0 50 -12 50
-35 0 -18 7 -25 31 -30 17 -4 32 -5 33 -3 2 1 6 45 9 96 l6 92 -50 0 c-62 0
-89 13 -89 45 0 18 -6 24 -27 27 -23 2 -29 8 -31 36 -4 42 -30 43 -34 0z"/>
</g>
</svg>
