<?xml version="1.0" standalone="no"?>
<!DOCTYPE svg PUBLIC "-//W3C//DTD SVG 20010904//EN"
 "http://www.w3.org/TR/2001/REC-SVG-20010904/DTD/svg10.dtd">
<svg version="1.0" xmlns="http://www.w3.org/2000/svg"
 width="1124.000000pt" height="1356.000000pt" viewBox="0 0 1124.000000 1356.000000"
 preserveAspectRatio="xMidYMid meet">
<metadata>
Created by potrace 1.13, written by Peter Selinger 2001-2015
</metadata>
<g transform="translate(0.000000,1356.000000) scale(0.100000,-0.100000)"
fill="#000000" stroke="none">
<path d="M0 6780 l0 -6780 5620 0 5620 0 0 6780 0 6780 -5620 0 -5620 0 0
-6780z m6418 6002 c2 -13 -2 -22 -10 -22 -8 -1 -4 -8 10 -19 12 -11 22 -26 22
-35 0 -9 5 -16 10 -16 6 0 10 5 10 10 0 6 9 10 20 10 25 0 26 -28 3 -46 -10
-7 -31 -14 -48 -15 l-30 -1 28 -11 c17 -7 27 -18 27 -32 0 -11 9 -27 20 -35
11 -8 20 -20 20 -28 0 -23 27 -42 59 -42 21 0 31 -5 31 -15 0 -19 7 -19 27 1
14 14 17 13 34 -5 27 -29 24 -51 -7 -51 -14 0 -23 4 -19 9 3 5 1 12 -5 16 -5
3 -10 -1 -10 -9 0 -11 -9 -16 -27 -16 -25 -1 -26 -2 -10 -14 21 -16 22 -32 2
-40 -8 -3 -15 -1 -15 4 0 6 -4 10 -10 10 -14 0 -6 -43 8 -48 7 -2 12 4 12 13
0 14 7 16 38 12 20 -3 29 -3 20 -1 -25 8 -23 44 2 44 12 0 20 -7 20 -16 0 -18
53 -74 69 -74 6 0 11 -4 11 -10 0 -5 18 -10 41 -10 35 0 40 2 34 19 -5 16 0
20 22 23 16 2 27 8 25 16 -1 6 7 12 17 12 11 0 23 5 26 10 13 22 85 8 85 -16
0 -10 -13 -14 -45 -14 -41 0 -45 -2 -45 -25 0 -16 -6 -25 -16 -25 -15 0 -44
-23 -44 -34 0 -3 9 -6 20 -6 16 0 20 -7 20 -35 0 -32 -2 -35 -29 -35 -16 0
-31 6 -34 13 -2 6 -3 2 -1 -10 2 -11 1 -35 -2 -52 -6 -26 -11 -31 -35 -31 -16
0 -29 -4 -29 -10 0 -5 14 -10 30 -10 17 0 30 -4 30 -10 0 -5 -9 -10 -20 -10
-11 0 -20 -7 -20 -15 0 -8 9 -15 20 -15 16 0 20 -7 20 -30 0 -16 -4 -30 -10
-30 -5 0 -10 -16 -10 -35 0 -32 3 -35 28 -35 15 0 33 -5 39 -11 7 -7 20 -9 30
-5 14 6 15 9 4 16 -8 4 -12 17 -8 29 3 14 0 21 -9 21 -8 0 -14 9 -14 20 0 13
7 20 20 20 13 0 20 7 20 20 0 11 7 20 15 20 8 0 15 5 15 10 0 6 9 10 20 10 13
0 20 -7 20 -20 0 -11 -7 -20 -15 -20 -8 0 -15 -9 -15 -20 0 -13 -7 -20 -20
-20 -11 0 -20 -4 -20 -10 0 -5 9 -10 20 -10 11 0 20 -7 20 -15 0 -9 9 -15 25
-15 21 0 25 -5 25 -30 0 -16 5 -30 10 -30 6 0 10 -9 10 -20 0 -11 7 -20 16
-20 8 0 12 -5 9 -11 -4 -6 2 -13 14 -16 12 -3 21 -9 21 -14 0 -5 7 -9 15 -9 8
0 15 -9 15 -20 0 -11 5 -20 10 -20 6 0 10 9 10 20 0 30 40 27 41 -2 0 -13 3
-17 6 -10 6 14 33 16 33 2 0 -5 19 -10 41 -10 30 0 47 -6 60 -22 11 -11 19
-16 19 -10 0 25 29 11 33 -15 4 -26 4 -25 6 5 1 40 21 62 55 62 14 0 26 5 26
10 0 6 -4 10 -10 10 -5 0 -10 11 -10 25 0 18 5 25 20 25 11 0 20 -7 20 -15 0
-10 11 -15 35 -15 28 0 35 -4 35 -20 0 -11 -4 -20 -9 -20 -5 0 -11 -9 -14 -20
-3 -13 0 -20 9 -20 8 0 14 7 14 16 0 18 48 64 67 64 6 0 13 -10 15 -22 2 -13
9 -22 16 -21 6 2 12 -6 12 -17 0 -11 -6 -19 -12 -18 -8 2 -13 -7 -13 -22 0
-14 -6 -31 -12 -38 -7 -7 -13 -19 -12 -25 0 -9 2 -8 6 1 6 14 33 16 33 2 0 -5
12 -10 26 -10 21 0 25 -4 21 -20 -4 -17 0 -20 29 -20 27 0 34 -4 34 -20 0 -11
-4 -20 -10 -20 -5 0 -10 -11 -10 -25 0 -14 5 -25 10 -25 14 0 12 -38 -2 -42
-9 -3 -8 -9 4 -21 18 -19 38 -22 38 -7 0 6 9 10 20 10 16 0 20 -7 20 -35 0
-19 5 -35 10 -35 6 0 10 16 10 35 0 19 -4 35 -10 35 -5 0 -10 9 -10 20 0 11 5
20 10 20 6 0 10 9 10 20 0 13 7 20 20 20 11 0 20 -4 20 -10 0 -5 7 -10 15 -10
12 0 15 -13 15 -55 0 -42 -3 -55 -15 -55 -8 0 -15 -4 -15 -10 0 -5 9 -10 20
-10 11 0 20 5 20 10 0 6 7 10 15 10 8 0 15 -9 15 -20 0 -11 -4 -20 -10 -20 -5
0 -10 -4 -10 -10 0 -5 9 -10 20 -10 13 0 20 -7 20 -20 0 -11 7 -20 16 -20 8 0
12 5 9 10 -4 6 22 10 69 10 74 0 76 -1 76 -25 0 -14 -4 -25 -10 -25 -5 0 -10
-9 -10 -20 0 -11 5 -20 10 -20 6 0 10 -9 10 -20 0 -15 7 -20 25 -20 20 0 25
-5 25 -25 0 -21 5 -25 30 -25 20 0 30 5 30 15 0 8 6 15 14 15 9 0 12 7 9 20
-4 14 0 20 11 20 9 0 16 8 16 20 0 13 7 20 20 20 13 0 20 -7 20 -20 0 -16 7
-20 34 -20 34 0 46 -13 46 -50 0 -10 -6 -21 -12 -24 -10 -3 -8 -8 4 -16 9 -6
15 -17 12 -25 -4 -9 0 -15 10 -15 13 0 16 -11 16 -55 0 -54 0 -55 -30 -55 -24
0 -30 4 -31 23 l-2 22 -4 -22 c-3 -15 -12 -23 -24 -23 -10 0 -19 -4 -19 -10 0
-5 5 -10 10 -10 6 0 10 -16 10 -35 0 -25 4 -35 16 -35 17 0 44 -23 44 -38 0
-5 11 -7 25 -4 15 2 25 0 25 -7 0 -6 14 -11 30 -11 24 0 30 -4 31 -22 0 -13 3
-17 6 -10 2 6 13 12 24 12 16 0 19 -7 19 -44 0 -35 -4 -45 -20 -49 -14 -4 -18
-10 -13 -23 4 -11 8 -13 11 -6 6 20 42 14 42 -7 0 -15 8 -21 33 -23 25 -2 32
-7 30 -23 -1 -11 2 -22 5 -25 12 -8 42 -59 42 -70 0 -5 -7 -10 -15 -10 -11 0
-15 -13 -15 -54 0 -34 -5 -57 -12 -60 -10 -5 -10 -7 0 -12 6 -3 12 -18 12 -34
0 -37 10 -61 21 -54 5 3 9 -6 9 -20 0 -22 5 -26 29 -26 20 0 30 6 34 20 4 17
14 20 54 20 37 0 52 -5 63 -20 8 -11 22 -20 32 -20 13 0 18 -8 18 -25 0 -28
-12 -32 -30 -10 -7 8 -17 15 -23 15 -5 0 0 -8 11 -19 12 -10 22 -30 22 -45 0
-21 5 -26 25 -26 25 0 26 -1 23 -62 -3 -60 -4 -63 -30 -66 -16 -2 -28 1 -28 7
0 6 -4 11 -9 11 -5 0 -7 -9 -4 -20 4 -15 0 -20 -16 -20 -14 0 -21 6 -21 20 0
11 -4 20 -10 20 -5 0 -10 -4 -10 -10 0 -5 -11 -10 -25 -10 -14 0 -25 -4 -25
-10 0 -5 7 -10 16 -10 13 0 15 -7 10 -31 -3 -17 -6 -38 -6 -45 0 -8 -9 -14
-20 -14 -16 0 -20 7 -20 35 0 35 -16 47 -26 20 -4 -8 -17 -15 -30 -15 -22 0
-29 10 -25 33 2 11 -25 37 -38 37 -6 0 -11 -4 -11 -10 0 -5 5 -10 10 -10 15 0
12 -40 -2 -41 -10 0 -10 -2 0 -6 6 -2 12 -12 12 -22 0 -9 5 -22 12 -29 8 -8 8
-15 -2 -27 -10 -12 -10 -18 0 -30 10 -12 10 -18 0 -30 -9 -10 -9 -15 -1 -15 6
0 11 -9 11 -20 0 -11 6 -20 14 -20 8 0 17 -6 19 -12 3 -7 3 2 0 20 -5 28 -3
32 16 32 14 0 21 -6 21 -20 0 -11 -4 -20 -10 -20 -5 0 -10 -4 -10 -10 0 -5 9
-10 20 -10 11 0 20 -6 21 -12 0 -10 2 -10 6 0 8 20 33 14 33 -8 0 -11 -4 -20
-10 -20 -5 0 -10 -23 -10 -51 0 -65 -14 -79 -79 -79 -52 0 -62 8 -36 30 8 7
15 16 15 21 0 5 -13 -5 -29 -21 -15 -17 -35 -30 -44 -30 -20 0 -30 29 -16 46
9 11 6 14 -15 14 -19 0 -26 5 -26 20 0 13 7 20 19 20 14 0 20 9 23 35 3 24 0
35 -9 35 -9 0 -13 17 -13 55 0 30 -4 55 -10 55 -5 0 -10 9 -10 20 0 11 -7 20
-15 20 -8 0 -15 -4 -15 -10 0 -5 5 -10 10 -10 15 0 12 -60 -4 -76 -8 -8 -22
-14 -30 -14 -23 0 -20 -33 4 -50 23 -16 27 -60 6 -60 -8 0 -16 7 -20 15 -3 8
-15 15 -26 15 -11 0 -20 5 -20 10 0 6 -5 10 -11 10 -14 0 -39 -25 -39 -39 0
-6 -6 -11 -13 -11 -7 0 -13 -9 -13 -20 0 -11 6 -20 13 -20 7 0 13 -9 13 -20 0
-11 -4 -20 -10 -20 -6 0 -10 -35 -10 -84 0 -47 5 -88 10 -91 14 -9 12 -45 -3
-45 -8 0 -11 -14 -9 -45 4 -44 4 -45 -27 -45 -22 0 -31 5 -32 18 -1 16 -2 16
-6 -1 -6 -25 -37 -17 -41 11 -3 17 -10 22 -33 22 -25 0 -29 -3 -28 -27 1 -17
3 -21 6 -10 7 27 33 21 33 -8 0 -14 -4 -25 -10 -25 -5 0 -10 -9 -10 -20 0 -16
7 -20 30 -20 17 0 30 5 30 10 0 6 16 10 35 10 19 0 35 5 35 10 0 6 14 10 30
10 17 0 30 -4 30 -10 0 -5 16 -10 35 -10 28 0 35 -4 35 -20 0 -17 -7 -20 -40
-20 -22 0 -40 4 -40 9 0 5 -12 11 -27 14 l-28 5 23 -18 c12 -10 22 -28 22 -39
0 -12 6 -21 15 -21 8 0 15 7 15 15 0 8 9 15 20 15 16 0 20 -7 20 -35 0 -19 5
-35 10 -35 6 0 10 -21 10 -46 0 -32 4 -44 13 -41 6 2 11 10 10 16 -2 6 3 11
10 11 7 0 19 9 27 20 10 14 26 20 52 20 21 0 38 5 38 10 0 18 35 11 50 -10 8
-11 20 -20 27 -20 7 0 13 -11 13 -25 0 -14 5 -25 10 -25 6 0 10 16 10 35 0 34
1 35 39 35 22 0 42 -5 44 -12 3 -8 6 -5 6 5 1 24 -22 47 -48 47 -16 0 -21 6
-21 25 0 18 5 25 20 25 12 0 20 7 20 18 0 9 12 23 27 30 37 16 43 15 43 -8 0
-11 -4 -20 -10 -20 -5 0 -10 -4 -10 -10 0 -5 9 -10 20 -10 15 0 20 -7 20 -26
0 -22 -4 -25 -21 -21 -16 4 -18 3 -9 -8 6 -7 10 -33 8 -57 l-3 -43 -43 0 c-27
0 -42 -4 -42 -12 0 -7 5 -13 10 -13 6 0 10 -9 10 -20 0 -11 7 -20 15 -20 8 0
15 -9 15 -20 0 -11 -7 -20 -15 -20 -8 0 -15 -7 -15 -15 0 -8 -9 -15 -20 -15
-18 0 -20 7 -20 55 0 33 -4 55 -11 55 -7 0 -8 -14 -4 -40 5 -32 4 -40 -8 -40
-20 0 -43 -29 -39 -50 2 -11 -6 -20 -20 -25 -21 -7 -20 -8 10 -12 17 -2 32 -8
32 -14 0 -5 9 -9 20 -9 11 0 20 5 20 10 0 6 9 10 20 10 13 0 20 -7 20 -20 0
-21 26 -28 32 -8 6 16 58 1 58 -17 0 -8 -9 -15 -20 -15 -21 0 -28 -19 -7 -21
10 0 10 -2 0 -6 -20 -7 -15 -20 8 -26 12 -3 19 -12 17 -19 -5 -16 -58 -24 -58
-9 0 6 -7 11 -15 11 -8 0 -15 -4 -15 -10 0 -5 7 -10 15 -10 8 0 15 -9 15 -20
0 -22 -29 -27 -48 -8 -14 14 -19 1 -24 -59 -2 -30 0 -43 9 -43 7 0 13 -9 13
-20 0 -13 -7 -20 -20 -20 -16 0 -20 -7 -20 -34 0 -19 -5 -36 -10 -38 -6 -2 -2
-13 10 -25 24 -27 28 -98 5 -107 -8 -3 -12 -12 -9 -21 9 -22 24 -19 24 5 0 13
7 20 20 20 17 0 42 10 70 28 2 2 -2 7 -10 12 -12 7 -12 12 -2 22 9 9 15 8 26
-8 8 -10 18 -16 22 -11 4 4 2 7 -4 7 -7 0 -12 9 -12 20 0 11 -4 20 -10 20 -5
0 -10 9 -10 19 0 13 -8 21 -22 23 -13 2 -23 10 -23 18 0 8 10 16 23 18 17 3
22 -2 22 -17 0 -14 6 -21 20 -21 11 0 20 -4 20 -10 0 -5 8 -10 19 -10 13 0 20
9 23 30 4 28 3 30 -29 30 -27 0 -33 4 -33 21 0 29 24 49 59 49 17 0 31 5 31
10 0 6 -11 10 -25 10 -18 0 -25 5 -25 20 0 27 29 38 45 17 8 -12 27 -17 59
-17 44 0 46 -1 46 -30 0 -28 -2 -30 -39 -30 -22 0 -41 3 -44 8 -2 4 -2 1 0 -6
1 -8 3 -27 3 -43 0 -16 5 -29 10 -29 6 0 10 11 10 25 0 18 5 25 20 25 14 0 20
-7 20 -21 0 -26 23 -49 49 -49 14 0 21 -6 21 -20 0 -15 -7 -20 -25 -20 -14 0
-25 5 -25 10 0 6 -4 10 -10 10 -14 0 -13 -63 1 -77 13 -13 39 6 39 26 0 6 9
11 20 11 11 0 19 -6 17 -12 -1 -8 11 -14 31 -16 24 -2 32 -8 32 -23 0 -26 37
-25 45 1 10 31 45 26 45 -6 0 -29 17 -50 46 -56 28 -5 25 -42 -3 -46 -15 -2
-23 -10 -23 -23 0 -12 -7 -19 -20 -19 -13 0 -20 7 -20 20 0 11 7 20 15 20 21
0 19 12 -5 33 -19 16 -20 16 -17 -5 1 -14 -4 -23 -15 -26 -11 -2 -18 3 -18 12
0 9 -7 16 -15 16 -9 0 -15 -9 -15 -25 0 -14 -4 -25 -9 -25 -14 0 -18 -33 -6
-48 5 -7 18 -21 28 -31 10 -10 15 -25 11 -34 -4 -12 -1 -17 10 -17 11 0 16 -9
16 -30 0 -19 -5 -30 -14 -30 -9 0 -12 -7 -9 -20 4 -14 0 -20 -11 -20 -9 0 -16
-7 -16 -15 0 -13 3 -13 20 -3 26 17 36 3 20 -27 -17 -31 -47 -33 -53 -2 -3 16
-5 13 -6 -10 -1 -26 -5 -33 -21 -33 -11 0 -20 -7 -20 -15 0 -9 -11 -20 -25
-25 -14 -5 -25 -14 -25 -20 0 -16 27 -12 34 5 3 8 12 15 21 15 8 0 15 -7 15
-15 0 -8 5 -15 10 -15 6 0 10 -13 10 -30 0 -23 4 -30 20 -30 11 0 20 -4 20
-10 0 -5 11 -10 25 -10 22 0 25 -4 25 -35 0 -26 -4 -35 -17 -35 -9 0 -13 -3
-10 -7 4 -3 -1 -12 -11 -20 -15 -12 -10 -14 41 -10 55 4 57 3 57 -21 l0 -25
19 21 c23 27 51 29 51 3 0 -20 17 -31 36 -24 7 2 10 13 7 24 -4 14 0 19 16 19
22 0 43 -31 24 -37 -5 -2 -8 -15 -5 -28 4 -22 1 -25 -27 -25 -24 0 -31 -4 -31
-20 0 -11 5 -20 10 -20 6 0 10 -9 10 -20 0 -11 5 -20 10 -20 6 0 10 -11 10
-25 0 -18 -5 -25 -20 -25 -16 0 -20 -7 -20 -30 0 -23 -5 -30 -19 -30 -20 0
-37 32 -26 50 3 5 -1 10 -10 10 -11 0 -15 -5 -11 -15 7 -19 -23 -33 -34 -16
-5 9 -9 6 -13 -8 -3 -12 -12 -21 -21 -21 -12 0 -16 -10 -16 -45 0 -38 -3 -45
-20 -45 -13 0 -20 7 -20 20 0 21 -33 29 -45 10 -3 -5 1 -10 10 -10 12 0 15 -6
10 -20 -5 -17 -2 -20 26 -20 22 0 39 -8 55 -27 27 -32 29 -43 12 -62 -10 -11
-10 -14 0 -18 21 -8 14 -43 -8 -43 -15 0 -20 -7 -20 -25 0 -14 5 -25 10 -25 6
0 10 -7 10 -16 0 -20 24 -44 44 -44 9 0 16 -4 16 -10 0 -5 7 -10 16 -10 9 0
14 -7 12 -17 -8 -40 62 -74 76 -37 8 21 26 8 27 -19 0 -12 3 -16 6 -9 6 14 43
16 43 2 0 -5 18 -10 40 -10 34 0 40 -4 46 -26 4 -14 4 -41 1 -59 -6 -38 2 -49
28 -39 16 6 16 8 1 16 -23 13 -21 48 4 48 11 0 20 5 20 10 0 15 47 12 53 -2 4
-10 8 -9 16 2 10 13 12 13 20 0 5 -8 7 -18 5 -22 -3 -4 15 -8 40 -8 34 0 46
-4 46 -15 0 -9 9 -15 25 -15 18 0 25 -5 25 -20 0 -14 -7 -20 -24 -20 -13 0
-26 6 -28 12 -3 9 -10 7 -24 -6 -13 -14 -15 -21 -6 -24 6 -2 12 -12 12 -23 0
-12 7 -19 20 -19 16 0 20 -7 20 -35 0 -19 5 -35 10 -35 6 0 10 16 10 35 0 30
3 35 23 35 12 0 29 -5 37 -10 13 -9 13 -11 0 -21 -11 -8 -12 -12 -2 -16 6 -2
12 -18 12 -34 0 -16 5 -29 10 -29 6 0 10 9 10 20 0 15 7 20 25 20 23 0 25 -4
25 -40 0 -27 -5 -43 -15 -46 -8 -4 -15 -15 -15 -25 0 -15 -7 -19 -40 -19 -25
0 -40 5 -41 13 0 9 -2 9 -6 0 -6 -15 -33 -17 -33 -3 0 6 -7 10 -15 10 -9 0
-15 9 -15 25 0 14 -4 25 -10 25 -19 0 -11 -65 10 -80 13 -9 20 -26 20 -47 0
-29 3 -33 25 -33 18 0 25 -5 25 -20 0 -11 -7 -20 -15 -20 -8 0 -15 -4 -15 -10
0 -5 -9 -10 -20 -10 -11 0 -20 -4 -20 -10 0 -5 -22 -10 -50 -10 -27 0 -50 -4
-50 -10 0 -5 5 -10 10 -10 6 0 10 -21 9 -47 -1 -39 -2 -43 -9 -23 -8 24 -8 23
-9 -7 -1 -28 -5 -33 -26 -33 -14 0 -25 -4 -25 -10 0 -5 -9 -10 -20 -10 -15 0
-20 -7 -20 -25 0 -15 -6 -25 -14 -25 -9 0 -12 -7 -9 -20 4 -16 0 -20 -20 -20
-14 0 -28 6 -31 13 -5 10 -7 10 -12 0 -10 -21 -44 -16 -44 7 0 11 -4 20 -10
20 -19 0 -11 62 11 81 16 14 18 22 10 36 -9 16 -10 16 -11 -4 0 -14 -6 -23
-15 -23 -8 0 -15 -4 -15 -10 0 -5 -9 -10 -20 -10 -11 0 -20 -4 -20 -10 0 -5 5
-10 10 -10 6 0 10 -11 10 -25 0 -18 -5 -25 -20 -25 -13 0 -20 -7 -20 -20 0
-13 -7 -20 -20 -20 -16 0 -20 7 -20 34 0 43 -22 63 -53 48 -12 -6 -31 -12 -41
-14 -11 -2 -21 -9 -24 -16 -3 -11 0 -11 16 -1 18 11 24 9 50 -19 17 -18 35
-32 41 -32 6 0 11 -9 11 -20 0 -16 -7 -20 -31 -20 -37 0 -59 -20 -59 -54 0
-14 -6 -26 -12 -27 -10 0 -10 -2 0 -6 6 -2 12 -18 12 -34 0 -19 5 -29 15 -29
8 0 15 5 15 10 0 6 7 10 15 10 19 0 33 -32 16 -38 -17 -6 6 -32 29 -32 10 0
21 -6 24 -12 5 -10 7 -10 12 0 8 16 84 16 85 0 0 -10 2 -10 6 0 8 19 43 15 43
-6 0 -10 9 -24 20 -32 20 -15 28 -60 10 -60 -5 0 -10 -9 -10 -20 0 -17 -7 -20
-42 -22 l-43 -1 43 -4 c28 -3 42 -9 42 -19 0 -11 -15 -14 -66 -14 -59 0 -65
-2 -59 -17 4 -10 10 -30 12 -45 4 -23 7 -25 19 -13 8 7 14 23 14 34 0 14 6 21
20 21 16 0 20 -7 20 -35 0 -21 -5 -35 -12 -36 -10 0 -10 -2 0 -6 27 -11 12
-33 -23 -33 -19 0 -35 5 -35 10 0 6 -4 10 -10 10 -5 0 -10 -9 -10 -21 0 -17 5
-20 32 -17 27 2 33 -1 39 -22 7 -24 7 -24 8 -2 1 31 31 29 31 -2 0 -13 5 -26
11 -28 8 -3 10 -19 5 -50 -5 -35 -12 -48 -29 -53 -19 -6 -19 -8 -4 -12 18 -5
24 -33 6 -33 -20 0 -41 30 -36 52 3 11 2 17 -2 12 -5 -5 -11 -20 -14 -34 -5
-20 -1 -28 15 -35 29 -14 24 -30 -9 -30 -21 0 -27 4 -25 18 2 10 -3 17 -13 17
-8 0 -15 -4 -15 -10 0 -5 -6 -10 -14 -10 -8 0 -17 -6 -19 -12 -4 -10 -8 -9
-16 2 -8 12 -13 11 -29 -8 -11 -12 -24 -22 -31 -22 -6 0 -11 -4 -11 -10 0 -5
-20 -10 -45 -10 -46 0 -60 -14 -25 -25 27 -8 27 -45 0 -45 -11 0 -20 5 -20 10
0 6 -11 10 -25 10 -14 0 -25 -5 -25 -11 0 -6 -9 -9 -19 -6 -17 4 -18 2 -9 -12
7 -12 19 -16 34 -13 19 3 24 0 24 -16 0 -11 -8 -22 -20 -25 -16 -4 -19 -11
-14 -36 4 -20 2 -31 -5 -31 -6 0 -11 -7 -11 -16 0 -22 -29 -43 -57 -44 -19 0
-23 5 -23 30 0 28 -3 30 -35 30 -28 0 -35 4 -35 20 0 13 7 20 19 20 27 0 32
12 15 35 -12 16 -14 17 -14 2 0 -10 -8 -17 -20 -17 -15 0 -20 7 -20 25 0 18 5
25 20 25 13 0 20 7 20 20 0 13 -7 20 -20 20 -11 0 -20 5 -20 10 0 6 -20 10
-45 10 -45 0 -45 0 -45 35 0 23 5 35 14 35 9 0 12 7 9 20 -5 17 0 20 26 20 17
0 31 -4 31 -10 0 -5 4 -10 9 -10 5 0 7 9 4 20 -4 15 0 20 16 20 17 0 21 -6 21
-30 0 -20 5 -30 15 -30 8 0 15 5 15 10 0 6 7 10 15 10 8 0 15 -4 15 -10 0 -5
12 -10 28 -9 15 0 21 3 15 6 -15 6 -17 33 -3 33 6 0 10 5 10 10 0 6 -13 10
-30 10 -30 0 -30 1 -30 55 0 52 -1 55 -25 55 -14 0 -25 -4 -25 -10 0 -5 -6
-10 -14 -10 -9 0 -12 -7 -9 -20 4 -15 0 -20 -16 -20 -11 0 -21 6 -22 13 0 6
-5 2 -12 -11 -8 -17 -17 -22 -34 -19 -13 2 -23 0 -23 -4 0 -5 5 -9 10 -9 18 0
11 -35 -10 -50 -11 -8 -20 -20 -20 -28 0 -7 -6 -20 -14 -28 -17 -16 -46 -19
-46 -4 0 6 -7 10 -15 10 -8 0 -15 9 -15 20 0 13 -7 20 -20 20 -13 0 -20 7 -20
20 0 13 7 20 20 20 11 0 20 -4 20 -10 0 -5 9 -10 19 -10 11 0 22 -6 24 -12 4
-10 6 -10 6 -1 1 7 -11 20 -25 30 -23 14 -25 22 -21 55 5 36 4 38 -24 38 -16
0 -29 5 -29 10 0 6 -7 10 -15 10 -12 0 -15 -14 -15 -65 l0 -65 -36 0 c-31 0
-35 3 -32 23 2 18 -2 23 -26 25 -16 2 -35 10 -43 17 -15 16 -18 45 -3 45 6 0
10 6 10 13 -1 6 -9 2 -19 -10 -11 -13 -24 -23 -31 -23 -18 0 -40 -27 -40 -49
0 -14 -6 -21 -20 -21 -11 0 -20 -4 -20 -10 0 -5 9 -10 20 -10 11 0 20 -7 20
-15 0 -20 -30 -32 -40 -16 -6 10 -12 10 -28 0 -26 -17 -35 -36 -20 -45 6 -4 8
-3 5 3 -4 6 0 17 9 24 13 10 17 10 24 -2 8 -11 13 -12 30 -1 11 6 31 12 44 12
14 0 28 5 32 11 3 6 18 9 33 6 l26 -5 -23 18 c-24 20 -30 50 -9 50 25 0 87
-67 87 -94 0 -31 -2 -31 -38 -9 l-27 17 23 -25 c12 -14 22 -33 22 -42 0 -19
-26 -23 -32 -5 -3 7 -7 2 -10 -10 -5 -18 -2 -22 18 -22 17 0 24 -6 24 -20 0
-17 -7 -20 -39 -20 -22 0 -41 5 -44 13 -2 6 -3 -4 -2 -23 1 -19 7 -36 14 -38
6 -2 11 -12 11 -23 0 -22 -35 -27 -43 -6 -3 6 -5 -8 -5 -33 0 -25 2 -39 5 -32
6 16 31 15 49 -3 9 -8 12 -15 8 -15 -4 0 2 -9 14 -20 23 -22 42 -26 42 -10 0
6 7 10 15 10 8 0 15 -4 15 -8 0 -5 11 -15 25 -22 21 -11 25 -21 25 -57 0 -41
-1 -43 -31 -43 -33 0 -59 -19 -59 -44 0 -12 -10 -16 -40 -16 -44 0 -50 -8 -20
-30 13 -9 20 -26 20 -47 0 -18 5 -33 10 -33 6 0 10 -9 10 -20 0 -11 -4 -20
-10 -20 -5 0 -10 -23 -10 -51 0 -52 -15 -79 -44 -79 -9 0 -16 7 -16 15 0 21
-45 65 -65 65 -9 0 -18 6 -21 13 -7 19 -71 20 -78 2 -7 -20 -36 -7 -36 16 0
10 4 19 9 19 5 0 11 10 13 23 4 20 1 23 -19 19 -13 -2 -23 1 -23 7 0 6 -9 11
-20 11 -15 0 -20 7 -20 25 0 20 -5 25 -25 25 -18 0 -25 5 -25 20 0 11 -4 20
-10 20 -5 0 -10 -9 -10 -20 0 -16 -7 -20 -30 -20 -23 0 -30 4 -30 20 0 11 -7
20 -15 20 -8 0 -15 5 -15 10 0 6 -6 10 -14 10 -8 0 -17 6 -19 13 -3 6 -6 2 -6
-10 -1 -22 -5 -23 -86 -23 -78 0 -85 2 -85 20 0 16 7 20 32 20 45 0 25 13 -30
20 l-47 5 1 43 c1 41 0 42 -33 42 -30 0 -33 3 -33 30 0 19 -5 30 -14 30 -8 0
-23 3 -33 6 -15 6 -16 4 -5 -7 18 -19 16 -79 -3 -79 -8 0 -15 -9 -15 -19 0
-10 7 -21 15 -25 8 -3 15 -13 15 -21 0 -16 -22 -45 -34 -45 -4 0 -19 -12 -35
-28 -23 -21 -28 -33 -24 -56 5 -24 3 -28 -18 -26 -65 6 -89 0 -89 -20 0 -13
-7 -20 -20 -20 -11 0 -20 -4 -20 -10 0 -5 -7 -10 -15 -10 -8 0 -15 -4 -15 -10
0 -5 -13 -10 -30 -10 -29 0 -30 2 -30 45 0 38 3 45 19 45 11 0 26 -7 35 -15
17 -17 36 -20 36 -5 0 6 9 10 20 10 15 0 20 7 20 25 0 21 -5 25 -30 25 -16 0
-33 -7 -38 -16 -14 -25 -57 -14 -56 14 0 12 -5 22 -13 22 -7 0 -13 5 -13 10 0
6 -9 10 -20 10 -13 0 -20 -7 -20 -20 0 -11 -6 -20 -14 -20 -8 0 -13 -10 -13
-25 0 -15 5 -25 13 -25 8 0 14 5 14 10 0 6 9 10 20 10 13 0 20 -7 20 -20 0
-13 -7 -20 -20 -20 -11 0 -20 -4 -20 -10 0 -5 -9 -10 -20 -10 -11 0 -20 5 -20
11 0 5 -8 9 -17 8 -70 -7 -93 13 -56 49 16 16 16 17 0 20 -12 3 -17 14 -17 41
0 25 -6 41 -20 51 -11 8 -20 20 -20 27 0 7 -7 13 -15 13 -8 0 -15 9 -15 20 0
16 7 20 30 20 17 0 30 -5 30 -11 0 -5 4 -8 9 -5 16 10 0 56 -20 56 -25 0 -35
26 -19 45 7 9 9 19 5 23 -4 4 -10 1 -12 -5 -5 -15 -43 -17 -43 -3 0 6 -12 10
-26 10 -15 0 -34 8 -43 18 -23 27 -51 35 -57 17 -4 -8 -15 -15 -25 -15 -12 0
-19 -7 -19 -19 0 -10 -7 -22 -16 -25 -8 -3 -12 -10 -9 -16 4 -6 -5 -10 -19
-10 -24 0 -26 3 -26 45 0 33 4 45 15 45 8 0 15 5 15 10 0 6 -11 10 -25 10 -22
0 -25 4 -25 35 0 35 0 35 45 35 38 0 45 3 45 20 0 16 7 20 30 20 29 0 30 -2
30 -45 0 -42 -2 -45 -26 -45 -15 0 -23 -4 -19 -10 6 -10 35 -10 45 0 17 17 50
28 55 20 3 -6 17 -10 31 -10 19 0 24 5 24 25 0 27 18 33 38 13 7 -7 12 -8 12
-4 0 13 -33 35 -52 36 -10 0 -18 5 -18 10 0 6 -18 10 -40 10 -22 0 -40 5 -40
10 0 6 -18 10 -40 10 -22 0 -40 -4 -40 -10 0 -5 -7 -10 -15 -10 -14 0 -19 12
-16 33 0 4 -6 7 -14 7 -8 0 -15 -4 -15 -10 0 -15 -60 -12 -61 3 0 9 -2 9 -6 0
-2 -7 -18 -13 -34 -13 -16 0 -29 -4 -29 -10 0 -5 -9 -10 -20 -10 -11 0 -20 -4
-20 -10 0 -5 -13 -10 -30 -10 -23 0 -30 4 -30 20 0 16 7 20 30 20 23 0 30 5
30 19 0 23 27 36 32 16 2 -10 7 -6 15 10 10 24 9 25 -18 25 -16 0 -29 -5 -29
-11 0 -29 -54 -52 -63 -26 -2 6 -3 5 -2 -4 3 -22 -30 -49 -60 -49 -20 0 -25 5
-25 26 0 21 4 25 20 21 27 -7 26 10 -1 18 -16 6 -20 13 -17 36 3 16 1 29 -4
29 -4 0 -8 -4 -8 -10 0 -5 -7 -10 -15 -10 -8 0 -15 5 -15 11 0 6 -7 4 -15 -5
-8 -8 -15 -22 -15 -30 0 -25 -24 -19 -58 13 -17 17 -32 25 -34 19 -3 -7 -11
-6 -26 3 -17 11 -24 11 -34 1 -9 -9 -7 -12 14 -12 14 0 29 -7 32 -16 9 -24 7
-34 -5 -32 -6 2 -13 -5 -14 -15 -5 -27 -7 -28 -74 -29 -52 -1 -61 -3 -61 -19
0 -20 15 -25 25 -9 9 15 54 12 71 -4 8 -8 14 -23 15 -33 0 -10 3 -13 6 -5 2 6
11 12 18 12 7 0 16 -6 18 -12 4 -10 8 -10 15 1 14 20 32 4 32 -30 0 -27 -3
-29 -35 -29 -19 0 -35 -4 -35 -10 0 -5 14 -10 30 -10 17 0 30 -5 30 -11 0 -8
5 -8 15 1 8 7 15 21 15 31 0 16 8 19 55 19 43 0 55 3 55 16 0 26 54 14 58 -13
3 -20 -1 -22 -25 -19 -15 2 -21 1 -13 -1 8 -3 23 -15 32 -26 10 -11 18 -15 18
-9 0 7 7 12 15 12 8 0 15 -4 15 -10 0 -5 7 -10 15 -10 8 0 15 9 15 20 0 11 5
20 10 20 6 0 10 16 10 35 0 28 4 35 20 35 11 0 20 -7 20 -15 0 -8 6 -12 14 -9
8 3 14 17 13 32 -2 32 25 41 49 17 12 -12 15 -27 11 -56 -4 -29 -2 -39 9 -39
9 0 14 -11 14 -30 0 -23 -4 -30 -20 -30 -15 0 -20 7 -20 29 0 25 -4 29 -33 33
-29 3 -33 1 -29 -18 2 -11 -4 -29 -15 -39 -13 -13 -14 -20 -5 -23 6 -2 12 -8
12 -14 0 -14 27 -38 43 -38 10 0 13 8 9 25 -4 22 -1 25 27 25 26 0 31 -4 31
-25 0 -15 -6 -25 -14 -25 -9 0 -12 -7 -9 -20 5 -18 0 -20 -41 -20 -39 0 -46
-3 -46 -20 0 -16 -7 -20 -31 -20 -24 0 -30 4 -27 17 2 10 13 19 26 21 12 2 22
8 22 13 0 13 -16 11 -41 -4 -17 -9 -23 -9 -26 1 -6 14 -33 16 -33 2 0 -5 -13
-10 -30 -10 -16 0 -30 -4 -30 -10 0 -5 20 -10 45 -10 39 0 45 -3 45 -20 0 -11
-8 -24 -17 -27 -38 -14 -43 -43 -8 -43 18 0 25 -5 25 -20 0 -16 -7 -20 -36
-20 -31 0 -36 3 -31 20 3 13 0 20 -9 20 -9 0 -14 -11 -14 -30 0 -20 -5 -30
-15 -30 -8 0 -24 -6 -35 -13 -17 -10 -22 -9 -30 3 -6 9 -10 10 -10 3 0 -16 64
-47 68 -33 7 19 42 11 42 -10 0 -13 -7 -20 -20 -20 -11 0 -20 -4 -20 -10 0 -5
-9 -10 -20 -10 -11 0 -20 5 -20 10 0 6 -7 10 -15 10 -8 0 -15 5 -15 10 0 6 -9
10 -20 10 -11 0 -20 5 -20 10 0 6 -17 10 -38 10 -33 0 -41 5 -58 36 l-21 35 5
-55 c4 -55 4 -56 -22 -56 -14 0 -26 5 -26 10 0 6 -4 10 -9 10 -5 0 -7 -9 -4
-20 3 -11 9 -20 14 -20 5 0 9 -9 9 -20 0 -11 -4 -20 -10 -20 -5 0 -10 -7 -10
-15 0 -11 8 -13 30 -8 30 5 30 5 30 -42 0 -42 -2 -47 -20 -42 -13 3 -20 0 -20
-9 0 -8 9 -14 21 -14 33 0 22 -44 -12 -48 -36 -4 -48 -42 -14 -42 14 0 25 7
28 20 3 14 14 20 31 20 14 0 26 -5 26 -11 0 -6 7 -4 15 5 8 8 15 20 15 26 0 6
8 10 18 8 12 -2 18 -15 20 -46 2 -25 -1 -42 -7 -42 -6 0 -11 -9 -11 -20 0 -11
5 -20 10 -20 6 0 10 -7 10 -15 0 -8 7 -15 16 -15 22 0 47 -28 40 -45 -3 -8 -1
-15 4 -15 6 0 10 9 10 20 0 13 7 20 20 20 13 0 20 -7 20 -20 0 -11 -6 -20 -14
-20 -9 0 -12 -7 -9 -20 5 -18 0 -20 -41 -20 l-46 0 0 40 0 40 -42 -1 c-83 -2
-88 -1 -88 26 0 27 17 32 40 12 8 -6 6 -2 -4 10 -10 12 -15 27 -11 32 3 6 1
11 -4 11 -6 0 -11 -3 -11 -8 0 -4 -10 -12 -22 -17 -19 -8 -24 -19 -26 -59 -3
-45 -5 -48 -28 -43 -16 3 -24 0 -24 -9 0 -8 -9 -14 -20 -14 -17 0 -20 7 -20
40 0 22 -4 40 -10 40 -5 0 -10 -4 -10 -10 0 -19 -36 -10 -54 15 -10 14 -23 25
-27 25 -5 0 -9 -11 -9 -25 0 -18 -5 -25 -20 -25 -11 0 -20 -4 -20 -10 0 -5
-11 -10 -25 -10 -14 0 -25 -4 -25 -10 0 -5 7 -10 16 -10 24 0 12 -35 -14 -38
-16 -3 -22 -10 -22 -29 l0 -26 23 26 c28 34 49 34 73 2 12 -16 29 -25 46 -25
16 0 28 -4 28 -10 0 -5 7 -10 15 -10 21 0 19 -30 -2 -46 -10 -7 -34 -14 -53
-14 -25 0 -39 -6 -48 -21 -7 -12 -11 -24 -8 -27 3 -3 6 0 6 6 0 7 7 12 15 12
8 0 15 -4 15 -10 0 -19 35 -10 45 12 7 17 20 24 48 26 36 3 37 3 37 -32 0 -29
-4 -36 -20 -36 -11 0 -20 5 -20 10 0 6 -9 10 -20 10 -13 0 -20 -7 -20 -20 0
-15 -7 -20 -25 -20 -14 0 -25 -4 -25 -10 0 -5 5 -10 10 -10 6 0 10 -11 10 -25
0 -23 -3 -25 -49 -25 -28 0 -53 -5 -56 -10 -3 -6 -24 -10 -46 -10 l-39 0 0 45
c0 25 -4 45 -10 45 -5 0 -10 -4 -10 -10 0 -5 -11 -10 -25 -10 -28 0 -33 -15
-9 -24 9 -4 14 -13 10 -21 -3 -9 1 -18 9 -21 22 -9 19 -44 -4 -44 -11 0 -21 6
-24 13 -2 6 -6 -14 -8 -46 -2 -31 -1 -57 4 -57 4 0 7 4 7 8 0 4 18 13 40 19
40 10 40 10 40 -18 0 -16 -4 -29 -10 -29 -5 0 -10 -9 -10 -20 0 -13 -7 -20
-19 -20 -23 0 -36 -39 -15 -47 20 -8 19 -99 -1 -107 -13 -5 -13 -8 2 -26 10
-11 25 -20 35 -20 24 0 23 -32 -2 -48 -11 -7 -20 -20 -20 -28 0 -9 -8 -23 -17
-30 -17 -12 -17 -13 0 -19 9 -4 17 -16 17 -26 0 -12 7 -19 20 -19 13 0 20 -7
20 -20 0 -11 -6 -20 -14 -20 -8 0 -18 -5 -22 -12 -10 -16 -5 -132 7 -136 5 -2
9 -17 9 -32 0 -16 5 -32 10 -35 6 -3 10 -19 10 -36 0 -16 5 -29 10 -29 6 0 10
-16 10 -35 0 -19 5 -35 10 -35 6 0 10 -20 10 -45 0 -33 4 -45 15 -45 11 0 15
-11 15 -40 0 -23 -5 -40 -11 -40 -18 0 -38 -32 -39 -62 0 -16 -4 -28 -10 -28
-5 0 -10 -18 -10 -40 0 -22 -4 -40 -10 -40 -5 0 -10 -11 -10 -25 0 -14 5 -25
10 -25 6 0 10 -18 10 -40 0 -22 -4 -40 -10 -40 -6 0 -10 -37 -10 -90 0 -53 4
-90 10 -90 6 0 10 -18 10 -40 0 -22 -4 -40 -10 -40 -13 0 -13 -177 0 -182 6
-2 11 -44 12 -96 1 -50 5 -92 9 -92 4 0 10 -21 13 -47 3 -27 8 -69 12 -95 l6
-48 -216 0 c-137 0 -216 4 -216 10 0 6 -9 10 -19 10 -11 0 -23 5 -26 10 -3 6
-24 10 -46 10 -21 0 -39 5 -39 10 0 6 -15 10 -34 10 -41 0 -46 11 -46 91 0 46
-3 59 -15 59 -12 0 -15 15 -15 71 0 43 4 68 10 64 13 -8 19 24 25 140 2 55 7
142 11 193 4 67 2 92 -6 92 -9 0 -10 13 -5 43 13 76 17 327 6 327 -6 0 -11 9
-11 19 0 10 -7 22 -16 25 -10 4 -13 13 -9 26 5 14 2 20 -9 20 -14 0 -16 17
-16 115 l0 115 35 0 35 0 0 55 c0 34 -4 55 -11 55 -7 0 -9 11 -4 32 13 61 17
188 6 188 -12 0 -15 72 -4 84 11 11 14 46 3 46 -6 0 -10 20 -10 45 0 33 -4 45
-15 45 -22 0 -20 66 3 79 16 9 16 11 -2 24 -15 11 -18 22 -13 53 4 26 3 34 -3
24 -8 -13 -13 -13 -31 -2 -12 8 -24 10 -28 5 -10 -13 -53 -35 -58 -29 -3 3 0
12 7 21 11 13 8 15 -24 15 -29 0 -36 4 -36 20 0 14 7 20 22 20 17 0 19 3 10
12 -7 7 -12 22 -12 35 0 22 4 23 65 23 63 0 65 -1 65 -25 0 -22 -4 -25 -37
-25 -28 0 -34 -3 -23 -10 8 -5 31 -10 50 -10 l35 0 -2 115 c-2 65 1 114 6 111
14 -9 21 21 21 94 0 51 -4 69 -15 74 -18 7 -20 35 -2 42 7 2 13 13 14 24 2 17
-5 20 -43 20 -37 0 -44 3 -44 20 0 11 -4 20 -10 20 -5 0 -10 -9 -10 -20 0 -11
5 -20 10 -20 6 0 10 -9 10 -20 0 -26 -18 -25 -47 2 -13 12 -23 16 -23 10 0 -7
-11 -12 -25 -12 -28 0 -67 -29 -58 -43 3 -6 -9 -8 -31 -5 -25 3 -36 0 -36 -9
0 -7 -7 -13 -15 -13 -8 0 -15 5 -15 10 0 6 -11 10 -25 10 -26 0 -75 -40 -75
-60 0 -20 -28 -40 -54 -40 -14 0 -26 4 -26 9 0 6 -19 11 -42 13 -30 2 -43 8
-43 18 0 10 13 16 43 18 25 2 42 -1 42 -7 0 -6 10 -11 23 -10 12 0 16 3 10 6
-15 6 -17 33 -3 33 6 0 10 16 10 35 0 26 4 35 17 35 9 0 13 3 10 7 -4 3 1 12
11 19 15 12 13 13 -20 14 -38 0 -38 0 -38 41 0 24 -7 47 -16 57 -15 15 -16 14
-10 -6 6 -19 4 -22 -21 -22 -24 -1 -25 -2 -10 -11 21 -12 23 -39 2 -39 -8 0
-15 -4 -15 -10 0 -5 -9 -10 -20 -10 -11 0 -20 5 -20 10 0 6 -15 10 -34 10 -29
0 -33 -3 -29 -20 5 -17 0 -20 -31 -20 -42 0 -48 19 -13 43 12 9 17 16 10 16
-6 1 -15 -3 -18 -9 -11 -18 -35 -11 -35 11 0 26 23 49 49 49 12 0 21 5 21 10
0 6 7 10 15 10 8 0 15 5 15 10 0 6 16 10 35 10 19 0 35 5 35 10 0 6 15 10 33
10 21 0 38 7 47 20 15 21 55 27 65 10 5 -8 12 -7 23 2 12 10 16 10 19 1 4 -10
8 -9 19 1 8 8 14 19 14 25 0 6 20 11 45 11 25 0 45 5 45 10 0 14 27 12 33 -2
3 -7 6 2 6 20 1 29 4 32 30 32 17 0 33 5 36 10 3 5 19 10 36 10 20 0 29 5 29
16 0 12 -7 15 -24 12 -32 -6 -51 6 -43 26 4 10 19 16 42 16 19 0 35 5 35 10 0
6 11 10 25 10 21 0 25 5 25 31 0 26 -3 29 -20 24 -14 -5 -20 -2 -20 9 0 9 5
16 10 16 6 0 10 11 10 25 0 14 6 25 13 25 7 0 19 9 27 20 8 11 20 20 27 20 17
0 17 -27 1 -33 -8 -3 -6 -6 5 -6 13 -1 17 -10 17 -35 0 -19 -5 -36 -12 -38 -7
-3 -9 -12 -5 -22 6 -15 10 -16 22 -6 17 14 21 100 5 100 -5 0 -10 25 -10 55 0
30 5 55 10 55 6 0 10 9 10 20 0 13 -7 20 -20 20 -11 0 -20 5 -20 10 0 6 -11
10 -25 10 -22 0 -25 4 -25 35 0 28 -4 35 -20 35 -11 0 -20 -4 -20 -10 0 -5 -9
-10 -19 -10 -26 0 -51 -10 -51 -21 0 -5 7 -9 15 -9 8 0 15 -9 15 -20 0 -13 -7
-20 -20 -20 -11 0 -20 5 -20 10 0 6 -7 10 -16 10 -8 0 -12 4 -9 10 4 6 -12 10
-40 10 -28 0 -44 -4 -40 -10 4 -6 -13 -10 -44 -10 -28 0 -51 -4 -51 -10 0 -5
-9 -10 -20 -10 -11 0 -20 -4 -20 -10 0 -5 -6 -10 -14 -10 -8 0 -16 -4 -18 -8
-1 -4 -21 -15 -43 -23 -22 -9 -39 -21 -37 -27 1 -7 -7 -12 -19 -12 -11 0 -34
-13 -52 -30 -37 -35 -62 -40 -54 -10 3 11 3 20 0 20 -11 0 -33 -30 -33 -44 0
-9 -4 -16 -10 -16 -5 0 -10 -9 -10 -19 0 -11 -4 -23 -10 -26 -5 -3 -10 -12 -9
-18 0 -9 2 -9 6 1 2 6 13 12 24 12 14 0 19 -7 19 -30 0 -26 -3 -30 -29 -30
-16 0 -32 6 -34 12 -3 7 -6 3 -6 -9 -1 -16 -7 -23 -21 -23 -11 0 -20 5 -20 10
0 6 -7 10 -16 10 -11 0 -14 -6 -9 -20 5 -16 2 -20 -14 -20 -12 0 -21 5 -21 10
0 6 -16 10 -35 10 -19 0 -35 5 -35 10 0 6 -7 10 -15 10 -8 0 -15 -4 -15 -10 0
-5 -9 -10 -20 -10 -17 0 -20 7 -20 41 0 41 0 41 35 37 23 -3 32 -1 25 6 -14
14 -12 35 4 52 10 9 36 14 75 14 34 0 61 4 61 10 0 6 -11 10 -25 10 -18 0 -25
5 -25 20 0 14 7 20 24 20 20 0 25 6 28 35 2 19 0 35 -4 35 -4 0 -8 -4 -8 -10
0 -5 -4 -10 -10 -10 -14 0 -13 33 2 48 9 9 8 12 -5 12 -9 0 -17 5 -17 10 0 6
-9 10 -21 10 -11 0 -17 -4 -14 -10 3 -5 -3 -10 -14 -10 -14 0 -21 -6 -21 -20
0 -18 -7 -20 -55 -20 l-55 0 0 46 c0 32 -4 44 -12 41 -7 -2 -12 -10 -10 -16 1
-6 -2 -11 -8 -11 -5 0 -10 -9 -10 -20 0 -15 -7 -20 -26 -20 -25 0 -26 2 -21
35 l6 35 -45 0 c-40 0 -44 -2 -44 -25 0 -14 5 -25 10 -25 6 0 10 5 10 10 0 6
9 10 20 10 17 0 20 -7 20 -40 0 -22 5 -40 11 -40 5 0 7 5 3 11 -4 7 1 9 12 7
11 -2 18 -11 18 -21 -1 -9 4 -17 12 -17 8 0 14 -10 14 -25 0 -20 -5 -25 -25
-25 -18 0 -25 -5 -25 -20 0 -14 -7 -20 -21 -20 -16 0 -20 5 -16 20 3 13 0 20
-9 20 -9 0 -14 -11 -14 -30 0 -25 4 -30 25 -30 35 0 65 -29 65 -62 0 -24 -4
-28 -26 -28 -21 0 -25 4 -21 20 5 18 0 20 -45 20 -30 0 -47 -4 -43 -10 4 -6
-7 -10 -24 -10 -17 0 -31 4 -31 9 0 6 -15 11 -32 13 -29 3 -33 7 -36 36 -2 18
1 32 7 32 6 0 11 5 11 10 0 6 -9 10 -20 10 -15 0 -20 7 -20 25 0 18 -4 23 -15
19 -8 -4 -15 -15 -15 -25 0 -14 -7 -19 -30 -19 -16 0 -30 5 -30 10 0 6 -14 10
-31 10 -17 0 -28 -4 -24 -10 3 -5 15 -10 26 -10 10 0 19 -4 19 -10 0 -5 7 -10
16 -10 11 0 15 -9 14 -32 -4 -72 -2 -78 29 -78 16 0 32 -6 34 -12 3 -7 6 2 6
20 1 26 5 33 19 30 13 -2 18 -15 20 -51 3 -45 2 -47 -22 -47 -16 0 -26 -6 -26
-15 0 -10 -10 -15 -30 -15 -29 0 -30 2 -30 45 0 38 -3 45 -20 45 -13 0 -20 -7
-20 -20 0 -11 -6 -20 -14 -20 -8 0 -16 -6 -19 -12 -3 -10 -9 -10 -26 0 -31 18
-59 15 -66 -8 -4 -13 -15 -20 -31 -20 -34 0 -30 17 16 61 35 35 46 39 89 39
33 0 51 5 54 14 8 20 -26 56 -53 56 -21 0 -22 4 -17 40 5 40 5 40 -29 40 -19
0 -34 -4 -34 -10 0 -5 -6 -10 -13 -10 -7 0 -19 -9 -27 -20 -17 -24 -50 -26
-50 -4 0 9 8 23 18 30 15 12 11 13 -34 14 l-51 0 5 -30 c4 -26 1 -30 -20 -30
-16 0 -29 8 -36 22 -9 19 -11 20 -11 5 -2 -42 -60 -66 -62 -24 0 12 -3 16 -6
10 -2 -7 -13 -13 -24 -13 -10 0 -19 -4 -19 -10 0 -5 5 -10 10 -10 6 0 10 -11
10 -25 0 -28 -24 -35 -34 -9 -8 20 -26 9 -26 -17 0 -10 -6 -19 -14 -19 -9 0
-12 -7 -9 -20 4 -16 0 -20 -21 -20 -19 0 -26 -5 -26 -20 0 -11 -4 -20 -10 -20
-5 0 -10 -12 -9 -27 0 -16 3 -22 6 -15 2 6 13 12 24 12 14 0 19 7 19 25 0 20
5 25 24 25 19 0 23 4 19 20 -4 14 0 20 12 20 21 0 45 -24 45 -44 0 -9 5 -16
10 -16 6 0 10 9 10 20 0 15 7 20 25 20 22 0 25 4 25 35 0 30 3 34 23 32 13 -1
21 3 19 11 -1 8 10 12 33 12 31 0 35 -3 35 -25 0 -15 -6 -25 -14 -25 -9 0 -12
-7 -9 -20 4 -16 0 -20 -21 -20 -14 0 -26 -4 -26 -10 0 -5 -9 -10 -20 -10 -11
0 -20 -4 -20 -9 0 -5 -9 -11 -20 -14 -12 -3 -20 -14 -20 -26 0 -12 -6 -21 -12
-22 -10 0 -10 -2 0 -6 6 -2 12 -10 12 -16 0 -7 15 -18 33 -25 17 -7 40 -18 49
-23 10 -5 25 -9 34 -9 10 0 14 -7 12 -23 -4 -27 -48 -38 -48 -12 0 10 -5 13
-12 9 -6 -4 -16 0 -22 8 -6 8 -19 17 -28 21 -10 3 -18 13 -18 22 0 8 -7 15
-15 15 -8 0 -15 -9 -15 -20 0 -11 7 -20 15 -20 8 0 30 -16 49 -36 33 -34 37
-36 67 -25 52 18 89 14 89 -9 0 -13 7 -20 20 -20 11 0 20 -6 20 -13 0 -8 14
-11 45 -9 40 4 45 2 45 -17 0 -12 -4 -21 -10 -21 -5 0 -10 -7 -10 -15 0 -8 -9
-15 -20 -15 -11 0 -20 7 -20 15 0 8 -7 15 -15 15 -8 0 -15 5 -15 10 0 6 -9 10
-20 10 -11 0 -20 5 -20 10 0 6 -12 10 -26 10 -21 0 -24 -4 -19 -20 5 -16 2
-20 -16 -20 -19 0 -21 4 -15 30 3 17 1 30 -4 30 -6 0 -10 -25 -10 -55 0 -30
-4 -55 -10 -55 -5 0 -10 5 -10 10 0 6 -19 10 -42 9 -24 0 -37 -3 -30 -6 27
-11 12 -33 -23 -33 -35 0 -50 22 -22 33 6 3 -3 6 -20 6 -30 1 -33 -2 -33 -29
0 -23 -5 -30 -19 -30 -11 0 -22 -4 -25 -9 -8 -12 -86 -12 -86 0 0 5 -23 9 -51
9 -44 0 -55 4 -79 30 -17 18 -38 30 -53 30 -14 0 -27 7 -31 15 -7 19 -46 20
-46 1 0 -7 -10 -17 -22 -21 -20 -7 -18 -9 15 -12 29 -3 37 -9 37 -24 0 -16 -7
-19 -45 -19 -25 0 -45 -4 -45 -10 0 -5 9 -10 21 -10 11 0 17 -4 14 -10 -3 -5
3 -10 15 -10 12 0 18 5 15 10 -3 6 4 10 17 10 13 0 30 9 38 20 15 21 50 28 50
10 0 -5 9 -10 20 -10 14 0 20 -7 21 -22 0 -13 3 -17 6 -10 2 6 12 12 20 12 11
0 14 -9 11 -35 -2 -19 0 -35 4 -35 4 0 8 16 8 35 0 28 4 35 20 35 16 0 20 -7
20 -35 0 -19 5 -35 10 -35 16 0 11 -32 -8 -46 -20 -16 -52 -18 -52 -4 0 6 -4
10 -10 10 -5 0 -10 -16 -10 -35 0 -24 -5 -35 -15 -35 -8 0 -16 8 -16 18 -1 16
-2 16 -6 0 -7 -29 -43 -23 -43 7 0 15 -6 25 -14 25 -9 0 -14 -9 -13 -22 1 -25
19 -48 37 -48 8 0 11 -14 8 -40 -2 -28 0 -40 9 -40 7 0 13 -11 13 -25 0 -21
-5 -25 -30 -25 -17 0 -30 5 -31 13 0 9 -2 9 -6 0 -2 -7 -11 -13 -18 -13 -7 0
-16 6 -18 13 -3 6 -6 -18 -6 -55 -1 -38 -5 -68 -11 -68 -5 0 -10 -9 -10 -20 0
-16 -7 -20 -35 -20 -28 0 -35 4 -35 19 0 10 -9 21 -20 24 -11 3 -20 10 -20 16
0 16 27 13 34 -4 3 -8 17 -15 31 -15 23 0 25 4 25 45 0 25 -4 45 -10 45 -5 0
-10 -13 -10 -30 0 -23 -4 -30 -20 -30 -11 0 -20 5 -20 10 0 6 -7 10 -15 10 -8
0 -15 -4 -15 -10 0 -5 -10 -10 -22 -10 -17 0 -19 -3 -10 -12 20 -20 14 -38
-13 -38 -14 0 -25 -4 -25 -10 0 -5 11 -10 25 -10 18 0 25 -5 25 -20 0 -16 -7
-20 -30 -20 -23 0 -30 4 -30 20 0 11 -7 20 -15 20 -8 0 -15 5 -15 10 0 6 -11
10 -24 10 -13 0 -27 6 -29 13 -3 6 -6 2 -6 -10 -1 -18 -7 -23 -27 -23 -24 0
-25 2 -20 48 3 26 3 41 0 35 -10 -21 -44 -16 -44 7 0 11 7 20 15 20 8 0 15 5
15 10 0 14 27 12 33 -2 3 -7 6 -3 6 10 1 20 6 22 52 22 31 0 48 4 44 10 -3 5
-17 10 -31 10 -19 0 -24 5 -24 25 0 18 5 25 20 25 11 0 20 -7 20 -15 0 -9 6
-12 15 -9 8 4 15 13 15 21 0 8 6 21 14 29 17 16 46 19 46 4 0 -5 9 -10 20 -10
11 0 20 5 20 10 0 6 6 10 14 10 8 0 16 6 19 13 3 9 9 9 29 -2 14 -7 32 -11 40
-8 9 3 7 7 -7 13 -25 10 -45 29 -45 43 0 17 -30 13 -36 -4 -4 -8 -12 -15 -20
-15 -8 0 -14 -4 -14 -10 0 -5 -9 -10 -20 -10 -13 0 -20 7 -20 20 0 11 5 20 12
20 6 0 1 8 -10 19 -28 23 -29 51 -2 51 11 0 20 -4 20 -10 0 -5 11 -10 24 -10
19 0 24 5 23 20 -1 12 -8 20 -20 20 -21 0 -47 23 -47 41 0 13 -14 3 -16 -12
-1 -5 -2 -13 -3 -19 0 -5 -8 -10 -16 -10 -8 0 -15 -9 -15 -20 0 -11 -4 -20
-10 -20 -5 0 -10 -9 -10 -20 0 -11 -4 -20 -10 -20 -5 0 -10 -6 -10 -14 0 -8
-6 -17 -12 -20 -10 -5 -10 -7 0 -12 6 -3 12 -16 12 -30 0 -22 -2 -23 -47 -17
-27 3 -49 10 -51 15 -7 17 -32 7 -32 -12 0 -13 -7 -20 -20 -20 -16 0 -20 7
-20 30 0 23 5 30 19 30 15 0 21 8 23 33 3 31 5 32 53 35 39 3 54 8 68 28 16
21 16 26 3 39 -8 8 -28 15 -45 15 -24 0 -31 -4 -31 -20 0 -15 -7 -20 -25 -20
-23 0 -25 4 -25 45 0 38 -3 45 -20 45 -11 0 -20 -4 -20 -10 0 -5 -9 -10 -20
-10 -23 0 -27 29 -8 48 9 9 4 12 -25 12 -40 0 -51 -22 -21 -44 19 -14 9 -66
-12 -66 -8 0 -14 -4 -14 -10 0 -5 -7 -10 -15 -10 -8 0 -15 9 -15 20 0 11 4 20
9 20 5 0 11 11 13 25 4 17 1 25 -8 25 -8 0 -14 -4 -14 -10 0 -15 -40 -12 -41
3 0 10 -2 10 -6 0 -2 -7 -13 -13 -24 -13 -16 0 -19 7 -19 40 0 36 3 40 25 40
14 0 25 -4 25 -10 0 -5 18 -10 40 -10 33 0 40 3 40 20 0 16 7 20 31 20 17 0
37 7 45 15 14 13 11 15 -21 15 -29 0 -36 3 -33 18 2 9 13 18 26 20 17 3 22 10
22 33 0 22 5 29 20 29 16 0 20 -7 20 -30 0 -17 -5 -30 -12 -30 -10 0 -9 -3 1
-9 7 -5 10 -14 7 -20 -4 -6 0 -14 8 -17 23 -9 20 -44 -3 -44 -11 0 -23 -5 -26
-10 -4 -6 5 -10 19 -10 19 0 26 -5 26 -20 0 -27 53 -27 82 0 20 18 20 20 4 20
-13 0 -17 5 -13 20 3 13 0 20 -9 20 -8 0 -14 -9 -14 -20 0 -11 -4 -20 -10 -20
-5 0 -10 9 -10 20 0 11 5 20 10 20 6 0 10 20 10 45 0 38 3 45 20 45 14 0 20
-7 21 -22 0 -13 3 -17 6 -10 6 14 33 16 33 2 0 -5 11 -10 25 -10 18 0 25 5 25
20 0 22 26 28 33 8 4 -10 7 -10 18 0 9 9 10 12 1 12 -7 0 -12 9 -12 20 0 13 7
20 19 20 25 0 31 10 20 35 -4 11 -8 14 -8 8 -1 -19 -31 -16 -31 3 0 9 9 18 20
21 34 9 22 23 -20 23 -29 0 -40 4 -40 15 0 8 6 15 13 16 9 0 9 2 0 6 -7 2 -13
16 -13 29 0 19 -5 24 -25 24 -18 0 -25 5 -25 20 0 11 6 20 13 20 7 0 13 9 14
20 1 11 -2 20 -8 20 -5 0 -9 -4 -9 -10 0 -5 -7 -10 -15 -10 -20 0 -21 76 -1
96 8 8 30 14 49 14 37 0 47 12 47 57 0 25 20 53 39 53 6 0 11 5 11 10 0 6 11
10 25 10 14 0 25 -4 25 -10 0 -15 33 -12 71 7 27 14 30 18 15 21 -10 2 -23 -2
-28 -10 -7 -10 -11 -10 -15 0 -3 9 -41 12 -139 12 -127 0 -134 -1 -134 -20 0
-16 -7 -20 -35 -20 -37 0 -43 8 -23 28 9 9 7 12 -10 12 -18 0 -22 6 -22 30 0
18 6 33 15 36 18 7 10 24 -11 24 -27 0 -44 27 -44 69 0 35 -3 41 -21 41 -39 0
-65 48 -36 67 8 5 2 9 -18 13 -18 3 -31 12 -33 23 -3 14 4 17 32 17 20 0 36
-4 36 -10 0 -5 9 -10 20 -10 14 0 20 7 20 21 0 26 23 49 49 49 26 0 27 12 1
28 -34 21 -15 82 25 82 17 0 17 1 2 18 -24 26 -21 35 8 28 14 -4 25 -2 25 4 0
5 -12 10 -26 10 -21 0 -25 4 -21 20 3 13 0 20 -9 20 -8 0 -14 -4 -14 -10 0 -5
-13 -10 -30 -10 -16 0 -30 -4 -30 -10 0 -5 14 -10 30 -10 27 0 30 -3 30 -31 0
-26 -3 -31 -20 -26 -15 4 -20 0 -20 -14 0 -10 5 -19 10 -19 6 0 10 -13 10 -30
0 -27 -3 -30 -30 -30 -16 0 -30 5 -30 10 0 6 -5 10 -11 10 -15 0 -39 -26 -39
-43 0 -16 -45 -31 -61 -21 -6 3 -8 17 -5 29 3 13 2 27 -4 30 -6 4 -10 -8 -10
-30 0 -22 -4 -34 -10 -30 -5 3 -10 1 -10 -4 0 -6 -11 -11 -25 -11 -16 0 -25
-6 -25 -15 0 -8 -9 -15 -20 -15 -11 0 -20 -4 -20 -10 0 -5 -9 -10 -20 -10 -13
0 -20 7 -20 20 0 13 7 20 20 20 11 0 20 7 20 15 0 17 -16 20 -25 5 -3 -6 -19
-10 -36 -10 -22 0 -29 5 -29 20 0 17 -7 20 -50 20 -27 0 -50 5 -50 10 0 6 -7
10 -15 10 -8 0 -15 -4 -15 -10 0 -5 -8 -10 -19 -10 -10 0 -24 -7 -32 -16 -10
-13 -10 -17 1 -24 22 -13 5 -23 -18 -11 -12 6 -30 11 -41 11 -19 0 -21 -6 -21
-55 0 -48 -2 -55 -20 -55 -13 0 -20 7 -20 20 0 11 -4 20 -9 20 -5 0 -7 -9 -4
-20 4 -16 0 -20 -21 -20 -14 0 -26 5 -26 10 0 6 -7 10 -15 10 -8 0 -15 9 -15
20 0 14 7 20 21 20 18 0 19 3 9 15 -6 8 -9 23 -5 35 5 15 2 20 -10 20 -12 0
-16 6 -13 18 3 11 -2 23 -12 30 -22 13 -30 6 -30 -25 0 -14 -6 -23 -15 -23
-11 0 -14 -7 -9 -25 4 -16 2 -25 -6 -25 -6 0 -8 -4 -5 -10 3 -5 17 -10 31 -10
43 0 21 -59 -23 -61 -10 0 -13 -3 -5 -6 6 -2 12 -11 12 -18 0 -7 -6 -16 -12
-19 -7 -3 -4 -5 7 -3 12 1 21 11 23 25 5 32 42 30 42 -3 0 -20 5 -25 25 -25
21 0 25 -5 25 -30 0 -20 -5 -30 -15 -30 -8 0 -15 -4 -15 -10 0 -5 -17 -10 -38
-10 -26 0 -42 6 -52 20 -8 11 -21 20 -28 20 -9 0 -12 7 -9 20 3 13 0 20 -9 20
-8 0 -14 10 -14 25 0 16 6 25 15 25 8 0 15 5 15 10 0 6 -11 10 -25 10 -18 0
-25 5 -25 20 0 11 3 20 8 20 4 0 15 7 25 14 27 21 6 56 -33 56 -31 0 -41 -17
-15 -26 23 -9 19 -44 -5 -44 -11 0 -20 5 -20 10 0 6 -7 10 -16 10 -12 0 -15 6
-10 25 6 22 3 25 -20 25 -21 0 -25 4 -21 20 3 13 0 20 -9 20 -8 0 -14 9 -14
20 0 13 7 20 20 20 15 0 20 7 20 25 0 27 -15 34 -24 10 -3 -8 -17 -15 -31 -15
-14 0 -25 -4 -25 -10 0 -5 5 -10 10 -10 6 0 10 -9 10 -20 0 -14 -7 -20 -22
-21 -13 0 -17 -3 -10 -6 18 -7 16 -83 -3 -83 -8 0 -15 -4 -15 -10 0 -5 -9 -10
-20 -10 -23 0 -28 38 -8 58 9 9 7 12 -10 12 -19 0 -22 5 -22 39 0 28 5 41 17
45 14 6 15 9 4 16 -15 9 -41 -10 -41 -29 0 -6 -9 -11 -20 -11 -24 0 -28 35 -5
44 24 9 18 26 -9 26 -40 0 -56 11 -56 36 0 19 5 24 25 24 32 0 32 10 0 34 -14
10 -25 27 -25 37 0 14 7 19 25 19 14 0 25 5 25 10 0 6 9 10 20 10 11 0 20 -4
20 -10 0 -5 9 -10 20 -10 11 0 20 -4 20 -10 0 -5 6 -10 14 -10 8 0 16 -7 20
-15 3 -8 17 -15 31 -15 20 0 25 5 25 25 0 21 5 25 29 25 17 0 33 4 36 10 3 6
-4 10 -18 10 -19 0 -26 7 -31 30 -4 24 -11 30 -31 30 -20 0 -25 5 -25 25 0 14
5 25 10 25 6 0 10 14 10 30 0 28 -3 30 -35 30 -19 0 -35 -4 -35 -10 0 -5 -11
-10 -24 -10 -19 0 -23 -4 -19 -20 4 -16 0 -20 -17 -20 -17 0 -21 4 -17 20 3
13 0 20 -10 20 -19 0 -43 -24 -43 -44 0 -11 -9 -16 -30 -16 -27 0 -30 3 -30
30 0 20 -5 30 -15 30 -8 0 -15 -4 -15 -10 0 -5 -9 -10 -20 -10 -11 0 -20 -4
-20 -10 0 -5 -9 -10 -20 -10 -11 0 -20 -4 -20 -10 0 -5 -9 -10 -20 -10 -13 0
-20 7 -20 20 0 13 7 20 19 20 11 0 23 5 26 10 4 6 -5 10 -19 10 -23 0 -26 4
-26 35 0 33 2 35 34 35 46 0 58 28 16 37 -35 7 -43 43 -10 43 11 0 20 -4 20
-10 0 -5 19 -10 43 -10 31 0 46 -5 57 -20 8 -11 21 -20 30 -20 12 1 12 3 -2
14 -19 14 -24 46 -8 46 6 0 10 11 10 25 0 23 -4 25 -40 25 -22 0 -40 5 -40 11
0 6 -7 4 -15 -5 -8 -8 -15 -19 -15 -25 0 -6 -9 -11 -20 -11 -15 0 -20 7 -20
25 0 14 -4 25 -10 25 -5 0 -10 14 -10 30 0 29 1 30 50 30 28 0 50 -4 50 -10 0
-5 16 -10 35 -10 28 0 35 4 35 20 0 11 7 20 15 20 8 0 15 4 15 9 0 5 13 11 29
14 20 4 28 12 27 24 -1 15 9 18 67 21 l67 3 0 -56 0 -55 -63 0 c-35 0 -68 5
-74 11 -8 8 -13 8 -17 0 -4 -6 0 -11 8 -11 9 0 16 -9 16 -20 0 -16 7 -20 36
-20 21 0 33 -4 29 -10 -3 -5 -1 -10 4 -10 6 0 11 -7 11 -15 0 -8 8 -15 18 -15
10 0 23 -5 29 -11 9 -9 14 -5 19 15 3 14 13 26 22 26 12 0 13 3 5 11 -9 9 -16
8 -28 -5 -18 -18 -55 -22 -55 -5 0 16 26 39 44 39 9 0 16 5 16 10 0 13 47 13
55 0 3 -6 17 -10 31 -10 13 0 24 -4 24 -10 0 -18 18 -10 23 10 4 15 0 20 -14
20 -52 0 -81 81 -31 88 12 2 22 8 22 13 0 5 14 9 30 9 17 0 30 -4 30 -10 0 -5
7 -10 15 -10 10 0 15 7 13 18 -2 11 5 18 21 20 21 3 23 1 19 -27 -4 -30 -3
-31 34 -31 21 0 38 5 38 10 0 6 -7 10 -15 10 -8 0 -15 9 -15 20 0 33 47 26 83
-12 19 -21 32 -28 34 -20 3 7 11 19 19 26 21 21 17 46 -6 46 -16 0 -20 7 -20
35 l0 35 -71 0 c-64 0 -74 -3 -95 -25 -34 -36 -54 -33 -54 10 0 34 -1 35 -40
35 -33 0 -40 4 -40 19 0 10 -7 21 -15 25 -26 9 -18 36 11 36 21 0 25 -4 21
-20 -4 -16 0 -20 19 -20 17 0 24 6 24 20 0 13 7 20 20 20 11 0 20 -4 20 -10 0
-5 7 -10 15 -10 8 0 15 -4 15 -9 0 -5 9 -7 20 -4 14 4 20 0 20 -11 0 -9 5 -16
10 -16 6 0 10 5 10 10 0 6 6 10 14 10 18 0 17 38 -1 44 -21 9 -15 43 10 51 20
7 19 8 -10 12 -29 4 -33 8 -33 33 0 25 4 29 33 32 46 4 39 22 -10 26 -35 3
-43 7 -43 23 0 16 7 19 54 19 34 0 56 5 59 13 3 10 9 10 26 0 11 -7 32 -13 45
-13 13 0 27 -6 30 -12 3 -7 3 -3 0 10 -4 18 -1 22 16 22 13 0 24 8 27 20 3 11
14 20 24 20 15 0 19 -8 20 -32 0 -18 3 -27 6 -20 2 6 13 12 24 12 10 0 19 5
19 10 0 6 9 10 20 10 11 0 20 5 20 10 0 6 -4 10 -10 10 -5 0 -10 20 -10 45 0
34 4 45 16 45 22 0 48 27 31 33 -9 3 -9 8 2 20 9 11 10 17 2 17 -6 0 -11 17
-11 40 0 22 -4 40 -10 40 -5 0 -10 16 -10 35 0 19 5 35 10 35 6 0 10 5 10 10
0 6 -9 10 -20 10 -23 0 -28 34 -7 44 9 5 9 7 0 12 -7 3 -13 10 -13 16 0 16
-28 38 -49 38 -17 0 -21 6 -21 30 0 27 3 30 30 30 17 0 30 -5 30 -12 0 -9 4
-8 10 2 8 12 13 13 30 2 12 -7 20 -8 20 -2 0 5 7 10 15 10 8 0 15 -4 15 -10 0
-5 7 -10 15 -10 8 0 15 5 15 10 0 6 7 10 16 10 11 0 15 -6 11 -20 -3 -11 -1
-20 4 -20 5 0 9 25 9 55 0 50 -2 55 -22 55 -21 -1 -21 -2 -5 -11 32 -19 20
-39 -23 -39 -33 0 -40 3 -40 19 0 11 6 22 12 24 10 4 10 6 0 6 -7 1 -15 -6
-18 -14 -4 -8 -17 -15 -30 -15 -19 0 -24 5 -24 25 0 23 -4 25 -41 25 -42 0
-69 17 -69 44 0 9 7 16 15 16 8 0 15 -4 15 -10 0 -5 18 -10 40 -10 35 0 40 3
40 23 0 18 -5 23 -22 23 -17 -1 -24 5 -26 22 -2 15 2 22 12 22 20 0 58 -21 69
-37 11 -18 27 -16 27 2 0 8 -6 15 -14 15 -7 0 -27 14 -45 30 -17 17 -31 26
-31 20 0 -5 -13 -10 -30 -10 -23 0 -30 4 -30 20 0 11 -4 20 -10 20 -5 0 -10 6
-10 13 0 8 -10 13 -23 13 -16 -1 -22 5 -22 19 0 23 33 33 47 13 7 -10 11 -10
15 0 2 6 13 12 24 12 14 0 19 -7 19 -25 0 -16 6 -25 15 -25 11 0 14 7 9 25 -5
19 -2 25 10 25 9 0 16 5 16 10 0 6 7 10 15 10 11 0 14 7 9 25 -5 19 -1 31 16
45 l23 20 -21 0 c-15 0 -22 6 -22 20 0 13 7 20 18 20 11 0 27 9 37 20 10 11
24 20 32 20 17 0 43 24 43 39 0 6 10 11 23 12 12 0 16 3 10 6 -7 2 -13 15 -13
28 0 16 7 25 26 29 27 7 50 -3 27 -11 -10 -4 -9 -8 1 -19 22 -22 33 -17 33 16
l0 30 -79 0 c-77 0 -79 1 -76 23 2 16 10 22 28 23 14 1 44 2 68 3 23 0 42 6
42 11 0 6 -7 10 -15 10 -10 0 -15 10 -15 30 0 30 21 42 35 20 3 -6 17 -10 31
-10 13 0 24 -4 24 -10 0 -5 14 -10 30 -10 17 0 30 -4 30 -10 0 -5 9 -10 21
-10 11 0 18 -4 15 -8 -2 -4 9 -17 25 -27 16 -11 29 -28 29 -37 0 -10 6 -18 13
-18 7 0 12 13 12 33 0 25 5 33 21 35 16 2 20 8 17 23 -4 12 0 19 10 19 10 0
16 13 19 39 3 36 1 41 -21 46 -17 4 -29 1 -37 -9 -6 -9 -21 -16 -33 -16 -17 0
-22 5 -21 23 4 42 0 47 -35 47 -28 0 -35 4 -35 20 0 20 26 26 88 21 14 -1 22
4 22 14 0 27 38 55 75 55 28 0 35 4 35 20 0 28 26 25 56 -5 17 -18 20 -25 10
-25 -8 0 -17 -4 -20 -9 -3 -4 6 -6 19 -3 15 2 25 0 25 -8 0 -20 27 -40 54 -40
14 0 26 -4 26 -10 0 -5 5 -10 10 -10 21 0 9 19 -20 32 -36 16 -43 58 -10 58
16 0 20 7 20 30 0 27 -3 30 -30 30 -24 0 -30 4 -30 21 0 17 5 20 38 17 29 -2
36 -7 34 -20 -4 -24 10 -23 28 2 8 11 22 20 32 20 11 0 18 -7 18 -20 0 -16 7
-20 30 -20 27 0 30 -3 30 -31 0 -27 2 -29 15 -15 8 8 15 26 15 39 0 14 -7 27
-15 31 -19 7 -19 35 0 42 8 3 22 -1 30 -10 24 -24 45 -20 45 9 0 16 6 25 15
25 8 0 15 5 15 10 0 17 25 11 40 -10 8 -11 20 -20 26 -20 6 0 14 9 17 20 4 16
0 20 -19 20 -13 0 -24 5 -24 10 0 6 -9 10 -20 10 -11 0 -20 -4 -20 -10 0 -5
-11 -10 -25 -10 -18 0 -25 5 -25 20 0 11 -4 20 -10 20 -5 0 -10 11 -10 25 0
18 5 25 20 25 11 0 20 -5 20 -11 0 -18 33 -46 38 -31 2 6 10 12 18 12 8 0 14
7 14 15 0 10 -11 15 -35 15 -28 0 -35 4 -35 20 0 11 -4 20 -10 20 -5 0 -10 9
-10 20 0 11 5 20 10 20 6 0 10 7 10 15 0 8 9 15 20 15 11 0 20 -7 20 -15 0 -8
7 -15 15 -15 9 0 15 9 15 25 0 16 -6 25 -15 25 -8 0 -15 9 -15 20 0 11 -5 20
-11 20 -6 0 -9 -10 -7 -23 4 -20 1 -23 -19 -19 -13 2 -23 8 -23 13 0 5 -16 9
-36 9 -31 0 -35 3 -29 20 5 14 2 20 -9 20 -9 0 -16 -4 -16 -10 0 -5 -9 -10
-20 -10 -30 0 -24 27 13 63 19 19 31 39 29 50 -3 13 3 17 23 17 22 0 26 -4 22
-20 -4 -17 0 -20 29 -20 29 0 34 -3 34 -24 0 -13 -6 -26 -12 -29 -7 -2 -10 -8
-6 -12 9 -10 38 20 38 40 0 29 27 27 59 -4 28 -28 44 -81 24 -81 -5 0 -13 -11
-20 -25 -10 -24 -9 -25 18 -25 16 0 29 -4 29 -10 0 -5 14 -10 30 -10 17 0 30
-4 30 -10 0 -5 7 -10 15 -10 10 0 15 10 15 31 0 22 5 32 20 36 11 3 20 9 20
14 0 5 8 9 17 9 13 0 14 3 6 11 -8 8 -17 6 -34 -10 -29 -26 -49 -27 -49 -1 0
11 5 20 10 20 6 0 10 9 10 20 0 13 -7 20 -20 20 -11 0 -20 5 -20 10 0 6 -7 10
-15 10 -10 0 -15 11 -15 35 l0 35 55 0 c59 0 68 -10 38 -42 -9 -11 -11 -18 -5
-18 7 0 12 5 12 10 0 6 6 10 14 10 8 0 17 6 20 13 4 6 4 -2 2 -19 -4 -28 -2
-31 14 -27 11 3 20 0 20 -6 0 -6 5 -11 12 -11 6 0 1 11 -11 24 -13 14 -20 29
-16 35 8 14 35 14 35 1 0 -5 7 -10 15 -10 8 0 15 -7 15 -15 0 -11 12 -15 45
-15 25 0 45 -4 45 -10 0 -19 76 -11 95 10 16 18 16 20 1 26 -9 3 -16 15 -16
25 0 15 -7 18 -37 17 -20 -1 -39 4 -41 10 -2 7 -10 12 -18 12 -8 0 -14 9 -14
20 0 16 7 20 31 20 17 0 37 7 45 15 14 13 12 15 -15 15 -45 0 -38 45 9 62 12
5 11 7 -4 14 -13 5 -21 3 -24 -4 -2 -7 -17 -12 -34 -12 -25 0 -29 3 -25 20 5
18 0 20 -36 20 -37 -1 -40 -2 -24 -14 21 -16 23 -66 2 -66 -8 0 -15 -4 -15
-10 0 -5 16 -10 35 -10 31 0 35 -3 35 -25 0 -22 -4 -25 -35 -25 -54 0 -100 51
-60 66 19 8 19 31 1 50 -17 16 -36 19 -36 4 0 -14 -37 -12 -43 3 -3 6 -3 -2 0
-19 4 -28 1 -33 -31 -48 -23 -11 -36 -24 -36 -36 0 -16 -7 -20 -31 -20 -27 0
-30 3 -27 27 2 17 12 32 26 39 17 9 20 14 11 20 -7 4 -14 3 -17 -4 -2 -7 -17
-12 -33 -12 -26 0 -29 4 -29 30 0 24 -4 30 -21 30 -25 0 -60 -31 -41 -38 7 -2
10 -8 6 -13 -3 -5 0 -9 5 -9 6 0 11 -12 11 -26 0 -26 -1 -27 -52 -22 -29 3
-45 3 -35 1 9 -2 17 -13 17 -24 0 -15 -7 -19 -35 -19 -33 0 -35 2 -35 35 0 31
-3 35 -25 35 -30 0 -33 -20 -5 -27 25 -7 27 -43 2 -43 -10 0 -24 6 -32 13 -8
6 -7 3 3 -9 21 -26 22 -44 1 -44 -26 0 -44 27 -44 65 0 28 5 38 20 42 11 3 20
9 20 14 0 5 -9 9 -20 9 -11 0 -20 5 -20 10 0 6 -7 10 -15 10 -8 0 -15 9 -15
20 0 11 7 20 15 20 8 0 15 7 15 15 0 8 2 15 4 15 2 0 11 3 20 6 13 5 16 -2 16
-35 0 -39 2 -41 30 -41 17 0 30 -4 30 -10 0 -5 25 -10 55 -10 31 0 55 4 55 10
0 6 -10 10 -22 9 -45 -4 -58 1 -58 21 0 15 7 20 26 20 14 0 23 4 19 10 -3 6
-17 10 -31 10 -13 0 -24 -4 -24 -10 0 -5 -13 -10 -30 -10 -25 0 -30 4 -30 25
0 23 -4 25 -45 25 -41 0 -45 -2 -45 -25 0 -18 -5 -25 -20 -25 -13 0 -20 -7
-20 -20 0 -15 -7 -20 -25 -20 -14 0 -25 -4 -25 -10 0 -5 -9 -10 -19 -10 -11 0
-23 5 -26 10 -3 6 -50 10 -106 10 -59 0 -99 -4 -99 -10 0 -15 -40 -12 -41 3 0
9 -2 9 -6 0 -6 -17 -60 -17 -65 -1 -3 8 -12 5 -28 -10 -31 -29 -64 -30 -55 -2
5 16 2 20 -14 20 -12 0 -21 5 -21 10 0 6 -7 10 -15 10 -8 0 -15 9 -15 20 0 13
7 20 20 20 11 0 20 -4 20 -10 0 -5 7 -10 16 -10 11 0 14 6 9 20 -5 17 -2 20
20 20 22 0 25 -3 20 -20 -6 -18 -2 -20 43 -20 31 0 52 -5 55 -12 3 -7 6 -3 6
10 1 20 -4 22 -44 22 -39 0 -45 3 -45 21 0 12 8 23 20 26 11 3 20 9 20 14 0
16 -23 9 -47 -13 -20 -19 -27 -20 -43 -10 -11 7 -31 12 -45 12 -14 0 -25 5
-25 10 0 6 -9 10 -20 10 -16 0 -20 7 -20 30 0 23 4 30 20 30 13 0 20 -7 20
-20 0 -13 7 -20 20 -20 13 0 20 7 20 20 0 22 34 28 44 8 3 -7 3 -3 0 10 -4 18
-1 22 19 22 14 0 30 7 37 15 11 13 8 15 -19 15 -17 0 -31 5 -31 10 0 6 -11 10
-25 10 -22 0 -25 4 -25 40 0 38 2 40 30 40 17 0 30 -4 30 -10 0 -5 14 -10 30
-10 17 0 30 4 30 9 0 5 9 11 21 14 25 7 16 27 -12 27 -12 0 -19 7 -19 20 0 21
-15 27 -25 10 -3 -5 -19 -10 -36 -10 -22 0 -29 5 -29 20 0 11 7 20 15 20 8 0
15 5 15 10 0 6 -7 10 -15 10 -11 0 -14 13 -14 56 1 54 2 56 25 51 19 -3 22 -2
13 9 -11 14 -5 34 11 34 5 0 21 11 36 25 15 14 23 25 17 25 -5 0 -14 -5 -21
-12 -8 -8 -15 -8 -27 2 -14 12 -16 12 -15 -1 5 -31 -1 -39 -30 -39 -28 0 -30
2 -30 41 0 24 -7 47 -16 56 -9 9 -14 26 -11 40 2 12 0 23 -4 23 -5 0 -9 -11
-9 -25 0 -31 -22 -33 -52 -6 -24 23 -18 51 12 51 11 0 20 5 20 10 0 6 -11 10
-25 10 -18 0 -25 5 -25 20 0 15 7 20 25 20 14 0 25 -4 25 -10 0 -5 11 -10 25
-10 14 0 25 5 25 10 0 6 -7 10 -15 10 -11 0 -15 12 -15 45 0 49 17 59 47 29
13 -13 14 -20 5 -35 -11 -17 -9 -19 14 -19 18 0 25 4 21 14 -3 7 0 19 6 25 8
8 5 11 -11 11 -19 0 -22 5 -22 40 0 39 1 40 35 40 l35 0 0 65 c0 58 2 65 19
65 11 0 23 5 26 10 4 6 -8 10 -29 10 -20 0 -36 5 -36 11 0 7 -8 18 -17 25 -17
13 -17 15 0 28 9 7 17 21 17 30 0 12 10 16 38 17 20 0 46 4 57 9 18 8 17 9 -7
9 -25 1 -28 5 -28 36 0 28 4 35 20 35 11 0 20 -4 20 -10 0 -5 7 -10 16 -10 12
0 15 -6 10 -25 -4 -14 -2 -25 3 -25 5 0 16 -3 25 -6 19 -7 22 26 5 43 -19 19
-2 32 26 20 16 -8 25 -20 25 -34 0 -14 6 -23 15 -23 8 0 15 7 15 15 0 8 6 15
14 15 8 0 16 -7 20 -15 3 -8 10 -15 16 -15 5 0 10 7 10 15 0 8 5 15 10 15 6 0
10 18 10 40 0 36 3 40 25 40 14 0 25 5 25 10 0 6 14 10 30 10 23 0 30 -5 30
-19 0 -10 -7 -22 -16 -25 -14 -5 -14 -8 0 -21 16 -17 56 -20 56 -5 0 6 17 10
37 10 29 0 34 3 25 12 -7 7 -12 29 -12 50 0 52 -18 71 -43 47 -25 -23 -87 -23
-87 0 0 9 9 23 20 31 13 9 20 26 20 47 0 27 4 33 21 33 11 0 17 5 14 10 -3 6
-22 10 -41 10 -27 0 -34 4 -34 20 0 16 7 20 35 20 27 0 33 3 28 15 -3 9 2 22
13 30 18 13 18 14 2 20 -25 10 -23 45 2 45 11 0 20 -4 20 -10 0 -5 11 -10 25
-10 14 0 25 5 25 10 0 6 -11 10 -25 10 -18 0 -25 5 -25 20 0 17 7 20 50 20 36
0 50 4 50 14 0 8 7 17 16 20 12 4 14 1 9 -14 -4 -11 -2 -20 4 -20 6 0 11 5 11
10 0 14 33 13 48 -2 9 -9 12 -6 12 16 0 23 3 26 20 21 16 -5 20 -2 20 19 0 24
3 26 45 26 37 0 45 -3 45 -19 0 -19 28 -37 39 -25 3 4 0 9 -6 11 -19 7 -16 53
2 53 8 0 15 -4 15 -10 0 -16 30 -12 48 7 12 12 13 18 4 21 -6 2 -12 12 -12 23
0 10 -4 19 -10 19 -5 0 -10 7 -10 15 0 18 -36 20 -43 3 -4 -10 -8 -10 -15 0
-7 11 -10 11 -15 -2 -9 -22 -43 -20 -67 4 -24 24 -26 50 -5 50 8 0 15 5 15 10
0 6 -20 10 -45 10 -38 0 -45 3 -45 20 0 12 7 20 16 20 9 0 27 8 40 19 l24 19
-21 26 c-11 14 -29 26 -40 26 -12 0 -19 7 -19 20 0 11 5 20 10 20 6 0 10 11
10 25 0 18 5 25 20 25 11 0 20 -4 20 -10 0 -5 9 -10 19 -10 11 0 22 -8 24 -17
3 -11 5 -7 6 10 1 23 5 27 31 27 25 0 30 -4 30 -23 0 -29 -18 -47 -47 -47 -27
0 -29 -6 -9 -26 20 -20 36 -17 36 6 0 22 35 29 43 8 4 -10 7 -10 18 0 11 10
10 12 -4 12 -20 0 -24 50 -4 51 9 0 9 2 0 6 -18 7 -16 33 2 33 8 0 15 -4 15
-10 0 -5 9 -10 20 -10 27 0 25 18 -2 22 -26 3 -38 38 -14 38 12 0 14 7 10 30
-5 22 -2 31 11 36 10 4 21 1 26 -7 6 -11 9 -8 9 9 0 12 -4 22 -9 22 -6 0 -11
19 -13 42 -3 38 -28 69 -28 34 0 -11 -9 -16 -30 -16 -23 0 -30 4 -30 20 0 11
6 20 13 21 10 0 10 2 0 6 -7 2 -13 13 -13 24 0 14 7 19 25 19 14 0 25 5 25 10
0 6 7 10 15 10 8 0 15 -4 15 -10 0 -17 25 -11 40 10 8 11 23 20 33 20 9 0 20
7 23 15 4 8 12 15 20 15 8 0 14 5 14 10 0 6 12 10 28 10 17 0 22 3 14 8 -7 5
-11 26 -10 50 2 50 -4 58 -25 37 -19 -18 -57 -20 -58 -2 0 10 -2 10 -6 0 -2
-7 -13 -13 -24 -13 -12 0 -19 -7 -19 -20 0 -11 -7 -20 -15 -20 -8 0 -15 -4
-15 -10 0 -5 -13 -10 -30 -10 -23 0 -30 4 -30 20 0 11 -4 20 -10 20 -5 0 -10
16 -10 35 0 24 5 35 15 35 11 0 13 8 9 30 -5 25 -3 30 12 30 19 1 19 1 0 15
-12 9 -17 22 -13 35 3 13 0 20 -9 20 -8 0 -14 9 -14 20 0 30 40 27 41 -2 0
-13 3 -17 6 -10 2 6 18 12 34 12 16 0 29 5 29 10 0 6 9 10 20 10 11 0 20 -4
20 -10 0 -5 6 -10 14 -10 9 0 12 7 9 20 -4 16 0 20 21 20 19 0 26 5 26 20 0
11 6 20 13 20 23 -1 47 -27 47 -53 0 -24 2 -24 45 19 25 24 45 47 45 51 0 5 9
15 20 23 15 11 20 26 20 57 0 36 3 43 20 43 11 0 20 5 20 10 0 6 -9 10 -20 10
-13 0 -20 7 -20 20 0 16 7 20 30 20 17 0 30 -4 30 -10 0 -5 7 -10 16 -10 8 0
12 -4 9 -10 -3 -5 1 -10 10 -10 9 0 13 -4 10 -10 -3 -5 -2 -10 4 -10 5 0 16
-3 25 -6 13 -5 16 1 16 30 0 24 5 36 14 36 9 0 12 7 9 20 -5 17 0 20 30 20 19
0 42 3 50 6 8 3 22 -2 31 -11 9 -9 16 -12 16 -6 0 6 16 11 35 11 28 0 35 -4
35 -20 0 -18 7 -20 55 -20 30 0 55 5 55 10 0 6 -4 10 -10 10 -5 0 -10 9 -10
20 0 21 15 27 25 10 11 -18 35 -11 35 10 0 11 -4 20 -10 20 -5 0 -10 11 -10
25 0 18 5 25 20 25 11 0 20 5 20 10 0 6 9 10 20 10 11 0 20 -4 20 -10 0 -5 7
-10 15 -10 8 0 15 5 15 10 0 6 8 10 19 10 13 0 20 -9 25 -30 6 -34 22 -39 31
-10 4 13 15 20 31 20 13 0 24 5 24 10 0 15 29 12 46 -4 8 -8 14 -22 14 -30 0
-20 56 -22 63 -3 3 6 6 -2 6 -20 1 -17 -3 -34 -9 -38 -5 -3 -7 -12 -3 -21 3
-8 -4 -23 -16 -33 -27 -24 -27 -31 4 -31 14 0 25 5 25 10 0 6 9 10 20 10 15 0
20 -7 20 -25 0 -14 5 -25 10 -25 15 0 12 39 -4 56 -8 8 -22 14 -30 14 -9 0
-16 8 -16 20 0 13 7 20 20 20 11 0 20 5 20 10 0 6 -4 10 -10 10 -5 0 -10 11
-10 25 0 22 4 25 35 25 19 0 35 5 35 10 0 6 7 10 15 10 9 0 18 12 22 30 5 28
8 30 52 30 40 0 50 4 76 35 29 34 55 45 55 25 0 -5 11 -10 24 -10 18 0 25 -6
28 -22 2 -15 11 -24 26 -26 18 -3 22 -8 18 -25 -3 -12 -3 -16 0 -9 7 14 44 16
44 2 0 -5 5 -10 10 -10 6 0 10 9 10 20 0 11 -4 20 -10 20 -5 0 -10 11 -10 25
0 14 5 25 10 25 6 0 10 17 8 40 -1 22 -6 40 -10 40 -4 0 -8 20 -8 45 0 34 -4
45 -16 45 -27 0 -44 27 -44 69 0 34 3 41 20 41 15 0 20 -7 20 -25 0 -14 5 -25
10 -25 6 0 10 -13 10 -30 0 -23 4 -30 20 -30 11 0 20 -4 20 -10 0 -5 12 -10
26 -10 20 0 25 -4 22 -22 -2 -16 3 -24 17 -26 11 -3 26 -13 33 -23 14 -20 62
-27 62 -9 0 6 9 10 20 10 31 0 28 -57 -2 -63 -22 -3 -22 -4 -4 -12 13 -6 21
-5 24 3 2 7 13 12 25 12 19 1 20 2 5 10 -19 12 -13 50 9 50 19 0 43 -25 43
-45 0 -15 1 -15 16 0 13 12 14 19 5 28 -18 18 -13 37 12 37 32 -1 57 -23 57
-54 0 -21 5 -26 25 -26 14 0 25 5 25 10 0 6 -7 10 -15 10 -21 0 -20 56 1 64 8
3 12 10 9 16 -3 5 -2 10 4 10 5 0 13 9 16 20 6 20 45 29 45 10 0 -5 9 -10 20
-10 13 0 20 -7 20 -19 0 -15 -8 -21 -32 -23 -30 -3 -33 -6 -29 -33 1 -16 7
-33 13 -36 5 -4 8 -23 6 -44 -2 -24 2 -40 10 -43 6 -2 12 3 12 12 0 9 5 16 10
16 6 0 10 9 10 20 0 16 7 20 35 20 19 0 35 5 35 10 0 6 -4 10 -10 10 -5 0 -10
9 -10 20 0 11 6 20 14 20 9 0 12 8 8 25 -3 20 0 25 17 25 16 0 21 -6 21 -25 0
-14 -4 -25 -9 -25 -5 0 -11 -9 -14 -20 -3 -13 0 -20 9 -20 8 0 14 -4 14 -10 0
-14 27 -13 32 2 2 6 12 9 21 5 10 -4 14 -12 11 -22 -5 -11 1 -15 21 -15 15 0
24 -4 20 -10 -4 -6 5 -10 19 -10 19 0 26 5 26 20 0 11 7 20 15 20 8 0 15 5 15
10 0 6 -11 10 -25 10 -18 0 -25 5 -25 20 0 11 -4 20 -10 20 -5 0 -10 11 -10
25 0 21 5 25 30 25 17 0 29 3 29 8 -3 20 3 32 17 32 12 0 14 9 12 42 -3 38
-28 69 -28 34 0 -20 -29 -21 -36 -1 -4 9 -19 15 -40 15 -27 0 -34 4 -34 20 0
11 7 20 15 20 10 0 15 10 15 30 0 23 4 30 20 30 11 0 20 -4 20 -10 0 -5 15
-10 33 -9 32 0 32 0 10 16 -30 20 -32 73 -4 73 11 0 22 -6 24 -12 3 -8 6 -5 6
5 1 23 24 47 45 47 13 0 16 -11 16 -51 0 -31 6 -56 15 -65 8 -9 15 -11 15 -5
0 6 7 11 15 11 8 0 15 -9 15 -20 0 -11 7 -20 15 -20 8 0 15 7 15 15 0 8 9 15
20 15 16 0 20 -7 20 -35 0 -24 5 -35 15 -35 8 0 15 5 15 10 0 14 27 12 33 -2
3 -7 6 -2 6 12 1 19 4 21 13 12 7 -7 20 -12 30 -12 10 0 18 -6 19 -12 0 -10 2
-10 6 0 3 7 24 12 54 12 l49 0 0 45 c0 38 3 45 20 45 15 0 20 7 20 26 0 15 8
33 18 40 16 13 16 13 0 14 -24 0 -26 70 -3 70 8 0 14 3 14 8 -3 18 2 23 19 20
9 -2 18 -13 20 -26z m-4068 -3337 c0 -25 5 -45 10 -45 6 0 10 -9 10 -20 0 -13
-7 -20 -18 -20 -10 0 -24 9 -32 20 -21 29 -30 25 -30 -15 0 -35 -29 -63 -38
-37 -7 21 -20 13 -15 -8 3 -11 9 -20 14 -20 14 0 10 -40 -5 -56 -8 -8 -27 -14
-43 -14 -24 0 -28 -4 -28 -30 0 -17 5 -30 13 -30 6 0 12 -9 12 -19 0 -11 -6
-22 -12 -24 -7 -3 -3 -6 10 -6 15 -1 22 -7 22 -21 0 -17 -7 -20 -40 -20 -25 0
-40 5 -41 13 0 10 -2 10 -6 0 -2 -7 -13 -13 -24 -13 -10 0 -19 -4 -19 -10 0
-18 -35 -11 -50 10 -8 11 -20 20 -27 20 -7 0 -13 9 -13 20 0 15 7 20 25 20 14
0 25 -4 25 -10 0 -5 7 -10 15 -10 8 0 15 4 15 9 0 5 9 11 21 14 12 3 18 10 14
16 -3 6 0 11 7 11 9 0 12 14 10 50 -3 41 -7 50 -23 50 -13 0 -19 7 -19 21 0
25 22 49 46 49 14 0 15 3 6 12 -16 16 -15 28 3 28 8 0 15 4 15 9 0 5 -7 11
-15 15 -21 8 -19 28 5 49 22 18 55 24 45 7 -3 -5 1 -10 9 -10 9 0 16 -4 16
-10 0 -5 13 -10 29 -10 16 0 32 -6 34 -12 3 -7 6 6 6 30 1 40 2 42 31 42 29 0
30 -2 30 -45z m7040 -4245 c0 -5 7 -10 15 -10 8 0 15 5 15 10 0 6 9 10 20 10
13 0 20 -7 20 -20 0 -13 -7 -20 -19 -20 -23 0 -36 -39 -15 -47 8 -3 14 -11 14
-19 0 -8 6 -11 15 -8 8 4 15 15 15 25 0 12 7 19 20 19 11 0 20 5 20 10 0 6 9
10 20 10 32 0 23 -28 -15 -46 -19 -9 -35 -21 -35 -26 0 -6 6 -5 15 2 19 16 35
4 35 -26 0 -22 -4 -24 -45 -24 -38 0 -45 3 -45 20 0 11 -4 20 -10 20 -5 0 -10
-16 -10 -35 0 -28 -4 -35 -20 -35 -11 0 -20 7 -20 15 0 10 -10 15 -30 15 -16
0 -30 5 -30 11 0 6 -7 4 -15 -5 -8 -8 -15 -19 -15 -25 0 -6 -9 -11 -20 -11
-16 0 -20 7 -20 35 0 28 4 35 20 35 11 0 20 5 20 10 0 6 6 10 13 10 7 0 12 13
12 32 0 38 33 54 42 20 3 -14 11 -18 24 -15 19 5 19 6 -2 24 -12 11 -19 25
-15 34 6 17 26 21 26 5z m-6926 -163 c12 -12 29 -21 40 -19 15 3 18 -1 14 -22
-5 -24 -3 -26 33 -26 20 0 40 -6 43 -12 5 -10 7 -10 12 0 3 6 14 12 25 12 14
0 19 -7 19 -30 0 -28 -3 -30 -35 -30 -19 0 -35 5 -35 10 0 6 -9 10 -20 10 -11
0 -20 -4 -20 -9 0 -6 -15 -11 -32 -13 -20 -2 -32 -8 -30 -15 1 -7 -7 -13 -18
-13 -13 0 -20 7 -20 20 0 11 5 20 10 20 6 0 0 11 -14 25 -14 14 -30 25 -36 25
-17 0 -11 52 8 71 23 24 31 23 56 -4z m2400 -229 c5 -10 7 -10 12 0 10 20 44
15 44 -8 0 -13 -7 -20 -20 -20 -24 0 -27 -34 -6 -56 17 -16 56 -19 56 -4 0 6
10 10 21 10 16 0 20 -5 16 -20 -3 -11 -1 -20 5 -20 17 0 40 -29 36 -47 -4 -23
-28 -29 -28 -7 0 16 -1 16 -19 -2 -10 -10 -17 -22 -14 -26 2 -5 -7 -8 -21 -8
-20 0 -26 5 -26 23 0 13 5 28 12 35 9 9 9 12 0 12 -7 0 -12 -4 -12 -10 0 -5
-12 -10 -26 -10 -20 0 -24 -4 -19 -19 7 -23 -11 -37 -28 -22 -8 6 -18 6 -27 1
-13 -8 -12 -10 3 -10 10 0 17 -8 17 -20 0 -15 -7 -20 -25 -20 -14 0 -25 5 -25
10 0 6 -4 10 -10 10 -5 0 -10 -7 -10 -16 0 -11 -5 -14 -16 -10 -9 3 -24 6 -35
6 -12 0 -19 7 -19 20 0 16 7 20 35 20 19 0 35 4 35 9 0 5 9 11 21 14 13 3 18
10 14 17 -5 7 0 11 11 10 31 -4 44 -1 44 10 0 6 -16 10 -35 10 -28 0 -35 4
-35 20 0 16 7 20 37 20 29 0 34 3 25 12 -7 7 -12 22 -12 35 0 13 -4 23 -10 23
-5 0 -10 9 -10 20 0 23 34 28 44 8z m-2564 -538 c0 -5 7 -10 16 -10 8 0 12 5
9 10 -3 6 1 10 9 10 9 0 16 -9 16 -20 0 -13 7 -20 20 -20 11 0 20 -5 20 -11 0
-14 26 -39 40 -39 7 0 10 -8 7 -20 -3 -13 0 -20 9 -20 8 0 14 -10 14 -26 0
-21 -4 -25 -22 -22 -16 2 -22 9 -21 22 2 27 -21 46 -56 46 -17 0 -31 5 -31 10
0 6 -6 10 -14 10 -8 0 -13 -8 -12 -17 1 -12 -6 -18 -19 -18 -13 0 -20 6 -19
18 1 12 -5 17 -22 17 -19 0 -24 5 -24 25 0 16 6 25 16 25 8 0 12 5 9 10 -3 6
1 10 9 10 9 0 16 5 16 10 0 6 7 10 15 10 8 0 15 -4 15 -10z m2730 -120 c0 -11
5 -20 10 -20 6 0 10 -9 10 -20 0 -23 -19 -26 -39 -7 -11 10 -13 9 -9 -3 3 -8
14 -16 26 -18 12 -2 22 -8 22 -13 0 -5 11 -9 25 -9 18 0 25 -5 25 -20 0 -15
-7 -20 -25 -20 -14 0 -25 5 -25 10 0 6 -13 10 -30 10 -16 0 -30 5 -30 10 0 6
-5 10 -11 10 -7 0 -9 -10 -5 -26 6 -22 4 -25 -9 -20 -9 3 -27 3 -41 0 -18 -5
-24 -13 -24 -35 0 -33 7 -36 25 -12 8 10 19 14 30 9 13 -5 16 -14 12 -39 -3
-17 -3 -26 0 -19 2 6 13 12 23 12 10 0 20 4 22 9 2 5 14 11 28 13 22 3 25 -1
28 -29 2 -18 7 -33 13 -33 5 0 9 5 9 10 0 6 9 10 19 10 20 0 39 32 22 38 -6 2
-11 19 -11 38 0 28 4 34 21 34 18 0 21 -5 17 -35 -4 -31 -1 -35 19 -35 16 0
23 -6 23 -20 0 -15 -7 -20 -24 -20 -15 0 -27 -7 -30 -17 -4 -10 -23 -29 -44
-43 -29 -19 -33 -25 -19 -28 12 -3 16 -9 12 -23 -5 -15 -1 -19 19 -19 22 0 26
-4 26 -30 0 -27 3 -30 30 -30 28 0 30 -3 30 -35 0 -28 -4 -35 -20 -35 -11 0
-20 5 -20 10 0 6 -7 10 -16 10 -18 0 -44 23 -44 39 0 6 -7 11 -15 11 -8 0 -15
-7 -15 -15 0 -8 -6 -15 -14 -15 -8 0 -18 -9 -21 -20 -5 -16 -15 -20 -46 -20
-21 0 -39 5 -39 10 0 6 -7 10 -15 10 -8 0 -15 4 -15 9 0 5 -18 8 -40 7 -22 -2
-40 0 -40 3 0 3 -11 6 -25 6 -19 0 -25 -5 -25 -22 0 -20 -5 -23 -44 -23 -39 0
-44 -2 -39 -20 4 -16 0 -20 -21 -20 -14 0 -26 -4 -26 -10 0 -15 -29 -12 -46 4
-8 8 -14 22 -14 30 0 10 -9 16 -24 16 -19 0 -23 -5 -22 -30 1 -29 18 -40 31
-20 5 8 11 7 21 -1 20 -16 17 -29 -5 -29 -10 0 -21 -7 -25 -15 -3 -8 -12 -15
-20 -15 -7 0 -16 7 -20 15 -3 8 -10 15 -16 15 -5 0 -10 -7 -10 -15 0 -8 -9
-15 -20 -15 -15 0 -20 7 -20 25 0 20 -5 25 -25 25 -27 0 -34 -17 -10 -26 8 -4
15 -15 15 -26 0 -14 -6 -19 -22 -16 -14 2 -23 10 -22 20 1 10 -8 19 -22 22
-30 8 -34 46 -4 46 11 0 20 5 20 10 0 6 7 10 15 10 8 0 15 5 15 10 0 6 16 10
35 10 19 0 35 5 35 10 0 6 -18 10 -40 10 -22 0 -40 -4 -40 -10 0 -6 -27 -10
-61 -10 -62 0 -89 -13 -89 -44 0 -9 7 -16 15 -16 8 0 15 5 15 10 0 6 10 10 21
10 17 0 20 -5 16 -21 -3 -12 0 -22 9 -26 18 -7 18 -30 0 -49 -17 -16 -46 -19
-46 -4 0 6 -7 10 -15 10 -10 0 -15 -10 -15 -30 0 -23 -4 -30 -20 -30 -16 0
-20 7 -20 36 0 23 6 42 18 50 15 12 14 13 -10 14 -22 0 -28 5 -28 21 0 22 22
49 39 49 6 0 11 5 11 10 0 6 -7 10 -15 10 -8 0 -15 -4 -15 -10 0 -5 -9 -10
-20 -10 -25 0 -26 28 -2 46 15 12 14 13 -10 14 -36 0 -38 31 -3 65 29 30 55
32 55 5 0 -11 -4 -20 -10 -20 -5 0 -10 -10 -9 -22 l0 -23 9 23 c5 12 16 22 24
22 12 0 14 7 10 30 -6 27 -4 30 20 30 19 0 26 -5 26 -20 0 -11 5 -20 10 -20 6
0 10 7 10 16 0 20 28 43 51 44 9 0 22 7 29 15 11 13 8 15 -15 15 -25 0 -27 3
-23 30 4 26 1 30 -19 30 -16 0 -23 6 -23 20 0 16 7 20 30 20 24 0 30 -4 31
-22 0 -13 3 -17 6 -10 2 6 13 12 24 12 10 0 19 5 19 10 0 6 9 10 20 10 11 0
20 7 20 15 0 8 9 15 20 15 14 0 20 -7 20 -24 0 -13 7 -29 15 -36 13 -10 15 -9
15 9 0 11 5 21 10 21 6 0 10 7 10 15 0 10 10 15 30 15 25 0 30 -4 30 -25 0
-16 6 -25 16 -25 11 0 14 5 10 17 -10 24 27 53 69 53 19 0 35 -4 35 -10 0 -5
7 -10 15 -10 8 0 15 5 15 10 0 6 7 10 15 10 8 0 15 -4 15 -10 0 -5 7 -10 15
-10 8 0 15 9 15 20 0 13 7 20 20 20 16 0 20 7 20 30 0 28 3 30 35 30 24 0 35
5 35 15 0 8 5 15 10 15 6 0 10 14 10 30 0 23 4 30 20 30 13 0 20 -7 20 -20z"/>
<path d="M3550 11202 c-10 -11 -11 -17 -2 -20 7 -2 12 -15 12 -28 0 -22 -4
-24 -52 -24 -29 0 -60 -5 -68 -10 -10 -6 -11 -10 -2 -10 7 0 12 -15 12 -40 0
-22 5 -40 10 -40 6 0 10 -11 10 -25 0 -19 -5 -25 -21 -25 -11 0 -17 5 -14 10
3 6 2 10 -4 10 -6 0 -8 -12 -4 -30 5 -26 3 -30 -16 -30 -19 0 -21 -6 -21 -52
0 -40 3 -49 12 -40 19 19 45 14 52 -11 8 -32 42 -70 58 -64 10 4 10 6 1 6 -7
1 -13 8 -13 16 0 10 10 15 30 15 17 0 30 -4 30 -10 0 -5 7 -10 15 -10 8 0 15
5 15 10 0 6 9 10 21 10 17 0 20 -5 17 -32 -3 -32 -2 -33 40 -36 33 -2 42 0 42
12 0 11 -10 16 -30 16 -29 0 -30 1 -30 50 0 43 3 50 20 50 13 0 20 -7 20 -20
0 -11 5 -20 10 -20 6 0 10 21 10 46 0 41 2 45 23 42 18 -2 22 -9 21 -35 -2
-29 1 -33 22 -33 20 0 24 -5 24 -30 0 -16 -4 -30 -10 -30 -5 0 -10 -8 -10 -18
0 -20 -33 -52 -55 -52 -8 0 -15 -4 -15 -9 0 -5 -10 -11 -22 -13 -25 -3 -38
-38 -15 -38 8 0 20 -13 26 -30 11 -34 22 -41 14 -10 -4 15 0 20 15 20 11 0 23
-6 25 -12 3 -7 6 6 6 30 1 35 4 42 21 42 11 0 20 -4 20 -10 0 -5 20 -10 45
-10 44 0 60 12 30 24 -8 3 -15 12 -15 21 0 17 25 21 35 5 12 -20 35 -10 35 15
0 22 -4 25 -35 25 -28 0 -35 4 -35 20 0 16 7 20 35 20 19 0 35 -4 35 -10 0 -5
9 -10 20 -10 11 0 20 -4 20 -10 0 -5 20 -10 45 -10 38 0 45 3 45 20 0 30 40
27 41 -2 0 -13 3 -17 6 -10 2 6 11 12 19 12 17 0 19 -46 2 -54 -10 -5 -10 -7
0 -12 6 -3 12 -15 12 -26 0 -18 1 -19 17 -2 13 13 14 19 5 22 -16 5 -16 49 0
54 14 5 -34 58 -52 58 -19 0 -10 29 20 60 26 26 36 30 85 30 l55 0 0 -35 c0
-24 5 -35 15 -35 10 0 15 10 15 34 0 33 2 35 38 39 32 3 34 5 15 12 -13 4 -23
11 -23 16 0 18 -18 8 -23 -12 -8 -30 -32 -18 -30 15 1 21 -2 26 -23 26 -17 0
-24 -5 -24 -20 0 -26 -20 -26 -48 0 -12 12 -22 16 -22 10 0 -5 -9 -10 -20 -10
-16 0 -20 7 -20 35 0 28 -4 35 -20 35 -11 0 -20 4 -20 9 0 5 -12 11 -27 13
-14 2 -28 9 -31 15 -6 19 27 28 49 15 23 -15 29 -15 29 -2 0 6 -6 10 -14 10
-8 0 -17 10 -21 23 -13 47 -29 67 -52 67 -13 0 -23 -4 -23 -10 0 -5 -9 -10
-20 -10 -11 0 -20 -7 -20 -15 0 -8 -9 -15 -20 -15 -11 0 -20 7 -20 15 0 9 -9
15 -25 15 -16 0 -25 -6 -25 -15 0 -8 5 -15 10 -15 6 0 10 -9 10 -20 0 -16 -7
-20 -30 -20 -23 0 -30 4 -30 20 0 13 -7 20 -20 20 -11 0 -20 7 -20 15 0 8 -4
15 -10 15 -5 0 -10 9 -10 20 0 11 -7 20 -15 20 -8 0 -15 -4 -15 -10 0 -5 -8
-10 -19 -10 -12 0 -20 -9 -24 -27 -5 -25 -4 -26 8 -9 8 10 18 15 24 11 14 -8
14 -45 1 -45 -5 0 -10 -9 -10 -20 0 -15 -7 -20 -26 -20 -41 0 -54 22 -54 89 0
48 -3 61 -15 61 -8 0 -15 -4 -15 -10 0 -12 -27 -13 -32 -1 -1 5 -10 2 -18 -7z"/>
<path d="M7321 8183 c-1 -7 -10 -13 -21 -13 -11 0 -20 -3 -20 -8 0 -4 -12 -15
-27 -24 -16 -10 -22 -18 -15 -18 14 0 17 -60 3 -60 -5 0 -11 5 -13 12 -2 6 -9
8 -16 4 -17 -10 -3 -36 20 -36 28 0 48 -24 48 -59 0 -17 5 -31 10 -31 6 0 10
-13 10 -30 0 -37 -21 -40 -55 -5 -16 15 -25 36 -25 57 l-1 33 -18 -21 c-9 -12
-26 -24 -37 -27 -16 -4 -16 -5 4 -6 18 -1 22 -7 22 -31 0 -16 -4 -30 -10 -30
-5 0 -10 -9 -10 -20 0 -13 7 -20 20 -20 11 0 20 -4 20 -10 0 -5 15 -10 34 -10
26 0 36 5 41 20 5 16 15 20 51 20 26 0 52 6 60 14 20 20 18 26 -11 26 -14 0
-25 -4 -25 -10 0 -5 -9 -10 -20 -10 -27 0 -29 56 -2 63 16 4 16 5 0 6 -11 1
-18 9 -18 21 0 15 7 20 25 20 14 0 25 5 25 10 0 6 12 10 27 10 42 0 14 17 -34
22 -30 2 -43 0 -43 -9 0 -7 -9 -13 -20 -13 -13 0 -20 7 -20 20 0 11 -4 20 -10
20 -5 0 -10 16 -10 35 0 28 4 35 20 35 15 0 20 -7 20 -25 0 -25 1 -25 90 -25
84 0 90 1 90 20 0 12 -11 32 -25 45 -13 14 -33 25 -45 25 -11 0 -20 5 -20 10
0 6 -7 10 -15 10 -8 0 -15 -4 -15 -10 0 -14 -27 -12 -33 3 -4 10 -6 10 -6 0z"/>
<path d="M7695 7890 c-6 -20 -35 -28 -35 -10 0 25 -28 7 -32 -20 -4 -29 -4
-30 39 -30 39 0 43 -2 43 -25 0 -14 -4 -25 -10 -25 -16 0 -12 -30 7 -48 12
-12 18 -13 21 -4 2 6 19 12 38 12 27 0 34 -4 34 -20 0 -11 5 -20 11 -20 5 0 7
-4 4 -10 -12 -19 11 -10 25 10 15 21 39 27 41 10 3 -20 5 -25 16 -45 12 -19
12 -18 13 8 0 15 -4 27 -10 27 -5 0 -10 7 -10 15 0 18 -43 65 -60 65 -5 0 -10
-4 -10 -10 0 -5 -13 -10 -30 -10 -41 0 -44 37 -3 42 23 3 24 5 11 16 -13 10
-19 10 -32 -3 -9 -9 -20 -13 -26 -10 -19 12 -10 52 15 71 35 26 31 34 -14 34
-31 0 -41 -4 -46 -20z"/>
<path d="M4301 7567 c-8 -15 -18 -27 -23 -27 -4 0 -8 -9 -8 -20 0 -12 -7 -20
-16 -20 -8 0 -22 -6 -30 -14 -16 -17 -19 -46 -4 -46 6 0 10 -11 10 -24 0 -19
5 -23 27 -23 21 0 23 1 10 9 -31 17 -8 38 44 38 27 0 49 5 49 10 0 6 5 10 11
10 11 0 39 24 39 34 0 3 -7 6 -15 6 -8 0 -15 6 -15 14 0 7 7 19 15 26 8 7 15
18 15 24 0 6 -5 3 -11 -6 -6 -12 -22 -18 -44 -18 -29 0 -34 4 -37 27 l-3 27
-14 -27z"/>
<path d="M8182 6018 c-7 -7 -12 -20 -12 -30 0 -21 -35 -25 -43 -5 -3 6 -6 -23
-6 -65 -1 -45 -5 -78 -11 -78 -5 0 -10 -7 -10 -15 0 -10 -11 -15 -35 -15 -33
0 -34 -1 -23 -20 7 -11 14 -16 16 -10 7 19 42 11 42 -10 0 -11 7 -20 15 -20
10 0 15 -10 15 -30 0 -16 5 -30 11 -30 5 0 7 5 4 10 -3 6 1 10 9 10 9 0 16 5
16 10 0 6 -4 10 -10 10 -5 0 -10 9 -10 20 0 21 24 28 35 10 9 -14 69 -12 83 2
10 10 15 10 20 1 5 -8 13 -9 22 -3 10 7 11 10 3 10 -7 0 -13 9 -13 20 0 22 35
29 43 8 4 -10 7 -10 18 0 15 14 49 16 49 3 0 -5 18 -11 40 -13 26 -2 36 0 30
6 -6 6 -10 20 -10 33 0 29 30 31 37 3 3 -11 9 -20 14 -20 5 0 9 -10 9 -22 l0
-21 19 21 c24 28 36 28 66 -3 30 -29 32 -55 5 -55 -11 0 -20 5 -20 10 0 6 -12
10 -26 10 -14 0 -23 -4 -19 -10 3 -5 15 -10 26 -10 10 0 19 -6 19 -14 0 -9 7
-12 20 -9 16 4 20 0 20 -21 0 -19 -5 -26 -20 -26 -14 0 -20 -7 -20 -24 0 -13
-6 -27 -12 -29 -10 -4 -10 -6 0 -6 8 -1 12 -17 12 -46 0 -25 5 -45 10 -45 6 0
10 -13 10 -30 0 -33 13 -38 36 -16 18 19 18 26 -1 26 -8 0 -15 9 -15 20 0 11
6 20 14 20 11 0 13 9 9 35 -4 28 -2 35 11 35 9 0 16 8 16 20 0 11 5 20 10 20
6 0 10 9 10 20 0 13 7 20 20 20 13 0 20 -7 20 -20 0 -11 -6 -20 -13 -20 -7 0
-13 -9 -13 -20 0 -14 7 -20 23 -20 13 0 23 5 23 10 0 6 6 10 13 10 8 0 14 12
14 30 0 20 -5 30 -15 30 -11 0 -13 8 -9 35 5 29 3 35 -12 35 -9 0 -27 9 -39
20 -23 22 -42 26 -42 10 0 -5 -9 -10 -20 -10 -24 0 -28 35 -4 44 8 3 13 10 10
15 -4 5 1 16 9 24 27 27 19 47 -20 47 -19 0 -35 -4 -35 -10 0 -5 5 -10 10 -10
6 0 10 -16 10 -35 0 -28 -4 -35 -20 -35 -12 0 -20 7 -20 16 0 12 -7 14 -28 10
-17 -4 -35 -1 -47 8 -11 9 -28 16 -37 16 -10 0 -18 5 -18 10 0 6 -9 10 -20 10
-11 0 -20 5 -20 10 0 6 -11 10 -25 10 -14 0 -25 -4 -25 -10 0 -5 5 -10 10 -10
17 0 11 -36 -8 -53 -31 -28 -42 -21 -42 27 0 30 5 46 14 48 22 5 -7 68 -31 68
-10 0 -25 9 -33 20 -8 12 -26 20 -42 20 -15 0 -28 5 -28 10 0 14 -23 13 -38
-2z"/>
<path d="M4402 5722 c-2 -40 -41 -82 -77 -82 -14 0 -25 4 -25 9 0 15 -50 19
-65 5 -7 -8 -21 -14 -29 -14 -9 0 -16 -8 -16 -20 0 -11 -6 -20 -14 -20 -8 0
-13 -10 -13 -25 0 -20 5 -25 23 -25 17 0 24 -6 24 -20 0 -11 4 -20 9 -20 5 0
7 9 4 19 -4 16 1 20 29 23 20 2 32 8 31 16 -2 8 15 12 60 12 l64 0 -5 30 c-4
25 -1 30 16 30 15 0 19 5 15 20 -3 11 -9 20 -14 20 -4 0 -10 17 -12 38 -4 36
-4 36 -5 4z"/>
<path d="M4011 5698 c3 -27 -2 -36 -23 -43 -14 -4 -18 -8 -10 -12 7 -3 12 -23
12 -49 0 -24 5 -44 10 -44 14 0 12 -27 -2 -33 -7 -3 0 -6 16 -6 26 -1 28 -4
24 -31 -4 -26 -1 -30 19 -30 13 0 23 5 23 10 0 6 7 10 15 10 8 0 15 5 15 10 0
14 27 12 33 -2 4 -8 6 -9 6 -2 1 6 -6 17 -14 24 -8 7 -15 16 -15 21 0 5 7 9
15 9 8 0 15 5 15 10 0 6 -7 10 -15 10 -8 0 -15 -4 -15 -10 0 -5 -9 -10 -20
-10 -16 0 -20 7 -20 35 0 31 3 35 26 35 14 0 23 4 19 10 -3 6 -17 10 -31 10
-28 0 -56 22 -53 42 4 31 -2 48 -16 48 -9 0 -15 -6 -14 -12z"/>
<path d="M3500 5390 c0 -5 -11 -10 -25 -10 -14 0 -25 -4 -25 -10 0 -5 5 -10
10 -10 6 0 10 -9 10 -20 0 -13 -7 -20 -20 -20 -11 0 -20 -7 -20 -15 0 -8 5
-15 10 -15 6 0 10 -9 10 -20 0 -11 7 -20 15 -20 9 0 15 6 14 13 -3 28 2 37 22
37 15 0 20 -5 17 -22 -2 -19 2 -24 30 -26 24 -2 32 -8 32 -23 0 -10 -4 -19
-10 -19 -5 0 -10 -4 -10 -10 0 -5 11 -10 25 -10 14 0 25 5 25 10 0 14 27 12
33 -2 4 -10 6 -10 6 0 1 6 8 12 16 12 8 0 15 5 15 10 0 6 8 10 18 10 11 0 18
7 18 20 0 11 -6 20 -13 20 -7 0 -13 11 -13 25 0 14 5 25 10 25 18 0 10 38 -9
43 -25 6 -71 -3 -71 -14 0 -5 -9 -9 -20 -9 -11 0 -20 5 -20 10 0 6 -5 10 -10
10 -6 0 -20 9 -32 20 -24 22 -38 26 -38 10z"/>
<path d="M2830 5230 c0 -13 -7 -20 -20 -20 -11 0 -20 5 -20 10 0 6 -7 10 -15
10 -8 0 -15 -4 -15 -10 0 -5 -11 -10 -25 -10 -18 0 -23 -4 -18 -16 3 -9 0 -20
-8 -25 -10 -6 -10 -9 -1 -9 6 0 12 -9 12 -20 0 -15 -7 -20 -24 -20 -14 0 -28
-4 -31 -10 -3 -5 1 -10 9 -10 9 0 16 -4 16 -10 0 -5 7 -10 15 -10 10 0 15 -11
15 -35 0 -19 5 -35 10 -35 6 0 10 20 10 45 0 38 3 45 20 45 11 0 20 5 20 10 0
6 14 10 30 10 17 0 30 -4 30 -10 0 -5 7 -10 15 -10 8 0 15 3 15 6 0 11 -27 32
-46 36 -24 4 -33 48 -10 48 9 0 16 5 16 10 0 14 27 12 33 -2 4 -10 6 -10 6 0
2 21 41 14 41 -8 0 -11 5 -20 10 -20 15 0 12 -48 -2 -53 -8 -2 -9 -8 -4 -13 5
-5 11 -4 13 4 3 6 11 12 19 12 8 0 14 5 14 10 0 6 6 10 14 10 31 0 25 21 -18
65 -39 38 -51 45 -86 45 -33 0 -40 -3 -40 -20z"/>
<path d="M3400 5000 c0 -5 -15 -10 -34 -10 -19 0 -37 -6 -40 -12 -5 -10 -7
-10 -12 0 -9 19 -34 14 -34 -8 0 -13 -7 -20 -20 -20 -11 0 -20 -4 -20 -10 0
-5 -6 -10 -14 -10 -10 0 -16 -14 -18 -42 -2 -31 -8 -44 -20 -46 -15 -3 -18 4
-18 42 0 34 4 46 15 46 19 0 19 16 0 24 -8 3 -21 -1 -29 -9 -8 -8 -26 -15 -41
-15 -15 0 -24 -4 -20 -10 3 -5 19 -10 36 -10 24 0 29 -4 29 -25 0 -18 -5 -25
-20 -25 -11 0 -20 -4 -20 -10 0 -5 11 -10 25 -10 18 0 25 -5 25 -20 0 -11 4
-20 9 -20 5 0 11 9 14 20 3 12 14 20 26 20 17 0 21 -6 21 -30 0 -25 -4 -30
-25 -30 -16 0 -25 -6 -25 -15 0 -9 10 -15 26 -15 21 0 24 -4 19 -20 -5 -14 -2
-20 9 -20 9 0 16 -4 16 -10 0 -5 5 -10 11 -10 6 0 9 9 6 20 -4 15 0 20 14 20
10 0 19 5 19 10 0 6 -11 10 -25 10 -22 0 -25 4 -25 35 0 19 5 35 10 35 6 0 10
5 10 10 0 6 -9 10 -20 10 -13 0 -20 7 -20 20 0 13 7 20 20 20 11 0 20 -7 20
-15 0 -8 5 -15 10 -15 6 0 10 18 10 40 0 33 3 40 20 40 15 0 20 -7 20 -25 0
-20 5 -25 25 -25 14 0 25 5 25 11 0 19 28 39 55 39 15 0 24 4 20 10 -3 6 -18
10 -32 10 -22 0 -25 3 -21 30 3 17 1 30 -4 30 -4 0 -8 -4 -8 -10z"/>
<path d="M3064 4765 c-5 -11 -21 -15 -61 -15 -33 0 -52 -4 -48 -10 3 -5 19
-10 36 -10 22 0 29 -5 29 -19 0 -12 -8 -21 -22 -24 l-23 -4 23 -2 c26 -1 28
-13 7 -31 -22 -18 -18 -28 9 -23 16 3 31 -3 49 -21 26 -26 67 -35 67 -16 0 6
14 10 30 10 25 0 30 4 30 25 0 17 6 25 17 25 14 0 15 2 4 13 -11 10 -14 10
-18 0 -8 -22 -43 -15 -43 7 0 13 7 20 20 20 13 0 20 7 20 20 0 13 -7 20 -20
20 -11 0 -20 5 -20 10 0 6 -9 10 -20 10 -11 0 -20 -4 -20 -10 0 -5 9 -10 20
-10 13 0 20 -7 20 -20 0 -13 -7 -20 -20 -20 -11 0 -20 5 -20 10 0 6 -5 10 -11
10 -5 0 -7 -5 -3 -11 4 -7 -1 -10 -12 -7 -24 4 -33 58 -10 58 9 0 16 7 16 15
0 8 -5 15 -10 15 -6 0 -13 -7 -16 -15z"/>
</g>
</svg>
