<?xml version="1.0" standalone="no"?>
<!DOCTYPE svg PUBLIC "-//W3C//DTD SVG 20010904//EN"
 "http://www.w3.org/TR/2001/REC-SVG-20010904/DTD/svg10.dtd">
<svg version="1.0" xmlns="http://www.w3.org/2000/svg"
 width="1118.000000pt" height="885.000000pt" viewBox="0 0 1118.000000 885.000000"
 preserveAspectRatio="xMidYMid meet">
<metadata>
Created by potrace 1.13, written by Peter Selinger 2001-2015
</metadata>
<g transform="translate(0.000000,885.000000) scale(0.100000,-0.100000)"
fill="#000000" stroke="none">
<path d="M0 4425 l0 -4425 5590 0 5590 0 0 4425 0 4425 -5590 0 -5590 0 0
-4425z m5550 3624 c0 -13 7 -19 21 -19 16 0 19 -4 14 -17 -8 -21 -8 -22 -6
-48 1 -15 3 -17 10 -6 5 8 16 11 29 7 14 -5 21 -1 25 14 9 33 30 24 24 -10 -6
-25 -3 -30 14 -30 16 0 19 -4 14 -20 -3 -11 -2 -20 4 -20 5 0 13 -9 16 -21 4
-12 12 -18 21 -15 7 3 17 -2 22 -10 7 -13 12 -9 26 20 9 20 21 36 26 36 13 0
12 -7 0 -30 -8 -15 -6 -21 9 -30 26 -14 31 -13 25 5 -8 20 5 19 28 -2 10 -9
18 -27 18 -40 0 -23 15 -32 22 -12 5 14 65 22 73 9 11 -18 -24 -42 -51 -36
-17 5 -23 3 -19 -4 3 -6 -3 -10 -14 -10 -13 0 -21 7 -21 16 0 13 -3 14 -15 4
-8 -6 -18 -9 -24 -6 -25 16 -56 -26 -35 -47 8 -8 35 3 29 12 -2 4 21 8 51 9
29 0 54 -3 54 -7 0 -4 12 -13 28 -20 23 -10 25 -10 10 2 -27 21 -23 40 7 35
19 -4 23 -2 15 7 -16 19 17 57 43 49 12 -4 44 -8 71 -8 27 -1 51 -6 53 -12 4
-11 47 -10 74 0 9 4 23 -2 34 -14 10 -11 24 -20 31 -20 7 0 19 -6 26 -12 36
-34 61 -52 53 -39 -18 31 46 -1 82 -40 21 -23 39 -36 41 -30 6 17 32 13 32 -4
0 -11 12 -15 48 -15 63 0 96 -30 86 -78 -7 -36 -34 -44 -34 -11 0 16 -4 20
-17 14 -10 -3 -30 -9 -45 -12 -33 -6 -37 -23 -7 -23 14 0 19 -5 16 -14 -3 -8
1 -17 9 -20 22 -8 17 -34 -8 -39 -22 -3 -22 -4 5 -15 34 -14 35 -32 2 -32 -14
0 -25 5 -25 10 0 6 -7 10 -15 10 -21 0 -19 -13 5 -28 11 -7 31 -10 45 -6 15 4
32 1 40 -6 10 -9 15 -9 15 -1 0 6 -4 11 -10 11 -5 0 -10 7 -10 16 0 12 6 15
28 10 25 -5 26 -5 5 6 -25 12 -29 23 -11 34 6 4 16 0 23 -9 16 -22 35 -22 35
1 0 9 12 23 27 29 22 11 29 10 43 -2 9 -8 21 -15 26 -15 4 0 -2 7 -14 16 -12
8 -22 19 -22 24 0 8 76 20 130 20 121 1 150 -1 150 -10 0 -5 7 -10 15 -10 8 0
15 5 15 10 0 6 -7 10 -15 10 -8 0 -15 4 -15 9 0 16 86 82 101 78 8 -2 11 -2 7
0 -21 12 -5 25 22 20 17 -4 30 -3 30 1 0 4 18 27 40 52 32 37 41 42 49 30 13
-19 24 -7 24 26 0 27 0 27 64 21 72 -5 82 -11 67 -35 -9 -13 -6 -20 10 -33 12
-8 29 -18 38 -22 10 -3 17 -17 17 -34 1 -15 2 -39 3 -52 2 -14 -3 -26 -11 -29
-10 -3 -12 0 -7 14 5 14 0 12 -21 -9 -16 -15 -33 -27 -39 -27 -16 0 -49 -44
-46 -62 2 -10 -2 -18 -8 -18 -6 0 -8 -4 -5 -10 3 -5 1 -18 -4 -28 -9 -17 -7
-18 14 -14 15 2 31 -2 41 -12 9 -10 23 -15 30 -12 9 4 14 -2 14 -15 0 -12 -8
-23 -20 -26 -11 -3 -20 -10 -20 -15 0 -6 -12 -8 -30 -5 -29 6 -29 6 -9 -14 15
-15 24 -17 38 -10 10 6 22 7 25 3 4 -4 12 1 17 11 7 12 23 17 56 17 34 0 44 3
40 13 -4 10 2 13 19 9 14 -2 24 0 24 7 0 7 12 23 28 37 23 22 28 23 30 10 2
-10 -2 -24 -10 -33 -12 -15 -11 -15 9 -3 11 8 19 20 16 27 -3 7 2 13 10 13 8
0 17 -6 20 -12 3 -10 12 -10 42 1 28 10 40 11 43 2 2 -6 11 -11 20 -11 10 0
22 -8 29 -19 12 -19 7 -61 -7 -61 -4 0 -11 -7 -14 -16 -3 -8 -2 -12 4 -9 5 3
18 2 27 -4 13 -6 24 -5 38 5 26 19 51 18 73 -4 14 -14 25 -16 41 -10 13 4 28
5 33 1 7 -3 8 -1 4 5 -4 7 3 17 18 24 14 6 26 15 26 19 0 4 16 17 36 30 28 17
41 20 53 12 12 -8 24 -7 42 3 39 22 69 18 69 -9 0 -22 3 -23 59 -20 67 4 67 5
70 -85 2 -46 -1 -53 -21 -62 l-23 -11 24 5 c13 3 33 1 43 -5 12 -6 18 -6 18 1
0 15 50 12 51 -2 0 -10 2 -10 6 0 8 21 36 14 30 -8 -4 -17 -2 -18 14 -9 21 11
39 5 39 -14 0 -7 9 -19 20 -27 35 -25 26 -87 -12 -81 -5 0 -8 -6 -8 -14 0 -8
7 -15 15 -15 8 0 15 -5 15 -11 0 -7 -9 -9 -24 -5 -21 5 -23 3 -19 -15 5 -17
11 -19 36 -13 27 6 29 4 24 -15 -4 -15 2 -23 24 -33 30 -13 35 -24 20 -47 -5
-8 -16 -11 -30 -6 -26 8 -27 1 -3 -23 14 -14 25 -16 41 -10 13 4 27 6 32 2 5
-3 9 -1 9 4 0 14 29 24 43 15 7 -4 20 -6 30 -5 10 2 25 -2 32 -8 12 -10 20 -6
42 18 33 36 83 53 83 28 0 -9 -8 -16 -17 -16 -14 0 -13 -3 5 -16 22 -15 25
-15 47 6 19 18 29 20 52 13 27 -9 47 -53 24 -53 -6 0 -11 -5 -11 -12 0 -9 3
-9 12 0 16 16 28 15 28 -3 0 -8 -5 -15 -10 -15 -7 0 -7 -6 0 -19 18 -34 12
-45 -15 -27 -22 14 -25 15 -25 1 0 -8 9 -15 20 -15 11 0 20 -4 20 -10 0 -5 6
-7 13 -5 21 8 72 -11 69 -26 -3 -11 -1 -12 9 -1 24 23 39 14 33 -18 -5 -24 -3
-30 10 -30 9 0 20 -8 23 -17 6 -15 7 -15 12 0 4 10 11 13 18 9 17 -11 -6 -64
-24 -57 -7 2 -13 -2 -13 -10 0 -8 7 -15 15 -15 8 0 15 -8 15 -17 1 -17 1 -17
14 0 16 21 36 22 36 2 0 -8 9 -15 20 -15 23 0 27 -18 6 -26 -8 -3 -12 -12 -9
-20 4 -12 8 -11 18 3 13 17 14 17 20 1 4 -10 13 -14 22 -11 13 5 13 7 -1 15
-9 5 -16 14 -16 20 0 12 -38 48 -52 48 -4 0 -8 7 -8 15 0 8 7 15 15 15 9 0 18
-7 21 -15 4 -8 10 -15 15 -15 5 0 9 7 9 15 0 8 7 15 15 15 8 0 15 -7 15 -15 0
-8 -4 -15 -10 -15 -5 0 -10 -7 -10 -15 0 -8 5 -15 10 -15 6 0 10 7 10 15 0 8
6 15 14 15 22 0 48 -31 43 -50 -3 -13 0 -16 14 -13 15 4 17 9 8 25 -13 25 -10
28 19 17 22 -8 31 -39 11 -39 -26 0 5 -19 41 -25 26 -4 40 -12 40 -22 0 -12
-7 -14 -32 -9 -22 4 -37 1 -50 -10 -22 -21 -24 -36 -3 -28 8 4 15 12 15 20 0
19 24 18 40 -1 7 -8 16 -15 21 -15 5 0 9 7 9 15 0 8 7 15 15 15 26 0 16 -34
-20 -65 -39 -33 -44 -46 -16 -38 10 3 22 0 25 -6 9 -14 26 -14 26 -1 0 6 -6
10 -14 10 -21 0 -30 20 -17 33 8 8 14 8 22 0 6 -6 18 -9 25 -6 9 3 14 -2 14
-16 0 -12 -4 -21 -8 -21 -15 0 -7 -45 11 -61 23 -22 22 -32 -3 -24 -11 4 -20
2 -20 -4 0 -6 7 -11 15 -11 8 0 15 -7 15 -15 0 -8 -7 -15 -15 -15 -8 0 -15 4
-15 8 0 5 -10 8 -21 8 -29 -1 -36 21 -10 29 21 6 30 35 11 35 -5 0 -10 7 -10
15 0 9 -9 15 -22 14 l-23 0 23 -16 c12 -8 22 -22 22 -29 0 -16 -26 -19 -35 -4
-3 6 -10 10 -16 10 -5 0 -9 -4 -9 -10 0 -5 7 -10 15 -10 8 0 15 -7 15 -15 0
-8 -9 -15 -20 -15 -13 0 -20 -7 -20 -20 0 -24 -18 -27 -26 -5 -6 14 -8 13 -19
-1 -6 -9 -16 -14 -21 -11 -5 3 -10 -3 -10 -14 0 -10 4 -19 8 -19 14 0 8 -28
-7 -34 -10 -4 -15 1 -16 17 -1 18 -2 19 -6 4 -4 -14 -12 -18 -29 -14 -16 3
-24 0 -24 -9 0 -7 6 -11 14 -8 19 7 32 -16 15 -27 -10 -6 -8 -9 9 -9 12 0 22
5 22 10 0 6 9 10 21 10 13 0 18 4 13 12 -4 6 2 18 12 26 13 10 15 16 7 19 -18
7 -16 33 2 33 8 0 15 -4 15 -10 0 -20 20 -9 26 14 4 16 11 23 20 19 17 -6 18
-35 2 -51 -9 -9 -9 -15 -1 -23 8 -8 11 -6 10 7 -2 24 27 25 31 2 2 -10 -1 -18
-7 -18 -6 0 -11 -7 -11 -15 0 -8 -9 -15 -20 -15 -11 0 -23 7 -26 15 -4 8 -10
15 -15 15 -5 0 -9 -7 -9 -15 0 -8 -5 -15 -11 -15 -7 0 -9 -9 -5 -24 4 -16 1
-26 -9 -30 -8 -3 -15 0 -16 7 0 9 -2 9 -6 0 -8 -21 -71 -47 -86 -35 -8 7 -16
6 -24 -3 -6 -7 -10 -15 -7 -18 2 -2 -2 -10 -11 -17 -13 -11 -19 -10 -36 6 -16
14 -22 16 -28 5 -5 -8 -17 -11 -29 -7 -13 4 -22 1 -26 -9 -3 -8 -13 -15 -22
-15 -28 0 -8 -12 33 -20 21 -4 46 -11 56 -15 10 -4 17 -3 17 4 0 6 -6 11 -14
11 -21 0 -30 20 -16 33 9 9 14 8 24 -5 7 -10 21 -18 30 -18 21 0 20 -12 -4
-40 -17 -19 -23 -21 -50 -12 -24 9 -30 8 -30 -4 0 -7 -7 -14 -15 -14 -8 0 -15
7 -15 15 0 8 -4 15 -10 15 -5 0 -7 -6 -4 -14 6 -14 -22 -30 -37 -20 -16 9 -10
34 8 34 13 0 14 3 5 12 -8 8 -15 8 -27 -2 -12 -10 -18 -10 -30 0 -13 11 -14
10 -9 -4 4 -11 1 -16 -10 -16 -9 0 -16 -4 -16 -10 0 -5 5 -10 10 -10 6 0 10
-7 10 -15 0 -8 -7 -15 -15 -15 -8 0 -15 5 -15 11 0 6 -6 9 -12 6 -7 -2 -12
-11 -10 -19 1 -9 -8 -19 -20 -23 -19 -6 -20 -8 -5 -12 9 -2 17 -9 17 -15 0 -6
-9 -8 -20 -5 -28 7 -64 -30 -47 -48 14 -15 27 -10 27 10 0 18 58 17 88 -2 29
-18 18 -36 -17 -28 -19 4 -32 1 -41 -10 -9 -11 -22 -14 -41 -10 -31 7 -56 -12
-75 -55 -12 -26 1 -50 27 -50 6 0 9 -8 6 -20 -3 -14 0 -20 10 -20 9 0 22 -8
29 -17 12 -17 13 -17 19 0 8 20 31 23 39 5 3 -10 9 -8 19 5 19 23 36 21 47 -5
7 -18 9 -19 9 -5 1 12 9 17 27 17 19 0 25 4 20 15 -4 10 1 15 14 15 27 0 25
-26 -2 -34 -22 -7 -22 -8 -4 -15 11 -4 23 -16 27 -27 7 -17 8 -17 8 -1 1 22
51 24 51 2 0 -8 -9 -15 -19 -15 -14 0 -18 -5 -14 -20 6 -22 3 -23 -21 -14 -9
3 -16 12 -16 20 0 8 -4 14 -10 14 -5 0 -10 -4 -10 -10 0 -14 -33 -13 -48 2 -9
9 -12 8 -12 -4 0 -9 7 -18 15 -22 16 -6 21 -36 6 -36 -5 0 -17 7 -26 16 -9 9
-18 14 -21 11 -3 -3 4 -15 16 -27 17 -17 29 -21 52 -16 19 4 37 1 46 -6 13
-12 14 -10 1 10 -8 12 -19 22 -26 22 -7 0 -13 7 -13 15 0 8 7 15 15 15 8 0 15
-4 15 -10 0 -5 11 -12 25 -16 14 -3 32 -19 41 -35 16 -32 33 -38 30 -13 0 9 5
19 13 22 10 3 13 -2 9 -20 -4 -21 -1 -24 18 -20 18 3 26 -2 36 -23 10 -22 9
-32 -6 -60 -10 -19 -29 -36 -43 -39 -13 -4 -21 -11 -18 -16 4 -6 11 -8 16 -4
5 3 23 3 39 -1 21 -5 30 -13 30 -26 0 -10 -5 -19 -12 -19 -9 0 -9 -3 0 -12 8
-8 15 -8 27 2 13 10 15 9 15 -7 0 -10 -5 -24 -12 -31 -9 -9 -9 -12 0 -12 7 0
12 -7 12 -15 0 -8 -7 -15 -15 -15 -20 0 -55 31 -48 43 8 13 -17 27 -49 27 -15
0 -30 5 -33 10 -10 16 -35 12 -29 -5 4 -10 0 -15 -15 -15 -12 0 -21 6 -21 13
0 8 -3 8 -9 -2 -11 -17 2 -32 47 -52 17 -7 32 -21 32 -29 0 -8 9 -21 20 -28
12 -7 18 -18 14 -24 -4 -7 -3 -8 4 -4 7 4 12 14 12 22 0 16 16 19 25 4 3 -5
14 -10 23 -9 11 0 12 3 5 6 -25 9 -13 21 22 21 26 0 35 -4 35 -16 0 -9 7 -35
16 -58 12 -33 20 -41 35 -37 10 3 19 1 19 -3 0 -5 15 -9 33 -8 40 0 77 -15 77
-33 0 -7 -8 -13 -17 -13 -17 -1 -17 -1 0 -11 9 -5 17 -17 17 -24 0 -17 -26
-20 -35 -5 -3 6 -14 10 -23 10 -30 0 5 -23 45 -29 41 -7 58 -36 26 -44 -11 -3
-7 -5 11 -6 16 0 37 6 46 14 17 16 50 11 50 -7 0 -5 4 -6 10 -3 17 10 80 -6
80 -21 0 -8 5 -14 10 -14 6 0 10 -7 10 -15 0 -18 -26 -20 -33 -2 -3 7 -6 5 -6
-5 -1 -10 5 -18 13 -18 8 0 17 -6 19 -12 3 -8 6 -6 6 5 1 9 8 17 16 17 7 0 19
-8 24 -17 6 -10 11 -12 11 -5 0 16 30 16 30 -1 0 -7 -10 -18 -21 -26 -18 -11
-23 -11 -30 1 -7 10 -9 9 -9 -4 0 -11 -8 -18 -20 -18 -13 0 -20 -7 -20 -20 0
-12 -7 -20 -16 -20 -9 0 -23 -8 -30 -17 -12 -17 -13 -17 -19 -1 -6 15 -8 15
-26 -3 -10 -10 -19 -23 -19 -29 0 -12 -20 -13 -39 -1 -17 11 -51 -7 -51 -26 0
-7 -4 -13 -10 -13 -5 0 -10 -6 -10 -14 0 -31 -32 -26 -66 10 -23 26 -34 32
-34 20 0 -9 3 -16 8 -16 4 0 12 -11 19 -25 9 -21 8 -27 -5 -35 -10 -5 -12 -10
-4 -10 19 0 15 -40 -5 -40 -16 -1 -15 -2 2 -12 11 -6 21 -11 22 -12 1 -1 4
-13 8 -29 6 -22 4 -27 -10 -27 -12 0 -16 6 -12 20 3 11 1 17 -4 14 -6 -3 -16
0 -24 6 -11 9 -18 9 -30 -3 -23 -23 -52 -30 -75 -17 -12 7 -24 9 -27 7 -2 -3
5 -8 16 -12 28 -8 28 -39 1 -32 -11 3 -23 1 -26 -4 -3 -5 1 -9 9 -9 8 0 22
-10 30 -22 l16 -23 -6 23 c-3 13 -1 22 6 22 6 0 11 7 11 15 0 21 47 19 59 -2
6 -10 11 -12 11 -5 0 16 40 16 40 -1 0 -18 -21 -37 -39 -37 -13 0 -58 -59 -49
-64 2 -1 16 -10 31 -20 16 -10 31 -15 34 -12 3 2 -4 11 -16 18 -12 7 -21 18
-21 25 0 19 27 16 39 -4 9 -15 10 -13 11 13 0 26 5 33 27 38 17 5 29 3 34 -6
12 -18 11 -41 -1 -33 -11 7 -50 -24 -50 -40 0 -5 11 -15 25 -22 20 -9 25 -8
25 3 0 8 7 14 15 14 8 0 15 -9 15 -20 0 -11 -4 -20 -10 -20 -5 0 -10 -7 -10
-15 0 -8 5 -15 10 -15 6 0 10 -7 10 -15 0 -8 -4 -15 -10 -15 -5 0 -10 -7 -10
-15 0 -8 -7 -15 -16 -15 -18 0 -44 23 -44 39 0 6 -7 11 -15 11 -9 0 -19 8 -22
17 -7 17 -39 53 -48 53 -3 0 -5 -7 -5 -15 0 -8 7 -15 15 -15 8 0 15 -7 15 -15
0 -8 -7 -15 -16 -15 -14 0 -14 -1 0 -16 9 -8 16 -22 16 -29 0 -8 9 -17 21 -20
27 -9 18 -31 -12 -28 -39 3 -69 -6 -69 -22 0 -8 -4 -15 -10 -15 -5 0 -10 -7
-10 -16 0 -12 -5 -15 -22 -9 -44 14 -98 17 -98 6 0 -6 9 -11 20 -11 11 0 20
-5 20 -10 0 -16 -33 -26 -38 -12 -2 7 -10 12 -18 12 -17 0 -19 27 -2 32 9 3 9
6 0 12 -7 4 -14 -3 -18 -19 -5 -20 -11 -25 -25 -22 -26 7 -34 -11 -15 -32 22
-24 20 -41 -4 -41 -11 0 -20 -4 -20 -10 0 -5 9 -10 20 -10 13 0 20 -7 20 -20
0 -28 -37 -26 -46 2 l-7 23 -8 -23 c-6 -17 -14 -21 -31 -18 -65 13 -88 15 -88
6 0 -6 -7 -10 -15 -10 -8 0 -24 -9 -35 -20 -17 -17 -17 -21 -5 -34 19 -19 19
-36 0 -36 -8 0 -15 5 -15 10 0 6 -7 10 -15 10 -8 0 -15 9 -15 20 0 11 5 20 10
20 6 0 10 7 10 15 0 8 9 15 20 15 11 0 20 6 20 13 0 17 -47 37 -87 37 -23 0
-33 5 -33 15 0 8 -4 15 -9 15 -4 0 -6 -11 -3 -26 4 -23 2 -24 -22 -18 -16 4
-26 2 -26 -5 0 -15 -40 -14 -41 2 0 9 -2 9 -6 0 -2 -7 -13 -13 -24 -13 -12 0
-16 -5 -13 -15 5 -11 -1 -15 -21 -15 -24 0 -26 3 -21 25 5 20 3 25 -14 25 -11
0 -20 4 -20 10 0 5 -7 7 -15 4 -9 -4 -15 0 -15 10 0 17 -10 18 -50 7 l-25 -7
23 -8 c13 -4 21 -14 20 -23 -4 -20 33 -44 39 -25 3 6 12 12 20 12 11 0 14 -6
9 -22 -3 -13 -6 -31 -6 -41 0 -14 -5 -17 -20 -12 -15 5 -20 2 -20 -10 0 -14
-7 -16 -42 -10 -65 10 -78 15 -78 31 0 9 9 13 30 11 17 -2 33 -6 36 -10 8 -8
34 3 34 14 0 5 -7 9 -15 9 -8 0 -15 7 -15 15 0 8 -9 19 -20 25 -25 13 -56 -1
-65 -30 -5 -15 -15 -20 -41 -20 -19 0 -34 -4 -34 -10 0 -5 5 -10 10 -10 6 0
10 -7 10 -16 0 -12 -7 -14 -29 -9 -23 5 -32 2 -44 -16 -15 -21 -32 -22 -81 -3
-10 4 -16 1 -16 -9 0 -9 -8 -16 -17 -16 -43 -2 -60 -2 -95 3 -32 4 -38 1 -38
-15 0 -11 7 -19 18 -19 9 0 26 -3 38 -6 13 -3 28 1 38 11 18 18 64 13 79 -8 6
-9 10 -9 14 1 7 18 24 15 50 -10 31 -29 29 -42 -7 -34 -16 3 -30 3 -30 1 0
-12 58 -28 101 -29 36 -1 45 2 42 14 -4 16 31 60 47 60 20 0 60 -24 60 -37 0
-7 -4 -13 -10 -13 -25 0 -7 -15 19 -16 23 -1 27 2 23 18 -4 16 -1 18 22 12 20
-5 26 -2 26 10 0 9 7 16 15 16 8 0 15 -4 15 -9 0 -21 55 -65 91 -71 46 -9 55
-3 32 22 -20 22 -35 24 -27 3 4 -10 0 -15 -15 -15 -12 0 -21 6 -21 15 0 8 -6
15 -14 15 -18 0 -29 16 -22 29 9 14 46 1 46 -17 0 -8 3 -13 6 -9 11 11 -6 42
-28 52 -13 6 -22 16 -21 23 5 21 -14 13 -20 -9 -7 -25 -40 -22 -45 4 -2 12 3
17 17 17 15 0 21 6 21 21 0 18 4 20 28 15 15 -3 21 -3 15 0 -20 9 -15 31 8 37
17 5 20 2 16 -14 -3 -10 -1 -19 5 -19 6 0 8 -10 5 -22 -4 -15 1 -28 17 -43 13
-12 27 -29 33 -39 6 -11 23 -19 42 -20 18 -1 38 -8 44 -17 7 -9 18 -14 25 -12
19 7 14 23 -7 23 -11 0 -23 5 -26 10 -4 6 -15 8 -26 5 -12 -4 -21 -1 -25 9 -3
9 -13 16 -21 16 -10 0 -14 7 -10 19 3 12 -1 18 -11 17 -8 0 -17 5 -19 12 -3 6
2 12 11 12 23 0 20 21 -4 27 -11 3 -20 12 -20 19 0 16 36 19 45 3 5 -7 11 -5
18 5 18 22 101 17 105 -6 3 -15 -2 -17 -27 -12 -18 4 -31 2 -31 -4 0 -5 -9
-12 -20 -15 -11 -3 -20 -10 -20 -16 0 -6 9 -11 20 -11 11 0 20 -7 20 -15 0 -8
-8 -15 -17 -15 -39 -1 14 -19 61 -21 36 -2 52 1 61 14 7 9 17 17 23 17 6 0 9
6 6 14 -6 17 36 30 51 15 7 -7 3 -16 -12 -29 -22 -17 -22 -18 -3 -23 11 -3 20
-10 20 -16 0 -18 -29 -25 -45 -11 -9 7 -18 10 -22 6 -11 -11 7 -20 42 -20 22
0 35 -5 35 -13 0 -7 9 -13 20 -13 11 0 20 5 20 11 0 6 -9 13 -20 16 -22 6 -28
43 -7 43 15 0 57 -36 57 -50 0 -4 -6 -11 -12 -13 -7 -3 -1 -6 14 -6 21 -1 25
3 21 19 -5 18 -2 19 18 11 13 -5 23 -14 21 -20 -1 -7 8 -5 21 4 21 14 27 14
52 1 32 -17 47 -13 38 10 -4 12 0 14 23 8 16 -4 31 -11 34 -15 3 -4 12 -4 20
1 13 8 12 11 -4 23 -20 15 -14 37 10 37 8 0 14 7 14 16 0 9 7 14 17 12 22 -4
29 -28 8 -28 -23 0 -13 -24 11 -26 59 -3 64 -5 64 -24 0 -24 -12 -25 -48 -3
l-27 16 25 -25 c14 -14 31 -23 38 -20 10 3 13 -2 10 -19 -3 -26 -38 -40 -38
-16 0 19 -40 29 -57 15 -10 -8 -19 -6 -35 8 -21 19 -21 19 -9 -3 13 -25 6 -28
-32 -14 -17 7 -33 5 -53 -6 -22 -11 -44 -13 -94 -7 -36 4 -73 6 -83 5 -10 -1
-25 6 -33 16 -11 13 -17 14 -20 6 -3 -7 -12 -13 -20 -13 -8 0 -14 -5 -14 -11
0 -7 -11 -8 -30 -4 -23 5 -30 3 -30 -9 0 -9 -8 -16 -20 -16 -12 0 -17 -5 -14
-14 9 -22 -16 -30 -32 -10 -11 14 -17 15 -20 7 -4 -9 -15 -11 -32 -6 -24 6
-26 5 -13 -10 7 -10 20 -17 27 -17 8 0 14 -8 14 -19 0 -10 9 -21 20 -24 23 -6
28 -37 6 -37 -8 0 -21 7 -30 15 -17 17 -26 19 -26 6 0 -6 14 -18 30 -28 32
-18 40 -43 15 -43 -8 0 -15 4 -15 9 0 5 -9 11 -21 14 -12 3 -18 10 -15 15 9
14 -45 35 -58 22 -16 -16 -36 -12 -36 8 -1 16 -2 16 -15 -2 -9 -11 -20 -16
-31 -12 -15 6 -15 8 -2 24 9 9 13 23 10 31 -3 10 2 12 22 7 15 -4 26 -2 26 4
0 5 -9 11 -20 12 -11 0 -26 1 -32 2 -8 1 -12 -8 -10 -21 2 -16 -2 -23 -12 -23
-9 0 -16 7 -16 15 0 8 -7 15 -15 15 -7 0 -18 6 -22 14 -4 7 -24 21 -43 31 -35
18 -35 18 -17 -2 25 -29 21 -36 -18 -29 -55 11 -56 -15 -1 -70 35 -36 53 -47
75 -46 16 0 35 -6 41 -14 15 -17 31 -9 23 12 -4 12 -1 15 13 12 24 -4 29 -28
10 -53 -14 -19 -15 -19 -50 -2 -20 9 -36 15 -36 13 0 -7 74 -50 87 -50 6 -1
22 -12 34 -24 18 -20 27 -23 58 -17 20 4 39 11 42 17 7 12 29 2 29 -13 0 -5
-7 -9 -15 -9 -8 0 -15 -4 -15 -10 0 -5 -7 -10 -15 -10 -8 0 -15 -4 -15 -10 0
-10 18 -14 58 -10 12 1 22 -3 22 -9 0 -17 60 -43 86 -37 15 4 24 2 24 -6 0 -6
6 -3 14 7 13 18 16 18 82 2 94 -23 114 -22 107 3 -3 11 -1 20 5 20 6 0 8 9 5
20 -4 14 0 20 11 20 9 0 16 -5 16 -11 0 -6 8 -8 19 -4 12 3 21 0 24 -10 4 -8
12 -12 20 -9 17 6 67 -12 67 -26 0 -5 -17 -9 -37 -9 -21 1 -54 -3 -73 -8 l-35
-9 30 -6 c17 -4 31 -3 33 1 1 3 28 6 59 4 38 -1 63 3 73 12 13 12 60 11 60 -1
0 -2 -12 -17 -26 -34 -21 -23 -35 -29 -63 -29 -20 1 -84 -2 -143 -5 -60 -3
-108 -2 -108 2 0 4 -15 8 -32 8 -52 2 -190 28 -207 38 -4 3 -18 -6 -30 -20
-13 -15 -28 -23 -37 -20 -45 19 -49 19 -29 3 11 -9 26 -17 33 -17 18 0 15 -47
-4 -58 -9 -5 -25 -7 -35 -5 -23 6 -26 33 -4 33 12 0 11 4 -5 20 -11 11 -24 20
-30 20 -5 0 -10 7 -10 15 0 8 -7 15 -15 15 -8 0 -15 9 -15 20 0 25 17 26 43 2
19 -17 20 -16 7 7 -6 13 -20 26 -31 28 -10 3 -21 13 -24 23 -3 10 -22 26 -43
36 -20 9 -43 23 -50 31 -7 7 -20 13 -28 13 -8 0 -14 7 -14 15 0 9 -10 15 -26
15 -19 0 -25 4 -22 18 2 11 -11 26 -40 44 -23 16 -45 28 -47 28 -2 0 -16 11
-31 25 -15 14 -33 25 -42 25 -8 0 -12 6 -9 14 5 13 -19 30 -58 39 -11 3 -28 8
-38 12 -13 6 -16 3 -11 -9 4 -11 1 -16 -10 -16 -25 0 -19 -27 8 -34 17 -4 26
-15 31 -36 4 -16 12 -28 18 -27 6 1 13 -6 15 -16 2 -11 -3 -17 -13 -17 -22 0
-59 36 -50 49 3 6 -1 11 -9 11 -8 0 -19 8 -25 17 -5 10 -18 18 -28 19 -64 3
-65 4 -60 23 3 13 1 18 -9 14 -7 -2 -23 2 -36 11 -12 9 -33 16 -46 16 -12 0
-25 7 -28 15 -4 8 -13 15 -20 15 -8 0 -17 6 -20 13 -3 8 -22 13 -54 13 -27 0
-44 -3 -38 -7 9 -6 9 -14 0 -33 -12 -28 -8 -31 46 -26 32 2 28 -25 -8 -47 -33
-19 -39 -38 -15 -47 8 -3 15 -12 15 -21 0 -8 -7 -15 -15 -15 -24 0 -17 -17 10
-24 14 -4 25 -13 25 -21 0 -23 41 -56 56 -45 8 7 20 7 38 -1 21 -10 29 -10 39
0 9 10 8 11 -5 6 -18 -7 -58 10 -58 26 0 5 11 14 25 19 14 5 25 15 25 21 0 6
9 9 20 6 11 -3 20 -1 20 4 0 5 -7 9 -15 9 -20 0 -20 39 0 46 8 4 12 10 9 16
-4 5 6 8 22 6 17 -2 30 -10 32 -20 2 -12 -2 -15 -17 -11 -15 4 -21 1 -21 -11
0 -9 7 -16 15 -16 8 0 15 -7 15 -15 0 -8 -7 -15 -15 -15 -8 0 -15 -7 -15 -15
0 -7 -8 -19 -17 -24 -16 -9 -16 -10 5 -11 23 0 26 -9 16 -46 -4 -16 -11 -20
-27 -17 -17 4 -15 1 7 -11 15 -9 36 -16 46 -16 9 0 30 -6 46 -14 41 -19 104
-29 104 -16 0 14 27 13 32 -1 3 -8 10 -6 20 5 19 18 38 21 38 6 0 -5 14 -10
30 -10 17 0 30 -5 30 -13 0 -18 -35 -37 -58 -30 -11 2 -23 0 -26 -6 -4 -5 -13
-8 -21 -4 -9 3 -15 -1 -15 -11 0 -9 -7 -16 -16 -16 -8 0 -12 -5 -8 -11 4 -8 9
-8 17 0 15 15 67 14 68 -1 0 -10 2 -10 6 0 7 17 43 15 43 -3 0 -8 -9 -15 -20
-15 -13 0 -20 -7 -20 -20 0 -13 -7 -20 -20 -20 -15 0 -20 7 -20 26 0 14 -4 23
-10 19 -5 -3 -7 -12 -3 -20 7 -19 -27 -20 -46 -3 -11 10 -10 8 0 -9 8 -13 22
-23 31 -23 10 0 18 -3 18 -7 0 -5 21 -9 46 -9 26 -1 49 -6 53 -10 3 -5 13 -11
21 -14 20 -6 110 -6 132 0 9 3 17 1 17 -3 0 -4 10 -16 22 -26 24 -20 19 -41
-11 -41 -10 0 -20 -6 -23 -12 -3 -10 -8 -9 -22 2 -14 11 -19 12 -22 3 -3 -7
-14 -13 -25 -13 -14 0 -18 5 -14 16 5 12 2 15 -10 10 -10 -4 -25 1 -35 10 -10
9 -23 13 -28 9 -6 -3 -24 1 -40 11 -26 15 -31 15 -50 2 -20 -14 -20 -17 -6
-31 8 -9 15 -20 15 -25 0 -5 10 -12 23 -15 12 -4 31 -13 42 -21 16 -11 17 -17
8 -27 -9 -9 -20 -8 -47 5 -20 9 -36 21 -36 25 0 5 -11 6 -25 3 -18 -3 -25 0
-25 12 0 9 5 16 12 16 6 0 9 3 6 6 -4 3 -18 -1 -33 -9 l-27 -14 34 -21 c20
-12 43 -22 53 -22 10 0 15 -5 12 -14 -5 -13 31 -46 66 -59 9 -3 17 -13 17 -21
0 -7 11 -17 25 -20 14 -4 34 -14 44 -24 23 -22 72 -51 54 -31 -17 17 -16 29 2
29 8 0 15 -4 15 -10 0 -5 7 -10 15 -10 24 0 17 17 -10 24 -28 7 -32 18 -11 36
8 6 12 19 9 27 -5 14 -1 15 28 9 45 -9 60 -25 32 -32 -20 -5 -20 -8 -8 -21 8
-8 15 -21 15 -29 0 -8 4 -14 9 -14 5 0 7 9 4 20 -4 14 0 20 12 20 14 0 16 -6
12 -29 -6 -28 -5 -29 37 -33 32 -2 42 0 39 10 -7 17 35 16 53 -2 21 -21 17
-58 -9 -97 -15 -23 -31 -34 -47 -34 -18 0 -26 -8 -32 -30 -15 -57 -68 -72
-107 -31 -13 14 -20 29 -16 36 3 6 3 10 -2 9 -4 -1 -21 3 -38 10 -16 7 -44 14
-62 16 -45 5 -73 15 -73 26 0 5 -7 9 -15 9 -8 0 -15 4 -15 9 0 11 79 11 86 0
3 -5 11 -9 17 -9 7 1 2 9 -11 20 -13 10 -23 22 -22 25 2 11 -16 32 -32 38 -10
3 -18 13 -18 20 0 8 -16 22 -35 33 -19 10 -35 22 -35 26 0 5 -16 16 -35 25
-22 11 -35 24 -36 37 -1 17 -2 18 -6 4 -5 -22 -33 -24 -33 -3 0 8 6 15 13 15
6 0 -3 9 -21 20 -18 11 -39 20 -47 20 -8 0 -18 6 -22 13 -12 20 -45 30 -54 16
-9 -15 -57 -19 -86 -6 -12 5 -24 20 -27 33 -4 15 -14 24 -26 24 -13 0 -20 7
-20 20 0 12 7 20 17 20 15 0 14 2 -3 14 -10 8 -29 12 -40 10 -12 -3 -25 -1
-28 5 -9 14 -36 14 -36 1 0 -5 9 -10 20 -10 11 0 20 -4 20 -10 0 -5 6 -10 14
-10 15 0 29 -27 21 -40 -8 -13 -35 0 -35 15 0 8 -8 11 -20 8 -11 -3 -20 -1
-20 5 0 6 -18 13 -40 17 -22 4 -42 10 -45 15 -6 10 -45 1 -45 -10 0 -5 9 -6
20 -3 22 6 29 -22 8 -30 -7 -3 -2 -6 12 -6 14 -1 39 -10 56 -20 17 -10 46 -22
64 -26 39 -9 60 -26 60 -50 0 -11 -5 -15 -15 -11 -9 3 -15 0 -15 -9 0 -18 -21
-20 -38 -3 -7 7 -28 11 -47 10 -26 -2 -35 1 -35 13 0 8 -9 15 -20 15 -11 0
-20 4 -20 10 0 5 -13 16 -30 25 -16 9 -30 23 -30 32 0 13 -3 14 -12 5 -19 -19
-51 -15 -46 6 4 14 -5 23 -34 36 -27 11 -38 21 -34 31 3 8 1 15 -3 15 -5 0
-18 3 -28 6 -16 6 -16 5 2 -9 16 -12 17 -17 7 -30 -11 -13 -10 -15 7 -10 14 3
23 0 27 -11 3 -9 12 -16 20 -16 8 0 14 -7 14 -15 0 -8 -7 -15 -15 -15 -8 0
-15 3 -15 8 0 4 -12 13 -28 19 l-27 13 28 -25 c23 -21 27 -30 22 -57 -6 -29
-3 -35 23 -50 17 -10 40 -18 51 -18 12 0 21 -6 21 -15 0 -8 -5 -15 -12 -15 -6
0 -3 -8 8 -18 24 -23 53 -17 64 14 6 16 15 22 25 18 8 -3 15 -10 15 -15 0 -5
9 -9 20 -9 17 0 19 -3 11 -19 -9 -17 -5 -20 34 -32 51 -15 57 -32 18 -47 -33
-12 -93 -14 -93 -3 0 5 -11 6 -25 3 -20 -3 -25 0 -25 16 0 24 30 38 42 20 4
-7 8 -11 9 -8 0 3 2 13 4 22 2 10 -1 20 -6 24 -5 3 -9 1 -9 -4 0 -5 -14 -16
-32 -23 -24 -10 -33 -10 -36 -1 -2 7 -8 12 -14 12 -24 0 -97 66 -98 88 0 12
-6 22 -14 22 -8 0 -21 7 -29 15 -12 12 -20 12 -46 2 -27 -10 -33 -9 -41 3 -8
13 -10 12 -10 -4 0 -13 -5 -17 -18 -14 -19 5 -49 -28 -38 -40 3 -3 6 0 6 6 0
14 46 16 55 3 3 -5 -2 -16 -10 -24 -13 -14 -10 -15 28 -15 91 0 100 -3 112
-41 7 -23 6 -23 -43 -16 -32 4 -52 3 -57 -4 -8 -14 -60 -14 -86 0 -11 5 -28 9
-37 7 -14 -3 -13 -7 8 -25 13 -13 21 -26 17 -29 -4 -4 1 -13 11 -20 13 -10 14
-15 5 -24 -16 -18 49 -73 88 -74 25 -1 29 3 29 27 0 15 5 27 10 27 6 0 10 7
10 15 0 8 7 15 15 15 8 0 15 -9 15 -20 0 -11 -4 -20 -10 -20 -5 0 -10 -5 -10
-10 0 -6 9 -5 21 2 17 10 23 10 26 1 6 -15 33 -17 33 -3 0 6 7 10 15 10 17 0
20 -16 5 -25 -17 -10 -11 -25 10 -25 12 0 20 -7 20 -16 0 -13 -7 -15 -32 -11
-25 3 -37 -1 -51 -16 -16 -19 -16 -21 5 -32 13 -6 25 -7 26 -3 7 17 42 7 58
-17 20 -30 11 -44 -16 -27 -23 14 -30 15 -30 3 0 -5 21 -18 46 -30 41 -20 45
-24 42 -54 -3 -31 -5 -32 -52 -35 -27 -2 -54 2 -59 7 -6 6 -19 11 -29 11 -11
0 -15 5 -12 15 5 11 2 13 -10 9 -10 -4 -22 0 -29 8 -10 12 -18 12 -47 2 -19
-7 -27 -13 -17 -13 25 -1 23 -41 -3 -41 -11 0 -20 5 -20 11 0 27 -45 48 -107
48 -35 0 -67 2 -72 5 -5 4 -12 -12 -16 -34 -6 -36 -10 -40 -36 -40 -19 0 -29
-5 -29 -15 0 -8 -4 -15 -10 -15 -5 0 -10 7 -10 15 0 8 -4 15 -10 15 -5 0 -10
7 -10 15 0 18 16 20 23 3 7 -17 28 11 24 32 -3 21 -57 26 -57 6 0 -18 -25 -22
-35 -6 -11 18 -75 42 -96 37 -27 -7 -79 23 -79 46 0 10 -13 25 -28 34 -38 22
-58 64 -37 79 8 6 12 14 9 17 -3 3 -1 13 4 23 9 16 14 13 45 -21 l35 -38 26
29 c14 16 26 32 26 37 0 10 28 9 35 -3 8 -13 -6 -110 -16 -110 -4 0 -14 6 -21
13 -15 14 -78 19 -78 6 0 -9 7 -11 49 -13 26 -1 42 -26 17 -26 -24 0 -19 -17
7 -25 31 -9 151 -10 166 -1 6 4 18 3 26 -4 10 -9 19 -9 35 0 16 9 25 9 33 1 6
-6 16 -11 21 -11 6 0 3 5 -6 11 -10 5 -18 17 -18 24 0 8 -7 15 -15 15 -8 0
-12 -6 -9 -14 6 -17 -24 -30 -40 -17 -7 6 -21 8 -33 5 -18 -5 -20 -1 -20 35 0
46 21 57 31 16 4 -16 11 -22 21 -19 21 8 -2 53 -32 60 -16 4 -23 13 -23 30 0
13 3 24 6 24 16 0 44 -23 44 -35 0 -8 7 -15 15 -15 9 0 18 -6 21 -14 3 -8 14
-16 25 -19 15 -4 18 -2 10 7 -14 16 -4 26 26 26 14 0 23 -5 22 -12 -3 -21 12
-48 27 -48 8 0 14 -9 14 -20 0 -11 -5 -20 -11 -20 -5 0 -7 -5 -3 -11 5 -8 9
-7 14 1 4 7 14 11 21 8 9 -4 14 2 14 17 0 12 -4 22 -10 21 -5 -1 -11 4 -13 9
-2 6 -12 13 -23 17 -20 8 -27 38 -7 38 6 0 20 -7 30 -17 17 -15 18 -15 18 10
0 18 -8 29 -29 38 -27 12 -29 17 -27 61 2 43 -1 51 -30 78 -18 16 -36 25 -39
20 -5 -9 -123 -4 -157 6 -12 4 -18 0 -18 -10 0 -30 -49 -19 -68 14 -18 32 -32
39 -32 15 0 -18 -31 -20 -48 -3 -9 9 -12 9 -12 0 0 -7 -12 -12 -26 -12 -23 0
-26 3 -21 25 4 26 -22 52 -37 37 -4 -4 -12 1 -17 11 -10 17 -40 23 -52 11 -13
-14 -80 -13 -91 0 -14 18 -141 32 -151 17 -3 -6 -1 -11 4 -11 6 0 11 -7 11
-15 0 -8 4 -15 9 -15 5 0 11 -9 14 -20 3 -11 12 -20 21 -20 9 0 16 -8 16 -20
0 -11 -7 -20 -15 -20 -8 0 -15 -4 -15 -10 0 -21 -31 -9 -40 15 -11 28 -35 32
-61 9 -16 -14 -19 -13 -37 6 -18 19 -20 20 -19 4 1 -11 -6 -20 -18 -22 -11 -2
-24 -10 -28 -18 -4 -8 -19 -14 -32 -14 -14 0 -25 -4 -25 -10 0 -24 -60 -9
-100 25 -51 42 -75 47 -58 11 16 -37 4 -59 -32 -54 -17 3 -30 0 -30 -5 0 -5
-9 -7 -19 -4 -16 4 -19 0 -18 -22 2 -22 -3 -27 -27 -29 -33 -4 -49 13 -41 46
4 17 1 22 -14 22 -14 0 -19 -5 -15 -15 4 -9 -2 -23 -12 -33 -13 -11 -19 -29
-18 -54 1 -21 -3 -38 -9 -38 -5 0 -6 -11 -3 -25 4 -14 3 -31 -1 -38 -5 -8 -9
-3 -14 13 -6 24 -7 24 -23 -14 -10 -22 -17 -61 -16 -90 0 -28 2 -134 3 -236 3
-178 4 -189 34 -275 17 -49 34 -102 37 -116 3 -14 23 -40 45 -57 45 -36 49
-50 55 -182 5 -100 15 -130 50 -153 14 -10 28 -28 32 -42 3 -14 10 -25 15 -25
5 0 8 -3 7 -7 -2 -12 32 -69 75 -123 20 -26 37 -51 37 -54 0 -3 -121 -6 -268
-6 l-269 0 -12 43 c-7 23 -28 92 -47 154 -20 62 -33 117 -29 123 3 5 2 10 -3
10 -5 0 -10 17 -10 37 -1 21 -8 72 -17 113 -37 173 -75 462 -80 610 -4 85 -9
158 -11 162 -3 4 -16 5 -30 2 -28 -7 -29 -5 -9 32 20 39 19 51 -6 65 -16 8
-20 18 -17 45 4 31 2 33 -19 28 -14 -4 -23 -2 -23 5 0 6 -9 11 -19 11 -11 0
-22 6 -24 13 -8 19 -27 -12 -19 -32 5 -14 4 -14 -14 0 -10 9 -25 14 -33 11 -8
-2 -21 5 -31 17 -14 20 -19 21 -44 10 -23 -11 -29 -10 -36 2 -7 11 -3 15 20
17 23 3 30 8 30 25 0 12 -8 27 -18 32 -67 36 -72 37 -119 30 -43 -6 -46 -8
-29 -20 20 -15 15 -45 -8 -45 -7 0 -27 -7 -42 -15 -16 -8 -37 -12 -46 -9 -12
4 -15 0 -11 -16 4 -14 1 -20 -12 -20 -12 0 -16 6 -12 20 6 23 -17 47 -28 29
-6 -8 -10 -7 -17 5 -11 19 -37 21 -44 3 -8 -21 -81 1 -88 26 -3 14 -10 17 -27
12 -14 -5 -25 -2 -30 6 -6 10 -9 11 -9 2 0 -7 -4 -13 -10 -13 -5 0 -10 9 -10
20 0 12 7 20 18 20 14 0 15 2 2 10 -9 5 -17 5 -20 0 -3 -5 -19 -8 -35 -7 -20
1 -29 -2 -28 -10 2 -7 -2 -13 -7 -13 -6 0 -10 4 -10 10 0 5 -22 -2 -49 -17
-33 -16 -48 -30 -44 -39 3 -9 -2 -14 -15 -14 -12 0 -24 -5 -27 -11 -4 -6 -23
-10 -44 -9 -55 3 -61 1 -55 -15 9 -22 -4 -18 -32 11 -17 16 -24 32 -21 45 3
12 0 19 -9 19 -8 0 -23 9 -33 19 -13 13 -27 18 -42 14 -14 -4 -25 0 -31 11 -7
13 -13 14 -29 6 -22 -12 -39 -6 -39 16 0 15 -9 18 -25 6 -14 -10 -17 -32 -5
-32 6 0 10 -6 10 -14 0 -10 -11 -13 -38 -12 -29 2 -44 -4 -67 -26 -17 -15 -25
-28 -19 -28 6 0 19 9 29 20 18 20 55 28 55 12 0 -4 -6 -14 -12 -21 -7 -6 -13
-15 -14 -19 0 -4 -6 -20 -13 -36 -14 -36 -39 -55 -68 -56 -16 0 -21 -4 -17
-15 4 -8 1 -15 -5 -15 -6 0 -11 -7 -11 -15 0 -8 -5 -15 -11 -15 -5 0 -7 5 -4
10 3 6 1 10 -4 10 -15 0 -14 18 2 23 6 2 3 3 -8 1 -11 -2 -31 -4 -45 -4 -23
-1 -24 -2 -7 -14 19 -14 23 -36 7 -36 -5 0 -10 3 -10 8 0 4 -11 12 -25 19 -20
9 -25 8 -25 -2 0 -19 -13 -25 -38 -18 -22 5 -31 33 -11 33 18 0 -8 27 -31 33
-21 5 -27 -7 -10 -18 5 -3 10 -12 10 -20 0 -10 -10 -10 -50 3 -30 10 -48 22
-45 29 2 7 -2 10 -11 6 -7 -3 -14 -9 -14 -14 0 -5 -7 -9 -15 -9 -13 0 -13 -3
-3 -20 11 -17 10 -22 -2 -30 -10 -6 -11 -10 -2 -10 6 0 12 -11 12 -25 0 -14
-6 -25 -12 -25 -8 0 -5 -7 6 -15 11 -8 16 -15 12 -15 -5 0 -3 -7 4 -15 17 -20
5 -32 -15 -15 -12 10 -15 10 -15 -1 0 -17 -37 -42 -50 -34 -6 3 -7 -1 -4 -9 4
-11 -2 -19 -20 -26 -14 -5 -39 -24 -55 -42 -28 -32 -29 -32 -55 -15 -14 10
-26 25 -27 35 0 10 -3 12 -6 5 -2 -7 -14 -13 -25 -13 -14 0 -18 5 -14 16 3 8
2 12 -4 9 -6 -3 -10 -19 -10 -35 0 -30 -1 -30 -62 -32 -18 0 -25 -4 -21 -14 3
-8 0 -14 -6 -14 -6 0 -8 -7 -5 -15 4 -8 1 -15 -5 -15 -17 0 -23 24 -12 51 8
22 5 27 -21 38 -22 10 -28 19 -25 32 3 11 1 19 -4 19 -5 0 -9 10 -9 22 0 21
-1 21 -14 3 -12 -16 -17 -17 -45 -6 -19 8 -31 21 -31 32 0 30 -20 32 -46 4
-28 -31 -36 -30 -27 4 3 14 11 20 20 17 8 -3 11 -1 8 4 -3 6 -16 10 -29 10
-12 0 -28 6 -35 12 -10 11 -15 10 -25 -4 -16 -22 -30 -24 -23 -3 4 8 2 17 -3
20 -6 4 -10 -1 -10 -9 0 -22 -25 -20 -47 3 -27 28 -75 22 -108 -13 -23 -24
-25 -33 -16 -48 13 -21 14 -31 2 -24 -5 3 -14 0 -20 -8 -9 -11 -9 -15 1 -18
10 -4 8 -9 -5 -22 -14 -14 -15 -21 -6 -32 14 -17 12 -20 -24 -29 -20 -6 -27
-4 -27 8 0 18 -27 30 -33 14 -2 -7 -14 -3 -34 11 -32 23 -43 20 -43 -10 0 -10
-3 -18 -8 -18 -4 0 -12 -10 -17 -22 -10 -24 -27 -28 -33 -9 -2 6 2 11 10 11 8
0 14 9 14 20 0 15 -5 18 -18 14 -12 -3 -18 0 -18 10 0 10 9 16 23 16 28 0 47
17 40 36 -3 9 2 14 16 14 18 0 21 6 21 39 0 22 7 46 15 54 13 13 13 16 0 21
-8 3 -21 3 -29 0 -8 -3 -16 3 -19 16 -3 12 -10 19 -16 15 -6 -3 -14 1 -17 9
-3 9 -15 16 -25 16 -13 0 -17 -5 -12 -17 9 -24 25 -34 46 -27 19 6 22 -4 6
-26 -8 -11 -12 -12 -16 -2 -2 6 -9 12 -15 12 -7 0 -6 -5 1 -14 6 -8 11 -18 10
-22 -3 -21 2 -26 16 -14 13 11 15 8 15 -14 0 -26 -13 -35 -25 -15 -5 7 -15 5
-31 -5 -32 -22 -54 -20 -54 4 0 11 5 20 12 20 6 0 8 3 4 7 -4 5 -12 8 -16 8
-5 0 -16 9 -24 20 -14 18 -15 18 -16 3 0 -21 -4 -22 -33 -7 -26 15 -56 50 -57
67 0 14 -20 17 -20 2 0 -5 -10 -14 -21 -21 -18 -9 -24 -8 -31 5 -5 9 -16 16
-23 16 -8 0 -15 8 -15 19 0 14 -6 17 -24 14 -16 -3 -23 -10 -19 -19 3 -9 -2
-14 -15 -14 -12 0 -25 -6 -29 -13 -7 -11 -82 -47 -98 -47 -3 0 -5 9 -5 21 0
15 5 19 15 15 9 -3 24 3 35 14 22 22 26 40 10 40 -5 0 -10 -4 -10 -10 0 -5 -4
-10 -10 -10 -5 0 -10 7 -10 15 0 8 -4 15 -9 15 -5 0 -8 -6 -7 -13 0 -6 -3 -13
-9 -14 -5 -2 -10 5 -10 14 0 22 -31 29 -51 12 -12 -10 -17 -8 -29 7 -8 10 -12
25 -9 33 4 11 0 10 -14 -2 -11 -10 -26 -15 -36 -11 -9 3 -16 2 -16 -4 0 -6 6
-12 13 -15 6 -2 8 -8 4 -13 -4 -5 -11 -4 -15 2 -11 17 -97 25 -110 12 -9 -9
-15 -9 -23 -1 -8 8 -16 9 -29 1 -14 -9 -24 -6 -51 14 l-34 26 -30 -29 c-32
-31 -65 -38 -65 -15 0 8 9 18 20 21 11 3 20 12 20 20 0 15 -44 29 -48 15 -2
-6 -10 -10 -17 -10 -7 0 -15 -7 -19 -15 -8 -23 -26 -18 -27 8 -1 16 -2 18 -6
4 -5 -21 -19 -22 -27 -2 -4 12 -11 13 -31 5 -35 -13 -35 -13 -35 10 0 23 -31
41 -38 22 -6 -20 -32 -13 -32 8 0 14 -7 20 -24 20 -28 0 -54 -25 -34 -33 7 -2
9 -8 5 -13 -5 -5 -13 -1 -19 10 -8 14 -12 15 -18 6 -6 -10 -15 -9 -40 4 -18 9
-43 13 -56 10 -33 -8 -30 9 7 40 17 14 26 26 20 26 -6 0 -11 9 -11 20 0 22 15
27 23 8 4 -8 6 -7 6 4 1 9 -4 18 -11 20 -23 8 3 28 29 22 23 -6 24 -5 14 14
-6 11 -11 36 -11 56 0 19 -4 38 -10 41 -5 3 -10 1 -10 -4 0 -26 -15 -8 -16 19
-1 33 21 42 29 13 4 -14 5 -12 6 5 0 12 -4 22 -10 22 -6 0 -8 7 -5 15 3 9 -1
18 -9 21 -8 4 -15 11 -15 16 0 6 7 7 15 4 9 -3 18 1 21 9 4 8 12 15 19 15 8 0
17 5 21 12 4 7 3 8 -4 4 -7 -4 -12 -2 -12 3 0 6 9 11 21 11 16 0 19 4 15 17
-4 9 -1 20 6 24 9 6 9 11 0 22 -10 12 -9 16 3 21 9 3 15 0 15 -9 0 -8 4 -15
10 -15 5 0 7 7 3 16 -3 9 3 21 16 30 11 8 21 21 21 29 0 7 7 15 15 17 9 2 12
8 6 17 -6 10 -12 5 -22 -18 -14 -32 -45 -41 -66 -20 -9 9 -7 16 9 29 23 18 21
19 -35 21 -9 0 -17 7 -17 15 0 18 -18 18 -54 -1 -36 -19 -52 -19 -60 1 -9 24
-7 34 8 34 8 0 16 7 20 15 3 8 13 15 22 15 10 0 14 -5 11 -15 -7 -17 9 -30 18
-15 3 5 -1 20 -10 33 -8 13 -12 27 -8 30 3 4 1 7 -5 7 -7 0 -12 5 -12 11 0 14
-47 59 -62 59 -5 0 -8 7 -4 15 3 9 0 15 -9 15 -8 0 -15 8 -15 18 0 13 -3 11
-13 -7 -18 -36 -41 -41 -35 -8 4 20 0 28 -13 32 -22 7 -25 21 -6 28 6 3 2 6
-10 6 -27 1 -28 7 -9 27 8 7 12 23 9 34 -3 11 0 20 6 20 6 0 11 7 11 15 0 8 7
15 15 15 8 0 15 7 15 15 0 9 9 15 22 15 24 0 68 36 68 57 0 20 18 15 25 -7 7
-22 35 -28 35 -7 0 8 13 13 34 14 44 1 64 12 45 24 -11 7 -10 11 5 22 13 10
15 16 8 21 -16 10 -15 56 1 56 8 1 7 4 -3 13 -23 18 -20 56 7 83 12 13 23 30
23 39 0 9 9 15 23 15 13 0 26 3 30 6 10 10 -16 42 -30 37 -25 -10 -13 17 15
31 25 13 28 20 26 52 -3 28 2 41 19 55 15 12 18 21 11 26 -6 5 -14 15 -17 23
-4 10 -6 8 -6 -6 -1 -17 -9 -23 -38 -26 -21 -3 -49 -1 -63 5 l-25 9 25 10 c14
5 33 7 42 4 12 -3 18 2 18 13 0 10 3 21 7 25 4 4 7 19 8 34 0 22 4 27 23 25
17 -2 22 2 22 20 -1 37 -18 101 -29 105 -6 2 -11 8 -11 13 0 15 32 10 44 -6 9
-13 15 -11 39 15 l29 30 -31 0 c-17 0 -31 2 -31 4 0 2 -3 11 -6 20 -5 12 1 16
25 16 20 0 40 10 61 30 38 37 38 52 -1 69 -29 13 -30 15 -24 55 9 48 12 53 26
39 6 -6 18 -9 25 -6 8 3 14 0 14 -6 0 -6 -9 -11 -20 -11 -11 0 -20 -3 -21 -7
0 -5 -2 -18 -3 -31 -2 -18 1 -21 13 -16 9 4 27 9 41 11 14 2 35 9 47 15 12 6
29 8 37 5 8 -3 18 -2 21 3 4 6 1 10 -4 10 -6 0 -11 9 -11 20 0 11 5 20 10 20
6 0 10 7 10 16 0 9 -7 14 -17 12 -13 -3 -17 -12 -16 -31 2 -24 -2 -27 -27 -27
-36 0 -44 12 -29 42 34 65 34 65 12 46 -27 -25 -43 -22 -43 7 0 16 -6 25 -15
25 -8 0 -15 -4 -15 -10 0 -5 5 -10 10 -10 6 0 10 -7 10 -15 0 -16 -9 -19 -34
-9 -10 4 -16 18 -16 36 0 23 4 29 15 24 8 -3 15 -1 15 4 0 6 -7 10 -15 10 -8
0 -14 3 -14 8 4 24 -4 41 -21 47 -11 3 -20 12 -20 19 0 8 -9 20 -21 27 -21 14
-21 15 -3 57 19 43 34 55 34 25 0 -15 1 -15 13 2 8 10 19 15 25 11 16 -10 15
-1 -4 37 -10 19 -13 32 -6 35 6 2 7 16 2 39 -5 19 -6 42 -3 49 6 16 23 19 23
4 0 -5 -6 -10 -12 -10 -10 0 -10 -2 0 -8 8 -5 10 -16 5 -28 -6 -17 -5 -17 10
-5 9 7 17 20 17 27 0 8 6 14 13 15 10 0 10 2 0 6 -23 9 -14 25 9 17 38 -12 52
-32 40 -58 -9 -21 -8 -22 15 -18 14 3 21 7 16 11 -15 10 -13 58 2 71 14 11 13
14 -7 24 -13 6 -24 20 -27 31 -2 11 -9 24 -17 28 -8 4 -14 13 -14 19 0 6 -8
17 -17 24 -16 12 -16 15 -3 24 10 6 11 10 3 10 -27 0 -12 28 20 36 22 6 37 19
47 41 8 18 22 33 30 34 10 0 11 2 3 6 -20 7 -15 23 6 23 21 0 37 -30 21 -40
-22 -13 43 -54 90 -56 25 -1 50 -3 55 -5 19 -5 64 23 58 37 -3 8 1 14 8 14 10
0 14 15 14 55 0 44 -4 56 -17 61 -10 3 -18 8 -18 12 0 10 41 35 47 29 6 -7 43
30 43 43 0 6 6 10 14 10 8 0 12 7 10 18 -6 25 30 61 65 65 43 5 46 12 11 27
-35 14 -35 16 -15 37 18 18 11 33 -16 33 -10 0 -19 5 -19 11 0 8 -15 10 -46 5
-45 -6 -45 -5 -42 21 2 15 12 32 23 38 11 5 19 17 19 25 -1 8 -2 34 -3 58 -1
31 -5 42 -17 42 -9 0 -18 9 -21 20 -3 11 -9 20 -14 20 -4 0 -7 9 -6 20 1 13 6
19 15 15 9 -3 12 1 10 13 -2 9 -13 18 -26 20 -12 2 -22 9 -22 17 0 7 -3 20 -6
29 -4 9 -1 16 6 16 7 0 19 8 26 18 9 12 16 14 21 6 14 -21 48 -25 69 -8 18 15
18 15 -3 5 -29 -14 -33 -14 -33 4 0 18 35 55 52 55 6 0 9 3 5 6 -3 4 1 14 10
22 10 11 12 17 4 20 -17 6 -13 20 9 27 26 8 26 25 0 32 -23 6 -25 21 -5 47 14
19 11 72 -6 90 -12 13 -11 26 0 26 13 0 61 -45 61 -57 0 -6 12 -9 28 -8 39 3
39 3 46 31 5 18 11 24 24 20 10 -3 40 -8 67 -11 39 -3 45 -2 29 6 -14 7 -20
20 -20 45 0 34 10 46 19 22 3 -9 12 -6 30 11 14 13 23 29 20 37 -3 8 -1 14 5
14 6 0 12 -5 14 -11 3 -9 9 -9 25 0 12 6 26 11 32 11 17 0 13 -28 -5 -38 -25
-14 0 -24 41 -16 19 3 38 10 41 15 3 5 14 9 24 9 10 0 22 5 26 11 4 8 0 9 -15
4 -23 -7 -26 1 -11 25 6 9 5 17 -3 22 -9 6 -7 11 5 18 9 6 15 17 12 25 -4 10
0 15 14 15 12 0 28 10 36 21 22 33 71 58 97 52 18 -5 21 -3 16 11 -4 10 -7 28
-7 41 0 13 -7 30 -15 39 -8 8 -15 22 -15 30 0 10 -6 13 -15 10 -9 -4 -15 0
-15 9 0 18 24 29 46 20 14 -5 15 -3 5 15 -7 12 -21 22 -31 22 -12 0 -20 7 -20
16 0 11 6 14 20 9 15 -5 20 -2 20 13 0 11 6 23 13 25 7 3 5 6 -5 6 -24 1 -23
28 1 36 11 3 18 12 15 20 -7 17 9 27 31 19 9 -4 15 -15 13 -27 -2 -11 3 -22
10 -24 7 -3 10 1 6 11 -3 9 -1 16 5 16 20 0 12 38 -11 54 -17 12 -19 19 -11
27 9 9 9 16 0 30 -12 20 2 44 26 44 7 1 11 7 9 14 -4 18 8 51 18 51 5 0 12 -9
15 -20 7 -22 30 -27 41 -9 3 6 0 15 -7 20 -12 8 -12 11 1 19 11 7 17 4 22 -10
4 -11 11 -20 16 -20 10 0 13 -71 4 -85 -6 -9 -8 -23 -12 -97 -1 -10 -5 -18
-10 -18 -5 0 -4 -12 2 -26 10 -22 9 -27 -4 -35 -16 -9 -14 -59 4 -59 5 0 7 9
3 19 -4 13 4 29 26 51 29 28 33 30 48 16 11 -11 12 -16 3 -16 -7 0 -10 -4 -7
-10 10 -17 25 -11 25 10 0 11 5 20 11 20 5 0 8 4 4 10 -3 5 -12 7 -20 3 -9 -3
-15 1 -15 10 0 15 20 27 46 27 9 0 14 -7 12 -18 -3 -20 0 -22 32 -22 18 0 19
3 8 20 -15 23 -4 38 15 22 8 -7 17 -9 20 -5 4 3 7 -6 7 -21 0 -23 3 -26 20
-21 11 4 20 2 20 -4 0 -6 6 -8 14 -5 8 3 12 12 9 20 -3 8 0 14 7 14 8 0 9 -10
5 -30 -6 -26 -4 -30 13 -30 14 0 22 9 27 30 8 39 -1 53 -31 46 -24 -6 -24 -5
-23 44 1 29 7 50 13 50 15 0 41 -41 38 -61 -3 -21 24 -32 46 -19 12 7 13 9 3
10 -22 0 8 30 30 30 23 0 24 -13 2 -46 -15 -24 -15 -25 6 -31 18 -5 22 -11 19
-34 -5 -30 10 -43 37 -33 11 5 15 -1 15 -19 0 -27 21 -42 37 -26 6 6 19 6 36
0 28 -11 31 -9 28 22 -3 24 15 22 22 -3 3 -13 14 -20 28 -20 l22 0 -23 20
c-13 11 -20 23 -16 27 4 4 10 2 14 -4 4 -6 19 -9 34 -6 24 5 25 8 16 28 -8 19
-6 27 11 44 26 26 31 26 31 0 0 -18 4 -20 29 -14 22 5 32 2 41 -12 10 -15 10
-14 5 10 -5 27 9 39 18 15 2 -7 8 -1 12 15 5 17 14 27 26 27 19 0 21 5 22 48
0 12 5 22 11 21 25 -3 36 2 36 16 0 10 7 15 18 13 11 -2 18 4 20 20 2 12 10
22 18 22 15 0 19 -15 7 -23 -5 -2 -2 -2 5 0 8 1 20 3 28 3 8 0 14 7 14 15 0
19 4 19 46 -1 40 -19 45 -37 8 -28 -20 5 -25 3 -22 -7 3 -8 16 -13 32 -11 21
2 26 -1 26 -19 0 -16 4 -19 17 -15 9 4 20 1 25 -6 6 -10 8 -10 8 0 0 6 -11 22
-25 34 -34 30 -33 52 2 45 15 -3 36 -1 46 5 13 6 23 6 33 -2 7 -7 22 -9 31 -5
17 6 17 7 -1 20 -10 8 -16 20 -14 27 3 7 -4 22 -14 33 -16 16 -18 17 -13 2 4
-10 2 -17 -4 -17 -7 0 -14 7 -17 15 -4 8 -14 15 -24 15 -10 0 -20 7 -24 15 -6
17 -36 21 -36 5 0 -5 -21 -10 -46 -10 -45 0 -46 0 -39 27 8 35 14 41 24 24 6
-8 11 -9 15 -3 3 6 2 13 -4 17 -5 3 -10 11 -10 16 0 6 4 8 9 5 4 -3 17 1 27 9
10 7 29 11 40 9 28 -7 74 32 74 63 0 28 11 30 28 3 7 -11 18 -17 27 -14 10 4
12 10 7 18 -5 6 -12 23 -16 39 -6 26 -5 27 20 21 19 -5 25 -4 20 5 -5 7 0 11
13 11 12 0 21 -4 21 -10 0 -5 -5 -10 -11 -10 -6 0 -3 -7 5 -16 11 -10 14 -24
9 -42 -6 -25 -6 -26 11 -9 10 9 23 17 31 17 7 0 15 6 17 12 4 10 10 10 31 1
32 -15 35 -33 7 -33 -11 0 -20 5 -20 10 0 6 -5 10 -10 10 -7 0 -8 -13 -4 -35
4 -23 2 -35 -5 -35 -6 0 -11 -9 -11 -20 0 -23 15 -26 27 -5 10 18 53 9 53 -11
0 -8 8 -14 18 -14 10 0 24 -6 30 -12 10 -10 11 -5 7 26 -9 52 1 87 21 79 8 -3
21 2 29 13 8 11 15 16 15 12 0 -5 8 0 18 10 11 9 17 20 15 25 -2 4 5 7 16 7
11 0 28 14 40 34 19 30 25 33 61 31 22 -1 40 2 40 6 0 5 5 9 12 9 6 0 20 8 30
17 17 15 19 15 32 -2 9 -12 15 -15 20 -7 4 7 12 12 17 12 6 0 8 -4 5 -8 -2 -4
25 -9 62 -10 48 -2 81 -9 114 -26 32 -17 45 -20 41 -10 -3 8 0 14 7 14 6 0 9
4 5 10 -12 19 7 60 29 61 16 1 17 2 4 6 -20 5 -24 38 -8 48 8 5 8 11 1 19 -7
8 -5 24 7 50 15 33 20 37 44 32 15 -3 30 -1 33 4 3 6 1 10 -4 10 -6 0 -11 7
-11 15 0 18 12 19 29 3 10 -11 11 -8 6 15 -5 18 -3 27 5 27 6 0 14 -9 17 -20
6 -23 23 -27 23 -6 0 8 6 16 14 19 9 4 12 14 9 26 -5 18 -1 21 26 21 22 0 31
-5 31 -16 0 -10 -6 -14 -15 -10 -10 3 -15 -1 -15 -13 0 -11 -6 -22 -12 -24 -8
-3 -7 -6 4 -6 9 -1 20 4 23 9 3 6 18 10 33 10 23 1 25 2 10 11 -20 11 -24 39
-6 39 6 0 20 -7 30 -17 16 -14 18 -15 18 0 0 23 18 30 48 19 29 -11 96 -25 75
-16 -7 3 -13 10 -13 15 0 11 33 12 44 2 10 -11 36 -12 36 -2 0 14 38 11 43 -3
4 -8 6 -7 6 3 1 11 10 17 26 17 32 0 37 5 29 25 -3 9 -12 13 -20 10 -8 -3 -14
1 -14 10 0 8 12 20 28 25 l27 10 -27 1 c-56 2 -18 38 52 51 45 8 60 3 60 -21z
m4283 -2859 c21 -24 22 -40 3 -40 -7 0 -19 -6 -25 -14 -10 -12 -8 -13 8 -9 17
4 21 1 21 -17 0 -16 -4 -21 -16 -16 -14 5 -15 4 -4 -9 18 -22 39 -19 33 5 -4
14 0 20 11 20 9 0 16 5 16 10 0 6 7 10 15 10 8 0 15 -5 15 -10 0 -19 24 -37
42 -32 14 3 18 -2 18 -26 0 -24 -6 -33 -30 -44 -16 -7 -30 -19 -30 -25 0 -7
-6 -13 -14 -13 -9 0 -12 -7 -9 -20 4 -15 0 -20 -16 -20 -12 0 -21 6 -21 16 0
8 -5 12 -11 9 -7 -5 -5 -13 5 -24 21 -23 20 -31 -4 -31 -11 0 -23 7 -26 15 -4
10 -13 13 -24 10 -15 -5 -17 -1 -13 17 4 20 3 21 -7 6 -13 -22 -40 -24 -40 -3
0 8 -7 15 -15 15 -9 0 -18 7 -21 15 -9 22 -23 18 -17 -5 4 -15 0 -20 -13 -20
-26 0 -48 16 -40 28 3 6 -1 15 -10 20 -14 8 -14 12 3 42 10 18 21 31 25 29 14
-9 45 32 41 55 -4 22 -1 24 36 24 23 0 41 -3 41 -9 0 -5 4 -9 10 -9 5 0 7 7 4
15 -4 8 1 17 10 21 9 3 16 12 16 20 0 20 13 17 33 -6z m-296 -1221 c14 -14 6
-39 -13 -39 -8 0 -14 -7 -14 -15 0 -8 -4 -15 -10 -15 -5 0 -10 5 -10 10 0 6
-7 10 -16 10 -12 0 -11 -5 7 -20 23 -19 23 -21 7 -34 -10 -7 -18 -18 -18 -25
0 -6 -9 -11 -20 -11 -11 0 -20 -4 -20 -10 0 -5 5 -10 10 -10 6 0 10 -7 10 -15
0 -8 -7 -15 -15 -15 -8 0 -15 5 -15 10 0 6 -7 10 -15 10 -8 0 -15 7 -15 15 0
8 -4 15 -10 15 -5 0 -9 -5 -7 -11 1 -6 -4 -14 -10 -16 -18 -7 -29 27 -12 37
11 7 10 10 -4 16 -21 8 -22 33 -2 40 8 4 15 12 15 20 0 17 22 18 37 3 13 -13
53 9 53 28 0 15 26 17 35 3 11 -18 23 -11 18 10 -6 22 15 28 34 9z m-307 -559
c0 -5 7 -10 15 -10 8 0 15 -4 15 -9 0 -5 18 -2 39 6 36 14 41 14 65 -3 37 -27
33 -44 -11 -43 -21 0 -53 -2 -71 -6 -26 -6 -31 -11 -27 -26 4 -13 1 -19 -9
-19 -9 0 -16 4 -16 9 0 5 -11 11 -25 13 -14 3 -25 1 -25 -3 0 -5 -7 -9 -15 -9
-8 0 -23 -4 -33 -9 -9 -5 -30 -15 -45 -22 -16 -7 -24 -15 -18 -17 6 -2 11 -9
11 -17 0 -7 14 -18 31 -25 24 -10 29 -18 27 -39 -3 -22 -8 -26 -38 -27 -47 -2
-60 4 -60 27 0 22 28 26 36 4 4 -8 10 -12 16 -9 5 3 0 13 -11 21 -12 8 -19 18
-17 22 3 4 -4 12 -14 19 -16 10 -21 9 -30 -7 -5 -11 -22 -21 -37 -23 -20 -2
-29 -9 -31 -25 -4 -26 -6 -27 -33 -13 -21 12 -26 50 -6 50 6 0 18 14 26 31 8
18 19 29 29 27 9 -2 27 7 41 19 13 13 33 23 43 23 11 0 26 7 34 15 9 8 33 15
55 15 21 0 39 4 39 8 0 5 12 13 28 19 25 10 25 11 5 12 -29 1 -31 31 -3 31 11
0 20 -4 20 -10z m-2305 -752 c-3 -42 11 -61 35 -48 21 11 30 4 30 -26 0 -22
-3 -23 -47 -19 -83 9 -123 17 -129 26 -10 17 -22 9 -17 -12 6 -21 4 -22 -67
-17 -53 4 -77 10 -86 22 -7 10 -15 17 -18 17 -21 -3 -26 1 -26 19 0 11 -4 20
-10 20 -5 0 -10 4 -10 9 0 5 16 9 35 9 29 0 35 -4 35 -22 0 -18 6 -22 33 -24
19 -1 46 4 62 12 20 11 35 12 53 5 34 -13 83 -2 75 17 -7 19 14 44 37 44 14 0
17 -7 15 -32z"/>
<path d="M6662 7264 c-7 -8 -17 -12 -22 -9 -6 3 -7 -1 -4 -9 3 -9 1 -16 -5
-16 -6 0 -11 -8 -11 -17 1 -17 1 -17 11 0 13 22 28 22 44 0 12 -16 12 -14 8
10 -4 22 -2 27 16 27 16 0 21 -6 21 -25 0 -14 -5 -25 -11 -25 -6 0 -8 -9 -4
-20 3 -11 2 -20 -3 -20 -5 0 -19 9 -32 20 -28 24 -31 25 -23 5 3 -9 -2 -22
-13 -30 -18 -13 -18 -14 -1 -20 25 -10 21 -35 -5 -35 -23 -1 -23 -1 -3 -18 11
-9 26 -29 34 -44 13 -26 14 -26 40 -10 14 9 28 17 30 19 3 2 -10 0 -28 -3 -29
-6 -33 -4 -29 12 3 19 48 34 48 16 0 -5 11 -7 25 -4 15 2 25 0 25 -7 0 -6 8
-11 18 -11 12 0 8 7 -15 26 -32 24 -44 54 -23 54 6 0 10 -4 10 -8 0 -5 11 -14
25 -20 14 -6 25 -18 25 -27 0 -8 7 -15 16 -15 8 0 13 -4 10 -9 -3 -4 6 -13 19
-19 21 -10 27 -8 39 10 9 13 13 31 9 46 -5 21 -3 23 16 17 15 -5 21 -2 21 10
0 8 8 19 18 23 21 9 27 62 6 62 -8 0 -14 7 -14 15 0 12 -7 14 -27 9 -22 -6
-25 -4 -20 10 4 10 1 16 -7 16 -8 0 -16 -5 -18 -10 -2 -6 -17 -8 -36 -4 -23 5
-32 12 -33 28 -1 18 -2 18 -6 3 -3 -14 -12 -18 -28 -15 -16 4 -22 1 -18 -9 3
-7 -2 -13 -11 -13 -9 0 -16 7 -16 15 0 8 -9 15 -20 15 -11 0 -20 5 -20 10 0
14 -13 12 -28 -6z"/>
<path d="M6265 7027 c-6 -7 -9 -21 -7 -32 2 -17 -11 -38 -56 -90 -5 -5 0 -18
12 -30 21 -20 40 -47 53 -74 3 -7 0 -17 -8 -23 -11 -8 -10 -9 4 -4 10 3 21 6
23 6 2 0 4 10 4 21 0 16 5 20 20 16 13 -3 20 0 20 9 0 17 10 17 44 4 14 -5 26
-17 26 -26 0 -9 9 -18 20 -21 11 -3 20 -9 20 -14 0 -4 12 3 27 17 16 15 35 23
45 21 10 -3 15 -1 12 4 -10 16 20 69 38 69 10 0 18 5 18 10 0 6 -7 10 -15 10
-9 0 -18 7 -22 16 -5 12 -7 13 -14 2 -6 -10 -14 -10 -39 -1 -16 6 -30 7 -30 2
0 -5 -7 -9 -15 -9 -8 0 -15 7 -15 15 0 8 -6 12 -12 10 -8 -3 -13 -23 -13 -48
0 -36 -3 -42 -22 -45 -16 -2 -23 2 -23 12 0 9 -7 16 -15 16 -22 0 -18 38 5 45
23 7 27 25 5 25 -22 0 -51 -32 -47 -53 4 -21 -26 -23 -34 -2 -4 10 5 27 23 44
16 15 27 33 25 39 -5 16 30 15 47 0 11 -11 11 -9 0 9 -7 12 -21 24 -31 26 -12
3 -16 11 -12 21 5 12 0 16 -22 16 -16 -1 -34 -6 -39 -13z"/>
<path d="M7329 6982 c-9 -9 -35 -33 -58 -52 -40 -33 -50 -43 -78 -75 -16 -16
-17 -35 -3 -35 17 0 11 -28 -7 -39 -25 -13 -9 -25 15 -12 11 6 27 8 35 5 8 -3
17 1 20 9 3 8 24 18 46 22 27 4 42 13 46 26 4 10 15 19 26 19 12 0 23 10 29
25 5 14 17 25 27 25 13 0 14 3 5 12 -18 18 -15 28 9 28 13 0 18 -4 13 -12 -4
-7 -3 -8 5 -4 14 9 5 26 -15 26 -8 0 -14 7 -14 15 0 16 -39 36 -68 34 -9 0
-24 -8 -33 -17z"/>
<path d="M6918 6923 c17 -7 15 -43 -3 -43 -8 0 -15 -4 -15 -9 0 -10 -105 -121
-116 -121 -10 0 -33 -33 -34 -47 0 -7 7 -13 16 -13 20 0 13 -24 -9 -28 -10 -2
-17 3 -17 12 0 19 -28 25 -57 12 -26 -10 -31 -26 -9 -26 8 0 17 -6 19 -12 4
-10 8 -9 16 2 8 12 14 13 29 3 15 -9 22 -8 33 3 8 7 29 17 47 20 28 6 34 4 39
-15 6 -23 28 -28 36 -8 3 9 -7 19 -29 27 -37 15 -47 36 -13 27 18 -5 20 -2 15
18 -4 16 -1 25 10 29 13 5 14 9 5 20 -9 11 -6 15 16 21 24 6 25 8 10 16 -25
15 -22 38 5 31 14 -3 19 -1 14 6 -4 6 1 23 10 38 15 22 15 27 3 35 -8 5 -18 8
-24 8 -5 0 -4 -3 3 -6z"/>
<path d="M7470 6855 c0 -8 -9 -15 -20 -15 -11 0 -20 -4 -20 -10 0 -5 -31 -40
-70 -77 -38 -37 -70 -73 -70 -80 0 -7 -7 -13 -15 -13 -8 0 -15 -4 -15 -10 0
-5 5 -10 10 -10 6 0 10 -7 10 -15 0 -8 -7 -15 -15 -15 -8 0 -15 5 -15 11 0 5
-5 7 -10 4 -6 -3 -7 -17 -4 -31 7 -26 -12 -34 -33 -13 -9 9 -10 7 -6 -10 4
-17 1 -21 -16 -21 -19 0 -20 -3 -11 -20 12 -22 36 -27 42 -9 5 16 48 1 48 -17
0 -8 -8 -14 -18 -14 -10 0 -24 -6 -30 -12 -7 -7 -28 -11 -47 -9 -26 2 -35 -1
-35 -13 0 -8 -7 -19 -16 -24 -15 -8 -15 -10 0 -15 18 -7 22 -37 5 -37 -5 0 -8
-4 -5 -9 3 -5 15 -7 25 -4 10 3 22 0 25 -6 10 -16 26 -13 26 4 0 9 9 15 21 15
15 0 19 -4 15 -15 -3 -8 -9 -21 -12 -29 -7 -18 41 -10 57 10 6 8 19 14 28 14
9 1 4 7 -14 17 -55 29 -61 57 -10 47 23 -4 35 -2 35 5 0 6 6 11 14 11 17 0 27
55 12 70 -7 7 -6 14 2 22 9 9 15 10 20 2 9 -13 42 -26 42 -16 0 4 -9 13 -20
20 -11 7 -20 17 -20 22 0 15 26 12 40 -5 11 -13 15 -13 21 -3 6 10 15 10 39 1
28 -10 43 -2 20 12 -17 11 -12 38 6 31 14 -5 15 -4 5 8 -6 7 -9 21 -5 30 5 12
2 15 -10 10 -11 -4 -16 -1 -16 10 0 9 7 19 15 22 8 4 15 9 15 13 0 4 -7 8 -15
8 -8 0 -15 -6 -15 -14 0 -7 -9 -13 -20 -13 -11 0 -20 7 -20 15 0 8 7 15 15 15
8 0 15 7 15 15 0 8 -4 15 -10 15 -5 0 -10 7 -10 15 0 8 7 15 15 15 8 0 15 -7
15 -15 0 -8 7 -15 15 -15 8 0 15 -5 15 -11 0 -5 5 -7 12 -3 9 6 9 9 0 12 -18
6 -15 43 5 64 14 16 15 21 4 28 -8 4 -11 15 -8 23 3 9 -1 18 -9 21 -22 8 -24
8 -24 -9z"/>
<path d="M7267 6749 c5 -18 3 -20 -16 -14 -12 4 -28 2 -36 -5 -8 -6 -23 -9
-34 -5 -16 5 -20 3 -15 -9 3 -9 1 -16 -5 -16 -7 0 -9 -10 -5 -26 6 -24 5 -26
-17 -19 -13 4 -28 14 -32 22 -7 11 -15 4 -38 -26 -16 -23 -29 -45 -29 -51 0
-5 -9 -10 -19 -10 -14 0 -18 -5 -14 -20 4 -16 0 -20 -18 -20 -18 0 -20 -3 -11
-12 7 -7 12 -18 12 -25 0 -11 -5 -11 -20 -3 -14 7 -20 7 -20 0 0 -5 5 -10 10
-10 6 0 10 -7 10 -15 0 -8 7 -15 15 -15 8 0 15 -5 15 -10 0 -6 -7 -13 -15 -16
-8 -4 -15 -12 -15 -20 0 -8 -7 -14 -15 -14 -18 0 -20 36 -2 43 9 4 9 7 -1 18
-10 11 -16 11 -32 1 -11 -6 -26 -12 -34 -12 -21 0 -26 -37 -7 -53 9 -8 22 -12
28 -10 7 2 23 -3 35 -11 31 -22 49 -20 81 9 29 28 34 41 15 47 -18 6 0 28 23
28 12 0 19 5 16 13 -6 16 21 67 36 67 7 1 5 6 -5 14 -21 16 -22 34 -3 60 21
28 49 13 41 -22 -7 -27 -7 -27 13 4 10 17 45 56 76 86 48 46 54 56 42 67 -13
10 -15 9 -10 -10z"/>
<path d="M7835 6593 c-11 -3 -22 -8 -25 -12 -8 -9 -42 -30 -77 -46 -21 -10
-33 -23 -33 -34 0 -11 -2 -25 -5 -33 -2 -7 12 -23 32 -36 20 -13 31 -17 25 -9
-7 7 -9 17 -5 20 3 4 -4 7 -16 7 -16 0 -21 5 -19 18 2 9 10 16 16 15 7 -2 12
4 12 12 0 8 7 15 15 15 18 0 20 -26 3 -33 -8 -3 -6 -6 5 -6 9 -1 17 -9 17 -18
0 -10 11 -23 23 -29 23 -10 24 -8 34 39 8 39 7 50 -4 54 -7 3 -13 11 -13 19 0
17 5 17 31 4 16 -9 19 -7 19 9 0 11 3 26 6 35 6 16 -3 18 -41 9z"/>
<path d="M6404 6537 c-7 -4 -20 -7 -26 -5 -19 3 -58 -12 -58 -23 0 -5 5 -9 10
-9 6 0 10 -7 10 -15 0 -18 -21 -20 -40 -2 -8 6 -7 3 3 -9 21 -25 22 -44 2 -44
-22 0 -18 -23 7 -39 16 -10 23 -10 26 -2 5 16 32 13 32 -4 0 -8 -4 -15 -9 -15
-17 0 -21 -31 -4 -37 27 -10 58 -46 45 -51 -7 -2 -12 -7 -12 -12 0 -4 11 -3
25 3 14 7 25 15 25 20 0 4 7 7 15 7 8 0 15 -7 15 -15 0 -8 -4 -15 -10 -15 -5
0 -10 -7 -10 -15 0 -8 5 -15 10 -15 6 0 10 -6 10 -14 0 -17 41 -29 66 -19 26
10 54 41 54 59 0 22 44 14 48 -8 2 -13 -3 -18 -17 -18 -14 0 -21 -6 -21 -20 0
-12 -7 -20 -16 -20 -17 0 -38 -19 -41 -38 -2 -6 4 -12 12 -12 17 0 20 -21 4
-37 -7 -7 -3 -9 15 -6 15 3 26 1 26 -6 0 -6 7 -11 15 -11 18 0 20 -36 3 -44
-7 -3 -2 -3 12 0 14 4 27 11 28 15 2 5 9 9 16 9 18 0 46 33 46 53 0 21 -9 22
-24 2 -10 -14 -13 -14 -34 0 -29 21 -30 49 -1 42 24 -6 59 11 59 29 0 7 -9 14
-21 17 -12 3 -18 10 -14 16 8 14 45 14 45 1 0 -24 18 -7 22 21 4 22 0 33 -14
40 -12 6 -18 6 -18 -1 0 -5 -6 -10 -14 -10 -8 0 -13 -8 -12 -17 0 -10 -7 -19
-16 -21 -13 -2 -18 3 -18 17 0 12 5 21 10 21 6 0 10 7 10 15 0 8 9 15 20 15
11 0 20 5 20 11 0 7 9 9 24 5 19 -5 25 -1 30 17 10 37 7 67 -7 67 -8 0 -24 11
-37 25 -13 14 -32 25 -42 25 -10 0 -18 7 -18 15 0 10 -10 15 -29 15 -16 0 -31
6 -35 15 -3 8 -14 15 -24 15 -10 0 -23 5 -29 11 -13 13 -128 18 -149 6z"/>
<path d="M6064 6423 c-6 -2 -9 -15 -6 -28 3 -18 0 -25 -12 -25 -9 0 -16 -6
-16 -14 0 -7 -7 -19 -15 -26 -19 -16 -19 -30 -1 -30 8 0 22 -7 30 -16 15 -14
16 -14 16 0 0 9 8 16 20 16 23 0 27 -18 5 -26 -8 -4 -15 -12 -15 -20 0 -8 -9
-14 -21 -14 -15 0 -19 4 -15 16 6 15 4 15 -15 2 -29 -18 -44 -58 -24 -58 8 0
15 -7 15 -15 0 -8 -4 -15 -10 -15 -5 0 -10 -9 -10 -20 0 -11 -4 -20 -10 -20
-5 0 -10 -6 -10 -14 0 -23 -30 -47 -51 -41 -14 5 -19 1 -19 -14 0 -12 -5 -21
-11 -21 -5 0 -7 -4 -4 -10 3 -5 0 -20 -7 -32 -7 -13 -11 -29 -9 -37 1 -9 -3
-12 -13 -8 -9 4 -16 2 -16 -3 0 -6 5 -10 11 -10 18 0 39 -28 33 -44 -4 -11 -1
-16 10 -16 9 0 16 -6 16 -14 0 -8 9 -17 20 -21 11 -3 19 -9 19 -13 -4 -28 4
-29 36 -8 23 16 49 24 81 24 26 1 51 7 55 13 5 8 21 10 56 4 26 -4 62 -9 78
-10 17 -1 33 -3 38 -4 17 -6 83 -3 100 4 10 4 16 14 13 21 -4 10 3 14 19 14
27 0 34 -17 10 -26 -8 -4 -12 -11 -9 -16 4 -6 18 0 33 15 60 59 105 97 112 97
4 0 11 -5 15 -11 10 -17 24 13 17 39 -3 12 -14 24 -24 27 -10 4 -19 13 -19 21
0 8 -4 14 -10 14 -5 0 -10 6 -10 14 0 8 -7 16 -15 20 -18 7 -20 33 -2 39 6 2
-12 7 -40 11 -43 6 -53 11 -53 27 0 12 -10 23 -26 29 -21 8 -25 15 -20 34 5
20 3 23 -14 19 -23 -6 -28 15 -8 35 8 8 8 12 1 12 -6 0 -13 -7 -17 -15 -9 -24
-26 -17 -26 10 0 18 -4 23 -16 18 -10 -4 -22 1 -29 11 -7 9 -28 19 -46 21 -19
3 -35 9 -37 15 -2 5 -12 10 -23 10 -10 0 -19 6 -19 14 0 21 -63 57 -86 49z"/>
<path d="M7533 6376 c-39 -20 -57 -45 -54 -73 1 -7 -8 -13 -20 -13 -15 0 -19
-5 -15 -15 3 -9 0 -15 -10 -15 -8 0 -18 -8 -21 -17 -8 -21 -40 -53 -53 -53 -5
0 -10 -4 -10 -10 0 -5 6 -10 14 -10 7 0 24 -16 37 -35 13 -19 30 -35 37 -35 7
0 11 4 8 9 -8 13 66 66 86 63 11 -2 18 3 18 11 0 10 14 18 39 22 32 5 44 2 65
-16 14 -12 26 -28 26 -34 0 -18 -48 -6 -52 13 -2 12 -9 10 -34 -12 -18 -14
-41 -26 -53 -26 -14 0 -19 -5 -15 -15 4 -10 0 -15 -11 -15 -17 0 -17 -1 -2
-18 22 -24 21 -30 -5 -35 -14 -3 -9 -5 15 -6 27 -1 37 3 37 14 0 8 -7 15 -15
15 -18 0 -19 12 -3 28 18 18 28 15 29 -10 l0 -23 11 23 c6 12 17 22 23 22 7 0
15 7 19 15 8 21 36 19 36 -2 -1 -22 -23 -53 -39 -53 -6 0 -11 -9 -11 -20 0
-14 -7 -20 -21 -20 -18 0 -19 -2 -9 -15 7 -8 19 -15 26 -15 8 0 14 -6 14 -14
0 -7 10 -20 23 -29 26 -17 112 -28 97 -13 -15 15 -12 26 5 26 12 0 14 7 9 26
-5 19 -4 25 5 20 6 -4 11 -3 11 2 0 6 -7 13 -16 16 -14 5 -15 15 -9 54 4 26 8
61 9 77 4 66 47 99 66 51 5 -13 14 -27 19 -31 18 -10 13 -25 -8 -25 -11 0 -21
8 -24 18 -2 9 -4 -4 -4 -30 0 -26 -5 -54 -12 -62 -9 -11 -8 -17 4 -30 14 -14
18 -14 31 -2 8 8 14 19 14 25 0 6 7 11 15 11 8 0 15 9 15 20 0 14 7 20 23 20
25 1 57 22 57 38 0 6 9 16 21 22 11 7 38 29 59 50 l38 38 -31 6 c-48 9 -134
16 -119 10 6 -3 12 -12 12 -20 0 -17 -30 -19 -31 -1 -3 32 -4 37 -9 36 -3 0
-18 5 -34 11 -26 10 -28 9 -16 -5 9 -11 10 -19 4 -23 -6 -4 -13 -14 -17 -24
-4 -13 -16 -15 -57 -13 -42 3 -51 1 -46 -11 7 -18 -37 -19 -53 -1 -13 16 -5
27 21 27 12 0 18 7 18 21 0 16 5 20 20 16 11 -3 20 -1 20 5 0 6 11 7 25 4 18
-5 25 -2 25 7 0 9 -16 17 -45 20 -24 4 -53 11 -62 16 -41 22 -92 41 -105 40
-7 -1 -32 -11 -55 -23z"/>
<path d="M8748 6363 c-10 -3 -18 -11 -18 -19 0 -8 -6 -14 -14 -14 -9 0 -12 -7
-9 -19 3 -14 -2 -20 -26 -24 -17 -4 -38 -4 -46 -1 -8 4 -15 1 -15 -5 0 -6 -11
-11 -25 -11 -17 0 -23 -4 -19 -14 8 -20 -18 -33 -29 -14 -8 12 -15 13 -33 4
-13 -6 -24 -17 -24 -25 0 -9 -8 -12 -26 -8 -16 3 -33 -2 -44 -12 -55 -50 -73
-61 -93 -56 -14 4 -30 -1 -44 -15 -28 -25 -35 -25 -58 0 -10 11 -23 20 -29 20
-6 0 1 -10 17 -21 33 -26 35 -39 3 -39 -14 0 -28 -4 -31 -10 -3 -5 -13 -10
-22 -10 -11 0 -14 7 -11 25 3 13 1 22 -3 19 -5 -3 -9 -11 -9 -19 0 -8 -8 -19
-17 -24 -10 -6 -12 -11 -5 -11 6 0 12 -7 12 -16 0 -12 -6 -15 -25 -10 -20 5
-27 2 -33 -13 -7 -19 -10 -21 -32 -21 -5 0 -10 -6 -10 -14 0 -8 -5 -16 -11
-18 -8 -3 -8 -11 2 -27 11 -19 11 -25 2 -28 -7 -3 -13 -9 -13 -14 0 -6 8 -5
20 1 14 8 26 7 43 -1 18 -9 20 -9 10 2 -23 23 -16 40 12 29 16 -6 25 -6 25 0
0 6 -6 10 -14 10 -12 0 -26 20 -26 36 0 12 41 2 46 -11 4 -8 10 -15 15 -15 5
0 9 7 9 15 0 8 -7 15 -15 15 -8 0 -15 7 -15 16 0 10 7 14 23 12 12 -2 21 -9
19 -16 -3 -17 15 -15 22 3 3 8 10 15 16 15 20 0 9 -24 -27 -59 -21 -20 -39
-44 -39 -54 -1 -9 2 -14 7 -11 5 3 9 12 9 20 0 20 30 18 46 -3 13 -17 13 -17
14 0 0 15 35 37 61 37 14 0 11 -28 -3 -34 -10 -3 -8 -9 5 -19 9 -8 17 -19 17
-26 0 -16 -26 -14 -45 5 -9 9 -19 13 -22 10 -4 -4 3 -13 15 -22 12 -8 20 -19
17 -23 -2 -5 14 -8 37 -8 23 0 44 -5 46 -12 3 -8 9 -8 24 0 13 7 23 7 27 2 12
-19 50 -22 53 -5 4 22 68 26 68 5 0 -10 -7 -14 -20 -10 -11 3 -20 1 -20 -3 0
-13 104 -33 108 -20 2 5 18 10 37 10 18 0 38 7 45 15 7 8 25 15 40 15 24 0 27
3 22 22 -4 17 -2 20 11 15 11 -4 22 2 33 18 9 14 22 25 30 25 7 0 16 11 20 25
3 14 10 22 15 20 13 -9 48 17 42 32 -3 8 3 13 16 13 24 0 28 18 6 26 -8 4 -15
12 -15 20 0 8 -4 14 -10 14 -5 0 -10 -7 -10 -16 0 -21 -34 -14 -38 9 -2 10 3
17 12 17 9 0 16 4 16 10 0 5 -7 7 -15 4 -10 -4 -15 0 -15 14 0 11 6 23 13 25
6 3 0 6 -15 6 -16 1 -28 6 -28 11 0 6 -9 10 -20 10 -21 0 -28 26 -8 32 7 3 28
-3 47 -12 19 -10 42 -15 51 -13 10 3 20 -3 24 -12 6 -15 10 -14 32 10 14 15
24 28 22 30 -2 1 -14 8 -28 15 -17 9 -25 10 -28 1 -5 -16 -32 -14 -32 3 0 8 6
16 13 19 22 7 -13 37 -44 37 -22 0 -29 -5 -29 -20 0 -11 7 -23 15 -26 17 -7
20 -34 4 -34 -6 0 -13 9 -16 20 -7 25 -10 25 -34 -2 -18 -22 -20 -22 -33 -5
-7 9 -19 17 -26 17 -7 0 -10 8 -7 20 3 13 0 20 -9 20 -8 0 -14 9 -14 20 0 13
7 20 20 20 13 0 20 -7 20 -18 0 -18 29 -52 43 -52 4 0 7 6 7 14 0 8 7 16 15
20 24 9 17 21 -20 35 -39 14 -44 30 -17 54 26 23 32 21 33 -10 2 -24 2 -25 6
-5 5 25 25 29 43 7 14 -17 3 -38 -17 -31 -8 3 -11 1 -8 -4 3 -6 23 -10 42 -10
l37 0 -30 31 c-35 37 -73 57 -96 52z"/>
<path d="M8125 6230 c-11 -5 -28 -11 -38 -14 -17 -5 -17 -7 -3 -22 9 -8 16
-20 16 -25 0 -16 -39 -10 -49 9 -10 15 -11 15 -17 -5 -3 -13 -12 -23 -18 -23
-15 0 -56 -42 -56 -57 0 -5 -10 -15 -22 -22 l-23 -11 23 6 c12 3 22 2 22 -3 0
-4 20 -9 44 -11 40 -2 44 0 56 28 7 16 16 30 21 30 4 0 19 11 34 24 22 20 23
25 10 36 -8 7 -15 16 -15 21 0 13 34 11 47 -2 6 -6 16 -9 21 -5 13 8 22 46 11
46 -5 0 -9 -7 -9 -15 0 -8 -7 -15 -16 -15 -11 0 -15 6 -11 20 6 22 2 23 -28
10z"/>
<path d="M7403 6022 c-9 -6 -6 -15 13 -35 18 -19 23 -34 19 -48 -5 -15 -2 -22
13 -26 12 -3 19 -10 16 -17 -3 -7 5 -21 17 -32 16 -14 23 -15 26 -6 3 6 11 12
18 12 7 0 16 -6 19 -12 3 -9 8 -8 16 5 14 21 50 23 50 2 0 -9 -6 -18 -13 -21
-15 -5 -19 -34 -5 -34 4 0 8 7 8 15 0 8 9 15 20 15 24 0 25 -4 4 -25 -9 -9
-14 -18 -11 -21 5 -6 23 10 62 55 l20 23 -32 -6 c-26 -6 -34 -4 -43 13 -6 12
-16 21 -23 21 -15 0 -57 44 -57 59 0 6 -9 11 -19 11 -11 0 -22 6 -24 13 -4 10
-6 10 -6 0 -1 -18 -41 -16 -41 2 0 8 6 15 13 15 7 0 4 7 -7 15 -22 17 -35 18
-53 7z"/>
<path d="M9065 6001 c-6 -5 -23 -11 -40 -13 -25 -2 -29 -7 -27 -26 3 -20 0
-22 -21 -17 -19 5 -25 2 -30 -14 -5 -22 -31 -28 -42 -11 -7 11 -35 2 -35 -11
0 -13 -38 -49 -52 -49 -13 0 -38 -44 -38 -67 0 -10 -13 -12 -47 -9 -38 4 -44
2 -29 -6 11 -6 31 -11 45 -12 19 -1 26 -6 26 -21 0 -14 -6 -19 -20 -17 -11 2
-31 4 -45 4 -14 0 -30 4 -36 9 -6 5 -18 3 -30 -6 -10 -8 -31 -15 -46 -15 -15
0 -30 -5 -33 -11 -7 -10 -61 -7 -100 7 -16 6 -18 5 -7 -7 6 -7 12 -17 12 -21
0 -16 -37 -8 -55 12 -10 11 -24 20 -32 20 -7 0 -13 7 -13 16 0 8 -5 12 -10 9
-6 -4 -8 -11 -5 -16 4 -5 -3 -9 -14 -9 -27 0 -27 -16 -1 -23 30 -8 26 -41 -4
-35 -17 3 -23 0 -22 -11 1 -23 -63 -32 -86 -12 -12 9 -18 10 -18 3 0 -7 5 -12
10 -12 6 0 10 -6 10 -14 0 -8 5 -16 11 -18 17 -6 1 -48 -18 -48 -11 0 -14 6
-9 25 4 14 2 25 -4 25 -5 0 -10 -9 -10 -21 0 -16 -4 -19 -20 -14 -11 3 -20 4
-20 1 0 -9 53 -33 88 -39 30 -6 38 -2 72 34 28 31 43 39 58 35 13 -5 22 -1 26
10 4 9 13 14 21 10 8 -3 15 -2 15 2 0 5 -16 14 -35 22 -26 10 -35 20 -35 37 0
14 6 23 15 23 8 0 15 -7 15 -15 0 -8 9 -15 20 -15 12 0 20 -7 20 -16 0 -15 2
-15 25 0 23 15 26 15 31 1 7 -17 34 -21 34 -5 0 6 -7 10 -15 10 -8 0 -15 7
-15 15 0 8 7 15 15 15 8 0 15 -4 15 -10 0 -5 7 -10 15 -10 8 0 15 7 15 15 0 8
5 15 10 15 6 0 10 -7 10 -15 0 -8 -4 -15 -10 -15 -5 0 -10 -7 -10 -15 0 -8 -4
-15 -10 -15 -5 0 -6 -8 -3 -17 4 -11 8 -12 11 -5 5 16 30 15 48 -2 16 -17 19
-36 4 -36 -5 0 -10 -5 -10 -10 0 -6 7 -6 19 2 15 9 24 7 49 -11 19 -13 33 -17
37 -11 3 5 -1 10 -9 10 -22 0 -20 12 4 33 23 19 40 22 40 7 0 -5 7 -10 15 -10
9 0 18 -7 21 -15 4 -8 10 -12 15 -9 8 5 13 -12 12 -43 -1 -29 26 3 32 39 6 33
10 39 26 35 14 -4 19 0 19 14 0 10 7 19 15 19 13 0 13 3 3 21 -10 16 -10 23
-1 26 7 3 10 17 6 39 -4 26 -2 34 10 34 8 0 17 -9 20 -20 3 -11 10 -20 15 -20
6 0 8 9 5 20 -4 15 0 20 15 20 15 0 19 5 15 20 -3 11 -1 20 5 20 13 0 47 88
38 97 -3 3 -6 -1 -6 -10 0 -22 -26 -22 -34 -1 -9 25 -8 31 17 57 28 29 51 39
65 25 13 -13 32 -2 32 18 0 8 8 14 18 14 14 0 15 2 2 10 -19 12 -43 13 -55 1z"/>
<path d="M6115 5775 c-70 -13 -96 -23 -111 -43 -9 -12 -13 -12 -27 3 -15 14
-17 15 -17 1 0 -9 5 -16 10 -16 6 0 10 -7 10 -17 0 -15 1 -15 18 0 10 10 24
17 31 17 7 0 10 4 7 9 -3 5 1 14 9 21 12 10 16 9 22 -6 4 -10 2 -19 -5 -22 -7
-2 -12 -10 -12 -18 0 -8 -9 -14 -20 -14 -11 0 -20 -7 -20 -15 0 -8 -9 -15 -20
-15 -11 0 -20 4 -20 10 0 5 -7 7 -15 4 -8 -4 -15 -10 -15 -16 0 -5 -7 -16 -15
-25 -14 -14 -18 -14 -35 2 -12 11 -20 13 -20 6 0 -6 7 -14 15 -17 8 -4 15 -12
15 -20 0 -8 5 -14 10 -14 6 0 10 7 10 15 0 18 26 20 33 3 2 -8 10 -1 17 15 16
32 32 31 41 -4 4 -13 7 -19 8 -13 1 7 12 15 25 18 14 3 26 16 30 31 4 14 11
25 17 25 6 0 9 -7 6 -15 -4 -8 -2 -17 4 -21 6 -3 8 -12 5 -19 -3 -8 2 -11 15
-8 10 3 19 0 19 -6 0 -6 7 -11 15 -11 8 0 15 -7 15 -15 0 -8 -7 -15 -15 -15
-8 0 -15 5 -15 10 0 6 -7 10 -15 10 -8 0 -15 -4 -15 -10 0 -5 -7 -10 -15 -10
-8 0 -15 7 -15 15 0 8 -4 15 -9 15 -5 0 -16 -7 -25 -15 -18 -18 -33 -19 -39
-2 -4 10 -6 10 -6 0 -1 -7 -6 -13 -11 -13 -6 0 -21 -10 -33 -21 l-22 -21 22
11 c30 15 33 14 33 -14 0 -14 5 -25 10 -25 6 0 10 -7 10 -15 0 -8 -7 -15 -15
-15 -8 0 -15 7 -15 15 0 8 -6 15 -12 16 -7 0 -20 2 -29 4 -20 3 -48 -47 -30
-53 6 -2 11 -15 11 -28 0 -13 5 -24 10 -24 6 0 10 -6 10 -12 0 -7 4 -19 9 -27
15 -23 51 17 44 49 -4 21 0 31 17 43 16 11 20 21 15 36 -3 12 -11 21 -16 21
-5 0 -9 7 -9 15 0 8 9 15 19 15 10 0 21 7 25 15 3 8 12 15 20 15 14 0 22 -7
54 -45 11 -13 16 -12 36 10 23 24 56 34 56 16 0 -5 6 -11 14 -14 10 -4 22 9
37 41 13 26 31 53 41 60 10 7 18 22 18 33 0 10 7 19 15 19 8 0 15 6 15 13 0 6
7 25 15 41 9 16 13 31 11 34 -10 9 -101 8 -114 -1 -8 -7 -17 -6 -24 1 -14 14
-41 13 -123 -3z"/>
<path d="M6603 5771 c-18 -9 -33 -21 -33 -27 0 -6 -18 -27 -40 -47 -42 -37
-50 -57 -25 -57 8 0 15 -7 15 -15 0 -8 -9 -15 -20 -15 -11 0 -20 7 -20 15 0 8
-7 15 -15 15 -8 0 -15 -7 -15 -16 0 -9 -11 -25 -25 -36 -14 -11 -25 -25 -25
-31 0 -6 -12 -24 -27 -40 -17 -16 -21 -26 -11 -22 9 4 19 2 22 -4 8 -13 88 -5
97 10 4 7 16 9 28 6 22 -5 71 12 71 26 0 4 7 7 16 7 12 0 15 -6 11 -21 -4 -14
-2 -17 6 -10 7 5 31 8 53 7 l41 -2 -2 43 c-3 32 0 43 11 43 8 0 14 9 14 20 0
11 3 20 8 20 4 0 16 15 27 32 11 18 28 44 37 58 26 40 22 50 -19 49 -21 0 -32
-3 -25 -6 6 -2 12 -11 12 -19 0 -8 5 -14 10 -14 6 0 10 -7 10 -15 0 -8 -4 -15
-10 -15 -15 0 -50 33 -50 47 0 7 -7 13 -15 13 -8 0 -15 5 -15 10 0 15 -61 10
-97 -9z"/>
<path d="M7423 5652 c-28 -4 -30 -22 -3 -22 13 0 20 -7 20 -19 0 -28 -30 -35
-52 -11 -22 24 -28 25 -28 5 0 -8 6 -15 14 -15 22 0 30 -20 15 -35 -19 -19
-71 -8 -67 14 3 18 -3 21 -32 14 -23 -6 -27 -33 -5 -33 8 0 15 -7 15 -15 0 -8
-9 -15 -20 -15 -11 0 -20 6 -20 13 0 16 -32 47 -48 47 -7 0 -12 -7 -12 -16 0
-13 3 -14 14 -5 20 17 44 -13 26 -34 -9 -11 -9 -19 3 -35 9 -14 17 -17 22 -11
9 15 58 14 53 -1 -2 -6 10 -24 26 -39 28 -25 29 -28 12 -35 -10 -4 -21 -2 -25
4 -4 6 -14 1 -28 -14 -12 -13 -17 -24 -12 -24 5 0 9 -8 9 -17 0 -15 2 -16 10
-3 5 8 10 11 10 5 0 -11 78 63 91 88 7 13 6 17 -6 17 -9 0 -14 -4 -10 -9 3 -5
1 -12 -5 -16 -13 -8 -60 24 -60 41 0 16 26 19 35 4 3 -5 11 -10 16 -10 6 0 7
5 4 10 -9 14 23 24 38 12 9 -8 19 -5 37 8 20 16 22 20 8 20 -20 0 -24 20 -6
38 8 8 8 15 -1 26 -9 11 -9 20 -2 34 13 24 -3 40 -36 34z"/>
<path d="M6067 5533 c-12 -12 -7 -24 19 -48 16 -15 24 -31 20 -40 -8 -21 -23
-19 -31 5 -8 27 -35 27 -28 0 3 -12 -1 -22 -10 -26 -9 -3 -13 -13 -10 -25 3
-10 0 -19 -6 -19 -5 0 -8 -7 -4 -15 3 -9 -2 -23 -10 -33 -14 -16 -13 -17 11
-17 15 0 33 5 40 12 11 11 11 13 -2 13 -9 0 -16 7 -16 15 0 8 9 15 20 15 11 0
20 -5 20 -12 0 -9 3 -9 12 0 18 18 26 15 31 -10 3 -21 5 -20 16 8 7 18 21 34
32 37 13 4 19 14 19 35 0 24 -6 32 -29 40 -16 6 -32 8 -35 5 -3 -3 -8 1 -12
10 -3 9 -12 13 -21 10 -13 -5 -15 -1 -11 20 5 26 -1 34 -15 20z"/>
<path d="M7620 5531 c0 -6 -7 -11 -15 -11 -8 0 -15 -9 -15 -21 0 -11 -4 -18
-9 -14 -5 3 -12 1 -16 -5 -3 -5 1 -10 9 -10 18 0 22 -36 5 -42 -5 -2 1 -17 16
-33 15 -18 24 -39 22 -51 -3 -17 0 -20 15 -16 10 2 18 -1 18 -7 0 -6 4 -11 10
-11 6 0 5 10 -2 25 -14 31 -4 43 17 21 22 -21 95 -22 95 -1 0 8 5 15 11 15 7
0 9 -10 5 -25 -4 -14 -2 -25 4 -25 5 0 10 7 10 15 0 19 19 20 26 0 3 -8 14
-17 25 -20 10 -4 19 -11 19 -16 0 -19 35 -47 65 -53 26 -6 27 -5 8 3 -13 6
-23 18 -23 27 0 12 6 15 28 10 l27 -5 -25 11 c-14 7 -27 15 -30 19 -3 3 -15 9
-27 13 -13 4 -23 15 -23 25 0 11 -12 24 -30 31 -16 7 -30 19 -30 27 0 7 -7 16
-15 19 -8 4 -15 14 -16 23 0 10 -2 11 -6 4 -5 -15 -43 -18 -43 -3 0 5 8 14 18
19 16 10 16 10 0 11 -9 0 -20 -4 -23 -10 -11 -18 -35 -11 -35 10 0 11 -5 20
-10 20 -6 0 -10 -7 -8 -16 2 -10 -3 -19 -9 -21 -9 -3 -13 6 -13 25 0 16 -7 35
-15 42 -10 9 -15 9 -15 1z"/>
<path d="M6870 5465 c0 -8 7 -15 15 -15 8 0 15 -7 15 -15 0 -8 -7 -15 -15 -15
-9 0 -18 7 -21 15 -4 8 -12 15 -20 15 -8 0 -14 5 -14 10 0 6 -6 10 -12 10 -7
0 3 -15 22 -32 29 -27 60 -70 60 -84 0 -2 -10 -4 -21 -4 -16 0 -20 5 -17 18 7
26 -37 46 -56 26 -8 -8 -19 -14 -25 -14 -16 0 -13 -17 4 -24 22 -8 18 -36 -5
-36 -12 0 -20 7 -20 18 0 13 -2 14 -9 3 -6 -9 -18 -11 -35 -7 -35 9 -33 -5 4
-26 36 -20 41 -50 8 -47 -29 3 -70 -14 -87 -35 -17 -20 -7 -33 13 -17 8 6 18
11 22 10 5 -1 24 -1 43 0 25 1 32 5 27 16 -3 10 1 18 11 22 9 4 19 1 21 -5 4
-13 31 -16 57 -6 13 5 14 8 3 15 -10 7 -10 12 4 25 16 16 18 16 24 1 8 -21 34
-22 34 -2 0 8 7 15 15 15 8 0 15 -8 15 -19 0 -29 81 -47 123 -28 12 5 27 1 46
-13 16 -11 35 -20 43 -19 7 0 3 5 -9 11 -29 14 -32 53 -4 45 14 -3 20 2 24 19
3 17 0 24 -11 24 -9 0 -13 7 -9 19 3 11 -1 22 -8 25 -8 3 -11 -2 -8 -15 4 -13
0 -19 -10 -19 -10 0 -13 -6 -10 -20 3 -11 1 -20 -5 -20 -6 0 -17 -7 -26 -15
-14 -15 -46 -11 -46 6 0 5 -4 9 -10 9 -5 0 -10 -7 -10 -16 0 -9 -7 -14 -17
-12 -10 2 -18 10 -18 18 0 8 5 14 12 13 7 -2 10 4 7 12 -4 8 -12 15 -20 15
-12 0 -18 11 -16 31 1 3 -10 12 -23 19 -14 7 -25 22 -25 32 0 19 15 24 25 8 3
-5 12 -10 20 -10 7 0 -4 18 -26 40 -44 44 -49 47 -49 25z"/>
<path d="M8067 5428 c-7 -23 5 -48 24 -48 11 0 19 -7 19 -15 0 -18 -21 -20
-38 -3 -9 9 -12 8 -12 -5 0 -10 8 -17 18 -17 14 0 19 -8 20 -30 0 -16 -4 -30
-9 -30 -5 0 -9 -4 -9 -10 0 -5 7 -10 15 -10 7 0 19 -8 24 -17 6 -10 11 -12 11
-5 0 6 11 12 25 12 14 0 25 5 25 11 0 6 8 8 19 4 11 -3 22 -2 25 3 3 6 -4 12
-15 15 -15 4 -20 11 -16 21 4 10 1 16 -8 16 -21 0 -19 30 3 30 14 1 14 3 -5
19 -13 11 -23 24 -23 30 0 6 -4 11 -10 11 -5 0 -10 7 -10 15 0 19 -66 21 -73
3z"/>
<path d="M6803 5169 c23 -14 22 -39 -3 -39 -11 0 -20 -6 -20 -14 0 -11 -12
-14 -45 -13 -29 1 -44 6 -41 13 5 13 -31 7 -50 -7 -6 -5 -13 -6 -17 -3 -3 3
-17 -2 -31 -12 -26 -17 -26 -17 -6 -31 11 -8 26 -11 33 -6 6 4 23 6 37 4 20
-2 23 0 13 10 -17 17 -16 29 2 29 8 0 15 -9 15 -19 0 -10 7 -21 15 -25 8 -3
15 -10 15 -16 0 -5 -7 -10 -15 -10 -8 0 -15 -4 -15 -10 0 -16 27 -12 34 5 7
20 36 8 36 -15 0 -27 38 -36 55 -13 8 10 14 25 14 33 0 8 -4 5 -9 -7 -5 -13
-16 -23 -25 -23 -19 0 -20 29 0 36 8 4 15 12 15 20 0 23 40 16 50 -8 6 -16 9
-18 9 -7 1 9 8 19 16 23 8 3 14 11 13 18 -2 8 6 12 18 11 18 -2 21 2 17 18 -6
22 20 48 50 49 9 0 17 5 17 10 0 14 -22 12 -44 -5 -13 -10 -32 -13 -58 -9 -43
7 -54 -10 -13 -20 28 -7 33 -24 9 -33 -15 -6 -54 27 -54 46 0 6 -9 15 -19 21
-25 13 -42 13 -18 -1z"/>
<path d="M7022 5108 c-7 -7 -12 -18 -12 -25 0 -16 -1 -16 -36 -3 -23 9 -25 9
-15 -4 16 -19 6 -36 -20 -36 -10 0 -19 -4 -19 -10 0 -5 -7 -10 -16 -10 -8 0
-12 -5 -9 -10 4 -6 18 -10 33 -9 15 0 36 -1 47 -4 11 -2 14 -2 8 0 -18 6 -16
33 2 33 8 0 15 -4 15 -9 0 -5 12 -11 26 -14 18 -3 22 -1 15 6 -17 17 -13 27
10 27 15 0 19 -4 15 -16 -6 -15 0 -16 44 -10 44 6 50 4 50 -11 1 -17 1 -17 11
0 6 9 22 17 38 17 26 0 79 29 54 30 -7 0 -13 6 -13 14 0 9 -7 12 -20 9 -14 -4
-20 0 -20 11 0 10 8 16 22 16 15 0 19 3 12 10 -14 14 -44 2 -44 -16 0 -19 -36
-54 -57 -54 -9 0 -24 7 -34 16 -9 8 -31 16 -48 16 -20 1 -31 6 -31 16 0 10 7
12 27 7 23 -5 25 -4 14 9 -16 19 -33 20 -49 4z"/>
<path d="M7693 5083 c12 -8 8 -23 -13 -45 -20 -21 -20 -21 -35 -2 -12 16 -14
17 -15 2 0 -13 -10 -16 -47 -16 -27 0 -54 5 -60 11 -9 6 -18 5 -28 -3 -8 -6
-20 -8 -26 -4 -9 5 -7 11 7 22 18 14 18 14 -1 7 -11 -4 -35 -11 -54 -15 -19
-5 -37 -13 -40 -18 -3 -5 -16 -14 -28 -21 -13 -6 -23 -18 -23 -26 0 -10 -11
-15 -35 -15 -35 0 -47 -13 -21 -23 19 -8 66 14 66 31 0 15 32 16 48 0 9 -9 12
-9 12 0 0 7 7 12 15 12 8 0 15 -7 15 -15 0 -20 34 -13 110 22 39 18 65 24 92
20 27 -4 38 -1 42 10 5 11 20 14 66 11 33 -1 60 0 60 3 0 4 10 9 22 12 33 9
16 18 -49 27 -32 4 -65 9 -73 12 -8 3 -12 3 -7 1z"/>
<path d="M8440 4931 c0 -5 -11 -11 -25 -13 -34 -4 -18 -27 21 -30 40 -3 67
-18 98 -55 l27 -32 -23 -15 c-12 -9 -18 -16 -12 -16 5 0 16 6 22 12 10 10 17
10 35 -1 20 -13 21 -13 8 3 -24 29 2 43 33 18 28 -21 66 -19 66 4 0 8 10 14
26 14 14 0 23 -4 20 -9 -4 -5 5 -4 19 2 26 13 34 36 13 38 -39 2 -74 12 -92
25 -11 8 -30 14 -41 14 -11 0 -32 8 -45 17 -14 10 -37 16 -51 15 -15 -2 -30 1
-34 7 -8 13 -65 15 -65 2z"/>
<path d="M7775 4923 c-6 -2 -9 -19 -7 -39 4 -30 1 -35 -12 -32 -10 1 -17 8
-18 13 -2 21 -39 38 -61 27 -12 -5 -33 -14 -47 -20 -14 -6 -19 -11 -12 -11 14
-1 17 -31 2 -31 -5 0 -10 -9 -10 -20 0 -22 -20 -26 -38 -8 -18 18 -15 28 9 28
11 0 17 5 14 10 -10 16 -65 12 -65 -5 0 -10 -10 -15 -34 -15 -19 0 -41 -7 -50
-15 -8 -8 -26 -15 -40 -15 -17 0 -26 -5 -26 -16 0 -12 -6 -15 -25 -10 -18 5
-27 2 -31 -9 -3 -8 -33 -22 -66 -31 -62 -18 -63 -34 0 -34 17 0 32 -4 32 -10
0 -5 6 -10 13 -10 14 0 57 -52 57 -69 0 -5 -5 -11 -11 -13 -6 -2 2 -10 18 -17
15 -7 36 -17 45 -22 23 -12 38 -11 38 0 0 5 -9 13 -20 16 -22 7 -28 35 -7 35
20 0 57 -30 57 -46 0 -8 -4 -14 -10 -14 -16 0 -11 -25 9 -46 10 -10 38 -35 61
-54 24 -19 52 -44 63 -54 12 -12 22 -15 24 -9 2 6 13 9 24 6 12 -3 18 -11 15
-19 -3 -9 2 -14 14 -14 13 0 20 7 20 19 0 16 4 18 28 10 15 -4 39 -11 55 -14
15 -3 27 -12 27 -20 0 -17 -16 -20 -25 -4 -5 6 -12 4 -20 -7 -8 -11 -19 -15
-31 -11 -10 4 0 -10 24 -31 47 -43 51 -52 22 -52 -11 0 -20 4 -20 9 0 14 -37
20 -49 8 -8 -8 -16 -6 -29 6 -14 15 -15 19 -3 26 11 7 9 10 -8 16 -11 3 -21
11 -21 16 0 6 -4 8 -9 5 -4 -3 -17 1 -27 9 -10 8 -27 15 -36 15 -10 0 -18 5
-18 10 0 6 -11 15 -25 20 -14 5 -25 16 -25 23 0 20 -46 67 -65 67 -8 0 -15 4
-15 9 0 5 -10 7 -22 3 -18 -4 -20 -2 -15 17 4 18 3 20 -9 10 -12 -10 -20 -7
-40 12 -17 16 -23 18 -19 7 4 -9 13 -19 21 -22 10 -4 13 -13 9 -26 -6 -18 -2
-20 34 -20 30 0 41 -4 41 -15 0 -9 7 -18 15 -21 8 -4 15 -12 15 -20 0 -17 -71
-20 -100 -4 -13 7 -21 7 -25 0 -3 -6 1 -13 9 -16 24 -9 19 -34 -6 -34 l-23 -1
23 -18 c12 -11 22 -24 22 -29 0 -11 30 -22 72 -27 19 -2 25 1 21 11 -3 8 0 21
7 29 11 13 9 15 -11 13 -15 -2 -24 3 -27 15 -2 10 3 17 12 17 9 0 16 5 16 10
0 19 22 10 50 -20 15 -16 33 -30 39 -30 6 0 11 -4 11 -9 0 -15 50 -43 99 -55
32 -7 49 -18 56 -33 5 -13 15 -23 22 -23 7 0 13 -5 13 -10 0 -6 11 -8 25 -4
14 3 25 2 25 -4 0 -5 9 -12 20 -15 11 -3 20 -13 20 -22 0 -11 -5 -15 -14 -12
-11 4 -13 1 -9 -11 10 -30 53 -56 53 -32 0 6 -7 10 -15 10 -8 0 -15 7 -15 15
0 8 7 15 15 15 8 0 15 -4 15 -9 0 -5 11 -11 25 -13 24 -5 29 1 26 30 -1 6 5
12 14 12 8 0 15 -8 15 -18 0 -11 9 -27 20 -37 16 -15 20 -15 20 -3 0 21 43 41
71 34 22 -6 23 -6 7 7 -20 15 -24 37 -8 37 6 0 10 7 10 15 0 9 9 15 25 15 14
0 25 -4 25 -10 0 -5 7 -10 15 -10 8 0 15 -7 15 -15 0 -17 -25 -20 -35 -5 -3 6
-14 10 -23 9 -14 0 -13 -3 6 -16 25 -18 29 -43 7 -43 -8 0 -15 -4 -15 -9 0 -6
11 -6 29 0 20 7 30 19 35 40 5 27 36 43 36 19 0 -5 -4 -10 -10 -10 -5 0 -7 -7
-3 -16 3 -8 12 -13 19 -10 10 4 14 -3 14 -19 0 -30 16 -33 23 -5 3 11 12 20
21 20 9 0 16 5 16 11 0 6 -8 9 -18 7 -15 -4 -18 -1 -14 18 3 19 0 24 -17 24
-12 0 -21 6 -21 15 0 11 11 13 53 8 28 -3 58 -10 65 -16 8 -6 12 -6 12 1 0 5
-7 12 -15 16 -16 6 -21 46 -6 46 5 0 14 -7 21 -15 7 -8 19 -15 27 -15 10 0 14
-7 10 -20 -3 -12 0 -20 8 -20 7 0 12 8 11 18 0 9 6 17 14 17 8 0 16 -8 18 -17
2 -10 -1 -18 -6 -18 -5 0 -7 -11 -4 -25 2 -14 1 -25 -2 -25 -12 0 -51 22 -58
33 -4 6 -13 4 -23 -7 -15 -15 -16 -21 -5 -42 8 -15 22 -24 37 -24 16 0 23 -6
23 -20 0 -13 -7 -20 -20 -20 -11 0 -20 -4 -20 -9 0 -15 42 -21 64 -8 19 10 19
12 4 15 -20 4 -24 27 -7 37 6 4 16 -1 24 -11 7 -11 17 -15 22 -11 4 5 0 13
-10 18 -26 15 -22 42 6 33 12 -3 28 -11 35 -16 8 -8 12 -6 12 5 0 8 -9 17 -20
20 -11 3 -20 12 -20 21 0 18 25 22 35 6 4 -6 11 -7 17 -4 7 5 3 10 -10 15 -29
11 -30 43 -2 34 24 -7 27 10 4 23 -21 12 -9 62 16 62 29 0 50 -11 50 -27 0 -9
-8 -13 -22 -11 -11 2 -23 -2 -25 -8 -2 -7 4 -11 14 -10 12 0 18 -6 18 -19 0
-11 -6 -19 -12 -18 -15 3 -17 -13 -3 -22 6 -3 10 -2 10 3 0 6 22 9 50 8 41 -2
51 1 56 16 3 10 12 18 20 18 8 0 13 -4 10 -9 -8 -12 20 -22 72 -26 24 -2 40 0
37 6 -4 5 -15 9 -26 9 -10 0 -19 7 -19 15 0 8 4 15 10 15 12 0 50 41 50 54 0
6 -5 3 -11 -6 -12 -22 -29 -23 -29 -3 0 8 -9 15 -20 15 -13 0 -20 7 -20 20 0
22 19 27 37 9 11 -11 53 7 53 23 0 5 7 8 15 8 8 0 15 -4 15 -10 0 -5 11 -10
25 -10 16 0 25 -6 25 -15 0 -9 -9 -15 -25 -15 -14 0 -25 5 -25 10 0 6 -5 10
-11 10 -8 0 -8 -4 0 -14 12 -15 139 -41 149 -31 3 3 -5 5 -17 5 -17 0 -22 4
-17 16 7 19 -12 47 -25 38 -11 -7 -86 46 -94 66 -7 20 -28 54 -44 74 -20 24
-61 107 -61 123 0 7 -4 13 -10 13 -5 0 -10 10 -10 23 0 14 -10 26 -27 35 -36
16 -46 15 -66 -8 -9 -11 -24 -20 -32 -20 -8 0 -15 -7 -15 -15 0 -8 -7 -15 -15
-15 -8 0 -15 9 -15 20 0 12 7 20 16 20 14 0 14 2 -1 16 -11 12 -13 20 -6 27 8
8 15 7 23 -1 16 -16 28 -15 28 3 0 9 -6 15 -12 14 -19 -3 -68 22 -68 35 0 6
-5 3 -11 -6 -14 -24 -39 -23 -39 2 0 17 -7 20 -40 20 -22 0 -40 4 -40 9 0 5
-23 14 -50 20 -28 6 -61 18 -74 26 -21 14 -25 14 -49 -6 -25 -19 -54 -18 -42
1 7 12 -22 70 -35 70 -6 0 -10 -4 -10 -10 0 -5 -5 -10 -11 -10 -6 0 -9 9 -6
20 5 21 -7 28 -18 10 -9 -15 -25 -12 -25 5 0 8 -4 15 -9 15 -5 0 -18 3 -28 6
-17 5 -17 5 0 -6 9 -6 17 -15 17 -20 0 -13 -37 -13 -42 0 -2 6 -16 12 -31 14
-15 1 -30 6 -34 9 -3 4 -18 7 -32 7 -23 0 -21 -3 17 -22 32 -17 41 -26 36 -40
-4 -12 0 -18 11 -18 12 0 16 -6 12 -19 -3 -14 0 -17 13 -14 13 4 19 -4 24 -35
3 -22 12 -42 18 -44 19 -7 19 -95 1 -102 -18 -7 -33 1 -33 18 0 7 -7 27 -16
45 -9 17 -13 38 -10 46 3 9 -1 15 -9 15 -8 0 -15 -7 -15 -15 0 -8 -7 -15 -15
-15 -8 0 -15 9 -15 20 0 11 6 20 14 20 7 0 16 9 19 21 5 18 2 20 -19 16 -13
-2 -24 0 -24 4 0 5 -7 9 -16 9 -12 0 -15 8 -12 32 3 29 -1 35 -31 49 -19 9
-39 23 -45 31 -6 8 -16 13 -21 11z m26 -100 c1 -17 2 -17 6 0 5 21 43 23 43 2
0 -8 -9 -20 -20 -27 -23 -15 -18 -52 14 -85 48 -50 56 -60 56 -70 0 -6 -7 -14
-15 -17 -24 -9 0 -45 41 -62 33 -14 42 -28 25 -38 -15 -10 -92 26 -87 41 3 7
1 13 -5 13 -6 0 -9 11 -7 24 3 25 -17 56 -36 56 -12 0 -36 45 -36 67 0 7 -4
13 -10 13 -5 0 -10 13 -10 29 0 16 -5 31 -11 33 -5 2 -7 11 -4 21 9 23 55 23
56 0z"/>
<path d="M9355 4849 c-22 -3 -32 -7 -22 -8 23 -2 22 -31 -2 -31 -11 0 -21 5
-23 10 -2 6 -15 -3 -30 -20 -17 -20 -21 -30 -12 -30 8 0 14 -7 14 -15 0 -16
-26 -21 -32 -6 -1 5 -16 7 -33 3 l-30 -6 30 -6 c34 -6 49 -39 18 -41 -13 0
-14 -2 -3 -6 8 -2 22 -7 30 -10 34 -13 60 -11 60 3 0 17 27 19 33 2 3 -10 7
-10 19 -1 20 17 12 70 -13 76 -10 3 -19 12 -19 21 0 19 21 21 38 4 8 -8 12 -8
12 -1 0 6 -7 13 -15 17 -8 3 -15 13 -15 22 0 16 11 16 53 -1 12 -5 17 -2 17
10 0 9 -5 13 -11 9 -6 -3 -14 -3 -18 2 -3 5 -24 6 -46 3z"/>
<path d="M6469 4768 c-9 -16 -9 -23 0 -26 18 -6 13 -42 -6 -42 -16 0 -15 -3 3
-18 12 -9 24 -29 28 -44 5 -21 3 -25 -12 -23 -70 14 -82 14 -82 0 0 -15 -67
-52 -77 -42 -3 3 -12 0 -20 -8 -8 -8 -28 -15 -44 -15 -16 0 -29 -4 -29 -10 0
-15 62 -5 105 17 22 12 42 21 45 21 3 0 17 5 31 11 15 5 36 7 48 4 13 -3 31 4
51 20 18 16 37 24 47 20 9 -4 21 0 27 9 6 8 25 22 41 31 41 22 113 86 98 87
-7 0 -13 -4 -13 -10 0 -5 -5 -10 -11 -10 -6 0 -34 -18 -61 -40 -52 -41 -77
-50 -79 -27 0 6 -4 2 -9 -10 -10 -25 -17 -27 -39 -14 -22 14 17 63 47 56 34
-8 25 25 -12 38 -15 6 -16 10 -6 22 19 23 -4 18 -25 -5 -10 -11 -22 -20 -27
-20 -13 0 -9 38 5 43 9 4 9 6 0 6 -7 1 -18 -9 -24 -21z"/>
<path d="M8723 4687 c2 -7 13 -13 25 -15 12 -2 22 -10 22 -18 0 -17 12 -18 28
-2 9 9 12 4 12 -24 0 -31 -3 -35 -19 -31 -11 3 -22 12 -25 22 -2 9 -3 -3 -3
-26 1 -24 4 -43 7 -43 3 0 14 -16 25 -36 11 -20 30 -40 42 -45 13 -5 23 -17
23 -28 0 -11 9 -23 20 -26 11 -4 18 -10 15 -15 -3 -5 4 -11 15 -15 11 -3 20
-10 20 -15 0 -4 9 -10 20 -13 14 -4 23 3 32 24 9 21 18 27 31 23 10 -3 24 -1
31 5 17 15 66 -8 66 -31 0 -10 7 -18 15 -18 8 0 15 -7 15 -15 0 -8 -7 -15 -15
-15 -8 0 -15 6 -15 13 0 18 -53 43 -58 28 -2 -6 -11 -11 -20 -11 -10 0 -24
-17 -34 -41 -11 -27 -13 -37 -4 -30 9 7 18 6 33 -4 19 -13 21 -13 26 5 7 26
27 26 34 0 7 -26 21 -26 25 0 3 18 5 19 31 6 15 -8 27 -11 27 -5 0 14 15 11
38 -10 27 -22 29 -46 5 -36 -12 4 -15 3 -8 -4 12 -12 57 -3 49 10 -3 5 2 12
10 15 11 4 14 14 10 30 -7 26 12 34 32 14 7 -7 11 -6 11 4 0 8 -3 14 -7 13 -8
-3 -80 73 -80 84 0 5 4 9 10 9 15 0 50 -33 50 -47 0 -7 4 -13 9 -13 5 0 8 8 7
18 -1 13 5 16 24 14 14 -1 27 -7 28 -12 5 -13 22 -13 22 -1 0 5 -9 13 -20 16
-11 3 -20 13 -20 21 0 8 -4 14 -10 14 -5 0 -10 7 -10 15 0 8 7 15 15 15 8 0
15 -6 15 -14 0 -16 35 -31 62 -27 10 1 28 -5 40 -13 27 -19 41 -20 36 -4 -3 7
-15 15 -28 18 -27 6 -34 19 -20 40 8 12 11 12 28 -3 10 -9 22 -17 26 -17 11 0
-56 66 -80 78 -31 16 -64 11 -64 -10 0 -10 -7 -18 -15 -18 -8 0 -15 7 -15 15
0 8 -3 14 -7 14 -21 -3 -33 2 -33 15 0 8 -7 17 -16 20 -10 4 -14 14 -11 26 6
23 1 27 -36 34 -19 3 -24 1 -20 -10 3 -8 11 -14 19 -14 8 0 14 -7 14 -15 0 -8
-7 -15 -15 -15 -8 0 -15 5 -15 10 0 6 -9 10 -20 10 -23 0 -26 19 -7 40 6 8 3
7 -9 -3 -26 -22 -34 -21 -34 1 0 10 -7 19 -15 19 -8 0 -15 -4 -15 -7 0 -4 -18
-10 -40 -14 -29 -5 -38 -10 -34 -21 8 -19 -19 -29 -43 -17 -12 7 -25 7 -36 0
-14 -7 -23 -4 -42 14 -14 13 -25 30 -25 38 0 8 -6 4 -13 -10 -7 -14 -20 -26
-30 -28 -13 -3 -17 4 -17 27 0 21 5 31 15 31 8 0 15 4 15 9 0 14 -22 26 -42
23 -10 -2 -33 1 -53 7 -27 7 -35 7 -32 -2z"/>
<path d="M7090 4654 c-11 -13 -10 -16 8 -21 12 -3 22 -10 22 -15 0 -6 6 -5 15
2 11 9 19 7 41 -13 29 -27 17 -49 -14 -25 -15 12 -16 11 -3 -4 7 -10 25 -18
40 -18 28 -1 61 -21 61 -38 0 -17 -20 -25 -33 -13 -8 6 -18 6 -27 1 -22 -14
-40 -12 -40 3 0 8 -8 21 -18 30 -22 20 -92 12 -92 -10 0 -11 -5 -13 -17 -8
-10 4 -35 7 -55 6 -29 -1 -38 2 -38 15 0 12 -6 15 -22 10 -13 -3 -28 -6 -34
-6 -7 0 -9 -11 -6 -25 3 -20 0 -25 -17 -25 -11 0 -21 -4 -21 -10 0 -5 -7 -10
-15 -10 -8 0 -15 -9 -15 -20 0 -12 -7 -20 -17 -20 -29 0 1 -21 37 -25 17 -2
38 -9 46 -15 7 -7 22 -9 34 -5 13 4 31 0 45 -9 14 -9 25 -12 25 -6 0 24 29 8
32 -17 2 -21 9 -29 27 -31 42 -6 149 -81 156 -110 4 -16 1 -28 -6 -33 -15 -9
-32 -1 -24 11 3 5 -9 11 -26 15 -18 4 -33 15 -36 26 -6 20 -37 34 -69 30 -11
-1 -28 7 -38 18 -10 11 -22 18 -26 16 -4 -3 -23 1 -41 9 -19 7 -59 16 -89 19
-30 3 -47 3 -37 0 9 -2 17 -9 17 -14 0 -5 12 -9 26 -9 16 0 23 -4 18 -11 -4
-7 0 -9 14 -5 11 4 23 2 27 -4 9 -14 81 -50 101 -50 9 0 39 -14 67 -31 27 -17
67 -32 89 -35 33 -3 40 0 50 21 6 14 17 25 24 25 7 0 22 10 33 21 12 13 26 19
36 15 13 -5 15 -1 10 17 -4 12 -11 26 -16 32 -13 13 -11 45 3 45 6 0 3 6 -7
14 -10 7 -16 20 -12 28 7 19 -11 38 -35 38 -11 0 -18 7 -18 20 0 23 28 27 36
5 4 -8 10 -15 15 -15 4 0 6 7 3 15 -4 9 2 18 17 23 22 8 22 9 2 14 -15 4 -22
17 -27 53 -12 79 -21 89 -50 59 -15 -14 -18 -14 -39 5 -40 38 -70 61 -77 61
-4 0 -13 -7 -20 -16z"/>
<path d="M9382 4240 c16 -25 3 -38 -22 -22 -11 7 -25 12 -32 12 -7 -1 0 -8 15
-16 32 -17 31 -39 -1 -38 -12 0 -19 -3 -16 -8 3 -4 12 -8 20 -8 8 0 14 -7 14
-16 0 -12 -6 -15 -22 -10 -13 3 -29 6 -35 6 -7 0 -13 9 -13 20 0 11 -4 20 -10
20 -5 0 -7 -7 -3 -16 5 -13 0 -15 -23 -13 -16 2 -41 -5 -57 -15 -15 -11 -36
-16 -48 -13 -13 3 -18 2 -13 -3 5 -5 25 -10 44 -12 41 -4 56 -34 19 -40 -22
-3 -21 -4 5 -18 27 -14 29 -13 50 11 22 27 46 28 46 3 0 -8 -4 -14 -8 -14 -10
0 -9 -36 1 -46 4 -4 7 0 7 9 0 10 5 17 10 17 6 0 10 -9 10 -19 0 -22 23 -34
37 -20 13 13 43 1 43 -17 0 -8 4 -14 9 -14 5 0 7 9 4 20 -4 16 0 20 18 20 22
1 23 2 7 14 -29 21 -22 39 11 31 16 -3 32 -2 35 3 3 6 -2 8 -13 5 -27 -7 -38
17 -15 35 13 10 15 16 7 19 -16 6 -17 35 -1 51 8 8 5 16 -13 31 -13 11 -28 20
-33 21 -4 0 -6 9 -3 19 3 12 -1 22 -10 25 -27 11 -33 6 -21 -14z"/>
<path d="M6700 4218 c25 -11 57 -26 73 -34 15 -7 27 -9 27 -4 0 6 7 10 16 10
11 0 15 -6 11 -19 -8 -32 74 -98 107 -85 9 3 16 10 16 15 0 16 40 9 47 -8 6
-15 7 -15 13 2 5 15 -1 24 -29 38 -20 11 -39 24 -42 30 -4 5 -23 10 -43 11
-20 1 -40 6 -44 13 -10 16 -91 42 -148 47 l-49 5 45 -21z"/>
<path d="M7473 4211 c-6 -25 -29 -34 -52 -21 -26 13 -40 -6 -34 -46 4 -27 2
-34 -10 -34 -9 0 -19 10 -22 21 -5 16 -9 18 -15 9 -5 -7 -17 -10 -30 -7 -21 5
-21 5 -5 -13 10 -11 22 -17 27 -14 14 9 106 -25 112 -42 3 -7 18 -14 32 -14
l27 0 -21 23 c-12 13 -22 31 -22 40 0 9 -7 17 -15 17 -8 0 -15 7 -15 15 0 8 7
15 15 15 8 0 15 -7 15 -15 0 -8 7 -15 15 -15 8 0 15 -7 15 -15 0 -8 4 -15 10
-15 5 0 18 -10 29 -21 l20 -21 -6 21 c-4 15 -1 21 11 21 20 0 35 -32 18 -38
-7 -2 -12 -10 -12 -18 0 -8 -8 -14 -17 -14 -15 0 -14 -2 3 -15 10 -8 27 -15
37 -15 9 0 17 -7 17 -15 0 -8 8 -15 18 -15 11 0 27 -9 37 -20 10 -11 22 -20
26 -20 4 0 19 -11 33 -25 26 -26 50 -32 61 -15 5 8 11 7 21 -1 10 -8 14 -8 14
0 0 6 7 11 15 11 8 0 15 -7 15 -15 0 -8 -8 -15 -17 -15 -17 -1 -17 -1 0 -11
23 -13 34 -5 39 28 3 26 1 28 -35 30 -22 0 -43 6 -47 12 -3 7 -14 9 -22 6 -25
-10 -30 10 -11 44 12 21 24 31 38 29 27 -4 34 -48 8 -49 -16 0 -16 -1 2 -9 11
-4 30 -6 43 -3 12 3 22 0 22 -6 0 -17 25 -13 43 7 21 23 21 32 2 32 -8 0 -15
7 -15 15 0 8 9 15 20 15 11 0 20 -5 20 -11 0 -15 30 -43 37 -35 4 3 -2 13 -13
20 -18 14 -18 15 -1 22 10 3 23 2 30 -5 16 -16 37 -14 37 4 0 9 -6 12 -16 8
-11 -4 -22 1 -30 12 -8 10 -14 13 -14 7 0 -7 -7 -12 -15 -12 -8 0 -15 5 -15
11 0 5 -5 7 -12 3 -6 -4 -17 1 -25 11 -8 12 -13 14 -13 6 0 -10 -10 -12 -37
-8 -26 4 -44 1 -57 -8 -27 -20 -38 -19 -34 4 4 24 -65 89 -70 66 -6 -25 -42
-18 -42 8 -1 20 -2 20 -11 5 -5 -10 -16 -18 -24 -18 -23 0 -65 22 -65 34 0 7
-13 20 -30 29 -33 20 -40 53 -12 60 15 4 15 5 -1 6 -11 0 -21 -7 -24 -18z"/>
<path d="M6330 4171 c0 -10 -12 -17 -67 -36 -17 -6 -5 -33 18 -40 28 -9 25
-37 -3 -33 -13 2 -22 9 -21 15 3 17 -35 23 -48 7 -9 -11 -9 -14 1 -14 7 0 10
-8 7 -20 -3 -11 -1 -20 4 -20 5 0 9 7 9 15 0 19 19 20 26 1 3 -8 13 -12 25 -9
14 4 19 0 19 -16 0 -12 6 -21 15 -21 8 0 15 7 15 15 0 8 7 15 16 15 8 0 12 5
8 11 -6 10 58 76 107 110 l24 16 -30 0 c-17 -1 -51 3 -77 7 -34 6 -48 5 -48
-3z"/>
<path d="M6530 4120 c0 -5 -19 -15 -41 -22 -23 -6 -37 -14 -30 -16 6 -2 11
-10 11 -18 0 -8 6 -14 13 -14 20 -1 51 -33 64 -67 10 -30 9 -33 -8 -33 -10 0
-37 16 -59 36 -22 20 -43 34 -46 31 -3 -3 4 -10 15 -17 12 -6 21 -15 21 -20 0
-16 -38 -11 -47 5 -7 13 -13 10 -31 -14 -21 -28 -21 -30 -3 -36 10 -3 38 -1
62 4 24 6 62 8 84 5 39 -5 40 -4 61 40 15 32 18 48 11 55 -8 8 -6 16 5 27 23
23 41 8 34 -27 -3 -16 -1 -29 4 -29 19 0 10 -25 -19 -57 -31 -34 -26 -53 16
-53 13 0 23 -4 23 -9 0 -5 14 -11 30 -13 20 -3 30 0 30 9 0 7 9 13 20 13 11 0
20 5 20 11 0 7 11 9 30 5 22 -4 32 -1 36 9 4 8 10 12 15 9 5 -3 9 0 9 5 0 6
-4 11 -10 11 -5 0 -10 13 -10 30 0 23 -5 31 -25 36 -14 3 -29 12 -33 20 -4 8
-28 15 -57 16 -45 3 -50 5 -47 25 2 14 -3 23 -15 26 -24 6 -81 2 -90 -6 -11
-12 -23 -8 -23 7 0 8 8 17 18 19 10 3 6 5 -10 6 -16 0 -28 -3 -28 -9z"/>
<path d="M8041 3971 c-12 -12 -28 -21 -36 -21 -8 0 -15 -7 -15 -15 0 -8 -7
-15 -15 -15 -11 0 -77 -38 -93 -55 -3 -2 10 -13 28 -23 30 -19 70 -19 70 -1 0
5 9 9 20 9 11 0 20 -5 20 -11 0 -5 4 -8 9 -5 4 3 6 17 3 31 -3 18 0 25 12 25
9 0 16 -7 16 -15 0 -8 5 -15 10 -15 6 0 10 7 10 15 0 8 4 15 9 15 5 0 11 9 14
20 3 11 12 20 21 20 9 0 16 7 16 15 0 8 -6 15 -14 15 -8 0 -16 4 -18 9 -8 21
-47 22 -67 2z"/>
<path d="M6722 3557 c-4 -14 -11 -17 -33 -12 -27 6 -29 4 -29 -24 0 -22 11
-41 42 -71 23 -22 48 -40 55 -40 7 0 13 -3 13 -7 0 -5 29 -21 65 -38 36 -16
65 -33 65 -37 0 -4 -8 -11 -17 -17 -14 -7 -15 -12 -4 -25 18 -22 54 0 39 24
-8 13 -5 23 13 44 32 37 43 66 24 66 -18 0 -20 27 -3 32 7 3 0 13 -17 23 -17
10 -49 38 -72 61 -39 39 -47 42 -90 41 -35 -2 -47 -6 -51 -20z"/>
<path d="M7785 3530 c-22 -5 -60 -7 -85 -5 -25 1 -31 0 -15 -2 17 -3 34 -11
38 -19 4 -8 15 -14 22 -14 8 0 15 -7 15 -15 0 -8 -7 -15 -15 -15 -9 0 -18 7
-21 15 -8 19 -34 20 -34 0 0 -9 6 -12 15 -9 9 4 18 -1 22 -12 9 -24 28 -44 42
-44 6 0 11 -7 11 -15 0 -8 -7 -15 -15 -15 -8 0 -15 5 -15 10 0 6 -7 10 -15 10
-8 0 -15 7 -15 15 0 8 -6 15 -13 15 -14 0 -47 35 -47 49 0 5 6 12 13 15 6 3 2
3 -11 0 -13 -3 -29 0 -37 6 -10 8 -19 9 -32 1 -17 -10 -17 -10 0 -11 9 0 17
-7 17 -15 0 -24 41 -56 63 -49 17 5 19 2 15 -19 -5 -28 6 -37 46 -37 12 0 40
-16 62 -35 21 -19 47 -35 57 -35 11 0 17 -8 17 -21 0 -18 2 -19 15 -5 17 17
20 36 5 36 -5 0 -10 7 -10 15 0 8 4 15 9 15 6 0 5 13 -1 32 -9 24 -8 33 0 36
17 5 15 22 -3 22 -8 0 -15 4 -15 9 0 5 -10 11 -21 14 -15 4 -20 11 -15 22 3 9
6 23 6 31 0 8 8 14 18 15 14 0 14 2 -3 9 -23 10 -19 10 -70 0z"/>
<path d="M7526 3297 c-19 -14 -19 -15 2 -21 12 -4 22 -13 22 -19 0 -8 3 -7 9
2 5 8 16 11 30 6 26 -8 22 -31 -4 -28 -16 1 -16 0 -2 -15 9 -9 31 -15 51 -14
30 1 36 -2 36 -18 0 -11 7 -20 15 -20 8 0 15 -4 15 -9 0 -9 32 -22 60 -26 8 0
23 -4 33 -8 9 -4 24 -9 32 -12 8 -2 15 -12 15 -21 0 -13 -7 -15 -35 -10 -46 8
-105 14 -82 9 9 -2 17 -12 17 -21 0 -21 42 -50 48 -33 5 16 32 14 32 -3 0 -8
-6 -16 -12 -19 -10 -4 -10 -7 0 -18 10 -11 12 -10 12 4 0 9 7 17 15 17 8 0 15
-4 15 -10 0 -5 7 -7 15 -4 8 4 15 15 15 25 0 21 25 26 33 7 3 -8 6 -5 6 5 1
10 5 16 9 13 5 -3 6 9 4 25 -3 23 -12 34 -33 41 -23 8 -30 18 -35 48 -5 32
-12 41 -37 49 -16 6 -38 11 -48 11 -10 0 -23 8 -28 18 -6 9 -11 11 -11 5 0
-17 -19 -16 -52 1 -15 8 -27 10 -25 4 1 -5 -8 -14 -20 -19 -18 -6 -23 -5 -23
7 0 8 -15 21 -34 29 -19 8 -36 19 -38 25 -2 7 -10 6 -22 -3z"/>
<path d="M7985 3134 c33 -33 70 -66 83 -73 12 -6 22 -18 22 -25 0 -16 68 -61
86 -58 20 4 65 -18 59 -27 -5 -10 54 -31 88 -31 30 0 19 30 -18 47 -19 9 -35
21 -35 27 0 5 -6 2 -13 -9 -16 -21 -37 -12 -37 16 0 11 7 19 18 20 27 1 -17
17 -50 18 -21 1 -25 -3 -21 -19 3 -11 0 -20 -6 -20 -20 0 -61 31 -61 46 0 17
5 17 31 4 15 -8 19 -7 19 5 0 8 7 15 15 15 8 0 15 4 15 8 0 14 -23 32 -42 32
-9 0 -22 8 -27 18 -6 9 -11 11 -11 5 0 -22 -36 -14 -49 11 -10 17 -29 28 -70
38 l-57 14 61 -62z"/>
<path d="M6640 3051 c0 -5 -10 -11 -22 -13 -13 -2 -22 -8 -21 -15 1 -6 -5 -10
-15 -9 -11 0 -18 -7 -20 -21 -3 -17 0 -21 12 -17 12 4 16 0 16 -16 0 -14 -4
-19 -12 -14 -7 4 -10 4 -6 -1 4 -4 3 -14 -3 -22 -9 -10 -8 -13 5 -13 9 0 19
-7 22 -15 4 -8 10 -13 14 -10 4 3 20 -5 35 -17 15 -11 41 -22 58 -24 18 -2 43
-6 57 -9 16 -4 20 -2 12 3 -7 5 -10 16 -7 24 8 20 -12 33 -50 33 -20 0 -31 6
-33 18 -2 11 3 17 15 17 10 0 25 8 34 18 14 17 13 19 -22 36 -26 13 -39 26
-43 47 -5 26 -26 42 -26 20z"/>
<path d="M4320 3033 c-8 -3 -21 -6 -27 -8 -9 -3 -4 -13 12 -31 14 -15 28 -24
32 -21 3 4 1 7 -5 7 -7 0 -12 5 -12 11 0 19 44 4 56 -19 18 -36 34 -50 34 -29
0 9 5 17 10 17 18 0 23 -30 11 -58 -10 -21 -14 -23 -22 -11 -7 12 -9 12 -9 -2
0 -20 -44 -44 -62 -34 -7 5 -10 5 -6 0 4 -4 18 -13 30 -19 12 -6 28 -22 34
-35 14 -27 32 -41 54 -40 10 0 11 2 3 6 -10 3 -9 9 3 21 13 12 14 17 4 20 -22
8 -50 36 -50 50 0 8 6 12 14 9 10 -4 13 -1 9 9 -3 8 1 14 11 14 9 0 16 -6 16
-14 0 -8 5 -18 10 -21 16 -10 12 32 -5 49 -19 19 -19 21 7 46 l22 20 -23 0
c-17 0 -21 4 -17 18 5 15 0 17 -37 17 -54 -1 -75 4 -79 19 -2 7 -10 11 -18 9z"/>
<path d="M6970 2895 c-7 -8 -18 -15 -26 -15 -24 0 -24 -17 1 -50 14 -19 25
-28 25 -21 0 8 -8 20 -17 27 -22 15 -11 30 14 19 10 -5 24 -7 31 -6 18 3 15
-36 -5 -59 -21 -24 -43 -26 -43 -5 0 8 -4 15 -10 15 -13 0 -12 -11 4 -32 9
-12 27 -18 52 -18 21 0 45 -4 53 -9 18 -12 51 -2 51 15 0 8 7 17 15 20 8 4 15
13 15 20 0 8 7 17 15 20 32 13 16 34 -25 34 -29 0 -40 4 -40 15 0 8 6 15 13
15 28 1 -27 22 -67 26 -31 3 -47 0 -56 -11z"/>
</g>
</svg>
