<?xml version="1.0" standalone="no"?>
<!DOCTYPE svg PUBLIC "-//W3C//DTD SVG 20010904//EN"
 "http://www.w3.org/TR/2001/REC-SVG-20010904/DTD/svg10.dtd">
<svg version="1.0" xmlns="http://www.w3.org/2000/svg"
 width="735.000000pt" height="1075.000000pt" viewBox="0 0 735.000000 1075.000000"
 preserveAspectRatio="xMidYMid meet">
<metadata>
Created by potrace 1.13, written by Peter Selinger 2001-2015
</metadata>
<g transform="translate(0.000000,1075.000000) scale(0.100000,-0.100000)"
fill="#000000" stroke="none">
<path d="M0 5375 l0 -5375 3675 0 3675 0 0 5375 0 5375 -3675 0 -3675 0 0
-5375z m3714 4504 c32 -37 33 -68 5 -103 -14 -18 -22 -42 -22 -67 0 -79 52
-93 103 -28 26 31 38 39 59 37 20 -2 27 -9 29 -30 4 -34 -35 -94 -70 -109 -30
-12 -33 -26 -19 -76 10 -34 -10 -120 -35 -158 -8 -11 -14 -25 -14 -32 0 -22
50 -14 73 11 13 13 38 28 57 33 33 9 39 15 59 66 25 64 67 8 56 -75 -8 -53
-22 -69 -56 -66 -19 2 -28 -6 -46 -42 -29 -56 -28 -85 2 -135 22 -35 31 -41
82 -51 51 -11 60 -10 71 4 7 9 10 22 8 29 -12 30 71 61 89 33 14 -23 35 -9 35
23 0 41 21 73 44 64 26 -10 22 -91 -6 -117 -16 -15 -23 -33 -23 -58 l0 -37
-57 -3 c-60 -3 -69 -10 -43 -32 8 -7 15 -23 15 -36 0 -21 -5 -24 -40 -24 -29
0 -42 5 -50 20 -6 11 -15 20 -20 20 -22 0 -59 -123 -41 -134 11 -7 34 28 24
38 -16 15 25 4 47 -14 14 -11 31 -20 37 -20 7 0 20 -11 29 -25 11 -17 25 -25
44 -25 38 0 56 -24 44 -58 -12 -36 -56 -42 -77 -11 -19 26 -37 17 -37 -19 0
-16 12 -39 32 -59 25 -26 40 -33 71 -33 24 0 49 -8 64 -20 14 -11 37 -20 50
-20 27 0 63 16 63 29 0 5 7 25 15 46 13 29 19 34 29 25 8 -6 16 -27 19 -48 3
-20 9 -49 12 -64 7 -25 5 -28 -19 -28 -17 0 -31 -9 -43 -27 -10 -16 -22 -31
-28 -35 -17 -13 -52 -9 -65 7 -7 8 -16 12 -21 9 -15 -9 -10 -22 11 -29 15 -5
20 -15 20 -41 0 -30 4 -37 31 -46 45 -16 35 -42 -18 -46 -29 -2 -47 -10 -57
-24 -8 -11 -29 -23 -48 -27 -36 -7 -48 -32 -28 -56 13 -16 68 -19 133 -9 35 6
38 9 32 34 -8 38 13 49 36 19 l17 -23 36 39 c20 21 36 45 36 52 0 7 12 19 28
25 15 7 37 20 49 31 21 19 21 19 38 -7 16 -25 16 -27 -9 -57 -34 -40 -33 -61
5 -98 37 -38 35 -65 -5 -69 -21 -3 -34 3 -46 18 -10 14 -22 19 -33 14 -21 -8
-22 -23 -2 -30 10 -4 15 -19 15 -42 0 -53 30 -120 57 -127 27 -6 30 -23 7 -32
-10 -4 -22 1 -30 12 -14 19 -45 17 -127 -6 -31 -8 -38 -14 -35 -32 4 -26 43
-32 148 -22 19 1 63 3 98 4 52 1 65 5 83 25 18 21 25 23 50 14 34 -12 34 -11
13 -44 -13 -18 -15 -36 -10 -74 7 -49 6 -50 -19 -50 -20 0 -29 7 -36 30 -13
35 -32 30 -23 -6 3 -13 3 -35 0 -49 -6 -22 -12 -25 -51 -25 l-45 0 0 -50 c0
-27 -4 -50 -9 -50 -4 0 -25 -13 -46 -30 -21 -16 -48 -30 -62 -30 -15 0 -27 -8
-35 -25 -14 -32 1 -51 48 -58 20 -3 51 -18 69 -32 50 -38 77 -45 105 -29 14 7
54 13 88 14 75 0 117 23 127 71 10 43 47 98 66 99 34 0 39 -65 9 -100 -12 -14
-20 -38 -20 -59 0 -20 -11 -53 -24 -74 -13 -21 -22 -47 -19 -57 3 -12 -4 -24
-24 -36 -15 -10 -37 -26 -48 -35 -16 -14 -41 -18 -117 -20 -95 -1 -97 -1 -135
30 -30 25 -47 31 -85 31 -39 0 -49 4 -59 23 -17 33 -51 67 -66 67 -18 0 -16
-40 3 -79 9 -19 13 -42 9 -59 -8 -39 26 -82 65 -82 34 0 48 16 20 23 -26 7
-36 33 -20 52 15 18 40 19 75 3 30 -13 32 -33 6 -50 -18 -11 -18 -12 4 -30 32
-25 85 -24 92 2 4 15 11 19 24 15 10 -3 37 0 60 7 38 11 43 10 53 -7 19 -33
45 -55 65 -55 15 0 20 10 26 50 5 39 11 50 25 50 11 0 22 -5 25 -10 4 -6 33
-9 68 -8 61 3 62 3 65 -25 2 -20 -5 -38 -27 -63 -17 -19 -31 -41 -31 -48 0 -7
-28 -37 -61 -66 -57 -50 -67 -54 -120 -58 l-59 -4 0 -38 c0 -49 -21 -68 -51
-46 -17 11 -27 12 -41 5 -16 -9 -25 -6 -43 11 -32 30 -55 20 -55 -24 0 -29 4
-37 24 -42 13 -3 33 -1 43 5 30 16 63 3 63 -25 0 -30 29 -32 53 -4 12 15 24
19 42 14 20 -5 37 5 91 52 37 33 84 76 104 97 39 39 89 53 75 20 -4 -10 -10
-29 -14 -43 -9 -35 -48 -107 -63 -117 -7 -4 -29 -13 -48 -18 -33 -10 -65 -49
-54 -67 3 -4 16 -8 28 -8 13 0 30 -7 37 -16 12 -14 9 -20 -16 -41 -23 -18 -38
-22 -62 -18 -45 8 -48 -8 -13 -56 16 -23 30 -47 30 -54 0 -7 9 -20 20 -30 11
-10 20 -23 20 -30 0 -7 -9 -20 -20 -30 -11 -10 -20 -26 -20 -35 0 -31 -29 -44
-90 -42 -62 3 -80 -8 -59 -34 14 -16 38 -15 114 5 22 6 56 11 76 11 20 0 50 7
65 15 16 8 44 15 61 15 46 0 109 28 128 56 22 34 86 34 109 -1 25 -38 20 -53
-24 -65 -22 -6 -40 -13 -40 -16 0 -3 9 -17 20 -31 11 -14 20 -34 20 -44 0 -27
-35 -43 -61 -28 -32 16 -44 -9 -19 -36 39 -41 18 -75 -33 -56 -19 8 -26 18
-29 43 -2 25 -8 33 -23 33 -16 0 -21 -8 -23 -37 -3 -41 -15 -47 -44 -21 -24
21 -28 16 -35 -50 -6 -55 -5 -56 38 -96 57 -55 71 -49 63 25 -7 54 -6 57 12
49 10 -5 49 -11 86 -14 77 -7 104 -24 74 -47 -11 -8 -37 -14 -59 -14 -38 0
-39 -1 -34 -27 9 -46 -12 -108 -48 -143 -31 -30 -34 -31 -43 -13 -6 10 -13 35
-17 56 -4 20 -11 37 -16 37 -9 0 -12 -23 -13 -122 -1 -70 -11 -82 -53 -66 -44
17 -67 -3 -58 -50 6 -31 2 -38 -36 -73 -35 -32 -40 -41 -29 -54 10 -12 10 -18
0 -30 -23 -27 3 -39 82 -37 90 2 167 20 191 44 21 22 21 22 57 3 23 -12 34
-13 55 -3 14 6 25 15 25 20 0 8 59 48 72 48 10 0 48 -75 48 -95 0 -8 -7 -15
-15 -15 -9 0 -30 -7 -46 -16 -29 -15 -30 -16 -14 -34 30 -34 12 -52 -43 -44
-57 7 -92 -7 -92 -37 0 -12 -12 -27 -29 -37 -17 -9 -35 -27 -40 -39 -7 -15
-19 -23 -36 -23 -18 0 -28 -7 -35 -24 -14 -37 -26 -39 -53 -10 l-25 27 -21
-41 c-12 -23 -21 -56 -21 -75 0 -65 -21 -104 -54 -98 -23 4 -49 -14 -62 -44
-7 -19 -19 -37 -25 -41 -19 -11 -51 35 -44 63 4 19 0 25 -21 34 -40 14 -49 -1
-34 -53 7 -24 14 -61 17 -83 3 -22 11 -43 17 -47 17 -12 269 -9 304 3 17 6 34
19 37 30 4 10 10 19 13 19 4 0 16 15 25 33 22 39 88 87 122 87 21 0 85 53 85
71 0 4 16 14 35 23 26 13 40 14 55 6 17 -9 19 -17 13 -53 -12 -76 -19 -92 -54
-115 -30 -21 -34 -28 -31 -62 5 -57 -5 -78 -49 -100 -29 -15 -39 -27 -39 -44
0 -28 -24 -56 -47 -56 -8 0 -23 10 -33 22 -15 18 -21 20 -31 11 -10 -10 -10
-21 1 -52 17 -53 2 -74 -46 -65 -21 4 -40 2 -48 -5 -17 -14 -94 -38 -208 -65
-16 -4 -28 -13 -28 -22 0 -13 7 -15 36 -9 22 4 48 1 66 -6 24 -10 37 -10 64 0
30 11 37 10 60 -8 48 -38 84 -25 98 32 6 24 11 27 42 25 36 -2 58 15 49 39 -7
20 25 44 54 41 22 -3 26 -8 27 -38 1 -19 6 -46 11 -60 6 -14 8 -30 6 -36 -2
-6 6 -19 17 -29 29 -26 25 -42 -14 -56 -32 -12 -33 -13 -32 -68 l1 -56 -63 3
c-53 2 -71 -1 -107 -23 -24 -14 -54 -25 -68 -25 -13 0 -32 -9 -42 -20 -10 -11
-35 -25 -55 -30 -36 -10 -49 -28 -50 -67 0 -7 18 -24 40 -38 22 -14 40 -31 40
-38 1 -6 20 -29 44 -49 l44 -38 105 7 c91 5 109 9 133 29 32 28 104 33 124 9
18 -21 -33 -79 -84 -97 -32 -10 -42 -20 -48 -44 -10 -38 -28 -54 -71 -63 -22
-5 -39 -18 -56 -44 -25 -38 -58 -48 -91 -27 -10 6 -20 4 -33 -8 -19 -17 -23
-16 -121 36 -28 14 -30 14 -48 -7 -24 -31 -10 -55 47 -82 24 -11 47 -29 50
-40 4 -11 20 -26 36 -34 28 -15 36 -31 41 -90 5 -48 23 -30 25 25 1 27 4 54 8
60 10 17 35 11 35 -8 0 -10 5 -23 12 -30 17 -17 73 -15 88 3 7 8 38 22 69 32
31 9 65 24 76 34 45 38 83 50 124 39 50 -13 66 -32 51 -59 -9 -18 -20 -21 -72
-21 -44 0 -67 -5 -81 -17 -10 -10 -41 -20 -69 -23 -37 -4 -54 -10 -62 -25 -5
-11 -18 -32 -28 -47 l-19 -28 33 0 c18 0 51 7 73 14 28 10 45 11 59 4 23 -12
10 -28 -37 -44 l-32 -11 30 -13 c17 -7 37 -16 45 -21 8 -5 30 -16 47 -24 36
-17 58 -45 68 -87 8 -32 12 -33 39 -13 28 21 41 19 81 -16 40 -35 45 -67 15
-94 -23 -21 -31 -16 -45 27 -7 19 -22 35 -43 44 -37 15 -40 8 -11 -40 11 -20
19 -47 17 -63 -3 -25 -7 -28 -43 -28 -40 0 -40 0 -43 -43 -3 -34 -7 -42 -22
-42 -43 0 -46 56 -6 90 20 16 20 41 1 66 -15 18 -16 18 -43 -13 -34 -39 -49
-41 -63 -9 -21 45 -66 69 -130 67 -49 -1 -59 2 -64 18 -13 43 -75 60 -89 25
-10 -25 -30 -15 -108 55 -70 63 -82 70 -132 76 -67 9 -91 2 -80 -23 4 -9 7
-28 6 -42 -1 -14 8 -47 19 -73 11 -27 18 -56 15 -64 -11 -26 11 -50 41 -46 39
6 64 -17 72 -63 6 -35 9 -39 35 -37 16 1 37 -2 47 -8 20 -10 26 -44 9 -54 -13
-8 -13 -35 1 -35 6 0 23 -9 39 -20 21 -15 34 -18 58 -11 25 7 35 5 53 -10 12
-10 31 -21 43 -25 21 -7 41 -29 61 -69 8 -15 21 -20 51 -20 23 0 49 -7 59 -15
9 -8 45 -26 79 -40 46 -19 62 -31 64 -48 4 -28 33 -29 57 -2 29 32 67 26 89
-15 16 -29 17 -37 5 -51 -11 -14 -26 -16 -87 -10 -69 6 -74 5 -97 -20 -16 -17
-37 -26 -64 -29 -22 -2 -51 -11 -63 -19 -12 -9 -35 -16 -51 -16 -15 0 -38 -7
-52 -16 -19 -12 -27 -13 -43 -3 -16 10 -26 10 -47 1 -23 -11 -32 -10 -52 3
-14 9 -27 14 -30 11 -3 -3 -27 10 -53 28 l-48 34 -5 -43 c-4 -23 -2 -57 3 -74
7 -26 6 -33 -7 -38 -9 -4 -19 -1 -21 5 -2 7 -9 18 -16 25 -30 30 -46 64 -46
95 0 47 -37 82 -89 82 -22 0 -43 5 -46 10 -10 17 -44 11 -54 -9 -21 -39 -81
-37 -81 2 0 32 -27 67 -52 67 -31 0 -58 -29 -58 -60 0 -15 -6 -33 -14 -39 -12
-10 -18 -8 -29 11 -8 13 -17 35 -21 49 -3 14 -24 47 -47 73 -34 38 -47 46 -65
42 -18 -5 -29 1 -50 29 -14 19 -31 32 -36 29 -17 -11 -4 -109 19 -138 12 -14
19 -35 16 -45 -6 -24 24 -84 38 -75 7 4 9 26 5 58 -5 37 -3 56 8 71 20 27 36
10 43 -46 3 -24 14 -55 24 -69 9 -14 21 -41 26 -60 7 -26 15 -36 34 -38 34 -5
161 -51 179 -66 33 -27 163 -76 201 -76 15 0 50 -10 78 -22 41 -16 59 -19 79
-12 23 9 31 6 54 -18 31 -33 65 -36 101 -8 31 25 29 25 74 -5 l37 -26 11 43
c8 36 14 43 38 46 26 3 27 2 27 -48 0 -57 -22 -100 -51 -100 -10 0 -20 -4 -23
-9 -5 -8 -80 -17 -211 -26 -27 -2 -75 -6 -105 -10 -30 -3 -118 -7 -196 -8
-102 -2 -146 -6 -158 -16 -27 -23 -19 -47 22 -66 20 -9 54 -26 75 -36 21 -10
48 -19 61 -19 12 0 31 -9 41 -20 11 -12 31 -20 48 -20 17 0 57 -5 90 -12 55
-12 61 -11 99 11 29 16 43 20 51 12 8 -8 17 -5 34 11 19 18 28 20 50 12 41
-14 50 -37 30 -78 -16 -34 -19 -36 -67 -36 -63 0 -93 -14 -85 -40 8 -25 -30
-64 -53 -55 -63 24 -128 9 -116 -27 4 -15 0 -18 -27 -18 -17 0 -48 5 -68 11
-30 9 -44 8 -75 -5 -35 -15 -40 -14 -76 4 -22 11 -59 20 -83 20 -27 0 -49 6
-57 15 -7 8 -16 15 -21 15 -14 0 -11 -21 4 -34 8 -6 21 -32 31 -57 14 -40 23
-49 59 -63 23 -8 52 -13 63 -10 13 3 33 -2 48 -11 17 -11 58 -20 119 -24 51
-4 99 -11 106 -15 21 -14 -7 -34 -57 -42 -73 -10 -89 -20 -101 -57 -16 -47
-54 -63 -118 -49 -26 6 -89 13 -139 16 -82 4 -99 8 -165 43 -41 21 -92 46
-114 55 -22 10 -59 36 -82 58 -23 22 -47 40 -53 40 -54 0 -24 -298 37 -371 7
-8 13 -39 13 -67 0 -59 -15 -69 -77 -53 -105 28 -246 21 -296 -14 -20 -14 -79
-4 -104 17 -24 19 -13 148 12 148 13 0 23 54 47 245 11 85 10 92 -11 132 -19
38 -21 54 -16 135 3 51 9 94 15 96 12 4 14 82 2 82 -17 0 -57 -53 -67 -87 -12
-42 -26 -50 -49 -28 -23 24 -20 58 9 85 14 13 25 31 25 39 0 9 11 34 25 56 39
64 30 150 -11 103 -45 -52 -72 -95 -84 -131 -9 -30 -16 -38 -33 -35 -21 3 -87
-52 -87 -72 0 -6 -16 -10 -35 -10 -19 0 -35 5 -35 10 0 18 -20 10 -53 -21 -53
-52 -127 -68 -127 -29 0 13 7 20 20 20 16 0 20 7 20 30 0 33 27 65 66 80 20 8
23 14 18 34 -4 18 0 30 15 43 12 9 21 25 21 35 0 25 27 47 51 41 18 -5 20 -3
14 16 -5 17 -2 21 14 21 17 0 21 6 21 30 0 35 26 53 73 48 27 -2 33 -8 37 -33
6 -35 35 -46 43 -16 5 22 39 41 44 25 10 -29 22 -39 34 -27 10 10 9 16 -4 31
-24 26 -21 67 5 84 19 13 21 19 11 40 -8 17 -8 37 -1 69 6 24 12 70 15 102 12
147 -103 140 -157 -10 -22 -63 -31 -71 -112 -102 -14 -5 -43 -35 -64 -66 -20
-31 -49 -61 -63 -66 -35 -14 -81 -59 -81 -80 0 -36 -37 -49 -122 -42 -50 4
-105 1 -150 -7 -67 -13 -72 -13 -82 4 -6 11 -23 32 -38 48 -33 34 -35 59 -8
76 11 7 20 18 20 26 0 7 10 36 21 64 12 28 19 59 15 67 -5 15 -9 14 -32 -4
-15 -12 -33 -21 -41 -21 -7 0 -16 -13 -19 -30 -11 -52 -85 -79 -129 -47 -23
17 -12 37 20 37 26 0 45 25 45 60 0 25 81 110 104 110 10 0 16 9 16 24 0 26
18 37 48 29 16 -4 26 5 47 41 31 54 50 115 38 127 -12 12 -28 -1 -47 -39 -9
-18 -27 -37 -39 -43 -44 -19 -93 -52 -127 -85 -27 -26 -44 -34 -72 -34 -31 0
-37 -4 -47 -30 -12 -35 -18 -36 -65 -12 -41 20 -44 27 -16 42 21 11 27 44 10
55 -5 3 -10 19 -10 34 0 15 -5 32 -11 38 -9 9 -9 20 0 44 15 45 14 102 -4 125
-13 16 -16 17 -24 4 -33 -53 -35 -53 -64 -26 -16 14 -34 26 -41 26 -31 0 -119
-33 -134 -51 -24 -27 -43 -24 -80 15 l-32 34 26 21 c15 12 32 22 38 23 6 1
-16 4 -48 7 -42 4 -62 11 -70 24 -12 21 -10 24 82 83 53 34 72 36 72 8 0 -8 5
-14 10 -14 6 0 10 9 10 20 0 12 12 32 27 46 22 21 26 32 25 76 -1 36 -7 57
-21 72 -12 12 -21 31 -21 41 0 10 -10 32 -23 49 -13 17 -26 39 -30 49 -3 9
-15 17 -27 17 -11 0 -29 14 -41 33 -12 17 -41 41 -63 53 -54 27 -56 55 -4 68
53 13 163 -9 278 -56 94 -39 95 -39 109 -19 14 22 46 27 71 11 12 -8 8 -16
-23 -48 -32 -32 -36 -41 -24 -51 8 -6 21 -9 29 -6 17 7 82 -52 92 -83 8 -24
26 -28 44 -10 19 19 14 38 -13 48 -33 13 -32 23 6 37 27 10 30 16 27 45 -3 28
-8 34 -33 38 -39 7 -40 34 -1 38 47 6 83 52 83 106 0 58 -6 60 -156 57 l-114
-1 -39 -36 c-43 -39 -61 -40 -66 -3 -5 29 -21 51 -33 43 -5 -3 -45 -2 -90 2
-78 6 -80 7 -86 35 -6 31 -24 37 -42 15 -14 -17 -45 -26 -58 -17 -6 3 -16 23
-22 44 -10 28 -18 37 -36 37 -26 0 -36 11 -55 60 -7 19 -31 62 -52 94 -33 50
-39 68 -41 119 -2 58 -1 60 26 68 16 4 35 5 43 2 21 -8 74 -94 74 -120 0 -28
58 -68 111 -77 20 -4 44 -15 53 -25 14 -15 30 -18 114 -15 53 1 109 7 124 12
21 9 29 7 42 -7 22 -24 20 -36 -10 -60 -24 -19 -25 -22 -10 -42 11 -16 12 -26
5 -35 -6 -7 -8 -18 -5 -23 10 -16 35 -1 38 22 2 15 11 23 29 25 15 2 35 12 45
23 21 23 37 24 68 4 20 -14 27 -14 58 -1 34 15 35 17 41 82 7 76 5 84 -28 84
-18 0 -26 7 -31 26 -4 15 -12 23 -19 20 -7 -2 -32 1 -56 8 -52 15 -68 47 -68
139 -1 41 -5 57 -15 57 -30 0 -41 -32 -41 -118 l0 -85 -47 -2 c-58 -3 -72 11
-70 69 2 39 -1 44 -31 61 -46 24 -72 10 -80 -45 -11 -84 -57 -87 -57 -3 0 43
-1 44 -52 68 -29 14 -65 25 -79 25 -14 0 -40 11 -58 24 -23 17 -53 27 -97 31
-72 8 -98 27 -63 45 18 10 21 18 16 52 -3 22 -13 48 -22 58 -19 21 -14 50 9
50 8 0 28 -11 45 -25 33 -29 111 -58 216 -82 39 -8 79 -22 90 -29 35 -25 88
-18 120 15 15 17 37 31 49 33 30 4 36 57 7 65 -19 5 -19 6 6 27 30 26 24 46
-13 46 -14 0 -38 7 -54 15 -16 8 -68 19 -115 24 -83 8 -115 21 -115 46 0 6
-13 32 -30 56 -24 36 -28 51 -23 81 4 27 0 45 -12 64 -26 40 -14 54 48 54 40
0 63 -6 89 -23 19 -13 48 -27 64 -31 16 -4 40 -18 54 -31 19 -18 39 -24 85
-27 l59 -3 18 38 c22 46 19 53 -27 61 -40 8 -54 28 -34 52 11 13 29 15 115 9
87 -6 107 -5 136 10 18 10 49 20 68 24 27 5 39 14 52 41 22 45 23 64 2 56 -9
-4 -28 1 -41 10 -23 15 -26 14 -49 -7 -13 -12 -26 -20 -28 -18 -3 2 -14 25
-25 51 -15 35 -30 52 -59 67 -38 20 -54 43 -68 105 -4 17 -19 36 -39 47 -17
11 -37 30 -43 44 -15 33 -26 32 -58 -10 -15 -20 -32 -34 -38 -32 -6 2 -16 23
-22 48 -8 33 -16 45 -32 47 -28 4 -29 35 -2 85 24 45 25 47 2 47 -10 0 -36
-20 -58 -45 -41 -46 -68 -56 -78 -29 -10 25 2 51 25 57 15 4 20 12 17 29 -4
30 -30 30 -43 0 -11 -26 -42 -26 -58 -1 -8 13 -4 24 17 50 21 25 27 40 23 63
-3 17 -7 40 -9 51 -5 32 60 25 87 -9 12 -14 28 -26 37 -26 9 0 37 -20 62 -45
32 -30 55 -45 73 -45 15 0 34 -7 42 -15 9 -8 35 -17 57 -21 40 -6 42 -5 53 26
15 45 14 61 -4 54 -18 -7 -18 -6 -4 34 11 32 -3 112 -20 112 -15 0 -29 55 -24
86 3 16 12 36 20 45 8 9 15 29 16 45 2 26 -2 29 -33 34 -29 4 -36 10 -40 34
-6 34 -22 43 -40 21 -18 -21 -27 -19 -34 10 -4 15 -16 27 -31 31 -41 10 -55
-1 -55 -44 0 -40 -20 -69 -40 -57 -5 3 -10 17 -10 29 0 13 -12 36 -26 51 -22
23 -24 33 -19 67 9 50 -9 94 -41 102 -26 7 -47 46 -38 71 10 26 53 17 84 -17
28 -31 29 -31 55 -14 22 15 26 23 21 47 -3 16 -9 42 -12 58 -12 60 38 158 61
121 4 -6 24 -22 46 -35 25 -16 48 -43 65 -78 15 -28 35 -63 45 -76 11 -13 19
-32 19 -42 0 -26 16 -32 35 -12 12 12 15 26 11 52 -8 48 -8 52 0 83 4 19 0 32
-15 47 -17 17 -20 29 -15 61 5 32 3 45 -12 61 -11 12 -21 42 -24 72 -4 43 -9
53 -26 55 -12 2 -29 -4 -38 -14 -14 -14 -21 -14 -47 -4 -24 10 -29 18 -27 39
2 17 10 27 23 29 11 2 24 7 28 11 11 11 -37 117 -57 124 -16 6 -21 42 -10 71
10 25 43 19 81 -14 23 -20 44 -30 67 -30 21 0 49 -12 82 -35 31 -22 55 -33 67
-29 10 3 29 -1 42 -10 55 -36 92 -10 81 57 -4 23 -7 59 -6 80 1 51 -6 60 -35
41 -30 -19 -71 -3 -60 24 56 133 60 198 10 142 -25 -27 -53 -25 -67 5 -10 22
-8 30 10 55 28 37 28 44 -3 64 -22 15 -24 22 -23 88 1 40 -2 96 -7 123 -6 42
-4 53 10 65 20 16 44 5 61 -29 6 -12 22 -34 36 -49 13 -15 30 -40 38 -56 8
-15 24 -32 36 -36 12 -5 31 -25 42 -44 13 -22 29 -36 41 -36 23 0 36 -16 21
-25 -17 -10 -11 -19 19 -33 24 -11 38 -11 70 -1 30 9 44 9 54 1 14 -12 170 -8
189 4 5 3 2 14 -8 25 -16 18 -16 43 1 94 4 14 -3 32 -22 57 -49 65 -113 75
-121 19 -4 -27 -49 -58 -63 -44 -12 12 -15 60 -5 94 12 43 -15 62 -78 54 l-52
-7 -38 47 -38 46 22 24 c18 20 21 31 17 72 -3 26 -8 61 -13 77 -9 37 14 56 67
56 51 0 67 -8 85 -41 13 -26 20 -29 63 -29 27 0 66 -7 86 -16 48 -20 74 -10
129 52 22 24 44 44 50 44 6 0 19 -15 29 -32 l19 -33 26 32 c15 17 36 33 47 35
11 2 26 17 34 33 8 17 17 32 20 35 10 8 7 210 -3 210 -5 1 -15 -16 -22 -37
-12 -32 -12 -44 1 -76 17 -42 16 -44 -33 -104 -29 -34 -39 -40 -56 -33 -12 4
-40 14 -64 21 -23 7 -46 17 -50 23 -7 9 -35 94 -48 143 -5 19 -66 53 -94 53
-30 0 -50 17 -50 42 0 22 23 23 54 3 20 -13 28 -13 67 -1 24 8 55 14 69 13 20
-2 26 3 28 23 2 14 7 36 13 51 8 20 3 44 -21 115 -16 49 -39 102 -51 117 -15
21 -19 36 -14 58 6 26 3 31 -24 40 -40 14 -42 46 -4 55 35 9 57 -7 61 -44 2
-18 10 -33 20 -37 9 -3 39 -32 66 -65 55 -66 43 -62 199 -65 l87 -2 0 33 c0
39 -42 94 -72 94 -24 0 -77 42 -100 81 -14 23 -25 29 -52 29 -37 0 -49 15 -34
43 15 28 2 47 -32 47 -33 0 -40 19 -15 40 20 17 19 32 -5 63 -21 26 -26 63
-11 86 7 11 15 11 47 0 45 -15 66 -36 59 -59 -3 -9 4 -25 15 -35 14 -13 20
-31 20 -62 0 -50 6 -52 39 -17 33 34 62 28 73 -14 11 -43 29 -49 78 -23 53 28
78 27 110 -4 l27 -26 44 37 c24 20 44 42 44 48 0 20 -33 18 -45 -3 -19 -36
-57 -26 -109 27 -78 78 -131 122 -146 122 -8 0 -35 19 -60 43 -45 43 -48 51
-72 168 -3 15 0 36 6 47 10 19 12 19 45 3 24 -11 39 -27 46 -48 9 -27 18 -33
48 -38 20 -3 46 -11 57 -18 73 -41 151 -77 169 -77 43 0 66 12 66 34 0 11 7
30 15 40 19 25 19 31 -1 51 -15 14 -18 14 -40 0 -30 -20 -113 -20 -142 1 -12
8 -22 24 -22 34 0 10 -9 25 -19 32 -11 8 -25 26 -32 41 -7 15 -20 27 -30 27
-28 0 -49 28 -49 65 0 79 21 84 79 15 23 -27 49 -50 57 -50 9 0 31 12 50 26
l34 26 -23 30 c-12 16 -32 41 -44 54 -31 33 -30 62 2 70 24 6 45 31 45 53 0 6
-16 17 -35 25 -19 8 -35 22 -35 30 0 34 72 30 122 -7 36 -27 49 -15 42 37 -5
31 -1 53 14 82 10 21 22 68 26 104 4 35 10 68 12 72 10 16 33 7 58 -23z"/>
<path d="M3032 7388 c-19 -19 -14 -34 13 -46 23 -11 25 -17 23 -64 l-3 -53 60
-6 c33 -4 77 -4 98 -1 l37 5 0 54 c0 87 -44 141 -80 98 -11 -14 -15 -14 -32 2
-16 14 -23 15 -39 5 -15 -10 -24 -9 -42 3 -18 11 -26 12 -35 3z"/>
<path d="M4727 6049 c-11 -7 -42 -8 -77 -4 -51 6 -60 4 -68 -12 -13 -24 -4
-38 30 -46 33 -9 46 -43 24 -65 -14 -14 -20 -14 -63 -1 -33 10 -49 21 -51 34
-6 31 -16 36 -37 21 -19 -14 -19 -15 -2 -33 32 -37 12 -75 -40 -77 -21 -1 -28
-8 -35 -31 -10 -39 -1 -65 21 -65 10 0 37 -7 61 -15 37 -13 45 -13 70 0 19 10
30 24 32 41 4 39 31 53 66 34 15 -9 28 -26 30 -38 2 -13 10 -22 21 -22 13 0
20 14 30 63 10 54 10 67 -4 101 -17 41 -14 66 9 66 19 0 27 25 13 44 -9 11
-16 13 -30 5z"/>
<path d="M2551 5741 l-25 -19 27 -41 c15 -22 27 -48 27 -56 0 -27 61 -44 143
-42 42 1 80 7 85 12 9 9 1 109 -9 120 -3 2 -22 2 -42 -2 -26 -4 -41 -13 -50
-31 -19 -40 -42 -49 -67 -27 -16 14 -19 26 -14 47 11 53 -29 74 -75 39z"/>
<path d="M4114 5537 c4 -29 12 -56 17 -62 6 -5 46 -10 90 -10 79 0 79 0 99
-33 22 -36 40 -42 40 -12 0 32 22 70 41 70 10 0 34 -9 53 -21 28 -16 39 -18
55 -9 32 16 25 29 -25 51 -42 17 -52 18 -105 7 -52 -10 -62 -10 -93 7 -33 18
-36 18 -54 2 -27 -25 -40 -21 -63 17 -11 19 -29 36 -41 39 -19 5 -20 3 -14
-46z"/>
<path d="M2519 4844 c-16 -20 -63 -44 -85 -44 -10 0 -25 7 -35 16 -11 10 -25
13 -38 9 -24 -7 -26 -22 -6 -49 8 -11 15 -35 15 -54 0 -19 4 -31 10 -27 6 3
10 15 10 25 0 12 9 22 23 25 12 3 41 9 64 14 40 8 133 73 133 92 0 16 -77 10
-91 -7z"/>
<path d="M2897 4404 c-15 -31 -21 -35 -45 -30 -75 17 -81 16 -97 -6 -8 -13
-30 -28 -47 -34 -48 -16 -45 -30 14 -59 60 -30 97 -29 180 7 45 19 50 19 67 4
22 -20 37 -20 45 0 9 24 -3 36 -30 30 -21 -6 -25 -1 -40 51 -23 76 -27 80 -47
37z"/>
<path d="M3819 4403 c-8 -20 -8 -43 0 -84 6 -30 11 -71 11 -90 0 -19 9 -66 19
-104 11 -39 19 -77 19 -85 -2 -37 3 -50 21 -50 10 0 28 8 40 18 20 16 20 19 5
62 -8 25 -20 51 -26 58 -6 7 -10 34 -9 59 1 35 -4 52 -20 69 -16 17 -19 30
-14 52 7 33 -12 122 -26 122 -5 0 -14 -12 -20 -27z"/>
<path d="M4012 3732 c-39 -43 -36 -58 24 -107 31 -26 56 -38 81 -39 24 -1 40
-8 47 -20 6 -11 18 -27 27 -36 9 -10 25 -31 35 -49 21 -35 31 -38 50 -13 13
16 16 15 39 -13 21 -25 25 -27 31 -12 3 10 3 30 -1 45 -4 15 -9 47 -12 72 -4
40 -3 43 9 26 18 -23 52 -17 56 9 4 27 -52 68 -90 68 -15 0 -39 -9 -51 -21
-29 -27 -48 -28 -70 -2 -9 11 -27 20 -40 20 -27 0 -47 17 -47 40 0 9 -12 28
-27 42 l-28 26 -33 -36z"/>
<path d="M2276 3324 c-8 -21 5 -215 16 -236 7 -14 22 -18 72 -18 52 0 66 4 84
23 13 14 22 36 22 55 0 36 -17 44 -22 10 -2 -16 -11 -24 -30 -26 -52 -6 -79
78 -37 117 23 21 18 41 -10 41 -10 0 -26 11 -35 25 -19 28 -51 33 -60 9z"/>
<path d="M3537 3133 c-4 -3 -7 -16 -7 -28 0 -12 -13 -35 -28 -52 -31 -32 -51
-108 -32 -127 5 -5 10 -17 10 -26 0 -9 6 -25 14 -35 13 -18 14 -18 44 6 22 17
31 33 31 55 1 17 8 37 16 44 19 16 20 74 1 89 -8 7 -17 27 -20 46 -7 34 -15
42 -29 28z"/>
<path d="M2865 3078 c-3 -8 2 -31 10 -52 9 -22 14 -49 11 -62 -10 -37 -61 -33
-103 8 l-33 32 1 -55 c0 -30 -3 -75 -6 -101 -4 -26 -2 -54 3 -64 9 -16 13 -13
27 23 22 55 60 67 91 28 25 -32 39 -20 29 24 -4 21 -1 33 10 43 38 31 53 46
57 59 4 12 8 12 20 1 11 -9 18 -10 23 -2 10 17 -4 47 -25 53 -11 3 -20 12 -20
21 0 9 -17 23 -37 33 -21 9 -41 19 -45 21 -5 2 -10 -3 -13 -10z"/>
<path d="M2527 2863 c-21 -90 -20 -80 -11 -160 7 -61 28 -102 38 -72 3 8 10
31 16 52 12 39 19 44 37 26 34 -34 84 35 76 104 -5 38 -23 52 -23 18 0 -21
-46 -71 -66 -71 -16 0 -19 52 -4 80 7 13 5 24 -10 43 -11 14 -20 32 -20 41 0
9 -4 16 -8 16 -4 0 -16 -35 -25 -77z"/>
<path d="M3259 2833 c-5 -15 -7 -50 -4 -78 5 -39 3 -55 -8 -66 -17 -17 -33
-79 -20 -79 24 2 78 38 81 55 7 37 21 46 47 29 22 -14 24 -14 35 5 14 26 -1
57 -32 67 -29 9 -57 44 -58 72 0 31 -28 28 -41 -5z"/>
</g>
</svg>
