<?xml version="1.0" standalone="no"?>
<!DOCTYPE svg PUBLIC "-//W3C//DTD SVG 20010904//EN"
 "http://www.w3.org/TR/2001/REC-SVG-20010904/DTD/svg10.dtd">
<svg version="1.0" xmlns="http://www.w3.org/2000/svg"
 width="385.000000pt" height="600.000000pt" viewBox="0 0 385.000000 600.000000"
 preserveAspectRatio="xMidYMid meet">
<metadata>
Created by potrace 1.13, written by Peter Selinger 2001-2015
</metadata>
<g transform="translate(0.000000,600.000000) scale(0.100000,-0.100000)"
fill="#000000" stroke="none">
<path d="M0 3000 l0 -3000 1925 0 1925 0 0 3000 0 3000 -1925 0 -1925 0 0
-3000z m2110 2865 c0 -28 3 -33 16 -28 14 5 15 3 5 -15 -6 -11 -11 -38 -11
-59 l0 -38 20 25 c11 14 20 32 20 40 0 10 3 11 11 3 13 -13 -1 -44 -34 -81
-18 -19 -19 -25 -7 -32 11 -7 12 -11 0 -24 -7 -9 -9 -20 -5 -24 4 -4 10 -1 12
6 3 6 10 12 17 12 7 0 25 13 41 30 15 16 32 27 36 24 5 -2 16 10 25 28 10 18
19 28 21 21 2 -6 -3 -25 -12 -42 -14 -28 -14 -31 0 -31 9 0 15 -9 16 -22 0
-20 2 -19 11 7 6 17 17 38 23 48 7 10 11 27 8 38 -3 10 0 19 6 19 6 0 11 -12
12 -27 0 -16 4 -37 9 -48 7 -18 8 -19 15 -2 11 26 22 21 35 -18 17 -50 30 -34
25 30 -2 30 0 55 4 55 13 0 31 -74 21 -84 -6 -6 -10 -21 -10 -35 0 -24 1 -24
14 -5 8 10 17 16 20 13 3 -3 -6 -22 -21 -42 -24 -34 -25 -39 -12 -64 12 -23
14 -24 17 -7 9 57 62 155 62 116 0 -15 -52 -157 -63 -170 -7 -9 -6 -11 7 -6 9
3 21 15 27 25 5 11 14 17 19 14 18 -11 -4 -37 -49 -58 -38 -19 -48 -29 -63
-71 -17 -43 -17 -48 -2 -42 8 3 19 6 24 6 4 0 11 11 14 25 4 14 11 25 16 25 5
0 7 -8 3 -17 -5 -17 -5 -17 12 -2 13 13 15 21 6 37 -16 30 -13 37 7 19 18 -16
20 -15 40 27 12 24 22 48 22 55 0 6 5 11 11 11 6 0 19 10 29 23 10 12 22 19
26 14 4 -4 -2 -17 -13 -30 -11 -12 -26 -33 -33 -47 -12 -23 -12 -24 3 -11 30
24 18 0 -20 -42 -36 -41 -33 -58 6 -37 17 8 21 8 21 -3 0 -8 -10 -19 -22 -25
-13 -6 -17 -11 -10 -11 7 -1 10 -5 7 -11 -3 -5 -3 -15 1 -21 4 -8 19 3 40 27
18 22 33 33 34 25 0 -8 -12 -27 -26 -42 -20 -21 -24 -33 -19 -50 l8 -24 10 25
c6 16 11 20 14 12 3 -8 -3 -31 -12 -52 -15 -33 -16 -46 -6 -87 7 -27 21 -62
31 -78 l19 -29 16 37 c15 37 49 52 43 20 -1 -10 0 -23 4 -28 4 -6 -11 -46 -32
-90 -21 -44 -36 -82 -34 -84 2 -2 12 3 21 11 10 9 33 23 51 33 28 14 33 20 28
41 -7 26 8 33 21 9 7 -12 14 -12 48 0 22 8 51 14 64 15 21 0 19 4 -20 32 -60
43 -78 68 -78 103 0 25 1 27 10 12 6 -9 14 -15 20 -12 5 4 9 0 9 -9 0 -8 6
-17 13 -20 9 -5 9 -7 0 -12 -8 -4 -6 -11 8 -25 11 -11 24 -17 29 -14 5 3 18
-3 30 -15 11 -11 28 -20 38 -20 13 1 9 8 -15 29 -25 21 -30 30 -21 39 9 9 7
12 -9 12 -12 0 -25 5 -28 10 -3 6 1 10 9 10 20 0 20 4 2 38 -13 24 -26 37 -62
60 -15 9 -29 72 -15 72 5 0 13 -9 16 -20 4 -11 11 -18 16 -15 5 4 9 -3 9 -14
0 -11 4 -23 10 -26 9 -6 7 21 -9 90 -4 17 -4 48 -1 70 l6 40 9 -50 c5 -27 8
-57 7 -65 -4 -40 11 -43 29 -5 l18 40 1 -32 c0 -26 4 -33 20 -33 30 0 25 -33
-11 -68 l-31 -30 23 -20 c13 -13 19 -27 15 -38 -5 -12 -2 -15 10 -10 13 5 15
1 12 -19 -3 -14 -1 -25 3 -25 5 0 9 -6 9 -14 0 -7 7 -19 16 -26 8 -8 14 -9 13
-4 -4 20 2 35 11 29 5 -3 7 -18 4 -33 -4 -20 1 -33 19 -50 l24 -23 2 57 c1 38
-4 65 -15 82 -12 18 -15 38 -11 74 6 43 1 59 -34 132 -41 86 -62 165 -41 152
7 -4 12 -19 13 -34 0 -15 3 -21 6 -14 10 25 25 12 19 -18 -4 -23 1 -41 21 -71
30 -46 43 -38 43 26 0 29 3 36 10 25 5 -8 7 -39 4 -70 l-5 -55 18 28 c15 23
33 36 33 24 0 -11 -33 -67 -45 -77 -19 -16 -19 -30 0 -66 l15 -29 0 25 c0 14
11 49 25 78 14 30 25 63 25 74 0 14 5 18 15 14 10 -3 17 3 21 19 3 14 10 25
15 25 18 0 8 -46 -17 -84 -15 -22 -21 -37 -13 -34 8 4 22 9 32 13 10 4 17 3
17 -4 0 -6 5 -11 10 -11 6 0 10 9 10 20 0 11 5 20 10 20 6 0 11 17 12 38 1 36
1 36 5 5 3 -21 10 -33 20 -33 10 0 13 -5 8 -17 -4 -10 -9 -34 -12 -53 -4 -27
-3 -32 6 -24 7 6 15 31 18 55 8 69 11 75 29 57 14 -14 14 -20 0 -62 -20 -57
-20 -57 -1 -50 14 6 21 -11 16 -39 -3 -19 31 -17 59 3 16 12 30 18 30 13 0
-13 -13 -27 -42 -46 -35 -22 -36 -45 -3 -53 28 -7 65 18 65 43 0 7 5 13 10 13
19 0 10 -37 -15 -60 -18 -17 -31 -21 -54 -17 -25 5 -28 4 -24 -13 3 -11 0 -20
-6 -20 -6 0 -11 8 -11 18 -1 27 -23 57 -45 60 -15 2 -24 -8 -37 -40 -10 -23
-16 -43 -13 -46 7 -7 55 27 55 38 0 6 7 10 16 10 13 0 13 -4 -3 -30 -17 -29
-27 -35 -77 -42 -28 -4 -30 -24 -7 -47 15 -15 34 -21 66 -21 38 0 45 3 45 20
0 11 5 20 10 20 6 0 10 -4 10 -10 0 -5 5 -10 10 -10 6 0 10 9 10 19 0 28 17
35 25 11 9 -27 19 -25 44 7 12 14 24 23 28 19 11 -11 -10 -38 -48 -64 -18 -12
-38 -35 -45 -50 -6 -15 -18 -33 -27 -41 -22 -18 -21 -31 1 -31 10 0 23 -5 28
-10 15 -15 39 -3 54 26 7 13 20 24 27 24 11 0 11 -4 2 -21 -7 -13 -7 -19 -1
-15 6 3 14 2 17 -4 4 -6 -10 -18 -34 -27 -23 -9 -41 -22 -41 -28 0 -20 24 -35
48 -28 16 4 22 1 22 -12 0 -12 -5 -15 -17 -11 -16 6 -16 5 0 -8 22 -17 10 -27
-19 -16 -20 8 -42 35 -70 85 -6 10 -22 22 -36 26 -22 6 -41 -4 -110 -53 -45
-33 -90 -63 -98 -66 -58 -23 -140 -111 -140 -151 0 -9 -9 -27 -19 -40 -10 -14
-17 -31 -14 -38 7 -17 23 -17 23 1 0 8 9 24 20 37 19 23 19 23 20 4 0 -12 -6
-27 -12 -33 -10 -10 -6 -10 20 -1 18 6 48 9 67 7 l35 -4 0 48 c0 36 4 48 15
48 11 0 15 -12 15 -50 0 -44 3 -50 20 -50 17 0 19 3 10 19 -7 13 -7 22 0 26 5
3 15 -5 22 -19 16 -35 32 -33 25 4 -4 16 -2 32 3 35 6 3 10 15 10 26 0 10 5
19 10 19 6 0 10 -9 10 -19 0 -11 5 -21 11 -23 8 -3 8 -10 -2 -25 -7 -12 -10
-25 -6 -29 13 -13 34 19 40 60 5 34 2 42 -24 67 -22 21 -26 30 -17 36 8 5 13
28 13 58 0 61 18 67 21 6 1 -24 6 -46 12 -50 6 -3 12 -21 14 -38 l3 -32 25 19
c20 15 23 21 13 31 -15 15 -17 99 -3 99 6 0 10 -15 10 -34 0 -48 21 -62 69
-47 29 8 42 19 50 41 12 35 36 42 26 8 -6 -23 -6 -23 10 -3 9 11 19 32 22 48
3 15 10 27 15 27 6 0 8 -7 4 -15 -5 -13 -2 -13 19 1 22 14 25 14 25 1 0 -8
-10 -22 -22 -31 -13 -9 -17 -14 -10 -11 6 3 12 1 12 -4 0 -6 -6 -11 -13 -11
-8 0 -24 -11 -37 -24 l-23 -25 27 -7 c19 -4 24 -10 17 -17 -7 -7 -16 -6 -29 6
-16 15 -22 14 -79 -6 -62 -23 -107 -53 -98 -68 3 -4 -3 -10 -13 -13 -10 -4
-19 -13 -19 -22 0 -20 45 -10 62 13 9 11 14 13 19 5 4 -7 5 -16 2 -21 -3 -5 6
-12 21 -16 28 -7 43 6 43 38 0 9 5 17 11 17 7 0 9 -12 5 -35 -6 -32 -5 -35 18
-35 33 0 86 56 86 91 0 15 7 29 15 33 8 3 15 13 15 22 0 8 6 14 13 11 6 -2 11
-14 10 -26 -2 -13 2 -21 10 -19 23 5 19 -17 -5 -24 -13 -3 -19 -6 -15 -7 4 -1
-15 -24 -43 -51 -55 -56 -60 -64 -31 -55 12 3 21 0 25 -10 8 -23 -19 -29 -46
-11 -12 9 -36 15 -53 15 -17 -1 -22 -3 -12 -6 26 -7 21 -17 -15 -32 l-33 -13
29 -9 c16 -4 32 -13 36 -19 11 -19 103 12 115 38 5 12 16 22 23 22 7 0 10 -6
7 -12 -4 -7 5 -1 19 15 32 34 45 34 42 1 -2 -20 -13 -32 -42 -46 -42 -20 -64
-38 -48 -38 6 0 16 6 22 12 10 10 14 10 21 0 6 -10 14 -8 34 8 27 21 27 21 27
1 0 -11 -10 -26 -22 -32 -27 -14 -99 -15 -124 -1 -10 5 -30 6 -48 2 -17 -5
-62 -11 -101 -14 -38 -4 -90 -11 -115 -16 -25 -5 -69 -9 -98 -10 l-52 0 17
-27 c33 -52 65 -69 133 -74 35 -3 44 0 46 15 3 21 14 35 14 17 0 -8 5 -7 16 3
17 18 34 21 34 7 0 -5 -7 -14 -15 -21 -22 -18 -13 -22 19 -10 22 8 26 14 20
32 -6 20 -5 21 10 9 14 -12 16 -10 16 15 l0 28 16 -22 c15 -22 15 -25 -3 -44
-18 -21 -18 -21 11 -14 29 7 66 40 66 58 0 4 4 8 9 8 6 0 6 -12 2 -27 -4 -16
-6 -33 -4 -39 4 -13 -48 -22 -148 -28 -31 -2 -65 -9 -77 -15 -52 -28 -128 9
-187 91 -31 43 -37 46 -63 39 -40 -12 -91 -39 -132 -72 -19 -15 -79 -46 -132
-69 l-98 -43 41 -46 c132 -147 130 -145 164 -91 14 22 28 40 31 40 8 0 -6 -62
-17 -75 -5 -7 17 -15 64 -24 39 -7 76 -15 82 -17 6 -3 17 12 24 33 13 34 12
38 -7 54 -12 9 -19 19 -16 22 3 3 7 13 8 23 5 32 26 28 26 -5 0 -16 4 -32 9
-35 13 -8 34 21 27 39 -3 9 0 15 10 15 8 0 19 11 24 25 13 35 24 31 16 -5 -3
-19 -2 -29 4 -25 6 3 10 2 10 -2 0 -5 -8 -13 -19 -20 -19 -12 -67 -73 -57 -73
3 0 22 15 42 33 37 31 37 31 31 7 -4 -14 -7 -31 -7 -38 0 -8 -6 -12 -12 -9
-16 5 -66 -22 -72 -40 -3 -7 0 -13 7 -13 7 0 46 -21 87 -45 82 -50 107 -55
118 -24 5 11 12 20 17 19 6 0 11 7 13 17 5 32 24 73 33 73 12 0 11 -17 -2 -42
-10 -18 -8 -19 13 -13 12 4 26 13 30 19 4 6 8 7 8 2 0 -5 7 -3 15 4 22 18 28
7 12 -23 -8 -15 -17 -24 -20 -21 -3 3 -16 3 -28 -1 -22 -7 -22 -8 7 -20 31
-14 26 -18 -19 -15 -17 1 -36 -6 -46 -17 -17 -18 -16 -20 31 -43 51 -25 83
-21 83 11 0 8 8 14 18 14 10 0 23 8 28 18 6 9 14 17 19 17 20 0 9 -27 -26 -63
l-36 -37 26 0 c18 0 24 4 20 15 -4 10 0 15 11 15 10 0 13 -4 9 -12 -5 -9 -2
-8 10 1 9 8 15 20 12 28 -3 7 1 13 9 13 8 0 15 9 15 20 0 11 5 20 11 20 7 0 8
-11 4 -30 -4 -19 -3 -30 4 -30 6 0 11 -7 11 -15 0 -8 -6 -15 -13 -15 -8 0 -29
-7 -46 -16 -45 -23 -109 -12 -185 30 -34 18 -74 36 -89 40 -15 4 -66 25 -112
47 -79 37 -200 69 -264 69 -15 0 -36 -9 -46 -20 -16 -18 -16 -20 -2 -20 10 0
17 -7 17 -15 0 -10 -10 -15 -32 -15 -18 0 -42 -7 -52 -15 -16 -12 -17 -17 -6
-30 22 -27 198 -105 236 -105 5 0 23 18 40 40 17 23 35 38 43 35 16 -6 51 22
51 42 0 17 16 17 23 -1 3 -7 -7 -26 -23 -41 -17 -16 -26 -33 -23 -42 5 -12 0
-14 -24 -9 -40 9 -71 -22 -52 -52 25 -39 86 -57 184 -55 51 2 91 7 93 13 2 6
13 15 24 21 19 10 20 9 16 -14 -4 -21 0 -28 22 -36 15 -5 33 -5 41 -1 18 12
32 1 20 -14 -7 -9 -1 -17 24 -31 19 -10 35 -22 35 -27 0 -12 -13 -10 -38 8
-13 9 -30 13 -38 10 -8 -3 -17 1 -20 8 -3 8 -19 19 -36 25 -40 14 -41 14 -34
-6 4 -12 0 -10 -10 5 -9 12 -26 22 -39 22 -41 0 -34 -13 21 -40 34 -16 61 -38
70 -55 19 -37 8 -47 -17 -15 -16 21 -20 23 -29 10 -8 -13 -11 -13 -22 -1 -10
10 -10 12 0 7 8 -5 12 0 12 12 0 18 -17 28 -70 38 -8 2 -16 8 -18 13 -5 14
-92 15 -92 2 0 -6 10 -17 22 -25 13 -9 17 -16 9 -16 -11 0 -11 -3 -1 -15 6 -8
10 -20 8 -27 -3 -8 -10 -6 -23 9 -10 12 -24 19 -31 16 -9 -3 -11 6 -8 34 5 36
3 39 -42 68 -72 45 -86 52 -121 60 -28 6 -33 4 -33 -13 0 -11 -7 -25 -15 -32
-8 -7 -15 -19 -15 -27 0 -8 -14 -19 -31 -25 l-31 -11 39 -39 c46 -48 113 -86
113 -64 0 7 7 19 15 26 10 8 15 9 15 1 0 -6 11 -8 30 -4 39 7 39 -11 0 -27
-17 -7 -29 -17 -27 -23 1 -5 28 -23 59 -39 l55 -31 32 24 c19 14 31 32 31 46
0 13 5 23 11 23 7 0 9 -10 5 -25 -6 -23 -5 -24 25 -13 17 6 35 21 41 34 12 27
29 23 21 -4 -4 -16 0 -18 26 -14 30 4 31 3 21 -22 -17 -45 -13 -49 33 -43 24
3 52 9 62 13 18 7 19 6 4 -8 -8 -8 -30 -19 -47 -23 -18 -3 -32 -12 -32 -18 0
-8 -3 -8 -8 1 -6 9 -16 10 -34 3 -33 -12 -41 -26 -25 -39 8 -7 24 -4 52 9 24
12 41 16 43 9 3 -7 26 -8 65 -5 l62 6 -45 -23 -45 -23 60 -3 c74 -4 100 -22
31 -22 -33 0 -45 -3 -40 -12 5 -8 -2 -9 -25 -5 -29 6 -31 5 -21 -13 6 -11 17
-20 25 -20 8 0 15 -4 15 -10 0 -13 -11 -13 -67 1 -34 9 -47 9 -52 0 -5 -8 -17
2 -35 29 -15 23 -25 44 -22 47 3 3 -10 14 -28 24 -28 15 -40 16 -76 7 -40 -10
-45 -9 -64 13 -12 13 -49 41 -82 61 -49 30 -70 37 -108 36 -55 -1 -78 16 -94
71 -14 44 -43 74 -68 69 -25 -4 -23 -22 4 -26 12 -2 22 -10 22 -17 0 -12 -6
-12 -27 -4 -15 6 -33 15 -40 21 -7 6 -25 7 -40 3 l-28 -7 24 -19 c13 -10 34
-19 47 -19 15 0 24 -6 24 -15 0 -19 -23 -19 -60 0 -17 9 -30 12 -30 7 0 -4
-18 -16 -40 -26 -22 -10 -40 -21 -40 -25 0 -11 80 -48 120 -55 79 -14 173 -51
201 -80 16 -16 29 -33 29 -38 0 -24 77 6 85 34 7 21 25 24 25 4 0 -17 -51 -62
-80 -71 -16 -5 -18 -10 -10 -26 11 -20 40 -26 40 -8 0 5 4 8 10 4 5 -3 7 -12
4 -19 -8 -22 57 -29 94 -11 37 19 112 33 97 18 -5 -5 -30 -16 -55 -23 l-45
-13 34 -10 c25 -8 38 -7 54 3 16 9 22 10 25 1 3 -9 7 -9 18 0 22 18 30 2 10
-20 -26 -28 -65 -32 -109 -9 -22 11 -42 17 -45 14 -3 -3 0 -6 8 -6 27 0 -11
-28 -56 -40 l-45 -13 29 -17 c16 -10 55 -25 87 -35 80 -23 121 -45 178 -95 38
-34 56 -43 87 -43 22 0 43 3 47 6 4 4 6 27 4 50 -2 45 14 43 21 -3 l4 -25 14
30 c7 17 14 32 15 35 3 13 31 50 37 50 15 0 0 -72 -18 -86 -18 -14 -18 -15 4
-9 36 10 26 -13 -13 -29 -19 -8 -38 -22 -41 -31 -4 -9 -19 -15 -38 -15 l-31
-1 40 -24 c49 -30 62 -31 70 -5 8 26 29 26 22 1 -4 -16 -1 -18 17 -12 13 5 22
19 24 35 2 14 10 26 17 26 8 0 23 10 35 22 28 31 36 15 12 -25 -16 -29 -17
-34 -4 -33 30 2 22 -22 -10 -29 -60 -12 -99 -28 -86 -36 7 -5 9 -11 5 -16 -4
-4 -16 -2 -25 5 -9 6 -35 20 -57 30 -22 10 -71 43 -110 72 -77 58 -181 110
-220 110 -23 0 -24 -2 -15 -27 20 -53 34 -74 47 -68 9 3 13 -1 12 -13 -1 -9 1
-25 5 -34 7 -16 10 -16 26 5 25 30 36 16 14 -18 -16 -24 -16 -28 -1 -42 21
-22 47 -1 47 37 0 16 7 30 15 34 8 3 15 13 15 22 0 13 3 14 13 5 20 -16 8 -72
-19 -94 -31 -24 -30 -37 1 -37 14 0 25 4 25 9 0 6 8 10 18 10 9 0 31 3 47 6
l30 6 -25 -15 c-14 -8 -20 -16 -15 -16 6 0 2 -7 -8 -15 -18 -13 -18 -14 3 -25
11 -6 30 -8 40 -5 12 4 20 2 20 -4 0 -6 -5 -11 -12 -11 -18 0 24 -41 57 -56
18 -8 23 -13 13 -14 -25 0 -91 32 -106 53 -7 9 -18 17 -24 17 -6 0 -3 -9 7
-20 18 -19 17 -20 -7 -20 -21 0 -25 5 -25 26 0 32 -9 40 -50 49 -21 4 -33 3
-33 -4 0 -6 11 -11 25 -11 26 0 34 -15 13 -23 -9 -3 -8 -10 6 -26 25 -28 13
-27 -32 4 -42 28 -54 31 -46 11 3 -8 0 -17 -5 -21 -6 -3 -9 -11 -5 -16 3 -5
-5 -18 -18 -29 -20 -17 -21 -19 -5 -20 29 0 9 -19 -33 -30 -28 -8 -38 -15 -34
-25 5 -11 -1 -15 -19 -15 -35 0 -41 -13 -17 -35 26 -24 79 -24 96 0 8 10 17
16 21 12 3 -4 -2 -16 -12 -27 -27 -30 -9 -37 26 -11 33 24 50 22 29 -4 -12
-14 -11 -15 13 -4 15 7 27 18 27 26 0 7 7 13 15 13 17 0 20 -16 5 -25 -6 -4
-8 -10 -5 -15 9 -15 -36 -33 -87 -36 -26 -1 -51 -5 -56 -8 -5 -3 -18 2 -28 12
-52 45 -85 62 -124 62 -22 0 -40 -3 -40 -7 0 -5 16 -21 35 -36 20 -16 35 -36
33 -45 -1 -9 1 -23 5 -29 5 -9 2 -13 -9 -13 -12 0 -6 -10 22 -34 51 -44 37
-58 -18 -17 -24 17 -44 27 -46 21 -7 -21 -22 -9 -22 18 0 47 -11 71 -27 65
-13 -5 -15 -1 -9 23 4 16 8 33 9 39 1 5 -27 12 -63 15 -36 4 -71 9 -77 13 -13
8 -3 -35 16 -71 15 -29 14 -52 -2 -31 -10 14 -14 14 -25 3 -15 -16 -46 -19
-37 -4 4 6 10 8 15 5 13 -8 6 83 -8 97 -9 9 -12 6 -12 -15 0 -15 -4 -27 -10
-27 -5 0 -10 -6 -10 -12 -1 -18 -39 -62 -47 -54 -3 3 2 15 12 26 25 28 9 25
-31 -5 -32 -25 -61 -34 -49 -16 3 5 -4 13 -15 16 -23 7 -48 51 -36 62 3 4 12
1 18 -5 18 -18 36 -15 34 6 -1 14 6 16 40 14 31 -3 43 1 48 13 3 9 10 13 16
10 30 -19 -7 98 -50 155 -10 12 -11 11 -7 -6 6 -28 -17 -117 -31 -122 -5 -1
-13 2 -17 8 -4 6 -18 1 -39 -15 -18 -14 -41 -25 -52 -25 -14 0 -15 3 -6 8 9 6
6 12 -13 20 -25 12 -32 41 -19 76 11 27 23 18 26 -21 3 -36 28 -61 28 -28 0
11 6 15 18 11 10 -4 27 0 38 8 18 14 18 15 -9 21 -15 4 -27 14 -27 22 0 8 6
13 13 10 6 -2 23 -7 37 -11 19 -6 21 -5 10 3 -12 8 -12 13 -2 23 21 21 14 66
-18 100 l-29 33 -1 -36 c0 -36 -36 -89 -60 -89 -14 0 -13 17 3 24 6 3 -5 5
-25 3 -25 -2 -38 1 -38 9 0 7 5 14 12 16 16 6 1 28 -25 37 -15 6 -22 17 -23
40 -2 36 11 41 20 9 7 -22 8 -22 15 -4 5 14 10 16 15 7 4 -6 5 -18 2 -26 -3
-8 -1 -15 4 -15 6 0 10 5 10 10 0 6 7 10 15 10 11 0 13 -8 8 -30 -5 -25 -2
-30 15 -30 26 0 36 38 17 67 -17 26 -107 47 -159 37 -20 -3 -60 -24 -90 -45
-48 -35 -54 -43 -61 -86 -18 -115 -3 -496 25 -650 4 -23 4 -46 0 -53 -4 -6 -1
-34 7 -63 7 -29 25 -131 39 -227 14 -96 34 -233 45 -305 39 -262 35 -551 -12
-775 -11 -52 -22 -127 -26 -166 l-6 -72 -36 -6 c-66 -11 -108 -7 -134 14 -14
11 -30 20 -35 20 -6 0 -24 12 -41 26 l-31 26 24 29 c53 62 97 375 97 685 0
205 -23 493 -47 583 -8 30 -14 63 -14 73 0 10 -4 18 -10 18 -5 0 -10 -4 -10
-9 0 -19 -68 -51 -119 -56 -29 -3 -56 -7 -61 -10 -4 -3 -13 2 -20 10 -15 19
-45 4 -45 -22 0 -10 -9 -19 -20 -21 -34 -7 -38 -19 -6 -24 16 -2 28 -1 26 3
-6 9 20 19 50 19 64 0 31 -51 -45 -71 -56 -15 -58 -14 -55 4 3 11 -1 17 -8 14
-7 -2 -11 -10 -10 -18 2 -8 -9 -21 -23 -29 -15 -8 -32 -31 -38 -50 -12 -37
-47 -53 -69 -31 -8 8 -4 11 15 11 19 0 31 8 42 30 13 28 13 31 -3 40 -15 7
-20 36 -11 60 15 37 -34 76 -75 60 -14 -5 -26 -14 -26 -20 -1 -5 -2 -18 -3
-27 -1 -10 -11 -34 -24 -54 -20 -34 -25 -36 -60 -32 -20 3 -40 10 -43 15 -9
14 -49 0 -49 -17 0 -15 -30 -35 -52 -35 -9 0 -13 11 -13 27 1 21 7 29 24 31
17 3 21 0 16 -9 -5 -8 -4 -10 4 -5 6 4 9 11 6 16 -3 4 7 11 21 14 15 4 24 9
21 12 -3 4 -21 1 -39 -4 -56 -18 -93 -19 -94 -2 0 8 5 21 10 29 9 12 8 13 -3
7 -9 -6 -12 -5 -9 5 3 8 11 13 17 11 7 -1 10 2 6 8 -5 8 -11 8 -19 1 -7 -6
-15 -8 -18 -5 -3 3 -5 -2 -4 -12 0 -11 -7 -18 -22 -19 -13 -1 -27 -8 -32 -15
-6 -10 -10 -9 -17 4 -8 14 -12 14 -41 -4 -17 -11 -30 -25 -28 -32 1 -7 1 -10
-1 -6 -3 4 -15 3 -29 -2 -13 -5 -24 -8 -24 -5 0 2 -14 0 -30 -5 -27 -8 -32 -6
-45 21 -9 16 -20 30 -25 30 -6 1 -16 2 -22 3 -16 2 -37 -16 -31 -26 2 -5 0 -8
-6 -8 -5 0 -13 4 -16 10 -3 5 -11 10 -16 10 -6 0 -7 -5 -4 -10 3 -6 -10 0 -30
11 -28 17 -46 20 -81 15 -44 -6 -44 -6 -44 25 0 28 3 31 25 27 14 -3 25 -1 25
6 0 6 12 22 25 35 14 13 25 27 25 31 0 4 14 13 32 19 38 13 32 21 -19 28 -21
3 -53 11 -71 19 -29 12 -32 16 -26 41 11 47 23 61 53 68 34 7 51 35 21 35 -44
0 -94 40 -69 55 5 4 6 12 2 18 -4 8 -1 7 9 -1 14 -12 16 -10 11 10 -3 13 -1
19 4 13 11 -14 33 -17 33 -5 0 6 -5 10 -11 10 -6 0 -3 7 5 16 9 8 13 20 10 26
-4 6 -1 8 7 6 8 -3 13 -12 11 -19 -3 -11 -1 -12 9 -2 7 7 24 13 37 13 31 0 62
17 62 35 0 11 -8 13 -29 9 -19 -4 -31 -1 -36 7 -5 8 -5 11 0 7 14 -13 33 18
31 50 -2 26 2 32 17 32 11 0 28 -9 37 -20 11 -13 21 -17 25 -10 3 5 11 10 16
10 6 0 7 -4 4 -10 -3 -5 7 -12 22 -16 15 -3 33 -7 39 -9 6 -2 26 6 45 17 24
15 30 16 20 4 -12 -14 -10 -16 15 -16 19 0 25 3 16 8 -8 5 -10 16 -6 27 5 13
4 16 -4 11 -8 -5 -12 0 -12 13 0 15 -4 19 -17 14 -10 -4 -21 -11 -25 -17 -12
-18 -9 28 4 55 9 20 19 24 57 26 29 1 40 -1 31 -7 -11 -7 -9 -11 12 -19 29
-11 71 -4 62 11 -3 5 4 20 16 33 21 22 21 25 6 31 -10 4 -25 -1 -35 -10 -13
-12 -20 -14 -23 -5 -7 20 -58 18 -96 -3 -51 -29 -83 -59 -75 -71 3 -6 1 -7 -4
-4 -6 4 -22 -2 -36 -13 -14 -11 -30 -20 -36 -20 -17 0 -13 18 5 28 9 5 18 22
19 37 3 20 1 25 -8 16 -14 -14 -47 -15 -47 -1 0 6 -18 10 -41 10 -24 0 -38 -4
-34 -10 3 -6 -2 -13 -12 -17 -10 -4 -27 -15 -37 -25 -11 -10 -26 -18 -34 -18
-12 0 -12 -3 -2 -15 11 -14 15 -14 36 0 22 14 28 14 22 -1 -2 -4 7 -11 20 -15
13 -5 20 -13 17 -19 -3 -5 -1 -10 6 -10 21 0 -3 -18 -33 -25 -34 -9 -37 7 -5
24 22 11 22 11 -3 5 -14 -4 -26 -11 -28 -15 -2 -5 -12 -9 -23 -9 -16 0 -18 3
-10 18 7 14 6 19 -4 19 -7 0 -11 -6 -8 -14 3 -8 -2 -13 -13 -13 -15 0 -12 -4
10 -19 17 -11 33 -18 38 -15 4 3 3 -6 -4 -21 -9 -19 -16 -24 -32 -19 -12 4
-24 12 -28 18 -5 7 -8 7 -8 -2 0 -18 -25 -9 -25 9 -1 8 3 17 8 20 5 3 9 12 10
20 2 8 6 20 10 27 11 17 -8 15 -23 -3 -7 -8 -19 -15 -27 -15 -8 0 -12 -4 -9
-9 3 -5 -1 -15 -10 -22 -13 -10 -17 -10 -25 2 -5 8 -9 20 -9 28 0 9 -7 11 -23
8 l-22 -6 24 20 c14 12 33 17 49 14 29 -5 63 10 59 27 -1 6 15 13 36 15 44 5
103 59 86 79 -6 7 -6 21 0 37 9 24 6 37 -10 37 -13 0 -31 -40 -25 -56 9 -23 3
-29 -31 -31 -29 -2 -31 0 -23 20 4 12 14 21 22 19 7 -2 10 0 6 4 -4 4 -3 13 3
20 7 8 7 14 -1 19 -19 12 1 24 30 18 19 -3 30 -1 30 6 0 6 9 11 20 11 12 0 17
5 14 14 -3 8 0 17 7 22 15 9 78 12 77 4 -2 -26 3 -30 18 -16 8 9 20 16 26 16
5 0 8 6 5 13 -2 6 -14 11 -27 9 -28 -5 -23 18 9 34 23 12 18 21 -9 19 -8 0
-14 -5 -13 -11 1 -5 -16 -11 -37 -11 -29 -2 -38 2 -34 12 3 7 17 16 32 20 18
5 22 9 12 13 -8 3 -19 11 -23 18 -4 8 -14 14 -21 14 -8 0 -13 7 -12 16 1 12
-12 16 -57 19 -44 4 -57 2 -54 -8 2 -6 13 -11 25 -10 13 2 22 -5 26 -20 5 -17
8 -19 15 -9 6 11 10 9 14 -7 3 -12 1 -21 -4 -21 -5 0 -9 -11 -9 -25 0 -16 -6
-25 -15 -25 -8 0 -14 -5 -12 -11 3 -16 -50 -42 -85 -42 -34 1 -39 3 -33 13 3
5 1 10 -5 10 -6 0 -10 -6 -9 -12 3 -19 -21 -66 -37 -72 -17 -7 -49 50 -33 59
7 5 7 11 -1 20 -8 10 -6 17 11 28 13 10 19 22 15 32 -3 9 0 17 7 19 6 2 30 9
53 15 25 7 41 17 41 26 0 8 -5 15 -11 14 -40 -5 -62 2 -62 19 0 10 6 24 13 31
7 6 13 9 13 5 0 -3 6 -1 14 5 18 15 76 23 76 11 0 -16 74 -12 96 5 19 14 19
14 -3 15 -12 0 -25 -5 -28 -10 -4 -7 -13 -6 -26 1 -20 10 -20 11 -3 30 9 10
25 19 36 19 10 0 18 5 18 10 0 6 -6 10 -12 10 -7 0 1 9 18 19 18 11 35 24 38
30 10 15 23 14 23 -3 0 -8 -6 -12 -13 -9 -6 2 -15 0 -19 -6 -3 -6 0 -11 7 -11
10 0 9 -3 -2 -9 -8 -6 -18 -7 -22 -5 -4 3 -8 0 -8 -5 0 -6 5 -11 11 -11 6 0 9
-6 6 -14 -4 -10 4 -17 24 -21 28 -6 37 -30 11 -30 -5 0 -13 -3 -16 -8 -3 -4
-3 -5 1 -2 3 3 11 -1 17 -8 6 -7 10 -11 9 -8 -1 2 9 20 22 39 16 24 21 38 14
43 -7 4 -4 12 9 21 20 13 20 14 -8 27 l-29 12 29 31 c16 17 28 34 25 37 -2 4
6 8 17 8 20 2 20 1 2 -12 -18 -14 -18 -14 6 -11 14 3 31 5 38 5 6 1 12 5 12
11 0 8 -94 27 -112 22 -5 -1 -8 5 -8 14 0 11 -5 14 -16 10 -9 -3 -20 -6 -25
-6 -5 0 -9 -7 -9 -15 0 -8 -7 -15 -15 -15 -8 0 -15 5 -15 10 0 6 -12 10 -27 9
-26 -1 -24 -2 16 -15 11 -4 10 -8 -4 -24 -19 -21 -13 -42 10 -33 8 3 15 1 15
-5 0 -11 -34 -22 -72 -22 -15 0 -29 -4 -33 -9 -11 -19 -139 -17 -168 2 -14 9
-35 12 -57 9 -32 -5 -34 -3 -21 12 11 14 11 16 -1 16 -8 0 -19 -5 -25 -11 -13
-13 -57 6 -48 22 9 14 -39 11 -54 -3 -11 -10 -13 -10 -7 0 5 8 0 12 -13 12
-24 0 -27 10 -8 29 6 7 8 12 2 11 -33 -7 -45 1 -41 25 4 19 0 25 -14 25 -10 0
-21 -4 -24 -9 -3 -5 -16 -11 -29 -13 -17 -3 -23 0 -24 13 -2 17 45 34 90 32
10 0 16 4 14 10 -3 11 -26 17 -67 18 -14 1 -31 6 -39 13 -11 8 -13 8 -8 0 4
-7 -3 -14 -18 -17 -14 -2 -23 -2 -20 1 3 3 -2 16 -10 29 -14 21 -14 23 0 23 9
0 14 4 11 8 -3 5 1 9 9 9 8 0 12 -4 9 -8 -2 -4 4 -7 15 -6 11 0 17 5 14 10 -3
4 3 7 13 5 10 -2 19 3 20 10 1 6 3 15 4 20 1 4 2 11 1 15 -1 5 12 6 29 2 20
-4 30 -3 30 5 0 6 -4 8 -10 5 -5 -3 -10 -2 -10 3 0 6 -14 15 -31 21 -27 9 -30
9 -19 -4 10 -12 9 -15 -4 -15 -9 0 -16 -4 -16 -10 0 -5 -14 -10 -31 -10 -17 0
-28 4 -24 10 3 6 -1 10 -10 10 -9 0 -14 4 -10 9 3 6 14 8 25 6 12 -2 18 0 15
6 -4 5 -28 8 -55 6 -27 -2 -55 0 -62 4 -7 5 -11 9 -8 10 3 0 14 3 25 6 29 7
58 7 75 -1 10 -4 24 1 35 12 18 17 21 17 32 3 11 -14 14 -14 23 -1 5 8 10 18
10 21 0 9 -51 18 -83 15 -22 -3 -25 -1 -16 10 9 11 5 14 -20 14 -17 0 -31 4
-31 9 0 5 -9 7 -20 4 -23 -6 -26 3 -6 23 16 15 56 19 56 6 0 -5 15 -6 32 -3
30 4 31 5 9 11 -32 7 -39 42 -7 36 12 -2 32 5 45 15 23 19 23 19 2 19 -12 0
-20 4 -16 10 8 13 55 -10 55 -27 0 -8 6 -13 12 -12 25 3 39 -1 34 -10 -3 -5 1
-11 9 -15 8 -3 15 -1 15 4 0 6 5 10 11 10 5 0 8 -4 5 -8 -8 -14 53 -1 65 14 9
11 3 12 -30 10 -22 -2 -38 1 -35 6 3 4 9 6 13 3 5 -2 17 2 27 10 18 14 17 14
-13 9 -26 -5 -31 -3 -29 12 2 10 7 19 12 20 5 1 21 5 37 8 15 4 27 11 27 17 0
6 -6 6 -18 0 -14 -7 -28 -3 -60 18 -22 16 -38 32 -34 35 3 4 -1 4 -11 0 -9 -3
-17 -10 -17 -15 0 -5 -7 -9 -16 -9 -8 0 -12 5 -9 10 3 6 0 10 -7 10 -9 0 -9 3
2 10 11 7 11 10 2 10 -7 0 -11 4 -7 9 3 5 1 12 -5 16 -6 4 -7 11 -4 17 4 5 -4
4 -17 -2 -23 -13 -24 -12 -6 7 21 24 48 25 65 4 11 -14 11 -14 6 3 -6 15 -3
17 14 12 11 -4 23 -2 27 4 3 5 3 10 -2 11 -43 4 -70 19 -35 19 13 0 22 6 22
15 0 9 -9 15 -24 15 -35 0 -56 10 -56 27 0 10 6 12 21 8 11 -4 32 -4 46 0 20
5 23 8 13 20 -13 16 -15 15 52 20 15 1 25 -1 23 -5 -6 -10 20 -20 51 -20 21 0
23 3 15 19 -12 21 -5 31 21 31 10 0 18 7 18 16 0 9 -6 14 -12 11 -7 -2 -18 3
-25 12 -11 14 -12 14 -13 -1 0 -13 -8 -18 -28 -18 -15 0 -33 -5 -40 -12 -9 -9
-12 -8 -12 7 0 11 -17 34 -37 53 l-38 33 34 -6 c22 -5 31 -4 27 3 -4 6 2 15
11 21 10 6 14 11 10 11 -4 0 -2 6 5 14 7 8 16 12 20 9 4 -2 5 3 2 11 -4 11 0
16 14 16 11 0 25 7 32 15 10 12 10 15 -1 15 -11 0 -11 2 1 10 10 6 11 10 3 10
-16 0 -17 42 -1 58 9 9 7 12 -12 12 -24 1 -24 1 -6 15 10 8 22 12 27 10 4 -3
5 4 2 15 -5 18 -30 26 -70 21 -6 -1 -14 3 -18 9 -3 5 0 10 8 10 8 0 22 10 33
22 10 13 12 18 4 12 -25 -18 -105 -17 -121 3 -10 12 -11 17 -2 20 13 5 -20 43
-37 43 -16 0 -12 14 10 33 13 11 20 13 20 4 0 -7 3 -8 8 -2 9 12 42 16 42 5 0
-10 27 -7 37 5 4 4 3 5 -4 1 -6 -3 -15 -2 -18 4 -4 6 -3 9 2 8 16 -4 113 24
113 33 0 5 -4 9 -10 9 -5 0 -10 6 -10 13 0 14 -53 40 -85 41 -11 1 -28 -8 -37
-19 -16 -19 -17 -19 -15 0 1 11 -3 19 -10 18 -6 -1 -10 3 -9 10 3 24 19 39 36
34 13 -3 17 0 13 9 -3 8 -9 11 -14 8 -5 -3 -9 4 -9 15 0 16 6 19 37 18 21 -1
38 3 41 11 2 8 -7 12 -26 12 -46 0 -63 9 -52 28 5 10 11 25 14 36 4 11 12 16
22 12 8 -3 12 -2 9 4 -3 6 -3 10 2 11 4 0 15 2 23 4 23 5 64 13 72 14 4 1 5 8
2 16 -4 9 0 15 10 15 9 0 16 4 16 9 0 5 -34 7 -75 6 -41 -2 -75 1 -75 6 0 5
-9 9 -21 9 -12 0 -19 5 -16 13 2 7 15 11 30 9 15 -2 27 1 27 8 0 6 -6 8 -12 4
-15 -9 20 35 41 52 7 6 34 10 60 10 37 -1 46 -4 46 -19 0 -10 7 -22 15 -27 17
-11 10 -13 -41 -10 -21 1 -40 -3 -43 -9 -10 -16 75 -6 110 12 16 9 25 16 20
17 -5 0 -3 7 4 15 12 15 4 20 -22 16 -4 0 -20 4 -35 10 -27 10 -27 11 -9 25
14 10 16 14 5 14 -12 0 -12 2 1 10 8 5 10 10 4 10 -5 0 -16 -6 -22 -12 -10
-10 -15 -10 -21 1 -5 7 -13 11 -18 8 -5 -3 -14 3 -21 13 -12 20 -11 22 36 47
12 7 20 8 17 3 -4 -6 -1 -10 4 -10 14 0 14 13 -1 28 -17 17 -6 23 44 25 37 2
43 6 44 24 1 13 -2 21 -5 18 -4 -2 -13 5 -20 17 -7 11 -8 17 -2 13 6 -3 11 0
11 8 0 18 24 29 45 21 11 -5 13 -2 9 10 -3 9 -10 13 -15 10 -5 -3 -9 4 -9 15
0 12 5 21 11 21 5 0 7 5 4 10 -9 15 8 12 33 -6 12 -8 22 -10 22 -5 0 6 0 14 0
19 0 4 -8 8 -18 8 -9 1 -22 2 -28 3 -6 1 -11 7 -11 14 0 9 9 12 26 9 l26 -5
-23 21 c-19 17 -20 21 -6 26 15 6 15 8 -1 32 -9 15 -12 23 -6 20 6 -4 11 -3
11 1 0 19 39 33 65 23 20 -8 34 -6 58 7 18 9 38 16 46 14 8 -1 10 2 5 11 -6
10 -4 10 9 -1 14 -11 20 -11 34 0 9 8 14 9 10 3 -4 -8 7 -11 34 -11 35 0 69
16 37 18 -7 0 10 11 37 24 l50 24 -50 -5 -50 -5 28 16 c34 20 30 26 -18 31
-19 1 -42 10 -51 19 -8 8 -20 15 -25 15 -6 0 -7 5 -4 10 3 6 -2 10 -11 10 -22
0 -15 7 11 12 10 1 27 11 37 21 10 10 24 15 29 11 6 -4 29 -1 50 6 40 13 65 6
39 -10 -13 -8 -12 -10 3 -10 9 0 17 -4 17 -8 0 -4 9 -8 19 -8 11 0 17 4 15 8
-3 4 2 8 10 8 8 0 20 8 25 18 9 15 10 13 8 -8 -2 -21 2 -25 23 -23 14 1 37 3
52 4 23 2 25 4 12 16 -8 8 -21 12 -30 9 -9 -3 -25 4 -38 17 -13 13 -29 21 -36
19 -8 -3 -10 0 -5 7 4 7 13 10 21 7 8 -3 17 1 21 10 8 21 -4 29 -22 14 -12
-10 -15 -10 -15 4 0 9 -4 16 -8 16 -5 0 -9 6 -9 14 0 7 5 13 11 13 6 0 20 1
31 2 17 1 18 3 5 11 -8 5 -10 10 -5 11 6 1 26 3 45 6 19 2 52 5 72 6 20 2 40
6 45 10 4 5 0 5 -9 2 -12 -5 -16 -2 -13 12 2 10 4 20 6 23 1 3 3 11 3 19 1 7
17 18 36 25 19 6 35 18 35 26 0 8 8 21 17 28 22 16 69 6 61 -14 -6 -16 13 -19
22 -4 9 15 25 12 25 -4 0 -22 19 -30 35 -16 14 12 19 7 16 -14 -1 -5 5 -6 14
-2 9 3 26 6 38 7 12 0 16 3 10 6 -7 2 -13 11 -13 19 0 9 -4 13 -9 9 -6 -3 -15
4 -21 15 -8 14 -8 20 0 20 6 0 9 4 6 9 -4 5 15 16 41 24 83 26 100 28 113 12
7 -8 18 -15 24 -15 6 0 4 5 -4 11 -13 9 -13 10 0 6 8 -2 14 -12 14 -21 -2 -20
6 -20 32 -1 25 19 61 19 61 0 0 -8 -6 -15 -14 -15 -7 0 -13 -5 -13 -11 0 -6 7
-8 16 -5 13 5 15 2 11 -14 -4 -15 0 -23 16 -29 l21 -8 -22 -12 c-12 -6 -22 -9
-22 -6 0 4 -5 3 -12 -1 -8 -5 -6 -10 8 -15 18 -7 18 -8 -1 -8 -17 -1 -17 -3
-5 -11 13 -8 13 -13 2 -30 -13 -21 -13 -21 15 -3 15 10 36 16 46 15 11 -2 16
1 13 6 -10 17 37 0 59 -20 11 -11 40 -28 65 -39 l45 -20 -29 30 c-15 16 -25
34 -22 39 3 6 26 -11 51 -36 32 -33 45 -42 45 -29 0 9 -5 17 -11 17 -7 0 -9 9
-6 21 4 14 -1 23 -16 29 -12 5 -18 9 -14 9 4 1 -4 21 -18 44 -14 24 -25 49
-25 56 0 21 21 0 36 -35 10 -23 19 -32 29 -28 10 4 15 0 15 -14 0 -12 5 -24
12 -28 6 -4 8 -3 5 3 -4 6 -9 54 -11 107 -4 79 -2 96 10 96 9 0 14 -11 14 -35z"/>
<path d="M2256 5458 c-3 -13 -8 -45 -11 -73 -4 -27 -15 -66 -26 -87 -24 -46
-24 -47 1 -41 32 8 23 -13 -12 -30 -18 -9 -51 -34 -72 -56 l-39 -40 14 -60 c7
-34 16 -61 19 -61 13 0 90 81 90 94 0 9 15 39 34 68 56 88 58 106 25 171 -17
34 -18 40 -4 54 19 18 17 83 -2 83 -7 0 -15 -10 -17 -22z"/>
<path d="M2470 5348 c-14 -18 -60 -88 -60 -93 0 -2 7 -2 15 1 8 4 15 1 15 -5
0 -6 -10 -15 -22 -20 -13 -5 -36 -23 -52 -40 -17 -17 -35 -31 -42 -31 -18 0
-51 -32 -59 -57 l-6 -21 59 20 c51 17 60 24 71 55 9 24 17 33 28 29 8 -4 23 3
34 16 13 17 18 19 19 8 0 -8 9 0 20 18 18 30 19 35 5 56 -19 28 -8 42 17 19
28 -25 33 -8 8 26 -23 34 -34 38 -50 19z"/>
<path d="M2520 5229 c0 -5 5 -7 10 -4 6 3 10 2 10 -4 0 -5 -22 -27 -49 -48
-46 -35 -77 -84 -66 -103 2 -4 -20 -24 -50 -45 -30 -20 -55 -41 -55 -45 0 -12
49 -22 72 -15 11 4 17 13 14 21 -3 8 -1 14 5 14 5 0 17 17 26 38 18 45 33 63
43 57 5 -3 -2 -24 -16 -48 -13 -23 -24 -50 -24 -59 0 -10 -11 -25 -25 -34 -14
-9 -22 -20 -19 -25 10 -17 -28 -9 -53 11 -30 24 -51 26 -59 5 -7 -18 -59 -10
-96 16 l-27 19 -16 -29 c-8 -17 -15 -56 -15 -90 0 -58 -1 -60 -22 -52 -20 7
-24 18 -31 77 -10 92 -11 94 -31 54 -10 -19 -33 -51 -50 -70 -18 -19 -32 -44
-32 -55 1 -17 7 -19 53 -18 55 3 75 -9 46 -26 -15 -9 -15 -12 -4 -20 9 -6 10
-10 2 -14 -7 -3 -7 -5 1 -3 7 1 19 15 26 29 15 31 37 36 29 7 -3 -11 -1 -23 4
-26 6 -4 6 -11 -1 -19 -8 -9 -6 -14 5 -19 10 -3 15 1 15 13 0 11 6 22 13 24 9
4 8 8 -3 17 -13 10 -13 11 3 6 11 -3 17 0 17 9 0 7 5 17 12 21 8 5 9 -3 5 -29
-3 -23 -1 -37 6 -40 8 -3 6 -10 -6 -19 -16 -12 -17 -18 -6 -40 l12 -27 20 26
c18 22 19 29 8 57 -21 52 -24 66 -12 66 6 0 11 -7 11 -15 0 -26 16 -16 18 12
3 38 22 55 22 19 0 -15 4 -25 9 -21 18 11 23 -16 7 -40 -24 -36 -20 -42 27
-41 39 1 42 -1 45 -26 2 -20 7 -25 19 -21 12 5 14 3 8 -8 -5 -7 14 4 42 26 54
42 113 132 153 235 12 30 28 70 37 87 14 31 14 36 -5 76 -19 40 -38 113 -31
119 1 2 -3 13 -10 26 -12 22 -41 31 -41 11z"/>
<path d="M2925 5000 c-3 -5 -12 -7 -20 -3 -8 3 -27 2 -41 -1 -26 -7 -26 -7 -8
-27 14 -16 26 -19 52 -14 l34 6 -36 -37 c-20 -20 -36 -41 -36 -47 0 -15 52
-52 75 -53 61 -2 75 -5 75 -15 0 -8 -14 -9 -43 -5 l-44 7 31 -66 c35 -76 37
-75 82 31 27 63 27 66 10 101 -22 45 -95 133 -112 133 -7 0 -15 -4 -19 -10z"/>
<path d="M2794 4973 c-18 -13 -18 -15 5 -58 13 -25 21 -48 18 -51 -10 -10 -47
16 -47 34 0 9 -7 25 -14 35 -16 21 -37 14 -89 -29 -16 -13 -34 -24 -41 -24
-12 0 -78 -130 -71 -139 2 -1 8 0 14 3 6 4 43 9 83 11 50 3 92 12 131 29 32
15 66 26 77 26 27 0 25 14 -5 34 -19 13 -24 23 -20 37 4 12 -2 34 -14 54 -25
43 -11 46 22 4 19 -25 25 -28 30 -15 4 9 2 16 -4 16 -5 0 -20 10 -33 23 -21
21 -26 22 -42 10z"/>
<path d="M3155 4930 c-10 -11 -15 -20 -12 -20 3 0 0 -18 -8 -41 -14 -40 -14
-42 12 -79 l28 -38 57 40 c61 43 71 62 38 73 -11 3 -20 10 -20 15 0 10 -61 70
-71 70 -3 0 -14 -9 -24 -20z"/>
<path d="M2860 4791 c-14 -5 -43 -17 -65 -28 -38 -19 -83 -29 -166 -37 -43 -4
-151 -79 -143 -99 3 -8 0 -26 -6 -42 -12 -33 -9 -37 25 -37 24 0 25 -3 19 -32
-8 -41 -19 -53 -60 -68 -19 -6 -34 -15 -34 -18 0 -14 52 -30 76 -24 26 7 35
-13 9 -22 -8 -4 -13 -10 -10 -14 14 -22 -20 -19 -44 4 -35 33 -42 33 -70 -5
-13 -17 -45 -40 -72 -52 -46 -18 -49 -22 -44 -47 8 -38 9 -166 1 -179 -12 -19
140 -231 165 -231 13 0 60 49 100 105 68 93 154 271 165 341 10 64 22 86 42
79 20 -6 71 34 90 70 8 15 6 22 -6 31 -10 7 -14 16 -10 20 4 4 15 1 23 -6 13
-11 19 -11 32 3 16 16 15 17 -15 23 -18 4 -32 11 -32 16 0 6 11 7 25 4 l25 -6
-25 46 c-31 58 -33 87 -4 51 11 -15 26 -26 32 -24 7 1 11 -7 9 -20 -4 -31 15
-38 22 -8 4 14 11 23 16 20 5 -3 7 -13 4 -23 -3 -9 4 0 16 21 21 37 21 40 4
90 -20 63 -45 107 -59 106 -5 0 -21 -4 -35 -8z"/>
<path d="M2264 4676 c-35 -16 -44 -26 -61 -75 -10 -28 -9 -41 3 -69 l14 -35
48 43 c26 24 49 45 51 47 2 1 -4 12 -14 23 -21 24 -13 39 11 20 14 -12 15 -10
12 21 -3 39 -19 45 -64 25z"/>
<path d="M2835 4332 c-43 -24 -52 -35 -76 -94 l-27 -66 39 13 c43 16 112 55
147 84 28 24 22 63 -12 79 -18 8 -32 5 -71 -16z"/>
<path d="M2104 4054 c-4 -14 1 -55 11 -92 29 -110 29 -120 8 -125 -15 -4 -14
-5 5 -6 18 -1 22 -7 22 -33 0 -18 3 -56 6 -84 l6 -51 71 43 c55 34 81 44 114
44 42 0 43 1 43 33 0 18 -9 44 -19 57 -11 14 -35 45 -55 70 -19 25 -47 63 -62
86 -18 27 -42 47 -76 62 -62 28 -66 28 -74 -4z"/>
<path d="M2675 4039 c-11 -24 -38 -71 -61 -104 l-40 -60 34 -2 c19 -1 63 -12
97 -24 l61 -21 42 26 c23 15 42 34 42 44 0 9 -35 55 -78 101 l-78 84 -19 -44z"/>
<path d="M2532 3812 c-8 -5 -14 -24 -15 -43 -2 -33 -1 -33 53 -44 45 -9 57 -8
66 4 6 8 16 11 23 7 9 -6 9 -11 1 -21 -8 -10 -4 -18 19 -34 34 -24 53 -27 45
-7 -3 8 4 25 15 37 18 19 21 20 21 6 0 -9 5 -17 10 -17 6 0 10 -9 10 -21 0
-16 4 -19 21 -14 15 5 20 3 17 -6 -3 -8 -14 -15 -26 -17 -12 -2 -22 -7 -22
-12 0 -15 20 -22 33 -11 17 13 39 -2 35 -24 -5 -28 19 -29 38 -1 9 14 22 26
30 26 12 0 40 38 32 44 -2 1 -19 9 -38 16 -31 12 -125 70 -187 115 -25 19
-161 31 -181 17z"/>
<path d="M2414 3380 c-17 -6 -36 -16 -41 -22 -14 -19 -44 -101 -38 -106 2 -3
27 3 56 12 28 10 54 14 57 11 9 -8 -17 -24 -50 -32 -31 -6 -35 -15 -14 -33 8
-6 22 -30 31 -53 l16 -42 72 2 c40 1 73 7 75 12 2 6 8 8 14 5 17 -11 -24 -44
-54 -44 -15 0 -27 -3 -27 -7 4 -22 -3 -24 -20 -9 -32 29 -47 14 -19 -19 l25
-28 34 25 c86 65 189 78 281 34 30 -14 70 -26 89 -26 19 0 51 -4 72 -9 21 -5
37 -5 37 0 0 5 -12 9 -27 9 -33 0 -98 55 -114 97 -11 28 -11 28 -20 6 -9 -25
-47 -38 -77 -29 -28 9 -45 39 -72 125 -22 73 -22 73 -79 99 -61 28 -154 38
-207 22z"/>
<path d="M1727 3324 c-15 -8 -32 -12 -36 -9 -11 6 -65 -43 -74 -67 -3 -9 -16
-18 -29 -20 -20 -3 -23 -9 -24 -50 -2 -45 0 -47 35 -61 24 -10 40 -12 48 -5 7
5 17 7 23 3 5 -3 10 -1 10 4 0 6 -10 11 -22 11 -21 0 -21 2 7 20 17 11 26 20
20 20 -5 0 -3 5 5 10 13 8 12 10 -2 10 -10 0 -18 7 -18 15 0 8 -5 15 -12 15
-17 0 19 36 40 39 9 1 29 2 45 2 15 0 27 4 27 9 0 6 7 10 16 10 8 0 12 -4 9
-10 -10 -17 0 -11 39 19 l36 29 -37 5 c-21 3 -47 7 -58 11 -11 3 -32 -1 -48
-10z"/>
<path d="M2287 3162 c-15 -38 -35 -90 -44 -118 -17 -52 -33 -225 -20 -217 4 2
7 -7 7 -21 0 -32 6 -32 53 -1 23 16 48 47 66 83 16 31 39 68 51 82 18 21 19
26 6 28 -12 3 -13 9 -6 28 6 14 10 37 10 52 -1 33 -48 120 -75 138 -19 12 -22
9 -48 -54z"/>
<path d="M2593 3033 c-41 -26 -50 -56 -22 -74 22 -14 28 -11 22 12 -4 16 -2
20 8 17 8 -3 19 6 26 24 7 15 17 28 23 28 13 0 13 -16 0 -40 -7 -13 -7 -21 0
-25 8 -5 7 -12 -2 -22 -11 -14 -8 -15 22 -10 19 3 45 8 58 12 13 5 22 3 22 -3
0 -21 -45 -37 -105 -37 -60 0 -93 -17 -45 -23 52 -7 46 -24 -7 -20 -28 1 -49
-1 -46 -5 2 -4 -7 -17 -22 -29 -17 -13 -23 -24 -17 -30 11 -11 52 6 52 21 0 4
25 7 55 6 59 -2 115 22 115 50 0 8 7 15 15 15 20 0 19 -12 -6 -44 -23 -29 -14
-33 37 -11 19 8 38 13 42 12 13 -4 1 -32 -25 -56 -19 -18 -22 -26 -13 -29 16
-6 60 46 60 71 0 9 7 17 15 17 8 0 15 -6 15 -14 0 -21 -43 -80 -68 -92 -20
-10 -21 -13 -7 -24 8 -7 15 -19 15 -28 0 -12 -7 -9 -28 11 -32 31 -44 33 -66
12 -13 -13 -16 -13 -30 0 -8 8 -27 15 -43 15 l-28 -1 22 -18 c12 -10 48 -65
79 -121 71 -126 83 -133 229 -131 98 1 101 2 128 31 15 17 27 40 27 53 1 22 1
22 16 2 14 -19 15 -18 12 14 -2 20 2 36 10 38 7 3 12 -4 12 -17 0 -12 4 -19
10 -15 5 3 7 12 3 20 -3 10 1 15 15 15 19 0 32 18 32 42 0 15 -71 2 -107 -19
-42 -23 -72 -12 -118 47 -22 27 -46 49 -54 47 -10 -1 -15 14 -17 62 -2 35 -7
67 -10 70 -4 3 -4 -18 -2 -47 4 -39 2 -55 -8 -59 -7 -3 -16 -13 -19 -24 -4
-10 -15 -19 -26 -19 -20 0 -20 0 1 30 13 19 23 51 26 92 5 56 2 71 -24 129
-36 77 -58 91 -153 95 -57 3 -72 0 -106 -23z"/>
<path d="M2073 3028 c8 -23 -16 -35 -69 -36 -34 -2 -43 2 -47 18 -5 20 -47 29
-47 11 0 -5 -16 -16 -35 -25 -20 -10 -33 -21 -30 -26 3 -5 -3 -18 -15 -30 -25
-25 -14 -26 24 -1 22 15 34 17 48 10 10 -6 16 -14 13 -19 -3 -5 0 -12 7 -16 7
-4 10 -4 6 1 -11 12 20 37 50 39 15 0 33 8 40 16 11 13 13 13 22 -2 6 -9 17
-15 25 -12 8 4 15 2 15 -3 0 -13 33 -12 42 1 12 17 10 20 -23 57 -18 19 -29
26 -26 17z"/>
<path d="M2930 2833 c0 -30 26 -89 52 -118 26 -31 36 -35 78 -35 62 0 79 7 91
37 10 28 33 21 26 -8 -3 -11 -2 -19 3 -19 13 0 17 57 5 74 -7 9 -15 13 -18 10
-3 -4 -40 -8 -81 -10 -73 -4 -75 -3 -103 30 -32 36 -53 52 -53 39z"/>
<path d="M1063 2588 c4 -12 -4 -20 -29 -28 -42 -14 -37 -25 16 -34 23 -3 38
-11 35 -16 -3 -5 0 -8 7 -6 7 3 37 7 67 11 49 6 53 5 41 -10 -7 -9 -19 -14
-27 -11 -7 3 -13 -1 -13 -9 0 -21 -15 -26 -46 -15 -41 16 -76 -4 -64 -35 5
-13 6 -26 2 -31 -4 -4 -1 -4 6 0 7 4 10 11 8 15 -7 11 11 34 29 37 10 2 15 -3
11 -11 -3 -10 7 -13 39 -11 41 1 43 0 28 -17 -9 -9 -13 -20 -10 -24 4 -3 7 -1
7 5 0 6 9 13 19 17 11 3 23 15 26 25 4 13 12 17 23 13 9 -3 14 -3 10 2 -4 4
-17 8 -29 9 -25 1 -39 26 -15 26 9 0 16 8 16 20 0 11 6 21 13 21 6 1 17 2 24
3 7 0 19 10 28 21 9 11 14 15 11 10 -2 -6 -1 -17 5 -25 7 -12 9 -11 9 5 0 11
-4 26 -9 34 -7 11 -13 9 -30 -8 -13 -13 -31 -23 -41 -24 -10 -1 -16 -5 -13
-11 4 -5 -3 -6 -18 -2 -35 11 -61 9 -71 -6 -5 -8 -7 -3 -5 16 2 18 11 32 22
36 17 6 17 7 2 13 -9 3 -17 2 -17 -3 0 -6 -7 -10 -16 -10 -9 0 -14 6 -11 13 3
8 -4 13 -20 13 -18 0 -23 -4 -20 -18z"/>
</g>
</svg>
