<?xml version="1.0" standalone="no"?>
<!DOCTYPE svg PUBLIC "-//W3C//DTD SVG 20010904//EN"
 "http://www.w3.org/TR/2001/REC-SVG-20010904/DTD/svg10.dtd">
<svg version="1.0" xmlns="http://www.w3.org/2000/svg"
 width="1076.000000pt" height="933.000000pt" viewBox="0 0 1076.000000 933.000000"
 preserveAspectRatio="xMidYMid meet">
<metadata>
Created by potrace 1.13, written by Peter Selinger 2001-2015
</metadata>
<g transform="translate(0.000000,933.000000) scale(0.100000,-0.100000)"
fill="#000000" stroke="none">
<path d="M0 4665 l0 -4665 5380 0 5380 0 0 4665 0 4665 -5380 0 -5380 0 0
-4665z m4934 3529 c5 -20 11 -24 28 -18 25 8 39 -12 31 -43 -4 -20 -1 -23 22
-23 15 0 33 8 40 17 11 15 15 15 29 4 9 -7 16 -20 16 -27 0 -10 13 -14 40 -14
22 0 40 -4 40 -10 0 -5 7 -7 15 -4 9 4 15 0 15 -10 0 -10 9 -16 23 -16 13 0
28 -5 35 -12 9 -9 12 -8 12 6 0 9 15 32 34 49 29 28 42 33 97 35 35 2 66 8 70
13 3 5 13 7 23 3 12 -5 16 -13 12 -30 -5 -18 -2 -23 16 -26 17 -2 24 -11 26
-33 2 -16 9 -33 15 -37 23 -14 103 -8 162 13 45 16 71 19 105 14 25 -4 54 -8
65 -9 11 -1 31 -8 45 -16 14 -8 30 -13 37 -12 6 1 14 -2 18 -8 3 -5 17 -10 30
-10 19 0 27 -7 34 -32 6 -23 9 -27 10 -12 1 12 7 27 15 33 18 15 63 4 71 -17
5 -12 8 -13 14 -4 9 15 41 5 41 -13 0 -8 12 -12 33 -11 26 1 33 -3 35 -21 2
-13 -4 -27 -16 -34 -12 -8 -17 -20 -14 -35 5 -28 -21 -43 -43 -24 -26 22 -16
2 16 -31 22 -23 30 -38 26 -56 -6 -31 17 -41 42 -19 21 19 41 21 41 3 0 -7 6
-21 13 -31 12 -17 16 -17 50 -2 39 16 43 22 27 46 -6 10 -10 11 -10 3 0 -22
-61 -16 -67 6 -3 11 -13 21 -24 24 -32 9 -23 30 10 24 27 -6 30 -3 33 21 3 29
4 29 81 16 20 -3 37 -10 37 -14 0 -4 9 -17 20 -30 16 -19 22 -21 35 -10 12 10
15 9 15 -7 0 -10 -5 -24 -11 -30 -6 -6 -12 -39 -12 -74 -2 -55 1 -65 18 -74
25 -13 33 -55 11 -55 -9 0 -23 11 -32 25 -9 14 -19 25 -23 25 -13 0 -4 -68 11
-83 14 -14 19 -12 56 24 47 45 62 49 62 16 0 -37 -21 -71 -62 -102 -20 -15
-35 -32 -32 -37 3 -4 0 -8 -7 -8 -7 0 -10 -2 -7 -5 7 -8 -50 -65 -65 -65 -7 0
-6 -4 3 -10 9 -6 17 -5 21 2 4 6 14 8 23 5 11 -5 16 -1 16 13 0 13 7 20 20 20
29 0 25 -16 -15 -55 -19 -19 -29 -36 -22 -37 60 -7 67 -4 73 32 7 40 40 99 65
118 10 7 19 24 21 39 3 28 28 45 28 19 0 -20 14 -20 43 -2 12 8 32 17 45 21
21 6 23 4 20 -22 -2 -17 -11 -32 -25 -38 -12 -5 -25 -22 -29 -38 -3 -15 -16
-38 -28 -50 -29 -28 -41 -58 -20 -50 7 3 14 11 14 19 0 8 8 14 19 14 10 0 24
7 31 15 7 8 20 15 30 15 10 0 20 9 23 20 3 11 13 20 22 20 13 0 16 -6 12 -21
-5 -17 -3 -18 9 -8 24 19 39 -3 26 -39 -6 -19 -6 -35 0 -46 8 -14 3 -24 -22
-46 -18 -16 -44 -32 -59 -35 -17 -4 -32 -18 -42 -40 -18 -39 -20 -38 59 -50
38 -6 42 -5 42 14 0 12 4 21 8 21 18 0 32 -26 32 -57 0 -23 5 -33 16 -33 9 0
14 -5 12 -12 -6 -18 -28 -22 -28 -5 0 28 -80 37 -101 11 -9 -12 -24 -15 -51
-11 -31 4 -38 2 -38 -12 0 -9 14 -22 30 -29 45 -20 36 -31 -22 -30 -57 2 -91
15 -113 44 -7 11 -17 16 -21 12 -4 -5 0 -16 9 -26 12 -13 17 -36 17 -72 0 -43
-5 -59 -24 -79 -18 -20 -23 -34 -19 -58 6 -40 18 -41 63 -8 19 14 39 25 45 25
7 0 18 12 25 26 12 22 12 27 0 34 -8 5 -11 13 -6 17 5 4 11 2 13 -4 3 -7 20
-13 39 -13 36 0 36 0 38 70 1 42 3 45 25 42 31 -3 31 -3 34 -41 2 -36 19 -40
49 -11 26 24 46 26 54 5 8 -21 -16 -47 -38 -42 -11 3 -18 0 -18 -8 0 -7 -5
-15 -12 -17 -16 -6 -2 -38 17 -38 8 0 21 11 27 25 7 17 17 24 26 20 18 -7 32
11 32 43 0 13 4 21 8 18 7 -4 31 64 30 88 0 5 6 12 13 17 7 4 14 14 15 23 1 8
14 27 28 43 14 15 26 31 26 35 0 5 6 8 14 8 18 0 30 31 15 41 -7 4 -9 15 -5
24 4 12 -8 31 -42 63 -27 26 -56 64 -65 84 -10 20 -23 38 -30 41 -9 3 -9 7 0
17 9 10 20 6 52 -19 23 -19 41 -41 41 -52 0 -11 5 -17 10 -14 7 4 7 13 0 26
-9 16 -6 24 17 44 15 13 22 25 16 25 -16 0 -17 40 -2 40 5 0 7 5 4 10 -3 6 -1
10 5 10 7 0 10 -7 7 -15 -7 -17 9 -30 18 -15 11 17 35 11 35 -9 0 -11 9 -21
21 -24 19 -5 21 -10 14 -44 -4 -21 -9 -65 -11 -98 -1 -33 -4 -74 -6 -91 -4
-30 -3 -30 22 -17 17 8 31 26 38 50 22 75 22 85 1 90 -21 6 -26 28 -8 39 6 3
16 0 21 -7 7 -11 11 -11 15 -1 7 19 31 14 44 -9 6 -12 8 -35 5 -52 l-6 -31 21
23 c19 20 24 21 33 10 14 -18 58 -11 86 14 38 33 52 19 23 -23 -10 -14 -16
-35 -15 -47 4 -30 -3 -29 -35 5 -16 17 -24 20 -20 10 3 -10 -1 -32 -10 -50
-32 -64 -34 -69 -28 -77 9 -16 45 -20 45 -5 0 8 4 14 9 14 13 0 11 -62 -3 -79
-9 -11 -7 -13 12 -7 19 6 22 4 22 -16 0 -18 -9 -28 -38 -41 -21 -9 -43 -17
-49 -17 -15 0 -37 -29 -29 -37 4 -4 16 -2 26 5 31 19 60 15 60 -9 0 -11 4 -18
9 -15 5 3 7 15 4 25 -5 20 15 40 26 25 7 -11 61 -15 61 -4 0 12 37 50 49 50 6
0 11 9 11 20 0 14 7 20 22 20 12 0 32 9 44 21 12 12 27 18 33 14 19 -11 12
-43 -11 -51 -12 -3 -36 -19 -52 -35 -17 -16 -34 -29 -38 -29 -5 0 -8 -11 -8
-25 0 -34 10 -31 40 10 28 39 60 47 60 15 0 -11 -8 -24 -17 -27 -10 -4 -21
-12 -25 -19 -4 -6 -20 -15 -35 -19 -28 -6 -113 -90 -113 -112 0 -6 -3 -13 -7
-15 -5 -1 -15 -24 -24 -50 l-17 -48 25 0 c14 0 39 10 55 22 l31 21 17 -21 c17
-21 17 -21 39 -1 11 11 21 23 21 27 0 4 18 15 39 26 28 13 48 16 68 11 15 -5
30 -8 33 -7 3 0 54 3 113 6 59 3 111 7 115 10 4 2 14 0 22 -5 12 -8 12 -12 3
-16 -7 -2 -13 -11 -13 -19 0 -16 2 -16 -67 -18 -28 -1 -55 -5 -59 -9 -4 -4
-22 -7 -41 -7 -23 0 -33 -5 -33 -15 0 -8 -4 -15 -10 -15 -5 0 -10 7 -10 15 0
8 -7 15 -15 15 -8 0 -15 -4 -15 -9 0 -5 7 -11 15 -15 19 -7 20 -35 1 -42 -8
-3 -12 -12 -9 -20 6 -17 50 -19 56 -1 2 7 8 8 13 3 5 -5 4 -11 -3 -13 -12 -4
-19 -33 -9 -33 2 0 12 -3 21 -6 13 -5 15 -2 10 17 -5 20 -2 24 20 25 28 2 32
-12 10 -43 -8 -12 -12 -28 -9 -37 9 -23 -19 -20 -41 4 -10 11 -38 25 -61 31
-35 9 -43 16 -48 40 -5 25 -10 29 -41 29 -22 0 -35 -5 -35 -13 0 -8 -24 -37
-54 -65 -66 -61 -84 -90 -61 -98 8 -3 15 -15 15 -25 0 -16 8 -19 50 -19 40 0
48 3 44 15 -4 8 -2 15 4 15 5 0 12 -7 16 -15 3 -8 13 -15 21 -15 9 0 14 4 11
9 -8 12 3 41 15 41 5 0 9 -11 9 -25 0 -19 9 -29 35 -42 19 -9 35 -24 35 -33 0
-9 3 -20 7 -23 9 -9 64 44 57 55 -3 4 -1 8 5 8 21 0 22 -22 2 -56 -24 -41 -26
-60 -7 -67 14 -5 36 10 36 25 0 4 10 19 22 33 23 26 44 32 50 15 2 -6 18 4 37
22 19 18 39 34 45 34 6 1 19 2 29 3 9 0 17 6 17 11 0 16 39 55 47 47 4 -4 1
-22 -5 -40 -16 -45 -15 -67 3 -67 20 0 19 -44 -1 -76 -13 -19 -14 -28 -5 -37
8 -8 11 -4 11 15 0 25 2 26 38 21 40 -7 82 -29 82 -45 0 -5 -15 -6 -34 -3 -42
8 -76 -1 -76 -21 0 -19 -36 -18 -44 1 -7 19 -50 19 -66 0 -9 -11 -9 -26 0 -67
18 -77 23 -83 64 -81 29 2 36 -1 36 -15 0 -26 -23 -72 -36 -72 -23 0 -33 -46
-19 -86 13 -37 14 -37 15 -10 0 16 8 36 18 45 11 9 18 29 18 46 -1 23 3 30 16
29 14 -1 15 2 8 16 -17 31 -11 58 18 89 30 34 82 52 82 30 0 -8 -14 -26 -32
-41 -39 -32 -32 -46 13 -24 17 9 35 13 40 10 5 -3 9 4 9 15 0 11 -4 23 -10 26
-19 12 -11 38 9 32 14 -3 21 2 25 16 3 12 3 23 1 26 -3 2 -5 -1 -5 -7 0 -7 -6
-12 -14 -12 -9 0 -13 11 -12 33 2 28 5 32 29 30 38 -3 57 -25 57 -67 0 -20 5
-36 10 -36 6 0 10 7 10 15 0 9 9 15 21 15 19 0 21 -4 15 -32 -7 -38 -32 -61
-58 -52 -12 3 -18 0 -18 -10 0 -9 5 -16 10 -16 6 0 10 -15 10 -34 0 -26 -5
-36 -20 -41 -20 -6 -29 -35 -11 -35 5 0 11 -8 13 -18 4 -14 13 -17 44 -14 21
1 56 3 77 2 27 0 39 4 44 17 4 9 1 19 -5 21 -7 2 -12 8 -12 14 0 6 6 8 14 5
18 -7 23 7 21 58 -1 22 3 43 9 47 8 5 7 8 -1 8 -8 0 -13 14 -13 36 0 28 -3 35
-15 30 -18 -6 -75 24 -75 41 0 21 21 25 41 7 18 -17 19 -16 19 19 0 29 3 35
16 30 9 -3 13 -12 9 -21 -5 -12 -1 -12 15 3 20 18 20 18 20 -3 0 -13 6 -22 15
-22 8 0 15 9 15 20 0 11 7 20 15 20 8 0 15 -9 15 -20 0 -11 -6 -20 -13 -20
-18 0 -39 -60 -27 -75 6 -7 8 -21 4 -31 -4 -12 3 -9 20 11 14 17 26 37 26 45
0 16 38 45 48 36 3 -3 0 -22 -6 -43 -7 -23 -8 -42 -2 -53 12 -22 43 -35 48
-21 6 17 32 13 32 -4 0 -8 -7 -15 -15 -15 -7 0 -18 -8 -24 -17 -5 -10 -13 -15
-17 -11 -3 4 -18 -2 -32 -12 -13 -11 -32 -20 -41 -20 -9 0 -21 -8 -26 -19 -6
-10 -20 -36 -32 -57 -11 -22 -23 -48 -25 -59 -1 -11 -7 -23 -13 -27 -6 -4 -2
-8 8 -8 9 0 17 -4 17 -10 0 -5 10 -10 23 -10 13 0 28 -5 35 -12 9 -9 12 -9 12
0 0 7 7 12 16 12 12 0 15 -7 12 -25 -3 -13 -1 -22 3 -19 5 3 9 12 9 21 0 30
24 83 37 83 7 0 13 5 13 10 0 6 7 10 15 10 22 0 18 -14 -7 -25 -33 -15 -33
-33 -1 -37 22 -2 28 -8 27 -26 0 -16 3 -19 10 -12 16 16 33 12 39 -10 4 -16
12 -20 39 -18 27 3 33 0 33 -17 0 -11 -4 -20 -10 -20 -14 -1 -55 -28 -55 -37
0 -5 20 -8 45 -8 38 0 47 4 56 24 8 16 22 26 47 29 68 12 69 -7 3 -72 l-50
-49 37 -7 c23 -4 38 -3 40 4 2 6 9 11 16 11 7 0 22 11 34 25 27 30 52 33 52 5
0 -23 -46 -69 -69 -70 -10 0 -12 -8 -7 -30 5 -25 2 -30 -14 -30 -11 0 -20 7
-20 15 0 33 -68 6 -91 -36 -6 -13 -7 -25 -1 -32 5 -7 12 -31 16 -53 l6 -42
-43 -10 c-23 -6 -48 -20 -54 -31 -11 -17 -10 -19 1 -15 8 3 17 1 21 -5 8 -14
52 -14 60 -1 3 6 13 10 21 10 12 0 13 -8 8 -34 -4 -23 -1 -42 8 -55 14 -20 16
-17 33 44 11 36 22 65 26 65 5 0 15 -10 24 -22 12 -16 19 -19 22 -10 6 14 23
16 23 2 0 -15 -33 -50 -47 -50 -16 0 -43 -52 -43 -84 0 -18 7 -27 23 -31 30
-8 61 -51 51 -73 -4 -9 -6 -20 -6 -24 1 -5 -3 -8 -8 -8 -6 0 -16 -11 -22 -25
-6 -14 -17 -25 -24 -25 -14 0 -29 -33 -16 -38 5 -1 17 -9 28 -16 15 -12 23
-11 54 5 38 20 100 17 100 -4 0 -6 11 0 25 13 14 13 32 21 42 18 16 -4 18 0
15 28 -2 19 0 46 5 61 12 33 7 53 -13 53 -22 0 -17 15 10 29 19 11 29 10 55
-4 24 -12 31 -21 26 -33 -5 -14 -4 -15 6 -4 17 16 29 15 29 -3 0 -9 6 -12 17
-8 12 5 15 2 11 -8 -4 -9 2 -21 14 -28 25 -15 43 -1 53 42 6 21 4 27 -8 27 -9
0 -19 9 -22 20 -4 13 -19 23 -36 27 -25 5 -30 10 -27 31 2 19 10 26 31 28 15
1 27 -2 27 -7 0 -5 -4 -9 -10 -9 -5 0 -10 -7 -10 -15 0 -9 6 -12 15 -9 9 4 15
19 15 39 0 37 17 56 31 34 6 -10 9 -11 9 -1 0 6 7 12 16 12 14 0 16 -7 11 -40
-3 -22 -1 -43 5 -46 6 -4 8 -23 4 -46 -6 -36 -5 -38 13 -28 26 13 31 13 31 -5
0 -8 -11 -22 -25 -31 -19 -12 -25 -25 -25 -50 0 -23 5 -34 14 -34 17 0 48 39
40 52 -7 11 17 10 35 -1 8 -5 11 -16 8 -25 -5 -11 -1 -16 13 -16 27 0 25 -23
-2 -35 -30 -13 -29 -39 0 -43 20 -3 23 0 18 16 -8 24 25 36 49 18 26 -19 10
-59 -33 -80 -20 -10 -44 -22 -52 -26 -9 -4 -14 -18 -12 -35 3 -22 1 -27 -12
-22 -14 6 -15 3 -6 -13 6 -11 8 -25 5 -30 -3 -5 -1 -11 5 -15 17 -10 12 -45
-7 -45 -9 0 -14 -3 -11 -6 3 -3 32 -1 64 5 39 8 60 8 62 1 2 -6 10 -7 22 0 10
5 26 7 34 4 9 -3 16 -1 16 5 0 6 4 11 9 11 13 0 10 -43 -4 -52 -5 -4 -22 -8
-37 -8 -16 0 -28 -4 -28 -9 0 -16 -30 -21 -56 -9 -20 9 -27 9 -34 -2 -4 -7
-17 -11 -29 -7 -12 3 -21 1 -21 -4 0 -13 -64 -11 -78 3 -9 9 -18 8 -37 -2 -21
-11 -30 -12 -45 -2 -11 7 -32 12 -47 12 -14 0 -34 7 -44 16 -22 20 -100 24
-114 6 -6 -8 -31 -15 -55 -17 -38 -4 -51 -11 -83 -46 -20 -23 -37 -48 -37 -55
0 -8 -11 -16 -24 -20 -14 -3 -27 -12 -30 -20 -3 -8 -14 -14 -24 -14 -11 0 -25
-6 -31 -14 -10 -12 -7 -18 18 -30 16 -9 37 -16 46 -16 8 0 15 -9 15 -20 0 -17
-7 -20 -43 -20 -24 0 -48 5 -54 11 -9 9 -11 7 -9 -7 2 -12 15 -23 34 -29 18
-5 32 -13 32 -17 0 -19 37 -5 52 20 10 15 29 41 42 57 l26 30 -2 -37 c-1 -21
-6 -38 -11 -38 -4 0 -6 -4 -3 -9 3 -5 -1 -12 -10 -15 -23 -9 -14 -51 11 -51
14 0 21 8 23 28 3 25 6 28 32 22 30 -7 70 11 70 32 0 13 33 35 47 32 4 -1 16
1 26 6 14 6 15 10 5 22 -17 21 6 32 62 30 40 -1 45 1 42 19 -3 23 41 59 58 49
6 -3 10 1 10 9 0 9 7 16 15 16 15 0 21 -26 8 -32 -29 -12 -69 -108 -45 -108
10 0 62 -84 62 -100 0 -8 8 -22 17 -32 13 -14 14 -21 5 -30 -14 -14 -41 11
-60 57 -13 32 -68 75 -95 75 -10 0 -38 -10 -62 -21 -36 -17 -43 -24 -34 -35 6
-8 8 -22 3 -36 -4 -13 -7 -29 -6 -35 2 -7 -7 -14 -20 -15 -13 -1 -30 -2 -38
-3 -8 0 -23 -6 -34 -12 -18 -10 -18 -11 3 -32 13 -13 29 -20 37 -17 8 3 25 -1
38 -9 26 -18 34 -12 55 42 15 37 55 78 69 69 18 -11 40 5 35 25 -4 15 -2 18
11 13 9 -3 16 -11 16 -18 0 -20 -30 -56 -48 -56 -20 0 -62 -61 -62 -89 0 -27
26 -44 57 -38 103 19 213 74 183 92 -18 11 -11 35 11 35 15 0 19 -5 15 -15 -3
-9 3 -19 14 -25 26 -14 25 -26 -1 -33 -12 -3 -18 -10 -15 -15 3 -6 -7 -16 -22
-23 -28 -12 -29 -13 -13 -40 20 -36 7 -48 -22 -22 -37 35 -114 33 -100 -2 4
-11 -3 -15 -28 -15 -40 0 -53 8 -63 35 -7 20 -8 20 -22 1 -8 -11 -14 -29 -14
-40 0 -39 -12 -65 -26 -59 -17 6 -19 53 -3 53 7 0 1 8 -12 18 -27 21 -132 72
-148 72 -12 0 -61 47 -61 59 0 17 -28 33 -35 21 -4 -6 -17 -15 -29 -20 l-21
-9 23 0 c17 -1 22 -7 22 -27 0 -23 -4 -25 -32 -23 -38 2 -126 -19 -134 -33
-11 -17 26 -46 54 -43 26 3 62 -19 62 -37 0 -4 -22 -8 -50 -8 -55 0 -67 -15
-21 -25 29 -6 46 -28 35 -46 -3 -5 0 -9 5 -9 6 0 11 -4 11 -10 0 -5 -7 -10
-15 -10 -8 0 -15 4 -15 8 0 5 -18 14 -40 21 -21 6 -52 23 -69 37 l-29 25 -37
-21 c-39 -22 -70 -26 -80 -10 -13 21 -27 10 -21 -16 8 -29 -1 -64 -15 -64 -5
0 -9 9 -9 20 0 13 -7 20 -19 20 -19 0 -19 11 4 87 7 22 -29 83 -49 83 -5 0
-33 25 -61 55 -29 30 -60 55 -69 55 -9 0 -14 -4 -11 -10 3 -5 2 -10 -3 -10 -6
0 -8 -9 -5 -20 4 -14 0 -20 -12 -20 -14 0 -16 5 -10 28 22 78 -4 106 -54 58
-21 -20 -36 -26 -64 -24 -26 2 -37 8 -37 19 0 18 -63 89 -78 89 -5 0 -15 -7
-22 -15 -7 -8 -21 -15 -31 -15 -23 0 -61 -53 -53 -74 3 -9 10 -16 15 -16 5 0
9 -9 9 -20 0 -13 5 -18 15 -14 12 5 14 0 9 -24 -5 -26 -3 -30 25 -35 18 -4 31
-13 31 -22 0 -8 7 -15 15 -15 8 0 15 6 15 13 0 14 38 51 63 60 13 5 17 1 17
-16 0 -13 -5 -28 -12 -35 -9 -9 -7 -13 5 -18 26 -10 20 -25 -7 -18 -16 4 -25
1 -30 -11 -7 -20 20 -81 44 -98 17 -12 36 -112 22 -121 -17 -10 -44 23 -41 52
4 36 -16 61 -85 107 -26 19 -53 44 -60 56 -16 33 -30 33 -66 2 -31 -26 -33
-26 -46 -8 -8 10 -14 25 -14 32 0 7 -5 13 -11 13 -7 0 -9 -9 -5 -24 5 -20 2
-23 -19 -23 -14 0 -23 3 -20 7 3 4 -14 10 -37 13 -29 4 -51 0 -77 -14 -20 -10
-43 -19 -51 -19 -8 0 -30 -15 -47 -34 l-33 -33 25 -11 c14 -6 25 -17 25 -23 0
-19 79 -89 94 -83 8 3 18 -1 22 -8 12 -19 14 -70 3 -90 -12 -23 -39 -23 -39
-1 0 15 -2 14 -14 -2 -14 -19 -15 -19 -33 4 l-19 23 -37 -35 c-36 -34 -47 -57
-27 -57 6 0 10 5 10 10 0 6 15 10 34 10 19 0 38 5 41 10 3 6 17 7 30 4 14 -3
39 -1 57 5 17 6 34 8 37 3 3 -4 21 -9 39 -10 28 -2 34 2 43 28 7 19 18 30 30
30 10 0 19 5 19 10 0 6 7 10 15 10 8 0 15 -4 15 -10 0 -5 -4 -10 -10 -10 -5 0
-10 -6 -10 -13 0 -7 -10 -18 -22 -26 -20 -12 -20 -14 -4 -23 18 -10 67 -3 76
11 3 5 15 11 28 15 27 9 30 -9 6 -35 -15 -17 -15 -18 2 -18 35 0 79 -14 107
-33 58 -41 78 -39 127 11 25 25 60 57 78 71 28 22 32 32 34 73 1 26 4 47 7 47
3 0 17 19 31 41 25 41 55 49 55 14 0 -15 17 -25 78 -46 42 -15 79 -23 83 -18
8 14 74 11 75 -3 0 -7 23 -25 52 -39 37 -18 57 -36 70 -62 18 -36 20 -37 60
-31 23 4 43 7 44 8 1 1 -2 19 -7 41 -10 44 -6 55 20 55 21 0 31 -20 24 -47 -3
-10 1 -26 9 -36 12 -17 14 -15 27 25 15 47 28 68 41 68 13 0 11 -48 -3 -52 -7
-3 -8 -10 -3 -17 6 -11 10 -10 17 3 11 20 68 22 68 2 0 -18 28 -25 56 -15 17
6 23 3 29 -14 4 -14 8 -17 12 -9 2 6 12 12 20 12 9 0 13 6 9 15 -7 20 3 45 19
45 7 0 23 -16 36 -35 13 -19 27 -35 32 -35 4 0 7 -4 7 -10 0 -5 -13 -10 -30
-10 -16 0 -30 5 -30 11 0 8 -5 8 -15 -1 -8 -7 -15 -22 -15 -34 -1 -32 -32 -63
-60 -60 -14 1 -31 3 -37 3 -7 1 -13 10 -13 21 0 18 -3 19 -22 9 -13 -7 -26
-17 -30 -23 -4 -6 -16 0 -31 18 -20 24 -29 27 -55 21 -30 -6 -49 -29 -33 -40
5 -2 12 -17 16 -32 3 -16 12 -35 19 -43 8 -8 16 -26 19 -40 3 -14 13 -34 20
-45 14 -18 15 -15 23 35 5 29 14 55 20 57 14 5 36 -45 27 -60 -4 -7 -6 -25 -4
-41 2 -24 0 -28 -17 -24 -18 5 -18 4 -5 -23 18 -37 30 -44 71 -40 22 2 32 -1
28 -8 -4 -5 1 -14 10 -19 11 -6 15 -16 10 -27 -6 -17 -8 -16 -27 4 -19 20 -22
21 -38 7 -10 -9 -23 -16 -29 -16 -7 0 -12 -4 -12 -10 0 -5 -5 -10 -11 -10 -6
0 -9 7 -5 15 3 9 0 15 -8 15 -8 0 -18 12 -24 28 -19 50 -22 57 -47 97 -14 22
-34 57 -46 79 -19 35 -23 38 -54 33 -29 -5 -38 -1 -60 24 -14 17 -25 41 -25
54 0 13 -6 29 -12 34 -7 6 -26 22 -42 36 -33 28 -67 32 -86 10 -10 -12 -9 -15
8 -15 11 0 32 -15 47 -32 14 -18 37 -46 50 -63 14 -16 25 -33 25 -37 0 -4 7
-8 15 -8 8 0 15 -3 16 -7 4 -39 24 -86 43 -102 21 -18 20 -31 -2 -31 -21 0
-47 28 -55 61 -3 13 -33 52 -67 87 -33 35 -60 71 -60 80 0 10 -9 24 -20 32
-11 8 -20 19 -20 25 0 18 -50 65 -70 65 -10 0 -20 4 -22 8 -1 5 -22 12 -45 16
-35 5 -43 3 -43 -9 0 -8 -5 -25 -12 -38 -6 -12 -14 -29 -18 -37 -4 -8 -21 -18
-39 -23 -36 -9 -47 -16 -97 -65 -34 -32 -43 -52 -25 -52 5 0 12 -9 16 -19 3
-11 15 -23 26 -26 10 -4 19 -15 19 -26 0 -28 -35 -16 -68 23 -22 26 -26 28
-42 13 -15 -13 -21 -14 -43 -2 -15 8 -24 16 -22 19 3 3 -13 8 -35 11 -23 3
-49 12 -58 20 -19 17 -48 23 -142 33 -119 13 -115 14 -113 -26 4 -57 5 -61 18
-50 7 5 15 7 19 3 4 -4 4 1 0 11 -5 14 -3 17 12 14 13 -2 18 -11 17 -26 -2
-15 2 -20 11 -16 8 3 24 0 35 -6 17 -9 22 -8 27 5 8 19 24 20 24 0 0 -10 8 -7
26 10 15 14 31 25 35 25 20 0 7 -52 -21 -84 -38 -43 -73 -53 -109 -30 -33 22
-84 20 -130 -5 -12 -7 -32 -11 -42 -8 -24 6 -69 -29 -69 -54 0 -15 5 -18 24
-13 13 3 27 1 30 -5 4 -5 12 -8 19 -5 16 6 57 -32 57 -51 0 -20 -10 -19 -40 5
-14 11 -28 20 -32 20 -14 0 -8 -27 7 -40 9 -7 13 -21 10 -31 -9 -28 14 -33 25
-5 11 29 13 30 41 16 15 -8 19 -7 19 5 0 8 7 15 15 15 11 0 14 9 13 32 -3 30
0 34 40 46 47 16 72 5 72 -29 0 -21 -12 -24 -40 -9 -15 8 -21 6 -30 -9 -5 -11
-10 -29 -10 -40 0 -14 -6 -21 -19 -21 -11 0 -23 -9 -26 -21 -6 -16 -13 -20
-36 -17 -28 4 -39 -5 -19 -17 6 -3 10 -14 10 -24 0 -10 9 -26 20 -36 12 -10
29 -37 39 -59 10 -23 28 -51 40 -64 24 -24 83 -52 112 -52 24 0 35 -20 18 -32
-15 -10 -165 -6 -175 5 -4 4 -1 13 5 21 11 13 8 16 -14 22 -16 4 -24 11 -21
20 3 7 1 16 -4 19 -6 4 -10 12 -10 20 0 8 -11 26 -25 41 -14 15 -25 33 -25 40
0 7 -11 21 -24 31 -13 10 -26 28 -30 38 -4 11 -18 28 -32 39 -22 15 -28 16
-35 5 -7 -10 -11 -11 -17 -2 -4 6 -19 14 -33 18 -26 6 -41 28 -68 97 -7 19
-15 26 -26 22 -10 -4 -15 0 -15 10 0 21 -20 56 -45 79 -11 10 -32 29 -47 43
-16 14 -28 21 -28 15 0 -20 -19 -11 -22 11 -2 17 -15 25 -58 37 -30 8 -60 20
-67 26 -6 7 -32 18 -57 25 -26 7 -49 17 -52 21 -7 12 -61 11 -69 -1 -4 -6 -21
-17 -38 -25 -81 -37 -112 -63 -108 -87 1 -12 8 -26 13 -29 6 -4 8 -14 5 -22
-4 -11 0 -13 14 -10 15 4 19 0 19 -17 0 -17 -4 -21 -20 -17 -23 6 -31 -3 -39
-46 -9 -41 -23 -43 -40 -7 -16 38 -8 76 19 83 20 5 28 27 10 27 -5 0 -10 8
-10 17 0 14 -3 14 -19 -4 -11 -12 -26 -23 -33 -25 -15 -5 -20 -128 -5 -128 5
0 7 -7 4 -15 -4 -8 -2 -17 3 -20 20 -12 9 -24 -22 -23 -40 1 -58 14 -58 40 0
38 -24 11 -52 -58 -28 -70 -36 -124 -18 -124 5 0 22 14 37 30 22 26 34 30 75
30 47 0 48 1 48 31 0 17 -4 28 -10 24 -6 -3 -10 -1 -10 4 0 6 13 11 29 11 25
0 32 6 47 40 17 37 34 53 34 30 0 -5 7 -10 16 -10 10 0 14 -6 11 -14 -4 -11
10 -16 61 -22 73 -8 71 -8 154 1 48 5 57 10 60 28 2 12 11 23 21 25 13 3 17
-3 17 -28 0 -26 3 -30 18 -26 10 4 26 0 36 -7 15 -11 16 -17 5 -40 -13 -30
-21 -32 -50 -17 -16 9 -24 6 -43 -15 -13 -14 -34 -25 -49 -25 -44 0 -27 -33
21 -43 23 -4 42 -12 42 -17 0 -4 9 -6 20 -3 14 4 20 0 20 -12 0 -16 -7 -17
-61 -11 -39 5 -59 4 -55 -3 4 -5 -10 -15 -29 -22 -19 -7 -35 -19 -35 -26 0 -7
16 -30 34 -51 28 -31 41 -38 67 -36 17 1 36 7 42 13 16 16 37 14 37 -3 0 -8
-9 -18 -20 -21 -21 -7 -28 -25 -10 -25 6 0 10 -7 10 -15 0 -17 -27 -20 -32 -4
-5 16 -48 1 -48 -17 0 -16 -2 -16 -24 -8 -9 3 -16 16 -16 28 0 21 -17 46 -31
46 -4 0 -11 -15 -14 -33 -4 -17 -12 -38 -18 -45 -8 -11 -7 -16 6 -23 9 -6 17
-14 17 -19 0 -18 -29 -10 -43 10 -13 18 -15 19 -21 5 -3 -9 -10 -14 -16 -10
-14 8 -52 -33 -48 -53 2 -12 15 -18 41 -20 39 -3 44 -11 26 -45 -17 -32 -17
-32 -40 -4 -13 18 -30 27 -49 27 -15 0 -33 7 -40 15 -14 17 -5 34 39 72 14 13
20 23 14 23 -7 0 -13 7 -13 15 0 8 7 15 15 15 8 0 15 -7 15 -15 0 -8 5 -15 11
-15 5 0 7 4 4 10 -3 5 1 10 9 10 9 0 16 5 16 11 0 6 7 9 14 6 10 -4 13 -1 10
8 -3 8 4 24 15 37 12 12 20 27 18 32 -5 15 -134 8 -168 -9 -16 -9 -41 -14 -56
-13 -14 2 -28 -3 -30 -10 -3 -7 1 -10 11 -6 9 3 16 2 16 -4 0 -9 30 -23 54
-26 5 -1 17 12 26 28 18 34 40 45 40 21 0 -24 -32 -76 -45 -72 -5 2 -17 -6
-27 -17 l-17 -21 -22 23 c-17 19 -23 21 -30 11 -5 -9 -2 -16 11 -21 20 -7 56
-66 46 -75 -3 -3 6 -14 19 -25 14 -11 25 -28 25 -38 0 -11 9 -24 20 -30 15 -8
19 -17 15 -31 -4 -11 -2 -19 4 -19 6 0 11 -5 11 -11 0 -7 -12 -9 -35 -5 -19 4
-35 3 -35 -1 1 -24 14 -52 22 -47 5 3 50 7 99 8 82 2 91 1 111 -21 27 -29 30
-29 66 2 16 13 53 30 83 36 35 8 63 21 82 40 30 31 57 38 57 15 0 -18 -46 -66
-63 -66 -8 0 -20 -7 -27 -15 -7 -8 -23 -15 -36 -15 -13 0 -24 -4 -24 -9 0 -14
-68 -51 -94 -51 -13 0 -40 7 -61 16 -20 8 -53 13 -73 11 l-37 -3 32 -8 c21 -6
33 -15 35 -29 2 -17 11 -22 40 -22 20 -1 48 -9 63 -19 14 -9 48 -20 75 -23 51
-6 63 -20 35 -43 -17 -14 -61 -6 -85 15 -8 7 -34 16 -57 20 -34 5 -44 4 -49
-9 -3 -9 -10 -16 -15 -16 -13 0 -49 33 -49 45 0 13 -35 35 -71 45 -22 7 -27 5
-22 -6 8 -21 -20 -17 -50 6 -14 11 -31 20 -37 20 -7 0 -25 9 -41 21 -21 14
-38 19 -55 15 -25 -7 -24 -26 1 -26 8 0 21 -10 29 -22 10 -13 36 -27 68 -35
28 -8 54 -16 57 -19 11 -11 -26 -24 -72 -24 -43 0 -52 4 -79 35 -17 19 -35 32
-40 29 -5 -3 -15 -1 -22 5 -9 8 -18 7 -32 -4 -18 -14 -18 -14 -1 -15 12 0 17
-6 15 -17 -4 -22 -28 -29 -28 -9 0 9 -5 16 -11 16 -7 0 -9 11 -6 29 9 42 -11
54 -79 49 -31 -3 -59 -10 -63 -16 -4 -7 -30 -13 -59 -14 -58 -3 -68 -18 -25
-37 19 -9 29 -9 31 -2 2 6 10 11 17 11 7 0 15 4 17 10 2 5 18 12 36 16 28 6
32 4 32 -15 0 -11 -5 -21 -12 -21 -9 0 -9 -3 0 -12 18 -18 14 -33 -13 -48 -14
-7 -25 -17 -25 -21 0 -10 49 -24 68 -20 8 1 20 -5 26 -15 7 -9 22 -18 32 -19
78 -8 113 -19 142 -46 36 -34 48 -36 57 -10 5 17 13 18 68 14 107 -8 192 -22
195 -33 2 -5 8 -8 12 -5 18 11 60 -7 60 -26 0 -23 -36 -26 -59 -4 -12 10 -48
15 -133 17 -115 3 -116 3 -142 -24 -29 -32 -44 -35 -53 -10 -13 36 -42 53 -98
55 -30 1 -55 6 -55 10 0 5 -5 5 -11 1 -6 -3 -14 -2 -18 5 -5 7 -17 5 -41 -8
-46 -24 -198 -45 -216 -30 -10 9 -15 7 -20 -4 -3 -9 -24 -23 -47 -32 -40 -16
-41 -18 -18 -26 16 -6 21 -14 17 -25 -4 -9 -2 -22 4 -29 14 -17 50 -7 43 11
-9 23 12 16 22 -8 6 -13 19 -23 30 -24 100 -4 95 -3 101 -33 4 -20 11 -28 20
-24 25 9 30 -29 6 -45 -14 -9 -22 -25 -22 -43 0 -22 -6 -30 -26 -35 -28 -7
-39 0 -47 31 -5 19 -5 19 -12 -2 -4 -13 -13 -23 -21 -23 -7 0 -22 -9 -33 -21
-27 -29 -85 -23 -89 9 -4 24 -27 30 -35 10 -3 -9 -11 -6 -26 9 -21 23 -21 23
-41 3 -11 -11 -20 -27 -20 -35 0 -8 -4 -15 -10 -15 -14 0 -32 38 -25 53 4 6
-1 3 -9 -7 -9 -11 -16 -27 -16 -36 0 -16 -18 -40 -31 -40 -14 0 -20 52 -8 66
20 25 -4 38 -26 14 -19 -21 -50 -27 -60 -10 -3 6 -12 10 -20 10 -19 0 -26 -55
-26 -210 -1 -151 14 -238 63 -372 16 -45 32 -94 35 -108 3 -14 10 -31 15 -37
10 -12 37 -149 38 -185 0 -17 -15 -18 -180 -18 -113 0 -180 4 -180 10 0 6 -7
10 -15 10 -8 0 -15 -4 -15 -10 0 -15 -40 -12 -41 3 0 9 -2 9 -6 0 -7 -18 -143
-18 -144 0 0 9 -2 9 -6 0 -7 -18 -359 -18 -367 0 -5 10 -7 10 -12 0 -7 -15
-60 -17 -69 -3 -8 13 -45 13 -45 0 0 -5 -25 -10 -55 -10 -49 0 -55 2 -55 21 0
11 12 30 26 42 54 45 94 89 88 98 -3 5 0 9 5 9 6 0 11 7 11 15 0 8 5 15 10 15
6 0 10 7 10 15 0 8 9 20 20 27 11 7 20 16 20 21 0 4 9 17 20 29 11 12 23 36
26 54 3 18 12 38 20 45 8 6 14 20 14 30 0 10 5 21 10 24 6 4 8 11 5 16 -4 5
-2 9 3 9 6 0 8 9 5 20 -3 11 -1 20 5 20 10 0 28 73 23 98 -1 6 3 12 9 12 6 0
10 34 10 89 l0 89 -30 11 c-21 7 -30 7 -30 -1 0 -6 -10 -7 -27 -3 -16 4 -43 7
-61 6 -20 -1 -34 4 -38 13 -3 8 -16 17 -30 20 -16 4 -24 14 -25 29 0 12 -3 16
-6 10 -2 -7 -11 -13 -19 -13 -8 0 -14 -8 -14 -18 0 -44 -82 -77 -88 -36 -2 12
-12 24 -23 27 -19 5 -20 12 -17 65 2 46 0 58 -10 54 -8 -2 -18 -15 -23 -28 -9
-25 -38 -31 -87 -17 -21 5 -23 11 -20 48 3 41 3 41 -24 31 -20 -7 -24 -13 -17
-22 17 -21 0 -64 -26 -64 -13 0 -25 -7 -29 -15 -3 -8 -14 -15 -25 -15 -22 0
-74 -43 -64 -54 8 -8 -27 -35 -46 -36 -10 0 -12 8 -8 29 4 20 2 31 -8 35 -18
6 -20 42 -3 52 7 5 3 10 -13 16 -15 6 -25 5 -27 -1 -5 -16 -28 -13 -42 4 -7 9
-19 14 -27 11 -7 -3 -13 -2 -13 3 0 4 -34 8 -74 7 -48 -1 -71 -5 -65 -11 17
-17 9 -40 -22 -57 -39 -23 -52 -23 -74 2 -19 21 -14 50 10 50 9 0 15 9 15 23
-1 19 -2 20 -13 7 -14 -17 -52 -40 -67 -40 -15 0 -12 50 3 51 6 0 -2 7 -19 14
-18 8 -46 12 -66 9 -31 -6 -34 -9 -30 -35 3 -24 1 -29 -15 -29 -11 0 -33 -13
-49 -30 -34 -34 -64 -39 -71 -10 -3 11 -11 20 -18 20 -7 0 -22 16 -34 35 -17
30 -23 34 -39 24 -10 -6 -17 -23 -17 -38 0 -22 -4 -26 -27 -23 -16 1 -28 -1
-28 -6 0 -17 -44 -21 -73 -7 l-29 14 7 -48 7 -49 -34 -4 c-60 -9 -108 44 -50
56 28 7 58 51 41 62 -5 3 -9 14 -9 26 0 17 4 19 25 14 21 -5 25 -3 25 17 0 13
5 28 10 33 8 8 6 15 -6 25 -17 14 -24 8 -26 -18 0 -5 -9 -14 -19 -21 -11 -7
-19 -20 -19 -28 0 -8 -10 -14 -23 -14 -13 0 -26 -9 -32 -22 -6 -11 -25 -29
-42 -38 -18 -10 -30 -20 -26 -24 3 -3 1 -6 -6 -6 -7 0 -9 -4 -6 -10 3 -5 -4
-10 -15 -10 -12 0 -24 8 -26 18 -6 22 -49 42 -91 42 -18 0 -33 4 -33 9 0 20
-43 24 -56 6 -15 -20 -56 -14 -81 10 -17 17 -51 19 -73 5 -17 -11 -10 -13 38
-10 23 1 32 -3 32 -15 0 -21 -28 -31 -50 -18 -13 9 -19 7 -28 -8 -16 -25 -44
-24 -61 2 -10 16 -10 23 -1 29 8 5 5 9 -9 13 -15 3 -21 13 -21 31 0 14 5 26
12 26 6 0 4 6 -7 13 -20 15 -12 42 11 33 8 -3 14 1 14 11 0 13 8 15 40 10 33
-4 37 -3 26 8 -21 22 -123 8 -129 -17 -4 -15 -11 -17 -31 -12 -17 4 -31 1 -42
-10 -10 -10 -24 -14 -36 -10 -14 4 -18 2 -14 -5 9 -14 -11 -51 -29 -51 -15 0
-45 37 -45 56 0 7 14 16 32 19 l31 7 -26 16 c-15 9 -27 22 -27 28 0 24 -30 23
-46 -1 -17 -27 -48 -33 -61 -12 -12 18 -53 39 -53 27 0 -5 5 -10 10 -10 6 0
10 -17 8 -40 -1 -22 -5 -40 -10 -40 -4 0 -16 -10 -28 -22 -18 -19 -22 -20 -34
-8 -14 14 -12 49 5 108 8 28 -26 36 -67 16 -40 -19 -51 -45 -30 -72 7 -9 6
-16 -3 -21 -7 -5 -12 -11 -12 -15 3 -21 -2 -26 -34 -32 -25 -4 -35 -11 -35
-25 0 -11 -4 -19 -9 -19 -5 0 -15 -16 -22 -35 -13 -36 -35 -45 -57 -23 -10 10
-15 10 -21 -1 -13 -21 -46 -9 -49 19 -5 30 -21 52 -33 44 -17 -10 -49 7 -49
26 0 11 10 25 23 31 12 7 26 18 30 25 4 8 18 14 31 14 12 0 26 3 29 6 7 7 -36
44 -51 44 -11 0 -22 34 -22 72 0 33 -33 56 -56 38 -7 -7 -11 -17 -8 -22 4 -6
0 -14 -7 -19 -11 -7 -11 -9 -1 -9 7 0 10 -4 7 -10 -3 -5 -1 -10 5 -10 8 0 8
-6 0 -20 -6 -11 -20 -20 -30 -20 -15 0 -20 7 -20 29 0 36 -9 61 -21 61 -5 0
-7 -11 -3 -25 3 -14 2 -25 -4 -25 -5 0 -24 -3 -41 -6 -23 -5 -31 -3 -31 8 0 8
-10 27 -23 42 -21 24 -28 26 -63 20 -39 -6 -41 -5 -50 27 -8 29 -15 35 -44 39
-52 7 -45 36 12 54 15 5 16 8 2 35 -20 41 -9 81 22 81 13 0 24 -4 24 -10 0 -5
5 -10 12 -10 6 0 4 7 -5 18 -24 26 -22 73 3 79 15 4 18 11 14 28 -3 13 1 28
11 39 9 9 12 16 6 16 -6 0 -11 11 -11 25 0 30 20 33 44 6 10 -11 14 -25 9 -37
-6 -18 -6 -18 10 -2 9 9 17 21 17 26 0 16 30 23 50 12 10 -6 30 -10 44 -10 13
0 26 -5 28 -12 7 -19 28 1 28 27 0 23 3 24 41 20 37 -5 39 -4 26 10 -9 8 -20
15 -26 15 -27 0 -7 86 22 94 22 5 57 -25 57 -51 0 -17 10 -17 31 3 17 15 21
14 59 -16 64 -50 52 -70 -43 -70 -45 -1 -50 -2 -35 -14 10 -7 18 -20 18 -29 0
-17 30 -41 66 -51 19 -6 21 -3 17 34 -4 38 -3 40 25 40 37 0 45 9 26 28 -25
25 2 99 33 88 7 -3 13 -1 13 5 0 6 7 18 16 27 11 10 13 17 5 20 -6 2 -11 20
-11 39 0 30 3 35 20 30 12 -3 23 1 29 10 6 12 19 15 49 11 36 -5 41 -3 46 16
3 13 17 28 31 34 14 6 25 18 25 27 0 8 7 15 15 15 18 0 18 2 4 33 -9 19 -8 30
4 48 14 22 13 26 -4 44 -20 19 -20 19 -26 -3 -3 -14 -13 -22 -27 -22 -12 0
-27 -5 -33 -11 -7 -7 -19 -9 -28 -5 -13 5 -15 14 -11 44 4 20 2 44 -4 52 -8
12 -10 11 -10 -8 0 -14 -8 -26 -24 -32 -34 -13 -38 -24 -15 -43 10 -9 19 -26
19 -38 0 -11 5 -30 11 -41 17 -31 -11 -56 -45 -40 -22 10 -25 9 -28 -11 -2
-12 -11 -23 -20 -25 -14 -3 -18 3 -18 27 0 16 5 33 10 36 6 4 7 11 4 17 -4 6
0 14 7 19 11 6 11 11 1 21 -6 6 -12 19 -12 28 0 11 -9 16 -27 15 -22 0 -30 6
-38 31 -5 16 -18 43 -28 58 -14 21 -17 38 -13 65 12 64 11 94 -1 98 -14 5 -16
-23 -16 -204 0 -51 -3 -93 -7 -93 -5 0 -6 -10 -2 -22 5 -20 3 -21 -43 -15 -26
4 -58 7 -71 7 -17 0 -24 6 -24 20 0 11 7 23 15 26 21 9 19 24 -4 24 -21 0 -33
22 -25 45 4 8 14 15 23 15 10 0 22 14 30 35 8 24 19 35 32 35 14 0 19 7 19 30
0 20 -5 30 -15 30 -8 0 -15 -9 -15 -20 0 -27 -48 -27 -83 0 -14 11 -36 20 -50
20 -14 0 -27 6 -30 14 -7 19 -65 26 -78 10 -8 -10 -16 -11 -30 -4 -13 8 -20 6
-27 -6 -7 -13 -17 -15 -40 -11 -17 3 -45 2 -62 -3 -24 -7 -38 -5 -55 6 -20 13
-27 13 -44 2 -12 -7 -21 -19 -21 -26 0 -17 -27 -27 -43 -14 -8 7 -17 7 -28 -1
-16 -12 -22 -47 -7 -47 17 0 7 -19 -13 -25 -14 -5 -25 -2 -30 6 -8 12 -10 12
-18 1 -4 -8 -21 -12 -37 -10 -23 2 -29 7 -27 26 2 12 -2 22 -7 22 -6 0 -10 6
-10 14 0 20 -27 28 -49 14 -23 -14 -55 -3 -47 17 4 10 -1 15 -14 15 -29 0 -28
47 1 52 l20 3 -21 23 c-26 28 -37 86 -20 107 7 8 22 15 34 16 18 0 18 2 -6 10
-31 12 -38 25 -31 62 4 20 11 27 27 26 55 -5 59 -1 53 41 -3 24 -1 40 5 40 7
0 8 15 4 40 -9 58 11 130 36 130 11 0 22 9 25 20 4 14 14 20 35 20 26 0 29 2
18 15 -7 8 -18 15 -25 15 -8 0 -16 8 -18 18 -3 10 -5 5 -6 -11 -1 -20 -7 -31
-21 -34 -11 -3 -20 -11 -20 -18 0 -7 -7 -19 -16 -26 -15 -12 -16 -8 -13 41 3
46 1 55 -14 58 -12 3 -17 -3 -17 -20 0 -14 -14 -38 -35 -58 -30 -30 -36 -32
-52 -19 -10 8 -21 18 -25 24 -9 12 -17 -12 -15 -45 2 -19 -3 -26 -20 -28 -20
-3 -23 1 -23 29 0 31 -1 32 -17 16 -13 -13 -14 -20 -5 -29 7 -7 12 -15 12 -19
0 -9 -71 0 -83 11 -11 10 3 40 19 40 8 0 14 9 14 19 0 11 4 23 10 26 5 3 10
12 10 20 0 11 -6 12 -30 3 -17 -5 -37 -8 -45 -4 -8 3 -17 1 -20 -4 -8 -13 -45
-13 -45 -1 0 6 4 13 10 16 17 11 11 44 -11 56 -15 8 -20 18 -16 35 4 23 2 24
-24 19 -22 -5 -29 -3 -29 9 0 11 -13 18 -40 22 -40 6 -40 7 -40 50 0 24 -4 44
-10 44 -5 0 -10 14 -10 31 0 25 5 32 31 41 30 10 30 10 9 25 -16 11 -20 23
-17 40 3 19 -1 27 -19 35 -19 9 -24 19 -24 47 -1 33 -2 35 -15 17 -19 -26 -70
-14 -62 14 3 11 1 20 -5 20 -6 0 -8 7 -4 15 3 9 -3 20 -14 27 -24 15 -26 36
-5 45 14 5 14 8 0 29 -19 30 -16 54 10 76 12 10 15 17 8 18 -22 0 -15 48 7 55
11 3 20 12 20 20 0 8 9 17 20 20 23 7 50 -10 50 -31 0 -8 6 -11 15 -8 8 4 15
12 15 19 0 20 36 24 60 8 17 -12 27 -13 46 -4 13 6 30 8 37 5 9 -3 13 4 12 22
0 35 22 43 34 12 8 -20 10 -21 16 -5 4 9 13 17 21 17 8 0 14 9 14 20 0 14 7
20 23 20 17 0 26 -9 35 -34 15 -39 72 -80 87 -62 6 6 11 27 13 46 1 19 8 38
15 42 11 8 54 6 86 -3 9 -2 21 8 29 25 l15 30 18 -25 c46 -59 49 -61 86 -39
36 21 63 17 63 -9 0 -26 50 -21 56 6 4 12 15 23 27 25 16 2 25 13 31 41 5 20
15 37 23 37 7 0 13 5 13 10 0 6 -4 10 -10 10 -5 0 -7 13 -3 31 5 25 2 31 -16
36 -30 8 -25 47 7 51 39 6 24 20 -35 32 -86 17 -109 21 -95 14 6 -3 12 -17 12
-30 0 -19 -6 -26 -29 -30 -17 -4 -38 -15 -47 -25 -24 -27 -44 -24 -44 6 0 18
7 28 26 35 32 12 27 34 -9 38 -21 3 -27 9 -27 27 0 26 -20 38 -41 24 -8 -5
-29 -9 -46 -9 -29 0 -33 3 -33 25 0 16 6 25 16 25 11 0 14 6 8 23 -3 12 -11
24 -15 25 -15 6 -10 49 6 56 8 3 15 12 15 21 0 13 -3 13 -23 3 -12 -7 -25 -17
-29 -23 -14 -20 -19 4 -8 44 12 45 38 65 85 68 73 3 71 3 55 13 -8 5 -33 10
-56 10 -55 0 -79 26 -72 78 l6 38 -34 -4 c-21 -3 -34 0 -34 7 0 6 7 11 16 11
13 0 15 7 11 29 -5 26 -3 29 21 29 14 0 28 5 30 11 8 24 34 9 52 -31 11 -24
20 -35 20 -25 0 9 7 17 15 17 9 0 12 6 9 15 -9 22 35 54 71 53 17 -1 41 4 53
11 13 7 32 9 43 6 11 -4 26 -1 34 5 10 8 20 8 32 2 15 -9 19 -3 33 36 13 38
22 49 48 57 18 5 32 13 32 17 0 10 -3 10 -37 -4 -15 -6 -38 -10 -51 -9 -12 1
-25 -4 -28 -13 -11 -28 -41 -18 -53 16 -9 24 -8 34 1 40 10 6 10 8 0 8 -7 0
-11 4 -8 9 4 5 0 12 -6 14 -10 4 -9 8 2 16 21 15 50 14 50 -3 0 -12 47 -26 93
-26 34 0 16 19 -20 22 -33 3 -38 6 -38 28 0 19 6 26 23 28 13 2 26 10 29 18 3
8 16 14 29 14 15 0 24 6 24 15 0 8 -3 14 -7 14 -21 -3 -33 2 -33 15 0 20 30
42 53 38 36 -6 76 18 87 54 7 19 18 34 26 34 8 0 13 -3 11 -7 -1 -5 2 -8 8 -8
5 0 8 8 7 18 -5 26 36 22 49 -5 7 -18 8 -11 5 29 -4 36 -1 55 9 63 20 17 48 8
60 -18 11 -26 21 -28 29 -6 3 8 10 13 15 9 5 -3 13 5 17 17 4 13 2 24 -5 26
-6 2 -11 12 -11 23 0 14 7 19 25 19 15 0 25 6 25 15 0 30 66 41 105 18 16 -10
17 -14 6 -22 -9 -6 -4 -10 18 -13 32 -5 51 6 51 29 0 7 4 13 9 13 18 0 -3 45
-36 79 -33 34 -33 34 -33 9 0 -14 -7 -31 -16 -39 -13 -11 -21 -10 -50 6 -19
10 -34 22 -34 27 0 5 -16 6 -35 2 l-35 -6 2 48 c2 52 19 80 43 70 8 -3 15 -1
15 4 0 6 9 10 20 10 11 0 20 5 20 10 0 6 -7 10 -16 10 -11 0 -14 5 -10 16 4
10 -1 25 -10 35 -20 23 -12 49 16 49 20 0 70 -44 70 -60 0 -4 7 -10 15 -14 12
-4 14 0 9 18 -3 15 1 29 11 40 19 18 33 20 68 7 17 -7 32 -5 50 4 14 7 27 11
29 10 7 -7 2 41 -6 53 -10 17 3 72 18 72 6 0 19 16 28 35 13 28 13 37 2 46
-19 16 -12 83 9 87 11 2 17 -3 17 -15 0 -20 35 -38 91 -46 32 -5 36 -3 32 14
-5 19 12 28 19 9 2 -5 14 -3 28 5 54 30 70 35 96 25 24 -9 27 -7 42 30 22 51
52 54 70 8 l13 -33 14 40 c10 28 11 43 3 52 -5 7 -8 20 -4 28 7 19 42 19 50 0
3 -8 16 -15 28 -14 13 0 17 3 11 6 -7 2 -13 13 -13 24 0 11 -6 19 -12 18 -31
-4 -46 2 -51 20 -3 12 -15 21 -33 23 -18 2 -30 10 -34 23 -3 11 -13 20 -24 20
-10 0 -28 12 -39 27 l-21 28 23 24 c19 20 20 24 6 29 -8 4 -26 2 -40 -3 -16
-6 -27 -6 -31 2 -4 7 -10 5 -16 -6 -20 -35 -86 -8 -76 32 4 14 -2 17 -32 17
-42 0 -70 19 -70 46 0 22 39 36 51 18 6 -11 11 -11 20 -2 8 8 19 9 35 3 13 -5
31 -7 39 -4 11 5 15 -1 15 -20 0 -27 6 -31 29 -17 8 5 11 16 7 29 -5 15 -1 21
16 25 12 4 25 3 28 -2 3 -4 13 -10 23 -14 12 -5 17 -1 17 14 0 11 7 22 15 25
8 4 15 11 15 17 0 6 7 18 15 27 8 9 16 34 17 56 2 25 11 47 26 62 24 23 52 29
52 11 0 -6 7 -4 15 5 8 8 15 18 15 23 0 5 9 16 20 26 11 9 20 27 20 39 0 37
14 50 43 43 16 -4 27 -15 29 -28 4 -30 34 -34 41 -6 5 20 11 21 62 17 34 -3
59 -1 63 6 18 28 42 39 57 26 12 -10 18 -10 30 0 8 6 20 9 27 5 7 -4 3 2 -9
13 -33 29 -29 51 13 68 30 12 34 17 23 30 -12 14 -6 28 12 30 5 1 21 2 37 3
25 2 26 3 9 15 -15 12 -16 18 -7 35 15 28 38 27 46 -3 3 -13 13 -27 22 -29 10
-3 29 -14 44 -24 23 -15 32 -16 61 -5 19 7 48 9 65 6 26 -5 31 -3 34 17 2 19
9 24 31 24 15 0 32 6 36 14 6 8 18 12 31 8 13 -3 29 0 37 9 18 17 33 18 33 2
1 -23 38 -58 53 -52 9 3 13 12 11 19 -3 7 7 18 25 26 17 8 31 20 31 26 0 7 6
13 13 13 7 0 24 19 37 42 l23 41 36 -39 c37 -40 57 -44 78 -17 11 14 17 14 58
1 25 -9 45 -12 45 -7 0 4 10 9 23 11 17 2 21 9 19 27 -2 26 13 51 32 51 7 0
18 -22 25 -50 14 -54 29 -62 65 -35 11 8 28 13 38 9 10 -3 18 -1 18 5 0 6 6
11 14 11 8 0 29 12 47 27 21 18 34 24 37 15 4 -14 92 -17 92 -2 0 5 15 8 35 5
36 -4 41 3 36 57 -1 9 7 34 18 55 18 36 24 40 82 51 34 6 65 9 69 7 3 -2 17 7
31 20 31 31 45 31 53 -1z m3956 -2259 c0 -32 37 -50 61 -29 24 21 29 17 23
-18 -17 -94 -49 -145 -61 -99 -4 16 -13 21 -40 21 -27 0 -34 4 -32 18 3 25
-18 72 -36 78 -36 14 -2 51 36 39 9 -3 20 -1 24 5 11 18 25 10 25 -15z"/>
<path d="M6263 7649 c-11 -11 7 -69 34 -114 10 -16 14 -17 22 -6 6 9 18 11 36
7 24 -6 27 -11 21 -37 -5 -24 0 -36 28 -66 27 -30 34 -33 39 -20 4 11 1 17 -8
17 -8 0 -15 5 -15 11 0 6 9 9 20 6 22 -6 28 8 8 16 -10 4 -9 8 2 16 10 7 11
11 3 11 -7 0 -13 5 -13 11 0 6 7 8 16 5 14 -5 15 -4 5 8 -7 8 -10 20 -6 27 4
6 9 30 11 54 l3 42 -42 -4 c-69 -6 -100 -3 -117 12 -20 18 -32 19 -47 4z"/>
<path d="M6031 7247 c-6 -6 -11 -16 -11 -22 0 -6 -9 -17 -20 -25 -11 -8 -20
-20 -20 -26 0 -7 -13 -23 -29 -36 -26 -20 -28 -25 -16 -41 14 -19 55 -16 55 4
0 5 7 9 15 9 8 0 15 -7 15 -15 0 -8 -4 -15 -10 -15 -5 0 -7 -7 -4 -15 9 -21
25 -19 31 5 3 11 9 20 14 20 4 0 20 12 34 26 25 25 25 27 9 45 -9 10 -15 28
-12 42 6 29 -32 63 -51 44z"/>
<path d="M6400 7182 c0 -4 -10 -18 -22 -32 -13 -14 -36 -50 -52 -80 -15 -30
-37 -65 -48 -77 l-20 -22 21 6 c11 3 26 11 32 19 6 8 18 14 25 14 8 0 14 9 14
21 0 13 4 18 12 13 29 -18 61 -9 89 25 30 37 37 61 18 61 -13 0 -49 38 -49 52
0 4 -4 8 -10 8 -5 0 -10 -3 -10 -8z"/>
<path d="M7250 6957 c-14 -6 -29 -17 -33 -24 -4 -7 -19 -13 -32 -13 -29 0 -62
-32 -82 -80 -8 -19 -22 -44 -31 -55 -13 -14 -13 -17 -2 -8 8 6 28 11 43 11 15
0 36 7 46 16 9 9 24 16 32 16 8 0 23 6 34 14 11 7 28 15 38 17 15 3 20 15 23
56 5 58 0 65 -36 50z"/>
<path d="M6792 6819 c-13 -5 -26 -18 -29 -29 -3 -11 -9 -20 -14 -20 -20 0
-100 -66 -111 -92 -15 -33 -28 -37 -28 -8 0 13 -7 20 -20 20 -25 0 -26 -12 -2
-33 18 -17 51 -22 108 -19 29 2 31 4 28 37 -2 32 0 35 26 35 37 0 43 -12 28
-46 -10 -22 -10 -28 0 -32 6 -2 12 -10 12 -17 0 -7 7 -15 15 -19 18 -7 20 -36
2 -36 -19 0 -37 21 -37 44 0 19 -1 19 -21 -3 -14 -15 -29 -21 -45 -18 -13 2
-25 0 -26 -5 -7 -21 -83 5 -114 39 -32 34 -58 44 -48 18 4 -10 0 -15 -12 -13
-40 3 -52 -3 -62 -31 -14 -39 10 -61 65 -61 38 0 73 -22 73 -46 0 -6 -28 -9
-62 -8 -90 3 -88 2 -88 22 -1 14 -2 15 -10 2 -16 -27 -134 -146 -161 -162 -16
-10 -29 -30 -33 -49 -3 -18 -12 -39 -18 -47 -13 -15 -22 -52 -13 -52 6 0 48
23 55 30 25 25 121 43 147 27 12 -7 29 -85 20 -93 -8 -8 -37 8 -37 21 0 22
-29 40 -42 27 -7 -7 -23 -12 -36 -12 -13 0 -31 -7 -40 -16 -15 -15 -14 -16 7
-9 18 5 24 2 28 -14 3 -12 13 -21 24 -21 11 0 19 -4 19 -10 0 -5 -4 -10 -10
-10 -5 0 -10 -7 -10 -15 0 -8 -4 -15 -10 -15 -5 0 -10 9 -10 20 0 17 -6 20
-47 19 -27 0 -41 -3 -33 -6 8 -4 22 -15 31 -26 11 -14 27 -20 52 -19 37 1 72
-21 61 -40 -4 -6 2 -5 15 1 11 7 21 16 21 21 0 6 11 10 25 10 14 0 28 7 32 15
6 17 73 55 96 55 15 0 117 97 117 111 0 5 7 9 15 9 17 0 17 0 16 88 0 34 4 62
10 62 5 0 9 9 9 20 0 11 5 20 10 20 6 0 10 6 10 13 0 8 19 20 43 27 43 14 100
57 92 70 -3 4 4 10 15 13 15 4 20 14 20 41 0 23 -5 39 -15 42 -8 4 -15 12 -15
20 0 8 -4 14 -10 14 -5 0 -10 10 -10 23 -1 34 -26 121 -36 123 -5 2 -20 -2
-32 -7z"/>
<path d="M6084 6751 c-22 -17 -46 -41 -54 -55 -12 -23 -11 -28 5 -46 13 -14
16 -29 12 -54 -3 -18 0 -50 7 -70 12 -35 13 -36 30 -17 10 11 28 22 41 25 19
5 24 14 27 53 2 25 -2 56 -8 68 -6 11 -11 27 -12 35 0 8 -4 25 -7 38 -5 14 -3
22 4 22 6 0 11 7 11 15 0 22 -11 19 -56 -14z"/>
<path d="M7445 6500 c-11 -5 -39 -9 -62 -9 -24 -1 -43 -5 -43 -10 0 -5 -14
-11 -30 -15 -40 -8 -45 -26 -20 -70 26 -42 45 -46 54 -11 4 14 13 25 22 25 8
0 12 5 9 10 -3 6 1 10 9 10 17 0 22 -35 6 -45 -5 -3 -7 -12 -3 -20 3 -8 0 -15
-6 -15 -19 0 -12 -14 12 -26 19 -9 26 -7 40 12 23 31 21 36 -8 28 -19 -5 -25
-2 -25 10 0 9 7 16 16 16 13 0 14 3 4 14 -20 26 -8 61 23 64 19 2 27 9 27 23
0 10 -1 19 -2 18 -2 0 -12 -4 -23 -9z"/>
<path d="M6060 6377 c-17 -9 -24 -20 -22 -34 2 -13 -9 -33 -27 -52 -33 -34
-46 -77 -36 -121 8 -37 48 -51 72 -27 22 22 1 47 -38 47 -22 0 -29 5 -29 20 0
15 7 20 29 20 16 0 37 -7 45 -15 14 -14 16 -13 22 12 3 15 11 51 18 78 11 50
11 85 -2 85 -4 0 -18 -6 -32 -13z"/>
<path d="M7186 6131 c-3 -5 -34 -9 -67 -10 -40 0 -68 -6 -79 -16 -9 -8 -31
-20 -48 -26 -18 -6 -32 -15 -32 -20 0 -5 -6 -9 -14 -9 -20 0 -45 -32 -28 -37
17 -6 15 -30 -4 -37 -23 -9 -24 -8 -24 12 0 15 -6 18 -29 14 -22 -3 -30 1 -35
15 -9 29 -68 56 -105 48 -18 -4 -37 -3 -44 3 -8 6 -18 3 -29 -9 -16 -17 -16
-18 4 -25 12 -3 32 -19 45 -34 23 -28 62 -34 92 -16 6 4 17 3 24 -2 7 -5 21
-6 32 -1 31 12 35 11 35 -11 0 -12 -7 -20 -17 -21 -10 0 -49 -2 -88 -4 l-70
-4 -30 39 c-30 39 -54 51 -56 28 -2 -18 -1 -21 6 -40 9 -24 -30 -25 -43 -2 -8
15 -10 15 -15 -1 -5 -11 -13 -14 -26 -10 -20 6 -21 4 -20 -121 0 -51 -4 -76
-15 -86 -13 -14 -13 -18 6 -37 11 -13 18 -30 15 -41 -7 -27 16 -42 64 -42 74
1 98 10 91 35 -5 20 -4 21 11 8 15 -12 17 -12 12 2 -4 8 -2 18 4 21 6 4 8 13
4 21 -7 21 17 18 47 -5 32 -25 57 -25 95 0 17 11 38 20 48 20 9 0 17 4 17 10
0 5 24 21 53 35 28 14 71 43 95 64 51 46 104 71 110 53 2 -7 10 -12 18 -12 9
0 12 5 8 11 -3 6 -1 15 7 19 9 6 10 12 2 22 -15 20 -16 98 0 98 16 0 47 36 47
55 0 9 -11 21 -25 27 -14 6 -25 15 -25 20 0 11 -17 10 -24 -1z"/>
<path d="M7890 6089 c-13 -6 -28 -15 -31 -21 -5 -8 -12 -6 -24 5 -18 18 -35
14 -35 -8 0 -20 -21 -30 -31 -14 -6 10 -9 11 -9 2 0 -7 -8 -13 -19 -13 -21 0
-45 -23 -34 -33 11 -12 23 -8 23 8 0 8 5 15 10 15 11 0 13 -11 4 -34 -3 -9
-12 -16 -20 -16 -8 0 -14 -10 -14 -25 0 -16 -6 -25 -16 -25 -12 0 -15 -6 -10
-22 3 -13 6 -31 6 -40 0 -12 8 -18 21 -18 12 0 19 -5 16 -12 -2 -7 -13 -13
-25 -12 -14 0 -20 -6 -19 -20 0 -12 0 -38 -1 -60 -2 -32 -5 -38 -21 -33 -15 4
-20 -2 -23 -25 -4 -26 -2 -29 16 -24 12 3 25 6 29 6 5 0 6 4 2 10 -10 16 6 60
22 60 10 0 14 -7 10 -20 -3 -11 -1 -20 4 -20 5 0 8 -3 7 -7 -3 -8 5 -13 20
-13 4 0 8 12 7 28 0 16 5 27 13 26 6 -1 25 -2 41 -2 23 -2 30 -7 33 -24 2 -19
8 -22 33 -19 17 1 32 6 35 11 7 10 46 30 59 30 6 0 11 -13 11 -28 0 -27 -4
-30 -57 -42 -32 -7 -69 -18 -83 -25 -14 -7 -53 -16 -87 -20 -35 -4 -63 -11
-63 -16 0 -5 -11 -14 -25 -19 -17 -6 -27 -20 -31 -40 -4 -16 -13 -35 -20 -41
-8 -6 -14 -20 -14 -30 0 -11 -3 -19 -7 -19 -7 0 -46 24 -84 52 -12 8 -26 9
-48 2 l-31 -9 26 -30 c14 -16 35 -49 46 -72 11 -24 24 -43 29 -43 5 0 9 -6 9
-12 0 -13 43 -68 53 -68 11 0 57 47 57 58 0 7 -11 14 -25 18 -18 4 -25 13 -25
30 0 30 25 32 42 4 16 -26 28 -26 28 0 0 12 26 46 61 80 34 33 56 60 50 60 -6
0 -11 9 -11 20 0 17 5 19 46 15 26 -2 49 -6 52 -9 2 -3 20 8 39 24 18 17 38
30 42 30 21 0 43 56 48 124 2 39 9 73 14 74 5 2 9 10 9 18 0 8 5 14 10 14 6 0
10 7 10 15 0 8 6 12 13 9 16 -6 16 44 0 54 -14 9 -8 75 7 80 19 7 -41 62 -66
62 -12 0 -31 11 -42 25 -22 27 -26 28 -62 14z"/>
<path d="M6045 6007 c-12 -12 -30 -27 -40 -34 -19 -12 -19 -13 8 -37 34 -32
35 -50 2 -42 -14 4 -25 2 -25 -3 0 -18 68 -17 92 1 28 22 38 22 38 3 0 -9 6
-12 15 -9 11 5 14 0 13 -16 -2 -17 5 -27 30 -39 27 -13 31 -20 27 -41 -4 -14
-13 -30 -21 -37 -18 -13 -10 -20 31 -24 27 -4 29 -2 31 30 1 24 -5 41 -21 57
-13 13 -20 25 -18 28 3 3 -2 9 -12 12 -26 10 -84 76 -85 97 0 36 38 17 128
-64 27 -24 30 -23 38 17 6 32 2 35 -126 99 -51 26 -84 27 -105 2z"/>
<path d="M8187 5843 c-4 -3 -7 -17 -7 -29 0 -14 -8 -25 -21 -29 -15 -5 -18
-10 -10 -18 18 -18 13 -48 -9 -54 -15 -4 -19 -11 -15 -24 5 -16 1 -19 -22 -19
-34 -1 -63 -21 -63 -44 0 -9 -15 -33 -34 -52 -76 -79 -84 -90 -91 -121 -8 -38
10 -46 20 -10 13 40 56 77 92 77 26 0 31 3 26 16 -5 13 -2 15 15 9 16 -5 22
-2 22 9 0 9 5 16 10 16 6 0 10 -5 10 -12 0 -15 59 53 60 68 0 6 -7 17 -15 24
-8 7 -15 16 -15 21 0 14 32 10 50 -6 15 -14 21 -14 54 0 27 12 35 19 28 28 -5
7 -13 27 -17 45 -3 18 -13 39 -21 46 -8 8 -15 26 -16 40 -2 25 -17 34 -31 19z"/>
<path d="M6250 5604 c-30 -16 -76 -18 -85 -4 -3 6 -20 10 -36 10 -25 0 -29 -3
-24 -19 8 -25 -17 -43 -56 -39 -30 3 -56 28 -29 28 6 0 19 7 28 17 17 17 15
16 -31 -6 -20 -10 -26 -19 -21 -33 3 -10 -2 -25 -10 -34 -9 -8 -16 -19 -16
-24 0 -11 58 -40 81 -40 10 0 21 -4 24 -10 3 -5 19 -10 36 -10 16 0 29 -3 29
-7 0 -5 11 -9 25 -9 17 -1 33 10 57 39 18 22 41 48 51 56 17 16 25 86 10 94
-5 2 -19 -2 -33 -9z"/>
<path d="M5809 5581 c-7 -17 -24 -34 -36 -40 -19 -9 -22 -16 -17 -36 4 -18 1
-30 -9 -38 -21 -17 -26 -50 -8 -63 16 -12 51 -7 51 7 0 5 9 9 19 9 10 0 22 7
25 16 9 22 8 24 -9 24 -8 0 -15 5 -15 10 0 6 7 10 15 10 8 0 15 -5 15 -11 0
-6 5 -9 11 -7 6 2 10 6 9 8 -1 3 3 17 9 33 6 15 7 27 1 27 -5 0 -8 13 -8 29 2
56 -32 70 -53 22z"/>
<path d="M6879 5575 c-1 -22 -1 -46 0 -52 1 -7 -3 -13 -9 -13 -22 0 -8 -28 30
-59 36 -29 42 -31 56 -17 8 9 25 16 38 16 12 0 31 7 42 15 10 8 34 15 52 15
38 0 40 7 7 39 -17 16 -25 34 -25 57 0 27 -4 34 -19 34 -10 0 -26 -10 -35 -22
l-16 -23 -16 23 c-18 24 -53 29 -72 10 -10 -10 -15 -10 -22 2 -7 11 -10 4 -11
-25z"/>
<path d="M6436 5523 c2 -60 15 -106 33 -118 6 -3 11 -15 11 -26 0 -10 7 -19
15 -19 8 0 19 -9 25 -19 12 -24 13 -61 2 -61 -12 0 -42 34 -42 48 0 7 -7 12
-16 12 -10 0 -14 6 -10 15 3 8 0 15 -7 15 -7 0 -20 14 -29 30 -17 29 -38 40
-38 20 0 -6 -11 -28 -24 -49 -15 -24 -23 -47 -19 -60 4 -15 -1 -23 -18 -30
-32 -13 -64 -41 -77 -66 -14 -29 -3 -74 22 -87 21 -12 21 -12 -4 -18 -21 -5
-25 -11 -22 -39 4 -38 28 -98 46 -116 7 -7 24 -11 38 -8 22 4 26 12 32 50 9
68 8 72 -14 66 -13 -4 -26 1 -35 13 -20 26 -18 34 5 34 11 0 20 6 20 14 0 21
20 30 33 17 14 -14 54 -14 62 -1 3 6 18 10 32 10 13 0 36 9 50 20 14 11 34 20
44 20 25 0 24 17 -1 25 -24 8 -27 45 -4 45 9 0 28 -7 44 -16 37 -23 60 -12 60
26 0 28 19 60 35 60 3 0 17 11 31 25 24 25 26 65 3 65 -5 0 -9 5 -9 10 0 6 7
10 15 10 12 0 13 9 8 48 -6 45 -16 62 -38 62 -5 0 -4 -4 4 -9 7 -5 10 -14 7
-20 -4 -6 -2 -11 4 -11 6 0 9 -4 6 -9 -10 -15 -46 0 -46 19 0 19 -27 30 -72
30 -18 0 -28 -5 -28 -15 0 -17 -2 -18 -24 -9 -9 3 -14 10 -11 14 9 14 -37 40
-70 40 l-31 0 2 -57z"/>
<path d="M8166 5481 c-11 -12 -42 -28 -70 -37 -46 -13 -53 -20 -73 -62 -19
-40 -20 -48 -8 -55 8 -4 15 -15 15 -22 0 -8 4 -15 9 -15 5 0 12 -19 16 -42 4
-24 9 -46 11 -50 7 -11 34 3 34 18 0 17 49 43 89 46 17 1 33 8 36 16 3 10 10
10 25 2 23 -12 27 -30 5 -30 -8 0 -33 -10 -56 -22 -30 -15 -46 -32 -57 -59
-16 -41 -32 -52 -65 -44 -17 5 -26 20 -39 63 -9 31 -24 66 -32 77 -14 20 -15
20 -29 1 -8 -10 -19 -16 -25 -12 -16 10 -15 36 1 36 18 0 -43 50 -82 66 -18 8
-52 14 -75 13 -22 0 -34 -3 -26 -6 20 -7 50 -34 50 -45 0 -4 -8 -8 -18 -8 -11
0 -27 -9 -37 -20 -18 -20 -17 -20 9 -20 17 0 35 -10 49 -26 70 -84 137 -128
168 -108 12 7 49 -5 49 -17 0 -5 -8 -9 -17 -9 -10 0 -38 -16 -62 -35 l-44 -35
34 -1 c62 -2 84 -13 89 -44 4 -22 13 -32 35 -39 54 -17 85 -31 85 -38 0 -19
58 -5 88 21 l32 28 -39 11 c-21 7 -41 20 -45 30 -3 9 -9 23 -12 30 -4 8 3 12
21 12 16 0 25 -5 23 -12 -9 -25 34 -50 97 -58 35 -4 69 -11 75 -15 7 -4 16 -1
21 6 7 12 10 12 18 1 4 -8 21 -12 36 -10 22 2 31 11 40 36 6 19 21 44 33 57
20 20 22 32 20 89 -2 36 -6 66 -10 66 -3 0 -6 45 -5 100 1 82 -2 104 -16 117
-16 16 -17 16 -17 -5 0 -15 -6 -22 -20 -22 -11 0 -20 4 -20 9 0 14 -30 41 -45
41 -11 0 -12 -6 -3 -31 6 -16 8 -32 5 -35 -9 -10 -47 20 -47 37 0 10 -14 22
-32 29 -18 6 -45 18 -60 26 -14 8 -46 17 -70 20 -36 5 -46 2 -62 -15z"/>
<path d="M7195 5404 c-31 -31 -62 -69 -70 -85 -14 -26 -13 -29 3 -38 9 -5 30
-7 45 -4 20 4 27 1 27 -10 0 -23 -30 -42 -69 -42 -31 0 -36 -3 -39 -26 -2 -19
5 -33 25 -49 l28 -22 20 25 c23 27 79 52 94 42 6 -3 11 -15 11 -26 0 -20 19
-26 36 -10 5 6 32 14 59 18 67 11 72 37 16 85 -43 36 -50 61 -27 91 19 25 26
21 26 -17 0 -27 7 -38 38 -60 21 -14 46 -26 55 -26 9 0 17 -4 17 -10 0 -5 16
-10 35 -10 33 0 34 1 23 20 -7 11 -21 23 -31 26 -23 7 -57 62 -57 92 0 12 -4
22 -9 22 -5 0 -18 16 -30 35 -16 28 -27 35 -50 35 -16 0 -33 -4 -36 -10 -3 -5
-17 -10 -30 -10 -13 0 -27 5 -30 10 -11 18 -23 11 -80 -46z"/>
<path d="M7684 5238 c-4 -6 -7 -26 -7 -43 0 -40 9 -55 34 -55 12 0 19 -7 19
-20 0 -26 24 -16 39 16 13 29 37 27 34 -4 -2 -15 2 -19 17 -15 11 3 34 0 51
-6 37 -13 53 -4 25 13 -11 6 -37 28 -58 48 -40 38 -108 78 -133 78 -7 0 -17
-5 -21 -12z"/>
<path d="M6670 5146 c0 -8 -25 -21 -64 -32 -36 -10 -63 -20 -61 -22 2 -2 -13
-19 -33 -37 -28 -28 -34 -38 -26 -54 7 -16 13 -17 34 -8 22 9 60 10 68 2 9 -8
-13 -35 -30 -35 -13 0 -18 -6 -16 -17 4 -22 68 -37 68 -17 0 17 32 18 48 2 8
-8 18 -3 41 20 33 36 33 36 78 20 29 -11 36 -9 62 10 17 12 35 22 41 22 5 0
10 7 10 16 0 10 6 14 15 10 8 -3 15 -1 15 4 0 6 9 10 20 10 11 0 20 5 20 11 0
6 6 9 14 6 15 -6 30 29 19 46 -8 13 -95 0 -157 -24 -74 -28 -102 -25 -121 11
-8 16 -15 38 -15 50 0 11 -7 20 -15 20 -8 0 -15 -6 -15 -14z"/>
<path d="M6010 5053 c0 -4 -13 -15 -29 -24 -16 -10 -40 -39 -54 -68 -45 -88
-73 -316 -46 -375 9 -18 8 -31 -2 -53 -9 -18 -12 -45 -8 -78 3 -27 7 -44 7
-36 1 8 10 33 21 55 10 23 24 64 31 91 7 28 16 55 20 60 13 18 40 108 40 132
0 13 9 33 19 45 11 11 17 26 14 34 -3 8 -1 14 3 14 5 0 10 26 12 58 7 144 6
147 -11 150 -9 2 -17 0 -17 -5z"/>
<path d="M8763 5045 c-3 -9 -18 -22 -34 -31 -25 -12 -29 -13 -29 0 0 8 -6 16
-12 19 -17 6 -68 -31 -68 -48 0 -20 -19 -28 -34 -16 -10 9 -15 8 -19 -2 -8
-21 36 -41 72 -34 19 4 33 1 41 -8 17 -20 80 -20 80 0 0 8 -5 15 -11 15 -6 0
-9 10 -7 22 2 15 12 25 28 28 14 3 34 10 45 17 19 11 19 12 -5 32 -30 25 -39
26 -47 6z"/>
<path d="M7190 4979 c-19 -10 -49 -18 -66 -19 -17 0 -45 -7 -62 -15 -36 -19
-194 -183 -187 -195 3 -5 -1 -11 -7 -13 -8 -4 -4 -8 10 -12 15 -5 22 -15 22
-31 0 -30 -25 -32 -27 -3 -1 12 -4 24 -7 27 -8 7 -114 -90 -115 -105 -1 -6 -7
-13 -13 -16 -10 -4 -10 -7 0 -18 16 -17 15 -46 -2 -52 -23 -9 -9 -87 21 -114
27 -26 83 -31 83 -9 0 8 8 15 18 15 34 0 72 8 86 20 7 6 21 9 30 5 9 -4 16 -1
16 6 0 7 6 10 14 7 10 -4 12 0 9 14 -3 10 -11 19 -19 19 -22 0 -28 22 -9 37
27 19 48 17 43 -4 -4 -13 2 -18 19 -19 14 -1 23 4 23 12 0 20 27 29 45 14 8
-7 20 -8 27 -4 7 5 28 10 46 11 26 1 32 -1 28 -13 -3 -8 1 -14 10 -14 8 0 12
4 9 10 -8 14 13 50 30 50 22 0 27 -18 12 -41 -13 -18 -12 -23 10 -45 19 -19
34 -24 73 -24 58 0 80 -7 80 -27 0 -10 5 -11 17 -5 9 5 35 7 57 4 l40 -5 -18
27 c-9 15 -16 30 -13 32 6 6 97 -39 97 -48 0 -5 -14 -8 -30 -8 -30 0 -30 -1
-13 -18 23 -23 116 -72 137 -72 9 0 16 -7 16 -16 0 -9 -5 -12 -12 -8 -7 4 -8
3 -4 -4 4 -7 18 -12 30 -12 19 0 28 11 45 49 11 27 21 57 21 65 0 9 7 16 16
16 8 0 13 4 10 9 -8 13 26 92 38 88 6 -2 11 -15 10 -28 -1 -40 -44 -169 -57
-169 -12 0 12 -20 25 -20 3 0 29 18 57 40 28 22 54 40 59 40 5 0 17 9 27 20
10 11 24 20 30 20 7 0 15 7 19 15 3 8 12 15 21 15 8 0 15 4 15 9 0 5 9 11 20
14 27 7 25 21 -5 41 -17 11 -25 26 -25 46 0 40 -22 39 -60 -4 -37 -40 -103
-62 -121 -40 -7 8 -10 15 -8 17 38 22 53 27 74 27 18 0 25 5 25 19 0 22 50 45
89 41 19 -1 22 2 17 15 -3 9 -6 19 -6 21 0 2 -7 4 -15 4 -19 0 -30 24 -19 42
8 13 14 48 16 93 0 19 -6 34 -21 43 -11 8 -21 21 -21 29 0 7 -7 16 -15 19 -8
4 -15 12 -15 20 0 8 -6 14 -12 15 -28 3 -153 -3 -157 -7 -2 -2 1 -15 8 -28 13
-24 8 -46 -10 -46 -5 0 -9 7 -9 15 0 23 -41 59 -83 72 -32 9 -47 8 -102 -10
-61 -20 -65 -23 -65 -52 0 -17 4 -35 9 -41 5 -5 11 -22 13 -39 2 -20 9 -31 22
-33 16 -3 18 0 12 22 -5 22 -3 26 15 26 18 0 20 -4 15 -25 -5 -18 -2 -25 9
-25 9 0 15 -9 15 -23 0 -21 30 -57 48 -57 4 0 15 12 24 28 20 33 7 71 -16 50
-8 -7 -12 -18 -9 -24 2 -6 -3 -14 -11 -17 -12 -5 -16 1 -16 23 0 20 5 30 15
30 11 0 13 8 9 30 -4 20 -2 30 5 30 7 0 9 5 6 10 -3 6 1 10 9 10 11 0 16 -9
16 -30 0 -35 10 -38 35 -10 25 28 45 25 45 -5 0 -14 -5 -25 -11 -25 -5 0 -7
-4 -4 -10 10 -16 62 -6 89 18 15 12 29 36 33 52 6 32 33 42 33 13 0 -37 -25
-84 -52 -96 -15 -6 -28 -15 -28 -19 0 -5 -8 -8 -19 -8 -10 0 -24 -6 -30 -14
-7 -8 -28 -17 -48 -21 -19 -3 -49 -19 -66 -35 -35 -32 -51 -30 -87 12 -14 17
-41 33 -60 37 -22 5 -34 13 -32 21 3 11 0 11 -12 1 -8 -7 -20 -10 -25 -6 -11
6 -12 115 0 115 3 0 9 9 12 20 6 24 -1 25 -39 5 -34 -17 -60 -19 -69 -5 -10
16 -22 12 -28 -10 -4 -17 0 -20 34 -20 32 0 39 -4 39 -19 0 -23 -28 -35 -46
-20 -8 6 -14 8 -14 5 0 -4 -9 -2 -20 4 -21 11 -27 54 -11 79 11 18 -50 81 -79
81 -13 0 -24 8 -27 20 -6 24 -26 24 -73 -1z"/>
<path d="M8784 4871 c-6 -27 -9 -29 -40 -24 -21 3 -39 0 -48 -8 -49 -45 -53
-46 -80 -26 -15 11 -17 17 -7 35 11 20 9 22 -13 22 -14 0 -28 4 -31 10 -4 6
-15 2 -27 -10 -12 -11 -25 -20 -30 -20 -4 0 -8 -4 -8 -10 0 -5 9 -10 21 -10
33 0 19 -34 -19 -45 -17 -5 -32 -13 -32 -18 0 -9 -25 -37 -34 -37 -3 0 -6 9
-6 20 0 13 -7 20 -19 20 -10 0 -30 -9 -44 -20 -14 -11 -33 -20 -42 -20 -12 0
-15 -5 -10 -20 4 -12 2 -27 -4 -34 -8 -10 -7 -17 4 -26 8 -7 15 -18 15 -25 0
-8 5 -15 11 -17 14 -5 3 -48 -12 -48 -22 0 -47 38 -53 80 -4 25 -12 55 -18 67
-10 20 -12 21 -34 6 -17 -11 -28 -12 -37 -5 -6 6 -25 8 -40 5 -26 -5 -27 -8
-21 -37 3 -17 10 -32 15 -34 12 -5 11 -43 0 -61 -13 -20 18 -59 41 -53 24 6
23 23 -2 29 -23 6 -26 26 -6 43 8 6 16 21 18 33 2 12 12 23 22 25 14 3 17 0
13 -12 -4 -10 -1 -16 8 -16 21 0 18 -23 -4 -40 -21 -15 -19 -30 5 -30 8 0 14
7 14 15 0 8 7 15 15 15 8 0 15 -7 15 -15 0 -8 -4 -15 -10 -15 -5 0 -10 -7 -10
-15 0 -8 -5 -15 -11 -15 -18 0 2 -21 29 -31 15 -6 41 -8 58 -4 32 5 32 7 49
83 2 7 -3 16 -11 19 -23 9 -16 38 16 61 l30 23 0 -33 c0 -23 3 -29 9 -19 11
17 41 7 41 -14 0 -8 -4 -15 -10 -15 -5 0 -10 -4 -10 -10 0 -21 47 -8 78 21 24
23 30 34 21 39 -6 5 -9 15 -6 25 8 19 27 11 27 -11 0 -17 14 -18 40 -2 10 7
22 9 26 5 7 -7 -14 -67 -25 -67 -3 0 -28 -21 -55 -45 -37 -34 -44 -45 -30 -45
10 0 32 7 48 15 15 8 36 15 46 15 12 0 21 10 25 30 4 20 18 36 45 51 28 16 36
26 33 40 -3 11 -1 19 4 19 6 0 8 10 6 23 -4 22 25 67 43 67 16 0 33 36 23 51
-5 8 -6 29 -3 47 4 17 3 32 0 32 -4 0 -9 -13 -12 -29z"/>
<path d="M9440 4851 c-19 -4 -34 -12 -33 -18 2 -7 -6 -15 -17 -18 -20 -6 -25
-21 -21 -63 2 -22 -1 -23 -40 -20 -27 2 -44 -1 -46 -9 -3 -8 4 -13 19 -13 13
0 32 -6 43 -14 11 -7 30 -16 41 -20 17 -5 22 -3 20 11 0 10 -7 22 -13 26 -7 4
-13 12 -13 17 0 15 27 12 34 -2 3 -9 11 -6 24 10 11 12 31 22 45 22 24 0 25 2
16 41 -5 22 -7 44 -4 50 7 10 -1 10 -55 0z"/>
<path d="M8971 4809 c-14 -17 -35 -35 -48 -40 -30 -11 -29 -25 2 -45 24 -16
34 -44 16 -44 -5 0 -23 13 -39 29 -32 33 -60 33 -94 -1 -15 -15 -16 -22 -7
-39 14 -26 -1 -64 -28 -73 -18 -6 -48 -44 -40 -52 2 -3 33 -6 68 -9 53 -3 73
1 117 21 39 19 52 29 48 42 -18 67 -17 75 7 101 19 19 26 40 29 84 3 31 2 57
-1 57 -3 0 -17 -14 -30 -31z"/>
<path d="M6458 4792 c-21 -14 -38 -34 -38 -44 0 -23 30 -58 50 -58 21 0 70
-23 70 -33 0 -5 5 -5 10 -2 6 3 7 17 4 31 -3 13 -2 24 4 24 5 0 12 15 14 34 3
25 -1 37 -15 45 -43 28 -61 28 -99 3z"/>
<path d="M6261 4651 c-18 -17 -36 -31 -42 -31 -5 0 -7 -10 -4 -23 4 -15 1 -28
-9 -36 -8 -7 -12 -19 -10 -26 6 -15 -34 -95 -48 -95 -16 0 -7 -58 13 -84 19
-24 48 -38 34 -16 -3 6 4 10 18 10 13 0 35 8 48 18 13 10 32 21 42 25 9 3 17
11 17 17 0 5 6 10 14 10 8 0 18 9 21 20 3 11 12 20 20 20 8 0 11 7 8 20 -4 16
0 20 19 20 30 0 78 39 78 63 0 9 -12 27 -27 40 -14 12 -34 29 -43 38 -10 9
-33 19 -51 21 -19 3 -41 8 -50 12 -12 5 -27 -2 -48 -23z"/>
<path d="M7180 4424 c0 -17 -19 -33 -60 -49 -10 -4 -15 -21 -16 -51 -1 -37 2
-44 18 -44 15 0 18 5 13 20 -3 11 -3 20 2 20 5 0 14 14 20 31 10 25 17 30 33
26 11 -3 18 -1 14 4 -3 5 0 9 5 9 6 0 11 6 11 14 0 14 21 26 45 26 12 0 24
-37 28 -90 1 -14 8 -29 15 -33 6 -4 12 -15 12 -22 0 -26 -28 -16 -56 20 -27
36 -44 38 -44 5 0 -13 9 -22 25 -26 14 -3 25 -12 25 -20 0 -8 6 -11 16 -7 14
5 16 0 13 -34 -4 -33 -1 -39 12 -36 9 3 25 -6 35 -19 11 -13 27 -27 37 -31 30
-11 20 -37 -14 -37 -21 0 -30 4 -26 13 3 7 -5 13 -21 14 -14 0 -31 8 -38 17
-16 22 -24 20 -24 -7 0 -12 13 -34 28 -47 15 -14 38 -42 51 -62 12 -21 29 -38
37 -38 9 0 13 4 10 9 -9 14 26 111 39 111 7 0 20 15 28 33 9 18 24 42 34 53
26 29 107 83 124 82 8 -1 34 0 59 1 l45 3 -34 12 c-19 7 -37 18 -39 24 -2 7
-12 12 -21 12 -10 0 -28 11 -41 25 -13 14 -30 23 -37 21 -7 -3 -15 -1 -18 4
-4 6 -21 10 -39 10 -17 0 -37 5 -43 11 -6 6 -33 11 -60 13 -27 1 -55 6 -62 10
-7 5 -42 11 -77 14 -58 4 -64 3 -64 -14z"/>
<path d="M6441 4397 c0 -10 -8 -20 -16 -23 -8 -4 -29 -19 -46 -35 -23 -21 -27
-29 -14 -29 9 0 13 -5 10 -10 -3 -6 2 -13 12 -16 10 -3 43 -18 73 -32 30 -14
62 -28 70 -32 17 -8 32 4 43 34 10 26 -16 62 -56 80 -43 20 -64 38 -70 61 -4
17 -5 17 -6 2z"/>
<path d="M8569 4384 c-8 -9 -12 -27 -11 -40 2 -16 -2 -24 -12 -24 -19 0 -47
-56 -39 -78 9 -22 29 -42 43 -42 6 0 8 -4 5 -10 -3 -5 -1 -10 5 -10 19 0 40
-27 41 -52 l0 -23 9 23 c5 12 14 22 19 22 6 0 18 16 27 35 9 19 21 35 26 35 6
0 8 -14 5 -35 -6 -39 0 -42 43 -20 38 20 49 2 17 -27 -13 -13 -23 -33 -23 -46
0 -20 5 -18 44 23 29 30 58 48 86 56 22 5 48 12 57 15 10 3 16 14 15 28 0 13
-5 22 -9 19 -5 -3 -15 4 -23 15 -8 12 -21 19 -29 16 -8 -4 -28 -2 -43 4 -16 5
-35 6 -43 2 -14 -8 -39 0 -114 36 -17 9 -38 31 -49 54 -21 44 -27 47 -47 24z"/>
<path d="M6360 4240 c0 -23 -8 -23 -52 -5 -33 13 -19 -15 22 -43 21 -15 39
-31 38 -37 -3 -23 16 -45 36 -45 12 0 31 -7 42 -15 39 -29 83 -9 89 41 2 20
-4 28 -33 39 -19 8 -42 15 -52 15 -10 0 -34 16 -54 36 -33 33 -36 34 -36 14z"/>
<path d="M6877 4219 c-5 -17 -10 -19 -29 -13 -35 11 -69 6 -84 -14 -21 -27
-17 -39 16 -51 24 -8 30 -7 30 5 0 7 5 14 11 14 6 0 9 -9 6 -20 -3 -11 -1 -20
4 -20 19 0 51 -42 46 -61 -3 -12 0 -19 9 -19 7 0 18 -9 24 -20 6 -11 20 -20
30 -20 22 0 26 10 10 26 -12 12 -3 44 11 44 5 0 12 -7 15 -15 4 -9 19 -15 40
-15 24 0 34 5 34 15 0 8 5 15 10 15 6 0 10 7 10 15 0 8 -9 15 -19 15 -11 0
-26 7 -35 15 -8 8 -19 15 -25 15 -6 0 -11 7 -11 15 0 7 -6 18 -13 22 -8 4 -24
23 -37 41 -27 37 -45 41 -53 11z"/>
<path d="M6193 4213 c-7 -2 -13 -10 -13 -16 0 -14 -64 -67 -79 -67 -7 0 -8
-17 -4 -45 4 -33 1 -57 -12 -85 -18 -41 -14 -63 7 -42 18 18 46 14 52 -6 4
-11 18 -25 31 -32 14 -7 25 -19 25 -25 0 -17 34 -45 55 -45 10 0 33 -16 51
-36 36 -38 66 -42 73 -9 2 11 6 22 10 25 4 3 15 34 26 70 10 36 27 74 36 85
18 20 18 21 -10 47 -16 15 -40 33 -55 39 -14 7 -26 16 -26 21 0 4 -6 8 -13 8
-8 0 -42 27 -77 60 -35 33 -63 60 -64 59 -1 0 -7 -3 -13 -6z"/>
<path d="M6713 4093 c-12 -35 -33 -78 -58 -120 l-26 -43 24 0 c13 0 32 -9 42
-20 26 -29 45 -25 45 9 0 17 4 32 8 35 5 3 9 28 10 57 0 31 6 55 14 60 15 10
3 24 -30 34 -16 5 -24 2 -29 -12z"/>
<path d="M7185 4084 c-16 -13 -37 -24 -46 -24 -9 0 -24 -12 -34 -26 -28 -43
-54 -64 -80 -64 -15 0 -25 -6 -25 -14 0 -19 27 -39 44 -33 8 3 22 -3 32 -14
22 -24 35 -24 67 1 14 11 31 20 39 20 7 0 24 6 38 13 14 7 38 14 54 15 16 1
32 4 34 7 9 8 -20 55 -34 55 -6 0 -15 8 -18 18 -6 17 -30 59 -37 66 -2 2 -17
-7 -34 -20z"/>
<path d="M7544 3892 c-12 -10 -24 -27 -28 -38 -3 -11 -18 -25 -33 -32 -88 -41
-112 -58 -103 -72 14 -22 12 -67 -2 -74 -9 -3 -3 -14 17 -30 35 -30 55 -33 62
-8 6 21 68 62 94 62 11 0 26 6 34 13 7 7 27 26 45 41 l33 27 -23 24 c-13 14
-30 25 -37 25 -10 0 -12 7 -7 23 12 38 10 52 -11 54 -11 2 -30 -5 -41 -15z"/>
<path d="M6628 3862 c-21 -3 -28 -9 -28 -25 0 -12 -9 -36 -19 -53 -19 -30 -29
-65 -36 -122 l-4 -29 52 25 c29 13 60 28 69 33 10 5 27 9 38 9 11 0 20 3 20 8
0 12 52 32 83 32 23 0 31 7 43 35 16 40 17 45 6 45 -4 0 -16 -13 -25 -30 -27
-45 -57 -40 -119 23 -42 41 -59 51 -80 49z"/>
<path d="M6135 3840 c-3 -5 -30 -10 -60 -10 -30 0 -57 -5 -60 -11 -4 -6 -13
-8 -20 -5 -7 2 -22 -8 -34 -24 -12 -16 -32 -30 -48 -32 l-28 -4 25 -13 c61
-30 100 -60 100 -78 0 -11 68 -4 76 8 3 5 14 9 25 9 10 0 19 4 19 9 0 13 42 9
57 -5 7 -6 9 -15 5 -18 -4 -4 16 -4 44 -1 46 7 53 5 67 -16 19 -26 20 -25 35
18 9 26 7 34 -6 46 -41 35 -82 47 -164 47 -82 0 -83 -1 -100 -30 -9 -17 -21
-30 -25 -30 -13 0 -83 60 -83 71 0 14 32 10 51 -7 15 -14 19 -13 39 15 20 30
25 31 93 31 l72 0 -33 20 c-38 23 -39 23 -47 10z"/>
<path d="M5870 3624 c0 -7 8 -15 18 -18 45 -18 61 -32 61 -56 1 -51 8 -80 24
-98 10 -11 15 -26 12 -34 -8 -21 21 -31 39 -13 8 8 21 15 29 15 18 0 47 -42
47 -69 0 -26 15 -34 30 -16 7 8 18 15 25 15 7 0 16 8 19 18 3 9 13 28 21 42
13 22 13 26 0 36 -8 6 -15 16 -15 23 0 6 -6 11 -13 11 -21 0 -47 34 -47 61 -1
49 -55 76 -90 44 -25 -22 -94 0 -98 32 -3 18 -9 22 -33 20 -16 -1 -29 -7 -29
-13z"/>
<path d="M7549 3603 c-1 -5 -1 -16 0 -25 1 -10 -4 -18 -11 -18 -10 -1 -9 -4 2
-13 8 -7 17 -28 18 -47 2 -19 8 -39 13 -45 23 -24 269 3 269 30 0 18 -19 39
-51 55 -44 23 -91 28 -71 8 7 -7 12 -19 12 -27 0 -11 -4 -10 -20 4 -11 10 -20
29 -20 42 0 12 -6 23 -12 24 -26 1 -84 9 -105 14 -13 3 -24 2 -24 -2z"/>
<path d="M6638 3403 c-21 -2 -38 -8 -38 -14 0 -5 -7 -9 -15 -9 -21 0 -78 -59
-98 -102 -20 -43 -14 -108 9 -108 8 0 14 -5 14 -11 0 -5 4 -8 9 -5 14 9 41 -4
41 -20 0 -17 -61 -29 -97 -19 -57 16 -78 11 -81 -18 -2 -15 -8 -27 -13 -27 -5
0 -9 -4 -9 -10 0 -5 15 -10 34 -10 19 0 37 -4 40 -9 10 -15 41 -1 52 22 5 12
17 21 27 21 9 -1 17 4 17 11 0 19 48 25 78 9 32 -16 48 -8 28 14 -26 29 -29
66 -8 92 10 14 25 40 33 58 8 17 20 32 26 32 13 0 17 22 13 68 -1 12 4 22 10
22 6 0 8 5 5 10 -3 6 -14 9 -23 8 -9 -1 -34 -3 -54 -5z"/>
<path d="M6790 3110 c-12 -12 -43 -27 -69 -34 -38 -9 -45 -15 -43 -31 2 -11 8
-23 14 -26 5 -3 10 -10 10 -15 0 -21 33 -63 54 -68 29 -8 54 2 54 20 0 8 5 14
11 14 6 0 8 8 4 19 -3 10 -3 26 1 35 7 18 34 22 34 5 0 -8 4 -8 14 0 11 9 20
10 35 1 14 -7 21 -7 21 0 0 5 10 10 23 10 34 0 50 15 43 38 -9 29 -34 31 -78
8 -37 -19 -38 -19 -55 0 -41 44 -50 47 -73 24z"/>
<path d="M6650 2879 c-14 -6 -45 -7 -69 -4 -27 4 -41 3 -37 -3 7 -11 -16 -23
-54 -29 -13 -2 -27 -6 -29 -9 -7 -7 31 -44 46 -44 7 0 13 -5 13 -11 0 -5 5 -7
10 -4 17 10 50 -5 50 -23 -1 -17 -22 -52 -33 -52 -3 0 -7 10 -9 23 -2 14 -11
23 -26 25 -13 2 -32 11 -43 20 -10 9 -27 24 -36 32 -18 15 -83 16 -83 1 0 -14
24 -31 46 -31 14 0 26 -10 34 -29 10 -26 15 -29 36 -21 17 7 31 6 44 -3 21
-12 27 -37 10 -37 -5 0 -10 -7 -10 -15 0 -8 7 -15 15 -15 8 0 22 -8 32 -19 10
-10 34 -21 53 -25 19 -3 45 -8 58 -10 12 -2 20 0 17 4 -3 5 -12 7 -20 3 -21
-7 -19 13 3 29 9 7 24 22 32 33 11 15 8 14 -12 -4 -29 -25 -58 -23 -58 4 0 12
6 15 20 10 11 -4 20 -2 20 4 0 6 16 11 35 11 19 0 35 5 35 10 0 6 6 10 14 10
14 0 11 44 -4 65 -4 6 -10 27 -14 48 -4 20 -11 37 -17 37 -6 0 -7 5 -4 10 3 6
2 10 -4 10 -5 0 -15 2 -23 4 -7 3 -24 0 -38 -5z"/>
</g>
</svg>
