<?xml version="1.0" standalone="no"?>
<!DOCTYPE svg PUBLIC "-//W3C//DTD SVG 20010904//EN"
 "http://www.w3.org/TR/2001/REC-SVG-20010904/DTD/svg10.dtd">
<svg version="1.0" xmlns="http://www.w3.org/2000/svg"
 width="872.000000pt" height="1403.000000pt" viewBox="0 0 872.000000 1403.000000"
 preserveAspectRatio="xMidYMid meet">
<metadata>
Created by potrace 1.13, written by Peter Selinger 2001-2015
</metadata>
<g transform="translate(0.000000,1403.000000) scale(0.100000,-0.100000)"
fill="#000000" stroke="none">
<path d="M0 7015 l0 -7015 4360 0 4360 0 0 7015 0 7015 -4360 0 -4360 0 0
-7015z m4251 5976 c26 -26 29 -36 29 -90 0 -34 4 -61 10 -61 6 0 10 -28 10
-65 0 -63 8 -89 40 -128 11 -14 14 -45 13 -136 -2 -118 -2 -118 28 -151 24
-26 29 -40 27 -68 -2 -29 -8 -37 -28 -42 -30 -7 -39 -43 -16 -66 23 -22 20
-56 -9 -111 -16 -29 -22 -49 -15 -51 16 -6 37 15 44 43 11 42 102 132 142 139
18 4 34 13 34 20 0 13 28 30 68 41 15 4 25 17 29 36 5 25 10 29 39 29 19 0 34
-4 34 -8 0 -4 14 -12 32 -17 49 -15 58 -39 25 -73 -15 -15 -27 -33 -27 -40 0
-7 -4 -12 -10 -12 -5 0 -10 -7 -10 -15 0 -10 -11 -15 -35 -15 -32 0 -35 -2
-35 -30 0 -33 -37 -76 -75 -86 -14 -3 -25 -11 -25 -16 0 -6 -6 -8 -14 -5 -8 3
-24 -4 -36 -15 -20 -19 -20 -22 -6 -30 29 -16 18 -31 -19 -24 -19 4 -35 6 -35
4 -1 -2 -3 -31 -6 -66 l-6 -62 26 10 c15 5 59 7 100 3 93 -7 109 -2 97 31 -14
35 -4 59 32 77 26 13 32 22 30 45 -1 16 -7 30 -13 32 -14 5 -13 41 3 56 7 7
24 16 39 19 34 9 59 34 52 52 -5 11 1 15 19 15 32 0 39 -25 42 -148 3 -88 15
-129 36 -116 5 3 9 19 9 36 0 35 23 57 60 57 43 0 60 -21 60 -73 0 -39 -5 -51
-27 -71 -16 -13 -34 -25 -40 -25 -7 0 -20 -11 -28 -24 -19 -28 -7 -68 25 -88
22 -14 27 -52 8 -65 -7 -4 -44 -10 -82 -13 -55 -4 -71 -9 -80 -25 -6 -10 -21
-28 -33 -38 -13 -10 -23 -27 -23 -37 0 -22 -46 -36 -66 -19 -11 9 -11 6 1 -18
14 -27 18 -29 75 -28 54 1 62 3 73 25 11 23 19 25 84 28 63 3 74 0 92 -19 12
-13 21 -29 21 -36 0 -21 68 -16 110 8 35 20 40 20 54 6 18 -17 21 -47 6 -47
-5 0 -10 -6 -10 -13 0 -8 -11 -24 -25 -37 -14 -13 -25 -28 -25 -34 0 -6 -10
-16 -22 -21 -33 -15 -30 -52 10 -93 29 -32 40 -37 80 -37 59 0 72 -9 72 -46 0
-29 -12 -56 -40 -91 -20 -25 -80 -24 -110 2 -30 26 -37 25 -36 -2 1 -16 13
-29 38 -42 20 -10 39 -28 42 -40 8 -28 7 -85 -1 -115 -5 -21 -10 -23 -45 -18
-33 4 -41 2 -49 -17 -11 -23 3 -76 20 -76 5 0 14 -13 19 -29 l10 -29 40 19
c46 23 89 66 94 94 3 20 56 65 91 78 22 8 69 -2 62 -13 -3 -5 -1 -11 5 -15 6
-4 8 -11 5 -16 -4 -5 -1 -9 4 -9 7 0 11 -27 11 -70 0 -53 3 -70 14 -70 15 0
28 -24 19 -34 -15 -14 -43 -5 -43 14 0 11 -4 20 -10 20 -5 0 -10 -4 -10 -10 0
-5 -16 -10 -36 -10 -24 0 -46 -8 -65 -24 -15 -13 -34 -26 -40 -28 -24 -8 1
-36 55 -63 31 -15 56 -31 56 -35 0 -4 14 -10 30 -13 27 -6 30 -11 30 -42 0
-20 -5 -45 -10 -56 -16 -28 -66 -25 -109 8 -28 21 -49 28 -98 31 -55 4 -62 2
-57 -11 3 -9 14 -19 25 -22 10 -4 19 -12 19 -19 0 -24 31 -40 70 -38 30 2 40
-1 44 -16 15 -48 80 -72 100 -37 18 31 39 45 64 41 24 -4 25 -1 22 65 -1 39 3
51 29 80 19 20 31 44 31 61 0 29 31 58 62 58 10 0 18 5 18 10 0 18 42 10 61
-12 38 -43 22 -108 -32 -131 -41 -18 -50 -34 -24 -43 17 -7 22 -104 5 -104 -5
0 -10 -6 -10 -14 0 -15 -37 -32 -47 -22 -11 11 -33 -16 -33 -40 0 -13 -4 -24
-10 -24 -5 0 -7 -7 -4 -15 4 -9 -3 -16 -19 -20 -18 -5 -24 -13 -25 -35 l-1
-28 77 5 c64 4 81 9 100 29 47 49 99 15 89 -58 -3 -23 -10 -44 -16 -46 -5 -2
-7 -10 -4 -19 5 -12 -1 -14 -28 -13 -56 3 -59 2 -59 -33 0 -18 -5 -38 -12 -45
-14 -14 17 -42 74 -69 38 -18 44 -34 32 -80 -7 -27 -35 -37 -79 -29 -25 5 -36
14 -44 36 -7 21 -15 28 -25 24 -18 -7 -21 -30 -6 -39 6 -4 8 -11 5 -16 -4 -5
-1 -9 4 -9 6 0 11 -6 11 -13 0 -7 6 -19 13 -26 6 -6 12 -24 12 -39 0 -18 8
-30 24 -38 13 -7 27 -18 31 -24 10 -17 30 -3 30 20 0 29 11 50 26 50 8 0 14 4
14 9 0 5 10 11 22 13 17 2 24 12 30 43 6 30 17 46 44 63 32 21 36 21 50 7 10
-9 14 -26 11 -40 -2 -14 0 -25 4 -25 5 0 9 -18 9 -40 0 -29 -4 -40 -15 -40 -8
0 -15 -4 -15 -10 0 -5 -7 -10 -15 -10 -10 0 -15 -11 -15 -35 0 -19 -5 -35 -11
-35 -5 0 -7 -4 -4 -10 3 -5 -5 -15 -19 -22 -45 -20 -29 -28 54 -28 l79 0 46
-44 c25 -24 45 -50 45 -58 0 -14 -53 -48 -76 -48 -8 0 -14 5 -14 10 0 6 -6 10
-13 10 -8 0 -22 9 -32 20 -14 15 -31 20 -72 20 -29 0 -53 -4 -53 -10 0 -5 -9
-10 -19 -10 -47 0 -33 -52 20 -80 22 -11 55 -20 74 -20 21 0 35 -5 35 -12 0
-7 5 -5 11 5 15 25 58 40 74 27 15 -13 30 -119 20 -149 -5 -16 -15 -21 -40
-21 -19 0 -37 5 -41 11 -4 8 -10 7 -18 -1 -8 -9 -8 -14 2 -17 6 -3 12 -10 12
-16 0 -14 40 -57 53 -57 6 0 19 7 29 16 22 21 48 4 48 -33 0 -33 -22 -53 -59
-53 -17 0 -31 -4 -31 -10 0 -5 -13 -10 -30 -10 -16 0 -30 5 -30 10 0 11 -73
14 -83 4 -8 -9 3 -34 16 -34 13 0 83 -47 109 -72 10 -11 18 -33 18 -53 0 -35
18 -85 31 -85 9 0 29 -57 29 -85 0 -13 -7 -28 -15 -35 -19 -16 -12 -26 25 -33
42 -9 39 -41 -7 -89 -44 -45 -73 -48 -115 -13 -32 27 -43 30 -53 14 -4 -6 2
-13 14 -16 12 -3 21 -9 21 -14 0 -5 6 -9 13 -9 8 0 19 -11 25 -25 6 -14 16
-25 22 -25 5 0 10 -13 10 -30 0 -16 -5 -30 -11 -30 -6 0 -9 -7 -5 -15 11 -28
-48 -17 -100 20 -52 37 -97 50 -56 15 13 -10 22 -22 21 -25 0 -4 12 -22 27
-41 19 -23 38 -34 55 -34 31 0 65 -27 78 -63 6 -15 18 -27 28 -27 16 0 18 8
15 65 l-4 65 32 6 c23 5 32 13 36 33 3 15 19 36 36 46 16 11 34 30 39 43 5 14
17 22 31 22 24 0 53 -34 43 -50 -4 -6 -1 -10 4 -10 16 0 13 -39 -3 -56 -8 -8
-22 -14 -31 -14 -8 0 -20 -12 -26 -27 -6 -16 -18 -36 -27 -46 -10 -11 -15 -31
-14 -48 2 -16 -1 -29 -7 -29 -5 0 -11 -10 -13 -22 -2 -13 -11 -24 -23 -26 -23
-5 -75 -51 -75 -67 0 -7 -11 -17 -25 -23 -26 -12 -32 -26 -15 -37 6 -3 10 -1
10 4 0 16 66 13 80 -4 12 -15 5 -95 -9 -95 -3 0 -5 -18 -3 -40 3 -33 0 -44
-19 -60 -25 -20 -95 -28 -101 -10 -1 5 -17 12 -34 16 -26 5 -32 2 -37 -14 -4
-17 0 -21 27 -24 28 -3 31 -7 34 -40 l3 -38 50 0 49 0 0 -51 c0 -77 -38 -97
-117 -64 -43 18 -72 13 -53 -10 6 -8 9 -19 5 -25 -3 -5 -1 -10 6 -10 6 0 9 -8
6 -19 -3 -13 3 -23 19 -32 13 -7 24 -18 24 -25 0 -7 10 -20 22 -28 21 -15 24
-14 53 14 17 17 41 30 54 30 13 0 37 12 54 26 24 20 38 25 63 21 50 -8 74 -39
74 -95 0 -59 -12 -72 -67 -72 -30 0 -45 -5 -50 -15 -7 -20 24 -44 58 -45 25 0
26 -3 32 -66 3 -37 10 -70 17 -74 7 -5 10 -15 7 -24 -4 -9 -2 -16 3 -16 5 0
10 -12 12 -27 2 -22 9 -29 31 -31 33 -4 37 18 7 48 -25 25 -27 85 -4 94 37 14
104 3 104 -17 0 -12 30 -47 40 -47 4 0 10 13 13 29 7 32 27 41 93 41 40 0 64
-13 64 -35 0 -18 -75 -95 -92 -95 -8 0 -25 12 -37 26 -12 14 -26 23 -29 19 -4
-4 -1 -10 6 -12 6 -3 12 -19 12 -36 0 -25 -7 -37 -35 -55 -19 -12 -35 -29 -35
-36 0 -15 -78 -98 -116 -122 -12 -9 -42 -17 -66 -19 -32 -3 -50 -12 -69 -34
-15 -16 -43 -34 -63 -41 -20 -6 -36 -16 -36 -21 0 -5 -7 -9 -15 -9 -23 0 -18
-24 10 -50 13 -12 22 -27 19 -31 -3 -5 0 -9 5 -9 6 0 11 -9 11 -19 0 -11 5
-23 11 -26 14 -9 59 3 59 15 0 6 18 26 40 46 24 22 40 45 40 59 0 26 36 75 55
75 7 0 15 6 17 12 3 9 10 8 22 -5 13 -12 17 -28 14 -52 -2 -19 0 -35 4 -35 4
0 8 -11 8 -25 0 -14 -4 -25 -10 -25 -5 0 -9 -3 -8 -7 1 -5 -6 -20 -16 -35 -10
-16 -15 -35 -12 -44 8 -20 26 -9 26 17 0 22 25 25 46 5 18 -18 17 -36 -1 -60
-8 -11 -15 -28 -15 -38 0 -10 -4 -18 -10 -18 -5 0 -7 -7 -4 -15 4 -10 20 -15
49 -15 48 0 55 -9 55 -69 0 -30 -6 -42 -27 -57 -15 -10 -40 -32 -56 -47 -29
-28 -29 -29 -10 -42 11 -8 44 -17 74 -21 30 -4 60 -11 67 -17 14 -11 13 -13
16 39 3 63 47 95 82 59 8 -8 14 -16 14 -17 -1 -2 3 -16 9 -31 25 -66 0 -127
-53 -127 -14 0 -31 -6 -38 -13 -7 -8 -30 -17 -51 -21 -38 -7 -41 -14 -31 -53
7 -27 29 -30 38 -7 5 13 16 16 55 12 61 -6 81 -25 81 -77 0 -35 -3 -41 -26
-47 -14 -4 -30 -2 -37 5 -17 17 -47 13 -66 -10 -11 -14 -33 -23 -62 -26 -41
-5 -46 -3 -57 22 -13 28 -25 29 -105 9 -20 -5 -33 -1 -48 12 -25 22 -43 7 -34
-29 5 -18 16 -28 35 -32 15 -3 36 -15 45 -25 9 -10 30 -22 46 -25 16 -4 29
-10 29 -14 0 -12 48 -31 80 -31 37 0 80 -19 80 -37 0 -7 9 -22 20 -33 11 -11
20 -33 20 -50 0 -29 -1 -30 -48 -30 -35 0 -54 5 -66 19 -21 24 -71 34 -111 22
l-30 -8 38 -8 c20 -4 40 -12 43 -17 11 -18 -6 -55 -31 -66 -25 -11 -35 -42
-14 -42 6 0 9 -6 6 -13 -3 -7 4 -19 14 -25 30 -19 23 -46 -14 -60 -53 -19
-117 -13 -117 10 0 5 -9 21 -20 36 -39 49 -17 112 39 112 16 0 21 6 21 29 0
16 6 32 13 34 6 3 -5 6 -25 6 -23 1 -45 8 -56 19 -10 10 -26 21 -35 25 -9 3
-17 11 -17 17 0 6 -4 8 -10 5 -6 -3 -10 3 -10 14 0 11 -4 23 -10 26 -6 4 -10
-6 -10 -22 0 -51 -11 -72 -41 -78 -16 -4 -31 -15 -35 -28 -4 -11 -13 -28 -21
-36 -25 -25 -11 -95 26 -130 17 -16 31 -36 31 -45 0 -9 5 -16 11 -16 6 0 9 -7
5 -15 -3 -8 -1 -15 4 -15 18 0 11 -35 -10 -50 -27 -19 -8 -30 53 -30 34 0 53
6 67 20 11 11 25 20 31 20 5 0 7 5 4 10 -4 6 8 10 29 10 20 0 36 -4 36 -10 0
-5 14 -10 30 -10 17 0 30 3 30 8 0 4 13 13 29 20 19 8 28 18 25 27 -4 9 3 16
20 21 15 3 31 15 37 25 5 11 20 19 32 19 13 0 34 10 46 21 18 17 39 23 95 26
117 7 135 11 129 32 -6 24 24 70 54 82 36 13 83 0 96 -29 10 -21 8 -27 -16
-48 -16 -14 -41 -24 -58 -24 -35 0 -59 -20 -59 -49 0 -11 -7 -26 -15 -34 -8
-8 -12 -17 -9 -20 10 -9 -64 -77 -84 -77 -11 0 -37 -19 -58 -42 -36 -40 -42
-43 -94 -44 -93 -3 -98 -4 -104 -19 -11 -31 4 -43 65 -47 40 -3 69 -11 89 -26
17 -13 43 -22 62 -21 18 0 27 3 21 6 -14 5 -17 52 -7 91 8 26 48 39 69 22 15
-13 22 -110 8 -110 -5 0 -8 -13 -8 -30 0 -16 3 -30 8 -30 14 0 7 -68 -8 -74
-8 -3 -15 -10 -15 -16 0 -17 -56 -70 -74 -70 -9 0 -16 7 -16 15 0 8 -4 15 -10
15 -5 0 -10 -9 -10 -20 0 -11 -5 -20 -11 -20 -5 0 -7 -5 -3 -11 9 -15 -15 -29
-52 -29 -34 0 -44 13 -44 56 0 27 -12 31 -30 9 -18 -21 -63 -19 -83 5 -9 11
-17 24 -17 28 0 21 -52 54 -92 59 -45 6 -78 27 -78 50 0 7 -4 13 -10 13 -5 0
-10 7 -10 15 0 24 -14 17 -33 -16 -9 -17 -26 -33 -37 -36 -11 -3 -20 -9 -20
-14 0 -5 -9 -9 -20 -9 -17 0 -19 -4 -14 -27 10 -41 11 -42 53 -36 31 4 43 1
60 -16 11 -11 21 -27 21 -35 0 -8 9 -18 20 -21 11 -3 20 -10 20 -15 0 -4 16
-15 35 -24 19 -9 35 -21 35 -27 0 -6 4 -8 10 -4 5 3 17 1 27 -4 10 -5 31 -12
46 -16 15 -3 35 -18 45 -34 9 -15 23 -26 30 -23 7 2 19 -2 27 -8 13 -10 15 -8
15 13 0 17 -7 28 -20 32 -11 3 -20 10 -20 14 0 5 -3 23 -6 40 -7 32 -6 32 27
29 29 -3 34 -7 37 -31 3 -26 33 -48 67 -51 6 -1 11 -13 13 -28 3 -24 0 -28
-22 -28 -14 0 -26 -4 -26 -10 0 -14 -27 -12 -33 3 -3 6 -6 -1 -6 -17 -2 -71
-107 -86 -160 -23 -23 27 -25 28 -32 11 -7 -21 34 -74 58 -74 18 0 53 -37 53
-55 0 -10 10 -15 30 -15 17 0 30 4 30 9 0 13 50 29 107 34 43 3 56 9 78 35 20
24 35 32 61 32 21 0 42 8 54 20 11 11 23 20 26 20 18 0 93 86 98 112 3 17 15
37 26 45 11 8 20 20 20 28 0 16 59 30 88 21 47 -15 32 -120 -19 -133 -10 -3
-19 -9 -19 -14 0 -4 -12 -9 -27 -11 -20 -2 -27 -8 -25 -21 2 -10 -7 -32 -20
-49 -12 -18 -21 -43 -20 -55 2 -13 -1 -23 -7 -23 -6 0 -11 -11 -11 -25 0 -24
-2 -25 -64 -25 -55 0 -67 -3 -80 -22 -13 -18 -28 -23 -81 -26 -36 -2 -65 -8
-65 -12 0 -11 58 -36 100 -44 27 -5 38 -13 46 -35 14 -35 64 -49 97 -26 35 25
50 19 44 -15 -4 -19 -1 -34 8 -44 18 -18 20 -70 3 -84 -7 -6 -42 -13 -78 -16
-36 -3 -66 -5 -67 -6 -2 0 -3 -15 -3 -33 0 -58 -65 -70 -120 -23 -8 8 -55 17
-105 20 l-89 7 27 -25 c16 -14 34 -26 42 -26 42 0 64 -41 29 -54 -15 -6 -15
-9 5 -29 24 -27 29 -82 7 -90 -8 -3 -42 -9 -75 -13 l-61 -7 0 47 c0 25 5 46
10 46 6 0 10 6 10 14 0 10 -14 16 -42 18 -39 3 -43 6 -53 39 -11 40 -41 79
-61 79 -7 0 -10 -8 -7 -21 4 -12 0 -25 -8 -30 -11 -7 -7 -15 19 -39 34 -31 42
-64 18 -73 -11 -5 -13 -16 -9 -44 3 -21 10 -39 15 -41 4 -2 8 -9 8 -15 0 -16
41 -62 63 -70 9 -3 17 -12 17 -18 0 -15 44 -56 56 -52 5 2 26 -5 46 -16 38
-19 48 -18 48 6 0 8 14 26 30 40 17 14 28 28 25 31 -8 8 58 63 71 58 6 -2 39
22 73 55 34 32 65 59 68 59 19 0 114 54 127 71 10 15 21 20 35 16 12 -3 21 -1
21 4 0 5 9 9 20 9 11 0 20 -4 20 -10 0 -5 6 -7 14 -4 14 5 26 -23 26 -63 0
-30 -42 -70 -82 -78 -18 -4 -45 -20 -60 -35 -14 -16 -36 -31 -47 -35 -12 -3
-21 -11 -21 -16 0 -5 -9 -9 -19 -9 -11 0 -26 -8 -33 -18 -7 -10 -25 -27 -40
-36 -21 -14 -28 -26 -28 -50 0 -24 -7 -35 -31 -48 -34 -20 -31 -38 7 -38 15 0
37 13 56 32 19 20 33 28 36 20 2 -7 10 -12 18 -12 29 0 14 -46 -31 -92 l-46
-46 32 -11 c18 -6 46 -11 64 -11 28 0 33 -5 41 -32 13 -43 44 -45 57 -3 6 17
13 32 16 35 3 3 7 18 9 35 5 46 43 59 92 30 14 -8 31 -17 39 -21 35 -18 72
-76 70 -112 0 -9 -24 -36 -54 -60 -43 -34 -62 -42 -94 -42 -23 0 -41 -4 -41
-9 0 -5 -9 -11 -19 -14 -14 -3 -18 -11 -14 -26 6 -25 31 -27 48 -4 18 25 157
32 180 10 19 -20 20 -57 0 -57 -8 0 -15 -4 -15 -10 0 -5 -14 -10 -31 -10 -36
0 -69 -16 -69 -33 0 -20 -59 -47 -101 -47 -38 0 -39 -1 -45 -40 -4 -22 -12
-40 -19 -40 -19 0 -46 -36 -40 -52 4 -11 24 -17 64 -20 37 -3 65 -10 75 -21
10 -9 24 -17 31 -17 28 0 48 -47 41 -94 -6 -39 -12 -46 -44 -62 -20 -9 -40
-22 -44 -27 -14 -22 -39 14 -32 46 4 18 2 27 -4 23 -5 -3 -15 1 -22 9 -7 8
-18 15 -26 15 -7 0 -17 7 -22 16 -6 11 -28 18 -62 22 -34 3 -60 12 -73 25 -22
22 -72 20 -123 -5 -24 -11 -28 -18 -26 -46 3 -27 -6 -39 -22 -29 -3 1 -15 -8
-28 -19 -13 -12 -32 -26 -43 -32 -18 -10 -19 -11 -2 -17 11 -5 17 -18 17 -41
0 -31 -3 -34 -29 -34 -47 0 -46 -18 3 -65 25 -24 46 -48 46 -54 0 -6 7 -11 15
-11 8 0 30 -14 48 -30 19 -17 40 -30 46 -30 6 0 11 -15 11 -34 0 -37 -12 -46
-62 -46 -29 0 -40 7 -129 78 -23 17 -44 32 -49 32 -4 0 -10 9 -13 20 -4 15
-14 20 -41 20 -32 0 -36 -3 -36 -25 0 -14 -6 -25 -12 -25 -7 0 -3 -7 9 -15 12
-8 29 -12 38 -9 21 9 55 -23 55 -53 0 -22 -4 -23 -64 -23 -44 0 -67 -5 -76
-15 -19 -23 -73 -19 -90 6 -37 53 -53 60 -70 29 -9 -17 -6 -24 17 -45 15 -13
31 -25 36 -25 4 0 7 -7 7 -15 0 -8 7 -15 15 -15 24 0 20 -56 -5 -63 -33 -8
-14 -37 25 -37 35 0 56 26 30 36 -37 15 3 84 48 84 22 0 27 -6 33 -36 5 -26 2
-38 -10 -47 -14 -10 -15 -15 -4 -29 11 -14 25 -16 95 -11 69 5 84 9 88 24 4
11 10 19 15 19 5 0 7 7 4 15 -8 19 38 30 65 15 19 -10 21 -8 22 17 0 20 13 38
41 62 38 33 41 34 81 24 51 -14 57 -10 29 20 -31 33 -27 52 15 72 43 21 52 28
106 78 25 24 49 37 67 37 15 0 35 9 45 20 11 12 31 20 52 20 18 0 33 5 33 10
0 16 32 11 46 -7 19 -26 18 -102 -3 -125 -9 -10 -29 -18 -46 -18 -36 0 -103
-55 -99 -82 2 -10 -2 -18 -7 -18 -6 0 -10 -6 -9 -12 4 -16 -51 -23 -65 -9 -19
19 -28 12 -25 -15 2 -15 12 -32 23 -38 31 -17 45 -33 45 -50 0 -18 15 -21 25
-6 10 16 125 12 167 -7 41 -18 47 -35 21 -61 -13 -13 -35 -17 -95 -17 -43 0
-78 -3 -78 -7 0 -4 5 -18 11 -31 20 -44 -42 -124 -78 -101 -10 7 -17 19 -17
28 1 9 -2 16 -7 16 -5 0 -9 8 -9 18 0 9 -9 23 -21 30 -30 19 -21 54 20 74 59
29 60 38 6 38 -50 -1 -85 -17 -85 -39 0 -7 -10 -21 -22 -31 l-23 -18 28 -13
c21 -10 27 -19 27 -44 0 -39 -30 -70 -59 -60 -12 3 -21 13 -21 21 0 8 -7 17
-15 20 -8 4 -15 12 -15 20 0 24 -28 29 -137 23 -59 -3 -173 -5 -252 -3 -137 3
-146 5 -170 28 -19 18 -42 26 -88 32 -35 3 -63 11 -63 15 0 5 -6 8 -12 7 -17
-4 -23 43 -6 53 10 7 9 9 -4 9 -10 0 -18 4 -18 9 0 4 -11 6 -25 3 -14 -2 -25
0 -25 6 0 6 -9 14 -20 17 -16 5 -20 15 -20 46 0 21 -3 39 -6 39 -3 0 -19 -9
-35 -21 -27 -19 -40 -49 -20 -49 5 0 9 -37 9 -83 -1 -88 12 -127 41 -127 9 0
28 -11 41 -25 13 -14 27 -25 32 -25 9 0 48 -37 48 -45 0 -3 3 -6 8 -7 4 -2 8
14 10 35 2 21 -1 37 -7 37 -6 0 -11 10 -11 23 0 57 62 64 119 12 21 -19 48
-35 59 -35 44 0 70 -21 77 -61 4 -22 11 -39 17 -39 6 0 8 -9 5 -20 -4 -14 2
-23 22 -31 43 -20 74 -64 66 -98 -7 -33 -48 -60 -67 -43 -7 5 -34 13 -60 17
-44 7 -48 6 -48 -14 0 -11 -4 -21 -10 -21 -5 0 -10 -4 -10 -10 0 -5 7 -10 15
-10 8 0 15 -9 15 -19 0 -11 6 -22 13 -25 10 -5 10 -7 0 -12 -7 -3 -13 -13 -13
-23 0 -9 -5 -22 -12 -29 -14 -14 -58 -16 -58 -2 0 5 -7 7 -15 4 -8 -4 -15 -1
-15 5 0 6 -8 11 -17 11 -29 0 -91 67 -99 105 -3 19 -11 36 -18 37 -6 1 -85 2
-176 2 l-165 1 -27 28 c-25 25 -48 35 -48 21 0 -3 16 -24 35 -46 19 -23 32
-45 29 -49 -3 -5 0 -9 5 -9 6 0 11 -6 11 -13 0 -8 9 -22 20 -32 11 -10 20 -24
20 -32 0 -7 4 -13 9 -13 14 0 23 -81 10 -96 -17 -21 -72 -17 -99 6 -13 11 -29
20 -37 20 -7 0 -13 7 -13 16 0 8 -13 29 -30 46 -23 22 -30 39 -30 67 0 38 -29
95 -30 59 0 -10 -5 -18 -11 -18 -5 0 -7 -5 -4 -10 4 -6 1 -18 -6 -27 -11 -13
-10 -17 4 -28 9 -7 17 -19 17 -28 0 -8 7 -18 16 -21 8 -3 12 -10 9 -16 -3 -6
1 -13 10 -16 9 -4 14 -13 11 -20 -3 -8 -1 -14 4 -14 4 0 11 -14 15 -31 10 -44
-12 -64 -59 -55 -20 4 -36 10 -36 14 0 12 -62 32 -96 32 -36 0 -114 62 -114
90 0 25 -22 40 -48 33 -12 -3 -37 -2 -56 1 -26 5 -36 13 -40 33 l-7 26 -23
-22 c-48 -45 -87 -22 -104 64 l-8 40 -63 3 c-35 2 -68 -1 -74 -7 -24 -24 -12
-203 16 -222 5 -3 9 -43 10 -87 2 -99 -8 -111 -95 -112 -50 0 -62 4 -91 30
-19 17 -43 30 -53 30 -9 0 -26 7 -36 17 -19 17 -25 63 -7 63 6 0 4 7 -5 15
-26 26 -35 18 -24 -22 10 -35 8 -39 -20 -63 -23 -19 -31 -35 -34 -65 l-3 -40
-63 -3 -64 -3 5 48 c8 71 19 117 28 124 5 3 10 122 11 265 2 258 2 259 -20
269 -12 5 -22 13 -22 17 0 5 -6 8 -13 8 -31 0 -49 37 -46 97 2 45 0 58 -12 58
-11 0 -15 -20 -17 -95 -2 -78 -6 -98 -21 -110 -10 -9 -21 -37 -25 -65 -5 -28
-13 -56 -18 -62 -12 -15 -78 -17 -78 -3 0 6 -6 10 -14 10 -29 0 -30 88 -1 117
16 15 27 115 15 127 -7 7 -10 -4 -10 -30 0 -30 -6 -46 -25 -64 -18 -17 -25
-34 -25 -62 0 -21 -4 -38 -10 -38 -5 0 -10 -7 -10 -15 0 -16 -20 -56 -32 -65
-4 -3 -11 -18 -17 -33 -10 -25 -15 -27 -66 -27 -45 0 -55 3 -56 18 0 14 -2 13
-9 -4 -10 -25 -61 -64 -84 -64 -8 0 -20 8 -25 18 -10 16 -10 16 -11 0 0 -10
-4 -18 -10 -18 -5 0 -10 -7 -10 -15 0 -16 -58 -30 -90 -22 -23 6 -47 -11 -52
-38 -2 -12 -13 -21 -28 -23 -14 -2 -29 -8 -35 -13 -5 -5 -55 -9 -112 -9 -115
0 -124 7 -78 56 14 15 25 33 25 39 0 7 6 15 14 18 13 5 13 12 -1 49 -9 24 -18
45 -20 48 -10 11 -23 -29 -23 -70 0 -40 -4 -48 -35 -69 -19 -13 -35 -30 -35
-37 0 -8 -7 -14 -15 -14 -8 0 -15 -4 -15 -10 0 -6 -28 -10 -65 -10 -58 0 -65
2 -65 20 0 11 4 20 9 20 5 0 7 9 4 20 -3 11 0 20 6 20 6 0 11 6 11 14 0 8 7
17 15 20 9 3 23 22 31 42 16 39 26 53 62 89 41 42 15 51 -28 10 -26 -25 -57
-31 -174 -34 -24 -1 -27 -3 -16 -16 10 -12 10 -27 0 -73 -17 -80 -52 -107
-135 -107 -44 0 -66 5 -78 17 -23 22 -22 24 18 59 20 18 35 40 35 53 0 24 46
57 95 67 21 5 12 7 -32 8 -70 1 -93 -5 -93 -25 0 -8 -4 -14 -9 -14 -5 0 -12
-11 -15 -25 -20 -80 -187 -150 -200 -84 -2 8 -7 23 -11 33 -6 13 -4 21 3 24 7
2 9 9 6 14 -4 6 1 17 12 25 15 11 16 15 5 22 -7 5 -10 14 -7 20 9 14 -1 14
-82 -1 -59 -11 -65 -10 -78 7 -27 37 -17 71 31 110 31 26 46 47 51 71 3 19 10
34 15 34 5 0 6 7 3 15 -9 22 22 46 65 52 21 3 51 17 71 34 32 28 62 35 95 23
14 -6 15 -17 9 -76 l-7 -69 59 55 c32 31 65 56 74 56 27 0 40 22 40 67 0 24 4
43 8 43 5 0 9 7 9 15 0 8 -4 15 -9 15 -15 0 -8 53 9 73 17 18 17 20 -10 43
-38 32 -47 30 -47 -10 0 -27 -7 -39 -29 -55 -16 -12 -36 -21 -44 -21 -33 0
-43 -11 -39 -39 4 -31 0 -33 -93 -47 -37 -5 -58 -15 -79 -37 l-30 -31 -233 1
c-168 1 -238 4 -248 13 -9 7 -15 8 -15 2 0 -5 -8 -12 -19 -15 -10 -2 -24 -19
-32 -36 -26 -59 -89 -49 -89 15 0 28 5 36 25 44 22 9 24 12 13 30 -7 11 -16
20 -20 20 -5 0 -8 6 -8 14 0 26 -28 37 -82 34 l-53 -3 40 -20 c48 -24 59 -64
26 -87 -12 -8 -24 -29 -27 -46 -4 -18 -14 -34 -25 -37 -21 -7 -59 14 -59 33 0
7 -7 15 -15 18 -19 8 -19 21 0 40 33 33 19 44 -54 44 -90 0 -121 12 -121 45 0
20 5 25 25 25 14 0 25 5 25 10 0 6 33 10 80 10 47 0 80 -4 80 -10 0 -5 5 -10
10 -10 6 0 10 9 10 19 0 11 13 29 30 41 19 13 30 30 30 44 0 22 -3 23 -44 19
-43 -5 -45 -4 -52 23 -10 45 -72 104 -109 104 -48 1 -65 20 -65 76 0 38 4 52
20 61 29 19 104 5 131 -23 13 -14 34 -24 49 -24 16 0 37 -12 55 -30 16 -17 35
-30 42 -30 7 0 13 -4 13 -9 0 -5 17 -18 37 -28 57 -28 64 -49 31 -95 -7 -9 -9
-21 -5 -25 5 -4 11 -2 15 4 4 6 20 15 35 18 24 6 34 2 68 -31 24 -23 39 -47
39 -62 0 -22 3 -23 41 -17 36 6 41 5 46 -14 3 -12 9 -21 14 -21 5 0 9 -7 9
-15 0 -11 13 -15 54 -15 29 0 66 -2 82 -5 37 -7 64 9 46 27 -26 26 -11 88 22
88 30 0 43 -11 52 -44 5 -22 3 -32 -11 -42 -16 -12 -15 -14 9 -20 14 -3 38 -3
54 1 l27 7 -27 14 c-35 18 -36 51 -3 66 13 6 22 15 19 19 -3 5 10 22 28 38 27
24 30 31 19 44 -10 13 -16 14 -32 4 -10 -6 -19 -17 -19 -23 0 -25 -86 -34
-108 -12 -7 7 -36 11 -72 9 -60 -2 -60 -2 -60 26 0 32 27 54 57 47 26 -7 42
15 36 48 -5 26 -9 28 -49 28 -33 0 -44 -4 -44 -15 0 -9 -6 -18 -13 -21 -7 -2
-40 -29 -72 -60 -56 -52 -62 -55 -105 -52 -43 3 -45 5 -48 35 -3 27 3 38 34
65 20 18 51 41 68 50 17 9 27 17 23 18 -12 0 15 25 36 33 11 4 21 16 24 27 3
11 9 20 14 20 5 0 9 5 9 10 0 6 -16 10 -35 10 -33 0 -35 2 -35 35 0 21 6 37
17 43 15 9 14 10 -4 16 -11 4 -28 15 -38 26 -10 11 -26 20 -37 20 -13 0 -18 7
-18 29 0 24 -7 33 -40 50 -51 26 -92 27 -115 1 -11 -13 -31 -20 -52 -20 -38 0
-123 -35 -123 -50 0 -6 -9 -10 -20 -10 -11 0 -20 -4 -20 -10 0 -5 5 -10 10
-10 15 0 12 -36 -4 -50 -21 -16 -119 47 -112 73 2 9 -1 17 -6 17 -14 0 -2 57
15 74 7 7 23 17 35 20 12 4 22 14 22 21 0 14 30 22 100 27 44 4 53 32 17 49
-19 9 -27 22 -31 54 l-7 43 -58 4 c-55 4 -91 22 -91 46 0 10 -33 21 -65 22
-39 1 -58 25 -51 66 l7 36 80 -4 c68 -3 81 -6 94 -26 9 -12 27 -22 40 -22 19
0 22 4 18 23 -8 33 -32 47 -79 47 -31 0 -50 6 -67 23 -13 12 -38 34 -56 50
-50 42 -37 71 71 161 47 40 93 30 103 -21 3 -20 13 -42 21 -50 8 -8 14 -23 14
-34 0 -33 37 -24 44 11 5 27 9 30 45 30 64 0 116 31 76 46 -8 3 -17 14 -20 23
-3 10 -17 24 -31 31 -18 10 -24 21 -22 39 2 15 9 25 16 23 6 -1 12 2 12 8 0
18 22 11 46 -15 15 -16 34 -25 54 -25 39 0 38 15 -1 36 -26 13 -30 20 -27 46
3 19 0 32 -9 35 -7 3 -27 18 -44 34 -17 16 -37 29 -45 29 -14 0 -26 10 -89 70
-16 15 -45 31 -63 35 -44 9 -82 46 -82 79 0 14 4 26 10 26 5 0 7 6 4 14 -3 9
4 15 23 19 44 8 90 -3 114 -29 12 -13 28 -24 36 -24 7 0 13 -5 13 -11 0 -5 5
-7 10 -4 5 3 10 1 10 -4 0 -6 12 -11 26 -11 19 0 44 -18 90 -65 35 -36 72 -65
82 -65 23 0 62 -28 62 -44 0 -7 11 -23 24 -35 14 -13 26 -33 28 -44 4 -26 21
-32 39 -14 8 7 29 17 48 23 24 6 39 19 50 42 10 19 29 37 47 44 36 13 64 61
64 108 0 17 5 30 13 30 6 0 4 5 -6 11 -24 14 -21 49 8 79 20 21 24 33 19 58
-4 18 -12 32 -19 32 -20 0 -43 -33 -50 -72 -7 -37 -23 -48 -72 -48 -20 0 -21
-4 -16 -60 l6 -60 -32 0 c-17 0 -31 5 -31 10 0 6 -13 10 -29 10 -16 0 -36 3
-45 6 -25 9 -19 54 10 80 21 20 23 25 10 30 -9 3 -16 16 -16 29 0 23 17 35 49
35 9 0 24 9 34 20 17 20 17 20 -65 14 -75 -5 -148 -27 -156 -46 -14 -31 -76
22 -69 58 2 13 1 24 -2 25 -103 8 -127 12 -138 21 -15 12 -18 84 -3 93 5 3 7
20 3 37 -6 30 -5 31 23 24 16 -4 34 -14 41 -22 8 -11 16 -13 30 -5 10 5 26 12
35 15 11 3 15 11 12 21 -3 8 -1 15 5 15 6 0 10 3 9 8 -2 4 2 9 7 10 6 2 15 7
20 12 6 4 29 11 52 15 23 3 47 13 54 21 10 12 3 14 -39 14 -56 0 -106 15 -98
29 9 14 -20 21 -89 21 l-63 0 -6 54 c-4 30 -15 62 -26 73 -10 11 -20 33 -22
49 -2 24 -9 29 -41 36 -34 7 -70 31 -73 47 0 3 -4 14 -9 24 -4 11 -3 23 3 29
6 6 8 17 5 24 -8 22 41 39 79 28 18 -6 33 -14 34 -19 2 -21 17 -45 28 -45 6 0
13 -12 14 -27 2 -28 85 -123 107 -123 5 0 16 -9 23 -20 9 -15 23 -20 52 -20
22 0 40 -3 40 -7 0 -20 69 -53 111 -53 28 0 53 -7 69 -20 14 -11 31 -20 38
-20 6 0 12 -5 12 -10 0 -6 8 -5 19 2 11 7 17 16 14 21 -7 12 37 57 57 57 25 0
65 41 66 68 1 30 -9 28 -44 -12 -56 -64 -152 -53 -152 18 0 15 -4 25 -10 21
-5 -3 -25 -3 -45 1 -30 5 -35 10 -35 34 0 24 5 29 38 37 29 7 38 14 40 33 5
33 20 50 44 50 17 0 19 -5 15 -41 -3 -24 -12 -46 -21 -51 -9 -5 -16 -17 -16
-27 0 -26 53 -16 65 12 7 15 24 25 53 31 23 6 42 13 42 18 0 4 7 8 15 8 21 0
57 21 73 43 7 9 19 17 27 17 8 0 20 10 26 23 6 12 20 30 30 39 21 20 79 24 79
6 0 -20 28 25 31 52 3 19 -2 25 -29 32 -37 10 -61 31 -79 68 -6 14 -12 19 -12
11 -1 -8 -12 -29 -27 -48 -21 -27 -32 -33 -63 -33 -41 0 -82 -30 -115 -82 -19
-33 -68 -38 -98 -11 -17 15 -18 14 -18 -15 0 -18 -4 -32 -10 -32 -5 0 -10 -7
-10 -15 0 -10 -10 -15 -33 -15 -29 0 -36 5 -55 42 -12 24 -22 37 -22 31 0 -22
-43 -14 -72 14 -15 15 -28 32 -28 39 0 6 -7 14 -15 18 -17 6 -21 61 -5 71 5 3
10 17 10 31 0 13 -4 24 -10 24 -14 0 -12 94 2 108 7 7 21 12 33 12 37 0 50
-17 50 -65 0 -30 -5 -49 -15 -55 -11 -7 -3 -10 27 -10 23 0 46 6 50 13 14 21
73 47 109 47 46 0 67 18 46 40 -11 11 -32 14 -74 12 -57 -2 -60 -1 -107 43
-26 25 -55 45 -65 45 -9 0 -16 4 -16 9 0 5 -9 11 -19 14 -26 6 -71 80 -71 116
0 30 -18 41 -67 41 -13 0 -23 5 -23 10 0 6 -6 10 -14 10 -22 0 -37 26 -31 53
5 19 15 27 43 32 22 4 38 3 40 -4 2 -5 9 -8 17 -5 16 7 59 -52 52 -71 -8 -19
14 -25 93 -25 38 0 72 -5 75 -10 3 -6 15 -10 25 -10 11 0 24 -9 30 -20 6 -11
21 -20 33 -20 13 0 33 -9 45 -20 12 -11 26 -20 31 -20 6 0 17 -13 26 -29 17
-34 57 -47 112 -36 46 8 96 -3 89 -20 -2 -7 3 -17 12 -21 29 -12 112 -21 112
-12 0 5 20 6 44 3 37 -6 47 -4 65 14 23 23 80 28 99 9 7 -7 12 -25 12 -40 0
-16 5 -28 13 -28 9 0 11 19 9 70 -4 67 -3 70 22 80 32 12 36 49 5 57 -17 5
-20 12 -17 47 3 38 5 41 36 44 29 3 32 1 32 -23 0 -17 4 -24 12 -19 8 5 9 2 4
-11 -5 -15 -4 -16 9 -5 19 16 19 39 -1 47 -11 4 -14 16 -12 40 2 24 -3 39 -15
47 -9 7 -14 15 -12 18 3 3 -1 10 -8 16 -11 9 -17 6 -28 -16 -8 -15 -21 -32
-29 -39 -10 -9 -11 -12 -2 -13 23 0 12 -48 -22 -93 -19 -24 -37 -54 -41 -66
-13 -40 -111 -121 -148 -121 -12 0 -47 34 -47 45 0 3 11 23 25 45 14 22 23 40
20 40 -3 0 9 13 27 29 28 25 33 36 33 76 0 28 -5 49 -14 54 -7 5 -11 13 -7 19
3 6 -7 16 -24 24 -16 7 -30 16 -30 20 0 5 -7 8 -16 8 -8 0 -12 5 -9 10 3 6 1
10 -4 10 -6 0 -11 14 -11 30 0 17 -4 30 -10 30 -5 0 -10 -7 -10 -16 0 -18 -15
-34 -52 -53 -16 -8 -28 -18 -28 -23 0 -4 -15 -8 -34 -8 -32 0 -33 -1 -27 -32
5 -26 12 -34 34 -36 28 -3 57 -35 57 -63 0 -10 -11 -31 -25 -47 -14 -17 -25
-34 -25 -40 0 -25 -62 -29 -114 -7 -41 17 -45 42 -11 60 12 6 19 18 17 28 -2
9 1 17 7 17 17 0 13 20 -6 27 -22 8 -53 40 -53 54 0 17 23 35 55 44 l30 8 -30
8 c-39 12 -87 1 -103 -22 -10 -15 -26 -19 -68 -19 -53 0 -54 0 -54 29 0 20 9
36 26 50 15 12 24 21 20 21 -4 0 0 7 9 16 8 9 35 18 58 21 23 4 44 9 47 12 10
12 50 31 65 31 8 0 15 5 15 10 0 6 6 10 13 10 8 0 22 9 32 20 10 11 29 20 42
20 14 0 23 6 23 15 0 8 4 15 9 15 11 0 9 19 -3 39 -8 12 -11 11 -22 -4 -9 -11
-24 -17 -41 -16 -79 6 -108 5 -112 -4 -12 -28 -33 -37 -72 -31 -42 7 -74 28
-61 41 4 4 -21 4 -55 0 l-63 -7 0 49 c0 44 3 51 25 61 32 15 102 16 110 2 10
-16 32 -12 39 6 12 32 -4 54 -44 60 -21 4 -41 12 -44 19 -2 7 -23 15 -45 19
-33 5 -42 11 -47 32 -9 36 13 131 32 138 31 12 56 6 61 -14 3 -11 9 -20 14
-20 14 0 11 -48 -3 -53 -10 -4 -10 -7 0 -18 9 -10 15 -11 20 -3 4 6 34 14 66
18 60 7 86 19 86 40 0 13 -33 44 -73 69 -26 17 -28 23 -25 70 l3 52 48 3 c46
3 63 21 36 37 -6 4 -8 13 -5 21 3 8 2 14 -3 14 -13 0 -22 47 -15 76 8 31 49
31 49 -1 0 -11 6 -20 14 -20 23 0 23 20 1 48 l-20 25 -46 -25 c-57 -32 -108
-28 -147 11 -33 33 -33 38 -2 72 22 24 29 26 70 20 39 -6 45 -5 45 11 0 10 -7
27 -15 37 -8 11 -15 28 -15 38 0 10 -4 18 -10 18 -5 0 -10 9 -10 20 0 11 5 20
10 20 6 0 10 7 10 15 0 19 49 20 56 1 3 -8 14 -16 25 -19 10 -3 19 -14 19 -25
0 -10 9 -27 20 -37 24 -21 25 -38 6 -58 -13 -13 -12 -17 8 -37 20 -18 27 -20
43 -9 18 11 27 5 84 -50 64 -62 91 -72 97 -37 2 10 18 34 35 53 41 45 41 65 0
77 -36 10 -44 32 -15 39 13 4 12 5 -5 6 -12 0 -25 -4 -28 -9 -4 -6 -11 -8 -16
-5 -5 4 -9 0 -9 -8 0 -17 -31 -27 -60 -20 -27 7 -25 26 5 49 14 10 25 29 25
41 0 13 4 23 9 23 5 0 7 8 4 18 -3 13 4 22 22 30 19 9 25 18 23 35 -4 28 -47
36 -65 12 -10 -15 -22 -17 -66 -12 -60 6 -77 -3 -77 -40 0 -14 -6 -23 -15 -23
-12 0 -15 13 -15 55 0 76 20 95 100 95 54 0 59 2 48 15 -47 57 -103 100 -141
109 -17 4 -36 20 -49 41 -11 19 -26 35 -34 35 -19 0 -18 46 2 54 34 13 64 7
64 -14 0 -24 45 -28 54 -5 7 20 -10 64 -29 71 -21 9 -19 51 5 71 11 10 20 23
20 29 0 14 43 26 64 18 11 -4 16 -19 16 -50 0 -48 -3 -47 85 -45 80 2 103 10
107 34 2 17 11 23 43 27 31 4 39 9 37 23 -3 19 13 39 41 50 9 3 17 15 17 25 0
16 -6 17 -57 11 -32 -4 -66 -8 -75 -8 -11 -1 -18 -9 -18 -21 0 -11 -5 -20 -11
-20 -5 0 -7 -4 -4 -10 9 -14 -56 -13 -88 3 -15 6 -27 15 -27 20 0 4 -9 7 -20
7 -13 0 -20 7 -20 20 0 11 6 20 14 20 7 0 19 7 26 15 7 8 25 15 41 15 16 0 29
3 29 8 0 4 13 13 29 20 20 9 29 20 28 33 -2 24 -37 35 -65 20 -28 -15 -93 -13
-114 3 -10 7 -21 27 -24 45 -6 27 -4 31 15 31 12 0 30 -5 40 -12 26 -16 49 8
41 42 -5 21 -14 26 -61 35 -57 10 -89 32 -89 59 0 19 19 23 147 31 l101 6 7
-28 c6 -29 47 -83 63 -83 5 0 12 -9 15 -20 6 -24 52 -36 80 -21 17 9 22 21 22
51 0 43 -21 54 -45 25 -20 -24 -67 -19 -74 8 -9 34 -7 67 4 67 6 0 14 8 17 18
14 35 31 42 107 42 74 0 76 1 76 25 0 18 -5 25 -20 25 -11 0 -20 -4 -20 -10 0
-5 -9 -10 -19 -10 -11 0 -23 5 -26 10 -3 6 -17 10 -30 10 -13 0 -27 5 -30 10
-9 15 -25 2 -25 -20 0 -23 -19 -30 -80 -30 -46 0 -49 -2 -55 -30 -6 -29 -8
-30 -64 -30 -32 0 -79 -3 -105 -6 -42 -6 -48 -5 -53 15 -3 11 -9 21 -14 21
-12 0 -12 47 0 54 5 3 12 22 15 41 6 31 10 35 39 35 27 0 35 -5 44 -29 9 -26
16 -29 62 -32 29 -2 51 0 51 6 0 14 51 55 69 55 14 1 14 2 -1 14 -23 17 -23
65 0 82 20 16 58 18 67 4 8 -13 75 -13 75 0 0 6 -8 13 -17 17 -54 19 -97 122
-57 137 39 15 82 5 127 -29 25 -19 48 -35 51 -35 3 0 6 11 6 24 0 16 -14 34
-44 57 -41 32 -44 38 -50 93 -3 32 -6 87 -6 122 0 52 3 64 18 68 20 7 82 -20
82 -35 0 -5 5 -9 11 -9 21 0 35 26 35 68 0 24 4 46 9 50 20 14 15 49 -9 62
-31 16 -44 7 -52 -33 -5 -26 -15 -36 -56 -56 l-50 -23 -29 28 c-25 24 -29 35
-27 69 3 34 8 42 35 55 25 12 33 21 33 43 0 15 -5 27 -11 27 -6 0 -9 6 -6 14
4 9 -3 16 -18 20 -13 3 -25 16 -29 30 -3 14 -15 28 -26 31 -11 3 -20 11 -20
16 0 5 -6 9 -13 9 -18 0 -78 46 -70 53 3 4 2 7 -4 7 -6 0 -14 16 -17 35 -4 19
-18 43 -31 54 -21 16 -25 27 -25 74 0 58 8 67 53 67 27 -1 62 -29 71 -58 4
-12 20 -31 37 -42 16 -12 29 -27 29 -34 0 -7 16 -25 35 -40 19 -15 37 -37 41
-48 4 -14 9 -17 17 -9 6 6 37 11 69 11 58 0 58 0 58 -30 0 -16 5 -30 10 -30 6
0 9 -21 8 -46 -1 -50 10 -64 52 -64 17 0 41 -15 70 -45 l45 -46 61 6 c57 7 61
6 77 -19 20 -29 22 -56 6 -56 -7 0 2 -14 20 -30 23 -22 31 -40 33 -68 l1 -37
4 38 c6 50 33 77 81 78 46 1 80 13 64 23 -15 9 -4 68 15 79 8 5 13 27 13 62 0
29 6 60 13 67 18 19 38 68 32 79 -8 12 -45 12 -45 -1 0 -16 -68 -12 -95 6 -16
10 -34 13 -58 9 -51 -10 -55 -32 -7 -46 27 -8 40 -19 45 -36 3 -13 10 -21 15
-18 5 3 6 13 3 21 -7 18 12 34 40 34 15 0 17 -10 17 -72 0 -84 -15 -108 -66
-108 -44 0 -64 9 -64 29 0 10 -19 25 -47 38 -38 17 -59 21 -100 16 -65 -7 -85
6 -72 45 5 15 11 48 14 75 4 26 10 47 15 47 25 0 38 31 35 90 -3 71 -8 79 -33
57 -10 -10 -28 -17 -40 -17 -44 0 -68 -17 -81 -59 -29 -97 -141 -62 -116 36 3
15 15 33 26 41 10 7 19 20 19 28 0 8 5 14 11 14 6 0 9 7 5 15 -3 8 -1 15 5 15
6 0 6 7 -1 20 -6 11 -7 20 -3 20 14 1 -39 40 -54 40 -30 0 -73 -44 -79 -81 -5
-29 -13 -40 -40 -53 -52 -24 -74 -21 -87 14 -6 17 -15 30 -19 30 -4 0 -8 7 -8
15 0 22 44 61 91 82 22 9 39 20 39 24 0 16 -30 62 -49 76 -12 8 -19 19 -15 24
3 6 -3 13 -15 16 -11 3 -23 14 -26 24 -4 10 -11 19 -16 19 -5 0 -9 20 -9 45 0
25 4 45 9 45 5 0 11 8 15 18 8 24 29 56 44 65 6 4 12 15 12 25 0 24 71 92 96
92 26 0 34 -23 34 -97 0 -42 -5 -57 -25 -79 -32 -35 -34 -81 -2 -93 12 -5 37
-23 55 -40 18 -17 37 -31 42 -31 5 0 25 -14 43 -30 19 -16 45 -30 58 -30 31 0
59 -28 59 -60 0 -25 4 -28 46 -34 26 -3 61 -6 78 -6 18 0 37 -5 43 -11 24 -24
43 -2 40 48 -2 44 0 48 20 48 30 1 45 18 41 46 -3 26 -26 34 -64 25 -18 -5
-24 -13 -24 -35 0 -35 -13 -41 -90 -41 -78 0 -90 6 -90 44 0 77 11 105 45 117
32 12 32 13 22 52 -8 30 -17 43 -39 51 -24 9 -28 16 -28 48 0 30 -4 38 -18 38
-20 0 -42 -38 -42 -70 0 -11 -4 -20 -10 -20 -5 0 -10 -7 -10 -15 0 -7 -6 -18
-13 -22 -7 -4 -17 -21 -22 -37 -13 -39 -58 -55 -86 -30 -27 25 -27 116 1 142
11 10 23 32 26 49 5 25 2 34 -15 45 -12 7 -21 19 -21 26 0 22 -33 72 -47 72
-8 0 -18 11 -23 24 -5 13 -14 26 -21 28 -16 5 -24 103 -12 147 15 56 34 60 86
17 43 -35 46 -41 49 -89 l3 -52 40 -3 c25 -2 44 -11 53 -23 7 -10 20 -19 28
-19 8 0 14 -4 14 -8 0 -4 15 -14 34 -20 26 -10 36 -20 41 -44 7 -30 71 -108
89 -108 14 0 56 42 56 56 0 7 5 14 11 16 22 7 1 78 -26 90 -25 11 -46 71 -30
86 4 4 30 7 58 7 l52 0 0 40 0 40 -64 -3 c-51 -2 -68 -7 -79 -23 -7 -10 -19
-19 -25 -19 -7 0 -21 -13 -30 -30 -16 -26 -24 -30 -64 -30 -45 0 -103 25 -103
45 0 6 14 21 31 35 17 14 40 33 51 43 12 9 33 17 48 17 28 0 40 15 40 51 0 14
-7 19 -28 19 -33 0 -67 -32 -77 -72 -6 -24 -12 -28 -45 -28 -56 0 -70 8 -70
40 0 28 15 40 51 40 10 0 19 5 19 10 0 6 -26 10 -57 10 -85 0 -103 7 -103 39
0 50 21 79 62 84 21 3 45 12 53 21 9 9 19 16 23 16 4 0 7 14 7 30 0 20 -6 32
-17 36 -10 3 -18 10 -18 15 0 5 -6 9 -13 9 -7 0 -23 10 -36 21 -50 47 20 132
93 113 24 -6 26 -10 26 -60 0 -52 1 -54 28 -54 51 0 81 -21 89 -64 5 -22 17
-44 28 -50 10 -6 25 -17 33 -23 7 -7 17 -13 22 -13 5 0 13 -15 18 -32 8 -31
11 -33 60 -36 29 -2 52 -7 52 -13 0 -5 15 -9 33 -9 23 0 40 -9 60 -30 16 -16
35 -30 42 -30 8 0 19 -9 25 -20 8 -14 21 -20 45 -20 19 0 35 4 35 9 0 6 20 13
44 16 37 6 47 4 65 -14 27 -27 67 -28 74 -1 3 11 12 20 21 20 23 0 20 17 -5
31 -13 7 -41 9 -74 4 -39 -4 -55 -2 -64 8 -6 8 -11 19 -10 23 4 16 -13 44 -26
44 -7 0 -16 -13 -20 -29 -6 -29 -26 -41 -72 -41 -27 0 -66 52 -61 83 2 15 -9
34 -34 59 -24 24 -38 47 -38 63 0 17 -5 25 -18 25 -10 0 -26 15 -36 35 l-19
35 26 21 c34 26 34 42 2 67 -33 26 -33 71 -1 99 13 12 27 19 30 16 3 -4 6 -1
6 5 0 19 38 14 80 -10 27 -16 40 -30 40 -44 0 -31 21 -36 131 -34 121 1 142
-4 156 -39 7 -19 19 -30 39 -34 35 -6 44 -2 44 22 0 10 6 24 14 30 33 28 17
91 -22 91 -14 0 -50 19 -70 38 -16 14 -71 16 -105 3 -16 -6 -28 -21 -32 -40
-9 -43 -37 -41 -53 3 -13 36 -20 40 -84 51 -21 3 -38 10 -38 15 0 6 -10 10
-23 10 -13 0 -28 5 -34 11 -7 7 -48 12 -100 13 -76 1 -93 4 -117 24 -16 12
-25 22 -20 22 4 0 3 5 -4 12 -20 20 -14 54 12 67 13 7 47 16 77 20 44 5 53 10
51 24 -2 9 2 17 8 17 5 0 10 5 10 11 0 22 31 40 78 46 43 5 50 3 54 -14 6 -23
49 -33 151 -33 68 0 72 2 68 41 -2 14 6 16 46 11 l48 -5 -22 25 c-13 13 -23
29 -23 35 0 13 -23 23 -53 23 -25 0 -49 32 -41 54 3 9 -3 19 -16 26 -38 20
-68 51 -74 76 -4 13 -13 24 -20 24 -8 0 -16 7 -20 15 -3 10 -19 15 -46 15 -34
0 -42 4 -50 26 -6 14 -10 48 -10 75 0 27 -5 49 -10 49 -6 0 -29 18 -50 39 -40
39 -54 91 -30 106 6 4 8 11 4 16 -3 6 4 20 15 30 17 16 29 19 54 14 46 -10 67
-33 67 -72 0 -45 16 -73 40 -73 11 0 20 -5 20 -10 0 -14 46 -60 60 -60 5 0 10
-7 10 -15 0 -8 15 -21 33 -28 17 -8 38 -21 46 -30 19 -24 34 -21 25 6 -4 12
-10 24 -13 27 -4 3 -12 17 -18 33 -7 15 -19 27 -28 27 -19 0 -31 48 -16 63 6
6 11 30 11 53 0 36 -3 43 -25 48 -20 5 -25 13 -25 36 0 44 23 50 162 47 106
-2 130 -6 175 -27 34 -16 55 -33 59 -47 3 -13 10 -23 14 -23 5 0 10 -10 12
-22 2 -15 11 -24 26 -26 12 -2 22 -8 22 -13 0 -24 42 -49 84 -49 26 0 48 -6
56 -15 7 -8 18 -15 25 -15 21 0 -3 76 -28 89 -38 19 -59 35 -92 70 -57 59 -64
70 -73 103 -8 30 -12 33 -43 30 -48 -4 -82 6 -76 23 4 8 -7 19 -27 29 -37 17
-48 43 -39 90 8 43 31 66 66 66 32 0 77 -33 77 -57 0 -7 5 -13 10 -13 6 0 10
-9 10 -19 0 -12 11 -23 30 -30 17 -5 30 -15 30 -20 0 -6 8 -11 18 -11 11 0 27
-9 37 -20 10 -11 24 -20 32 -20 7 0 13 -4 13 -10 0 -5 15 -10 33 -9 17 0 27 3
20 6 -7 2 -15 20 -19 38 -5 27 -11 34 -33 37 -18 2 -27 10 -29 26 -3 19 1 22
27 22 24 0 31 -4 31 -20 0 -21 7 -25 27 -12 10 6 10 17 0 53 -11 40 -16 44
-46 47 -22 2 -42 13 -58 33 -14 16 -33 29 -44 29 -10 0 -19 5 -19 10 0 6 -28
10 -62 10 -65 0 -95 10 -84 28 3 6 -3 13 -14 17 -11 3 -20 11 -20 16 0 10 -19
34 -67 84 -34 34 -43 77 -21 91 20 13 102 4 114 -11 6 -8 16 -15 22 -15 6 0
16 -8 21 -19 7 -12 26 -20 61 -25 27 -4 50 -11 50 -16 0 -4 13 -11 30 -15 16
-4 33 -12 37 -19 5 -7 16 -15 25 -19 22 -8 24 7 18 102 -5 74 -6 76 -32 79
-15 2 -39 17 -56 36 -15 18 -36 35 -45 39 -9 3 -17 15 -17 26 0 11 -4 23 -10
26 -5 3 -10 22 -10 41 0 19 5 34 10 34 6 0 10 9 10 19 0 12 9 21 26 25 35 9
62 -19 66 -70 3 -38 4 -39 50 -44 26 -3 52 -1 60 5 13 10 21 45 9 45 -3 0 -7
47 -8 105 -2 76 1 105 10 105 6 0 -3 10 -20 23 -31 21 -33 26 -33 84 0 40 4
63 13 66 30 13 61 5 88 -22z m335 -417 c29 -14 34 -21 34 -50 0 -19 -4 -34 -8
-34 -4 0 -14 -17 -21 -37 -18 -48 -98 -133 -126 -133 -46 0 -60 50 -25 90 16
18 20 37 20 92 0 62 2 70 23 78 34 13 65 12 103 -6z m-811 -444 c8 -25 -2 -78
-21 -107 -13 -21 -22 -23 -114 -23 -58 0 -100 4 -100 10 0 5 -7 7 -15 4 -19
-8 -85 23 -85 39 0 7 4 18 8 24 9 14 95 33 148 33 23 0 38 6 46 20 10 16 24
20 70 20 48 0 58 -3 63 -20z m-275 -829 c3 -4 17 -11 33 -15 58 -14 19 -76
-49 -76 -24 0 -46 -4 -49 -10 -3 -5 -19 -10 -35 -10 -23 0 -30 5 -35 30 -5 23
-1 37 17 59 13 16 30 32 38 34 20 7 73 -1 80 -12z m-220 -39 c0 -4 14 -13 30
-20 59 -26 28 -107 -45 -119 -30 -5 -39 -1 -70 33 -40 42 -43 73 -7 89 12 5
22 13 22 17 0 5 16 8 35 8 19 0 35 -3 35 -8z m-705 -2645 c3 -12 19 -28 36
-36 24 -10 29 -19 29 -48 0 -64 -43 -80 -105 -40 -32 20 -35 26 -35 75 0 30 4
52 11 52 5 0 7 5 4 10 -4 6 6 10 24 10 24 0 32 -5 36 -23z m3995 -1804 c0 -42
-6 -54 -39 -90 -36 -39 -71 -56 -71 -34 0 5 -11 12 -25 15 -23 6 -36 36 -16
36 5 0 13 9 16 20 12 38 78 99 108 99 26 1 27 -1 27 -46z m-4625 -3780 c7 -10
26 -16 46 -16 19 0 40 -4 47 -10 15 -12 16 -47 1 -47 -5 0 -8 -4 -5 -9 3 -5
-1 -12 -10 -15 -28 -11 -120 -6 -132 6 -17 17 -15 68 5 90 20 22 32 23 48 1z
m-528 -90 c21 -26 50 -59 66 -74 33 -32 35 -55 5 -63 -43 -11 -55 -6 -115 52
-33 31 -67 63 -76 70 -25 19 -21 50 6 55 63 12 75 8 114 -40z m5933 -23 c0 -5
7 -10 15 -10 31 0 13 -35 -50 -92 -36 -33 -65 -66 -65 -74 0 -18 -58 -18 -82
0 -26 19 -23 28 25 72 23 21 54 56 67 76 20 31 31 38 58 38 17 0 32 -4 32 -10z
m-5216 -76 c9 -4 16 -18 16 -33 0 -32 -51 -64 -96 -60 -16 1 -38 -2 -48 -6
-21 -9 -63 10 -79 36 -22 35 45 65 150 68 23 1 48 -2 57 -5z m4506 -64 c0 -5
11 -10 25 -10 33 0 75 -20 75 -37 0 -22 -38 -53 -65 -53 -14 0 -25 5 -25 10 0
6 -19 10 -42 10 -75 0 -118 38 -86 74 15 17 118 22 118 6z m-4236 -486 c20 -8
21 -41 2 -59 -7 -8 -16 -31 -19 -53 -5 -28 -13 -42 -32 -50 -20 -9 -25 -19
-25 -47 0 -43 -29 -75 -69 -75 -17 0 -33 -4 -36 -10 -3 -5 -19 -10 -36 -10
-28 0 -29 2 -29 44 0 52 8 76 24 76 6 0 18 9 26 20 8 12 29 29 46 39 26 15 31
24 27 45 -3 15 -1 26 6 26 6 0 11 9 11 20 0 30 62 50 104 34z m3951 -78 c8 -8
15 -18 15 -23 0 -27 23 -83 34 -83 17 0 48 -35 39 -43 -3 -4 1 -7 10 -7 32 0
57 -37 57 -85 0 -45 0 -45 -35 -45 -21 0 -38 6 -41 14 -3 8 -15 11 -30 8 -37
-7 -64 23 -64 70 0 32 -4 40 -25 48 -14 5 -25 16 -25 25 0 8 -4 15 -10 15 -5
0 -10 11 -10 24 0 14 -4 28 -10 31 -14 9 -12 48 3 64 15 16 71 8 92 -13z
m-477 -324 c12 -12 22 -29 22 -37 0 -8 14 -28 30 -43 34 -33 37 -47 15 -68
-19 -19 -115 -32 -115 -15 0 7 -5 9 -11 6 -13 -8 -55 29 -72 64 -14 29 -21 96
-11 113 12 19 117 5 142 -20z"/>
<path d="M4423 10236 c18 -14 23 -62 31 -286 1 -27 6 -35 21 -38 67 -10 65 -8
65 -75 1 -60 15 -97 38 -97 17 0 23 30 7 36 -11 5 -15 22 -15 65 0 32 4 59 9
59 5 0 11 12 13 27 4 34 32 42 59 17 19 -17 19 -16 19 47 0 37 5 70 12 77 15
15 10 20 -22 23 -69 6 -94 -16 -50 -43 25 -16 26 -40 2 -61 -39 -35 -92 -7
-92 48 0 17 -10 37 -25 51 -25 23 -35 74 -15 74 19 0 10 42 -10 47 -11 3 -20
9 -20 14 0 4 -10 13 -22 19 -21 10 -22 10 -5 -4z"/>
<path d="M5055 10110 c-3 -6 -3 -29 0 -53 4 -31 1 -52 -13 -79 -21 -40 -19
-48 10 -48 10 0 18 -4 18 -10 0 -14 33 -13 48 2 18 18 16 149 -4 176 -16 23
-48 29 -59 12z"/>
<path d="M3451 9900 c-6 -28 -11 -64 -11 -80 0 -23 -7 -33 -31 -46 -29 -14
-30 -18 -24 -52 11 -62 30 -73 80 -50 14 6 24 17 21 24 -3 8 -1 16 4 19 6 4
10 14 10 23 0 9 15 40 32 67 17 28 32 58 33 67 2 19 -65 78 -89 78 -9 0 -18
-18 -25 -50z"/>
<path d="M5320 9575 c0 -8 -4 -15 -9 -15 -11 0 -9 -18 7 -47 7 -12 12 -31 12
-42 0 -12 6 -21 14 -21 7 0 16 -9 19 -20 9 -34 34 -34 76 1 38 30 50 56 34 72
-3 4 -12 2 -19 -4 -21 -18 -54 -6 -72 26 -9 17 -20 32 -24 33 -5 2 -8 10 -8
18 0 8 -7 14 -15 14 -8 0 -15 -7 -15 -15z"/>
<path d="M5810 8863 c-8 -3 -28 -17 -45 -31 -27 -22 -36 -24 -92 -19 -38 4
-63 2 -63 -3 0 -6 7 -10 14 -10 18 0 66 -43 66 -59 0 -6 5 -11 11 -11 5 0 7
-4 4 -10 -10 -16 41 -12 55 5 7 8 16 15 21 15 14 0 59 42 59 56 0 6 8 15 17
18 11 5 13 10 7 14 -6 4 -13 15 -17 25 -7 18 -12 19 -37 10z"/>
<path d="M3068 8687 c-4 -27 -15 -55 -23 -64 -9 -8 -19 -28 -22 -44 -3 -16 -9
-29 -14 -29 -5 0 -9 -25 -9 -55 0 -30 5 -55 10 -55 6 0 10 -27 10 -60 0 -33
-4 -60 -10 -60 -18 0 -11 -66 8 -83 11 -10 45 -20 83 -23 48 -5 68 -12 81 -27
14 -18 30 -22 117 -25 56 -3 101 -8 101 -13 0 -12 71 -41 87 -35 8 3 13 22 13
46 0 56 29 84 89 84 42 1 46 -1 49 -25 2 -20 -2 -28 -17 -32 -40 -10 -14 -66
31 -67 9 0 19 -8 22 -18 12 -36 118 -54 183 -32 45 16 76 84 67 149 -10 80 0
115 39 129 37 13 70 15 105 6 16 -5 22 -14 22 -34 0 -16 -7 -30 -15 -34 -9 -3
-15 -19 -15 -41 0 -19 -4 -35 -9 -35 -5 0 -12 -14 -16 -31 -6 -25 -2 -36 14
-53 28 -27 104 -28 145 -1 l28 19 -22 18 c-12 10 -28 18 -35 18 -18 0 -24 32
-18 101 4 42 12 68 25 81 23 23 33 18 57 -30 25 -48 66 -88 76 -72 4 7 -1 14
-14 17 -12 3 -21 12 -21 19 0 8 -4 14 -9 14 -6 0 -11 19 -13 43 -3 39 -5 42
-35 45 -25 3 -33 8 -33 23 0 11 7 22 15 25 20 8 21 90 1 97 -18 7 -26 -1 -26
-25 0 -10 -5 -18 -11 -18 -20 0 -99 -54 -99 -68 0 -15 -59 -42 -92 -42 -32 -1
-63 -27 -64 -53 -2 -61 -4 -67 -24 -67 -13 0 -24 10 -30 26 -14 35 -63 31 -68
-5 -5 -35 -21 -47 -58 -43 -22 3 -35 11 -39 23 -9 28 4 79 21 79 20 0 17 37
-3 42 -27 7 -43 -2 -43 -23 0 -10 -4 -19 -9 -19 -5 0 -11 -12 -14 -28 -11 -52
-118 -68 -131 -19 -15 57 -7 93 29 122 26 22 33 35 29 52 -4 15 2 30 20 48 14
14 26 30 26 35 0 6 4 10 8 10 16 0 8 30 -13 50 l-22 20 -25 -20 c-15 -11 -33
-20 -41 -20 -9 0 -18 -13 -22 -30 -7 -32 -38 -47 -76 -37 -12 3 -22 0 -26 -9
-3 -8 -11 -14 -17 -14 -7 0 -19 -12 -27 -27 -28 -55 -45 -66 -90 -60 -23 3
-45 10 -48 14 -3 5 -14 12 -24 16 -22 8 -34 37 -19 46 6 3 13 18 17 31 3 14
18 34 33 44 19 12 27 26 27 47 0 35 -5 36 -35 4 -17 -18 -34 -25 -60 -25 -49
0 -68 23 -72 85 l-3 50 -7 -48z m161 -286 c10 -10 22 -33 26 -51 10 -45 -15
-70 -70 -70 -45 0 -55 12 -55 70 0 60 59 91 99 51z"/>
<path d="M5090 8654 c-6 -14 -10 -29 -10 -34 0 -5 -6 -10 -12 -13 -19 -6 32
-46 59 -47 13 0 24 -8 28 -20 3 -11 11 -20 17 -20 6 0 9 -16 6 -39 -3 -38 -2
-39 32 -45 19 -3 58 -6 85 -6 l50 1 -27 24 c-16 13 -28 33 -28 43 0 25 -25 74
-33 65 -4 -3 -7 -1 -7 6 0 6 -12 18 -27 24 -58 27 -93 53 -93 70 0 26 -29 20
-40 -9z"/>
<path d="M4517 8404 c-2 -14 0 -27 6 -31 11 -6 4 -114 -9 -134 -9 -15 -9 -67
0 -89 3 -8 7 -26 8 -39 3 -25 41 -71 58 -71 17 0 11 54 -10 95 -11 22 -20 50
-20 62 0 13 -4 23 -10 23 -15 0 -12 49 4 66 23 23 44 16 51 -15 3 -16 18 -42
33 -56 15 -15 27 -32 27 -39 0 -6 10 -12 23 -14 20 -3 21 -1 11 22 -7 14 -16
26 -21 26 -4 0 -8 9 -8 20 0 11 -16 37 -35 59 -19 21 -35 46 -35 55 0 9 -4 16
-10 16 -5 0 -10 6 -10 13 0 7 -11 23 -24 34 l-24 21 -5 -24z"/>
<path d="M3100 8056 c0 -8 -6 -17 -12 -19 -10 -4 -10 -6 0 -6 6 -1 12 -7 12
-15 0 -12 -13 -14 -70 -9 -67 6 -70 5 -70 -16 0 -17 6 -21 35 -21 24 0 35 -5
35 -15 0 -11 -12 -15 -44 -15 -43 0 -44 -1 -50 -39 -3 -21 -13 -41 -21 -45
-17 -6 -21 -36 -5 -36 6 0 10 -23 10 -50 0 -48 -2 -51 -29 -56 -17 -4 -32 -13
-35 -21 -8 -19 24 -30 38 -12 6 8 35 32 64 53 28 21 52 43 52 50 0 7 12 19 28
27 15 8 29 17 32 20 3 3 15 11 27 18 17 8 24 24 29 60 7 58 10 63 49 80 l30
13 -25 19 c-14 11 -33 27 -43 35 -22 18 -37 18 -37 0z"/>
<path d="M4033 7957 c-31 -9 -46 -27 -23 -27 6 0 10 -22 10 -49 0 -54 -8 -61
-66 -61 -20 0 -34 5 -34 13 -1 13 -34 57 -45 57 -13 0 -35 -29 -35 -48 0 -22
41 -44 60 -32 26 16 49 -8 56 -60 4 -33 11 -50 21 -50 18 0 26 21 27 73 1 41
2 42 39 45 35 3 37 2 37 -26 0 -17 -6 -32 -15 -36 -26 -10 -4 -36 36 -42 28
-5 47 -16 64 -38 l25 -31 0 38 c0 24 5 37 13 37 31 0 67 26 67 48 0 12 -3 21
-7 20 -17 -3 -61 21 -67 37 -10 27 -7 55 6 55 15 0 -41 38 -97 66 -32 16 -47
18 -72 11z"/>
<path d="M3425 7952 c-2 -3 0 -13 6 -23 14 -28 2 -62 -28 -76 -43 -21 -64 -16
-76 17 -17 44 -47 41 -47 -6 0 -47 -20 -66 -67 -62 -36 3 -38 2 -38 -27 0 -27
3 -30 30 -30 37 0 75 -24 75 -46 0 -13 13 -19 50 -24 l50 -7 0 -39 c0 -21 -4
-39 -8 -39 -4 0 -16 -15 -26 -32 l-18 -33 25 25 c14 14 32 30 39 37 25 23 35
38 31 49 -6 17 40 36 78 32 26 -2 35 -8 37 -25 2 -13 7 -23 12 -23 4 0 11 -12
14 -26 6 -23 10 -26 39 -20 18 4 34 11 35 16 2 6 30 10 63 10 55 0 60 2 69 26
16 41 12 64 -9 64 -11 0 -23 5 -26 10 -3 6 -18 10 -33 10 -41 0 -49 10 -54 73
-5 56 -27 91 -53 83 -14 -4 -19 -46 -6 -46 6 0 11 -13 11 -29 0 -20 6 -30 20
-34 31 -8 27 -47 -5 -47 -18 0 -25 5 -25 20 0 15 -7 20 -25 20 -14 0 -25 -4
-25 -9 0 -15 -57 -23 -79 -11 -15 8 -21 21 -21 46 0 30 4 35 30 41 17 3 30 9
30 14 0 5 7 9 15 9 8 0 15 5 15 10 0 6 -7 13 -15 16 -20 8 -19 50 1 58 9 3 31
6 50 6 19 0 34 5 34 10 0 6 -3 11 -7 11 -21 4 -164 4 -168 1z"/>
<path d="M2970 7483 c-19 -8 -45 -24 -57 -35 -17 -16 -30 -19 -60 -14 -73 12
-85 11 -97 -8 -19 -33 -42 -53 -70 -60 -27 -7 -34 -20 -16 -31 22 -14 10 -35
-20 -35 -25 0 -30 4 -30 23 0 19 -8 25 -45 35 -63 17 -72 16 -111 -14 -35 -27
-38 -53 -4 -32 23 15 66 -5 75 -33 6 -19 64 -36 90 -26 8 4 39 2 69 -3 46 -7
63 -16 98 -52 l43 -43 95 -1 c128 0 124 1 139 -39 12 -33 14 -35 60 -35 55 0
61 8 61 91 0 32 5 49 15 53 30 11 15 33 -26 40 -23 4 -48 13 -56 21 -19 19
-42 19 -49 0 -8 -19 -44 -19 -80 0 -16 8 -24 15 -19 15 6 0 4 4 -3 9 -15 9 -7
81 10 81 5 0 7 4 4 8 -3 5 8 19 24 31 19 14 30 31 30 46 0 29 -17 31 -70 8z"/>
<path d="M2735 7073 c-17 -19 -35 -40 -41 -46 -5 -7 -13 -20 -17 -29 -3 -10
-13 -18 -22 -18 -8 0 -15 -9 -15 -19 0 -10 -7 -21 -15 -25 -17 -6 -21 -36 -5
-36 6 0 10 4 10 9 0 5 12 11 28 13 19 2 28 9 30 24 2 15 12 24 32 28 41 8 63
-2 57 -26 -4 -14 -2 -18 10 -14 8 3 25 6 38 6 18 0 22 4 18 20 -3 11 0 20 6
20 6 0 11 11 11 25 0 14 -4 25 -10 25 -5 0 -10 6 -10 14 0 18 -42 61 -60 62
-8 1 -29 -14 -45 -33z"/>
<path d="M4016 6827 c33 -13 64 -39 64 -56 0 -5 10 -13 23 -16 12 -4 36 -21
53 -37 44 -41 76 -36 89 16 8 35 7 40 -15 58 -20 16 -33 18 -80 13 -47 -5 -59
-3 -82 14 -14 12 -39 21 -55 20 l-28 -1 31 -11z"/>
<path d="M2474 6438 c-3 -13 -17 -36 -30 -51 -19 -22 -22 -33 -14 -47 15 -28
12 -40 -9 -40 -39 0 -42 -60 -3 -86 23 -16 48 -19 172 -19 80 -1 149 1 153 3
13 6 -24 42 -43 42 -26 0 -40 21 -40 65 -1 46 -29 88 -53 79 -9 -3 -13 -12
-10 -20 3 -8 0 -14 -5 -14 -6 0 -14 -9 -17 -20 -8 -26 -36 -26 -58 0 -18 21
-23 55 -9 64 4 2 7 17 6 33 -1 35 -29 43 -40 11z"/>
<path d="M6157 6393 c-11 -10 -8 -63 3 -63 18 0 11 -45 -10 -63 -30 -25 -48
-21 -71 18 -12 19 -23 35 -25 35 -2 0 -13 -8 -24 -17 -13 -12 -20 -30 -20 -55
0 -41 -24 -78 -51 -78 -18 0 -45 -26 -32 -32 4 -2 73 -3 153 -3 176 1 199 9
191 63 -5 29 -11 38 -29 40 -20 3 -22 7 -16 38 5 28 2 40 -15 58 -12 13 -21
27 -20 32 5 30 -15 46 -34 27z"/>
<path d="M5783 5692 c-4 -9 -12 -21 -20 -25 -7 -4 -13 -25 -13 -45 0 -21 -5
-43 -11 -49 -13 -13 -3 -36 12 -28 5 4 9 15 9 26 0 15 7 19 35 19 34 0 35 -1
35 -39 0 -31 -4 -41 -20 -46 -25 -8 -26 -43 -2 -52 9 -4 23 -12 30 -19 14 -15
17 -124 2 -124 -5 0 -10 -4 -10 -9 0 -5 8 -8 18 -7 11 1 19 12 22 36 5 34 7
35 51 38 32 2 50 -2 59 -13 7 -8 26 -15 43 -15 29 0 30 0 12 20 -10 11 -26 22
-37 26 -22 7 -68 50 -68 64 0 6 -4 10 -8 10 -4 0 -13 12 -19 28 -14 30 -32 59
-50 80 -15 16 -17 72 -3 72 6 0 1 9 -10 20 -11 11 -20 24 -20 29 0 18 -31 21
-37 3z"/>
<path d="M3768 5225 c-4 -71 -17 -89 -55 -80 -13 3 -35 8 -49 11 -30 8 -44 -7
-44 -48 0 -16 -4 -28 -10 -28 -5 0 -10 -9 -10 -20 0 -11 -4 -20 -8 -20 -5 0
-14 -16 -22 -35 -8 -19 -17 -35 -21 -35 -4 0 -10 -11 -13 -25 -5 -18 -13 -25
-29 -25 -13 0 -34 -11 -47 -26 -21 -21 -22 -27 -10 -34 8 -5 19 -10 24 -10 5
0 15 -8 22 -17 13 -17 13 -17 14 0 0 9 4 17 9 17 5 0 14 14 21 30 7 17 17 30
22 30 5 0 6 5 3 10 -3 6 -1 10 4 10 6 0 11 6 11 14 0 7 7 19 15 26 8 7 15 23
15 36 0 13 4 24 9 24 5 0 14 13 20 29 11 25 19 29 74 37 49 7 64 14 73 32 6
13 23 36 38 51 30 31 34 59 9 68 -10 3 -28 15 -39 25 l-22 19 -4 -66z"/>
<path d="M4877 5212 c-5 -7 -20 -17 -33 -22 -32 -13 -32 -53 1 -86 14 -14 25
-29 25 -34 0 -15 31 -27 87 -35 39 -5 54 -12 58 -26 4 -10 10 -19 15 -19 5 0
12 -16 16 -35 3 -20 15 -40 25 -46 11 -5 19 -16 19 -24 0 -7 7 -21 16 -29 8
-9 12 -20 9 -26 -3 -6 0 -13 9 -16 8 -3 18 -19 21 -35 6 -26 8 -27 21 -14 9 8
26 18 40 21 13 3 24 11 24 18 0 19 -47 56 -71 56 -19 0 -29 11 -48 53 -14 28
-27 54 -31 57 -11 9 -30 61 -30 80 0 11 -4 20 -10 20 -5 0 -10 7 -10 15 0 9
-9 15 -24 15 -13 0 -26 -7 -30 -15 -8 -23 -57 -19 -63 5 -3 11 -9 20 -14 20
-4 0 -9 26 -11 58 -2 35 -6 52 -11 44z"/>
<path d="M2782 5114 c-12 -8 -22 -22 -22 -29 0 -8 -11 -22 -25 -31 -14 -9 -25
-22 -25 -29 0 -8 -9 -16 -20 -20 -10 -3 -25 -21 -31 -40 -7 -18 -21 -36 -31
-38 -10 -3 -21 -13 -25 -24 -4 -10 -13 -24 -20 -31 -7 -7 -13 -25 -13 -40 0
-20 -9 -32 -31 -45 -17 -9 -33 -26 -36 -37 -3 -11 -9 -20 -14 -20 -5 0 -9 -7
-9 -15 0 -9 -11 -21 -25 -27 -14 -6 -25 -15 -25 -20 0 -4 -13 -8 -30 -8 -21 0
-35 -8 -46 -25 -9 -14 -15 -27 -13 -29 15 -15 89 -36 123 -36 34 0 48 -6 71
-30 19 -20 38 -30 59 -30 17 0 40 -9 53 -22 13 -12 23 -16 23 -10 0 15 136 16
145 1 5 -7 14 -4 26 7 16 14 31 16 91 10 40 -4 77 -11 82 -16 16 -16 23 -12
31 17 3 15 15 33 26 41 14 10 19 25 19 60 -1 43 -2 45 -15 28 -9 -12 -30 -20
-60 -22 -25 -2 -54 -8 -64 -14 -11 -5 -27 -10 -35 -10 -20 0 -56 -30 -56 -47
0 -21 -47 -15 -74 11 -15 13 -26 28 -26 35 0 6 -4 11 -10 11 -16 0 -12 37 5
44 8 3 15 12 15 20 0 7 7 16 15 20 8 3 15 14 15 24 0 10 13 31 30 47 27 26 61
93 40 80 -6 -4 -10 -13 -10 -21 0 -8 -6 -14 -13 -14 -27 0 -57 -37 -57 -69 0
-28 -3 -31 -40 -37 -22 -4 -40 -10 -40 -15 0 -5 -13 -9 -30 -9 -17 0 -39 -9
-50 -20 -39 -39 -70 -14 -70 55 0 40 5 51 33 79 19 18 41 36 50 39 18 7 23 27
7 27 -21 0 -9 40 23 71 17 18 31 36 30 41 -2 4 2 8 7 8 6 0 10 7 10 16 0 17
50 84 64 84 13 0 35 33 36 53 0 21 -9 22 -38 1z"/>
<path d="M5847 5063 c-9 -20 1 -39 30 -58 18 -11 31 -24 29 -30 -4 -13 30 -45
40 -37 4 4 4 -3 1 -15 -3 -13 -1 -23 4 -23 5 0 9 -7 9 -15 0 -9 11 -21 25 -27
14 -6 25 -17 25 -25 0 -7 5 -13 10 -13 6 0 10 -9 10 -20 0 -11 -4 -20 -10 -20
-5 0 -10 -7 -10 -15 0 -8 6 -15 13 -15 7 0 27 -15 45 -33 27 -28 32 -41 32
-81 0 -28 -6 -53 -14 -62 -16 -15 -46 -19 -46 -6 0 14 -40 30 -102 42 l-58 11
0 39 c0 35 -4 40 -40 57 -21 10 -41 25 -43 33 -4 11 -5 11 -6 -3 0 -9 17 -37
39 -61 22 -24 40 -51 40 -60 0 -9 7 -19 15 -22 8 -4 15 -12 15 -20 0 -8 5 -14
10 -14 6 0 10 -11 10 -25 0 -14 -5 -25 -12 -25 -6 0 -9 -3 -5 -6 3 -3 -4 -17
-16 -30 -27 -31 -82 -34 -90 -4 -3 11 -13 23 -24 26 -10 3 -36 14 -58 24 -23
11 -51 16 -67 13 -18 -3 -32 1 -47 16 l-21 21 0 -46 c0 -37 6 -54 31 -86 18
-22 35 -35 38 -29 4 6 44 13 89 17 70 6 82 5 88 -9 4 -13 10 -14 24 -7 25 13
137 13 145 -1 5 -6 13 -3 22 10 10 15 25 21 52 21 27 0 44 7 61 25 18 20 33
25 70 25 25 0 55 7 66 15 10 8 27 15 36 15 9 0 20 5 23 11 9 14 -34 59 -56 59
-23 0 -69 21 -69 31 0 4 -6 14 -12 21 -7 7 -20 26 -28 42 -8 16 -27 33 -42 38
-19 7 -28 17 -28 31 -1 34 -37 107 -54 107 -9 0 -19 12 -22 26 -4 14 -17 30
-30 35 -14 5 -28 20 -34 33 -5 13 -17 30 -28 37 -10 8 -21 22 -25 31 -7 19
-44 42 -50 31z"/>
<path d="M3407 4643 c-4 -3 -7 -16 -7 -28 0 -26 -25 -50 -62 -59 -16 -3 -28
-11 -28 -16 0 -5 -11 -20 -25 -34 -32 -32 -32 -46 1 -46 46 0 64 -17 64 -60 0
-21 3 -46 6 -55 6 -14 9 -13 30 6 13 12 24 28 24 36 0 7 5 13 11 13 5 0 8 4 4
9 -3 5 5 18 18 28 23 18 23 21 12 67 -7 27 -18 52 -25 56 -7 4 -10 23 -9 43 3
37 -2 52 -14 40z"/>
<path d="M5246 4555 c4 -16 -2 -41 -17 -73 -38 -76 -39 -85 -7 -108 15 -11 25
-24 22 -27 -4 -3 0 -13 7 -21 8 -8 20 -22 27 -31 21 -25 32 -17 32 25 0 49 27
80 70 80 17 0 30 3 30 7 0 12 -90 93 -103 93 -21 0 -37 22 -37 52 0 18 -5 28
-15 28 -11 0 -14 -7 -9 -25z"/>
<path d="M4070 4345 c-9 -10 -12 -40 -11 -84 1 -43 -3 -82 -13 -105 -15 -35
-16 -36 -69 -36 -60 0 -73 -12 -57 -54 8 -22 16 -24 87 -28 43 -3 79 -4 80 -3
1 0 6 70 10 154 8 157 2 191 -27 156z"/>
<path d="M4567 4283 c-11 -11 -8 -203 3 -203 6 0 10 -25 10 -56 0 -47 3 -55
16 -50 9 3 42 6 74 6 49 0 61 3 70 20 6 12 8 30 5 41 -6 17 -12 19 -56 13 -42
-6 -50 -4 -56 12 -3 11 -11 22 -17 26 -6 4 -12 45 -13 93 -1 46 -5 89 -8 95
-7 12 -19 13 -28 3z"/>
<path d="M3504 4176 c-6 -16 33 -66 52 -66 6 0 15 -12 19 -27 4 -19 2 -29 -11
-36 -14 -8 -9 -14 30 -38 54 -34 50 -33 70 -13 29 29 18 104 -15 104 -10 0
-19 5 -19 10 0 6 -7 10 -15 10 -9 0 -29 16 -46 35 -33 37 -56 44 -65 21z"/>
<path d="M5102 4097 c-12 -13 -22 -28 -22 -34 0 -6 -18 -13 -40 -17 -26 -4
-40 -11 -40 -21 0 -8 -4 -15 -9 -15 -9 0 -1 -47 14 -82 9 -23 18 -23 40 2 10
11 22 20 27 20 16 0 39 28 27 32 -14 5 0 58 15 58 12 0 46 50 46 69 0 19 -36
12 -58 -12z"/>
<path d="M3133 4049 c-7 -7 -13 -17 -13 -21 0 -9 -22 -37 -62 -80 -24 -24 -28
-37 -28 -83 0 -42 -4 -55 -15 -55 -18 0 -35 -31 -35 -64 0 -38 16 -40 53 -4
40 38 57 68 57 97 0 12 4 21 9 21 5 0 7 9 4 19 -3 12 3 29 16 42 31 34 45 159
14 128z"/>
<path d="M2600 3986 c-19 -13 -54 -27 -76 -30 -39 -7 -42 -10 -48 -47 l-6 -39
-86 0 c-82 0 -87 -1 -124 -32 -22 -18 -40 -41 -40 -50 0 -20 29 -38 59 -38 12
0 21 -4 21 -10 0 -5 11 -10 24 -10 14 0 28 -4 31 -10 3 -5 15 -10 25 -10 10 0
20 -5 22 -11 2 -6 40 -13 85 -16 82 -6 82 -6 92 21 16 40 52 32 66 -14 4 -14
13 -28 19 -32 21 -15 78 -8 103 12 16 12 41 20 65 20 38 0 39 1 36 33 -2 21
-10 35 -25 42 -20 8 -32 32 -33 61 0 6 14 26 30 44 17 18 30 40 30 47 0 7 4
13 9 13 5 0 7 8 4 19 -3 10 0 22 6 25 6 4 11 12 11 18 0 5 -17 -5 -37 -23 -21
-18 -37 -39 -35 -46 2 -7 -2 -13 -8 -13 -6 0 -9 -4 -6 -8 3 -5 -7 -24 -23 -43
-15 -19 -33 -49 -40 -66 -8 -18 -20 -33 -27 -33 -14 0 -55 20 -64 31 -3 4 -15
9 -27 13 -17 5 -23 3 -23 -7 0 -17 -21 -27 -55 -27 -41 0 -55 11 -55 41 0 21
10 38 35 61 20 17 33 33 30 36 -8 8 26 42 42 42 7 0 13 4 13 9 0 5 9 11 20 14
22 6 28 37 7 37 -7 0 -28 -11 -47 -24z"/>
<path d="M5517 3984 c-10 -11 -9 -72 3 -79 5 -3 7 -11 4 -18 -2 -7 7 -20 21
-27 20 -10 25 -20 22 -37 -2 -12 -1 -24 4 -25 4 -2 9 -19 11 -38 2 -25 14 -45
43 -73 21 -20 44 -36 50 -34 5 2 11 18 13 36 3 28 -1 34 -27 44 -30 11 -31 13
-31 73 0 53 -3 64 -24 80 -14 10 -23 20 -21 23 5 10 -60 82 -68 75z"/>
<path d="M6010 3930 c0 -13 11 -25 27 -33 27 -12 63 -42 63 -52 0 -3 16 -19
35 -36 55 -48 42 -109 -22 -109 -30 1 -67 23 -56 33 10 11 -14 8 -44 -5 -15
-7 -32 -18 -36 -25 -11 -18 -47 -16 -47 2 0 9 -7 18 -15 21 -8 4 -15 15 -15
25 0 11 -5 25 -10 32 -40 47 -50 61 -50 71 -1 11 -66 86 -75 86 -3 0 -5 -7 -5
-15 0 -8 4 -15 9 -15 4 0 11 -16 14 -36 4 -21 16 -43 31 -55 15 -11 26 -27 26
-35 0 -8 5 -14 10 -14 6 0 10 -9 10 -20 0 -11 -4 -20 -10 -20 -5 0 -9 -5 -7
-10 1 -6 -9 -16 -23 -23 -16 -8 -26 -23 -28 -40 -3 -26 -1 -27 41 -27 34 0 49
-6 67 -25 17 -18 34 -25 59 -25 46 0 57 8 65 47 4 17 14 34 22 37 21 8 46 -5
40 -20 -13 -34 128 -30 200 5 23 11 61 23 85 27 43 6 69 25 69 50 0 7 -14 28
-32 48 l-32 36 -93 0 -93 0 0 35 c0 28 -4 35 -20 35 -11 0 -20 5 -20 10 0 6
-9 10 -20 10 -21 0 -55 16 -78 38 -20 18 -42 14 -42 -8z"/>
<path d="M2116 3666 c5 -14 34 -31 70 -41 12 -3 24 -14 27 -25 3 -11 13 -23
24 -27 10 -3 20 -9 23 -12 3 -4 18 -12 33 -19 31 -13 107 0 107 18 0 6 16 10
35 10 19 0 35 -5 35 -10 0 -6 11 -15 25 -20 14 -5 31 -24 39 -43 15 -38 35
-55 45 -40 3 5 14 12 24 16 21 8 22 27 1 27 -9 0 -18 9 -21 20 -3 11 -10 20
-15 20 -5 0 -6 5 -3 10 3 6 1 10 -4 10 -6 0 -11 9 -11 20 0 18 -7 20 -55 20
-30 0 -55 5 -55 10 0 6 -9 10 -20 10 -11 0 -20 -4 -20 -10 0 -13 -117 -13
-124 -1 -4 5 -24 12 -45 16 -22 4 -52 17 -66 31 -28 26 -58 32 -49 10z"/>
<path d="M1960 3593 c-8 -3 -23 -14 -33 -24 -11 -12 -32 -19 -55 -19 -20 0
-44 -5 -52 -10 -10 -6 -11 -10 -3 -10 7 0 15 -11 19 -25 3 -14 11 -25 16 -25
6 0 8 -19 6 -45 -2 -25 0 -45 4 -45 5 0 8 -9 8 -20 0 -11 12 -26 28 -34 15 -8
40 -28 56 -45 17 -17 38 -31 48 -31 22 0 97 -51 98 -66 0 -20 24 -34 40 -24
12 7 12 12 2 22 -20 20 -14 57 16 86 15 15 26 35 24 45 -2 9 1 17 7 17 6 0 11
11 11 25 0 14 7 28 15 31 8 4 15 15 15 25 0 10 5 19 12 19 19 0 -21 38 -48 44
-17 5 -24 13 -24 31 0 13 -5 27 -10 30 -14 9 -50 -4 -50 -17 0 -37 -104 -52
-133 -20 -25 27 -21 55 11 74 23 15 24 17 7 17 -11 0 -27 -3 -35 -6z"/>
<path d="M6410 3550 c-19 -5 -89 -8 -154 -8 -115 1 -120 0 -138 -23 -10 -13
-23 -30 -29 -37 -5 -7 -7 -16 -4 -21 3 -5 -4 -12 -15 -16 -25 -8 -26 -31 -1
-45 30 -15 41 -12 51 14 12 33 41 66 58 66 7 0 15 7 18 15 8 21 42 19 89 -5
22 -11 46 -20 55 -20 20 0 80 36 108 66 24 25 19 27 -38 14z"/>
<path d="M6678 3521 c44 -38 12 -101 -50 -101 -32 1 -78 29 -78 48 0 10 -23
22 -41 22 -5 0 -9 -13 -9 -28 0 -32 -16 -52 -42 -52 -9 0 -22 -9 -28 -20 -9
-17 -6 -25 15 -46 14 -13 25 -36 25 -49 0 -14 5 -25 10 -25 6 0 10 -8 10 -18
0 -11 9 -27 21 -38 15 -14 20 -29 18 -59 -3 -67 -2 -70 21 -50 11 10 20 23 20
29 1 15 76 66 98 66 10 0 31 13 45 30 15 16 38 32 51 36 29 7 34 17 46 102 5
36 15 69 22 73 7 5 9 9 4 9 -5 0 -3 6 3 13 16 20 4 27 -45 27 -24 0 -45 4 -49
9 -7 12 -64 41 -79 41 -6 -1 -1 -9 12 -19z"/>
<path d="M2379 3430 c-13 -10 -21 -19 -16 -20 4 0 -2 -17 -13 -37 -11 -21 -20
-43 -20 -50 0 -7 -4 -13 -10 -13 -11 0 -40 -53 -40 -75 0 -17 -29 -48 -54 -58
-19 -8 -13 -27 10 -27 8 0 14 -4 14 -8 0 -5 18 -16 40 -25 36 -14 42 -14 55
-1 8 9 15 21 15 29 0 7 9 15 20 18 16 4 20 14 20 50 0 25 -5 47 -11 49 -17 6
12 48 32 48 18 0 35 36 42 92 5 31 2 37 -16 42 -34 9 -43 7 -68 -14z"/>
<path d="M6213 3373 c-15 -6 -17 -61 -4 -97 6 -14 19 -26 33 -28 13 -2 21 -7
20 -12 -2 -5 2 -12 8 -16 7 -4 9 -13 5 -20 -10 -16 -11 -83 -1 -98 12 -19 36
-14 36 8 0 13 7 20 20 20 13 0 20 -7 20 -20 0 -13 -7 -20 -18 -20 -28 0 -33
-10 -13 -31 18 -19 19 -19 82 9 l64 29 -37 24 c-29 18 -38 31 -38 52 0 15 -4
27 -10 27 -5 0 -10 7 -10 15 0 9 -7 18 -15 21 -8 3 -17 21 -21 40 -3 19 -10
34 -15 34 -5 0 -9 7 -9 15 0 37 -57 65 -97 48z"/>
<path d="M3900 3118 c-20 -12 -30 -23 -22 -25 32 -12 -13 -103 -51 -103 -10 0
-16 -15 -20 -46 -2 -26 -9 -49 -13 -53 -14 -10 -34 -49 -34 -66 0 -8 -4 -15
-10 -15 -5 0 -9 -4 -7 -8 4 -14 -52 -74 -63 -67 -6 4 -10 -6 -10 -24 0 -23 7
-33 29 -44 l29 -14 4 60 c4 54 8 64 38 89 19 15 49 33 67 39 18 6 33 17 33 25
0 8 3 14 8 14 4 0 8 12 8 26 1 14 11 32 23 40 12 9 21 26 21 39 0 13 4 25 9
27 5 2 12 31 16 66 8 71 2 75 -55 40z"/>
<path d="M4700 3050 c0 -16 4 -30 9 -30 4 0 11 -26 14 -57 4 -39 12 -63 25
-73 19 -16 37 -49 33 -63 -2 -11 58 -67 73 -67 6 0 24 -7 39 -15 27 -14 28
-14 21 8 -4 12 -15 33 -25 46 -11 13 -19 32 -19 42 0 11 -4 19 -10 19 -5 0
-10 14 -10 30 0 17 -4 30 -10 30 -24 0 -54 45 -56 84 -1 34 -6 43 -28 50 -14
6 -26 13 -26 18 0 4 -7 8 -15 8 -10 0 -15 -10 -15 -30z"/>
<path d="M3852 2668 c-7 -7 -12 -18 -12 -25 0 -7 -4 -13 -10 -13 -16 0 -12
-60 5 -66 10 -4 15 -20 15 -45 0 -32 4 -39 19 -39 11 0 26 -3 35 -6 13 -5 16
1 16 28 0 19 -5 39 -10 44 -7 7 -2 18 15 34 25 24 33 50 15 50 -5 0 -10 5 -10
11 0 15 -31 38 -50 39 -9 0 -21 -5 -28 -12z"/>
<path d="M3526 2551 l6 -48 -60 -7 c-34 -4 -66 -13 -73 -22 -6 -8 -10 -16 -8
-18 56 -43 84 -46 122 -10 16 14 40 29 54 33 15 4 31 16 37 27 6 10 14 21 18
24 13 10 3 45 -17 57 -11 7 -35 12 -53 13 l-33 0 7 -49z"/>
<path d="M5056 2527 c-33 -24 -6 -107 35 -107 11 0 36 -16 58 -35 36 -33 81
-47 81 -25 0 6 6 10 13 10 6 0 19 5 27 10 27 17 -21 49 -84 56 -50 6 -56 9
-56 30 0 13 5 24 11 24 6 0 9 10 7 23 -2 17 -10 23 -38 25 -19 2 -44 -3 -54
-11z"/>
<path d="M3142 2443 c-5 -10 -8 -22 -6 -28 5 -13 -42 -35 -73 -35 -13 0 -23
-4 -23 -9 0 -5 -9 -11 -20 -14 -26 -7 -26 -43 0 -57 11 -6 37 -7 61 -4 37 6
44 12 58 45 9 22 23 41 31 44 8 3 26 14 39 25 19 17 21 23 11 35 -17 21 -67
19 -78 -2z"/>
<path d="M5446 2384 c-23 -22 -20 -29 19 -44 19 -7 37 -21 40 -31 18 -57 104
-99 140 -69 34 28 -3 70 -60 70 -23 0 -51 28 -65 66 -11 28 -50 33 -74 8z"/>
</g>
</svg>
