<?xml version="1.0" standalone="no"?>
<!DOCTYPE svg PUBLIC "-//W3C//DTD SVG 20010904//EN"
 "http://www.w3.org/TR/2001/REC-SVG-20010904/DTD/svg10.dtd">
<svg version="1.0" xmlns="http://www.w3.org/2000/svg"
 width="2246.000000pt" height="2232.000000pt" viewBox="0 0 2246.000000 2232.000000"
 preserveAspectRatio="xMidYMid meet">
<metadata>
Created by potrace 1.13, written by Peter Selinger 2001-2015
</metadata>
<g transform="translate(0.000000,2232.000000) scale(0.100000,-0.100000)"
fill="#000000" stroke="none">
<path d="M2 15388 c1 -3813 3 -6906 5 -6873 8 154 46 520 73 708 120 826 358
1595 740 2387 117 243 142 317 161 485 9 80 9 126 -1 200 -18 147 -46 222
-143 386 -315 532 -533 1176 -611 1804 -44 348 -47 822 -7 1150 96 796 356
1494 804 2153 251 370 626 769 993 1059 567 446 1261 769 1970 916 319 67 554
92 1004 107 541 17 750 83 1036 326 579 493 980 778 1514 1076 1040 581 2253
944 3430 1027 85 6 173 13 195 15 22 1 -2481 3 -5562 4 l-5603 2 2 -6932z"/>
<path d="M12080 22313 c1777 -102 3445 -745 4813 -1856 437 -354 895 -812
1244 -1244 766 -946 1325 -2062 1617 -3228 105 -420 161 -737 216 -1235 36
-324 52 -429 86 -565 83 -326 239 -605 549 -980 1103 -1334 1740 -2941 1848
-4660 2 -27 4 3061 5 6863 l2 6912 -5217 -2 c-2870 -1 -5193 -3 -5163 -5z"/>
<path d="M1 3828 l-1 -3828 3848 2 c2116 1 3827 3 3802 5 -25 1 -117 8 -205
14 -88 5 -252 21 -365 35 -2240 266 -4271 1473 -5590 3320 -871 1219 -1381
2652 -1479 4154 -4 69 -9 -1597 -10 -3702z"/>
<path d="M22446 7474 c-20 -356 -93 -845 -188 -1254 -542 -2343 -2134 -4342
-4305 -5405 -833 -408 -1719 -665 -2653 -769 -116 -13 -292 -27 -485 -39 -27
-2 1681 -4 3798 -5 l3847 -2 0 3800 c0 2090 -2 3800 -4 3800 -1 0 -6 -57 -10
-126z"/>
</g>
</svg>
