<?xml version="1.0" standalone="no"?>
<!DOCTYPE svg PUBLIC "-//W3C//DTD SVG 20010904//EN"
 "http://www.w3.org/TR/2001/REC-SVG-20010904/DTD/svg10.dtd">
<svg version="1.0" xmlns="http://www.w3.org/2000/svg"
 width="2246.000000pt" height="2232.000000pt" viewBox="0 0 2246.000000 2232.000000"
 preserveAspectRatio="xMidYMid meet">
<metadata>
Created by potrace 1.13, written by Peter Selinger 2001-2015
</metadata>
<g transform="translate(0.000000,2232.000000) scale(0.100000,-0.100000)"
fill="#000000" stroke="none">
<path d="M2 15388 c1 -3813 3 -6910 5 -6883 33 529 101 983 219 1465 143 587
314 1057 594 1640 116 240 141 315 161 483 21 180 -17 367 -107 522 -118 206
-151 267 -219 408 -401 838 -547 1765 -425 2704 116 887 497 1750 1079 2438
826 976 1994 1578 3266 1685 72 5 258 15 415 20 395 12 570 45 765 142 108 54
176 104 379 277 579 494 1106 843 1766 1171 1011 501 2101 787 3250 853 30 2
-2466 4 -5547 5 l-5603 2 2 -6932z"/>
<path d="M12080 22313 c1517 -87 2941 -562 4191 -1398 1554 -1040 2713 -2559
3304 -4330 199 -595 314 -1131 390 -1811 49 -437 68 -543 136 -740 98 -286
237 -510 550 -889 737 -891 1295 -2007 1579 -3155 112 -455 200 -1031 223
-1475 2 -33 4 3060 5 6873 l2 6932 -5217 -2 c-2870 -1 -5193 -3 -5163 -5z"/>
<path d="M2 3823 l-2 -3823 3823 1 c2102 1 3768 5 3702 10 -1658 109 -3225
718 -4515 1754 -254 204 -415 349 -655 590 -241 240 -386 402 -590 655 -992
1237 -1592 2721 -1735 4295 -11 121 -21 247 -23 280 -2 33 -4 -1660 -5 -3762z"/>
<path d="M22450 7577 c0 -35 -9 -160 -20 -277 -160 -1713 -837 -3277 -1986
-4590 -152 -174 -520 -542 -694 -694 -1367 -1196 -3024 -1887 -4810 -2005 -69
-4 1584 -9 3698 -10 l3822 -1 0 3820 c0 2101 -2 3820 -5 3820 -3 0 -5 -28 -5
-63z"/>
</g>
</svg>
