<?xml version="1.0" standalone="no"?>
<!DOCTYPE svg PUBLIC "-//W3C//DTD SVG 20010904//EN"
 "http://www.w3.org/TR/2001/REC-SVG-20010904/DTD/svg10.dtd">
<svg version="1.0" xmlns="http://www.w3.org/2000/svg"
 width="2322.000000pt" height="2308.000000pt" viewBox="0 0 2322.000000 2308.000000"
 preserveAspectRatio="xMidYMid meet">
<metadata>
Created by potrace 1.13, written by Peter Selinger 2001-2015
</metadata>
<g transform="translate(0.000000,2308.000000) scale(0.100000,-0.100000)"
fill="#000000" stroke="none">
<path d="M2 15958 c1 -3918 3 -7105 4 -7083 2 22 9 110 15 195 74 1061 380
2173 863 3138 79 158 100 235 99 367 0 120 -10 148 -112 325 -219 376 -411
849 -519 1275 -107 422 -150 744 -159 1185 -10 500 33 892 148 1358 309 1253
1088 2349 2181 3066 854 560 1831 845 2900 846 328 0 533 65 729 230 52 43
159 133 239 200 410 344 904 680 1402 953 944 518 2019 866 3098 1001 179 23
489 52 635 59 33 2 -2547 4 -5732 5 l-5793 2 2 -7122z"/>
<path d="M12460 23073 c25 -1 113 -8 195 -13 875 -61 1808 -279 2640 -617
2398 -974 4250 -2967 5049 -5433 192 -591 306 -1133 381 -1810 42 -375 63
-496 115 -651 80 -242 183 -410 448 -733 1133 -1380 1791 -3024 1921 -4801 5
-60 9 3079 10 6978 l1 7087 -5402 -2 c-2972 -1 -5383 -3 -5358 -5z"/>
<path d="M11580 22303 c-1138 -65 -2210 -353 -3205 -858 -600 -305 -1082 -631
-1630 -1099 -253 -217 -432 -327 -635 -391 -213 -67 -337 -83 -770 -100 -482
-19 -691 -45 -1035 -130 -372 -91 -750 -240 -1080 -424 -613 -343 -1140 -830
-1532 -1416 -631 -942 -869 -2110 -657 -3225 86 -457 247 -910 455 -1281 187
-333 213 -391 246 -558 26 -130 23 -393 -6 -531 -31 -148 -71 -260 -142 -402
-478 -952 -744 -1939 -809 -2998 -13 -213 -13 -708 0 -920 94 -1519 607 -2903
1514 -4083 193 -252 373 -454 636 -717 620 -621 1275 -1090 2075 -1485 1084
-537 2248 -834 3545 -905 250 -14 5646 -14 5905 0 2012 106 3842 797 5295
1999 405 336 849 792 1171 1207 1149 1477 1676 3280 1504 5144 -138 1490 -723
2936 -1656 4094 -334 414 -419 538 -539 781 -150 304 -207 529 -265 1050 -40
361 -68 552 -120 814 -455 2310 -1908 4304 -3967 5444 -1049 582 -2192 911
-3423 987 -144 9 -738 11 -875 3z m-1926 -4614 c72 -26 145 -93 181 -166 l30
-58 0 -2710 0 -2710 -28 -57 c-73 -148 -238 -225 -397 -184 -104 27 -176 84
-228 181 l-27 50 -3 2702 c-2 2698 -2 2702 18 2756 34 90 116 170 209 203 57
21 181 17 245 -7z m-2246 -1580 c265 -29 527 -114 695 -226 194 -129 302 -279
369 -510 l23 -78 0 -1190 0 -1190 -23 -89 c-62 -246 -195 -440 -384 -563 -85
-55 -123 -71 -348 -148 -519 -177 -999 -350 -1070 -385 -58 -29 -124 -93 -178
-172 -68 -99 -66 -81 -72 -648 l-5 -515 -28 -60 c-57 -123 -174 -196 -312
-198 -124 -1 -230 53 -294 149 -66 100 -62 -95 -59 2580 l3 2429 28 88 c64
204 179 366 352 495 158 117 399 198 685 231 110 12 505 13 618 0z m-2472
-311 c4 -13 7 -70 7 -128 0 -165 -47 -308 -153 -465 -192 -284 -568 -527 -977
-630 -96 -24 -526 -115 -545 -115 -13 0 -18 14 -23 75 -29 304 154 629 488
869 124 89 354 204 513 255 94 30 546 137 676 160 4 0 10 -9 14 -21z m7050
-388 c292 -18 493 -64 679 -155 253 -124 434 -334 507 -590 l23 -80 3 -1319
c3 -1450 5 -1393 -58 -1590 -104 -324 -446 -556 -933 -633 -143 -23 -630 -25
-777 -4 -367 52 -683 211 -846 425 -69 91 -108 172 -136 282 -22 85 -23 107
-23 464 0 360 1 378 23 459 49 180 117 305 231 424 80 84 174 152 268 193 32
14 220 81 418 149 445 152 844 298 908 333 67 36 139 118 184 209 l38 77 3
155 c5 219 -22 304 -128 405 -66 63 -145 105 -267 143 -83 25 -100 27 -293 27
-235 1 -313 -12 -429 -70 -92 -46 -150 -112 -215 -243 -39 -79 -63 -114 -103
-151 -194 -178 -510 -101 -602 145 -42 113 -24 245 55 396 160 305 575 513
1093 548 170 12 200 12 377 1z m3590 0 c350 -21 598 -94 824 -241 142 -93 274
-259 324 -409 57 -173 57 -151 54 -1855 l-3 -1560 -27 -57 c-124 -265 -507
-271 -635 -9 l-28 56 -5 1520 c-5 1427 -7 1524 -24 1580 -27 88 -48 125 -107
180 -133 125 -293 175 -552 175 -163 -1 -258 -15 -373 -58 -141 -52 -232 -121
-279 -212 -52 -102 -49 -17 -55 -1655 l-5 -1530 -29 -55 c-64 -123 -178 -193
-316 -193 -141 0 -259 73 -320 198 l-25 50 -3 1585 c-2 1553 -2 1587 18 1705
49 289 213 485 532 634 234 110 420 146 818 159 30 1 127 -3 216 -8z m2681
-33 c75 -39 115 -78 154 -149 l34 -63 3 -417 3 -416 237 -4 c231 -3 238 -4
293 -29 113 -53 171 -143 172 -265 0 -90 -33 -164 -99 -223 -74 -65 -105 -71
-371 -71 l-233 0 0 -1314 c0 -888 4 -1340 11 -1393 14 -101 54 -176 133 -251
79 -73 164 -118 268 -141 144 -31 208 -74 257 -173 27 -53 31 -72 31 -143 0
-72 -4 -90 -31 -144 -52 -105 -160 -171 -278 -171 -64 0 -218 26 -331 55 -122
32 -308 125 -423 211 -135 101 -234 232 -282 371 -55 158 -55 161 -55 1686 l0
1405 -157 4 c-153 3 -160 4 -211 33 -59 32 -91 66 -125 129 -31 59 -32 203 0
261 29 54 86 110 142 137 40 20 64 23 199 26 l152 4 0 387 c0 417 3 449 55
531 34 54 110 116 169 140 76 30 211 24 283 -13z m-14482 -1428 c73 -34 147
-112 174 -182 l21 -58 -2 -1882 -3 -1882 -24 -45 c-32 -61 -96 -126 -156 -158
-45 -24 -61 -27 -155 -27 -89 0 -112 3 -151 23 -74 36 -125 87 -161 160 l-33
67 0 1880 0 1880 26 55 c42 89 117 154 214 187 62 20 189 11 250 -18z m5789
-3199 c62 -24 125 -80 158 -142 33 -61 33 -194 0 -255 -35 -66 -79 -110 -140
-140 l-57 -28 -407 -3 -408 -3 -2 -2477 -3 -2477 -23 -56 c-32 -80 -90 -142
-170 -181 -60 -30 -75 -33 -157 -33 -71 0 -100 5 -137 22 -66 30 -143 105
-175 172 l-28 56 -3 2487 -2 2487 -408 3 c-403 3 -408 3 -459 27 -64 29 -134
101 -158 164 -22 58 -17 185 9 235 29 56 88 114 141 138 l50 24 1162 0 c1146
0 1163 0 1217 -20z m4106 -505 c397 -62 707 -238 859 -489 54 -90 79 -165 102
-302 18 -115 20 -159 17 -414 -4 -270 -6 -290 -31 -384 -45 -168 -93 -253
-231 -409 -88 -100 -174 -160 -294 -208 -211 -82 -206 -82 -687 -88 -417 -6
-432 -7 -487 -29 -183 -73 -318 -233 -348 -412 -8 -48 -11 -156 -8 -333 5
-302 13 -341 93 -458 54 -79 104 -116 219 -160 132 -51 214 -62 426 -56 203 5
251 14 375 71 109 50 167 109 226 231 70 145 127 201 240 236 180 56 364 -22
447 -190 24 -50 27 -67 27 -161 0 -97 -3 -111 -34 -184 -49 -113 -119 -213
-213 -301 -215 -202 -534 -308 -993 -330 -320 -15 -732 51 -959 154 -206 93
-415 302 -491 489 -58 144 -56 83 -52 1572 3 1529 -1 1432 76 1595 91 192 227
318 466 431 164 78 329 122 540 143 140 15 591 6 715 -14z m-2218 -38 c67 -33
112 -80 145 -155 22 -46 25 -65 21 -135 -5 -125 -58 -210 -163 -265 -46 -23
-65 -26 -225 -33 -285 -13 -406 -55 -541 -189 -58 -57 -82 -89 -100 -135 l-24
-60 -5 -1530 -5 -1530 -26 -56 c-33 -69 -91 -129 -161 -166 -48 -25 -62 -28
-158 -28 -96 0 -110 3 -158 28 -70 37 -128 97 -161 166 l-26 56 -3 1575 c-2
1531 -2 1578 18 1692 23 137 51 212 116 310 66 99 144 175 247 242 267 175
557 246 982 243 164 -2 172 -3 227 -30z m5228 -437 c262 -20 429 -60 617 -150
135 -64 239 -137 321 -225 120 -129 171 -236 203 -425 18 -109 20 -153 17
-419 -4 -286 -5 -299 -32 -396 -15 -55 -41 -128 -57 -162 -69 -146 -261 -352
-380 -410 -89 -44 -230 -92 -317 -109 -56 -10 -165 -14 -442 -14 -206 0 -391
-4 -421 -10 -99 -19 -194 -73 -279 -158 -144 -144 -164 -221 -157 -597 5 -284
13 -335 67 -429 49 -87 94 -130 172 -168 157 -77 314 -105 529 -94 144 7 245
30 354 80 104 48 159 107 224 240 84 171 182 239 346 239 114 0 182 -28 261
-107 84 -85 107 -146 102 -276 -3 -93 -5 -99 -60 -210 -31 -63 -80 -144 -109
-178 -110 -136 -298 -253 -514 -322 -415 -132 -1020 -117 -1447 36 -237 85
-469 298 -559 513 -62 148 -60 92 -56 1581 3 1265 4 1360 21 1430 37 155 104
275 218 388 154 155 422 281 694 327 189 32 456 42 684 25z m-11690 -441 c551
-60 920 -325 1032 -739 l23 -85 0 -1340 c0 -1453 3 -1377 -56 -1562 -104 -325
-467 -565 -959 -634 -148 -21 -624 -19 -770 4 -149 23 -281 59 -392 107 -316
136 -501 328 -569 591 -21 77 -23 113 -26 431 -5 385 1 445 58 602 49 135 110
229 218 336 138 136 191 163 593 300 388 132 915 323 973 352 64 33 149 127
192 214 l38 78 3 154 c3 95 -1 172 -8 200 -48 193 -221 325 -484 371 -102 18
-348 13 -456 -9 -196 -40 -296 -117 -382 -292 -53 -109 -88 -153 -157 -197
-184 -119 -437 -49 -533 147 -28 56 -34 80 -36 152 -3 73 0 98 23 166 128 375
549 621 1138 664 129 10 398 4 537 -11z m14593 -24 c218 -46 406 -226 462
-444 21 -81 21 -236 0 -316 -70 -270 -310 -454 -591 -455 -267 0 -492 161
-580 415 -38 109 -41 273 -7 380 97 305 405 486 716 420z"/>
<path d="M6903 15486 c-212 -41 -353 -125 -421 -255 -65 -120 -62 -47 -61
-1571 0 -1381 0 -1385 19 -1348 27 51 78 77 265 138 88 29 203 69 255 90 52
21 176 65 275 100 99 34 213 78 254 98 131 64 250 195 295 326 21 60 21 72 21
1016 l0 955 -23 75 c-35 109 -68 168 -128 226 -62 61 -147 106 -259 135 -103
27 -382 36 -492 15z"/>
<path d="M12471 13158 c-42 -51 -88 -70 -660 -269 -157 -54 -312 -112 -345
-127 -172 -82 -306 -242 -336 -402 -35 -185 20 -440 121 -555 103 -117 319
-174 619 -162 317 12 478 89 564 271 65 135 67 160 64 747 l-3 525 -24 -28z"/>
<path d="M13070 9635 c-202 -32 -379 -127 -446 -240 -57 -98 -57 -103 -61
-590 -4 -449 -4 -450 16 -419 35 57 120 109 226 139 49 14 126 19 420 24 339
7 363 8 416 29 222 88 322 269 305 552 -15 265 -104 385 -348 470 -145 50
-345 63 -528 35z"/>
<path d="M16329 9150 c-115 -11 -226 -42 -327 -92 -96 -47 -160 -105 -197
-178 -50 -99 -55 -149 -55 -599 l0 -414 23 29 c34 44 67 70 125 99 101 50 159
57 543 64 l355 6 76 38 c134 66 224 178 253 314 27 126 14 334 -27 438 -49
127 -213 239 -405 279 -90 19 -258 26 -364 16z"/>
<path d="M5321 7088 c-42 -51 -79 -66 -660 -268 -155 -55 -311 -112 -345 -128
-172 -81 -305 -240 -337 -401 -15 -78 -6 -262 16 -345 23 -82 68 -169 117
-222 100 -108 323 -163 613 -151 313 13 473 91 559 271 64 132 67 169 64 752
l-3 520 -24 -28z"/>
<path d="M19370 9179 c-173 -34 -331 -195 -369 -377 -39 -188 46 -402 201
-505 88 -58 167 -80 274 -75 81 3 100 8 167 41 186 92 299 306 268 507 -42
272 -288 458 -541 409z m253 -197 l47 -21 0 -61 c0 -62 -13 -77 -39 -46 -22
26 -112 57 -166 57 -118 0 -178 -74 -178 -221 0 -81 20 -136 65 -176 64 -59
173 -52 273 16 17 11 34 20 38 20 4 0 7 -28 5 -62 l-3 -63 -60 -24 c-121 -48
-272 -26 -352 51 -72 70 -105 238 -69 360 24 85 99 161 186 189 47 16 201 4
253 -19z"/>
<path d="M2 4008 l-2 -4008 4303 1 c2366 1 4237 6 4157 10 -1946 109 -3736
738 -5175 1818 -541 407 -1056 902 -1472 1416 -1083 1337 -1705 2962 -1806
4715 -2 30 -4 -1748 -5 -3952z"/>
<path d="M23206 7840 c-35 -629 -208 -1445 -441 -2089 -415 -1146 -1047 -2133
-1930 -3017 -340 -340 -582 -550 -965 -838 -1512 -1134 -3403 -1795 -5410
-1889 -36 -2 1921 -4 4348 -5 l4412 -2 0 3980 c0 2189 -2 3980 -3 3980 -2 0
-7 -54 -11 -120z"/>
</g>
</svg>
