<?xml version="1.0" standalone="no"?>
<!DOCTYPE svg PUBLIC "-//W3C//DTD SVG 20010904//EN"
 "http://www.w3.org/TR/2001/REC-SVG-20010904/DTD/svg10.dtd">
<svg version="1.0" xmlns="http://www.w3.org/2000/svg"
 width="2465.000000pt" height="2450.000000pt" viewBox="0 0 2465.000000 2450.000000"
 preserveAspectRatio="xMidYMid meet">
<metadata>
Created by potrace 1.13, written by Peter Selinger 2001-2015
</metadata>
<g transform="translate(0.000000,2450.000000) scale(0.100000,-0.100000)"
fill="#000000" stroke="none">
<path d="M0 12250 l0 -12250 12325 0 12325 0 0 12250 0 12250 -12325 0 -12325
0 0 -12250z m13040 12130 c1097 -45 2116 -273 3115 -698 233 -99 725 -345 935
-468 513 -300 983 -639 1420 -1022 202 -178 589 -565 761 -762 919 -1049 1554
-2231 1907 -3545 124 -461 195 -847 257 -1405 53 -466 87 -613 195 -835 70
-143 166 -281 352 -510 319 -392 540 -705 766 -1085 627 -1056 1026 -2266
1146 -3480 54 -542 54 -1126 0 -1650 -157 -1539 -762 -2994 -1757 -4223 -344
-426 -804 -888 -1243 -1249 -1441 -1184 -3288 -1925 -5244 -2102 -452 -42
-409 -41 -3440 -41 -3034 0 -2992 0 -3440 41 -1534 141 -2983 623 -4211 1399
-363 229 -697 478 -1039 774 -174 151 -538 507 -697 683 -1110 1227 -1808
2721 -2037 4363 -55 400 -77 719 -77 1165 0 458 22 774 81 1192 127 888 376
1701 771 2518 55 112 107 231 116 265 21 76 23 254 4 310 -7 22 -52 108 -99
190 -358 626 -578 1311 -659 2045 -25 235 -25 816 0 1050 105 956 442 1817
1006 2566 274 365 657 747 1032 1031 590 447 1312 773 2039 922 335 68 603 97
1036 111 323 10 422 22 554 69 98 34 170 78 269 161 333 280 419 350 593 481
856 643 1840 1127 2893 1423 862 242 1802 352 2695 316z"/>
<path d="M12350 23609 c-1557 -68 -3078 -598 -4337 -1511 -174 -126 -344 -261
-528 -418 -288 -246 -439 -342 -656 -414 -214 -72 -370 -93 -764 -106 -330
-10 -523 -27 -750 -66 -1775 -305 -3205 -1690 -3560 -3449 -66 -329 -79 -469
-80 -855 0 -372 7 -468 55 -757 87 -521 272 -1025 549 -1497 115 -196 162
-335 182 -542 18 -181 -12 -412 -76 -597 -14 -42 -75 -176 -134 -299 -595
-1221 -845 -2494 -760 -3868 104 -1678 763 -3249 1881 -4485 1338 -1478 3246
-2407 5388 -2624 459 -47 388 -46 3450 -46 3013 0 3005 0 3410 41 1007 101
1930 338 2810 721 1985 865 3500 2391 4243 4273 504 1278 626 2710 348 4108
-243 1222 -770 2353 -1546 3318 -338 421 -400 511 -525 759 -163 323 -218 538
-275 1070 -75 698 -194 1250 -400 1854 -568 1663 -1677 3099 -3140 4066 -327
216 -540 339 -885 510 -1198 593 -2545 874 -3900 814z m-1975 -4623 c95 -43
161 -119 189 -217 15 -50 16 -308 14 -2734 l-3 -2680 -28 -57 c-34 -69 -94
-131 -162 -166 -44 -24 -61 -27 -150 -27 -86 0 -107 3 -150 25 -64 31 -134
101 -165 165 l-25 50 0 2715 0 2715 27 50 c89 167 286 238 453 161z m-2240
-1577 c368 -42 675 -179 864 -385 73 -80 147 -221 183 -349 l23 -80 3 -1130
c3 -1141 1 -1218 -33 -1350 -76 -288 -264 -514 -519 -619 -33 -14 -248 -91
-476 -170 -509 -177 -773 -272 -812 -292 -45 -24 -106 -82 -154 -150 -84 -117
-78 -76 -84 -659 l-5 -520 -26 -56 c-36 -76 -86 -129 -161 -170 -59 -32 -69
-34 -158 -34 -84 0 -101 3 -150 28 -72 37 -131 96 -166 165 l-29 57 -3 2400
c-2 1704 0 2422 8 2478 50 351 309 638 685 761 258 83 665 114 1010 75z
m-2491 -311 c3 -13 6 -71 6 -129 0 -128 -29 -243 -91 -359 -171 -319 -561
-599 -1002 -720 -143 -39 -581 -130 -589 -122 -15 15 -21 167 -9 238 26 154
80 275 185 415 174 231 463 424 810 541 71 24 620 152 672 157 7 1 14 -9 18
-21z m7096 -388 c302 -23 553 -91 718 -196 258 -164 410 -396 442 -674 8 -65
10 -495 8 -1375 l-4 -1280 -26 -101 c-51 -190 -94 -271 -212 -392 -133 -137
-347 -252 -579 -311 -263 -67 -710 -78 -1019 -25 -278 47 -533 168 -694 328
-136 135 -189 234 -225 421 -18 90 -20 134 -16 445 3 315 5 352 24 422 81 289
246 496 487 609 34 16 237 89 452 163 507 175 827 291 887 324 65 35 140 118
185 206 l37 71 0 190 0 190 -32 67 c-17 37 -52 90 -78 117 -126 134 -411 209
-698 183 -149 -14 -220 -32 -314 -77 -92 -45 -146 -106 -213 -241 -56 -113
-102 -164 -192 -211 -48 -26 -62 -28 -158 -28 -94 0 -111 3 -160 27 -71 35
-143 107 -178 178 -22 45 -28 72 -30 145 -3 80 0 99 26 173 43 115 94 194 182
282 284 285 772 415 1380 370z m3765 -19 c268 -41 501 -135 677 -275 136 -108
241 -282 280 -461 22 -100 22 -102 25 -1669 4 -1732 7 -1636 -59 -1739 -91
-142 -283 -196 -440 -125 -68 31 -128 89 -165 160 l-28 53 -5 1525 c-5 1433
-7 1529 -24 1585 -23 77 -39 108 -83 156 -193 214 -696 264 -1032 102 -117
-56 -187 -130 -227 -238 -18 -48 -19 -123 -24 -1580 l-5 -1530 -33 -67 c-36
-74 -95 -132 -170 -169 -39 -20 -63 -24 -142 -24 -84 0 -102 3 -151 28 -67 32
-142 109 -172 175 l-22 47 -3 1580 c-3 1703 -3 1681 49 1838 57 173 197 331
394 444 205 118 416 179 705 203 163 13 504 3 655 -19z m2456 -9 c74 -36 125
-87 161 -160 l33 -67 3 -412 3 -412 237 -3 c232 -3 238 -4 293 -29 111 -52
161 -128 167 -251 3 -65 0 -85 -21 -131 -30 -66 -79 -116 -143 -148 -47 -23
-59 -24 -291 -27 l-243 -3 0 -1332 c0 -882 4 -1354 11 -1397 29 -178 185 -319
412 -370 114 -25 174 -61 224 -134 42 -62 56 -114 51 -201 -5 -88 -35 -151
-101 -211 -91 -82 -194 -96 -405 -55 -139 27 -261 69 -372 128 -285 153 -434
329 -493 585 -21 93 -21 101 -24 1540 l-4 1446 -147 4 c-167 4 -215 18 -285
86 -59 57 -80 105 -85 197 -4 75 -2 84 30 145 64 124 144 160 355 160 l133 0
0 393 c0 436 1 448 64 542 37 56 100 106 164 130 59 23 216 16 273 -13z
m-14480 -1434 c69 -32 129 -89 166 -160 l28 -53 0 -1885 0 -1885 -22 -47 c-30
-66 -105 -143 -172 -175 -49 -24 -67 -28 -146 -28 -70 1 -100 6 -138 23 -66
30 -142 104 -174 171 l-28 56 0 1875 c0 1785 1 1877 18 1922 70 181 291 269
468 186z m5791 -3196 c68 -28 132 -87 161 -150 16 -35 22 -66 21 -122 -1 -94
-27 -152 -95 -214 -84 -75 -88 -76 -546 -76 l-403 0 -2 -2492 -3 -2493 -28
-56 c-66 -135 -229 -219 -367 -190 -122 26 -201 86 -252 189 l-33 67 -3 2487
-2 2488 -408 0 -407 0 -60 28 c-110 52 -164 139 -165 262 0 146 86 255 227
289 22 5 527 9 1173 8 l1135 -2 57 -23z m4142 -511 c151 -27 235 -52 359 -106
181 -80 306 -170 402 -290 142 -179 185 -352 185 -753 0 -242 -9 -331 -46
-461 -47 -164 -118 -277 -270 -427 -94 -94 -177 -141 -357 -201 l-112 -37
-435 -6 c-421 -6 -437 -7 -500 -29 -180 -64 -324 -219 -359 -389 -17 -81 -14
-561 4 -645 30 -144 108 -249 228 -307 140 -67 208 -82 407 -87 205 -6 315 9
430 58 148 63 195 109 270 265 55 113 97 158 190 203 48 23 68 26 155 26 89 0
106 -3 155 -27 71 -35 143 -107 178 -178 24 -49 27 -66 27 -155 0 -91 -3 -107
-33 -177 -122 -283 -353 -465 -724 -572 -169 -49 -288 -61 -588 -61 -287 0
-327 4 -538 51 -303 68 -468 155 -639 339 -85 90 -132 161 -170 255 -54 135
-53 89 -53 1526 0 1264 1 1336 19 1435 23 125 47 189 107 282 108 167 252 278
488 376 138 57 279 90 496 115 19 2 163 3 320 1 239 -2 304 -6 404 -24z
m-2296 -16 c118 -35 202 -143 210 -271 6 -97 -15 -158 -79 -228 -77 -85 -119
-98 -329 -107 -198 -8 -293 -28 -393 -81 -90 -48 -180 -137 -219 -216 l-33
-67 -5 -1535 -5 -1535 -27 -57 c-34 -73 -103 -142 -176 -176 -48 -23 -71 -27
-142 -27 -71 0 -94 4 -142 27 -75 35 -138 95 -174 165 l-29 58 -3 1575 c-3
1717 -4 1677 53 1843 45 131 149 271 270 365 82 63 296 170 410 205 162 50
349 74 596 76 122 1 179 -3 217 -14z m5302 -455 c254 -23 405 -62 595 -154
323 -158 471 -351 519 -678 22 -145 22 -551 1 -674 -42 -237 -124 -385 -313
-566 -90 -85 -180 -135 -338 -187 -138 -45 -212 -51 -607 -51 -392 0 -417 -3
-526 -57 -72 -35 -200 -161 -235 -230 -48 -96 -56 -155 -56 -438 0 -186 4
-279 14 -327 52 -241 226 -366 556 -399 201 -20 399 6 537 71 128 59 198 134
244 255 29 77 104 156 187 197 60 30 75 33 157 33 76 0 99 -4 147 -27 76 -35
148 -104 184 -175 27 -53 29 -66 28 -163 0 -89 -4 -113 -25 -160 -105 -237
-233 -372 -454 -480 -262 -129 -484 -173 -865 -173 -292 -1 -489 29 -740 113
-180 59 -296 135 -436 283 -84 90 -132 161 -170 255 -56 138 -54 92 -54 1526
0 1256 1 1328 19 1427 24 132 49 199 112 295 176 270 528 443 981 483 135 12
405 12 538 1z m-11678 -445 c233 -31 436 -98 580 -191 248 -160 395 -387 427
-659 15 -122 15 -2507 1 -2625 -27 -218 -97 -382 -216 -509 -187 -199 -466
-324 -834 -373 -143 -19 -557 -16 -703 6 -449 65 -795 269 -932 551 -71 143
-78 190 -82 570 -5 366 0 428 44 570 75 239 221 417 435 529 48 26 213 88 398
151 462 157 886 310 957 346 80 40 151 116 200 216 l38 77 0 186 0 185 -32 67
c-61 129 -161 205 -341 262 -111 35 -251 50 -392 42 -158 -9 -251 -30 -347
-76 -104 -51 -156 -108 -223 -245 -57 -117 -107 -171 -198 -213 -50 -24 -69
-27 -157 -27 -89 0 -106 3 -157 28 -76 37 -159 128 -188 204 -64 171 14 400
196 579 202 199 529 330 910 364 137 12 475 4 616 -15z m14572 -25 c112 -28
190 -73 277 -160 60 -59 85 -93 117 -160 52 -109 66 -183 59 -313 -6 -125 -31
-201 -99 -303 -62 -93 -132 -155 -233 -205 -241 -119 -516 -76 -703 112 -187
189 -233 465 -118 705 62 129 151 218 285 284 122 61 276 76 415 40z"/>
<path d="M7691 16799 c-243 -22 -423 -114 -498 -256 -67 -126 -63 -22 -63
-1567 l0 -1401 21 35 c31 54 72 76 260 139 96 32 201 70 234 84 33 14 148 55
255 92 107 37 222 79 254 92 164 68 288 194 339 343 22 65 22 65 25 990 2 647
0 944 -8 989 -41 236 -174 380 -403 436 -59 14 -265 37 -307 33 -8 0 -57 -4
-109 -9z"/>
<path d="M13176 14462 c-47 -54 -94 -73 -686 -279 -151 -52 -300 -108 -330
-123 -108 -54 -186 -124 -256 -230 -55 -82 -67 -125 -72 -260 -10 -280 75
-473 241 -551 227 -105 657 -105 884 1 81 37 142 100 187 191 64 132 67 159
64 754 l-3 530 -29 -33z"/>
<path d="M13747 10934 c-160 -29 -328 -115 -393 -201 -18 -23 -43 -68 -56
-100 -23 -57 -23 -62 -26 -518 -2 -452 -2 -459 16 -430 41 66 152 126 277 150
57 11 153 15 370 15 161 0 316 5 346 10 163 31 300 151 355 310 24 70 27 323
5 410 -38 150 -130 247 -293 310 -46 18 -117 38 -158 46 -97 17 -343 16 -443
-2z"/>
<path d="M16995 10449 c-223 -29 -425 -139 -484 -263 -48 -99 -51 -133 -50
-596 0 -239 4 -426 9 -415 12 31 82 91 139 120 102 51 150 57 531 64 334 6
358 8 410 29 125 50 224 149 271 270 17 44 23 86 27 188 5 148 -12 264 -53
343 -53 105 -191 197 -363 242 -90 24 -324 34 -437 18z"/>
<path d="M6033 8401 c-44 -58 -68 -69 -653 -272 -157 -55 -314 -113 -349 -129
-167 -79 -298 -220 -336 -365 -20 -77 -20 -261 0 -357 31 -147 112 -271 214
-322 219 -112 693 -111 913 0 106 54 189 179 222 334 14 65 16 148 14 608 l-3
534 -22 -31z"/>
<path d="M20051 10474 c-206 -55 -351 -249 -351 -469 0 -168 85 -327 222 -416
127 -82 297 -92 431 -26 172 85 271 250 270 447 -2 310 -287 541 -572 464z
m277 -188 l42 -18 0 -64 0 -64 -37 23 c-62 38 -105 52 -163 52 -73 0 -121 -30
-152 -93 -32 -65 -32 -197 0 -258 55 -107 190 -119 325 -30 l27 18 0 -61 0
-62 -47 -22 c-39 -18 -66 -22 -148 -22 -92 0 -104 2 -154 30 -95 53 -141 144
-141 280 0 154 60 252 185 302 44 18 209 11 263 -11z"/>
</g>
</svg>
