<?xml version="1.0" encoding="UTF-8" standalone="no"?>
<svg
   xmlns:dc="http://purl.org/dc/elements/1.1/"
   xmlns:cc="http://creativecommons.org/ns#"
   xmlns:rdf="http://www.w3.org/1999/02/22-rdf-syntax-ns#"
   xmlns:svg="http://www.w3.org/2000/svg"
   xmlns="http://www.w3.org/2000/svg"
   xmlns:sodipodi="http://sodipodi.sourceforge.net/DTD/sodipodi-0.dtd"
   xmlns:inkscape="http://www.inkscape.org/namespaces/inkscape"
   version="1.0"
   width="2042.000000pt"
   height="2536.000000pt"
   viewBox="0 0 2042.000000 2536.000000"
   preserveAspectRatio="xMidYMid meet"
   id="svg2"
   inkscape:version="0.91 r13725"
   sodipodi:docname="MeinWald.svg">
  <defs
     id="defs22">
    <clipPath
       clipPathUnits="userSpaceOnUse"
       id="clipPath3352">
      <rect
         style="fill:none"
         id="rect3354"
         width="7495.1689"
         height="6501.1865"
         x="10342.797"
         y="-15944.025"
         transform="scale(1,-1)" />
    </clipPath>
  </defs>
  <sodipodi:namedview
     pagecolor="#ffffff"
     bordercolor="#666666"
     borderopacity="1"
     objecttolerance="10"
     gridtolerance="10"
     guidetolerance="10"
     inkscape:pageopacity="0"
     inkscape:pageshadow="2"
     inkscape:window-width="1920"
     inkscape:window-height="1009"
     id="namedview20"
     showgrid="false"
     inkscape:zoom="0.2105706"
     inkscape:cx="2906.8744"
     inkscape:cy="1462.4432"
     inkscape:window-x="-8"
     inkscape:window-y="-8"
     inkscape:window-maximized="1"
     inkscape:current-layer="svg2" />
  <metadata
     id="metadata4">
Created by potrace 1.13, written by Peter Selinger 2001-2015
<rdf:RDF>
  <cc:Work
     rdf:about="">
    <dc:format>image/svg+xml</dc:format>
    <dc:type
       rdf:resource="http://purl.org/dc/dcmitype/StillImage" />
    <dc:title></dc:title>
  </cc:Work>
</rdf:RDF>
</metadata>
  <g
     transform="translate(0.000000,2536.000000) scale(0.100000,-0.100000)"
     fill="#000000"
     stroke="none"
     id="g6"
     clip-path="url(#clipPath3352)">
    <path
       d="M1 18368 c0 -6005 3 -6984 15 -6928 40 190 129 346 275 486 110 104 231 173 386 221 81 24 102 27 258 27 156 0 177 -3 258 -27 142 -44 306 -136 376 -211 14 -14 28 -26 33 -26 8 0 397 225 442 256 18 13 18 14 -10 24 -438 166 -817 438 -1094 785 -277 347 -492 843 -548 1263 -5 34 -8 62 -8 62 1 -1 1118 -144 2483 -318 1365 -175 2485 -321 2489 -325 6 -6 -82 -735 -103 -856 -5 -32 5 -25 212 148 606 508 1111 886 1325 994 188 94 433 109 740 46 98 -20 297 -75 318 -88 8 -5 -7 -56 -51 -175 -55 -148 -64 -167 -82 -163 -11 3 -58 16 -105 30 -270 81 -506 92 -637 32 -228 -104 -1002 -708 -1766 -1378 -144 -127 -149 -132 -192 -221 -53 -108 -80 -199 -140 -475 -98 -450 -136 -584 -205 -721 -55 -110 -122 -193 -191 -239 -81 -54 -142 -71 -257 -71 -170 0 -306 64 -449 213 -150 156 -256 348 -448 807 -107 255 -156 357 -201 418 -23 29 -30 32 -80 32 -65 0 -300 25 -405 43 l-74 13 -370 -218 c-204 -119 -374 -219 -378 -220 -5 -2 4 -44 19 -93 21 -73 27 -117 31 -233 4 -89 1 -166 -6 -205 -72 -377 -352 -670 -723 -753 -97 -23 -308 -23 -404 -1 -361 80 -639 360 -719 722 -11 50 -14 -855 -14 -5492 l-1 -5553 1015 0 1015 0 0 2270 0 2270 2270 0 2270 0 0 -2270 0 -2270 2430 0 2430 0 0 2270 0 2270 2275 0 2275 0 0 -2270 0 -2270 2220 0 2220 0 0 10599 0 10598 -39 -19 c-46 -22 -70 -24 -551 -38 -346 -10 -522 -26 -740 -66 -474 -87 -853 -240 -1295 -521 -417 -264 -643 -380 -925 -473 -260 -86 -434 -103 -747 -75 -109 10 -200 19 -202 21 -2 2 24 36 56 76 112 137 174 247 222 396 39 119 54 217 54 347 0 232 -66 447 -202 649 -57 86 -188 223 -200 210 -5 -5 -21 -61 -36 -125 l-26 -116 52 -69 c68 -90 133 -228 160 -340 26 -112 28 -283 4 -399 -51 -245 -209 -466 -427 -596 l-68 -40 0 -51 c0 -199 -90 -536 -211 -788 -201 -418 -566 -756 -1034 -955 -349 -149 -736 -187 -1033 -102 -88 26 -85 19 -63 153 l12 71 103 6 c261 16 552 133 773 311 414 334 609 902 483 1410 -15 63 -24 78 -78 134 -116 119 -197 269 -239 440 -22 91 -22 303 0 394 42 172 128 329 242 444 50 50 73 84 119 180 415 865 1193 1909 2091 2809 411 412 773 722 985 842 l75 43 -8868 0 -8867 0 1 -6992z m7680 6759 c494 -129 759 -537 863 -1327 32 -239 48 -453 71 -960 8 -184 20 -402 25 -485 53 -791 177 -1202 433 -1441 141 -132 300 -192 529 -201 88 -4 166 -1 215 7 445 71 715 452 800 1131 12 101 16 206 15 424 0 160 -4 311 -7 338 l-7 47 115 0 114 0 6 -107 c12 -190 8 -548 -8 -699 -84 -798 -432 -1275 -992 -1359 -172 -26 -365 -17 -528 25 -85 22 -239 91 -309 139 -227 157 -399 450 -491 836 -71 300 -102 592 -135 1300 -42 877 -81 1196 -187 1498 -153 442 -408 638 -828 639 -364 0 -621 -163 -815 -517 -174 -319 -279 -857 -280 -1432 l0 -143 -109 0 -108 0 -7 68 c-8 85 9 466 30 641 90 778 357 1287 789 1504 161 81 302 108 535 103 147 -3 191 -8 271 -29z m-5422 -135 c19 -9 44 -30 55 -45 20 -27 21 -41 21 -282 0 -241 -1 -255 -21 -282 -11 -15 -36 -36 -55 -45 -31 -17 -90 -18 -797 -18 -730 0 -764 1 -800 19 -69 36 -72 48 -72 326 0 230 1 250 20 280 42 67 3 65 850 65 709 0 768 -1 799 -18z m-419 -894 c0 -165 -35 -985 -60 -1423 -57 -980 -144 -1654 -237 -1840 -36 -71 -91 -96 -125 -57 -90 102 -166 519 -228 1242 -37 448 -71 1045 -90 1615 -5 171 -12 356 -14 413 l-5 102 380 0 379 0 0 -52z m4200 -2193 l0 -755 -630 0 c-597 0 -630 1 -630 18 0 33 59 257 94 359 106 302 242 533 429 730 200 208 409 332 647 383 47 10 86 19 88 19 1 1 2 -339 2 -754z m395 723 c219 -54 414 -174 601 -371 126 -131 211 -256 307 -447 102 -204 177 -422 213 -622 l6 -38 -636 0 -636 0 0 755 0 755 33 -6 c17 -3 68 -15 112 -26z m-5435 -347 c0 -4 11 -118 25 -251 107 -1032 237 -1460 441 -1460 203 0 347 511 445 1583 l13 137 415 0 c400 0 417 -1 449 -20 55 -34 65 -73 52 -209 -81 -850 -241 -1681 -435 -2249 -217 -638 -470 -1001 -770 -1100 -143 -48 -283 -35 -435 39 -71 35 -102 59 -185 143 -115 115 -196 232 -290 417 -270 530 -484 1395 -609 2459 -49 410 -47 462 18 501 29 18 58 19 449 19 230 0 417 -4 417 -9z m6596 -1386 c3 -14 4 -141 1 -283 -5 -273 -20 -396 -73 -607 -77 -309 -224 -615 -398 -831 -189 -235 -429 -401 -682 -471 -91 -25 -114 -28 -274 -28 -160 0 -183 3 -274 28 -199 55 -373 157 -538 316 -361 346 -581 874 -617 1483 -8 139 -6 372 4 406 4 9 297 12 1424 12 l1421 0 6 -25z m6397 -257 c46 -231 146 -424 308 -590 l78 -80 15 -91 c9 -50 16 -112 16 -139 l0 -48 -87 -65 c-185 -137 -510 -274 -786 -330 -510 -103 -970 -7 -1354 282 -134 101 -333 315 -333 358 0 31 974 412 1520 595 173 58 582 187 601 189 3 1 13 -36 22 -81z m1762 -4976 c15 -12 42 -41 59 -64 16 -23 261 -566 542 -1207 l512 -1166 -249 -3 c-137 -1 -249 -5 -249 -8 0 -3 261 -567 580 -1252 344 -741 584 -1269 591 -1301 15 -70 7 -157 -19 -208 -27 -53 -101 -117 -160 -139 -43 -17 -98 -19 -594 -22 l-548 -3 0 -215 0 -214 -595 0 -595 0 0 224 0 224 38 28 c188 144 409 425 527 669 134 278 195 546 195 860 0 470 -147 880 -451 1260 -109 137 -135 199 -160 386 -37 286 -87 464 -188 675 l-58 120 273 623 c151 343 289 644 307 670 52 72 91 94 158 89 38 -3 65 -11 84 -26z m-2534 -853 c671 -68 1241 -525 1448 -1159 40 -125 57 -199 76 -348 19 -151 42 -215 106 -295 199 -252 310 -478 371 -760 19 -88 22 -132 22 -322 0 -190 -3 -234 -22 -322 -68 -312 -206 -578 -414 -797 -296 -314 -682 -491 -1115 -513 l-123 -6 0 -214 0 -213 -600 0 -600 0 0 215 0 215 -62 0 c-149 0 -337 33 -497 86 -546 181 -958 644 -1083 1218 -30 139 -33 502 -5 641 25 121 70 261 123 375 65 143 65 155 4 279 -28 58 -63 143 -78 190 -24 80 -26 99 -26 271 0 173 2 191 27 273 53 173 134 304 263 427 179 171 370 251 639 269 78 5 146 15 169 25 21 9 79 49 130 90 118 96 213 156 339 217 284 135 599 190 908 158z"
       id="path8" />
    <path
       d="M17854 25330 c76 -49 92 -107 55 -204 -16 -44 -55 -94 -187 -243 -663 -746 -1138 -1426 -1471 -2108 -69 -140 -161 -346 -161 -358 0 -3 44 -36 97 -73 351 -249 616 -641 718 -1063 l18 -73 61 7 c125 14 421 66 736 130 938 190 1186 225 1614 225 342 0 585 -33 847 -116 138 -44 178 -64 213 -104 l26 -32 0 2021 0 2021 -1307 0 -1307 0 48 -30z"
       id="path10" />
    <path
       d="M15023 21176 c-100 -33 -173 -94 -220 -186 -25 -49 -28 -65 -28 -145 1 -70 6 -100 23 -138 30 -66 101 -138 169 -173 50 -25 69 -29 143 -29 71 0 94 4 141 26 79 37 133 90 171 167 29 58 33 76 33 147 0 66 -5 90 -26 136 -37 79 -90 133 -165 170 -75 37 -173 47 -241 25z"
       id="path12" />
    <path
       d="M4115 12029 c-225 -20 -449 -38 -498 -38 l-87 -1 14 -32 c8 -18 60 -141 115 -273 215 -510 341 -714 485 -781 71 -33 107 -31 146 7 73 73 121 220 215 656 36 169 79 341 122 486 7 23 -17 22 -512 -24z"
       id="path14" />
    <path
       d="M13094 4131 c-54 -25 -74 -55 -74 -111 0 -76 -30 -308 -56 -439 -49 -244 -145 -487 -256 -648 -29 -42 -103 -123 -175 -190 -282 -264 -366 -455 -379 -863 -9 -256 10 -667 35 -763 31 -118 74 -200 147 -277 75 -79 158 -127 284 -163 164 -47 231 -52 745 -52 407 0 501 3 620 18 398 52 640 141 701 258 8 15 14 55 14 89 0 92 17 122 91 161 86 46 133 94 147 152 7 25 12 99 12 164 0 139 6 154 79 178 65 21 137 85 151 133 5 20 10 95 10 165 l0 129 29 29 c16 16 37 29 46 29 27 0 91 38 118 70 37 44 47 89 47 220 0 128 -14 173 -66 222 -43 40 -130 75 -214 87 -41 5 -390 31 -775 57 -776 52 -770 51 -802 118 -15 32 -15 49 -5 170 20 223 33 646 23 720 -10 72 -55 175 -94 218 -106 116 -290 170 -403 119z"
       id="path16" />
    <path
       d="M4595 4009 c-253 -33 -470 -162 -552 -330 -63 -128 -66 -152 -70 -516 l-4 -333 -165 0 -164 0 0 -295 0 -295 155 0 155 0 0 -895 0 -895 400 0 400 0 0 895 0 895 240 0 240 0 4 23 c3 12 17 128 31 257 14 129 28 252 31 273 l6 37 -276 0 -276 0 0 233 c0 277 6 298 86 338 47 23 60 24 282 27 l232 3 0 295 0 294 -342 -1 c-189 -1 -374 -6 -413 -10z"
       id="path18" />
  </g>
</svg>
